G04 #@! TF.FileFunction,Soldermask,Top*
%FSLAX46Y46*%
G04 Gerber Fmt 4.6, Leading zero omitted, Abs format (unit mm)*
G04 Created by KiCad (PCBNEW 4.0.7-e2-6376~58~ubuntu16.04.1) date Mon Oct  9 01:06:08 2017*
%MOMM*%
%LPD*%
G01*
G04 APERTURE LIST*
%ADD10C,0.100000*%
%ADD11R,1.600000X1.600000*%
%ADD12O,1.600000X1.600000*%
%ADD13R,2.600000X2.600000*%
%ADD14C,2.600000*%
%ADD15R,4.000000X2.500000*%
%ADD16R,3.500000X1.600000*%
%ADD17R,1.500000X2.400000*%
%ADD18R,1.700000X0.700000*%
%ADD19R,1.850000X1.850000*%
%ADD20C,1.850000*%
%ADD21R,1.000000X2.500000*%
%ADD22R,2.000000X4.000000*%
%ADD23R,3.500000X3.500000*%
%ADD24R,4.600000X1.100000*%
%ADD25R,9.400000X10.800000*%
%ADD26C,1.620000*%
%ADD27R,3.000000X2.200000*%
%ADD28C,3.200000*%
G04 APERTURE END LIST*
D10*
D11*
X99600000Y-74600000D03*
D12*
X84360000Y-41580000D03*
X99600000Y-72060000D03*
X84360000Y-44120000D03*
X99600000Y-69520000D03*
X84360000Y-46660000D03*
X99600000Y-66980000D03*
X84360000Y-49200000D03*
X99600000Y-64440000D03*
X84360000Y-51740000D03*
X99600000Y-61900000D03*
X84360000Y-54280000D03*
X99600000Y-59360000D03*
X84360000Y-56820000D03*
X99600000Y-56820000D03*
X84360000Y-59360000D03*
X99600000Y-54280000D03*
X84360000Y-61900000D03*
X99600000Y-51740000D03*
X84360000Y-64440000D03*
X99600000Y-49200000D03*
X84360000Y-66980000D03*
X99600000Y-46660000D03*
X84360000Y-69520000D03*
X99600000Y-44120000D03*
X84360000Y-72060000D03*
X99600000Y-41580000D03*
X84360000Y-74600000D03*
X99600000Y-39040000D03*
X84360000Y-39040000D03*
D13*
X102200000Y-160800000D03*
D14*
X108200000Y-160800000D03*
X105200000Y-156100000D03*
D15*
X64400000Y-110000000D03*
X72400000Y-110000000D03*
X71400000Y-161400000D03*
X63400000Y-161400000D03*
X70725000Y-54025000D03*
X78725000Y-54025000D03*
D16*
X69750000Y-75750000D03*
X64350000Y-75750000D03*
X77300000Y-87400000D03*
X71900000Y-87400000D03*
X77100000Y-129800000D03*
X71700000Y-129800000D03*
D10*
G36*
X83600000Y-149150000D02*
X80000000Y-149150000D01*
X81000000Y-144850000D01*
X82600000Y-144850000D01*
X83600000Y-149150000D01*
X83600000Y-149150000D01*
G37*
G36*
X80000000Y-138450000D02*
X83600000Y-138450000D01*
X82600000Y-142750000D01*
X81000000Y-142750000D01*
X80000000Y-138450000D01*
X80000000Y-138450000D01*
G37*
G36*
X66225000Y-59100000D02*
X62625000Y-59100000D01*
X63625000Y-54800000D01*
X65225000Y-54800000D01*
X66225000Y-59100000D01*
X66225000Y-59100000D01*
G37*
G36*
X62625000Y-48400000D02*
X66225000Y-48400000D01*
X65225000Y-52700000D01*
X63625000Y-52700000D01*
X62625000Y-48400000D01*
X62625000Y-48400000D01*
G37*
G36*
X77200000Y-104850000D02*
X80800000Y-104850000D01*
X79800000Y-109150000D01*
X78200000Y-109150000D01*
X77200000Y-104850000D01*
X77200000Y-104850000D01*
G37*
G36*
X80800000Y-115550000D02*
X77200000Y-115550000D01*
X78200000Y-111250000D01*
X79800000Y-111250000D01*
X80800000Y-115550000D01*
X80800000Y-115550000D01*
G37*
D17*
X62850000Y-87400000D03*
X68350000Y-87400000D03*
X62650000Y-129800000D03*
X68150000Y-129800000D03*
X79050000Y-75650000D03*
X73550000Y-75650000D03*
D18*
X80550000Y-152685000D03*
X80550000Y-153955000D03*
X80550000Y-155225000D03*
X80550000Y-156495000D03*
X80550000Y-157765000D03*
X80550000Y-159035000D03*
X80550000Y-160305000D03*
X80550000Y-161575000D03*
X80550000Y-162845000D03*
X80550000Y-164115000D03*
X94250000Y-164115000D03*
X94250000Y-162845000D03*
X94250000Y-161575000D03*
X94250000Y-160305000D03*
X94250000Y-159035000D03*
X94250000Y-157765000D03*
X94250000Y-156495000D03*
X94250000Y-155225000D03*
X94250000Y-153955000D03*
X94250000Y-152685000D03*
D19*
X107950000Y-136050000D03*
D20*
X107950000Y-138550000D03*
D19*
X107950000Y-126550000D03*
D20*
X107950000Y-129050000D03*
D19*
X107950000Y-145550000D03*
D20*
X107950000Y-148050000D03*
X107950000Y-150550000D03*
D19*
X108450000Y-69800000D03*
D20*
X108450000Y-72300000D03*
D19*
X108450000Y-80050000D03*
D20*
X108450000Y-82550000D03*
D19*
X108700000Y-89800000D03*
D20*
X108700000Y-92300000D03*
X108700000Y-94800000D03*
D19*
X108400000Y-57800000D03*
D20*
X108400000Y-60300000D03*
X108400000Y-62800000D03*
D19*
X108400000Y-43200000D03*
D20*
X108400000Y-45700000D03*
X108400000Y-48200000D03*
X108400000Y-50700000D03*
D19*
X108450000Y-102300000D03*
D20*
X108450000Y-104800000D03*
X108450000Y-107300000D03*
X108450000Y-109800000D03*
D21*
X99500000Y-139780000D03*
X101000000Y-139780000D03*
X102500000Y-139780000D03*
D22*
X101000000Y-135820000D03*
D10*
G36*
X102000000Y-137795000D02*
X101500000Y-138545000D01*
X100500000Y-138545000D01*
X100000000Y-137795000D01*
X102000000Y-137795000D01*
X102000000Y-137795000D01*
G37*
D21*
X99300000Y-102480000D03*
X100800000Y-102480000D03*
X102300000Y-102480000D03*
D22*
X100800000Y-98520000D03*
D10*
G36*
X101800000Y-100495000D02*
X101300000Y-101245000D01*
X100300000Y-101245000D01*
X99800000Y-100495000D01*
X101800000Y-100495000D01*
X101800000Y-100495000D01*
G37*
D21*
X99700000Y-112180000D03*
X101200000Y-112180000D03*
X102700000Y-112180000D03*
D22*
X101200000Y-108220000D03*
D10*
G36*
X102200000Y-110195000D02*
X101700000Y-110945000D01*
X100700000Y-110945000D01*
X100200000Y-110195000D01*
X102200000Y-110195000D01*
X102200000Y-110195000D01*
G37*
D21*
X89700000Y-116380000D03*
X91200000Y-116380000D03*
X92700000Y-116380000D03*
D22*
X91200000Y-112420000D03*
D10*
G36*
X92200000Y-114395000D02*
X91700000Y-115145000D01*
X90700000Y-115145000D01*
X90200000Y-114395000D01*
X92200000Y-114395000D01*
X92200000Y-114395000D01*
G37*
D23*
X94800000Y-125000000D03*
X88000000Y-125000000D03*
X94800000Y-129600000D03*
X88000000Y-129600000D03*
X94800000Y-133850000D03*
X88000000Y-133850000D03*
X94800000Y-138850000D03*
X88000000Y-138850000D03*
X94700000Y-143200000D03*
X87900000Y-143200000D03*
X94600000Y-147800000D03*
X87800000Y-147800000D03*
D24*
X75375000Y-147200000D03*
X75375000Y-145500000D03*
X75375000Y-143800000D03*
X75375000Y-142100000D03*
X75375000Y-140400000D03*
D25*
X66225000Y-143800000D03*
D24*
X75775000Y-101000000D03*
X75775000Y-99300000D03*
X75775000Y-97600000D03*
X75775000Y-95900000D03*
X75775000Y-94200000D03*
D25*
X66625000Y-97600000D03*
D24*
X64975000Y-62050000D03*
X64975000Y-63750000D03*
X64975000Y-65450000D03*
X64975000Y-67150000D03*
X64975000Y-68850000D03*
D25*
X74125000Y-65450000D03*
D26*
X103000000Y-118800000D03*
X101000000Y-118800000D03*
X99000000Y-118800000D03*
D20*
X103730000Y-121520000D03*
D26*
X97000000Y-118800000D03*
D20*
X96730000Y-121520000D03*
X103730000Y-116080000D03*
X96730000Y-116080000D03*
D23*
X80200000Y-121000000D03*
X73400000Y-121000000D03*
X85000000Y-106200000D03*
X85000000Y-99400000D03*
X90200000Y-106200000D03*
X90200000Y-99400000D03*
X95000000Y-106200000D03*
X95000000Y-99400000D03*
X100900000Y-91150000D03*
X100900000Y-84350000D03*
X94250000Y-91050000D03*
X94250000Y-84250000D03*
X87950000Y-91100000D03*
X87950000Y-84300000D03*
X99000000Y-145800000D03*
X99000000Y-152600000D03*
D27*
X76600000Y-159500000D03*
X76600000Y-165300000D03*
X97800000Y-159500000D03*
X97800000Y-165300000D03*
X103400000Y-151900000D03*
X103400000Y-146100000D03*
D28*
X64100000Y-31850000D03*
X113900000Y-31550000D03*
X113550000Y-170800000D03*
X64000000Y-170950000D03*
M02*
