G04 #@! TF.FileFunction,Legend,Top*
%FSLAX46Y46*%
G04 Gerber Fmt 4.6, Leading zero omitted, Abs format (unit mm)*
G04 Created by KiCad (PCBNEW 4.0.7-e2-6376~58~ubuntu16.04.1) date Mon Oct  9 01:06:08 2017*
%MOMM*%
%LPD*%
G01*
G04 APERTURE LIST*
%ADD10C,0.100000*%
%ADD11C,0.300000*%
%ADD12C,0.120000*%
%ADD13C,0.150000*%
G04 APERTURE END LIST*
D10*
D11*
X70837146Y-169952857D02*
X70337146Y-169952857D01*
X70337146Y-170738571D02*
X70337146Y-169238571D01*
X71051432Y-169238571D01*
X71837146Y-170738571D02*
X71694288Y-170667143D01*
X71622860Y-170524286D01*
X71622860Y-169238571D01*
X72265717Y-169738571D02*
X72622860Y-170738571D01*
X72980002Y-169738571D02*
X72622860Y-170738571D01*
X72480002Y-171095714D01*
X72408574Y-171167143D01*
X72265717Y-171238571D01*
X73551431Y-170738571D02*
X73551431Y-169238571D01*
X74122859Y-169238571D01*
X74265717Y-169310000D01*
X74337145Y-169381429D01*
X74408574Y-169524286D01*
X74408574Y-169738571D01*
X74337145Y-169881429D01*
X74265717Y-169952857D01*
X74122859Y-170024286D01*
X73551431Y-170024286D01*
X75051431Y-170738571D02*
X75051431Y-169738571D01*
X75051431Y-169238571D02*
X74980002Y-169310000D01*
X75051431Y-169381429D01*
X75122859Y-169310000D01*
X75051431Y-169238571D01*
X75051431Y-169381429D01*
X76765717Y-169738571D02*
X77122860Y-170738571D01*
X77480002Y-169738571D01*
X78051431Y-170595714D02*
X78122859Y-170667143D01*
X78051431Y-170738571D01*
X77980002Y-170667143D01*
X78051431Y-170595714D01*
X78051431Y-170738571D01*
X79051431Y-169238571D02*
X79194288Y-169238571D01*
X79337145Y-169310000D01*
X79408574Y-169381429D01*
X79480003Y-169524286D01*
X79551431Y-169810000D01*
X79551431Y-170167143D01*
X79480003Y-170452857D01*
X79408574Y-170595714D01*
X79337145Y-170667143D01*
X79194288Y-170738571D01*
X79051431Y-170738571D01*
X78908574Y-170667143D01*
X78837145Y-170595714D01*
X78765717Y-170452857D01*
X78694288Y-170167143D01*
X78694288Y-169810000D01*
X78765717Y-169524286D01*
X78837145Y-169381429D01*
X78908574Y-169310000D01*
X79051431Y-169238571D01*
X80837145Y-169738571D02*
X80837145Y-170738571D01*
X80480002Y-169167143D02*
X80122859Y-170238571D01*
X81051431Y-170238571D01*
X82694287Y-169381429D02*
X82765716Y-169310000D01*
X82908573Y-169238571D01*
X83265716Y-169238571D01*
X83408573Y-169310000D01*
X83480002Y-169381429D01*
X83551430Y-169524286D01*
X83551430Y-169667143D01*
X83480002Y-169881429D01*
X82622859Y-170738571D01*
X83551430Y-170738571D01*
X84480001Y-169238571D02*
X84622858Y-169238571D01*
X84765715Y-169310000D01*
X84837144Y-169381429D01*
X84908573Y-169524286D01*
X84980001Y-169810000D01*
X84980001Y-170167143D01*
X84908573Y-170452857D01*
X84837144Y-170595714D01*
X84765715Y-170667143D01*
X84622858Y-170738571D01*
X84480001Y-170738571D01*
X84337144Y-170667143D01*
X84265715Y-170595714D01*
X84194287Y-170452857D01*
X84122858Y-170167143D01*
X84122858Y-169810000D01*
X84194287Y-169524286D01*
X84265715Y-169381429D01*
X84337144Y-169310000D01*
X84480001Y-169238571D01*
X86408572Y-170738571D02*
X85551429Y-170738571D01*
X85980001Y-170738571D02*
X85980001Y-169238571D01*
X85837144Y-169452857D01*
X85694286Y-169595714D01*
X85551429Y-169667143D01*
X86908572Y-169238571D02*
X87908572Y-169238571D01*
X87265715Y-170738571D01*
X89265714Y-170738571D02*
X88408571Y-170738571D01*
X88837143Y-170738571D02*
X88837143Y-169238571D01*
X88694286Y-169452857D01*
X88551428Y-169595714D01*
X88408571Y-169667143D01*
X90194285Y-169238571D02*
X90337142Y-169238571D01*
X90479999Y-169310000D01*
X90551428Y-169381429D01*
X90622857Y-169524286D01*
X90694285Y-169810000D01*
X90694285Y-170167143D01*
X90622857Y-170452857D01*
X90551428Y-170595714D01*
X90479999Y-170667143D01*
X90337142Y-170738571D01*
X90194285Y-170738571D01*
X90051428Y-170667143D01*
X89979999Y-170595714D01*
X89908571Y-170452857D01*
X89837142Y-170167143D01*
X89837142Y-169810000D01*
X89908571Y-169524286D01*
X89979999Y-169381429D01*
X90051428Y-169310000D01*
X90194285Y-169238571D01*
X91622856Y-169238571D02*
X91765713Y-169238571D01*
X91908570Y-169310000D01*
X91979999Y-169381429D01*
X92051428Y-169524286D01*
X92122856Y-169810000D01*
X92122856Y-170167143D01*
X92051428Y-170452857D01*
X91979999Y-170595714D01*
X91908570Y-170667143D01*
X91765713Y-170738571D01*
X91622856Y-170738571D01*
X91479999Y-170667143D01*
X91408570Y-170595714D01*
X91337142Y-170452857D01*
X91265713Y-170167143D01*
X91265713Y-169810000D01*
X91337142Y-169524286D01*
X91408570Y-169381429D01*
X91479999Y-169310000D01*
X91622856Y-169238571D01*
X92837141Y-170738571D02*
X93122856Y-170738571D01*
X93265713Y-170667143D01*
X93337141Y-170595714D01*
X93479999Y-170381429D01*
X93551427Y-170095714D01*
X93551427Y-169524286D01*
X93479999Y-169381429D01*
X93408570Y-169310000D01*
X93265713Y-169238571D01*
X92979999Y-169238571D01*
X92837141Y-169310000D01*
X92765713Y-169381429D01*
X92694284Y-169524286D01*
X92694284Y-169881429D01*
X92765713Y-170024286D01*
X92837141Y-170095714D01*
X92979999Y-170167143D01*
X93265713Y-170167143D01*
X93408570Y-170095714D01*
X93479999Y-170024286D01*
X93551427Y-169881429D01*
X96194284Y-170595714D02*
X96122855Y-170667143D01*
X95908569Y-170738571D01*
X95765712Y-170738571D01*
X95551427Y-170667143D01*
X95408569Y-170524286D01*
X95337141Y-170381429D01*
X95265712Y-170095714D01*
X95265712Y-169881429D01*
X95337141Y-169595714D01*
X95408569Y-169452857D01*
X95551427Y-169310000D01*
X95765712Y-169238571D01*
X95908569Y-169238571D01*
X96122855Y-169310000D01*
X96194284Y-169381429D01*
X97694284Y-170595714D02*
X97622855Y-170667143D01*
X97408569Y-170738571D01*
X97265712Y-170738571D01*
X97051427Y-170667143D01*
X96908569Y-170524286D01*
X96837141Y-170381429D01*
X96765712Y-170095714D01*
X96765712Y-169881429D01*
X96837141Y-169595714D01*
X96908569Y-169452857D01*
X97051427Y-169310000D01*
X97265712Y-169238571D01*
X97408569Y-169238571D01*
X97622855Y-169310000D01*
X97694284Y-169381429D01*
X98837141Y-169952857D02*
X99051427Y-170024286D01*
X99122855Y-170095714D01*
X99194284Y-170238571D01*
X99194284Y-170452857D01*
X99122855Y-170595714D01*
X99051427Y-170667143D01*
X98908569Y-170738571D01*
X98337141Y-170738571D01*
X98337141Y-169238571D01*
X98837141Y-169238571D01*
X98979998Y-169310000D01*
X99051427Y-169381429D01*
X99122855Y-169524286D01*
X99122855Y-169667143D01*
X99051427Y-169810000D01*
X98979998Y-169881429D01*
X98837141Y-169952857D01*
X98337141Y-169952857D01*
X100122855Y-170024286D02*
X100122855Y-170738571D01*
X99622855Y-169238571D02*
X100122855Y-170024286D01*
X100622855Y-169238571D01*
X102908569Y-169738571D02*
X102908569Y-170738571D01*
X102551426Y-169167143D02*
X102194283Y-170238571D01*
X103122855Y-170238571D01*
X103694283Y-170595714D02*
X103765711Y-170667143D01*
X103694283Y-170738571D01*
X103622854Y-170667143D01*
X103694283Y-170595714D01*
X103694283Y-170738571D01*
X104694283Y-169238571D02*
X104837140Y-169238571D01*
X104979997Y-169310000D01*
X105051426Y-169381429D01*
X105122855Y-169524286D01*
X105194283Y-169810000D01*
X105194283Y-170167143D01*
X105122855Y-170452857D01*
X105051426Y-170595714D01*
X104979997Y-170667143D01*
X104837140Y-170738571D01*
X104694283Y-170738571D01*
X104551426Y-170667143D01*
X104479997Y-170595714D01*
X104408569Y-170452857D01*
X104337140Y-170167143D01*
X104337140Y-169810000D01*
X104408569Y-169524286D01*
X104479997Y-169381429D01*
X104551426Y-169310000D01*
X104694283Y-169238571D01*
X76122858Y-173145714D02*
X76051429Y-173217143D01*
X75837143Y-173288571D01*
X75694286Y-173288571D01*
X75480001Y-173217143D01*
X75337143Y-173074286D01*
X75265715Y-172931429D01*
X75194286Y-172645714D01*
X75194286Y-172431429D01*
X75265715Y-172145714D01*
X75337143Y-172002857D01*
X75480001Y-171860000D01*
X75694286Y-171788571D01*
X75837143Y-171788571D01*
X76051429Y-171860000D01*
X76122858Y-171931429D01*
X76765715Y-173288571D02*
X76765715Y-172288571D01*
X76765715Y-172574286D02*
X76837143Y-172431429D01*
X76908572Y-172360000D01*
X77051429Y-172288571D01*
X77194286Y-172288571D01*
X78265714Y-173217143D02*
X78122857Y-173288571D01*
X77837143Y-173288571D01*
X77694286Y-173217143D01*
X77622857Y-173074286D01*
X77622857Y-172502857D01*
X77694286Y-172360000D01*
X77837143Y-172288571D01*
X78122857Y-172288571D01*
X78265714Y-172360000D01*
X78337143Y-172502857D01*
X78337143Y-172645714D01*
X77622857Y-172788571D01*
X79622857Y-173288571D02*
X79622857Y-172502857D01*
X79551428Y-172360000D01*
X79408571Y-172288571D01*
X79122857Y-172288571D01*
X78980000Y-172360000D01*
X79622857Y-173217143D02*
X79480000Y-173288571D01*
X79122857Y-173288571D01*
X78980000Y-173217143D01*
X78908571Y-173074286D01*
X78908571Y-172931429D01*
X78980000Y-172788571D01*
X79122857Y-172717143D01*
X79480000Y-172717143D01*
X79622857Y-172645714D01*
X80122857Y-172288571D02*
X80694286Y-172288571D01*
X80337143Y-171788571D02*
X80337143Y-173074286D01*
X80408571Y-173217143D01*
X80551429Y-173288571D01*
X80694286Y-173288571D01*
X81765714Y-173217143D02*
X81622857Y-173288571D01*
X81337143Y-173288571D01*
X81194286Y-173217143D01*
X81122857Y-173074286D01*
X81122857Y-172502857D01*
X81194286Y-172360000D01*
X81337143Y-172288571D01*
X81622857Y-172288571D01*
X81765714Y-172360000D01*
X81837143Y-172502857D01*
X81837143Y-172645714D01*
X81122857Y-172788571D01*
X83122857Y-173288571D02*
X83122857Y-171788571D01*
X83122857Y-173217143D02*
X82980000Y-173288571D01*
X82694286Y-173288571D01*
X82551428Y-173217143D01*
X82480000Y-173145714D01*
X82408571Y-173002857D01*
X82408571Y-172574286D01*
X82480000Y-172431429D01*
X82551428Y-172360000D01*
X82694286Y-172288571D01*
X82980000Y-172288571D01*
X83122857Y-172360000D01*
X84980000Y-173288571D02*
X84980000Y-171788571D01*
X84980000Y-172360000D02*
X85122857Y-172288571D01*
X85408571Y-172288571D01*
X85551428Y-172360000D01*
X85622857Y-172431429D01*
X85694286Y-172574286D01*
X85694286Y-173002857D01*
X85622857Y-173145714D01*
X85551428Y-173217143D01*
X85408571Y-173288571D01*
X85122857Y-173288571D01*
X84980000Y-173217143D01*
X86194286Y-172288571D02*
X86551429Y-173288571D01*
X86908571Y-172288571D02*
X86551429Y-173288571D01*
X86408571Y-173645714D01*
X86337143Y-173717143D01*
X86194286Y-173788571D01*
X88551428Y-172860000D02*
X89265714Y-172860000D01*
X88408571Y-173288571D02*
X88908571Y-171788571D01*
X89408571Y-173288571D01*
X89908571Y-173288571D02*
X89908571Y-171788571D01*
X90408571Y-172860000D01*
X90908571Y-171788571D01*
X90908571Y-173288571D01*
X93622857Y-173145714D02*
X93551428Y-173217143D01*
X93337142Y-173288571D01*
X93194285Y-173288571D01*
X92980000Y-173217143D01*
X92837142Y-173074286D01*
X92765714Y-172931429D01*
X92694285Y-172645714D01*
X92694285Y-172431429D01*
X92765714Y-172145714D01*
X92837142Y-172002857D01*
X92980000Y-171860000D01*
X93194285Y-171788571D01*
X93337142Y-171788571D01*
X93551428Y-171860000D01*
X93622857Y-171931429D01*
X94265714Y-173288571D02*
X94265714Y-171788571D01*
X94908571Y-173288571D02*
X94908571Y-172502857D01*
X94837142Y-172360000D01*
X94694285Y-172288571D01*
X94480000Y-172288571D01*
X94337142Y-172360000D01*
X94265714Y-172431429D01*
X96265714Y-173288571D02*
X96265714Y-172502857D01*
X96194285Y-172360000D01*
X96051428Y-172288571D01*
X95765714Y-172288571D01*
X95622857Y-172360000D01*
X96265714Y-173217143D02*
X96122857Y-173288571D01*
X95765714Y-173288571D01*
X95622857Y-173217143D01*
X95551428Y-173074286D01*
X95551428Y-172931429D01*
X95622857Y-172788571D01*
X95765714Y-172717143D01*
X96122857Y-172717143D01*
X96265714Y-172645714D01*
X97622857Y-172288571D02*
X97622857Y-173502857D01*
X97551428Y-173645714D01*
X97480000Y-173717143D01*
X97337143Y-173788571D01*
X97122857Y-173788571D01*
X96980000Y-173717143D01*
X97622857Y-173217143D02*
X97480000Y-173288571D01*
X97194286Y-173288571D01*
X97051428Y-173217143D01*
X96980000Y-173145714D01*
X96908571Y-173002857D01*
X96908571Y-172574286D01*
X96980000Y-172431429D01*
X97051428Y-172360000D01*
X97194286Y-172288571D01*
X97480000Y-172288571D01*
X97622857Y-172360000D01*
X98980000Y-173288571D02*
X98980000Y-172502857D01*
X98908571Y-172360000D01*
X98765714Y-172288571D01*
X98480000Y-172288571D01*
X98337143Y-172360000D01*
X98980000Y-173217143D02*
X98837143Y-173288571D01*
X98480000Y-173288571D01*
X98337143Y-173217143D01*
X98265714Y-173074286D01*
X98265714Y-172931429D01*
X98337143Y-172788571D01*
X98480000Y-172717143D01*
X98837143Y-172717143D01*
X98980000Y-172645714D01*
X99622857Y-173217143D02*
X99765714Y-173288571D01*
X100051429Y-173288571D01*
X100194286Y-173217143D01*
X100265714Y-173074286D01*
X100265714Y-173002857D01*
X100194286Y-172860000D01*
X100051429Y-172788571D01*
X99837143Y-172788571D01*
X99694286Y-172717143D01*
X99622857Y-172574286D01*
X99622857Y-172502857D01*
X99694286Y-172360000D01*
X99837143Y-172288571D01*
X100051429Y-172288571D01*
X100194286Y-172360000D01*
D12*
X98330000Y-73330000D02*
X98330000Y-75870000D01*
X98330000Y-75870000D02*
X101000000Y-75870000D01*
X101000000Y-73330000D02*
X101000000Y-35100000D01*
X101000000Y-78540000D02*
X101000000Y-75870000D01*
X85630000Y-75870000D02*
X82960000Y-75870000D01*
X85630000Y-75870000D02*
X85630000Y-37770000D01*
X85630000Y-37770000D02*
X82960000Y-37770000D01*
X98330000Y-73330000D02*
X101000000Y-73330000D01*
X98330000Y-73330000D02*
X98330000Y-37770000D01*
X98330000Y-37770000D02*
X101000000Y-37770000D01*
X101000000Y-35100000D02*
X82960000Y-35100000D01*
X82960000Y-35100000D02*
X82960000Y-78540000D01*
X82960000Y-78540000D02*
X101000000Y-78540000D01*
X107000000Y-156200000D02*
X116000000Y-156200000D01*
X116000000Y-156200000D02*
X116000000Y-165400000D01*
X116000000Y-165400000D02*
X101400000Y-165400000D01*
X101400000Y-165400000D02*
X101400000Y-162600000D01*
X101400000Y-159000000D02*
X101400000Y-156200000D01*
X101400000Y-156200000D02*
X103400000Y-156200000D01*
X102900000Y-165640000D02*
X101160000Y-165640000D01*
X101160000Y-165640000D02*
X101160000Y-163900000D01*
X63190000Y-105550000D02*
X63190000Y-108440000D01*
X63190000Y-114450000D02*
X63190000Y-111560000D01*
X73610000Y-115210000D02*
X73610000Y-111560000D01*
X73610000Y-104790000D02*
X73610000Y-108440000D01*
X73610000Y-115210000D02*
X63950000Y-115210000D01*
X63950000Y-115210000D02*
X63190000Y-114450000D01*
X63190000Y-105550000D02*
X63950000Y-104790000D01*
X63950000Y-104790000D02*
X73610000Y-104790000D01*
X72610000Y-165850000D02*
X72610000Y-162960000D01*
X72610000Y-156950000D02*
X72610000Y-159840000D01*
X62190000Y-156190000D02*
X62190000Y-159840000D01*
X62190000Y-166610000D02*
X62190000Y-162960000D01*
X62190000Y-156190000D02*
X71850000Y-156190000D01*
X71850000Y-156190000D02*
X72610000Y-156950000D01*
X72610000Y-165850000D02*
X71850000Y-166610000D01*
X71850000Y-166610000D02*
X62190000Y-166610000D01*
X69515000Y-49575000D02*
X69515000Y-52465000D01*
X69515000Y-58475000D02*
X69515000Y-55585000D01*
X79935000Y-59235000D02*
X79935000Y-55585000D01*
X79935000Y-48815000D02*
X79935000Y-52465000D01*
X79935000Y-59235000D02*
X70275000Y-59235000D01*
X70275000Y-59235000D02*
X69515000Y-58475000D01*
X69515000Y-49575000D02*
X70275000Y-48815000D01*
X70275000Y-48815000D02*
X79935000Y-48815000D01*
X63750000Y-72450000D02*
X63750000Y-74630000D01*
X63750000Y-79050000D02*
X63750000Y-76870000D01*
X70350000Y-73210000D02*
X70350000Y-74630000D01*
X70350000Y-78290000D02*
X70350000Y-76870000D01*
X63750000Y-72450000D02*
X69590000Y-72450000D01*
X69590000Y-72450000D02*
X70350000Y-73210000D01*
X70350000Y-78290000D02*
X69590000Y-79050000D01*
X69590000Y-79050000D02*
X63750000Y-79050000D01*
X71300000Y-84100000D02*
X71300000Y-86280000D01*
X71300000Y-90700000D02*
X71300000Y-88520000D01*
X77900000Y-84860000D02*
X77900000Y-86280000D01*
X77900000Y-89940000D02*
X77900000Y-88520000D01*
X71300000Y-84100000D02*
X77140000Y-84100000D01*
X77140000Y-84100000D02*
X77900000Y-84860000D01*
X77900000Y-89940000D02*
X77140000Y-90700000D01*
X77140000Y-90700000D02*
X71300000Y-90700000D01*
X71100000Y-126500000D02*
X71100000Y-128680000D01*
X71100000Y-133100000D02*
X71100000Y-130920000D01*
X77700000Y-127260000D02*
X77700000Y-128680000D01*
X77700000Y-132340000D02*
X77700000Y-130920000D01*
X71100000Y-126500000D02*
X76940000Y-126500000D01*
X76940000Y-126500000D02*
X77700000Y-127260000D01*
X77700000Y-132340000D02*
X76940000Y-133100000D01*
X76940000Y-133100000D02*
X71100000Y-133100000D01*
X85050000Y-149300000D02*
X78550000Y-149300000D01*
X85050000Y-149300000D02*
X85050000Y-139400000D01*
X78550000Y-149300000D02*
X78550000Y-139400000D01*
X67675000Y-59250000D02*
X61175000Y-59250000D01*
X67675000Y-59250000D02*
X67675000Y-49350000D01*
X61175000Y-59250000D02*
X61175000Y-49350000D01*
X75750000Y-104700000D02*
X82250000Y-104700000D01*
X75750000Y-104700000D02*
X75750000Y-114600000D01*
X82250000Y-104700000D02*
X82250000Y-114600000D01*
X68900000Y-88900000D02*
X68900000Y-90600000D01*
X68900000Y-90600000D02*
X62300000Y-90600000D01*
X62300000Y-90600000D02*
X62300000Y-88900000D01*
X62300000Y-85900000D02*
X62300000Y-84200000D01*
X62300000Y-84200000D02*
X68900000Y-84200000D01*
X68900000Y-84200000D02*
X68900000Y-85900000D01*
X68700000Y-131300000D02*
X68700000Y-133000000D01*
X68700000Y-133000000D02*
X62100000Y-133000000D01*
X62100000Y-133000000D02*
X62100000Y-131300000D01*
X62100000Y-128300000D02*
X62100000Y-126600000D01*
X62100000Y-126600000D02*
X68700000Y-126600000D01*
X68700000Y-126600000D02*
X68700000Y-128300000D01*
X73000000Y-74150000D02*
X73000000Y-72450000D01*
X73000000Y-72450000D02*
X79600000Y-72450000D01*
X79600000Y-72450000D02*
X79600000Y-74150000D01*
X79600000Y-77150000D02*
X79600000Y-78850000D01*
X79600000Y-78850000D02*
X73000000Y-78850000D01*
X73000000Y-78850000D02*
X73000000Y-77150000D01*
X93000000Y-150350000D02*
X93000000Y-152100000D01*
X93000000Y-166450000D02*
X93000000Y-164700000D01*
X93000000Y-166450000D02*
X81800000Y-166450000D01*
X81800000Y-166450000D02*
X81800000Y-164700000D01*
X81800000Y-150350000D02*
X81800000Y-152100000D01*
X81800000Y-152100000D02*
X79800000Y-152100000D01*
X93000000Y-150350000D02*
X81800000Y-150350000D01*
X108500000Y-134900000D02*
X106300000Y-134900000D01*
X106300000Y-134900000D02*
X106300000Y-133400000D01*
X106300000Y-133400000D02*
X114800000Y-133400000D01*
X114800000Y-133400000D02*
X114800000Y-141200000D01*
X114800000Y-141200000D02*
X106300000Y-141200000D01*
X106300000Y-141200000D02*
X106300000Y-139700000D01*
X106300000Y-139700000D02*
X108500000Y-139700000D01*
X113300000Y-133400000D02*
X113300000Y-134900000D01*
X113300000Y-134900000D02*
X108500000Y-134900000D01*
X108500000Y-134900000D02*
X108500000Y-133400000D01*
X113300000Y-141200000D02*
X113300000Y-139700000D01*
X113300000Y-139700000D02*
X108500000Y-139700000D01*
X108500000Y-139700000D02*
X108500000Y-141200000D01*
X110450000Y-134900000D02*
X110450000Y-139700000D01*
X109450000Y-134900000D02*
X109450000Y-139700000D01*
X110450000Y-136050000D02*
X110450000Y-135730000D01*
X110450000Y-135730000D02*
X113870000Y-135730000D01*
X113870000Y-135730000D02*
X113950000Y-136050000D01*
X113950000Y-136050000D02*
X113870000Y-136370000D01*
X113870000Y-136370000D02*
X110450000Y-136370000D01*
X110450000Y-136370000D02*
X110450000Y-136050000D01*
X110450000Y-138550000D02*
X110450000Y-138230000D01*
X110450000Y-138230000D02*
X113870000Y-138230000D01*
X113870000Y-138230000D02*
X113950000Y-138550000D01*
X113950000Y-138550000D02*
X113870000Y-138870000D01*
X113870000Y-138870000D02*
X110450000Y-138870000D01*
X110450000Y-138870000D02*
X110450000Y-138550000D01*
X106450000Y-136050000D02*
X105850000Y-135750000D01*
X105850000Y-135750000D02*
X105850000Y-136350000D01*
X105850000Y-136350000D02*
X106450000Y-136050000D01*
X108500000Y-125400000D02*
X106300000Y-125400000D01*
X106300000Y-125400000D02*
X106300000Y-123900000D01*
X106300000Y-123900000D02*
X114800000Y-123900000D01*
X114800000Y-123900000D02*
X114800000Y-131700000D01*
X114800000Y-131700000D02*
X106300000Y-131700000D01*
X106300000Y-131700000D02*
X106300000Y-130200000D01*
X106300000Y-130200000D02*
X108500000Y-130200000D01*
X113300000Y-123900000D02*
X113300000Y-125400000D01*
X113300000Y-125400000D02*
X108500000Y-125400000D01*
X108500000Y-125400000D02*
X108500000Y-123900000D01*
X113300000Y-131700000D02*
X113300000Y-130200000D01*
X113300000Y-130200000D02*
X108500000Y-130200000D01*
X108500000Y-130200000D02*
X108500000Y-131700000D01*
X110450000Y-125400000D02*
X110450000Y-130200000D01*
X109450000Y-125400000D02*
X109450000Y-130200000D01*
X110450000Y-126550000D02*
X110450000Y-126230000D01*
X110450000Y-126230000D02*
X113870000Y-126230000D01*
X113870000Y-126230000D02*
X113950000Y-126550000D01*
X113950000Y-126550000D02*
X113870000Y-126870000D01*
X113870000Y-126870000D02*
X110450000Y-126870000D01*
X110450000Y-126870000D02*
X110450000Y-126550000D01*
X110450000Y-129050000D02*
X110450000Y-128730000D01*
X110450000Y-128730000D02*
X113870000Y-128730000D01*
X113870000Y-128730000D02*
X113950000Y-129050000D01*
X113950000Y-129050000D02*
X113870000Y-129370000D01*
X113870000Y-129370000D02*
X110450000Y-129370000D01*
X110450000Y-129370000D02*
X110450000Y-129050000D01*
X106450000Y-126550000D02*
X105850000Y-126250000D01*
X105850000Y-126250000D02*
X105850000Y-126850000D01*
X105850000Y-126850000D02*
X106450000Y-126550000D01*
X108500000Y-144400000D02*
X106300000Y-144400000D01*
X106300000Y-144400000D02*
X106300000Y-142900000D01*
X106300000Y-142900000D02*
X114800000Y-142900000D01*
X114800000Y-142900000D02*
X114800000Y-153200000D01*
X114800000Y-153200000D02*
X106300000Y-153200000D01*
X106300000Y-153200000D02*
X106300000Y-151700000D01*
X106300000Y-151700000D02*
X108500000Y-151700000D01*
X113300000Y-142900000D02*
X113300000Y-144400000D01*
X113300000Y-144400000D02*
X108500000Y-144400000D01*
X108500000Y-144400000D02*
X108500000Y-142900000D01*
X113300000Y-153200000D02*
X113300000Y-151700000D01*
X113300000Y-151700000D02*
X108500000Y-151700000D01*
X108500000Y-151700000D02*
X108500000Y-153200000D01*
X110450000Y-144400000D02*
X110450000Y-151700000D01*
X109450000Y-144400000D02*
X109450000Y-151700000D01*
X110450000Y-145550000D02*
X110450000Y-145230000D01*
X110450000Y-145230000D02*
X113870000Y-145230000D01*
X113870000Y-145230000D02*
X113950000Y-145550000D01*
X113950000Y-145550000D02*
X113870000Y-145870000D01*
X113870000Y-145870000D02*
X110450000Y-145870000D01*
X110450000Y-145870000D02*
X110450000Y-145550000D01*
X110450000Y-148050000D02*
X110450000Y-147730000D01*
X110450000Y-147730000D02*
X113870000Y-147730000D01*
X113870000Y-147730000D02*
X113950000Y-148050000D01*
X113950000Y-148050000D02*
X113870000Y-148370000D01*
X113870000Y-148370000D02*
X110450000Y-148370000D01*
X110450000Y-148370000D02*
X110450000Y-148050000D01*
X110450000Y-150550000D02*
X110450000Y-150230000D01*
X110450000Y-150230000D02*
X113870000Y-150230000D01*
X113870000Y-150230000D02*
X113950000Y-150550000D01*
X113950000Y-150550000D02*
X113870000Y-150870000D01*
X113870000Y-150870000D02*
X110450000Y-150870000D01*
X110450000Y-150870000D02*
X110450000Y-150550000D01*
X106450000Y-145550000D02*
X105850000Y-145250000D01*
X105850000Y-145250000D02*
X105850000Y-145850000D01*
X105850000Y-145850000D02*
X106450000Y-145550000D01*
X109000000Y-68650000D02*
X106800000Y-68650000D01*
X106800000Y-68650000D02*
X106800000Y-67150000D01*
X106800000Y-67150000D02*
X115300000Y-67150000D01*
X115300000Y-67150000D02*
X115300000Y-74950000D01*
X115300000Y-74950000D02*
X106800000Y-74950000D01*
X106800000Y-74950000D02*
X106800000Y-73450000D01*
X106800000Y-73450000D02*
X109000000Y-73450000D01*
X113800000Y-67150000D02*
X113800000Y-68650000D01*
X113800000Y-68650000D02*
X109000000Y-68650000D01*
X109000000Y-68650000D02*
X109000000Y-67150000D01*
X113800000Y-74950000D02*
X113800000Y-73450000D01*
X113800000Y-73450000D02*
X109000000Y-73450000D01*
X109000000Y-73450000D02*
X109000000Y-74950000D01*
X110950000Y-68650000D02*
X110950000Y-73450000D01*
X109950000Y-68650000D02*
X109950000Y-73450000D01*
X110950000Y-69800000D02*
X110950000Y-69480000D01*
X110950000Y-69480000D02*
X114370000Y-69480000D01*
X114370000Y-69480000D02*
X114450000Y-69800000D01*
X114450000Y-69800000D02*
X114370000Y-70120000D01*
X114370000Y-70120000D02*
X110950000Y-70120000D01*
X110950000Y-70120000D02*
X110950000Y-69800000D01*
X110950000Y-72300000D02*
X110950000Y-71980000D01*
X110950000Y-71980000D02*
X114370000Y-71980000D01*
X114370000Y-71980000D02*
X114450000Y-72300000D01*
X114450000Y-72300000D02*
X114370000Y-72620000D01*
X114370000Y-72620000D02*
X110950000Y-72620000D01*
X110950000Y-72620000D02*
X110950000Y-72300000D01*
X106950000Y-69800000D02*
X106350000Y-69500000D01*
X106350000Y-69500000D02*
X106350000Y-70100000D01*
X106350000Y-70100000D02*
X106950000Y-69800000D01*
X109000000Y-78900000D02*
X106800000Y-78900000D01*
X106800000Y-78900000D02*
X106800000Y-77400000D01*
X106800000Y-77400000D02*
X115300000Y-77400000D01*
X115300000Y-77400000D02*
X115300000Y-85200000D01*
X115300000Y-85200000D02*
X106800000Y-85200000D01*
X106800000Y-85200000D02*
X106800000Y-83700000D01*
X106800000Y-83700000D02*
X109000000Y-83700000D01*
X113800000Y-77400000D02*
X113800000Y-78900000D01*
X113800000Y-78900000D02*
X109000000Y-78900000D01*
X109000000Y-78900000D02*
X109000000Y-77400000D01*
X113800000Y-85200000D02*
X113800000Y-83700000D01*
X113800000Y-83700000D02*
X109000000Y-83700000D01*
X109000000Y-83700000D02*
X109000000Y-85200000D01*
X110950000Y-78900000D02*
X110950000Y-83700000D01*
X109950000Y-78900000D02*
X109950000Y-83700000D01*
X110950000Y-80050000D02*
X110950000Y-79730000D01*
X110950000Y-79730000D02*
X114370000Y-79730000D01*
X114370000Y-79730000D02*
X114450000Y-80050000D01*
X114450000Y-80050000D02*
X114370000Y-80370000D01*
X114370000Y-80370000D02*
X110950000Y-80370000D01*
X110950000Y-80370000D02*
X110950000Y-80050000D01*
X110950000Y-82550000D02*
X110950000Y-82230000D01*
X110950000Y-82230000D02*
X114370000Y-82230000D01*
X114370000Y-82230000D02*
X114450000Y-82550000D01*
X114450000Y-82550000D02*
X114370000Y-82870000D01*
X114370000Y-82870000D02*
X110950000Y-82870000D01*
X110950000Y-82870000D02*
X110950000Y-82550000D01*
X106950000Y-80050000D02*
X106350000Y-79750000D01*
X106350000Y-79750000D02*
X106350000Y-80350000D01*
X106350000Y-80350000D02*
X106950000Y-80050000D01*
X109250000Y-88650000D02*
X107050000Y-88650000D01*
X107050000Y-88650000D02*
X107050000Y-87150000D01*
X107050000Y-87150000D02*
X115550000Y-87150000D01*
X115550000Y-87150000D02*
X115550000Y-97450000D01*
X115550000Y-97450000D02*
X107050000Y-97450000D01*
X107050000Y-97450000D02*
X107050000Y-95950000D01*
X107050000Y-95950000D02*
X109250000Y-95950000D01*
X114050000Y-87150000D02*
X114050000Y-88650000D01*
X114050000Y-88650000D02*
X109250000Y-88650000D01*
X109250000Y-88650000D02*
X109250000Y-87150000D01*
X114050000Y-97450000D02*
X114050000Y-95950000D01*
X114050000Y-95950000D02*
X109250000Y-95950000D01*
X109250000Y-95950000D02*
X109250000Y-97450000D01*
X111200000Y-88650000D02*
X111200000Y-95950000D01*
X110200000Y-88650000D02*
X110200000Y-95950000D01*
X111200000Y-89800000D02*
X111200000Y-89480000D01*
X111200000Y-89480000D02*
X114620000Y-89480000D01*
X114620000Y-89480000D02*
X114700000Y-89800000D01*
X114700000Y-89800000D02*
X114620000Y-90120000D01*
X114620000Y-90120000D02*
X111200000Y-90120000D01*
X111200000Y-90120000D02*
X111200000Y-89800000D01*
X111200000Y-92300000D02*
X111200000Y-91980000D01*
X111200000Y-91980000D02*
X114620000Y-91980000D01*
X114620000Y-91980000D02*
X114700000Y-92300000D01*
X114700000Y-92300000D02*
X114620000Y-92620000D01*
X114620000Y-92620000D02*
X111200000Y-92620000D01*
X111200000Y-92620000D02*
X111200000Y-92300000D01*
X111200000Y-94800000D02*
X111200000Y-94480000D01*
X111200000Y-94480000D02*
X114620000Y-94480000D01*
X114620000Y-94480000D02*
X114700000Y-94800000D01*
X114700000Y-94800000D02*
X114620000Y-95120000D01*
X114620000Y-95120000D02*
X111200000Y-95120000D01*
X111200000Y-95120000D02*
X111200000Y-94800000D01*
X107200000Y-89800000D02*
X106600000Y-89500000D01*
X106600000Y-89500000D02*
X106600000Y-90100000D01*
X106600000Y-90100000D02*
X107200000Y-89800000D01*
X108950000Y-56650000D02*
X106750000Y-56650000D01*
X106750000Y-56650000D02*
X106750000Y-55150000D01*
X106750000Y-55150000D02*
X115250000Y-55150000D01*
X115250000Y-55150000D02*
X115250000Y-65450000D01*
X115250000Y-65450000D02*
X106750000Y-65450000D01*
X106750000Y-65450000D02*
X106750000Y-63950000D01*
X106750000Y-63950000D02*
X108950000Y-63950000D01*
X113750000Y-55150000D02*
X113750000Y-56650000D01*
X113750000Y-56650000D02*
X108950000Y-56650000D01*
X108950000Y-56650000D02*
X108950000Y-55150000D01*
X113750000Y-65450000D02*
X113750000Y-63950000D01*
X113750000Y-63950000D02*
X108950000Y-63950000D01*
X108950000Y-63950000D02*
X108950000Y-65450000D01*
X110900000Y-56650000D02*
X110900000Y-63950000D01*
X109900000Y-56650000D02*
X109900000Y-63950000D01*
X110900000Y-57800000D02*
X110900000Y-57480000D01*
X110900000Y-57480000D02*
X114320000Y-57480000D01*
X114320000Y-57480000D02*
X114400000Y-57800000D01*
X114400000Y-57800000D02*
X114320000Y-58120000D01*
X114320000Y-58120000D02*
X110900000Y-58120000D01*
X110900000Y-58120000D02*
X110900000Y-57800000D01*
X110900000Y-60300000D02*
X110900000Y-59980000D01*
X110900000Y-59980000D02*
X114320000Y-59980000D01*
X114320000Y-59980000D02*
X114400000Y-60300000D01*
X114400000Y-60300000D02*
X114320000Y-60620000D01*
X114320000Y-60620000D02*
X110900000Y-60620000D01*
X110900000Y-60620000D02*
X110900000Y-60300000D01*
X110900000Y-62800000D02*
X110900000Y-62480000D01*
X110900000Y-62480000D02*
X114320000Y-62480000D01*
X114320000Y-62480000D02*
X114400000Y-62800000D01*
X114400000Y-62800000D02*
X114320000Y-63120000D01*
X114320000Y-63120000D02*
X110900000Y-63120000D01*
X110900000Y-63120000D02*
X110900000Y-62800000D01*
X106900000Y-57800000D02*
X106300000Y-57500000D01*
X106300000Y-57500000D02*
X106300000Y-58100000D01*
X106300000Y-58100000D02*
X106900000Y-57800000D01*
X108950000Y-42050000D02*
X106750000Y-42050000D01*
X106750000Y-42050000D02*
X106750000Y-40550000D01*
X106750000Y-40550000D02*
X115250000Y-40550000D01*
X115250000Y-40550000D02*
X115250000Y-53350000D01*
X115250000Y-53350000D02*
X106750000Y-53350000D01*
X106750000Y-53350000D02*
X106750000Y-51850000D01*
X106750000Y-51850000D02*
X108950000Y-51850000D01*
X113750000Y-40550000D02*
X113750000Y-42050000D01*
X113750000Y-42050000D02*
X108950000Y-42050000D01*
X108950000Y-42050000D02*
X108950000Y-40550000D01*
X113750000Y-53350000D02*
X113750000Y-51850000D01*
X113750000Y-51850000D02*
X108950000Y-51850000D01*
X108950000Y-51850000D02*
X108950000Y-53350000D01*
X110900000Y-42050000D02*
X110900000Y-51850000D01*
X109900000Y-42050000D02*
X109900000Y-51850000D01*
X110900000Y-43200000D02*
X110900000Y-42880000D01*
X110900000Y-42880000D02*
X114320000Y-42880000D01*
X114320000Y-42880000D02*
X114400000Y-43200000D01*
X114400000Y-43200000D02*
X114320000Y-43520000D01*
X114320000Y-43520000D02*
X110900000Y-43520000D01*
X110900000Y-43520000D02*
X110900000Y-43200000D01*
X110900000Y-45700000D02*
X110900000Y-45380000D01*
X110900000Y-45380000D02*
X114320000Y-45380000D01*
X114320000Y-45380000D02*
X114400000Y-45700000D01*
X114400000Y-45700000D02*
X114320000Y-46020000D01*
X114320000Y-46020000D02*
X110900000Y-46020000D01*
X110900000Y-46020000D02*
X110900000Y-45700000D01*
X110900000Y-48200000D02*
X110900000Y-47880000D01*
X110900000Y-47880000D02*
X114320000Y-47880000D01*
X114320000Y-47880000D02*
X114400000Y-48200000D01*
X114400000Y-48200000D02*
X114320000Y-48520000D01*
X114320000Y-48520000D02*
X110900000Y-48520000D01*
X110900000Y-48520000D02*
X110900000Y-48200000D01*
X110900000Y-50700000D02*
X110900000Y-50380000D01*
X110900000Y-50380000D02*
X114320000Y-50380000D01*
X114320000Y-50380000D02*
X114400000Y-50700000D01*
X114400000Y-50700000D02*
X114320000Y-51020000D01*
X114320000Y-51020000D02*
X110900000Y-51020000D01*
X110900000Y-51020000D02*
X110900000Y-50700000D01*
X106900000Y-43200000D02*
X106300000Y-42900000D01*
X106300000Y-42900000D02*
X106300000Y-43500000D01*
X106300000Y-43500000D02*
X106900000Y-43200000D01*
X109000000Y-101150000D02*
X106800000Y-101150000D01*
X106800000Y-101150000D02*
X106800000Y-99650000D01*
X106800000Y-99650000D02*
X115300000Y-99650000D01*
X115300000Y-99650000D02*
X115300000Y-112450000D01*
X115300000Y-112450000D02*
X106800000Y-112450000D01*
X106800000Y-112450000D02*
X106800000Y-110950000D01*
X106800000Y-110950000D02*
X109000000Y-110950000D01*
X113800000Y-99650000D02*
X113800000Y-101150000D01*
X113800000Y-101150000D02*
X109000000Y-101150000D01*
X109000000Y-101150000D02*
X109000000Y-99650000D01*
X113800000Y-112450000D02*
X113800000Y-110950000D01*
X113800000Y-110950000D02*
X109000000Y-110950000D01*
X109000000Y-110950000D02*
X109000000Y-112450000D01*
X110950000Y-101150000D02*
X110950000Y-110950000D01*
X109950000Y-101150000D02*
X109950000Y-110950000D01*
X110950000Y-102300000D02*
X110950000Y-101980000D01*
X110950000Y-101980000D02*
X114370000Y-101980000D01*
X114370000Y-101980000D02*
X114450000Y-102300000D01*
X114450000Y-102300000D02*
X114370000Y-102620000D01*
X114370000Y-102620000D02*
X110950000Y-102620000D01*
X110950000Y-102620000D02*
X110950000Y-102300000D01*
X110950000Y-104800000D02*
X110950000Y-104480000D01*
X110950000Y-104480000D02*
X114370000Y-104480000D01*
X114370000Y-104480000D02*
X114450000Y-104800000D01*
X114450000Y-104800000D02*
X114370000Y-105120000D01*
X114370000Y-105120000D02*
X110950000Y-105120000D01*
X110950000Y-105120000D02*
X110950000Y-104800000D01*
X110950000Y-107300000D02*
X110950000Y-106980000D01*
X110950000Y-106980000D02*
X114370000Y-106980000D01*
X114370000Y-106980000D02*
X114450000Y-107300000D01*
X114450000Y-107300000D02*
X114370000Y-107620000D01*
X114370000Y-107620000D02*
X110950000Y-107620000D01*
X110950000Y-107620000D02*
X110950000Y-107300000D01*
X110950000Y-109800000D02*
X110950000Y-109480000D01*
X110950000Y-109480000D02*
X114370000Y-109480000D01*
X114370000Y-109480000D02*
X114450000Y-109800000D01*
X114450000Y-109800000D02*
X114370000Y-110120000D01*
X114370000Y-110120000D02*
X110950000Y-110120000D01*
X110950000Y-110120000D02*
X110950000Y-109800000D01*
X106950000Y-102300000D02*
X106350000Y-102000000D01*
X106350000Y-102000000D02*
X106350000Y-102600000D01*
X106350000Y-102600000D02*
X106950000Y-102300000D01*
X102200000Y-136020000D02*
X103400000Y-136020000D01*
X103400000Y-136020000D02*
X103400000Y-138720000D01*
X98600000Y-140020000D02*
X98600000Y-136020000D01*
X98600000Y-136020000D02*
X99800000Y-136020000D01*
X102000000Y-98720000D02*
X103200000Y-98720000D01*
X103200000Y-98720000D02*
X103200000Y-101420000D01*
X98400000Y-102720000D02*
X98400000Y-98720000D01*
X98400000Y-98720000D02*
X99600000Y-98720000D01*
X102400000Y-108420000D02*
X103600000Y-108420000D01*
X103600000Y-108420000D02*
X103600000Y-111120000D01*
X98800000Y-112420000D02*
X98800000Y-108420000D01*
X98800000Y-108420000D02*
X100000000Y-108420000D01*
X92400000Y-112620000D02*
X93600000Y-112620000D01*
X93600000Y-112620000D02*
X93600000Y-115320000D01*
X88800000Y-116620000D02*
X88800000Y-112620000D01*
X88800000Y-112620000D02*
X90000000Y-112620000D01*
X93130000Y-123120000D02*
X89670000Y-123120000D01*
X93130000Y-126880000D02*
X89670000Y-126880000D01*
X93130000Y-127720000D02*
X89670000Y-127720000D01*
X93130000Y-131480000D02*
X89670000Y-131480000D01*
X93130000Y-131970000D02*
X89670000Y-131970000D01*
X93130000Y-135730000D02*
X89670000Y-135730000D01*
X93130000Y-136970000D02*
X89670000Y-136970000D01*
X93130000Y-140730000D02*
X89670000Y-140730000D01*
X93030000Y-141320000D02*
X89570000Y-141320000D01*
X93030000Y-145080000D02*
X89570000Y-145080000D01*
X92930000Y-145920000D02*
X89470000Y-145920000D01*
X92930000Y-149680000D02*
X89470000Y-149680000D01*
X71050000Y-149000000D02*
X72550000Y-149000000D01*
X72550000Y-149000000D02*
X72550000Y-148050000D01*
X72550000Y-148050000D02*
X77675000Y-148050000D01*
X71050000Y-138600000D02*
X72550000Y-138600000D01*
X72550000Y-138600000D02*
X72550000Y-139550000D01*
X72550000Y-139550000D02*
X73650000Y-139550000D01*
X71450000Y-102800000D02*
X72950000Y-102800000D01*
X72950000Y-102800000D02*
X72950000Y-101850000D01*
X72950000Y-101850000D02*
X78075000Y-101850000D01*
X71450000Y-92400000D02*
X72950000Y-92400000D01*
X72950000Y-92400000D02*
X72950000Y-93350000D01*
X72950000Y-93350000D02*
X74050000Y-93350000D01*
X69300000Y-60250000D02*
X67800000Y-60250000D01*
X67800000Y-60250000D02*
X67800000Y-61200000D01*
X67800000Y-61200000D02*
X62675000Y-61200000D01*
X69300000Y-70650000D02*
X67800000Y-70650000D01*
X67800000Y-70650000D02*
X67800000Y-69700000D01*
X67800000Y-69700000D02*
X66700000Y-69700000D01*
X104820000Y-121800000D02*
X115500000Y-121800000D01*
X104820000Y-115800000D02*
X115500000Y-115800000D01*
X115500000Y-115800000D02*
X115500000Y-121800000D01*
X102640000Y-115800000D02*
X97820000Y-115800000D01*
X95730000Y-121000000D02*
X95730000Y-116600000D01*
X102640000Y-121800000D02*
X97820000Y-121800000D01*
X78530000Y-119120000D02*
X75070000Y-119120000D01*
X78530000Y-122880000D02*
X75070000Y-122880000D01*
X86880000Y-104530000D02*
X86880000Y-101070000D01*
X83120000Y-104530000D02*
X83120000Y-101070000D01*
X92080000Y-104530000D02*
X92080000Y-101070000D01*
X88320000Y-104530000D02*
X88320000Y-101070000D01*
X96880000Y-104530000D02*
X96880000Y-101070000D01*
X93120000Y-104530000D02*
X93120000Y-101070000D01*
X102780000Y-89480000D02*
X102780000Y-86020000D01*
X99020000Y-89480000D02*
X99020000Y-86020000D01*
X96130000Y-89380000D02*
X96130000Y-85920000D01*
X92370000Y-89380000D02*
X92370000Y-85920000D01*
X89830000Y-89430000D02*
X89830000Y-85970000D01*
X86070000Y-89430000D02*
X86070000Y-85970000D01*
X97120000Y-147470000D02*
X97120000Y-150930000D01*
X100880000Y-147470000D02*
X100880000Y-150930000D01*
X78330000Y-164200000D02*
X78330000Y-160600000D01*
X74870000Y-160600000D02*
X74870000Y-164200000D01*
X99530000Y-164200000D02*
X99530000Y-160600000D01*
X96070000Y-160600000D02*
X96070000Y-164200000D01*
X101670000Y-147200000D02*
X101670000Y-150800000D01*
X105130000Y-150800000D02*
X105130000Y-147200000D01*
D13*
X91265714Y-79846667D02*
X91741905Y-79846667D01*
X91170476Y-80132381D02*
X91503809Y-79132381D01*
X91837143Y-80132381D01*
X92694286Y-80132381D02*
X92122857Y-80132381D01*
X92408571Y-80132381D02*
X92408571Y-79132381D01*
X92313333Y-79275238D01*
X92218095Y-79370476D01*
X92122857Y-79418095D01*
X107497618Y-155527381D02*
X107497618Y-154527381D01*
X107497618Y-154908333D02*
X107592856Y-154860714D01*
X107783333Y-154860714D01*
X107878571Y-154908333D01*
X107926190Y-154955952D01*
X107973809Y-155051190D01*
X107973809Y-155336905D01*
X107926190Y-155432143D01*
X107878571Y-155479762D01*
X107783333Y-155527381D01*
X107592856Y-155527381D01*
X107497618Y-155479762D01*
X108830952Y-155527381D02*
X108830952Y-155003571D01*
X108783333Y-154908333D01*
X108688095Y-154860714D01*
X108497618Y-154860714D01*
X108402380Y-154908333D01*
X108830952Y-155479762D02*
X108735714Y-155527381D01*
X108497618Y-155527381D01*
X108402380Y-155479762D01*
X108354761Y-155384524D01*
X108354761Y-155289286D01*
X108402380Y-155194048D01*
X108497618Y-155146429D01*
X108735714Y-155146429D01*
X108830952Y-155098810D01*
X109307142Y-155527381D02*
X109307142Y-154860714D01*
X109307142Y-155051190D02*
X109354761Y-154955952D01*
X109402380Y-154908333D01*
X109497618Y-154860714D01*
X109592857Y-154860714D01*
X109926190Y-155527381D02*
X109926190Y-154860714D01*
X109926190Y-155051190D02*
X109973809Y-154955952D01*
X110021428Y-154908333D01*
X110116666Y-154860714D01*
X110211905Y-154860714D01*
X110926191Y-155479762D02*
X110830953Y-155527381D01*
X110640476Y-155527381D01*
X110545238Y-155479762D01*
X110497619Y-155384524D01*
X110497619Y-155003571D01*
X110545238Y-154908333D01*
X110640476Y-154860714D01*
X110830953Y-154860714D01*
X110926191Y-154908333D01*
X110973810Y-155003571D01*
X110973810Y-155098810D01*
X110497619Y-155194048D01*
X111545238Y-155527381D02*
X111450000Y-155479762D01*
X111402381Y-155384524D01*
X111402381Y-154527381D01*
X112450001Y-155527381D02*
X111878572Y-155527381D01*
X112164286Y-155527381D02*
X112164286Y-154527381D01*
X112069048Y-154670238D01*
X111973810Y-154765476D01*
X111878572Y-154813095D01*
X68233334Y-116817143D02*
X68185715Y-116864762D01*
X68042858Y-116912381D01*
X67947620Y-116912381D01*
X67804762Y-116864762D01*
X67709524Y-116769524D01*
X67661905Y-116674286D01*
X67614286Y-116483810D01*
X67614286Y-116340952D01*
X67661905Y-116150476D01*
X67709524Y-116055238D01*
X67804762Y-115960000D01*
X67947620Y-115912381D01*
X68042858Y-115912381D01*
X68185715Y-115960000D01*
X68233334Y-116007619D01*
X69185715Y-116912381D02*
X68614286Y-116912381D01*
X68900000Y-116912381D02*
X68900000Y-115912381D01*
X68804762Y-116055238D01*
X68709524Y-116150476D01*
X68614286Y-116198095D01*
X62239048Y-115041429D02*
X63000953Y-115041429D01*
X62620001Y-115422381D02*
X62620001Y-114660476D01*
X67233334Y-155297143D02*
X67185715Y-155344762D01*
X67042858Y-155392381D01*
X66947620Y-155392381D01*
X66804762Y-155344762D01*
X66709524Y-155249524D01*
X66661905Y-155154286D01*
X66614286Y-154963810D01*
X66614286Y-154820952D01*
X66661905Y-154630476D01*
X66709524Y-154535238D01*
X66804762Y-154440000D01*
X66947620Y-154392381D01*
X67042858Y-154392381D01*
X67185715Y-154440000D01*
X67233334Y-154487619D01*
X67614286Y-154487619D02*
X67661905Y-154440000D01*
X67757143Y-154392381D01*
X67995239Y-154392381D01*
X68090477Y-154440000D01*
X68138096Y-154487619D01*
X68185715Y-154582857D01*
X68185715Y-154678095D01*
X68138096Y-154820952D01*
X67566667Y-155392381D01*
X68185715Y-155392381D01*
X72799048Y-156501429D02*
X73560953Y-156501429D01*
X73180001Y-156882381D02*
X73180001Y-156120476D01*
X74558334Y-60842143D02*
X74510715Y-60889762D01*
X74367858Y-60937381D01*
X74272620Y-60937381D01*
X74129762Y-60889762D01*
X74034524Y-60794524D01*
X73986905Y-60699286D01*
X73939286Y-60508810D01*
X73939286Y-60365952D01*
X73986905Y-60175476D01*
X74034524Y-60080238D01*
X74129762Y-59985000D01*
X74272620Y-59937381D01*
X74367858Y-59937381D01*
X74510715Y-59985000D01*
X74558334Y-60032619D01*
X74891667Y-59937381D02*
X75510715Y-59937381D01*
X75177381Y-60318333D01*
X75320239Y-60318333D01*
X75415477Y-60365952D01*
X75463096Y-60413571D01*
X75510715Y-60508810D01*
X75510715Y-60746905D01*
X75463096Y-60842143D01*
X75415477Y-60889762D01*
X75320239Y-60937381D01*
X75034524Y-60937381D01*
X74939286Y-60889762D01*
X74891667Y-60842143D01*
X68564048Y-59066429D02*
X69325953Y-59066429D01*
X68945001Y-59447381D02*
X68945001Y-58685476D01*
X64483334Y-71932143D02*
X64435715Y-71979762D01*
X64292858Y-72027381D01*
X64197620Y-72027381D01*
X64054762Y-71979762D01*
X63959524Y-71884524D01*
X63911905Y-71789286D01*
X63864286Y-71598810D01*
X63864286Y-71455952D01*
X63911905Y-71265476D01*
X63959524Y-71170238D01*
X64054762Y-71075000D01*
X64197620Y-71027381D01*
X64292858Y-71027381D01*
X64435715Y-71075000D01*
X64483334Y-71122619D01*
X65340477Y-71360714D02*
X65340477Y-72027381D01*
X65102381Y-70979762D02*
X64864286Y-71694048D01*
X65483334Y-71694048D01*
X70949048Y-72811429D02*
X71710953Y-72811429D01*
X71330001Y-73192381D02*
X71330001Y-72430476D01*
X71883334Y-83682143D02*
X71835715Y-83729762D01*
X71692858Y-83777381D01*
X71597620Y-83777381D01*
X71454762Y-83729762D01*
X71359524Y-83634524D01*
X71311905Y-83539286D01*
X71264286Y-83348810D01*
X71264286Y-83205952D01*
X71311905Y-83015476D01*
X71359524Y-82920238D01*
X71454762Y-82825000D01*
X71597620Y-82777381D01*
X71692858Y-82777381D01*
X71835715Y-82825000D01*
X71883334Y-82872619D01*
X72788096Y-82777381D02*
X72311905Y-82777381D01*
X72264286Y-83253571D01*
X72311905Y-83205952D01*
X72407143Y-83158333D01*
X72645239Y-83158333D01*
X72740477Y-83205952D01*
X72788096Y-83253571D01*
X72835715Y-83348810D01*
X72835715Y-83586905D01*
X72788096Y-83682143D01*
X72740477Y-83729762D01*
X72645239Y-83777381D01*
X72407143Y-83777381D01*
X72311905Y-83729762D01*
X72264286Y-83682143D01*
X78499048Y-84461429D02*
X79260953Y-84461429D01*
X78880001Y-84842381D02*
X78880001Y-84080476D01*
X70169334Y-134475143D02*
X70121715Y-134522762D01*
X69978858Y-134570381D01*
X69883620Y-134570381D01*
X69740762Y-134522762D01*
X69645524Y-134427524D01*
X69597905Y-134332286D01*
X69550286Y-134141810D01*
X69550286Y-133998952D01*
X69597905Y-133808476D01*
X69645524Y-133713238D01*
X69740762Y-133618000D01*
X69883620Y-133570381D01*
X69978858Y-133570381D01*
X70121715Y-133618000D01*
X70169334Y-133665619D01*
X71026477Y-133570381D02*
X70836000Y-133570381D01*
X70740762Y-133618000D01*
X70693143Y-133665619D01*
X70597905Y-133808476D01*
X70550286Y-133998952D01*
X70550286Y-134379905D01*
X70597905Y-134475143D01*
X70645524Y-134522762D01*
X70740762Y-134570381D01*
X70931239Y-134570381D01*
X71026477Y-134522762D01*
X71074096Y-134475143D01*
X71121715Y-134379905D01*
X71121715Y-134141810D01*
X71074096Y-134046571D01*
X71026477Y-133998952D01*
X70931239Y-133951333D01*
X70740762Y-133951333D01*
X70645524Y-133998952D01*
X70597905Y-134046571D01*
X70550286Y-134141810D01*
X78299048Y-126861429D02*
X79060953Y-126861429D01*
X78680001Y-127242381D02*
X78680001Y-126480476D01*
X78152381Y-144538095D02*
X77152381Y-144538095D01*
X77152381Y-144300000D01*
X77200000Y-144157142D01*
X77295238Y-144061904D01*
X77390476Y-144014285D01*
X77580952Y-143966666D01*
X77723810Y-143966666D01*
X77914286Y-144014285D01*
X78009524Y-144061904D01*
X78104762Y-144157142D01*
X78152381Y-144300000D01*
X78152381Y-144538095D01*
X78152381Y-143014285D02*
X78152381Y-143585714D01*
X78152381Y-143300000D02*
X77152381Y-143300000D01*
X77295238Y-143395238D01*
X77390476Y-143490476D01*
X77438095Y-143585714D01*
X60731905Y-46222381D02*
X60731905Y-45222381D01*
X60970000Y-45222381D01*
X61112858Y-45270000D01*
X61208096Y-45365238D01*
X61255715Y-45460476D01*
X61303334Y-45650952D01*
X61303334Y-45793810D01*
X61255715Y-45984286D01*
X61208096Y-46079524D01*
X61112858Y-46174762D01*
X60970000Y-46222381D01*
X60731905Y-46222381D01*
X61684286Y-45317619D02*
X61731905Y-45270000D01*
X61827143Y-45222381D01*
X62065239Y-45222381D01*
X62160477Y-45270000D01*
X62208096Y-45317619D01*
X62255715Y-45412857D01*
X62255715Y-45508095D01*
X62208096Y-45650952D01*
X61636667Y-46222381D01*
X62255715Y-46222381D01*
X83552381Y-110938095D02*
X82552381Y-110938095D01*
X82552381Y-110700000D01*
X82600000Y-110557142D01*
X82695238Y-110461904D01*
X82790476Y-110414285D01*
X82980952Y-110366666D01*
X83123810Y-110366666D01*
X83314286Y-110414285D01*
X83409524Y-110461904D01*
X83504762Y-110557142D01*
X83552381Y-110700000D01*
X83552381Y-110938095D01*
X82552381Y-110033333D02*
X82552381Y-109414285D01*
X82933333Y-109747619D01*
X82933333Y-109604761D01*
X82980952Y-109509523D01*
X83028571Y-109461904D01*
X83123810Y-109414285D01*
X83361905Y-109414285D01*
X83457143Y-109461904D01*
X83504762Y-109509523D01*
X83552381Y-109604761D01*
X83552381Y-109890476D01*
X83504762Y-109985714D01*
X83457143Y-110033333D01*
X62808334Y-83702381D02*
X62332143Y-83702381D01*
X62332143Y-82702381D01*
X63665477Y-83702381D02*
X63094048Y-83702381D01*
X63379762Y-83702381D02*
X63379762Y-82702381D01*
X63284524Y-82845238D01*
X63189286Y-82940476D01*
X63094048Y-82988095D01*
X68027334Y-125934381D02*
X67551143Y-125934381D01*
X67551143Y-124934381D01*
X68313048Y-125029619D02*
X68360667Y-124982000D01*
X68455905Y-124934381D01*
X68694001Y-124934381D01*
X68789239Y-124982000D01*
X68836858Y-125029619D01*
X68884477Y-125124857D01*
X68884477Y-125220095D01*
X68836858Y-125362952D01*
X68265429Y-125934381D01*
X68884477Y-125934381D01*
X76133334Y-80552381D02*
X75657143Y-80552381D01*
X75657143Y-79552381D01*
X76371429Y-79552381D02*
X76990477Y-79552381D01*
X76657143Y-79933333D01*
X76800001Y-79933333D01*
X76895239Y-79980952D01*
X76942858Y-80028571D01*
X76990477Y-80123810D01*
X76990477Y-80361905D01*
X76942858Y-80457143D01*
X76895239Y-80504762D01*
X76800001Y-80552381D01*
X76514286Y-80552381D01*
X76419048Y-80504762D01*
X76371429Y-80457143D01*
X80090953Y-167762381D02*
X79614762Y-167762381D01*
X79614762Y-166762381D01*
X80376667Y-166857619D02*
X80424286Y-166810000D01*
X80519524Y-166762381D01*
X80757620Y-166762381D01*
X80852858Y-166810000D01*
X80900477Y-166857619D01*
X80948096Y-166952857D01*
X80948096Y-167048095D01*
X80900477Y-167190952D01*
X80329048Y-167762381D01*
X80948096Y-167762381D01*
X81424286Y-167762381D02*
X81614762Y-167762381D01*
X81710001Y-167714762D01*
X81757620Y-167667143D01*
X81852858Y-167524286D01*
X81900477Y-167333810D01*
X81900477Y-166952857D01*
X81852858Y-166857619D01*
X81805239Y-166810000D01*
X81710001Y-166762381D01*
X81519524Y-166762381D01*
X81424286Y-166810000D01*
X81376667Y-166857619D01*
X81329048Y-166952857D01*
X81329048Y-167190952D01*
X81376667Y-167286190D01*
X81424286Y-167333810D01*
X81519524Y-167381429D01*
X81710001Y-167381429D01*
X81805239Y-167333810D01*
X81852858Y-167286190D01*
X81900477Y-167190952D01*
X82471905Y-167190952D02*
X82376667Y-167143333D01*
X82329048Y-167095714D01*
X82281429Y-167000476D01*
X82281429Y-166952857D01*
X82329048Y-166857619D01*
X82376667Y-166810000D01*
X82471905Y-166762381D01*
X82662382Y-166762381D01*
X82757620Y-166810000D01*
X82805239Y-166857619D01*
X82852858Y-166952857D01*
X82852858Y-167000476D01*
X82805239Y-167095714D01*
X82757620Y-167143333D01*
X82662382Y-167190952D01*
X82471905Y-167190952D01*
X82376667Y-167238571D01*
X82329048Y-167286190D01*
X82281429Y-167381429D01*
X82281429Y-167571905D01*
X82329048Y-167667143D01*
X82376667Y-167714762D01*
X82471905Y-167762381D01*
X82662382Y-167762381D01*
X82757620Y-167714762D01*
X82805239Y-167667143D01*
X82852858Y-167571905D01*
X82852858Y-167381429D01*
X82805239Y-167286190D01*
X82757620Y-167238571D01*
X82662382Y-167190952D01*
X83281429Y-167762381D02*
X83281429Y-166762381D01*
X83281429Y-167238571D02*
X83852858Y-167238571D01*
X83852858Y-167762381D02*
X83852858Y-166762381D01*
X84852858Y-167762381D02*
X84281429Y-167762381D01*
X84567143Y-167762381D02*
X84567143Y-166762381D01*
X84471905Y-166905238D01*
X84376667Y-167000476D01*
X84281429Y-167048095D01*
X105562381Y-141528095D02*
X104562381Y-141528095D01*
X104562381Y-141147142D01*
X104610000Y-141051904D01*
X104657619Y-141004285D01*
X104752857Y-140956666D01*
X104895714Y-140956666D01*
X104990952Y-141004285D01*
X105038571Y-141051904D01*
X105086190Y-141147142D01*
X105086190Y-141528095D01*
X105562381Y-140004285D02*
X105562381Y-140575714D01*
X105562381Y-140290000D02*
X104562381Y-140290000D01*
X104705238Y-140385238D01*
X104800476Y-140480476D01*
X104848095Y-140575714D01*
X105402381Y-128538095D02*
X104402381Y-128538095D01*
X104402381Y-128157142D01*
X104450000Y-128061904D01*
X104497619Y-128014285D01*
X104592857Y-127966666D01*
X104735714Y-127966666D01*
X104830952Y-128014285D01*
X104878571Y-128061904D01*
X104926190Y-128157142D01*
X104926190Y-128538095D01*
X104402381Y-127633333D02*
X104402381Y-127014285D01*
X104783333Y-127347619D01*
X104783333Y-127204761D01*
X104830952Y-127109523D01*
X104878571Y-127061904D01*
X104973810Y-127014285D01*
X105211905Y-127014285D01*
X105307143Y-127061904D01*
X105354762Y-127109523D01*
X105402381Y-127204761D01*
X105402381Y-127490476D01*
X105354762Y-127585714D01*
X105307143Y-127633333D01*
X105602381Y-144288095D02*
X104602381Y-144288095D01*
X104602381Y-143907142D01*
X104650000Y-143811904D01*
X104697619Y-143764285D01*
X104792857Y-143716666D01*
X104935714Y-143716666D01*
X105030952Y-143764285D01*
X105078571Y-143811904D01*
X105126190Y-143907142D01*
X105126190Y-144288095D01*
X104935714Y-142859523D02*
X105602381Y-142859523D01*
X104554762Y-143097619D02*
X105269048Y-143335714D01*
X105269048Y-142716666D01*
X105902381Y-71788095D02*
X104902381Y-71788095D01*
X104902381Y-71407142D01*
X104950000Y-71311904D01*
X104997619Y-71264285D01*
X105092857Y-71216666D01*
X105235714Y-71216666D01*
X105330952Y-71264285D01*
X105378571Y-71311904D01*
X105426190Y-71407142D01*
X105426190Y-71788095D01*
X104902381Y-70311904D02*
X104902381Y-70788095D01*
X105378571Y-70835714D01*
X105330952Y-70788095D01*
X105283333Y-70692857D01*
X105283333Y-70454761D01*
X105330952Y-70359523D01*
X105378571Y-70311904D01*
X105473810Y-70264285D01*
X105711905Y-70264285D01*
X105807143Y-70311904D01*
X105854762Y-70359523D01*
X105902381Y-70454761D01*
X105902381Y-70692857D01*
X105854762Y-70788095D01*
X105807143Y-70835714D01*
X105902381Y-82038095D02*
X104902381Y-82038095D01*
X104902381Y-81657142D01*
X104950000Y-81561904D01*
X104997619Y-81514285D01*
X105092857Y-81466666D01*
X105235714Y-81466666D01*
X105330952Y-81514285D01*
X105378571Y-81561904D01*
X105426190Y-81657142D01*
X105426190Y-82038095D01*
X104902381Y-80609523D02*
X104902381Y-80800000D01*
X104950000Y-80895238D01*
X104997619Y-80942857D01*
X105140476Y-81038095D01*
X105330952Y-81085714D01*
X105711905Y-81085714D01*
X105807143Y-81038095D01*
X105854762Y-80990476D01*
X105902381Y-80895238D01*
X105902381Y-80704761D01*
X105854762Y-80609523D01*
X105807143Y-80561904D01*
X105711905Y-80514285D01*
X105473810Y-80514285D01*
X105378571Y-80561904D01*
X105330952Y-80609523D01*
X105283333Y-80704761D01*
X105283333Y-80895238D01*
X105330952Y-80990476D01*
X105378571Y-81038095D01*
X105473810Y-81085714D01*
X106152381Y-93038095D02*
X105152381Y-93038095D01*
X105152381Y-92657142D01*
X105200000Y-92561904D01*
X105247619Y-92514285D01*
X105342857Y-92466666D01*
X105485714Y-92466666D01*
X105580952Y-92514285D01*
X105628571Y-92561904D01*
X105676190Y-92657142D01*
X105676190Y-93038095D01*
X105152381Y-92133333D02*
X105152381Y-91466666D01*
X106152381Y-91895238D01*
X105852381Y-61038095D02*
X104852381Y-61038095D01*
X104852381Y-60657142D01*
X104900000Y-60561904D01*
X104947619Y-60514285D01*
X105042857Y-60466666D01*
X105185714Y-60466666D01*
X105280952Y-60514285D01*
X105328571Y-60561904D01*
X105376190Y-60657142D01*
X105376190Y-61038095D01*
X105280952Y-59895238D02*
X105233333Y-59990476D01*
X105185714Y-60038095D01*
X105090476Y-60085714D01*
X105042857Y-60085714D01*
X104947619Y-60038095D01*
X104900000Y-59990476D01*
X104852381Y-59895238D01*
X104852381Y-59704761D01*
X104900000Y-59609523D01*
X104947619Y-59561904D01*
X105042857Y-59514285D01*
X105090476Y-59514285D01*
X105185714Y-59561904D01*
X105233333Y-59609523D01*
X105280952Y-59704761D01*
X105280952Y-59895238D01*
X105328571Y-59990476D01*
X105376190Y-60038095D01*
X105471429Y-60085714D01*
X105661905Y-60085714D01*
X105757143Y-60038095D01*
X105804762Y-59990476D01*
X105852381Y-59895238D01*
X105852381Y-59704761D01*
X105804762Y-59609523D01*
X105757143Y-59561904D01*
X105661905Y-59514285D01*
X105471429Y-59514285D01*
X105376190Y-59561904D01*
X105328571Y-59609523D01*
X105280952Y-59704761D01*
X105852381Y-47688095D02*
X104852381Y-47688095D01*
X104852381Y-47307142D01*
X104900000Y-47211904D01*
X104947619Y-47164285D01*
X105042857Y-47116666D01*
X105185714Y-47116666D01*
X105280952Y-47164285D01*
X105328571Y-47211904D01*
X105376190Y-47307142D01*
X105376190Y-47688095D01*
X105852381Y-46640476D02*
X105852381Y-46450000D01*
X105804762Y-46354761D01*
X105757143Y-46307142D01*
X105614286Y-46211904D01*
X105423810Y-46164285D01*
X105042857Y-46164285D01*
X104947619Y-46211904D01*
X104900000Y-46259523D01*
X104852381Y-46354761D01*
X104852381Y-46545238D01*
X104900000Y-46640476D01*
X104947619Y-46688095D01*
X105042857Y-46735714D01*
X105280952Y-46735714D01*
X105376190Y-46688095D01*
X105423810Y-46640476D01*
X105471429Y-46545238D01*
X105471429Y-46354761D01*
X105423810Y-46259523D01*
X105376190Y-46211904D01*
X105280952Y-46164285D01*
X106702381Y-110594286D02*
X105702381Y-110594286D01*
X105702381Y-110213333D01*
X105750000Y-110118095D01*
X105797619Y-110070476D01*
X105892857Y-110022857D01*
X106035714Y-110022857D01*
X106130952Y-110070476D01*
X106178571Y-110118095D01*
X106226190Y-110213333D01*
X106226190Y-110594286D01*
X106702381Y-109070476D02*
X106702381Y-109641905D01*
X106702381Y-109356191D02*
X105702381Y-109356191D01*
X105845238Y-109451429D01*
X105940476Y-109546667D01*
X105988095Y-109641905D01*
X105702381Y-108451429D02*
X105702381Y-108356190D01*
X105750000Y-108260952D01*
X105797619Y-108213333D01*
X105892857Y-108165714D01*
X106083333Y-108118095D01*
X106321429Y-108118095D01*
X106511905Y-108165714D01*
X106607143Y-108213333D01*
X106654762Y-108260952D01*
X106702381Y-108356190D01*
X106702381Y-108451429D01*
X106654762Y-108546667D01*
X106607143Y-108594286D01*
X106511905Y-108641905D01*
X106321429Y-108689524D01*
X106083333Y-108689524D01*
X105892857Y-108641905D01*
X105797619Y-108594286D01*
X105750000Y-108546667D01*
X105702381Y-108451429D01*
X104507619Y-140465238D02*
X104460000Y-140560476D01*
X104364762Y-140655714D01*
X104221905Y-140798571D01*
X104174286Y-140893810D01*
X104174286Y-140989048D01*
X104412381Y-140941429D02*
X104364762Y-141036667D01*
X104269524Y-141131905D01*
X104079048Y-141179524D01*
X103745714Y-141179524D01*
X103555238Y-141131905D01*
X103460000Y-141036667D01*
X103412381Y-140941429D01*
X103412381Y-140750952D01*
X103460000Y-140655714D01*
X103555238Y-140560476D01*
X103745714Y-140512857D01*
X104079048Y-140512857D01*
X104269524Y-140560476D01*
X104364762Y-140655714D01*
X104412381Y-140750952D01*
X104412381Y-140941429D01*
X104412381Y-139560476D02*
X104412381Y-140131905D01*
X104412381Y-139846191D02*
X103412381Y-139846191D01*
X103555238Y-139941429D01*
X103650476Y-140036667D01*
X103698095Y-140131905D01*
X98117619Y-102915238D02*
X98070000Y-103010476D01*
X97974762Y-103105714D01*
X97831905Y-103248571D01*
X97784286Y-103343810D01*
X97784286Y-103439048D01*
X98022381Y-103391429D02*
X97974762Y-103486667D01*
X97879524Y-103581905D01*
X97689048Y-103629524D01*
X97355714Y-103629524D01*
X97165238Y-103581905D01*
X97070000Y-103486667D01*
X97022381Y-103391429D01*
X97022381Y-103200952D01*
X97070000Y-103105714D01*
X97165238Y-103010476D01*
X97355714Y-102962857D01*
X97689048Y-102962857D01*
X97879524Y-103010476D01*
X97974762Y-103105714D01*
X98022381Y-103200952D01*
X98022381Y-103391429D01*
X97117619Y-102581905D02*
X97070000Y-102534286D01*
X97022381Y-102439048D01*
X97022381Y-102200952D01*
X97070000Y-102105714D01*
X97117619Y-102058095D01*
X97212857Y-102010476D01*
X97308095Y-102010476D01*
X97450952Y-102058095D01*
X98022381Y-102629524D01*
X98022381Y-102010476D01*
X98507619Y-112775238D02*
X98460000Y-112870476D01*
X98364762Y-112965714D01*
X98221905Y-113108571D01*
X98174286Y-113203810D01*
X98174286Y-113299048D01*
X98412381Y-113251429D02*
X98364762Y-113346667D01*
X98269524Y-113441905D01*
X98079048Y-113489524D01*
X97745714Y-113489524D01*
X97555238Y-113441905D01*
X97460000Y-113346667D01*
X97412381Y-113251429D01*
X97412381Y-113060952D01*
X97460000Y-112965714D01*
X97555238Y-112870476D01*
X97745714Y-112822857D01*
X98079048Y-112822857D01*
X98269524Y-112870476D01*
X98364762Y-112965714D01*
X98412381Y-113060952D01*
X98412381Y-113251429D01*
X97412381Y-112489524D02*
X97412381Y-111870476D01*
X97793333Y-112203810D01*
X97793333Y-112060952D01*
X97840952Y-111965714D01*
X97888571Y-111918095D01*
X97983810Y-111870476D01*
X98221905Y-111870476D01*
X98317143Y-111918095D01*
X98364762Y-111965714D01*
X98412381Y-112060952D01*
X98412381Y-112346667D01*
X98364762Y-112441905D01*
X98317143Y-112489524D01*
X88447619Y-114045238D02*
X88400000Y-114140476D01*
X88304762Y-114235714D01*
X88161905Y-114378571D01*
X88114286Y-114473810D01*
X88114286Y-114569048D01*
X88352381Y-114521429D02*
X88304762Y-114616667D01*
X88209524Y-114711905D01*
X88019048Y-114759524D01*
X87685714Y-114759524D01*
X87495238Y-114711905D01*
X87400000Y-114616667D01*
X87352381Y-114521429D01*
X87352381Y-114330952D01*
X87400000Y-114235714D01*
X87495238Y-114140476D01*
X87685714Y-114092857D01*
X88019048Y-114092857D01*
X88209524Y-114140476D01*
X88304762Y-114235714D01*
X88352381Y-114330952D01*
X88352381Y-114521429D01*
X87685714Y-113235714D02*
X88352381Y-113235714D01*
X87304762Y-113473810D02*
X88019048Y-113711905D01*
X88019048Y-113092857D01*
X85722381Y-125786666D02*
X85246190Y-126120000D01*
X85722381Y-126358095D02*
X84722381Y-126358095D01*
X84722381Y-125977142D01*
X84770000Y-125881904D01*
X84817619Y-125834285D01*
X84912857Y-125786666D01*
X85055714Y-125786666D01*
X85150952Y-125834285D01*
X85198571Y-125881904D01*
X85246190Y-125977142D01*
X85246190Y-126358095D01*
X85722381Y-125310476D02*
X85722381Y-125120000D01*
X85674762Y-125024761D01*
X85627143Y-124977142D01*
X85484286Y-124881904D01*
X85293810Y-124834285D01*
X84912857Y-124834285D01*
X84817619Y-124881904D01*
X84770000Y-124929523D01*
X84722381Y-125024761D01*
X84722381Y-125215238D01*
X84770000Y-125310476D01*
X84817619Y-125358095D01*
X84912857Y-125405714D01*
X85150952Y-125405714D01*
X85246190Y-125358095D01*
X85293810Y-125310476D01*
X85341429Y-125215238D01*
X85341429Y-125024761D01*
X85293810Y-124929523D01*
X85246190Y-124881904D01*
X85150952Y-124834285D01*
X85692381Y-130482857D02*
X85216190Y-130816191D01*
X85692381Y-131054286D02*
X84692381Y-131054286D01*
X84692381Y-130673333D01*
X84740000Y-130578095D01*
X84787619Y-130530476D01*
X84882857Y-130482857D01*
X85025714Y-130482857D01*
X85120952Y-130530476D01*
X85168571Y-130578095D01*
X85216190Y-130673333D01*
X85216190Y-131054286D01*
X85692381Y-129530476D02*
X85692381Y-130101905D01*
X85692381Y-129816191D02*
X84692381Y-129816191D01*
X84835238Y-129911429D01*
X84930476Y-130006667D01*
X84978095Y-130101905D01*
X84692381Y-128911429D02*
X84692381Y-128816190D01*
X84740000Y-128720952D01*
X84787619Y-128673333D01*
X84882857Y-128625714D01*
X85073333Y-128578095D01*
X85311429Y-128578095D01*
X85501905Y-128625714D01*
X85597143Y-128673333D01*
X85644762Y-128720952D01*
X85692381Y-128816190D01*
X85692381Y-128911429D01*
X85644762Y-129006667D01*
X85597143Y-129054286D01*
X85501905Y-129101905D01*
X85311429Y-129149524D01*
X85073333Y-129149524D01*
X84882857Y-129101905D01*
X84787619Y-129054286D01*
X84740000Y-129006667D01*
X84692381Y-128911429D01*
X85722381Y-134232857D02*
X85246190Y-134566191D01*
X85722381Y-134804286D02*
X84722381Y-134804286D01*
X84722381Y-134423333D01*
X84770000Y-134328095D01*
X84817619Y-134280476D01*
X84912857Y-134232857D01*
X85055714Y-134232857D01*
X85150952Y-134280476D01*
X85198571Y-134328095D01*
X85246190Y-134423333D01*
X85246190Y-134804286D01*
X85722381Y-133280476D02*
X85722381Y-133851905D01*
X85722381Y-133566191D02*
X84722381Y-133566191D01*
X84865238Y-133661429D01*
X84960476Y-133756667D01*
X85008095Y-133851905D01*
X85722381Y-132328095D02*
X85722381Y-132899524D01*
X85722381Y-132613810D02*
X84722381Y-132613810D01*
X84865238Y-132709048D01*
X84960476Y-132804286D01*
X85008095Y-132899524D01*
X85872381Y-139512857D02*
X85396190Y-139846191D01*
X85872381Y-140084286D02*
X84872381Y-140084286D01*
X84872381Y-139703333D01*
X84920000Y-139608095D01*
X84967619Y-139560476D01*
X85062857Y-139512857D01*
X85205714Y-139512857D01*
X85300952Y-139560476D01*
X85348571Y-139608095D01*
X85396190Y-139703333D01*
X85396190Y-140084286D01*
X85872381Y-138560476D02*
X85872381Y-139131905D01*
X85872381Y-138846191D02*
X84872381Y-138846191D01*
X85015238Y-138941429D01*
X85110476Y-139036667D01*
X85158095Y-139131905D01*
X84967619Y-138179524D02*
X84920000Y-138131905D01*
X84872381Y-138036667D01*
X84872381Y-137798571D01*
X84920000Y-137703333D01*
X84967619Y-137655714D01*
X85062857Y-137608095D01*
X85158095Y-137608095D01*
X85300952Y-137655714D01*
X85872381Y-138227143D01*
X85872381Y-137608095D01*
X85862381Y-143532857D02*
X85386190Y-143866191D01*
X85862381Y-144104286D02*
X84862381Y-144104286D01*
X84862381Y-143723333D01*
X84910000Y-143628095D01*
X84957619Y-143580476D01*
X85052857Y-143532857D01*
X85195714Y-143532857D01*
X85290952Y-143580476D01*
X85338571Y-143628095D01*
X85386190Y-143723333D01*
X85386190Y-144104286D01*
X85862381Y-142580476D02*
X85862381Y-143151905D01*
X85862381Y-142866191D02*
X84862381Y-142866191D01*
X85005238Y-142961429D01*
X85100476Y-143056667D01*
X85148095Y-143151905D01*
X84862381Y-142247143D02*
X84862381Y-141628095D01*
X85243333Y-141961429D01*
X85243333Y-141818571D01*
X85290952Y-141723333D01*
X85338571Y-141675714D01*
X85433810Y-141628095D01*
X85671905Y-141628095D01*
X85767143Y-141675714D01*
X85814762Y-141723333D01*
X85862381Y-141818571D01*
X85862381Y-142104286D01*
X85814762Y-142199524D01*
X85767143Y-142247143D01*
X85762381Y-148512857D02*
X85286190Y-148846191D01*
X85762381Y-149084286D02*
X84762381Y-149084286D01*
X84762381Y-148703333D01*
X84810000Y-148608095D01*
X84857619Y-148560476D01*
X84952857Y-148512857D01*
X85095714Y-148512857D01*
X85190952Y-148560476D01*
X85238571Y-148608095D01*
X85286190Y-148703333D01*
X85286190Y-149084286D01*
X85762381Y-147560476D02*
X85762381Y-148131905D01*
X85762381Y-147846191D02*
X84762381Y-147846191D01*
X84905238Y-147941429D01*
X85000476Y-148036667D01*
X85048095Y-148131905D01*
X85095714Y-146703333D02*
X85762381Y-146703333D01*
X84714762Y-146941429D02*
X85429048Y-147179524D01*
X85429048Y-146560476D01*
X68838095Y-149902381D02*
X68838095Y-150711905D01*
X68885714Y-150807143D01*
X68933333Y-150854762D01*
X69028571Y-150902381D01*
X69219048Y-150902381D01*
X69314286Y-150854762D01*
X69361905Y-150807143D01*
X69409524Y-150711905D01*
X69409524Y-149902381D01*
X70409524Y-150902381D02*
X69838095Y-150902381D01*
X70123809Y-150902381D02*
X70123809Y-149902381D01*
X70028571Y-150045238D01*
X69933333Y-150140476D01*
X69838095Y-150188095D01*
X69238095Y-103702381D02*
X69238095Y-104511905D01*
X69285714Y-104607143D01*
X69333333Y-104654762D01*
X69428571Y-104702381D01*
X69619048Y-104702381D01*
X69714286Y-104654762D01*
X69761905Y-104607143D01*
X69809524Y-104511905D01*
X69809524Y-103702381D01*
X70238095Y-103797619D02*
X70285714Y-103750000D01*
X70380952Y-103702381D01*
X70619048Y-103702381D01*
X70714286Y-103750000D01*
X70761905Y-103797619D01*
X70809524Y-103892857D01*
X70809524Y-103988095D01*
X70761905Y-104130952D01*
X70190476Y-104702381D01*
X70809524Y-104702381D01*
X79352381Y-70911905D02*
X80161905Y-70911905D01*
X80257143Y-70864286D01*
X80304762Y-70816667D01*
X80352381Y-70721429D01*
X80352381Y-70530952D01*
X80304762Y-70435714D01*
X80257143Y-70388095D01*
X80161905Y-70340476D01*
X79352381Y-70340476D01*
X79352381Y-69959524D02*
X79352381Y-69340476D01*
X79733333Y-69673810D01*
X79733333Y-69530952D01*
X79780952Y-69435714D01*
X79828571Y-69388095D01*
X79923810Y-69340476D01*
X80161905Y-69340476D01*
X80257143Y-69388095D01*
X80304762Y-69435714D01*
X80352381Y-69530952D01*
X80352381Y-69816667D01*
X80304762Y-69911905D01*
X80257143Y-69959524D01*
X94172381Y-121703333D02*
X94886667Y-121703333D01*
X95029524Y-121750953D01*
X95124762Y-121846191D01*
X95172381Y-121989048D01*
X95172381Y-122084286D01*
X95172381Y-120703333D02*
X95172381Y-121274762D01*
X95172381Y-120989048D02*
X94172381Y-120989048D01*
X94315238Y-121084286D01*
X94410476Y-121179524D01*
X94458095Y-121274762D01*
X76633334Y-124172381D02*
X76300000Y-123696190D01*
X76061905Y-124172381D02*
X76061905Y-123172381D01*
X76442858Y-123172381D01*
X76538096Y-123220000D01*
X76585715Y-123267619D01*
X76633334Y-123362857D01*
X76633334Y-123505714D01*
X76585715Y-123600952D01*
X76538096Y-123648571D01*
X76442858Y-123696190D01*
X76061905Y-123696190D01*
X77490477Y-123505714D02*
X77490477Y-124172381D01*
X77252381Y-123124762D02*
X77014286Y-123839048D01*
X77633334Y-123839048D01*
X82712381Y-103626666D02*
X82236190Y-103960000D01*
X82712381Y-104198095D02*
X81712381Y-104198095D01*
X81712381Y-103817142D01*
X81760000Y-103721904D01*
X81807619Y-103674285D01*
X81902857Y-103626666D01*
X82045714Y-103626666D01*
X82140952Y-103674285D01*
X82188571Y-103721904D01*
X82236190Y-103817142D01*
X82236190Y-104198095D01*
X81712381Y-103293333D02*
X81712381Y-102674285D01*
X82093333Y-103007619D01*
X82093333Y-102864761D01*
X82140952Y-102769523D01*
X82188571Y-102721904D01*
X82283810Y-102674285D01*
X82521905Y-102674285D01*
X82617143Y-102721904D01*
X82664762Y-102769523D01*
X82712381Y-102864761D01*
X82712381Y-103150476D01*
X82664762Y-103245714D01*
X82617143Y-103293333D01*
X88102381Y-107146666D02*
X87626190Y-107480000D01*
X88102381Y-107718095D02*
X87102381Y-107718095D01*
X87102381Y-107337142D01*
X87150000Y-107241904D01*
X87197619Y-107194285D01*
X87292857Y-107146666D01*
X87435714Y-107146666D01*
X87530952Y-107194285D01*
X87578571Y-107241904D01*
X87626190Y-107337142D01*
X87626190Y-107718095D01*
X87197619Y-106765714D02*
X87150000Y-106718095D01*
X87102381Y-106622857D01*
X87102381Y-106384761D01*
X87150000Y-106289523D01*
X87197619Y-106241904D01*
X87292857Y-106194285D01*
X87388095Y-106194285D01*
X87530952Y-106241904D01*
X88102381Y-106813333D01*
X88102381Y-106194285D01*
X93102381Y-107236666D02*
X92626190Y-107570000D01*
X93102381Y-107808095D02*
X92102381Y-107808095D01*
X92102381Y-107427142D01*
X92150000Y-107331904D01*
X92197619Y-107284285D01*
X92292857Y-107236666D01*
X92435714Y-107236666D01*
X92530952Y-107284285D01*
X92578571Y-107331904D01*
X92626190Y-107427142D01*
X92626190Y-107808095D01*
X93102381Y-106284285D02*
X93102381Y-106855714D01*
X93102381Y-106570000D02*
X92102381Y-106570000D01*
X92245238Y-106665238D01*
X92340476Y-106760476D01*
X92388095Y-106855714D01*
X98602381Y-92296666D02*
X98126190Y-92630000D01*
X98602381Y-92868095D02*
X97602381Y-92868095D01*
X97602381Y-92487142D01*
X97650000Y-92391904D01*
X97697619Y-92344285D01*
X97792857Y-92296666D01*
X97935714Y-92296666D01*
X98030952Y-92344285D01*
X98078571Y-92391904D01*
X98126190Y-92487142D01*
X98126190Y-92868095D01*
X97602381Y-91963333D02*
X97602381Y-91296666D01*
X98602381Y-91725238D01*
X91892381Y-92366666D02*
X91416190Y-92700000D01*
X91892381Y-92938095D02*
X90892381Y-92938095D01*
X90892381Y-92557142D01*
X90940000Y-92461904D01*
X90987619Y-92414285D01*
X91082857Y-92366666D01*
X91225714Y-92366666D01*
X91320952Y-92414285D01*
X91368571Y-92461904D01*
X91416190Y-92557142D01*
X91416190Y-92938095D01*
X90892381Y-91509523D02*
X90892381Y-91700000D01*
X90940000Y-91795238D01*
X90987619Y-91842857D01*
X91130476Y-91938095D01*
X91320952Y-91985714D01*
X91701905Y-91985714D01*
X91797143Y-91938095D01*
X91844762Y-91890476D01*
X91892381Y-91795238D01*
X91892381Y-91604761D01*
X91844762Y-91509523D01*
X91797143Y-91461904D01*
X91701905Y-91414285D01*
X91463810Y-91414285D01*
X91368571Y-91461904D01*
X91320952Y-91509523D01*
X91273333Y-91604761D01*
X91273333Y-91795238D01*
X91320952Y-91890476D01*
X91368571Y-91938095D01*
X91463810Y-91985714D01*
X85642381Y-92216666D02*
X85166190Y-92550000D01*
X85642381Y-92788095D02*
X84642381Y-92788095D01*
X84642381Y-92407142D01*
X84690000Y-92311904D01*
X84737619Y-92264285D01*
X84832857Y-92216666D01*
X84975714Y-92216666D01*
X85070952Y-92264285D01*
X85118571Y-92311904D01*
X85166190Y-92407142D01*
X85166190Y-92788095D01*
X84642381Y-91311904D02*
X84642381Y-91788095D01*
X85118571Y-91835714D01*
X85070952Y-91788095D01*
X85023333Y-91692857D01*
X85023333Y-91454761D01*
X85070952Y-91359523D01*
X85118571Y-91311904D01*
X85213810Y-91264285D01*
X85451905Y-91264285D01*
X85547143Y-91311904D01*
X85594762Y-91359523D01*
X85642381Y-91454761D01*
X85642381Y-91692857D01*
X85594762Y-91788095D01*
X85547143Y-91835714D01*
X97708334Y-155852381D02*
X97375000Y-155376190D01*
X97136905Y-155852381D02*
X97136905Y-154852381D01*
X97517858Y-154852381D01*
X97613096Y-154900000D01*
X97660715Y-154947619D01*
X97708334Y-155042857D01*
X97708334Y-155185714D01*
X97660715Y-155280952D01*
X97613096Y-155328571D01*
X97517858Y-155376190D01*
X97136905Y-155376190D01*
X98279762Y-155280952D02*
X98184524Y-155233333D01*
X98136905Y-155185714D01*
X98089286Y-155090476D01*
X98089286Y-155042857D01*
X98136905Y-154947619D01*
X98184524Y-154900000D01*
X98279762Y-154852381D01*
X98470239Y-154852381D01*
X98565477Y-154900000D01*
X98613096Y-154947619D01*
X98660715Y-155042857D01*
X98660715Y-155090476D01*
X98613096Y-155185714D01*
X98565477Y-155233333D01*
X98470239Y-155280952D01*
X98279762Y-155280952D01*
X98184524Y-155328571D01*
X98136905Y-155376190D01*
X98089286Y-155471429D01*
X98089286Y-155661905D01*
X98136905Y-155757143D01*
X98184524Y-155804762D01*
X98279762Y-155852381D01*
X98470239Y-155852381D01*
X98565477Y-155804762D01*
X98613096Y-155757143D01*
X98660715Y-155661905D01*
X98660715Y-155471429D01*
X98613096Y-155376190D01*
X98565477Y-155328571D01*
X98470239Y-155280952D01*
X75357143Y-157547143D02*
X75309524Y-157594762D01*
X75166667Y-157642381D01*
X75071429Y-157642381D01*
X74928571Y-157594762D01*
X74833333Y-157499524D01*
X74785714Y-157404286D01*
X74738095Y-157213810D01*
X74738095Y-157070952D01*
X74785714Y-156880476D01*
X74833333Y-156785238D01*
X74928571Y-156690000D01*
X75071429Y-156642381D01*
X75166667Y-156642381D01*
X75309524Y-156690000D01*
X75357143Y-156737619D01*
X76309524Y-157642381D02*
X75738095Y-157642381D01*
X76023809Y-157642381D02*
X76023809Y-156642381D01*
X75928571Y-156785238D01*
X75833333Y-156880476D01*
X75738095Y-156928095D01*
X76928571Y-156642381D02*
X77023810Y-156642381D01*
X77119048Y-156690000D01*
X77166667Y-156737619D01*
X77214286Y-156832857D01*
X77261905Y-157023333D01*
X77261905Y-157261429D01*
X77214286Y-157451905D01*
X77166667Y-157547143D01*
X77119048Y-157594762D01*
X77023810Y-157642381D01*
X76928571Y-157642381D01*
X76833333Y-157594762D01*
X76785714Y-157547143D01*
X76738095Y-157451905D01*
X76690476Y-157261429D01*
X76690476Y-157023333D01*
X76738095Y-156832857D01*
X76785714Y-156737619D01*
X76833333Y-156690000D01*
X76928571Y-156642381D01*
X99133334Y-157832143D02*
X99085715Y-157879762D01*
X98942858Y-157927381D01*
X98847620Y-157927381D01*
X98704762Y-157879762D01*
X98609524Y-157784524D01*
X98561905Y-157689286D01*
X98514286Y-157498810D01*
X98514286Y-157355952D01*
X98561905Y-157165476D01*
X98609524Y-157070238D01*
X98704762Y-156975000D01*
X98847620Y-156927381D01*
X98942858Y-156927381D01*
X99085715Y-156975000D01*
X99133334Y-157022619D01*
X99466667Y-156927381D02*
X100133334Y-156927381D01*
X99704762Y-157927381D01*
X102158334Y-154407143D02*
X102110715Y-154454762D01*
X101967858Y-154502381D01*
X101872620Y-154502381D01*
X101729762Y-154454762D01*
X101634524Y-154359524D01*
X101586905Y-154264286D01*
X101539286Y-154073810D01*
X101539286Y-153930952D01*
X101586905Y-153740476D01*
X101634524Y-153645238D01*
X101729762Y-153550000D01*
X101872620Y-153502381D01*
X101967858Y-153502381D01*
X102110715Y-153550000D01*
X102158334Y-153597619D01*
X102729762Y-153930952D02*
X102634524Y-153883333D01*
X102586905Y-153835714D01*
X102539286Y-153740476D01*
X102539286Y-153692857D01*
X102586905Y-153597619D01*
X102634524Y-153550000D01*
X102729762Y-153502381D01*
X102920239Y-153502381D01*
X103015477Y-153550000D01*
X103063096Y-153597619D01*
X103110715Y-153692857D01*
X103110715Y-153740476D01*
X103063096Y-153835714D01*
X103015477Y-153883333D01*
X102920239Y-153930952D01*
X102729762Y-153930952D01*
X102634524Y-153978571D01*
X102586905Y-154026190D01*
X102539286Y-154121429D01*
X102539286Y-154311905D01*
X102586905Y-154407143D01*
X102634524Y-154454762D01*
X102729762Y-154502381D01*
X102920239Y-154502381D01*
X103015477Y-154454762D01*
X103063096Y-154407143D01*
X103110715Y-154311905D01*
X103110715Y-154121429D01*
X103063096Y-154026190D01*
X103015477Y-153978571D01*
X102920239Y-153930952D01*
X62766667Y-28552381D02*
X62433333Y-28076190D01*
X62195238Y-28552381D02*
X62195238Y-27552381D01*
X62576191Y-27552381D01*
X62671429Y-27600000D01*
X62719048Y-27647619D01*
X62766667Y-27742857D01*
X62766667Y-27885714D01*
X62719048Y-27980952D01*
X62671429Y-28028571D01*
X62576191Y-28076190D01*
X62195238Y-28076190D01*
X63195238Y-28028571D02*
X63528572Y-28028571D01*
X63671429Y-28552381D02*
X63195238Y-28552381D01*
X63195238Y-27552381D01*
X63671429Y-27552381D01*
X64433334Y-28028571D02*
X64100000Y-28028571D01*
X64100000Y-28552381D02*
X64100000Y-27552381D01*
X64576191Y-27552381D01*
X65100000Y-27552381D02*
X65100000Y-27790476D01*
X64861905Y-27695238D02*
X65100000Y-27790476D01*
X65338096Y-27695238D01*
X64957143Y-27980952D02*
X65100000Y-27790476D01*
X65242858Y-27980952D01*
X65861905Y-27552381D02*
X65861905Y-27790476D01*
X65623810Y-27695238D02*
X65861905Y-27790476D01*
X66100001Y-27695238D01*
X65719048Y-27980952D02*
X65861905Y-27790476D01*
X66004763Y-27980952D01*
X112566667Y-28252381D02*
X112233333Y-27776190D01*
X111995238Y-28252381D02*
X111995238Y-27252381D01*
X112376191Y-27252381D01*
X112471429Y-27300000D01*
X112519048Y-27347619D01*
X112566667Y-27442857D01*
X112566667Y-27585714D01*
X112519048Y-27680952D01*
X112471429Y-27728571D01*
X112376191Y-27776190D01*
X111995238Y-27776190D01*
X112995238Y-27728571D02*
X113328572Y-27728571D01*
X113471429Y-28252381D02*
X112995238Y-28252381D01*
X112995238Y-27252381D01*
X113471429Y-27252381D01*
X114233334Y-27728571D02*
X113900000Y-27728571D01*
X113900000Y-28252381D02*
X113900000Y-27252381D01*
X114376191Y-27252381D01*
X114900000Y-27252381D02*
X114900000Y-27490476D01*
X114661905Y-27395238D02*
X114900000Y-27490476D01*
X115138096Y-27395238D01*
X114757143Y-27680952D02*
X114900000Y-27490476D01*
X115042858Y-27680952D01*
X115661905Y-27252381D02*
X115661905Y-27490476D01*
X115423810Y-27395238D02*
X115661905Y-27490476D01*
X115900001Y-27395238D01*
X115519048Y-27680952D02*
X115661905Y-27490476D01*
X115804763Y-27680952D01*
X112216667Y-167502381D02*
X111883333Y-167026190D01*
X111645238Y-167502381D02*
X111645238Y-166502381D01*
X112026191Y-166502381D01*
X112121429Y-166550000D01*
X112169048Y-166597619D01*
X112216667Y-166692857D01*
X112216667Y-166835714D01*
X112169048Y-166930952D01*
X112121429Y-166978571D01*
X112026191Y-167026190D01*
X111645238Y-167026190D01*
X112645238Y-166978571D02*
X112978572Y-166978571D01*
X113121429Y-167502381D02*
X112645238Y-167502381D01*
X112645238Y-166502381D01*
X113121429Y-166502381D01*
X113883334Y-166978571D02*
X113550000Y-166978571D01*
X113550000Y-167502381D02*
X113550000Y-166502381D01*
X114026191Y-166502381D01*
X114550000Y-166502381D02*
X114550000Y-166740476D01*
X114311905Y-166645238D02*
X114550000Y-166740476D01*
X114788096Y-166645238D01*
X114407143Y-166930952D02*
X114550000Y-166740476D01*
X114692858Y-166930952D01*
X115311905Y-166502381D02*
X115311905Y-166740476D01*
X115073810Y-166645238D02*
X115311905Y-166740476D01*
X115550001Y-166645238D01*
X115169048Y-166930952D02*
X115311905Y-166740476D01*
X115454763Y-166930952D01*
X62666667Y-167652381D02*
X62333333Y-167176190D01*
X62095238Y-167652381D02*
X62095238Y-166652381D01*
X62476191Y-166652381D01*
X62571429Y-166700000D01*
X62619048Y-166747619D01*
X62666667Y-166842857D01*
X62666667Y-166985714D01*
X62619048Y-167080952D01*
X62571429Y-167128571D01*
X62476191Y-167176190D01*
X62095238Y-167176190D01*
X63095238Y-167128571D02*
X63428572Y-167128571D01*
X63571429Y-167652381D02*
X63095238Y-167652381D01*
X63095238Y-166652381D01*
X63571429Y-166652381D01*
X64333334Y-167128571D02*
X64000000Y-167128571D01*
X64000000Y-167652381D02*
X64000000Y-166652381D01*
X64476191Y-166652381D01*
X65000000Y-166652381D02*
X65000000Y-166890476D01*
X64761905Y-166795238D02*
X65000000Y-166890476D01*
X65238096Y-166795238D01*
X64857143Y-167080952D02*
X65000000Y-166890476D01*
X65142858Y-167080952D01*
X65761905Y-166652381D02*
X65761905Y-166890476D01*
X65523810Y-166795238D02*
X65761905Y-166890476D01*
X66000001Y-166795238D01*
X65619048Y-167080952D02*
X65761905Y-166890476D01*
X65904763Y-167080952D01*
M02*
