M48
;DRILL file {KiCad 4.0.7-e2-6376~58~ubuntu16.04.1} date Mon Oct  9 01:06:02 2017
;FORMAT={-:-/ absolute / metric / decimal}
FMAT,2
METRIC,TZ
T1C0.400
T2C0.800
T3C0.900
T4C0.920
T5C1.350
T6C1.600
%
G90
G05
M71
T1
X61.2Y-112.3
X63.3Y-133.1
X64.7Y-87.55
X67.1Y-105.225
X67.325Y-54.4
X68.625Y-63.975
X68.95Y-152.85
X71.35Y-107.8
X71.4Y-163.5
X72.1Y-145.
X72.125Y-89.975
X72.35Y-99.2
X73.125Y-152.6
X74.825Y-72.3
X74.925Y-92.625
X75.9Y-83.75
X75.9Y-117.35
X76.Y-80.6
X77.175Y-77.95
X78.225Y-80.55
X78.85Y-157.55
X78.9Y-161.55
X81.45Y-125.15
X82.8Y-156.5
X82.8Y-157.8
X82.8Y-159.35
X83.55Y-118.5
X83.7Y-135.7
X83.75Y-122.3
X84.7Y-96.3
X84.95Y-154.9
X86.075Y-153.35
X86.8Y-77.85
X87.5Y-167.6
X87.575Y-125.775
X87.6Y-96.8
X87.625Y-143.775
X87.65Y-75.1
X87.75Y-148.525
X87.775Y-130.15
X87.95Y-139.25
X87.975Y-134.55
X89.Y-152.9
X90.4Y-64.45
X91.4Y-96.8
X91.55Y-80.9
X91.6Y-122.15
X92.15Y-156.
X92.8Y-95.85
X92.9Y-81.1
X93.15Y-112.2
X94.15Y-80.75
X95.05Y-67.85
X95.2Y-77.55
X95.65Y-114.3
X96.15Y-47.9
X96.3Y-65.05
X96.3Y-67.2
X96.9Y-96.55
X97.45Y-143.15
X97.75Y-102.15
X97.8Y-157.2
X100.2Y-105.275
X101.05Y-76.7
X101.65Y-55.3
X101.65Y-65.75
X101.65Y-68.2
X101.75Y-37.
X101.85Y-36.15
X101.85Y-50.05
X102.7Y-66.525
X103.8Y-137.1
X104.Y-101.55
X104.4Y-111.15
X112.05Y-90.65
X113.35Y-45.725
T2
X84.36Y-39.04
X84.36Y-41.58
X84.36Y-44.12
X84.36Y-46.66
X84.36Y-49.2
X84.36Y-51.74
X84.36Y-54.28
X84.36Y-56.82
X84.36Y-59.36
X84.36Y-61.9
X84.36Y-64.44
X84.36Y-66.98
X84.36Y-69.52
X84.36Y-72.06
X84.36Y-74.6
X99.6Y-39.04
X99.6Y-41.58
X99.6Y-44.12
X99.6Y-46.66
X99.6Y-49.2
X99.6Y-51.74
X99.6Y-54.28
X99.6Y-56.82
X99.6Y-59.36
X99.6Y-61.9
X99.6Y-64.44
X99.6Y-66.98
X99.6Y-69.52
X99.6Y-72.06
X99.6Y-74.6
T3
X107.95Y-126.55
X107.95Y-129.05
X107.95Y-136.05
X107.95Y-138.55
X107.95Y-145.55
X107.95Y-148.05
X107.95Y-150.55
X108.4Y-43.2
X108.4Y-45.7
X108.4Y-48.2
X108.4Y-50.7
X108.4Y-57.8
X108.4Y-60.3
X108.4Y-62.8
X108.45Y-69.8
X108.45Y-72.3
X108.45Y-80.05
X108.45Y-82.55
X108.45Y-102.3
X108.45Y-104.8
X108.45Y-107.3
X108.45Y-109.8
X108.7Y-89.8
X108.7Y-92.3
X108.7Y-94.8
T4
X97.Y-118.8
X99.Y-118.8
X101.Y-118.8
X103.Y-118.8
T5
X96.73Y-116.08
X96.73Y-121.52
X103.73Y-116.08
X103.73Y-121.52
T6
X102.2Y-160.8
X105.2Y-156.1
X108.2Y-160.8
T0
M30
