solid OpenSCAD_Model
  facet normal -1 0 0
    outer loop
      vertex 7.9 -22.6 167.5
      vertex 7.9 -10 172.5
      vertex 7.9 -10 167.5
    endloop
  endfacet
  facet normal -1 -0 0
    outer loop
      vertex 7.9 -10 172.5
      vertex 7.9 -22.6 167.5
      vertex 7.9 -22.6 172.5
    endloop
  endfacet
  facet normal -1 0 0
    outer loop
      vertex 7.9 10 167.5
      vertex 7.9 22.6 172.5
      vertex 7.9 22.6 167.5
    endloop
  endfacet
  facet normal -1 -0 0
    outer loop
      vertex 7.9 22.6 172.5
      vertex 7.9 10 167.5
      vertex 7.9 10 172.5
    endloop
  endfacet
  facet normal -0 0 1
    outer loop
      vertex 5.9 -8.05 172.5
      vertex 7.9 -10 172.5
      vertex 12.5989 -8.05 172.5
    endloop
  endfacet
  facet normal -0 0 1
    outer loop
      vertex -2.3 -5.2 172.5
      vertex 5.9 -8.05 172.5
      vertex -2.3 5.2 172.5
    endloop
  endfacet
  facet normal 0 0 1
    outer loop
      vertex -2.3 -5.2 172.5
      vertex 7.9 -10 172.5
      vertex 5.9 -8.05 172.5
    endloop
  endfacet
  facet normal 0 0 1
    outer loop
      vertex -12.5 -10 172.5
      vertex -2.3 -5.2 172.5
      vertex -7.7 -5.2 172.5
    endloop
  endfacet
  facet normal 0 0 1
    outer loop
      vertex -2.3 -5.2 172.5
      vertex -12.5 -10 172.5
      vertex 7.9 -10 172.5
    endloop
  endfacet
  facet normal 0 0 1
    outer loop
      vertex -12.5 -10 172.5
      vertex -7.7 -5.2 172.5
      vertex -12.5 10 172.5
    endloop
  endfacet
  facet normal 0 0 1
    outer loop
      vertex 52.1 22.6 172.5
      vertex 50.5 0 172.5
      vertex 52.1 -22.6 172.5
    endloop
  endfacet
  facet normal 0 0 1
    outer loop
      vertex 52.1 22.6 172.5
      vertex 50.2924 1.97516 172.5
      vertex 50.5 0 172.5
    endloop
  endfacet
  facet normal 0 0 1
    outer loop
      vertex 52.1 22.6 172.5
      vertex 49.6787 3.864 172.5
      vertex 50.2924 1.97516 172.5
    endloop
  endfacet
  facet normal 0 0 1
    outer loop
      vertex 52.1 22.6 172.5
      vertex 48.6857 5.58396 172.5
      vertex 49.6787 3.864 172.5
    endloop
  endfacet
  facet normal -0 0 1
    outer loop
      vertex 47.5401 7.80934 172.5
      vertex 48.6857 5.58396 172.5
      vertex 52.1 22.6 172.5
    endloop
  endfacet
  facet normal 0 0 1
    outer loop
      vertex 48.6857 5.58396 172.5
      vertex 47.5401 7.80934 172.5
      vertex 48.0246 6.31815 172.5
    endloop
  endfacet
  facet normal 0 0 1
    outer loop
      vertex 52.1 22.6 172.5
      vertex 45.5331 11.2855 172.5
      vertex 47.5401 7.80934 172.5
    endloop
  endfacet
  facet normal 0 0 1
    outer loop
      vertex 52.1 22.6 172.5
      vertex 42.8473 14.2684 172.5
      vertex 45.5331 11.2855 172.5
    endloop
  endfacet
  facet normal 0 0 1
    outer loop
      vertex 52.1 22.6 172.5
      vertex 39.6 16.6277 172.5
      vertex 42.8473 14.2684 172.5
    endloop
  endfacet
  facet normal 0 0 1
    outer loop
      vertex 52.1 22.6 172.5
      vertex 36.3148 18.0904 172.5
      vertex 39.6 16.6277 172.5
    endloop
  endfacet
  facet normal 0 0 1
    outer loop
      vertex 52.1 22.6 172.5
      vertex 34.75 19.2272 172.5
      vertex 36.3148 18.0904 172.5
    endloop
  endfacet
  facet normal 0 0 1
    outer loop
      vertex 52.1 22.6 172.5
      vertex 32.9357 20.035 172.5
      vertex 34.75 19.2272 172.5
    endloop
  endfacet
  facet normal 0 0 1
    outer loop
      vertex 52.1 22.6 172.5
      vertex 30.993 20.448 172.5
      vertex 32.9357 20.035 172.5
    endloop
  endfacet
  facet normal 0 0 1
    outer loop
      vertex 52.1 22.6 172.5
      vertex 29.007 20.448 172.5
      vertex 30.993 20.448 172.5
    endloop
  endfacet
  facet normal 0 0 1
    outer loop
      vertex 7.9 22.6 172.5
      vertex 23.6852 18.0904 172.5
      vertex 25.25 19.2272 172.5
    endloop
  endfacet
  facet normal -0 0 1
    outer loop
      vertex 7.9 22.6 172.5
      vertex 29.007 20.448 172.5
      vertex 52.1 22.6 172.5
    endloop
  endfacet
  facet normal 0 0 1
    outer loop
      vertex 7.9 22.6 172.5
      vertex 27.0643 20.035 172.5
      vertex 29.007 20.448 172.5
    endloop
  endfacet
  facet normal 0 0 1
    outer loop
      vertex 7.9 22.6 172.5
      vertex 25.25 19.2272 172.5
      vertex 27.0643 20.035 172.5
    endloop
  endfacet
  facet normal 0 0 1
    outer loop
      vertex 23.6852 18.0904 172.5
      vertex 7.9 22.6 172.5
      vertex 20.4 16.6277 172.5
    endloop
  endfacet
  facet normal 0 0 1
    outer loop
      vertex 7.9 22.6 172.5
      vertex 17.1527 14.2684 172.5
      vertex 20.4 16.6277 172.5
    endloop
  endfacet
  facet normal 0 0 1
    outer loop
      vertex 7.9 22.6 172.5
      vertex 14.4669 11.2855 172.5
      vertex 17.1527 14.2684 172.5
    endloop
  endfacet
  facet normal 0 0 1
    outer loop
      vertex 7.9 10 172.5
      vertex 14.4669 11.2855 172.5
      vertex 7.9 22.6 172.5
    endloop
  endfacet
  facet normal 0 0 1
    outer loop
      vertex 14.4669 11.2855 172.5
      vertex 7.9 10 172.5
      vertex 12.5989 8.05 172.5
    endloop
  endfacet
  facet normal 0 0 1
    outer loop
      vertex 7.9 10 172.5
      vertex 5.9 8.05 172.5
      vertex 12.5989 8.05 172.5
    endloop
  endfacet
  facet normal 0 0 1
    outer loop
      vertex 5.9 8.05 172.5
      vertex -2.3 5.2 172.5
      vertex 5.9 -8.05 172.5
    endloop
  endfacet
  facet normal 0 0 1
    outer loop
      vertex 7.9 10 172.5
      vertex -2.3 5.2 172.5
      vertex 5.9 8.05 172.5
    endloop
  endfacet
  facet normal -0 0 1
    outer loop
      vertex -12.5 10 172.5
      vertex -2.3 5.2 172.5
      vertex 7.9 10 172.5
    endloop
  endfacet
  facet normal 0 0 1
    outer loop
      vertex -7.7 5.2 172.5
      vertex -12.5 10 172.5
      vertex -7.7 -5.2 172.5
    endloop
  endfacet
  facet normal 0 0 1
    outer loop
      vertex -2.3 5.2 172.5
      vertex -12.5 10 172.5
      vertex -7.7 5.2 172.5
    endloop
  endfacet
  facet normal -0 0 1
    outer loop
      vertex 50.2924 -1.97516 172.5
      vertex 52.1 -22.6 172.5
      vertex 50.5 0 172.5
    endloop
  endfacet
  facet normal -0 0 1
    outer loop
      vertex 49.6787 -3.864 172.5
      vertex 52.1 -22.6 172.5
      vertex 50.2924 -1.97516 172.5
    endloop
  endfacet
  facet normal -0 0 1
    outer loop
      vertex 48.6857 -5.58396 172.5
      vertex 52.1 -22.6 172.5
      vertex 49.6787 -3.864 172.5
    endloop
  endfacet
  facet normal 0 0 1
    outer loop
      vertex 47.5401 -7.80934 172.5
      vertex 48.6857 -5.58396 172.5
      vertex 48.0246 -6.31815 172.5
    endloop
  endfacet
  facet normal 0 0 1
    outer loop
      vertex 48.6857 -5.58396 172.5
      vertex 47.5401 -7.80934 172.5
      vertex 52.1 -22.6 172.5
    endloop
  endfacet
  facet normal -0 0 1
    outer loop
      vertex 45.5331 -11.2855 172.5
      vertex 52.1 -22.6 172.5
      vertex 47.5401 -7.80934 172.5
    endloop
  endfacet
  facet normal -0 0 1
    outer loop
      vertex 42.8473 -14.2684 172.5
      vertex 52.1 -22.6 172.5
      vertex 45.5331 -11.2855 172.5
    endloop
  endfacet
  facet normal -0 0 1
    outer loop
      vertex 39.6 -16.6277 172.5
      vertex 52.1 -22.6 172.5
      vertex 42.8473 -14.2684 172.5
    endloop
  endfacet
  facet normal -0 0 1
    outer loop
      vertex 36.3148 -18.0904 172.5
      vertex 52.1 -22.6 172.5
      vertex 39.6 -16.6277 172.5
    endloop
  endfacet
  facet normal -0 0 1
    outer loop
      vertex 34.75 -19.2272 172.5
      vertex 52.1 -22.6 172.5
      vertex 36.3148 -18.0904 172.5
    endloop
  endfacet
  facet normal -0 0 1
    outer loop
      vertex 32.9357 -20.035 172.5
      vertex 52.1 -22.6 172.5
      vertex 34.75 -19.2272 172.5
    endloop
  endfacet
  facet normal -0 0 1
    outer loop
      vertex 30.993 -20.448 172.5
      vertex 52.1 -22.6 172.5
      vertex 32.9357 -20.035 172.5
    endloop
  endfacet
  facet normal -0 0 1
    outer loop
      vertex 29.007 -20.448 172.5
      vertex 52.1 -22.6 172.5
      vertex 30.993 -20.448 172.5
    endloop
  endfacet
  facet normal 0 0 1
    outer loop
      vertex 7.9 -22.6 172.5
      vertex 23.6852 -18.0904 172.5
      vertex 20.4 -16.6277 172.5
    endloop
  endfacet
  facet normal -0 0 1
    outer loop
      vertex 7.9 -10 172.5
      vertex 14.4669 -11.2855 172.5
      vertex 12.5989 -8.05 172.5
    endloop
  endfacet
  facet normal 0 0 1
    outer loop
      vertex 7.9 -22.6 172.5
      vertex 14.4669 -11.2855 172.5
      vertex 7.9 -10 172.5
    endloop
  endfacet
  facet normal 0 0 1
    outer loop
      vertex 14.4669 -11.2855 172.5
      vertex 7.9 -22.6 172.5
      vertex 17.1527 -14.2684 172.5
    endloop
  endfacet
  facet normal 0 0 1
    outer loop
      vertex 17.1527 -14.2684 172.5
      vertex 7.9 -22.6 172.5
      vertex 20.4 -16.6277 172.5
    endloop
  endfacet
  facet normal 0 0 1
    outer loop
      vertex 29.007 -20.448 172.5
      vertex 7.9 -22.6 172.5
      vertex 52.1 -22.6 172.5
    endloop
  endfacet
  facet normal 0 0 1
    outer loop
      vertex 27.0643 -20.035 172.5
      vertex 7.9 -22.6 172.5
      vertex 29.007 -20.448 172.5
    endloop
  endfacet
  facet normal 0 0 1
    outer loop
      vertex 25.25 -19.2272 172.5
      vertex 7.9 -22.6 172.5
      vertex 27.0643 -20.035 172.5
    endloop
  endfacet
  facet normal 0 0 1
    outer loop
      vertex 23.6852 -18.0904 172.5
      vertex 7.9 -22.6 172.5
      vertex 25.25 -19.2272 172.5
    endloop
  endfacet
  facet normal 1 -0 0
    outer loop
      vertex 52.1 -22.6 172.5
      vertex 52.1 22.6 167.5
      vertex 52.1 22.6 172.5
    endloop
  endfacet
  facet normal 1 0 0
    outer loop
      vertex 52.1 22.6 167.5
      vertex 52.1 -22.6 172.5
      vertex 52.1 -22.6 167.5
    endloop
  endfacet
  facet normal 0 1 -0
    outer loop
      vertex 52.1 22.6 167.5
      vertex 7.9 22.6 172.5
      vertex 52.1 22.6 172.5
    endloop
  endfacet
  facet normal 0 1 0
    outer loop
      vertex 7.9 22.6 172.5
      vertex 52.1 22.6 167.5
      vertex 7.9 22.6 167.5
    endloop
  endfacet
  facet normal 0 0 -1
    outer loop
      vertex 6.47295 1.76336 167.5
      vertex 7.9 10 167.5
      vertex 7.97295 2.85317 167.5
    endloop
  endfacet
  facet normal 0 0 -1
    outer loop
      vertex -2.3 5.2 167.5
      vertex 6.47295 1.76336 167.5
      vertex 5.9 0 167.5
    endloop
  endfacet
  facet normal 0 0 -1
    outer loop
      vertex -2.3 5.2 167.5
      vertex 5.9 0 167.5
      vertex -2.3 -5.2 167.5
    endloop
  endfacet
  facet normal 0 0 -1
    outer loop
      vertex 6.47295 1.76336 167.5
      vertex -2.3 5.2 167.5
      vertex 7.9 10 167.5
    endloop
  endfacet
  facet normal 0 0 -1
    outer loop
      vertex -12.5 10 167.5
      vertex -2.3 5.2 167.5
      vertex -7.7 5.2 167.5
    endloop
  endfacet
  facet normal 0 0 -1
    outer loop
      vertex -2.3 5.2 167.5
      vertex -12.5 10 167.5
      vertex 7.9 10 167.5
    endloop
  endfacet
  facet normal 0 0 -1
    outer loop
      vertex -12.5 10 167.5
      vertex -7.7 5.2 167.5
      vertex -12.5 -10 167.5
    endloop
  endfacet
  facet normal 0 0 -1
    outer loop
      vertex 52.1 -22.6 167.5
      vertex 48.8 0 167.5
      vertex 52.1 22.6 167.5
    endloop
  endfacet
  facet normal 0 0 -1
    outer loop
      vertex 52.1 -22.6 167.5
      vertex 48.3892 -3.90874 167.5
      vertex 48.8 0 167.5
    endloop
  endfacet
  facet normal 0 0 -1
    outer loop
      vertex 52.1 -22.6 167.5
      vertex 47.1747 -7.64665 167.5
      vertex 48.3892 -3.90874 167.5
    endloop
  endfacet
  facet normal 0 0 -1
    outer loop
      vertex 52.1 -22.6 167.5
      vertex 45.2095 -11.0504 167.5
      vertex 47.1747 -7.64665 167.5
    endloop
  endfacet
  facet normal 0 0 -1
    outer loop
      vertex 52.1 -22.6 167.5
      vertex 42.5797 -13.9711 167.5
      vertex 45.2095 -11.0504 167.5
    endloop
  endfacet
  facet normal 0 0 -1
    outer loop
      vertex 52.1 -22.6 167.5
      vertex 39.4 -16.2813 167.5
      vertex 42.5797 -13.9711 167.5
    endloop
  endfacet
  facet normal 0 0 -1
    outer loop
      vertex 52.1 -22.6 167.5
      vertex 35.8095 -17.8799 167.5
      vertex 39.4 -16.2813 167.5
    endloop
  endfacet
  facet normal 0 0 -1
    outer loop
      vertex 52.1 -22.6 167.5
      vertex 31.9651 -18.697 167.5
      vertex 35.8095 -17.8799 167.5
    endloop
  endfacet
  facet normal 0 0 -1
    outer loop
      vertex 52.1 -22.6 167.5
      vertex 28.0349 -18.697 167.5
      vertex 31.9651 -18.697 167.5
    endloop
  endfacet
  facet normal 0 0 -1
    outer loop
      vertex 11.6108 -3.90874 167.5
      vertex 11.3271 -1.76336 167.5
      vertex 11.3711 -1.62782 167.5
    endloop
  endfacet
  facet normal 0 0 -1
    outer loop
      vertex 11.6108 -3.90874 167.5
      vertex 9.82705 -2.85317 167.5
      vertex 11.3271 -1.76336 167.5
    endloop
  endfacet
  facet normal 0 0 -1
    outer loop
      vertex 7.9 -10 167.5
      vertex 11.6108 -3.90874 167.5
      vertex 12.8253 -7.64665 167.5
    endloop
  endfacet
  facet normal 0 0 -1
    outer loop
      vertex 7.9 -10 167.5
      vertex 12.8253 -7.64665 167.5
      vertex 14.7905 -11.0504 167.5
    endloop
  endfacet
  facet normal -0 0 -1
    outer loop
      vertex 11.6108 -3.90874 167.5
      vertex 7.9 -10 167.5
      vertex 9.82705 -2.85317 167.5
    endloop
  endfacet
  facet normal 0 0 -1
    outer loop
      vertex 7.9 -22.6 167.5
      vertex 28.0349 -18.697 167.5
      vertex 52.1 -22.6 167.5
    endloop
  endfacet
  facet normal 0 0 -1
    outer loop
      vertex 7.9 -22.6 167.5
      vertex 24.1905 -17.8799 167.5
      vertex 28.0349 -18.697 167.5
    endloop
  endfacet
  facet normal 0 0 -1
    outer loop
      vertex 7.9 -22.6 167.5
      vertex 20.6 -16.2813 167.5
      vertex 24.1905 -17.8799 167.5
    endloop
  endfacet
  facet normal 0 0 -1
    outer loop
      vertex 7.9 -22.6 167.5
      vertex 17.4203 -13.9711 167.5
      vertex 20.6 -16.2813 167.5
    endloop
  endfacet
  facet normal 0 0 -1
    outer loop
      vertex 7.9 -22.6 167.5
      vertex 14.7905 -11.0504 167.5
      vertex 17.4203 -13.9711 167.5
    endloop
  endfacet
  facet normal 0 0 -1
    outer loop
      vertex 7.9 -10 167.5
      vertex 14.7905 -11.0504 167.5
      vertex 7.9 -22.6 167.5
    endloop
  endfacet
  facet normal -0 0 -1
    outer loop
      vertex 9.82705 -2.85317 167.5
      vertex 7.9 -10 167.5
      vertex 7.97295 -2.85317 167.5
    endloop
  endfacet
  facet normal 0 0 -1
    outer loop
      vertex 7.9 -10 167.5
      vertex 6.47295 -1.76336 167.5
      vertex 7.97295 -2.85317 167.5
    endloop
  endfacet
  facet normal 0 0 -1
    outer loop
      vertex -2.3 -5.2 167.5
      vertex 6.47295 -1.76336 167.5
      vertex 7.9 -10 167.5
    endloop
  endfacet
  facet normal -0 0 -1
    outer loop
      vertex 6.47295 -1.76336 167.5
      vertex -2.3 -5.2 167.5
      vertex 5.9 0 167.5
    endloop
  endfacet
  facet normal 0 0 -1
    outer loop
      vertex -12.5 -10 167.5
      vertex -2.3 -5.2 167.5
      vertex 7.9 -10 167.5
    endloop
  endfacet
  facet normal -0 0 -1
    outer loop
      vertex -7.7 -5.2 167.5
      vertex -12.5 -10 167.5
      vertex -7.7 5.2 167.5
    endloop
  endfacet
  facet normal -0 0 -1
    outer loop
      vertex -2.3 -5.2 167.5
      vertex -12.5 -10 167.5
      vertex -7.7 -5.2 167.5
    endloop
  endfacet
  facet normal 0 0 -1
    outer loop
      vertex 48.3892 3.90874 167.5
      vertex 52.1 22.6 167.5
      vertex 48.8 0 167.5
    endloop
  endfacet
  facet normal 0 0 -1
    outer loop
      vertex 47.1747 7.64665 167.5
      vertex 52.1 22.6 167.5
      vertex 48.3892 3.90874 167.5
    endloop
  endfacet
  facet normal 0 0 -1
    outer loop
      vertex 45.2095 11.0504 167.5
      vertex 52.1 22.6 167.5
      vertex 47.1747 7.64665 167.5
    endloop
  endfacet
  facet normal 0 0 -1
    outer loop
      vertex 42.5797 13.9711 167.5
      vertex 52.1 22.6 167.5
      vertex 45.2095 11.0504 167.5
    endloop
  endfacet
  facet normal 0 0 -1
    outer loop
      vertex 39.4 16.2813 167.5
      vertex 52.1 22.6 167.5
      vertex 42.5797 13.9711 167.5
    endloop
  endfacet
  facet normal 0 0 -1
    outer loop
      vertex 35.8095 17.8799 167.5
      vertex 52.1 22.6 167.5
      vertex 39.4 16.2813 167.5
    endloop
  endfacet
  facet normal 0 0 -1
    outer loop
      vertex 31.9651 18.697 167.5
      vertex 52.1 22.6 167.5
      vertex 35.8095 17.8799 167.5
    endloop
  endfacet
  facet normal 0 0 -1
    outer loop
      vertex 28.0349 18.697 167.5
      vertex 52.1 22.6 167.5
      vertex 31.9651 18.697 167.5
    endloop
  endfacet
  facet normal 0 0 -1
    outer loop
      vertex 11.3271 1.76336 167.5
      vertex 11.6108 3.90874 167.5
      vertex 11.3711 1.62782 167.5
    endloop
  endfacet
  facet normal 0 0 -1
    outer loop
      vertex 9.82705 2.85317 167.5
      vertex 11.6108 3.90874 167.5
      vertex 11.3271 1.76336 167.5
    endloop
  endfacet
  facet normal 0 0 -1
    outer loop
      vertex 7.9 10 167.5
      vertex 11.6108 3.90874 167.5
      vertex 9.82705 2.85317 167.5
    endloop
  endfacet
  facet normal 0 0 -1
    outer loop
      vertex 11.6108 3.90874 167.5
      vertex 7.9 10 167.5
      vertex 12.8253 7.64665 167.5
    endloop
  endfacet
  facet normal 0 0 -1
    outer loop
      vertex 7.9 10 167.5
      vertex 9.82705 2.85317 167.5
      vertex 7.97295 2.85317 167.5
    endloop
  endfacet
  facet normal 0 0 -1
    outer loop
      vertex 12.8253 7.64665 167.5
      vertex 7.9 10 167.5
      vertex 14.7905 11.0504 167.5
    endloop
  endfacet
  facet normal 0 0 -1
    outer loop
      vertex 7.9 22.6 167.5
      vertex 14.7905 11.0504 167.5
      vertex 7.9 10 167.5
    endloop
  endfacet
  facet normal 0 0 -1
    outer loop
      vertex 14.7905 11.0504 167.5
      vertex 7.9 22.6 167.5
      vertex 17.4203 13.9711 167.5
    endloop
  endfacet
  facet normal 0 0 -1
    outer loop
      vertex 28.0349 18.697 167.5
      vertex 7.9 22.6 167.5
      vertex 52.1 22.6 167.5
    endloop
  endfacet
  facet normal 0 0 -1
    outer loop
      vertex 24.1905 17.8799 167.5
      vertex 7.9 22.6 167.5
      vertex 28.0349 18.697 167.5
    endloop
  endfacet
  facet normal 0 0 -1
    outer loop
      vertex 20.6 16.2813 167.5
      vertex 7.9 22.6 167.5
      vertex 24.1905 17.8799 167.5
    endloop
  endfacet
  facet normal 0 0 -1
    outer loop
      vertex 17.4203 13.9711 167.5
      vertex 7.9 22.6 167.5
      vertex 20.6 16.2813 167.5
    endloop
  endfacet
  facet normal 0 -1 0
    outer loop
      vertex 7.9 -22.6 167.5
      vertex 52.1 -22.6 172.5
      vertex 7.9 -22.6 172.5
    endloop
  endfacet
  facet normal 0 -1 -0
    outer loop
      vertex 52.1 -22.6 172.5
      vertex 7.9 -22.6 167.5
      vertex 52.1 -22.6 167.5
    endloop
  endfacet
  facet normal -1 0 0
    outer loop
      vertex -12.5 10 167.5
      vertex -12.5 1.42658 169.536
      vertex -12.5 10 172.5
    endloop
  endfacet
  facet normal -1 0 0
    outer loop
      vertex -12.5 10 167.5
      vertex -12.5 0 168.5
      vertex -12.5 1.42658 169.536
    endloop
  endfacet
  facet normal -1 -0 0
    outer loop
      vertex -12.5 0 168.5
      vertex -12.5 -10 167.5
      vertex -12.5 -1.42658 169.536
    endloop
  endfacet
  facet normal -1 0 0
    outer loop
      vertex -12.5 -10 167.5
      vertex -12.5 0 168.5
      vertex -12.5 10 167.5
    endloop
  endfacet
  facet normal -1 0 0
    outer loop
      vertex -12.5 0.881678 171.214
      vertex -12.5 10 172.5
      vertex -12.5 1.42658 169.536
    endloop
  endfacet
  facet normal -1 0 0
    outer loop
      vertex -12.5 -0.881678 171.214
      vertex -12.5 10 172.5
      vertex -12.5 0.881678 171.214
    endloop
  endfacet
  facet normal -1 0 0
    outer loop
      vertex -12.5 -10 172.5
      vertex -12.5 -1.42658 169.536
      vertex -12.5 -10 167.5
    endloop
  endfacet
  facet normal -1 0 0
    outer loop
      vertex -12.5 -0.881678 171.214
      vertex -12.5 -10 172.5
      vertex -12.5 10 172.5
    endloop
  endfacet
  facet normal -1 0 0
    outer loop
      vertex -12.5 -1.42658 169.536
      vertex -12.5 -10 172.5
      vertex -12.5 -0.881678 171.214
    endloop
  endfacet
  facet normal 0 1 -0
    outer loop
      vertex 7.9 10 167.5
      vertex -12.5 10 172.5
      vertex 7.9 10 172.5
    endloop
  endfacet
  facet normal 0 1 0
    outer loop
      vertex -12.5 10 172.5
      vertex 7.9 10 167.5
      vertex -12.5 10 167.5
    endloop
  endfacet
  facet normal 0 -1 0
    outer loop
      vertex -12.5 -10 167.5
      vertex 7.9 -10 172.5
      vertex -12.5 -10 172.5
    endloop
  endfacet
  facet normal 0 -1 -0
    outer loop
      vertex 7.9 -10 172.5
      vertex -12.5 -10 167.5
      vertex 7.9 -10 167.5
    endloop
  endfacet
  facet normal -0.994522 -0.104528 0
    outer loop
      vertex 48.8 0 167.5
      vertex 48.3892 3.90874 168.5
      vertex 48.3892 3.90874 167.5
    endloop
  endfacet
  facet normal -0.994522 -0.104528 0
    outer loop
      vertex 48.3892 3.90874 168.5
      vertex 48.8 0 167.5
      vertex 48.8 0 168.5
    endloop
  endfacet
  facet normal 0.994522 -0.104528 0
    outer loop
      vertex 11.3711 1.62782 168.5
      vertex 11.6108 3.90874 167.5
      vertex 11.6108 3.90874 168.5
    endloop
  endfacet
  facet normal 0.994522 -0.104528 0
    outer loop
      vertex 11.6108 3.90874 167.5
      vertex 11.3711 1.62782 168.5
      vertex 11.3711 1.62782 167.5
    endloop
  endfacet
  facet normal 0 -1 0
    outer loop
      vertex 28.0349 18.697 167.5
      vertex 31.9651 18.697 168.5
      vertex 28.0349 18.697 168.5
    endloop
  endfacet
  facet normal 0 -1 -0
    outer loop
      vertex 31.9651 18.697 168.5
      vertex 28.0349 18.697 167.5
      vertex 31.9651 18.697 167.5
    endloop
  endfacet
  facet normal 0 1 -0
    outer loop
      vertex 31.9651 -18.697 167.5
      vertex 28.0349 -18.697 168.5
      vertex 31.9651 -18.697 168.5
    endloop
  endfacet
  facet normal 0 1 0
    outer loop
      vertex 28.0349 -18.697 168.5
      vertex 31.9651 -18.697 167.5
      vertex 28.0349 -18.697 167.5
    endloop
  endfacet
  facet normal -0.587786 -0.809017 0
    outer loop
      vertex 39.4 16.2813 167.5
      vertex 42.5797 13.9711 168.5
      vertex 39.4 16.2813 168.5
    endloop
  endfacet
  facet normal -0.587786 -0.809017 -0
    outer loop
      vertex 42.5797 13.9711 168.5
      vertex 39.4 16.2813 167.5
      vertex 42.5797 13.9711 167.5
    endloop
  endfacet
  facet normal -0.406736 -0.913546 0
    outer loop
      vertex 35.8095 17.8799 167.5
      vertex 39.4 16.2813 168.5
      vertex 35.8095 17.8799 168.5
    endloop
  endfacet
  facet normal -0.406736 -0.913546 -0
    outer loop
      vertex 39.4 16.2813 168.5
      vertex 35.8095 17.8799 167.5
      vertex 39.4 16.2813 167.5
    endloop
  endfacet
  facet normal 0.743145 -0.669131 0
    outer loop
      vertex 14.7905 11.0504 168.5
      vertex 17.4203 13.9711 167.5
      vertex 17.4203 13.9711 168.5
    endloop
  endfacet
  facet normal 0.743145 -0.669131 0
    outer loop
      vertex 17.4203 13.9711 167.5
      vertex 14.7905 11.0504 168.5
      vertex 14.7905 11.0504 167.5
    endloop
  endfacet
  facet normal 0.406737 -0.913545 0
    outer loop
      vertex 20.6 16.2813 167.5
      vertex 24.1905 17.8799 168.5
      vertex 20.6 16.2813 168.5
    endloop
  endfacet
  facet normal 0.406737 -0.913545 0
    outer loop
      vertex 24.1905 17.8799 168.5
      vertex 20.6 16.2813 167.5
      vertex 24.1905 17.8799 167.5
    endloop
  endfacet
  facet normal -0.866026 -0.5 0
    outer loop
      vertex 47.1747 7.64665 167.5
      vertex 45.2095 11.0504 168.5
      vertex 45.2095 11.0504 167.5
    endloop
  endfacet
  facet normal -0.866026 -0.5 0
    outer loop
      vertex 45.2095 11.0504 168.5
      vertex 47.1747 7.64665 167.5
      vertex 47.1747 7.64665 168.5
    endloop
  endfacet
  facet normal -0.951056 -0.309018 0
    outer loop
      vertex 48.3892 3.90874 167.5
      vertex 47.1747 7.64665 168.5
      vertex 47.1747 7.64665 167.5
    endloop
  endfacet
  facet normal -0.951056 -0.309018 0
    outer loop
      vertex 47.1747 7.64665 168.5
      vertex 48.3892 3.90874 167.5
      vertex 48.3892 3.90874 168.5
    endloop
  endfacet
  facet normal -0.743145 -0.669131 0
    outer loop
      vertex 45.2095 11.0504 167.5
      vertex 42.5797 13.9711 168.5
      vertex 42.5797 13.9711 167.5
    endloop
  endfacet
  facet normal -0.743145 -0.669131 0
    outer loop
      vertex 42.5797 13.9711 168.5
      vertex 45.2095 11.0504 167.5
      vertex 45.2095 11.0504 168.5
    endloop
  endfacet
  facet normal -0.207912 -0.978148 0
    outer loop
      vertex 31.9651 18.697 167.5
      vertex 35.8095 17.8799 168.5
      vertex 31.9651 18.697 168.5
    endloop
  endfacet
  facet normal -0.207912 -0.978148 -0
    outer loop
      vertex 35.8095 17.8799 168.5
      vertex 31.9651 18.697 167.5
      vertex 35.8095 17.8799 167.5
    endloop
  endfacet
  facet normal 0.866025 -0.5 0
    outer loop
      vertex 12.8253 7.64665 168.5
      vertex 14.7905 11.0504 167.5
      vertex 14.7905 11.0504 168.5
    endloop
  endfacet
  facet normal 0.866025 -0.5 0
    outer loop
      vertex 14.7905 11.0504 167.5
      vertex 12.8253 7.64665 168.5
      vertex 12.8253 7.64665 167.5
    endloop
  endfacet
  facet normal 0.951057 -0.309017 0
    outer loop
      vertex 11.6108 3.90874 168.5
      vertex 12.8253 7.64665 167.5
      vertex 12.8253 7.64665 168.5
    endloop
  endfacet
  facet normal 0.951057 -0.309017 0
    outer loop
      vertex 12.8253 7.64665 167.5
      vertex 11.6108 3.90874 168.5
      vertex 11.6108 3.90874 167.5
    endloop
  endfacet
  facet normal 0.587786 -0.809017 0
    outer loop
      vertex 17.4203 13.9711 167.5
      vertex 20.6 16.2813 168.5
      vertex 17.4203 13.9711 168.5
    endloop
  endfacet
  facet normal 0.587786 -0.809017 0
    outer loop
      vertex 20.6 16.2813 168.5
      vertex 17.4203 13.9711 167.5
      vertex 20.6 16.2813 167.5
    endloop
  endfacet
  facet normal 0.207911 -0.978148 0
    outer loop
      vertex 24.1905 17.8799 167.5
      vertex 28.0349 18.697 168.5
      vertex 24.1905 17.8799 168.5
    endloop
  endfacet
  facet normal 0.207911 -0.978148 0
    outer loop
      vertex 28.0349 18.697 168.5
      vertex 24.1905 17.8799 167.5
      vertex 28.0349 18.697 167.5
    endloop
  endfacet
  facet normal -0.994522 0.104528 0
    outer loop
      vertex 48.3892 -3.90874 167.5
      vertex 48.8 0 168.5
      vertex 48.8 0 167.5
    endloop
  endfacet
  facet normal -0.994522 0.104528 0
    outer loop
      vertex 48.8 0 168.5
      vertex 48.3892 -3.90874 167.5
      vertex 48.3892 -3.90874 168.5
    endloop
  endfacet
  facet normal 0.994522 0.104528 0
    outer loop
      vertex 11.6108 -3.90874 168.5
      vertex 11.3711 -1.62782 167.5
      vertex 11.3711 -1.62782 168.5
    endloop
  endfacet
  facet normal 0.994522 0.104528 0
    outer loop
      vertex 11.3711 -1.62782 167.5
      vertex 11.6108 -3.90874 168.5
      vertex 11.6108 -3.90874 167.5
    endloop
  endfacet
  facet normal -0.207912 0.978148 0
    outer loop
      vertex 35.8095 -17.8799 167.5
      vertex 31.9651 -18.697 168.5
      vertex 35.8095 -17.8799 168.5
    endloop
  endfacet
  facet normal -0.207912 0.978148 0
    outer loop
      vertex 31.9651 -18.697 168.5
      vertex 35.8095 -17.8799 167.5
      vertex 31.9651 -18.697 167.5
    endloop
  endfacet
  facet normal -0.743145 0.669131 0
    outer loop
      vertex 42.5797 -13.9711 167.5
      vertex 45.2095 -11.0504 168.5
      vertex 45.2095 -11.0504 167.5
    endloop
  endfacet
  facet normal -0.743145 0.669131 0
    outer loop
      vertex 45.2095 -11.0504 168.5
      vertex 42.5797 -13.9711 167.5
      vertex 42.5797 -13.9711 168.5
    endloop
  endfacet
  facet normal -0.951056 0.309018 0
    outer loop
      vertex 47.1747 -7.64665 167.5
      vertex 48.3892 -3.90874 168.5
      vertex 48.3892 -3.90874 167.5
    endloop
  endfacet
  facet normal -0.951056 0.309018 0
    outer loop
      vertex 48.3892 -3.90874 168.5
      vertex 47.1747 -7.64665 167.5
      vertex 47.1747 -7.64665 168.5
    endloop
  endfacet
  facet normal -0.866026 0.5 0
    outer loop
      vertex 45.2095 -11.0504 167.5
      vertex 47.1747 -7.64665 168.5
      vertex 47.1747 -7.64665 167.5
    endloop
  endfacet
  facet normal -0.866026 0.5 0
    outer loop
      vertex 47.1747 -7.64665 168.5
      vertex 45.2095 -11.0504 167.5
      vertex 45.2095 -11.0504 168.5
    endloop
  endfacet
  facet normal 0.866025 0.5 0
    outer loop
      vertex 14.7905 -11.0504 168.5
      vertex 12.8253 -7.64665 167.5
      vertex 12.8253 -7.64665 168.5
    endloop
  endfacet
  facet normal 0.866025 0.5 0
    outer loop
      vertex 12.8253 -7.64665 167.5
      vertex 14.7905 -11.0504 168.5
      vertex 14.7905 -11.0504 167.5
    endloop
  endfacet
  facet normal -0.587786 0.809017 0
    outer loop
      vertex 42.5797 -13.9711 167.5
      vertex 39.4 -16.2813 168.5
      vertex 42.5797 -13.9711 168.5
    endloop
  endfacet
  facet normal -0.587786 0.809017 0
    outer loop
      vertex 39.4 -16.2813 168.5
      vertex 42.5797 -13.9711 167.5
      vertex 39.4 -16.2813 167.5
    endloop
  endfacet
  facet normal -0.406736 0.913546 0
    outer loop
      vertex 39.4 -16.2813 167.5
      vertex 35.8095 -17.8799 168.5
      vertex 39.4 -16.2813 168.5
    endloop
  endfacet
  facet normal -0.406736 0.913546 0
    outer loop
      vertex 35.8095 -17.8799 168.5
      vertex 39.4 -16.2813 167.5
      vertex 35.8095 -17.8799 167.5
    endloop
  endfacet
  facet normal 0.406737 0.913545 -0
    outer loop
      vertex 24.1905 -17.8799 167.5
      vertex 20.6 -16.2813 168.5
      vertex 24.1905 -17.8799 168.5
    endloop
  endfacet
  facet normal 0.406737 0.913545 0
    outer loop
      vertex 20.6 -16.2813 168.5
      vertex 24.1905 -17.8799 167.5
      vertex 20.6 -16.2813 167.5
    endloop
  endfacet
  facet normal 0.743145 0.669131 0
    outer loop
      vertex 17.4203 -13.9711 168.5
      vertex 14.7905 -11.0504 167.5
      vertex 14.7905 -11.0504 168.5
    endloop
  endfacet
  facet normal 0.743145 0.669131 0
    outer loop
      vertex 14.7905 -11.0504 167.5
      vertex 17.4203 -13.9711 168.5
      vertex 17.4203 -13.9711 167.5
    endloop
  endfacet
  facet normal 0.951057 0.309017 0
    outer loop
      vertex 12.8253 -7.64665 168.5
      vertex 11.6108 -3.90874 167.5
      vertex 11.6108 -3.90874 168.5
    endloop
  endfacet
  facet normal 0.951057 0.309017 0
    outer loop
      vertex 11.6108 -3.90874 167.5
      vertex 12.8253 -7.64665 168.5
      vertex 12.8253 -7.64665 167.5
    endloop
  endfacet
  facet normal 0.587786 0.809017 -0
    outer loop
      vertex 20.6 -16.2813 167.5
      vertex 17.4203 -13.9711 168.5
      vertex 20.6 -16.2813 168.5
    endloop
  endfacet
  facet normal 0.587786 0.809017 0
    outer loop
      vertex 17.4203 -13.9711 168.5
      vertex 20.6 -16.2813 167.5
      vertex 17.4203 -13.9711 167.5
    endloop
  endfacet
  facet normal 0.207911 0.978148 -0
    outer loop
      vertex 28.0349 -18.697 167.5
      vertex 24.1905 -17.8799 168.5
      vertex 28.0349 -18.697 168.5
    endloop
  endfacet
  facet normal 0.207911 0.978148 0
    outer loop
      vertex 24.1905 -17.8799 168.5
      vertex 28.0349 -18.697 167.5
      vertex 24.1905 -17.8799 167.5
    endloop
  endfacet
  facet normal -0.587785 -0.809017 0
    outer loop
      vertex 39.6 16.6277 168.5
      vertex 42.8473 14.2684 172.5
      vertex 39.6 16.6277 172.5
    endloop
  endfacet
  facet normal -0.587785 -0.809017 -0
    outer loop
      vertex 42.8473 14.2684 172.5
      vertex 39.6 16.6277 168.5
      vertex 42.8473 14.2684 168.5
    endloop
  endfacet
  facet normal 0.743145 -0.669131 0
    outer loop
      vertex 14.4669 11.2855 172.5
      vertex 17.1527 14.2684 168.5
      vertex 17.1527 14.2684 172.5
    endloop
  endfacet
  facet normal 0.743145 -0.669131 0
    outer loop
      vertex 17.1527 14.2684 168.5
      vertex 14.4669 11.2855 172.5
      vertex 14.4669 11.2855 168.5
    endloop
  endfacet
  facet normal 0.866025 -0.5 0
    outer loop
      vertex 12.5989 8.05 168.75
      vertex 14.4669 11.2855 172.5
      vertex 12.5989 8.05 172.5
    endloop
  endfacet
  facet normal 0.866025 -0.5 0
    outer loop
      vertex 14.4669 11.2855 172.5
      vertex 12.5989 8.05 168.75
      vertex 14.4669 11.2855 168.5
    endloop
  endfacet
  facet normal 0.866025 -0.5 0
    outer loop
      vertex 12.4599 7.80934 168.5
      vertex 12.5989 8.05 168.75
      vertex 12.4599 7.80934 168.75
    endloop
  endfacet
  facet normal 0.866025 -0.5 1.12184e-007
    outer loop
      vertex 12.5989 8.05 168.75
      vertex 12.4599 7.80934 168.5
      vertex 14.4669 11.2855 168.5
    endloop
  endfacet
  facet normal 0.406736 -0.913546 0
    outer loop
      vertex 20.4 16.6277 168.5
      vertex 23.6852 18.0904 172.5
      vertex 20.4 16.6277 172.5
    endloop
  endfacet
  facet normal 0.406736 -0.913546 0
    outer loop
      vertex 23.6852 18.0904 172.5
      vertex 20.4 16.6277 168.5
      vertex 23.6852 18.0904 168.5
    endloop
  endfacet
  facet normal -0.866025 -0.5 0
    outer loop
      vertex 47.5401 7.80934 168.5
      vertex 45.5331 11.2855 172.5
      vertex 45.5331 11.2855 168.5
    endloop
  endfacet
  facet normal -0.866025 -0.5 0
    outer loop
      vertex 45.5331 11.2855 172.5
      vertex 47.5401 7.80934 168.5
      vertex 47.5401 7.80934 172.5
    endloop
  endfacet
  facet normal -0.951057 -0.309017 0
    outer loop
      vertex 48.0246 6.31815 168.5
      vertex 47.5401 7.80934 172.5
      vertex 47.5401 7.80934 168.5
    endloop
  endfacet
  facet normal -0.951057 -0.309017 0
    outer loop
      vertex 47.5401 7.80934 172.5
      vertex 48.0246 6.31815 168.5
      vertex 48.0246 6.31815 172.5
    endloop
  endfacet
  facet normal -0.743144 -0.669131 0
    outer loop
      vertex 45.5331 11.2855 168.5
      vertex 42.8473 14.2684 172.5
      vertex 42.8473 14.2684 168.5
    endloop
  endfacet
  facet normal -0.743144 -0.669131 0
    outer loop
      vertex 42.8473 14.2684 172.5
      vertex 45.5331 11.2855 168.5
      vertex 45.5331 11.2855 172.5
    endloop
  endfacet
  facet normal -0.406737 -0.913545 0
    outer loop
      vertex 36.3148 18.0904 168.5
      vertex 39.6 16.6277 172.5
      vertex 36.3148 18.0904 172.5
    endloop
  endfacet
  facet normal -0.406737 -0.913545 -0
    outer loop
      vertex 39.6 16.6277 172.5
      vertex 36.3148 18.0904 168.5
      vertex 39.6 16.6277 168.5
    endloop
  endfacet
  facet normal 0.951056 -0.309017 0
    outer loop
      vertex 11.9754 6.31815 168.75
      vertex 12.4599 7.80934 168.5
      vertex 12.4599 7.80934 168.75
    endloop
  endfacet
  facet normal 0.951056 -0.309017 0
    outer loop
      vertex 12.4599 7.80934 168.5
      vertex 11.9754 6.31815 168.75
      vertex 11.9754 6.31815 168.5
    endloop
  endfacet
  facet normal 0.587785 -0.809017 0
    outer loop
      vertex 17.1527 14.2684 168.5
      vertex 20.4 16.6277 172.5
      vertex 17.1527 14.2684 172.5
    endloop
  endfacet
  facet normal 0.587785 -0.809017 0
    outer loop
      vertex 20.4 16.6277 172.5
      vertex 17.1527 14.2684 168.5
      vertex 20.4 16.6277 168.5
    endloop
  endfacet
  facet normal -0.743144 0.669131 0
    outer loop
      vertex 42.8473 -14.2684 168.5
      vertex 45.5331 -11.2855 172.5
      vertex 45.5331 -11.2855 168.5
    endloop
  endfacet
  facet normal -0.743144 0.669131 0
    outer loop
      vertex 45.5331 -11.2855 172.5
      vertex 42.8473 -14.2684 168.5
      vertex 42.8473 -14.2684 172.5
    endloop
  endfacet
  facet normal -0.951057 0.309017 0
    outer loop
      vertex 47.5401 -7.80934 168.5
      vertex 48.0246 -6.31815 172.5
      vertex 48.0246 -6.31815 168.5
    endloop
  endfacet
  facet normal -0.951057 0.309017 0
    outer loop
      vertex 48.0246 -6.31815 172.5
      vertex 47.5401 -7.80934 168.5
      vertex 47.5401 -7.80934 172.5
    endloop
  endfacet
  facet normal -0.866025 0.5 0
    outer loop
      vertex 45.5331 -11.2855 168.5
      vertex 47.5401 -7.80934 172.5
      vertex 47.5401 -7.80934 168.5
    endloop
  endfacet
  facet normal -0.866025 0.5 0
    outer loop
      vertex 47.5401 -7.80934 172.5
      vertex 45.5331 -11.2855 168.5
      vertex 45.5331 -11.2855 172.5
    endloop
  endfacet
  facet normal 0.866025 0.5 0
    outer loop
      vertex 12.5989 -8.05 172.5
      vertex 14.4669 -11.2855 172.5
      vertex 12.5989 -8.05 168.75
    endloop
  endfacet
  facet normal 0.866025 0.5 0
    outer loop
      vertex 12.5989 -8.05 168.75
      vertex 12.4599 -7.80934 168.5
      vertex 12.4599 -7.80934 168.75
    endloop
  endfacet
  facet normal 0.866025 0.5 1.12184e-007
    outer loop
      vertex 12.5989 -8.05 168.75
      vertex 14.4669 -11.2855 168.5
      vertex 12.4599 -7.80934 168.5
    endloop
  endfacet
  facet normal 0.866025 0.5 -0
    outer loop
      vertex 14.4669 -11.2855 168.5
      vertex 12.5989 -8.05 168.75
      vertex 14.4669 -11.2855 172.5
    endloop
  endfacet
  facet normal 0.951056 0.309017 0
    outer loop
      vertex 12.4599 -7.80934 168.75
      vertex 11.9754 -6.31815 168.5
      vertex 11.9754 -6.31815 168.75
    endloop
  endfacet
  facet normal 0.951056 0.309017 0
    outer loop
      vertex 11.9754 -6.31815 168.5
      vertex 12.4599 -7.80934 168.75
      vertex 12.4599 -7.80934 168.5
    endloop
  endfacet
  facet normal -0.587785 0.809017 0
    outer loop
      vertex 42.8473 -14.2684 168.5
      vertex 39.6 -16.6277 172.5
      vertex 42.8473 -14.2684 172.5
    endloop
  endfacet
  facet normal -0.587785 0.809017 0
    outer loop
      vertex 39.6 -16.6277 172.5
      vertex 42.8473 -14.2684 168.5
      vertex 39.6 -16.6277 168.5
    endloop
  endfacet
  facet normal 0.587785 0.809017 -0
    outer loop
      vertex 20.4 -16.6277 168.5
      vertex 17.1527 -14.2684 172.5
      vertex 20.4 -16.6277 172.5
    endloop
  endfacet
  facet normal 0.587785 0.809017 0
    outer loop
      vertex 17.1527 -14.2684 172.5
      vertex 20.4 -16.6277 168.5
      vertex 17.1527 -14.2684 168.5
    endloop
  endfacet
  facet normal 0.406736 0.913546 -0
    outer loop
      vertex 23.6852 -18.0904 168.5
      vertex 20.4 -16.6277 172.5
      vertex 23.6852 -18.0904 172.5
    endloop
  endfacet
  facet normal 0.406736 0.913546 0
    outer loop
      vertex 20.4 -16.6277 172.5
      vertex 23.6852 -18.0904 168.5
      vertex 20.4 -16.6277 168.5
    endloop
  endfacet
  facet normal 0.743145 0.669131 0
    outer loop
      vertex 17.1527 -14.2684 172.5
      vertex 14.4669 -11.2855 168.5
      vertex 14.4669 -11.2855 172.5
    endloop
  endfacet
  facet normal 0.743145 0.669131 0
    outer loop
      vertex 14.4669 -11.2855 168.5
      vertex 17.1527 -14.2684 172.5
      vertex 17.1527 -14.2684 168.5
    endloop
  endfacet
  facet normal 0 0 1
    outer loop
      vertex 48.8 0 168.5
      vertex 50.5 0 168.5
      vertex 50.2924 1.97516 168.5
    endloop
  endfacet
  facet normal 0 0 1
    outer loop
      vertex 48.3892 3.90874 168.5
      vertex 50.2924 1.97516 168.5
      vertex 49.6787 3.864 168.5
    endloop
  endfacet
  facet normal 0 0 1
    outer loop
      vertex 50.5 0 168.5
      vertex 48.8 0 168.5
      vertex 50.2924 -1.97516 168.5
    endloop
  endfacet
  facet normal 0 0 1
    outer loop
      vertex 48.3892 -3.90874 168.5
      vertex 50.2924 -1.97516 168.5
      vertex 48.8 0 168.5
    endloop
  endfacet
  facet normal -0 0 1
    outer loop
      vertex 48.3892 3.90874 168.5
      vertex 49.6787 3.864 168.5
      vertex 48.6857 5.58396 168.5
    endloop
  endfacet
  facet normal 0 0 1
    outer loop
      vertex 50.2924 1.97516 168.5
      vertex 48.3892 3.90874 168.5
      vertex 48.8 0 168.5
    endloop
  endfacet
  facet normal 0 0 1
    outer loop
      vertex 48.0246 6.31815 168.5
      vertex 48.3892 3.90874 168.5
      vertex 48.6857 5.58396 168.5
    endloop
  endfacet
  facet normal -0 0 1
    outer loop
      vertex 47.1747 7.64665 168.5
      vertex 48.0246 6.31815 168.5
      vertex 47.5401 7.80934 168.5
    endloop
  endfacet
  facet normal 0 0 1
    outer loop
      vertex 48.0246 6.31815 168.5
      vertex 47.1747 7.64665 168.5
      vertex 48.3892 3.90874 168.5
    endloop
  endfacet
  facet normal 0 0 1
    outer loop
      vertex 45.5331 11.2855 168.5
      vertex 47.1747 7.64665 168.5
      vertex 47.5401 7.80934 168.5
    endloop
  endfacet
  facet normal 0 0 1
    outer loop
      vertex 45.5331 11.2855 168.5
      vertex 45.2095 11.0504 168.5
      vertex 47.1747 7.64665 168.5
    endloop
  endfacet
  facet normal 0 0 1
    outer loop
      vertex 42.8473 14.2684 168.5
      vertex 45.2095 11.0504 168.5
      vertex 45.5331 11.2855 168.5
    endloop
  endfacet
  facet normal 0 0 1
    outer loop
      vertex 42.8473 14.2684 168.5
      vertex 42.5797 13.9711 168.5
      vertex 45.2095 11.0504 168.5
    endloop
  endfacet
  facet normal 0 0 1
    outer loop
      vertex 39.6 16.6277 168.5
      vertex 42.5797 13.9711 168.5
      vertex 42.8473 14.2684 168.5
    endloop
  endfacet
  facet normal 0 0 1
    outer loop
      vertex 39.6 16.6277 168.5
      vertex 39.4 16.2813 168.5
      vertex 42.5797 13.9711 168.5
    endloop
  endfacet
  facet normal 0 0 1
    outer loop
      vertex 36.3148 18.0904 168.5
      vertex 39.4 16.2813 168.5
      vertex 39.6 16.6277 168.5
    endloop
  endfacet
  facet normal 0 0 1
    outer loop
      vertex 36.3148 18.0904 168.5
      vertex 35.8095 17.8799 168.5
      vertex 39.4 16.2813 168.5
    endloop
  endfacet
  facet normal 0 0 1
    outer loop
      vertex 34.75 19.2272 168.5
      vertex 35.8095 17.8799 168.5
      vertex 36.3148 18.0904 168.5
    endloop
  endfacet
  facet normal 0 0 1
    outer loop
      vertex 31.9651 18.697 168.5
      vertex 34.75 19.2272 168.5
      vertex 32.9357 20.035 168.5
    endloop
  endfacet
  facet normal 0 0 1
    outer loop
      vertex 34.75 19.2272 168.5
      vertex 31.9651 18.697 168.5
      vertex 35.8095 17.8799 168.5
    endloop
  endfacet
  facet normal 0 0 1
    outer loop
      vertex 30.993 20.448 168.5
      vertex 31.9651 18.697 168.5
      vertex 32.9357 20.035 168.5
    endloop
  endfacet
  facet normal -0 0 1
    outer loop
      vertex 29.007 20.448 168.5
      vertex 31.9651 18.697 168.5
      vertex 30.993 20.448 168.5
    endloop
  endfacet
  facet normal 0 0 1
    outer loop
      vertex 29.007 20.448 168.5
      vertex 28.0349 18.697 168.5
      vertex 31.9651 18.697 168.5
    endloop
  endfacet
  facet normal -0 0 1
    outer loop
      vertex 27.0643 20.035 168.5
      vertex 28.0349 18.697 168.5
      vertex 29.007 20.448 168.5
    endloop
  endfacet
  facet normal -0 0 1
    outer loop
      vertex 25.25 19.2272 168.5
      vertex 28.0349 18.697 168.5
      vertex 27.0643 20.035 168.5
    endloop
  endfacet
  facet normal 0 0 1
    outer loop
      vertex 25.25 19.2272 168.5
      vertex 24.1905 17.8799 168.5
      vertex 28.0349 18.697 168.5
    endloop
  endfacet
  facet normal -0 0 1
    outer loop
      vertex 23.6852 18.0904 168.5
      vertex 24.1905 17.8799 168.5
      vertex 25.25 19.2272 168.5
    endloop
  endfacet
  facet normal 0 0 1
    outer loop
      vertex 23.6852 18.0904 168.5
      vertex 20.6 16.2813 168.5
      vertex 24.1905 17.8799 168.5
    endloop
  endfacet
  facet normal -0 0 1
    outer loop
      vertex 20.4 16.6277 168.5
      vertex 20.6 16.2813 168.5
      vertex 23.6852 18.0904 168.5
    endloop
  endfacet
  facet normal 0 0 1
    outer loop
      vertex 20.4 16.6277 168.5
      vertex 17.4203 13.9711 168.5
      vertex 20.6 16.2813 168.5
    endloop
  endfacet
  facet normal -0 0 1
    outer loop
      vertex 17.1527 14.2684 168.5
      vertex 17.4203 13.9711 168.5
      vertex 20.4 16.6277 168.5
    endloop
  endfacet
  facet normal 0 0 1
    outer loop
      vertex 17.1527 14.2684 168.5
      vertex 14.7905 11.0504 168.5
      vertex 17.4203 13.9711 168.5
    endloop
  endfacet
  facet normal -0 0 1
    outer loop
      vertex 14.4669 11.2855 168.5
      vertex 14.7905 11.0504 168.5
      vertex 17.1527 14.2684 168.5
    endloop
  endfacet
  facet normal 0 0 1
    outer loop
      vertex 14.4669 11.2855 168.5
      vertex 12.8253 7.64665 168.5
      vertex 14.7905 11.0504 168.5
    endloop
  endfacet
  facet normal -0 0 1
    outer loop
      vertex 12.4599 7.80934 168.5
      vertex 12.8253 7.64665 168.5
      vertex 14.4669 11.2855 168.5
    endloop
  endfacet
  facet normal 0 0 1
    outer loop
      vertex 11.9754 6.31815 168.5
      vertex 12.8253 7.64665 168.5
      vertex 12.4599 7.80934 168.5
    endloop
  endfacet
  facet normal -0 0 1
    outer loop
      vertex 11.9754 6.31815 168.5
      vertex 11.6108 3.90874 168.5
      vertex 12.8253 7.64665 168.5
    endloop
  endfacet
  facet normal 0 0 1
    outer loop
      vertex 11.6108 3.90874 168.5
      vertex 11.3271 1.76336 168.5
      vertex 11.3711 1.62782 168.5
    endloop
  endfacet
  facet normal -0 0 1
    outer loop
      vertex 11.3143 5.58396 168.5
      vertex 11.6108 3.90874 168.5
      vertex 11.9754 6.31815 168.5
    endloop
  endfacet
  facet normal 0 0 1
    outer loop
      vertex 10.3213 3.864 168.5
      vertex 11.6108 3.90874 168.5
      vertex 11.3143 5.58396 168.5
    endloop
  endfacet
  facet normal 0 0 1
    outer loop
      vertex 9.96121 2.7557 168.5
      vertex 11.6108 3.90874 168.5
      vertex 10.3213 3.864 168.5
    endloop
  endfacet
  facet normal 0 0 1
    outer loop
      vertex 11.6108 3.90874 168.5
      vertex 9.96121 2.7557 168.5
      vertex 11.3271 1.76336 168.5
    endloop
  endfacet
  facet normal 0 0 1
    outer loop
      vertex 50.2924 -1.97516 168.5
      vertex 48.3892 -3.90874 168.5
      vertex 49.6787 -3.864 168.5
    endloop
  endfacet
  facet normal 0 0 1
    outer loop
      vertex 49.6787 -3.864 168.5
      vertex 48.3892 -3.90874 168.5
      vertex 48.6857 -5.58396 168.5
    endloop
  endfacet
  facet normal 0 0 1
    outer loop
      vertex 48.3892 -3.90874 168.5
      vertex 48.0246 -6.31815 168.5
      vertex 48.6857 -5.58396 168.5
    endloop
  endfacet
  facet normal 0 0 1
    outer loop
      vertex 47.1747 -7.64665 168.5
      vertex 48.0246 -6.31815 168.5
      vertex 48.3892 -3.90874 168.5
    endloop
  endfacet
  facet normal 0 0 1
    outer loop
      vertex 48.0246 -6.31815 168.5
      vertex 47.1747 -7.64665 168.5
      vertex 47.5401 -7.80934 168.5
    endloop
  endfacet
  facet normal 0 0 1
    outer loop
      vertex 47.1747 -7.64665 168.5
      vertex 45.5331 -11.2855 168.5
      vertex 47.5401 -7.80934 168.5
    endloop
  endfacet
  facet normal -0 0 1
    outer loop
      vertex 45.2095 -11.0504 168.5
      vertex 45.5331 -11.2855 168.5
      vertex 47.1747 -7.64665 168.5
    endloop
  endfacet
  facet normal 0 0 1
    outer loop
      vertex 45.2095 -11.0504 168.5
      vertex 42.8473 -14.2684 168.5
      vertex 45.5331 -11.2855 168.5
    endloop
  endfacet
  facet normal -0 0 1
    outer loop
      vertex 42.5797 -13.9711 168.5
      vertex 42.8473 -14.2684 168.5
      vertex 45.2095 -11.0504 168.5
    endloop
  endfacet
  facet normal 0 0 1
    outer loop
      vertex 42.5797 -13.9711 168.5
      vertex 39.6 -16.6277 168.5
      vertex 42.8473 -14.2684 168.5
    endloop
  endfacet
  facet normal -0 0 1
    outer loop
      vertex 39.4 -16.2813 168.5
      vertex 39.6 -16.6277 168.5
      vertex 42.5797 -13.9711 168.5
    endloop
  endfacet
  facet normal 0 0 1
    outer loop
      vertex 39.4 -16.2813 168.5
      vertex 36.3148 -18.0904 168.5
      vertex 39.6 -16.6277 168.5
    endloop
  endfacet
  facet normal -0 0 1
    outer loop
      vertex 35.8095 -17.8799 168.5
      vertex 36.3148 -18.0904 168.5
      vertex 39.4 -16.2813 168.5
    endloop
  endfacet
  facet normal 0 0 1
    outer loop
      vertex 35.8095 -17.8799 168.5
      vertex 34.75 -19.2272 168.5
      vertex 36.3148 -18.0904 168.5
    endloop
  endfacet
  facet normal -0 0 1
    outer loop
      vertex 31.9651 -18.697 168.5
      vertex 34.75 -19.2272 168.5
      vertex 35.8095 -17.8799 168.5
    endloop
  endfacet
  facet normal 0 0 1
    outer loop
      vertex 34.75 -19.2272 168.5
      vertex 31.9651 -18.697 168.5
      vertex 32.9357 -20.035 168.5
    endloop
  endfacet
  facet normal 0 0 1
    outer loop
      vertex 31.9651 -18.697 168.5
      vertex 30.993 -20.448 168.5
      vertex 32.9357 -20.035 168.5
    endloop
  endfacet
  facet normal 0 0 1
    outer loop
      vertex 31.9651 -18.697 168.5
      vertex 29.007 -20.448 168.5
      vertex 30.993 -20.448 168.5
    endloop
  endfacet
  facet normal -0 0 1
    outer loop
      vertex 28.0349 -18.697 168.5
      vertex 29.007 -20.448 168.5
      vertex 31.9651 -18.697 168.5
    endloop
  endfacet
  facet normal 0 0 1
    outer loop
      vertex 28.0349 -18.697 168.5
      vertex 27.0643 -20.035 168.5
      vertex 29.007 -20.448 168.5
    endloop
  endfacet
  facet normal 0 0 1
    outer loop
      vertex 28.0349 -18.697 168.5
      vertex 25.25 -19.2272 168.5
      vertex 27.0643 -20.035 168.5
    endloop
  endfacet
  facet normal 0 0 1
    outer loop
      vertex 24.1905 -17.8799 168.5
      vertex 25.25 -19.2272 168.5
      vertex 28.0349 -18.697 168.5
    endloop
  endfacet
  facet normal 0 0 1
    outer loop
      vertex 24.1905 -17.8799 168.5
      vertex 23.6852 -18.0904 168.5
      vertex 25.25 -19.2272 168.5
    endloop
  endfacet
  facet normal 0 0 1
    outer loop
      vertex 20.6 -16.2813 168.5
      vertex 23.6852 -18.0904 168.5
      vertex 24.1905 -17.8799 168.5
    endloop
  endfacet
  facet normal 0 0 1
    outer loop
      vertex 20.6 -16.2813 168.5
      vertex 20.4 -16.6277 168.5
      vertex 23.6852 -18.0904 168.5
    endloop
  endfacet
  facet normal 0 0 1
    outer loop
      vertex 17.4203 -13.9711 168.5
      vertex 20.4 -16.6277 168.5
      vertex 20.6 -16.2813 168.5
    endloop
  endfacet
  facet normal 0 0 1
    outer loop
      vertex 17.4203 -13.9711 168.5
      vertex 17.1527 -14.2684 168.5
      vertex 20.4 -16.6277 168.5
    endloop
  endfacet
  facet normal 0 0 1
    outer loop
      vertex 14.7905 -11.0504 168.5
      vertex 17.1527 -14.2684 168.5
      vertex 17.4203 -13.9711 168.5
    endloop
  endfacet
  facet normal 0 0 1
    outer loop
      vertex 14.7905 -11.0504 168.5
      vertex 14.4669 -11.2855 168.5
      vertex 17.1527 -14.2684 168.5
    endloop
  endfacet
  facet normal 0 0 1
    outer loop
      vertex 12.8253 -7.64665 168.5
      vertex 14.4669 -11.2855 168.5
      vertex 14.7905 -11.0504 168.5
    endloop
  endfacet
  facet normal 0 0 1
    outer loop
      vertex 12.8253 -7.64665 168.5
      vertex 12.4599 -7.80934 168.5
      vertex 14.4669 -11.2855 168.5
    endloop
  endfacet
  facet normal 0 0 1
    outer loop
      vertex 12.8253 -7.64665 168.5
      vertex 11.9754 -6.31815 168.5
      vertex 12.4599 -7.80934 168.5
    endloop
  endfacet
  facet normal 0 0 1
    outer loop
      vertex 11.6108 -3.90874 168.5
      vertex 11.9754 -6.31815 168.5
      vertex 12.8253 -7.64665 168.5
    endloop
  endfacet
  facet normal -0 0 1
    outer loop
      vertex 11.3271 -1.76336 168.5
      vertex 11.6108 -3.90874 168.5
      vertex 11.3711 -1.62782 168.5
    endloop
  endfacet
  facet normal 0 0 1
    outer loop
      vertex 11.6108 -3.90874 168.5
      vertex 11.3143 -5.58396 168.5
      vertex 11.9754 -6.31815 168.5
    endloop
  endfacet
  facet normal -0 0 1
    outer loop
      vertex 9.96121 -2.7557 168.5
      vertex 11.6108 -3.90874 168.5
      vertex 11.3271 -1.76336 168.5
    endloop
  endfacet
  facet normal 0 0 1
    outer loop
      vertex 11.6108 -3.90874 168.5
      vertex 10.3213 -3.864 168.5
      vertex 11.3143 -5.58396 168.5
    endloop
  endfacet
  facet normal 0 0 1
    outer loop
      vertex 11.6108 -3.90874 168.5
      vertex 9.96121 -2.7557 168.5
      vertex 10.3213 -3.864 168.5
    endloop
  endfacet
  facet normal -0.406737 0.913545 0
    outer loop
      vertex 39.6 -16.6277 168.5
      vertex 36.3148 -18.0904 172.5
      vertex 39.6 -16.6277 172.5
    endloop
  endfacet
  facet normal -0.406737 0.913545 0
    outer loop
      vertex 36.3148 -18.0904 172.5
      vertex 39.6 -16.6277 168.5
      vertex 36.3148 -18.0904 168.5
    endloop
  endfacet
  facet normal 0 -1 0
    outer loop
      vertex 29.007 20.448 168.5
      vertex 30.993 20.448 172.5
      vertex 29.007 20.448 172.5
    endloop
  endfacet
  facet normal 0 -1 -0
    outer loop
      vertex 30.993 20.448 172.5
      vertex 29.007 20.448 168.5
      vertex 30.993 20.448 168.5
    endloop
  endfacet
  facet normal -0.587786 -0.809017 0
    outer loop
      vertex 34.75 19.2272 168.5
      vertex 36.3148 18.0904 172.5
      vertex 34.75 19.2272 172.5
    endloop
  endfacet
  facet normal -0.587786 -0.809017 -0
    outer loop
      vertex 36.3148 18.0904 172.5
      vertex 34.75 19.2272 168.5
      vertex 36.3148 18.0904 168.5
    endloop
  endfacet
  facet normal 0.406736 -0.913546 0
    outer loop
      vertex 25.25 19.2272 168.5
      vertex 27.0643 20.035 172.5
      vertex 25.25 19.2272 172.5
    endloop
  endfacet
  facet normal 0.406736 -0.913546 0
    outer loop
      vertex 27.0643 20.035 172.5
      vertex 25.25 19.2272 168.5
      vertex 27.0643 20.035 168.5
    endloop
  endfacet
  facet normal -0.207912 -0.978148 0
    outer loop
      vertex 30.993 20.448 168.5
      vertex 32.9357 20.035 172.5
      vertex 30.993 20.448 172.5
    endloop
  endfacet
  facet normal -0.207912 -0.978148 -0
    outer loop
      vertex 32.9357 20.035 172.5
      vertex 30.993 20.448 168.5
      vertex 32.9357 20.035 168.5
    endloop
  endfacet
  facet normal -0.406736 -0.913546 0
    outer loop
      vertex 32.9357 20.035 168.5
      vertex 34.75 19.2272 172.5
      vertex 32.9357 20.035 172.5
    endloop
  endfacet
  facet normal -0.406736 -0.913546 -0
    outer loop
      vertex 34.75 19.2272 172.5
      vertex 32.9357 20.035 168.5
      vertex 34.75 19.2272 168.5
    endloop
  endfacet
  facet normal 0.587786 -0.809017 0
    outer loop
      vertex 23.6852 18.0904 168.5
      vertex 25.25 19.2272 172.5
      vertex 23.6852 18.0904 172.5
    endloop
  endfacet
  facet normal 0.587786 -0.809017 0
    outer loop
      vertex 25.25 19.2272 172.5
      vertex 23.6852 18.0904 168.5
      vertex 25.25 19.2272 168.5
    endloop
  endfacet
  facet normal 0.207912 -0.978148 0
    outer loop
      vertex 27.0643 20.035 168.5
      vertex 29.007 20.448 172.5
      vertex 27.0643 20.035 172.5
    endloop
  endfacet
  facet normal 0.207912 -0.978148 0
    outer loop
      vertex 29.007 20.448 172.5
      vertex 27.0643 20.035 168.5
      vertex 29.007 20.448 168.5
    endloop
  endfacet
  facet normal -0.207912 0.978148 0
    outer loop
      vertex 32.9357 -20.035 168.5
      vertex 30.993 -20.448 172.5
      vertex 32.9357 -20.035 172.5
    endloop
  endfacet
  facet normal -0.207912 0.978148 0
    outer loop
      vertex 30.993 -20.448 172.5
      vertex 32.9357 -20.035 168.5
      vertex 30.993 -20.448 168.5
    endloop
  endfacet
  facet normal -0.587786 0.809017 0
    outer loop
      vertex 36.3148 -18.0904 168.5
      vertex 34.75 -19.2272 172.5
      vertex 36.3148 -18.0904 172.5
    endloop
  endfacet
  facet normal -0.587786 0.809017 0
    outer loop
      vertex 34.75 -19.2272 172.5
      vertex 36.3148 -18.0904 168.5
      vertex 34.75 -19.2272 168.5
    endloop
  endfacet
  facet normal 0.406736 0.913546 -0
    outer loop
      vertex 27.0643 -20.035 168.5
      vertex 25.25 -19.2272 172.5
      vertex 27.0643 -20.035 172.5
    endloop
  endfacet
  facet normal 0.406736 0.913546 0
    outer loop
      vertex 25.25 -19.2272 172.5
      vertex 27.0643 -20.035 168.5
      vertex 25.25 -19.2272 168.5
    endloop
  endfacet
  facet normal 0 1 -0
    outer loop
      vertex 30.993 -20.448 168.5
      vertex 29.007 -20.448 172.5
      vertex 30.993 -20.448 172.5
    endloop
  endfacet
  facet normal 0 1 0
    outer loop
      vertex 29.007 -20.448 172.5
      vertex 30.993 -20.448 168.5
      vertex 29.007 -20.448 168.5
    endloop
  endfacet
  facet normal -0.406736 0.913546 0
    outer loop
      vertex 34.75 -19.2272 168.5
      vertex 32.9357 -20.035 172.5
      vertex 34.75 -19.2272 172.5
    endloop
  endfacet
  facet normal -0.406736 0.913546 0
    outer loop
      vertex 32.9357 -20.035 172.5
      vertex 34.75 -19.2272 168.5
      vertex 32.9357 -20.035 168.5
    endloop
  endfacet
  facet normal 0.207912 0.978148 -0
    outer loop
      vertex 29.007 -20.448 168.5
      vertex 27.0643 -20.035 172.5
      vertex 29.007 -20.448 172.5
    endloop
  endfacet
  facet normal 0.207912 0.978148 0
    outer loop
      vertex 27.0643 -20.035 172.5
      vertex 29.007 -20.448 168.5
      vertex 27.0643 -20.035 168.5
    endloop
  endfacet
  facet normal 0.587786 0.809017 -0
    outer loop
      vertex 25.25 -19.2272 168.5
      vertex 23.6852 -18.0904 172.5
      vertex 25.25 -19.2272 172.5
    endloop
  endfacet
  facet normal 0.587786 0.809017 0
    outer loop
      vertex 23.6852 -18.0904 172.5
      vertex 25.25 -19.2272 168.5
      vertex 23.6852 -18.0904 168.5
    endloop
  endfacet
  facet normal 0.743145 -0.669131 0
    outer loop
      vertex 11.3143 5.58396 168.75
      vertex 11.9754 6.31815 168.5
      vertex 11.9754 6.31815 168.75
    endloop
  endfacet
  facet normal 0.743145 -0.669131 0
    outer loop
      vertex 11.9754 6.31815 168.5
      vertex 11.3143 5.58396 168.75
      vertex 11.3143 5.58396 168.5
    endloop
  endfacet
  facet normal 0.951057 -0.309017 0
    outer loop
      vertex 9.96121 2.7557 168.75
      vertex 10.3213 3.864 168.5
      vertex 10.3213 3.864 168.75
    endloop
  endfacet
  facet normal 0.951057 -0.309017 0
    outer loop
      vertex 10.3213 3.864 168.5
      vertex 9.96121 2.7557 168.75
      vertex 9.96121 2.7557 168.5
    endloop
  endfacet
  facet normal 0.866026 -0.5 0
    outer loop
      vertex 10.3213 3.864 168.75
      vertex 11.3143 5.58396 168.5
      vertex 11.3143 5.58396 168.75
    endloop
  endfacet
  facet normal 0.866026 -0.5 0
    outer loop
      vertex 11.3143 5.58396 168.5
      vertex 10.3213 3.864 168.75
      vertex 10.3213 3.864 168.5
    endloop
  endfacet
  facet normal 0.743145 0.669131 0
    outer loop
      vertex 11.9754 -6.31815 168.75
      vertex 11.3143 -5.58396 168.5
      vertex 11.3143 -5.58396 168.75
    endloop
  endfacet
  facet normal 0.743145 0.669131 0
    outer loop
      vertex 11.3143 -5.58396 168.5
      vertex 11.9754 -6.31815 168.75
      vertex 11.9754 -6.31815 168.5
    endloop
  endfacet
  facet normal 0.951057 0.309017 0
    outer loop
      vertex 10.3213 -3.864 168.75
      vertex 9.96121 -2.7557 168.5
      vertex 9.96121 -2.7557 168.75
    endloop
  endfacet
  facet normal 0.951057 0.309017 0
    outer loop
      vertex 9.96121 -2.7557 168.5
      vertex 10.3213 -3.864 168.75
      vertex 10.3213 -3.864 168.5
    endloop
  endfacet
  facet normal 0.866026 0.5 0
    outer loop
      vertex 11.3143 -5.58396 168.75
      vertex 10.3213 -3.864 168.5
      vertex 10.3213 -3.864 168.75
    endloop
  endfacet
  facet normal 0.866026 0.5 0
    outer loop
      vertex 10.3213 -3.864 168.5
      vertex 11.3143 -5.58396 168.75
      vertex 11.3143 -5.58396 168.5
    endloop
  endfacet
  facet normal -0.994522 -0.104529 0
    outer loop
      vertex 50.5 0 168.5
      vertex 50.2924 1.97516 172.5
      vertex 50.2924 1.97516 168.5
    endloop
  endfacet
  facet normal -0.994522 -0.104529 0
    outer loop
      vertex 50.2924 1.97516 172.5
      vertex 50.5 0 168.5
      vertex 50.5 0 172.5
    endloop
  endfacet
  facet normal -0.743145 0.669131 0
    outer loop
      vertex 48.0246 -6.31815 168.5
      vertex 48.6857 -5.58396 172.5
      vertex 48.6857 -5.58396 168.5
    endloop
  endfacet
  facet normal -0.743145 0.669131 0
    outer loop
      vertex 48.6857 -5.58396 172.5
      vertex 48.0246 -6.31815 168.5
      vertex 48.0246 -6.31815 172.5
    endloop
  endfacet
  facet normal -0.866026 -0.499999 0
    outer loop
      vertex 49.6787 3.864 168.5
      vertex 48.6857 5.58396 172.5
      vertex 48.6857 5.58396 168.5
    endloop
  endfacet
  facet normal -0.866026 -0.499999 0
    outer loop
      vertex 48.6857 5.58396 172.5
      vertex 49.6787 3.864 168.5
      vertex 49.6787 3.864 172.5
    endloop
  endfacet
  facet normal -0.951057 -0.309017 0
    outer loop
      vertex 50.2924 1.97516 168.5
      vertex 49.6787 3.864 172.5
      vertex 49.6787 3.864 168.5
    endloop
  endfacet
  facet normal -0.951057 -0.309017 0
    outer loop
      vertex 49.6787 3.864 172.5
      vertex 50.2924 1.97516 168.5
      vertex 50.2924 1.97516 172.5
    endloop
  endfacet
  facet normal -0.743145 -0.669131 0
    outer loop
      vertex 48.6857 5.58396 168.5
      vertex 48.0246 6.31815 172.5
      vertex 48.0246 6.31815 168.5
    endloop
  endfacet
  facet normal -0.743145 -0.669131 0
    outer loop
      vertex 48.0246 6.31815 172.5
      vertex 48.6857 5.58396 168.5
      vertex 48.6857 5.58396 172.5
    endloop
  endfacet
  facet normal -0.994522 0.104529 0
    outer loop
      vertex 50.2924 -1.97516 168.5
      vertex 50.5 0 172.5
      vertex 50.5 0 168.5
    endloop
  endfacet
  facet normal -0.994522 0.104529 0
    outer loop
      vertex 50.5 0 172.5
      vertex 50.2924 -1.97516 168.5
      vertex 50.2924 -1.97516 172.5
    endloop
  endfacet
  facet normal -0.951057 0.309017 0
    outer loop
      vertex 49.6787 -3.864 168.5
      vertex 50.2924 -1.97516 172.5
      vertex 50.2924 -1.97516 168.5
    endloop
  endfacet
  facet normal -0.951057 0.309017 0
    outer loop
      vertex 50.2924 -1.97516 172.5
      vertex 49.6787 -3.864 168.5
      vertex 49.6787 -3.864 172.5
    endloop
  endfacet
  facet normal -0.866026 0.499999 0
    outer loop
      vertex 48.6857 -5.58396 168.5
      vertex 49.6787 -3.864 172.5
      vertex 49.6787 -3.864 168.5
    endloop
  endfacet
  facet normal -0.866026 0.499999 0
    outer loop
      vertex 49.6787 -3.864 172.5
      vertex 48.6857 -5.58396 168.5
      vertex 48.6857 -5.58396 172.5
    endloop
  endfacet
  facet normal 1 0 0
    outer loop
      vertex 5.9 8.05 172.5
      vertex 5.9 0 168.75
      vertex 5.9 8.05 168.75
    endloop
  endfacet
  facet normal 1 -0 0
    outer loop
      vertex 5.9 -8.05 172.5
      vertex 5.9 0 168.75
      vertex 5.9 8.05 172.5
    endloop
  endfacet
  facet normal 1 0 0
    outer loop
      vertex 5.9 0 168.75
      vertex 5.9 -8.05 172.5
      vertex 5.9 -8.05 168.75
    endloop
  endfacet
  facet normal 0 0 1
    outer loop
      vertex 12.4599 7.80934 168.75
      vertex 11.3143 5.58396 168.75
      vertex 11.9754 6.31815 168.75
    endloop
  endfacet
  facet normal 0 0 1
    outer loop
      vertex 5.9 8.05 168.75
      vertex 11.3143 5.58396 168.75
      vertex 12.4599 7.80934 168.75
    endloop
  endfacet
  facet normal 0 0 1
    outer loop
      vertex 10.3213 3.864 168.75
      vertex 9.82705 2.85317 168.75
      vertex 9.96121 2.7557 168.75
    endloop
  endfacet
  facet normal 0 0 1
    outer loop
      vertex 10.3213 3.864 168.75
      vertex 7.97295 2.85317 168.75
      vertex 9.82705 2.85317 168.75
    endloop
  endfacet
  facet normal 0 0 1
    outer loop
      vertex 11.3143 5.58396 168.75
      vertex 5.9 8.05 168.75
      vertex 10.3213 3.864 168.75
    endloop
  endfacet
  facet normal -0 0 1
    outer loop
      vertex 5.9 8.05 168.75
      vertex 12.4599 7.80934 168.75
      vertex 12.5989 8.05 168.75
    endloop
  endfacet
  facet normal 0 0 1
    outer loop
      vertex 10.3213 3.864 168.75
      vertex 5.9 8.05 168.75
      vertex 7.97295 2.85317 168.75
    endloop
  endfacet
  facet normal 0 0 1
    outer loop
      vertex 7.97295 2.85317 168.75
      vertex 5.9 8.05 168.75
      vertex 6.47295 1.76336 168.75
    endloop
  endfacet
  facet normal 0 0 1
    outer loop
      vertex 6.47295 1.76336 168.75
      vertex 5.9 8.05 168.75
      vertex 5.9 0 168.75
    endloop
  endfacet
  facet normal 0 0 1
    outer loop
      vertex 11.3143 -5.58396 168.75
      vertex 12.4599 -7.80934 168.75
      vertex 11.9754 -6.31815 168.75
    endloop
  endfacet
  facet normal 0 0 1
    outer loop
      vertex 5.9 -8.05 168.75
      vertex 11.3143 -5.58396 168.75
      vertex 10.3213 -3.864 168.75
    endloop
  endfacet
  facet normal -0 0 1
    outer loop
      vertex 9.82705 -2.85317 168.75
      vertex 10.3213 -3.864 168.75
      vertex 9.96121 -2.7557 168.75
    endloop
  endfacet
  facet normal -0 0 1
    outer loop
      vertex 7.97295 -2.85317 168.75
      vertex 10.3213 -3.864 168.75
      vertex 9.82705 -2.85317 168.75
    endloop
  endfacet
  facet normal 0 0 1
    outer loop
      vertex 5.9 -8.05 168.75
      vertex 10.3213 -3.864 168.75
      vertex 7.97295 -2.85317 168.75
    endloop
  endfacet
  facet normal 0 0 1
    outer loop
      vertex 11.3143 -5.58396 168.75
      vertex 5.9 -8.05 168.75
      vertex 12.4599 -7.80934 168.75
    endloop
  endfacet
  facet normal 0 0 1
    outer loop
      vertex 5.9 -8.05 168.75
      vertex 7.97295 -2.85317 168.75
      vertex 6.47295 -1.76336 168.75
    endloop
  endfacet
  facet normal 0 0 1
    outer loop
      vertex 12.4599 -7.80934 168.75
      vertex 5.9 -8.05 168.75
      vertex 12.5989 -8.05 168.75
    endloop
  endfacet
  facet normal 0 0 1
    outer loop
      vertex 5.9 -8.05 168.75
      vertex 6.47295 -1.76336 168.75
      vertex 5.9 0 168.75
    endloop
  endfacet
  facet normal 0 1 -0
    outer loop
      vertex 12.5989 -8.05 168.75
      vertex 5.9 -8.05 172.5
      vertex 12.5989 -8.05 172.5
    endloop
  endfacet
  facet normal 0 1 0
    outer loop
      vertex 5.9 -8.05 172.5
      vertex 12.5989 -8.05 168.75
      vertex 5.9 -8.05 168.75
    endloop
  endfacet
  facet normal 0 -1 0
    outer loop
      vertex 5.9 8.05 168.75
      vertex 12.5989 8.05 172.5
      vertex 5.9 8.05 172.5
    endloop
  endfacet
  facet normal 0 -1 -0
    outer loop
      vertex 12.5989 8.05 172.5
      vertex 5.9 8.05 168.75
      vertex 12.5989 8.05 168.75
    endloop
  endfacet
  facet normal -0.951056 -0.309017 0
    outer loop
      vertex 11.3711 1.62782 167.5
      vertex 11.3271 1.76336 168.5
      vertex 11.3271 1.76336 167.5
    endloop
  endfacet
  facet normal -0.951056 -0.309017 0
    outer loop
      vertex 11.3271 1.76336 168.5
      vertex 11.3711 1.62782 167.5
      vertex 11.3711 1.62782 168.5
    endloop
  endfacet
  facet normal 0.951057 0.309017 0
    outer loop
      vertex 6.47295 -1.76336 168.75
      vertex 5.9 0 167.5
      vertex 5.9 0 168.75
    endloop
  endfacet
  facet normal 0.951057 0.309017 0
    outer loop
      vertex 5.9 0 167.5
      vertex 6.47295 -1.76336 168.75
      vertex 6.47295 -1.76336 167.5
    endloop
  endfacet
  facet normal 0 -1 0
    outer loop
      vertex 7.97295 2.85317 167.5
      vertex 9.82705 2.85317 168.75
      vertex 7.97295 2.85317 168.75
    endloop
  endfacet
  facet normal 0 -1 -0
    outer loop
      vertex 9.82705 2.85317 168.75
      vertex 7.97295 2.85317 167.5
      vertex 9.82705 2.85317 167.5
    endloop
  endfacet
  facet normal -0.587785 -0.809017 0
    outer loop
      vertex 9.82705 2.85317 168.75
      vertex 9.96121 2.7557 168.5
      vertex 9.96121 2.7557 168.75
    endloop
  endfacet
  facet normal -0.587785 -0.809017 0
    outer loop
      vertex 9.82705 2.85317 167.5
      vertex 9.96121 2.7557 168.5
      vertex 9.82705 2.85317 168.75
    endloop
  endfacet
  facet normal -0.587785 -0.809017 1.031e-007
    outer loop
      vertex 11.3271 1.76336 167.5
      vertex 9.96121 2.7557 168.5
      vertex 9.82705 2.85317 167.5
    endloop
  endfacet
  facet normal -0.587785 -0.809017 0
    outer loop
      vertex 9.96121 2.7557 168.5
      vertex 11.3271 1.76336 167.5
      vertex 11.3271 1.76336 168.5
    endloop
  endfacet
  facet normal 0.587785 -0.809017 0
    outer loop
      vertex 6.47295 1.76336 167.5
      vertex 7.97295 2.85317 168.75
      vertex 6.47295 1.76336 168.75
    endloop
  endfacet
  facet normal 0.587785 -0.809017 0
    outer loop
      vertex 7.97295 2.85317 168.75
      vertex 6.47295 1.76336 167.5
      vertex 7.97295 2.85317 167.5
    endloop
  endfacet
  facet normal -0.587785 0.809017 0
    outer loop
      vertex 11.3271 -1.76336 168.5
      vertex 11.3271 -1.76336 167.5
      vertex 9.96121 -2.7557 168.5
    endloop
  endfacet
  facet normal -0.587785 0.809017 0
    outer loop
      vertex 9.96121 -2.7557 168.5
      vertex 9.82705 -2.85317 168.75
      vertex 9.96121 -2.7557 168.75
    endloop
  endfacet
  facet normal -0.587785 0.809017 0
    outer loop
      vertex 9.96121 -2.7557 168.5
      vertex 9.82705 -2.85317 167.5
      vertex 9.82705 -2.85317 168.75
    endloop
  endfacet
  facet normal -0.587785 0.809017 1.031e-007
    outer loop
      vertex 9.82705 -2.85317 167.5
      vertex 9.96121 -2.7557 168.5
      vertex 11.3271 -1.76336 167.5
    endloop
  endfacet
  facet normal 0.587785 0.809017 -0
    outer loop
      vertex 7.97295 -2.85317 167.5
      vertex 6.47295 -1.76336 168.75
      vertex 7.97295 -2.85317 168.75
    endloop
  endfacet
  facet normal 0.587785 0.809017 0
    outer loop
      vertex 6.47295 -1.76336 168.75
      vertex 7.97295 -2.85317 167.5
      vertex 6.47295 -1.76336 167.5
    endloop
  endfacet
  facet normal 0.951057 -0.309017 0
    outer loop
      vertex 5.9 0 168.75
      vertex 6.47295 1.76336 167.5
      vertex 6.47295 1.76336 168.75
    endloop
  endfacet
  facet normal 0.951057 -0.309017 0
    outer loop
      vertex 6.47295 1.76336 167.5
      vertex 5.9 0 168.75
      vertex 5.9 0 167.5
    endloop
  endfacet
  facet normal -0.951056 0.309017 0
    outer loop
      vertex 11.3271 -1.76336 167.5
      vertex 11.3711 -1.62782 168.5
      vertex 11.3711 -1.62782 167.5
    endloop
  endfacet
  facet normal -0.951056 0.309017 0
    outer loop
      vertex 11.3711 -1.62782 168.5
      vertex 11.3271 -1.76336 167.5
      vertex 11.3271 -1.76336 168.5
    endloop
  endfacet
  facet normal 0 1 -0
    outer loop
      vertex 9.82705 -2.85317 167.5
      vertex 7.97295 -2.85317 168.75
      vertex 9.82705 -2.85317 168.75
    endloop
  endfacet
  facet normal 0 1 0
    outer loop
      vertex 7.97295 -2.85317 168.75
      vertex 9.82705 -2.85317 167.5
      vertex 7.97295 -2.85317 167.5
    endloop
  endfacet
  facet normal 1 0 0
    outer loop
      vertex -7.7 5.2 172.5
      vertex -7.7 1.42658 169.536
      vertex -7.7 5.2 167.5
    endloop
  endfacet
  facet normal 1 0 0
    outer loop
      vertex -7.7 5.2 172.5
      vertex -7.7 0.881678 171.214
      vertex -7.7 1.42658 169.536
    endloop
  endfacet
  facet normal 1 0 0
    outer loop
      vertex -7.7 5.2 172.5
      vertex -7.7 -0.881678 171.214
      vertex -7.7 0.881678 171.214
    endloop
  endfacet
  facet normal 1 0 0
    outer loop
      vertex -7.7 -0.881678 171.214
      vertex -7.7 -5.2 172.5
      vertex -7.7 -1.42658 169.536
    endloop
  endfacet
  facet normal 1 -0 0
    outer loop
      vertex -7.7 -5.2 172.5
      vertex -7.7 -0.881678 171.214
      vertex -7.7 5.2 172.5
    endloop
  endfacet
  facet normal 1 -0 0
    outer loop
      vertex -7.7 0 168.5
      vertex -7.7 5.2 167.5
      vertex -7.7 1.42658 169.536
    endloop
  endfacet
  facet normal 1 0 0
    outer loop
      vertex -7.7 0 168.5
      vertex -7.7 -5.2 167.5
      vertex -7.7 5.2 167.5
    endloop
  endfacet
  facet normal 1 0 0
    outer loop
      vertex -7.7 -1.42658 169.536
      vertex -7.7 -5.2 167.5
      vertex -7.7 0 168.5
    endloop
  endfacet
  facet normal 1 0 0
    outer loop
      vertex -7.7 -5.2 167.5
      vertex -7.7 -1.42658 169.536
      vertex -7.7 -5.2 172.5
    endloop
  endfacet
  facet normal -1 0 0
    outer loop
      vertex -2.3 5.2 167.5
      vertex -2.3 1.42658 169.536
      vertex -2.3 5.2 172.5
    endloop
  endfacet
  facet normal -1 0 0
    outer loop
      vertex -2.3 5.2 167.5
      vertex -2.3 0 168.5
      vertex -2.3 1.42658 169.536
    endloop
  endfacet
  facet normal -1 -0 0
    outer loop
      vertex -2.3 0 168.5
      vertex -2.3 -5.2 167.5
      vertex -2.3 -1.42658 169.536
    endloop
  endfacet
  facet normal -1 0 0
    outer loop
      vertex -2.3 -5.2 167.5
      vertex -2.3 0 168.5
      vertex -2.3 5.2 167.5
    endloop
  endfacet
  facet normal -1 0 0
    outer loop
      vertex -2.3 0.881678 171.214
      vertex -2.3 5.2 172.5
      vertex -2.3 1.42658 169.536
    endloop
  endfacet
  facet normal -1 0 0
    outer loop
      vertex -2.3 -0.881678 171.214
      vertex -2.3 5.2 172.5
      vertex -2.3 0.881678 171.214
    endloop
  endfacet
  facet normal -1 0 0
    outer loop
      vertex -2.3 -5.2 172.5
      vertex -2.3 -1.42658 169.536
      vertex -2.3 -5.2 167.5
    endloop
  endfacet
  facet normal -1 0 0
    outer loop
      vertex -2.3 -0.881678 171.214
      vertex -2.3 -5.2 172.5
      vertex -2.3 5.2 172.5
    endloop
  endfacet
  facet normal -1 0 0
    outer loop
      vertex -2.3 -1.42658 169.536
      vertex -2.3 -5.2 172.5
      vertex -2.3 -0.881678 171.214
    endloop
  endfacet
  facet normal 0 1 -0
    outer loop
      vertex -2.3 -5.2 167.5
      vertex -7.7 -5.2 172.5
      vertex -2.3 -5.2 172.5
    endloop
  endfacet
  facet normal 0 1 0
    outer loop
      vertex -7.7 -5.2 172.5
      vertex -2.3 -5.2 167.5
      vertex -7.7 -5.2 167.5
    endloop
  endfacet
  facet normal 0 -1 0
    outer loop
      vertex -7.7 5.2 167.5
      vertex -2.3 5.2 172.5
      vertex -7.7 5.2 172.5
    endloop
  endfacet
  facet normal 0 -1 -0
    outer loop
      vertex -2.3 5.2 172.5
      vertex -7.7 5.2 167.5
      vertex -2.3 5.2 167.5
    endloop
  endfacet
  facet normal 0 -0.587783 0.809019
    outer loop
      vertex -2.3 1.42658 169.536
      vertex 0.9 0 168.5
      vertex 0.9 1.42658 169.536
    endloop
  endfacet
  facet normal 0 -0.587783 0.809019
    outer loop
      vertex 0.9 0 168.5
      vertex -2.3 1.42658 169.536
      vertex -2.3 0 168.5
    endloop
  endfacet
  facet normal 0 -0.587783 0.809019
    outer loop
      vertex -12.5 1.42658 169.536
      vertex -7.7 0 168.5
      vertex -7.7 1.42658 169.536
    endloop
  endfacet
  facet normal 0 -0.587783 0.809019
    outer loop
      vertex -7.7 0 168.5
      vertex -12.5 1.42658 169.536
      vertex -12.5 0 168.5
    endloop
  endfacet
  facet normal 0 0 -1
    outer loop
      vertex -2.3 -0.881678 171.214
      vertex 0.9 0.881678 171.214
      vertex 0.9 -0.881678 171.214
    endloop
  endfacet
  facet normal -0 0 -1
    outer loop
      vertex 0.9 0.881678 171.214
      vertex -2.3 -0.881678 171.214
      vertex -2.3 0.881678 171.214
    endloop
  endfacet
  facet normal 0 0 -1
    outer loop
      vertex -12.5 -0.881678 171.214
      vertex -7.7 0.881678 171.214
      vertex -7.7 -0.881678 171.214
    endloop
  endfacet
  facet normal -0 0 -1
    outer loop
      vertex -7.7 0.881678 171.214
      vertex -12.5 -0.881678 171.214
      vertex -12.5 0.881678 171.214
    endloop
  endfacet
  facet normal 0 -0.951057 -0.309015
    outer loop
      vertex -2.3 1.42658 169.536
      vertex 0.9 0.881678 171.214
      vertex -2.3 0.881678 171.214
    endloop
  endfacet
  facet normal 0 -0.951057 -0.309015
    outer loop
      vertex 0.9 0.881678 171.214
      vertex -2.3 1.42658 169.536
      vertex 0.9 1.42658 169.536
    endloop
  endfacet
  facet normal 0 -0.951057 -0.309015
    outer loop
      vertex -12.5 1.42658 169.536
      vertex -7.7 0.881678 171.214
      vertex -12.5 0.881678 171.214
    endloop
  endfacet
  facet normal 0 -0.951057 -0.309015
    outer loop
      vertex -7.7 0.881678 171.214
      vertex -12.5 1.42658 169.536
      vertex -7.7 1.42658 169.536
    endloop
  endfacet
  facet normal -1 0 0
    outer loop
      vertex 0.9 0 168.5
      vertex 0.9 0.881678 171.214
      vertex 0.9 1.42658 169.536
    endloop
  endfacet
  facet normal -1 0 0
    outer loop
      vertex 0.9 0 168.5
      vertex 0.9 -0.881678 171.214
      vertex 0.9 0.881678 171.214
    endloop
  endfacet
  facet normal -1 0 -0
    outer loop
      vertex 0.9 -0.881678 171.214
      vertex 0.9 0 168.5
      vertex 0.9 -1.42658 169.536
    endloop
  endfacet
  facet normal 0 0.951057 -0.309015
    outer loop
      vertex 0.9 -1.42658 169.536
      vertex -2.3 -0.881678 171.214
      vertex 0.9 -0.881678 171.214
    endloop
  endfacet
  facet normal 0 0.951057 -0.309015
    outer loop
      vertex -2.3 -0.881678 171.214
      vertex 0.9 -1.42658 169.536
      vertex -2.3 -1.42658 169.536
    endloop
  endfacet
  facet normal 0 0.951057 -0.309015
    outer loop
      vertex -7.7 -1.42658 169.536
      vertex -12.5 -0.881678 171.214
      vertex -7.7 -0.881678 171.214
    endloop
  endfacet
  facet normal 0 0.951057 -0.309015
    outer loop
      vertex -12.5 -0.881678 171.214
      vertex -7.7 -1.42658 169.536
      vertex -12.5 -1.42658 169.536
    endloop
  endfacet
  facet normal -0 0.587783 0.809019
    outer loop
      vertex -2.3 0 168.5
      vertex 0.9 -1.42658 169.536
      vertex 0.9 0 168.5
    endloop
  endfacet
  facet normal 0 0.587783 0.809019
    outer loop
      vertex 0.9 -1.42658 169.536
      vertex -2.3 0 168.5
      vertex -2.3 -1.42658 169.536
    endloop
  endfacet
  facet normal -0 0.587783 0.809019
    outer loop
      vertex -12.5 0 168.5
      vertex -7.7 -1.42658 169.536
      vertex -7.7 0 168.5
    endloop
  endfacet
  facet normal 0 0.587783 0.809019
    outer loop
      vertex -7.7 -1.42658 169.536
      vertex -12.5 0 168.5
      vertex -12.5 -1.42658 169.536
    endloop
  endfacet
endsolid OpenSCAD_Model
