solid OpenSCAD_Model
  facet normal -1 0 0
    outer loop
      vertex 12.9 -17.6 137.5
      vertex 12.9 -10 142.5
      vertex 12.9 -10 137.5
    endloop
  endfacet
  facet normal -1 -0 0
    outer loop
      vertex 12.9 -10 142.5
      vertex 12.9 -17.6 137.5
      vertex 12.9 -17.6 142.5
    endloop
  endfacet
  facet normal -1 0 0
    outer loop
      vertex 12.9 10 137.5
      vertex 12.9 17.6 142.5
      vertex 12.9 17.6 137.5
    endloop
  endfacet
  facet normal -1 -0 0
    outer loop
      vertex 12.9 17.6 142.5
      vertex 12.9 10 137.5
      vertex 12.9 10 142.5
    endloop
  endfacet
  facet normal 0 0 1
    outer loop
      vertex 13.75 -8.05 142.5
      vertex 12.9 -10 142.5
      vertex 13.75 -16.25 142.5
    endloop
  endfacet
  facet normal -0 0 1
    outer loop
      vertex 5.9 -8.05 142.5
      vertex 12.9 -10 142.5
      vertex 13.75 -8.05 142.5
    endloop
  endfacet
  facet normal -0 0 1
    outer loop
      vertex -2.25 -5.25 142.5
      vertex 5.9 -8.05 142.5
      vertex -2.25 5.25 142.5
    endloop
  endfacet
  facet normal 0 0 1
    outer loop
      vertex -12.5 -10 142.5
      vertex -2.25 -5.25 142.5
      vertex -7.75 -5.25 142.5
    endloop
  endfacet
  facet normal 0 0 1
    outer loop
      vertex -2.25 -5.25 142.5
      vertex -12.5 -10 142.5
      vertex 5.9 -8.05 142.5
    endloop
  endfacet
  facet normal 0 0 1
    outer loop
      vertex 5.9 -8.05 142.5
      vertex -12.5 -10 142.5
      vertex 12.9 -10 142.5
    endloop
  endfacet
  facet normal 0 0 1
    outer loop
      vertex -12.5 -10 142.5
      vertex -7.75 -5.25 142.5
      vertex -12.5 10 142.5
    endloop
  endfacet
  facet normal 0 0 1
    outer loop
      vertex 47.1 17.6 142.5
      vertex 46.25 16.25 142.5
      vertex 47.1 -17.6 142.5
    endloop
  endfacet
  facet normal 0 0 1
    outer loop
      vertex 47.1 17.6 142.5
      vertex 13.75 16.25 142.5
      vertex 46.25 16.25 142.5
    endloop
  endfacet
  facet normal -0 0 1
    outer loop
      vertex 12.9 17.6 142.5
      vertex 13.75 16.25 142.5
      vertex 47.1 17.6 142.5
    endloop
  endfacet
  facet normal 0 0 1
    outer loop
      vertex 12.9 10 142.5
      vertex 13.75 16.25 142.5
      vertex 12.9 17.6 142.5
    endloop
  endfacet
  facet normal 0 0 1
    outer loop
      vertex 13.75 16.25 142.5
      vertex 12.9 10 142.5
      vertex 13.75 8.05 142.5
    endloop
  endfacet
  facet normal 0 0 1
    outer loop
      vertex 12.9 10 142.5
      vertex 5.9 8.05 142.5
      vertex 13.75 8.05 142.5
    endloop
  endfacet
  facet normal 0 0 1
    outer loop
      vertex 5.9 8.05 142.5
      vertex -2.25 5.25 142.5
      vertex 5.9 -8.05 142.5
    endloop
  endfacet
  facet normal 0 0 1
    outer loop
      vertex -12.5 10 142.5
      vertex -2.25 5.25 142.5
      vertex 5.9 8.05 142.5
    endloop
  endfacet
  facet normal -0 0 1
    outer loop
      vertex -12.5 10 142.5
      vertex 5.9 8.05 142.5
      vertex 12.9 10 142.5
    endloop
  endfacet
  facet normal 0 0 1
    outer loop
      vertex -7.75 5.25 142.5
      vertex -12.5 10 142.5
      vertex -7.75 -5.25 142.5
    endloop
  endfacet
  facet normal 0 0 1
    outer loop
      vertex -2.25 5.25 142.5
      vertex -12.5 10 142.5
      vertex -7.75 5.25 142.5
    endloop
  endfacet
  facet normal -0 0 1
    outer loop
      vertex 46.25 -16.25 142.5
      vertex 47.1 -17.6 142.5
      vertex 46.25 16.25 142.5
    endloop
  endfacet
  facet normal -0 0 1
    outer loop
      vertex 13.75 -16.25 142.5
      vertex 47.1 -17.6 142.5
      vertex 46.25 -16.25 142.5
    endloop
  endfacet
  facet normal 0 0 1
    outer loop
      vertex 13.75 -16.25 142.5
      vertex 12.9 -17.6 142.5
      vertex 47.1 -17.6 142.5
    endloop
  endfacet
  facet normal 0 0 1
    outer loop
      vertex 12.9 -17.6 142.5
      vertex 13.75 -16.25 142.5
      vertex 12.9 -10 142.5
    endloop
  endfacet
  facet normal 1 -0 0
    outer loop
      vertex 47.1 -17.6 142.5
      vertex 47.1 17.6 137.5
      vertex 47.1 17.6 142.5
    endloop
  endfacet
  facet normal 1 0 0
    outer loop
      vertex 47.1 17.6 137.5
      vertex 47.1 -17.6 142.5
      vertex 47.1 -17.6 137.5
    endloop
  endfacet
  facet normal 0 1 -0
    outer loop
      vertex 47.1 17.6 137.5
      vertex 12.9 17.6 142.5
      vertex 47.1 17.6 142.5
    endloop
  endfacet
  facet normal 0 1 0
    outer loop
      vertex 12.9 17.6 142.5
      vertex 47.1 17.6 137.5
      vertex 12.9 17.6 137.5
    endloop
  endfacet
  facet normal 0 0 -1
    outer loop
      vertex 12.9 -10 137.5
      vertex 11.9 0 137.5
      vertex 12.9 10 137.5
    endloop
  endfacet
  facet normal 0 0 -1
    outer loop
      vertex 12.9 -10 137.5
      vertex 11.3271 -1.76336 137.5
      vertex 11.9 0 137.5
    endloop
  endfacet
  facet normal 0 0 -1
    outer loop
      vertex 12.9 -10 137.5
      vertex 9.82705 -2.85317 137.5
      vertex 11.3271 -1.76336 137.5
    endloop
  endfacet
  facet normal 0 0 -1
    outer loop
      vertex 12.9 -10 137.5
      vertex 7.97295 -2.85317 137.5
      vertex 9.82705 -2.85317 137.5
    endloop
  endfacet
  facet normal 0 0 -1
    outer loop
      vertex -2.25 -5.25 137.5
      vertex 7.97295 -2.85317 137.5
      vertex 12.9 -10 137.5
    endloop
  endfacet
  facet normal -0 0 -1
    outer loop
      vertex 6.47295 -1.76336 137.5
      vertex -2.25 -5.25 137.5
      vertex 5.9 0 137.5
    endloop
  endfacet
  facet normal -0 0 -1
    outer loop
      vertex 7.97295 -2.85317 137.5
      vertex -2.25 -5.25 137.5
      vertex 6.47295 -1.76336 137.5
    endloop
  endfacet
  facet normal 0 0 -1
    outer loop
      vertex -12.5 -10 137.5
      vertex -2.25 -5.25 137.5
      vertex 12.9 -10 137.5
    endloop
  endfacet
  facet normal -0 0 -1
    outer loop
      vertex -7.75 -5.25 137.5
      vertex -12.5 -10 137.5
      vertex -7.75 5.25 137.5
    endloop
  endfacet
  facet normal -0 0 -1
    outer loop
      vertex -2.25 -5.25 137.5
      vertex -12.5 -10 137.5
      vertex -7.75 -5.25 137.5
    endloop
  endfacet
  facet normal 0 0 -1
    outer loop
      vertex 11.3271 1.76336 137.5
      vertex 12.9 10 137.5
      vertex 11.9 0 137.5
    endloop
  endfacet
  facet normal 0 0 -1
    outer loop
      vertex 9.82705 2.85317 137.5
      vertex 12.9 10 137.5
      vertex 11.3271 1.76336 137.5
    endloop
  endfacet
  facet normal 0 0 -1
    outer loop
      vertex 7.97295 2.85317 137.5
      vertex 12.9 10 137.5
      vertex 9.82705 2.85317 137.5
    endloop
  endfacet
  facet normal 0 0 -1
    outer loop
      vertex -2.25 5.25 137.5
      vertex 7.97295 2.85317 137.5
      vertex 6.47295 1.76336 137.5
    endloop
  endfacet
  facet normal 0 0 -1
    outer loop
      vertex -2.25 5.25 137.5
      vertex 5.9 0 137.5
      vertex -2.25 -5.25 137.5
    endloop
  endfacet
  facet normal 0 0 -1
    outer loop
      vertex 5.9 0 137.5
      vertex -2.25 5.25 137.5
      vertex 6.47295 1.76336 137.5
    endloop
  endfacet
  facet normal 0 0 -1
    outer loop
      vertex 7.97295 2.85317 137.5
      vertex -2.25 5.25 137.5
      vertex 12.9 10 137.5
    endloop
  endfacet
  facet normal 0 0 -1
    outer loop
      vertex -12.5 10 137.5
      vertex -2.25 5.25 137.5
      vertex -7.75 5.25 137.5
    endloop
  endfacet
  facet normal 0 0 -1
    outer loop
      vertex -2.25 5.25 137.5
      vertex -12.5 10 137.5
      vertex 12.9 10 137.5
    endloop
  endfacet
  facet normal 0 0 -1
    outer loop
      vertex -12.5 10 137.5
      vertex -7.75 5.25 137.5
      vertex -12.5 -10 137.5
    endloop
  endfacet
  facet normal 0 0 -1
    outer loop
      vertex 47.1 -17.6 137.5
      vertex 46.25 -16.25 137.5
      vertex 47.1 17.6 137.5
    endloop
  endfacet
  facet normal 0 0 -1
    outer loop
      vertex 47.1 -17.6 137.5
      vertex 13.75 -16.25 137.5
      vertex 46.25 -16.25 137.5
    endloop
  endfacet
  facet normal 0 0 -1
    outer loop
      vertex 12.9 -10 137.5
      vertex 13.75 -16.25 137.5
      vertex 12.9 -17.6 137.5
    endloop
  endfacet
  facet normal 0 0 -1
    outer loop
      vertex 12.9 -17.6 137.5
      vertex 13.75 -16.25 137.5
      vertex 47.1 -17.6 137.5
    endloop
  endfacet
  facet normal 0 0 -1
    outer loop
      vertex 46.25 16.25 137.5
      vertex 47.1 17.6 137.5
      vertex 46.25 -16.25 137.5
    endloop
  endfacet
  facet normal 0 0 -1
    outer loop
      vertex 13.75 16.25 137.5
      vertex 47.1 17.6 137.5
      vertex 46.25 16.25 137.5
    endloop
  endfacet
  facet normal 0 0 -1
    outer loop
      vertex 13.75 -16.25 137.5
      vertex 12.9 -10 137.5
      vertex 13.75 16.25 137.5
    endloop
  endfacet
  facet normal 0 0 -1
    outer loop
      vertex 12.9 10 137.5
      vertex 13.75 16.25 137.5
      vertex 12.9 -10 137.5
    endloop
  endfacet
  facet normal 0 0 -1
    outer loop
      vertex 13.75 16.25 137.5
      vertex 12.9 17.6 137.5
      vertex 47.1 17.6 137.5
    endloop
  endfacet
  facet normal 0 0 -1
    outer loop
      vertex 12.9 17.6 137.5
      vertex 13.75 16.25 137.5
      vertex 12.9 10 137.5
    endloop
  endfacet
  facet normal 0 -1 0
    outer loop
      vertex 12.9 -17.6 137.5
      vertex 47.1 -17.6 142.5
      vertex 12.9 -17.6 142.5
    endloop
  endfacet
  facet normal 0 -1 -0
    outer loop
      vertex 47.1 -17.6 142.5
      vertex 12.9 -17.6 137.5
      vertex 47.1 -17.6 137.5
    endloop
  endfacet
  facet normal -1 0 0
    outer loop
      vertex -12.5 10 137.5
      vertex -12.5 1.42658 139.536
      vertex -12.5 10 142.5
    endloop
  endfacet
  facet normal -1 0 0
    outer loop
      vertex -12.5 10 137.5
      vertex -12.5 0 138.5
      vertex -12.5 1.42658 139.536
    endloop
  endfacet
  facet normal -1 -0 0
    outer loop
      vertex -12.5 0 138.5
      vertex -12.5 -10 137.5
      vertex -12.5 -1.42658 139.536
    endloop
  endfacet
  facet normal -1 0 0
    outer loop
      vertex -12.5 -10 137.5
      vertex -12.5 0 138.5
      vertex -12.5 10 137.5
    endloop
  endfacet
  facet normal -1 0 0
    outer loop
      vertex -12.5 0.881678 141.214
      vertex -12.5 10 142.5
      vertex -12.5 1.42658 139.536
    endloop
  endfacet
  facet normal -1 0 0
    outer loop
      vertex -12.5 -0.881678 141.214
      vertex -12.5 10 142.5
      vertex -12.5 0.881678 141.214
    endloop
  endfacet
  facet normal -1 0 0
    outer loop
      vertex -12.5 -10 142.5
      vertex -12.5 -1.42658 139.536
      vertex -12.5 -10 137.5
    endloop
  endfacet
  facet normal -1 0 0
    outer loop
      vertex -12.5 -0.881678 141.214
      vertex -12.5 -10 142.5
      vertex -12.5 10 142.5
    endloop
  endfacet
  facet normal -1 0 0
    outer loop
      vertex -12.5 -1.42658 139.536
      vertex -12.5 -10 142.5
      vertex -12.5 -0.881678 141.214
    endloop
  endfacet
  facet normal 0 1 -0
    outer loop
      vertex 12.9 10 137.5
      vertex -12.5 10 142.5
      vertex 12.9 10 142.5
    endloop
  endfacet
  facet normal 0 1 0
    outer loop
      vertex -12.5 10 142.5
      vertex 12.9 10 137.5
      vertex -12.5 10 137.5
    endloop
  endfacet
  facet normal 0 -1 0
    outer loop
      vertex -12.5 -10 137.5
      vertex 12.9 -10 142.5
      vertex -12.5 -10 142.5
    endloop
  endfacet
  facet normal 0 -1 -0
    outer loop
      vertex 12.9 -10 142.5
      vertex -12.5 -10 137.5
      vertex 12.9 -10 137.5
    endloop
  endfacet
  facet normal 1 0 0
    outer loop
      vertex 13.75 -8.05 142.5
      vertex 13.75 -16.25 142.5
      vertex 13.75 -8.05 138.75
    endloop
  endfacet
  facet normal 1 0 0
    outer loop
      vertex 13.75 8.05 138.75
      vertex 13.75 16.25 142.5
      vertex 13.75 8.05 142.5
    endloop
  endfacet
  facet normal 1 0 0
    outer loop
      vertex 13.75 16.25 142.5
      vertex 13.75 8.05 138.75
      vertex 13.75 16.25 137.5
    endloop
  endfacet
  facet normal 1 -0 0
    outer loop
      vertex 13.75 -8.05 138.75
      vertex 13.75 16.25 137.5
      vertex 13.75 8.05 138.75
    endloop
  endfacet
  facet normal 1 0 0
    outer loop
      vertex 13.75 -8.05 138.75
      vertex 13.75 -16.25 137.5
      vertex 13.75 16.25 137.5
    endloop
  endfacet
  facet normal 1 0 0
    outer loop
      vertex 13.75 -16.25 137.5
      vertex 13.75 -8.05 138.75
      vertex 13.75 -16.25 142.5
    endloop
  endfacet
  facet normal -1 0 0
    outer loop
      vertex 46.25 -16.25 137.5
      vertex 46.25 16.25 142.5
      vertex 46.25 16.25 137.5
    endloop
  endfacet
  facet normal -1 -0 0
    outer loop
      vertex 46.25 16.25 142.5
      vertex 46.25 -16.25 137.5
      vertex 46.25 -16.25 142.5
    endloop
  endfacet
  facet normal 0 1 -0
    outer loop
      vertex 46.25 -16.25 137.5
      vertex 13.75 -16.25 142.5
      vertex 46.25 -16.25 142.5
    endloop
  endfacet
  facet normal 0 1 0
    outer loop
      vertex 13.75 -16.25 142.5
      vertex 46.25 -16.25 137.5
      vertex 13.75 -16.25 137.5
    endloop
  endfacet
  facet normal 0 -1 0
    outer loop
      vertex 13.75 16.25 137.5
      vertex 46.25 16.25 142.5
      vertex 13.75 16.25 142.5
    endloop
  endfacet
  facet normal 0 -1 -0
    outer loop
      vertex 46.25 16.25 142.5
      vertex 13.75 16.25 137.5
      vertex 46.25 16.25 137.5
    endloop
  endfacet
  facet normal 1 0 0
    outer loop
      vertex 5.9 8.05 142.5
      vertex 5.9 0 138.75
      vertex 5.9 8.05 138.75
    endloop
  endfacet
  facet normal 1 -0 0
    outer loop
      vertex 5.9 -8.05 142.5
      vertex 5.9 0 138.75
      vertex 5.9 8.05 142.5
    endloop
  endfacet
  facet normal 1 0 0
    outer loop
      vertex 5.9 0 138.75
      vertex 5.9 -8.05 142.5
      vertex 5.9 -8.05 138.75
    endloop
  endfacet
  facet normal 0 -1 0
    outer loop
      vertex 5.9 8.05 138.75
      vertex 13.75 8.05 142.5
      vertex 5.9 8.05 142.5
    endloop
  endfacet
  facet normal 0 -1 -0
    outer loop
      vertex 13.75 8.05 142.5
      vertex 5.9 8.05 138.75
      vertex 13.75 8.05 138.75
    endloop
  endfacet
  facet normal 0 0 1
    outer loop
      vertex 13.75 8.05 138.75
      vertex 11.9 0 138.75
      vertex 13.75 -8.05 138.75
    endloop
  endfacet
  facet normal 0 0 1
    outer loop
      vertex 13.75 8.05 138.75
      vertex 11.3271 1.76336 138.75
      vertex 11.9 0 138.75
    endloop
  endfacet
  facet normal 0 0 1
    outer loop
      vertex 13.75 8.05 138.75
      vertex 9.82705 2.85317 138.75
      vertex 11.3271 1.76336 138.75
    endloop
  endfacet
  facet normal -0 0 1
    outer loop
      vertex 5.9 8.05 138.75
      vertex 9.82705 2.85317 138.75
      vertex 13.75 8.05 138.75
    endloop
  endfacet
  facet normal 0 0 1
    outer loop
      vertex 9.82705 2.85317 138.75
      vertex 5.9 8.05 138.75
      vertex 7.97295 2.85317 138.75
    endloop
  endfacet
  facet normal 0 0 1
    outer loop
      vertex 7.97295 2.85317 138.75
      vertex 5.9 8.05 138.75
      vertex 6.47295 1.76336 138.75
    endloop
  endfacet
  facet normal 0 0 1
    outer loop
      vertex 6.47295 1.76336 138.75
      vertex 5.9 8.05 138.75
      vertex 5.9 0 138.75
    endloop
  endfacet
  facet normal -0 0 1
    outer loop
      vertex 11.3271 -1.76336 138.75
      vertex 13.75 -8.05 138.75
      vertex 11.9 0 138.75
    endloop
  endfacet
  facet normal -0 0 1
    outer loop
      vertex 9.82705 -2.85317 138.75
      vertex 13.75 -8.05 138.75
      vertex 11.3271 -1.76336 138.75
    endloop
  endfacet
  facet normal 0 0 1
    outer loop
      vertex 5.9 -8.05 138.75
      vertex 9.82705 -2.85317 138.75
      vertex 7.97295 -2.85317 138.75
    endloop
  endfacet
  facet normal 0 0 1
    outer loop
      vertex 5.9 -8.05 138.75
      vertex 7.97295 -2.85317 138.75
      vertex 6.47295 -1.76336 138.75
    endloop
  endfacet
  facet normal 0 0 1
    outer loop
      vertex 9.82705 -2.85317 138.75
      vertex 5.9 -8.05 138.75
      vertex 13.75 -8.05 138.75
    endloop
  endfacet
  facet normal 0 0 1
    outer loop
      vertex 5.9 -8.05 138.75
      vertex 6.47295 -1.76336 138.75
      vertex 5.9 0 138.75
    endloop
  endfacet
  facet normal 0 1 -0
    outer loop
      vertex 13.75 -8.05 138.75
      vertex 5.9 -8.05 142.5
      vertex 13.75 -8.05 142.5
    endloop
  endfacet
  facet normal 0 1 0
    outer loop
      vertex 5.9 -8.05 142.5
      vertex 13.75 -8.05 138.75
      vertex 5.9 -8.05 138.75
    endloop
  endfacet
  facet normal -0.951056 -0.309017 0
    outer loop
      vertex 11.9 0 137.5
      vertex 11.3271 1.76336 138.75
      vertex 11.3271 1.76336 137.5
    endloop
  endfacet
  facet normal -0.951056 -0.309017 0
    outer loop
      vertex 11.3271 1.76336 138.75
      vertex 11.9 0 137.5
      vertex 11.9 0 138.75
    endloop
  endfacet
  facet normal 0.951057 0.309017 0
    outer loop
      vertex 6.47295 -1.76336 138.75
      vertex 5.9 0 137.5
      vertex 5.9 0 138.75
    endloop
  endfacet
  facet normal 0.951057 0.309017 0
    outer loop
      vertex 5.9 0 137.5
      vertex 6.47295 -1.76336 138.75
      vertex 6.47295 -1.76336 137.5
    endloop
  endfacet
  facet normal 0 -1 0
    outer loop
      vertex 7.97295 2.85317 137.5
      vertex 9.82705 2.85317 138.75
      vertex 7.97295 2.85317 138.75
    endloop
  endfacet
  facet normal 0 -1 -0
    outer loop
      vertex 9.82705 2.85317 138.75
      vertex 7.97295 2.85317 137.5
      vertex 9.82705 2.85317 137.5
    endloop
  endfacet
  facet normal -0.587785 -0.809017 0
    outer loop
      vertex 9.82705 2.85317 137.5
      vertex 11.3271 1.76336 138.75
      vertex 9.82705 2.85317 138.75
    endloop
  endfacet
  facet normal -0.587785 -0.809017 -0
    outer loop
      vertex 11.3271 1.76336 138.75
      vertex 9.82705 2.85317 137.5
      vertex 11.3271 1.76336 137.5
    endloop
  endfacet
  facet normal 0.587785 -0.809017 0
    outer loop
      vertex 6.47295 1.76336 137.5
      vertex 7.97295 2.85317 138.75
      vertex 6.47295 1.76336 138.75
    endloop
  endfacet
  facet normal 0.587785 -0.809017 0
    outer loop
      vertex 7.97295 2.85317 138.75
      vertex 6.47295 1.76336 137.5
      vertex 7.97295 2.85317 137.5
    endloop
  endfacet
  facet normal -0.587785 0.809017 0
    outer loop
      vertex 11.3271 -1.76336 137.5
      vertex 9.82705 -2.85317 138.75
      vertex 11.3271 -1.76336 138.75
    endloop
  endfacet
  facet normal -0.587785 0.809017 0
    outer loop
      vertex 9.82705 -2.85317 138.75
      vertex 11.3271 -1.76336 137.5
      vertex 9.82705 -2.85317 137.5
    endloop
  endfacet
  facet normal 0.587785 0.809017 -0
    outer loop
      vertex 7.97295 -2.85317 137.5
      vertex 6.47295 -1.76336 138.75
      vertex 7.97295 -2.85317 138.75
    endloop
  endfacet
  facet normal 0.587785 0.809017 0
    outer loop
      vertex 6.47295 -1.76336 138.75
      vertex 7.97295 -2.85317 137.5
      vertex 6.47295 -1.76336 137.5
    endloop
  endfacet
  facet normal 0.951057 -0.309017 0
    outer loop
      vertex 5.9 0 138.75
      vertex 6.47295 1.76336 137.5
      vertex 6.47295 1.76336 138.75
    endloop
  endfacet
  facet normal 0.951057 -0.309017 0
    outer loop
      vertex 6.47295 1.76336 137.5
      vertex 5.9 0 138.75
      vertex 5.9 0 137.5
    endloop
  endfacet
  facet normal -0.951056 0.309017 0
    outer loop
      vertex 11.3271 -1.76336 137.5
      vertex 11.9 0 138.75
      vertex 11.9 0 137.5
    endloop
  endfacet
  facet normal -0.951056 0.309017 0
    outer loop
      vertex 11.9 0 138.75
      vertex 11.3271 -1.76336 137.5
      vertex 11.3271 -1.76336 138.75
    endloop
  endfacet
  facet normal 0 1 -0
    outer loop
      vertex 9.82705 -2.85317 137.5
      vertex 7.97295 -2.85317 138.75
      vertex 9.82705 -2.85317 138.75
    endloop
  endfacet
  facet normal 0 1 0
    outer loop
      vertex 7.97295 -2.85317 138.75
      vertex 9.82705 -2.85317 137.5
      vertex 7.97295 -2.85317 137.5
    endloop
  endfacet
  facet normal 1 0 0
    outer loop
      vertex -7.75 5.25 142.5
      vertex -7.75 1.42658 139.536
      vertex -7.75 5.25 137.5
    endloop
  endfacet
  facet normal 1 0 0
    outer loop
      vertex -7.75 5.25 142.5
      vertex -7.75 0.881678 141.214
      vertex -7.75 1.42658 139.536
    endloop
  endfacet
  facet normal 1 0 0
    outer loop
      vertex -7.75 5.25 142.5
      vertex -7.75 -0.881678 141.214
      vertex -7.75 0.881678 141.214
    endloop
  endfacet
  facet normal 1 0 0
    outer loop
      vertex -7.75 -0.881678 141.214
      vertex -7.75 -5.25 142.5
      vertex -7.75 -1.42658 139.536
    endloop
  endfacet
  facet normal 1 -0 0
    outer loop
      vertex -7.75 -5.25 142.5
      vertex -7.75 -0.881678 141.214
      vertex -7.75 5.25 142.5
    endloop
  endfacet
  facet normal 1 -0 0
    outer loop
      vertex -7.75 0 138.5
      vertex -7.75 5.25 137.5
      vertex -7.75 1.42658 139.536
    endloop
  endfacet
  facet normal 1 0 0
    outer loop
      vertex -7.75 0 138.5
      vertex -7.75 -5.25 137.5
      vertex -7.75 5.25 137.5
    endloop
  endfacet
  facet normal 1 0 0
    outer loop
      vertex -7.75 -1.42658 139.536
      vertex -7.75 -5.25 137.5
      vertex -7.75 0 138.5
    endloop
  endfacet
  facet normal 1 0 0
    outer loop
      vertex -7.75 -5.25 137.5
      vertex -7.75 -1.42658 139.536
      vertex -7.75 -5.25 142.5
    endloop
  endfacet
  facet normal -1 0 0
    outer loop
      vertex -2.25 5.25 137.5
      vertex -2.25 1.42658 139.536
      vertex -2.25 5.25 142.5
    endloop
  endfacet
  facet normal -1 0 0
    outer loop
      vertex -2.25 5.25 137.5
      vertex -2.25 0 138.5
      vertex -2.25 1.42658 139.536
    endloop
  endfacet
  facet normal -1 -0 0
    outer loop
      vertex -2.25 0 138.5
      vertex -2.25 -5.25 137.5
      vertex -2.25 -1.42658 139.536
    endloop
  endfacet
  facet normal -1 0 0
    outer loop
      vertex -2.25 -5.25 137.5
      vertex -2.25 0 138.5
      vertex -2.25 5.25 137.5
    endloop
  endfacet
  facet normal -1 0 0
    outer loop
      vertex -2.25 0.881678 141.214
      vertex -2.25 5.25 142.5
      vertex -2.25 1.42658 139.536
    endloop
  endfacet
  facet normal -1 0 0
    outer loop
      vertex -2.25 -0.881678 141.214
      vertex -2.25 5.25 142.5
      vertex -2.25 0.881678 141.214
    endloop
  endfacet
  facet normal -1 0 0
    outer loop
      vertex -2.25 -5.25 142.5
      vertex -2.25 -1.42658 139.536
      vertex -2.25 -5.25 137.5
    endloop
  endfacet
  facet normal -1 0 0
    outer loop
      vertex -2.25 -0.881678 141.214
      vertex -2.25 -5.25 142.5
      vertex -2.25 5.25 142.5
    endloop
  endfacet
  facet normal -1 0 0
    outer loop
      vertex -2.25 -1.42658 139.536
      vertex -2.25 -5.25 142.5
      vertex -2.25 -0.881678 141.214
    endloop
  endfacet
  facet normal 0 1 -0
    outer loop
      vertex -2.25 -5.25 137.5
      vertex -7.75 -5.25 142.5
      vertex -2.25 -5.25 142.5
    endloop
  endfacet
  facet normal 0 1 0
    outer loop
      vertex -7.75 -5.25 142.5
      vertex -2.25 -5.25 137.5
      vertex -7.75 -5.25 137.5
    endloop
  endfacet
  facet normal 0 -1 0
    outer loop
      vertex -7.75 5.25 137.5
      vertex -2.25 5.25 142.5
      vertex -7.75 5.25 142.5
    endloop
  endfacet
  facet normal 0 -1 -0
    outer loop
      vertex -2.25 5.25 142.5
      vertex -7.75 5.25 137.5
      vertex -2.25 5.25 137.5
    endloop
  endfacet
  facet normal 0 -0.587783 0.809019
    outer loop
      vertex -2.25 1.42658 139.536
      vertex 0.9 0 138.5
      vertex 0.9 1.42658 139.536
    endloop
  endfacet
  facet normal 0 -0.587783 0.809019
    outer loop
      vertex 0.9 0 138.5
      vertex -2.25 1.42658 139.536
      vertex -2.25 0 138.5
    endloop
  endfacet
  facet normal 0 -0.587783 0.809019
    outer loop
      vertex -12.5 1.42658 139.536
      vertex -7.75 0 138.5
      vertex -7.75 1.42658 139.536
    endloop
  endfacet
  facet normal 0 -0.587783 0.809019
    outer loop
      vertex -7.75 0 138.5
      vertex -12.5 1.42658 139.536
      vertex -12.5 0 138.5
    endloop
  endfacet
  facet normal 0 0 -1
    outer loop
      vertex -2.25 -0.881678 141.214
      vertex 0.9 0.881678 141.214
      vertex 0.9 -0.881678 141.214
    endloop
  endfacet
  facet normal -0 0 -1
    outer loop
      vertex 0.9 0.881678 141.214
      vertex -2.25 -0.881678 141.214
      vertex -2.25 0.881678 141.214
    endloop
  endfacet
  facet normal 0 0 -1
    outer loop
      vertex -12.5 -0.881678 141.214
      vertex -7.75 0.881678 141.214
      vertex -7.75 -0.881678 141.214
    endloop
  endfacet
  facet normal -0 0 -1
    outer loop
      vertex -7.75 0.881678 141.214
      vertex -12.5 -0.881678 141.214
      vertex -12.5 0.881678 141.214
    endloop
  endfacet
  facet normal 0 -0.951057 -0.309015
    outer loop
      vertex -2.25 1.42658 139.536
      vertex 0.9 0.881678 141.214
      vertex -2.25 0.881678 141.214
    endloop
  endfacet
  facet normal 0 -0.951057 -0.309015
    outer loop
      vertex 0.9 0.881678 141.214
      vertex -2.25 1.42658 139.536
      vertex 0.9 1.42658 139.536
    endloop
  endfacet
  facet normal 0 -0.951057 -0.309015
    outer loop
      vertex -12.5 1.42658 139.536
      vertex -7.75 0.881678 141.214
      vertex -12.5 0.881678 141.214
    endloop
  endfacet
  facet normal 0 -0.951057 -0.309015
    outer loop
      vertex -7.75 0.881678 141.214
      vertex -12.5 1.42658 139.536
      vertex -7.75 1.42658 139.536
    endloop
  endfacet
  facet normal -1 0 0
    outer loop
      vertex 0.9 0 138.5
      vertex 0.9 0.881678 141.214
      vertex 0.9 1.42658 139.536
    endloop
  endfacet
  facet normal -1 0 0
    outer loop
      vertex 0.9 0 138.5
      vertex 0.9 -0.881678 141.214
      vertex 0.9 0.881678 141.214
    endloop
  endfacet
  facet normal -1 0 -0
    outer loop
      vertex 0.9 -0.881678 141.214
      vertex 0.9 0 138.5
      vertex 0.9 -1.42658 139.536
    endloop
  endfacet
  facet normal 0 0.951057 -0.309015
    outer loop
      vertex 0.9 -1.42658 139.536
      vertex -2.25 -0.881678 141.214
      vertex 0.9 -0.881678 141.214
    endloop
  endfacet
  facet normal 0 0.951057 -0.309015
    outer loop
      vertex -2.25 -0.881678 141.214
      vertex 0.9 -1.42658 139.536
      vertex -2.25 -1.42658 139.536
    endloop
  endfacet
  facet normal 0 0.951057 -0.309015
    outer loop
      vertex -7.75 -1.42658 139.536
      vertex -12.5 -0.881678 141.214
      vertex -7.75 -0.881678 141.214
    endloop
  endfacet
  facet normal 0 0.951057 -0.309015
    outer loop
      vertex -12.5 -0.881678 141.214
      vertex -7.75 -1.42658 139.536
      vertex -12.5 -1.42658 139.536
    endloop
  endfacet
  facet normal -0 0.587783 0.809019
    outer loop
      vertex -2.25 0 138.5
      vertex 0.9 -1.42658 139.536
      vertex 0.9 0 138.5
    endloop
  endfacet
  facet normal 0 0.587783 0.809019
    outer loop
      vertex 0.9 -1.42658 139.536
      vertex -2.25 0 138.5
      vertex -2.25 -1.42658 139.536
    endloop
  endfacet
  facet normal -0 0.587783 0.809019
    outer loop
      vertex -12.5 0 138.5
      vertex -7.75 -1.42658 139.536
      vertex -7.75 0 138.5
    endloop
  endfacet
  facet normal 0 0.587783 0.809019
    outer loop
      vertex -7.75 -1.42658 139.536
      vertex -12.5 0 138.5
      vertex -12.5 -1.42658 139.536
    endloop
  endfacet
endsolid OpenSCAD_Model
