solid OpenSCAD_Model
  facet normal -1 0 0
    outer loop
      vertex 7.9 -22.6 167.5
      vertex 7.9 -10 172.5
      vertex 7.9 -10 167.5
    endloop
  endfacet
  facet normal -1 -0 0
    outer loop
      vertex 7.9 -10 172.5
      vertex 7.9 -22.6 167.5
      vertex 7.9 -22.6 172.5
    endloop
  endfacet
  facet normal -1 0 0
    outer loop
      vertex 7.9 10 167.5
      vertex 7.9 22.6 172.5
      vertex 7.9 22.6 167.5
    endloop
  endfacet
  facet normal -1 -0 0
    outer loop
      vertex 7.9 22.6 172.5
      vertex 7.9 10 167.5
      vertex 7.9 10 172.5
    endloop
  endfacet
  facet normal -0 0 1
    outer loop
      vertex 5.9 -8.05 172.5
      vertex 7.9 -10 172.5
      vertex 11.4401 -8.05 172.5
    endloop
  endfacet
  facet normal -0 0 1
    outer loop
      vertex -2.25 -5.25 172.5
      vertex 5.9 -8.05 172.5
      vertex -2.25 5.25 172.5
    endloop
  endfacet
  facet normal 0 0 1
    outer loop
      vertex -2.25 -5.25 172.5
      vertex 7.9 -10 172.5
      vertex 5.9 -8.05 172.5
    endloop
  endfacet
  facet normal 0 0 1
    outer loop
      vertex -12.5 -10 172.5
      vertex -2.25 -5.25 172.5
      vertex -7.75 -5.25 172.5
    endloop
  endfacet
  facet normal 0 0 1
    outer loop
      vertex -2.25 -5.25 172.5
      vertex -12.5 -10 172.5
      vertex 7.9 -10 172.5
    endloop
  endfacet
  facet normal 0 0 1
    outer loop
      vertex -12.5 -10 172.5
      vertex -7.75 -5.25 172.5
      vertex -12.5 10 172.5
    endloop
  endfacet
  facet normal 0 0 1
    outer loop
      vertex 52.1 22.6 172.5
      vertex 51.5 0 172.5
      vertex 52.1 -22.6 172.5
    endloop
  endfacet
  facet normal 0 0 1
    outer loop
      vertex 52.1 22.6 172.5
      vertex 51.2815 2.07912 172.5
      vertex 51.5 0 172.5
    endloop
  endfacet
  facet normal 0 0 1
    outer loop
      vertex 52.1 22.6 172.5
      vertex 50.6355 4.06737 172.5
      vertex 51.2815 2.07912 172.5
    endloop
  endfacet
  facet normal 0 0 1
    outer loop
      vertex 52.1 22.6 172.5
      vertex 49.5902 5.87785 172.5
      vertex 50.6355 4.06737 172.5
    endloop
  endfacet
  facet normal -0 0 1
    outer loop
      vertex 48.4993 8.23642 172.5
      vertex 49.5902 5.87785 172.5
      vertex 52.1 22.6 172.5
    endloop
  endfacet
  facet normal 0 0 1
    outer loop
      vertex 49.5902 5.87785 172.5
      vertex 48.4993 8.23642 172.5
      vertex 49.0824 6.44178 172.5
    endloop
  endfacet
  facet normal 0 0 1
    outer loop
      vertex 52.1 22.6 172.5
      vertex 46.3826 11.9027 172.5
      vertex 48.4993 8.23642 172.5
    endloop
  endfacet
  facet normal 0 0 1
    outer loop
      vertex 52.1 22.6 172.5
      vertex 43.5499 15.0487 172.5
      vertex 46.3826 11.9027 172.5
    endloop
  endfacet
  facet normal 0 0 1
    outer loop
      vertex 52.1 22.6 172.5
      vertex 40.125 17.537 172.5
      vertex 43.5499 15.0487 172.5
    endloop
  endfacet
  facet normal 0 0 1
    outer loop
      vertex 52.1 22.6 172.5
      vertex 36.2576 19.2589 172.5
      vertex 40.125 17.537 172.5
    endloop
  endfacet
  facet normal -0 0 1
    outer loop
      vertex 35 20.1603 172.5
      vertex 36.2576 19.2589 172.5
      vertex 52.1 22.6 172.5
    endloop
  endfacet
  facet normal 0 0 1
    outer loop
      vertex 36.2576 19.2589 172.5
      vertex 35 20.1603 172.5
      vertex 36.2336 19.264 172.5
    endloop
  endfacet
  facet normal 0 0 1
    outer loop
      vertex 52.1 22.6 172.5
      vertex 33.0902 21.0106 172.5
      vertex 35 20.1603 172.5
    endloop
  endfacet
  facet normal 0 0 1
    outer loop
      vertex 52.1 22.6 172.5
      vertex 31.0453 21.4452 172.5
      vertex 33.0902 21.0106 172.5
    endloop
  endfacet
  facet normal 0 0 1
    outer loop
      vertex 52.1 22.6 172.5
      vertex 28.9547 21.4452 172.5
      vertex 31.0453 21.4452 172.5
    endloop
  endfacet
  facet normal 0 0 1
    outer loop
      vertex 25 20.1603 172.5
      vertex 23.7424 19.2589 172.5
      vertex 23.7664 19.264 172.5
    endloop
  endfacet
  facet normal 0 0 1
    outer loop
      vertex 7.9 22.6 172.5
      vertex 23.7424 19.2589 172.5
      vertex 25 20.1603 172.5
    endloop
  endfacet
  facet normal -0 0 1
    outer loop
      vertex 7.9 22.6 172.5
      vertex 28.9547 21.4452 172.5
      vertex 52.1 22.6 172.5
    endloop
  endfacet
  facet normal 0 0 1
    outer loop
      vertex 7.9 22.6 172.5
      vertex 26.9098 21.0106 172.5
      vertex 28.9547 21.4452 172.5
    endloop
  endfacet
  facet normal 0 0 1
    outer loop
      vertex 7.9 22.6 172.5
      vertex 25 20.1603 172.5
      vertex 26.9098 21.0106 172.5
    endloop
  endfacet
  facet normal 0 0 1
    outer loop
      vertex 23.7424 19.2589 172.5
      vertex 7.9 22.6 172.5
      vertex 19.875 17.537 172.5
    endloop
  endfacet
  facet normal 0 0 1
    outer loop
      vertex 7.9 22.6 172.5
      vertex 16.4501 15.0487 172.5
      vertex 19.875 17.537 172.5
    endloop
  endfacet
  facet normal 0 0 1
    outer loop
      vertex 7.9 22.6 172.5
      vertex 13.6174 11.9027 172.5
      vertex 16.4501 15.0487 172.5
    endloop
  endfacet
  facet normal 0 0 1
    outer loop
      vertex 7.9 10 172.5
      vertex 13.6174 11.9027 172.5
      vertex 7.9 22.6 172.5
    endloop
  endfacet
  facet normal 0 0 1
    outer loop
      vertex 13.6174 11.9027 172.5
      vertex 7.9 10 172.5
      vertex 11.5007 8.23642 172.5
    endloop
  endfacet
  facet normal 0 0 1
    outer loop
      vertex 11.5007 8.23642 172.5
      vertex 7.9 10 172.5
      vertex 11.4401 8.05 172.5
    endloop
  endfacet
  facet normal 0 0 1
    outer loop
      vertex 7.9 10 172.5
      vertex 5.9 8.05 172.5
      vertex 11.4401 8.05 172.5
    endloop
  endfacet
  facet normal 0 0 1
    outer loop
      vertex 5.9 8.05 172.5
      vertex -2.25 5.25 172.5
      vertex 5.9 -8.05 172.5
    endloop
  endfacet
  facet normal 0 0 1
    outer loop
      vertex 7.9 10 172.5
      vertex -2.25 5.25 172.5
      vertex 5.9 8.05 172.5
    endloop
  endfacet
  facet normal -0 0 1
    outer loop
      vertex -12.5 10 172.5
      vertex -2.25 5.25 172.5
      vertex 7.9 10 172.5
    endloop
  endfacet
  facet normal 0 0 1
    outer loop
      vertex -7.75 5.25 172.5
      vertex -12.5 10 172.5
      vertex -7.75 -5.25 172.5
    endloop
  endfacet
  facet normal 0 0 1
    outer loop
      vertex -2.25 5.25 172.5
      vertex -12.5 10 172.5
      vertex -7.75 5.25 172.5
    endloop
  endfacet
  facet normal -0 0 1
    outer loop
      vertex 51.2815 -2.07912 172.5
      vertex 52.1 -22.6 172.5
      vertex 51.5 0 172.5
    endloop
  endfacet
  facet normal -0 0 1
    outer loop
      vertex 50.6355 -4.06737 172.5
      vertex 52.1 -22.6 172.5
      vertex 51.2815 -2.07912 172.5
    endloop
  endfacet
  facet normal -0 0 1
    outer loop
      vertex 49.5902 -5.87785 172.5
      vertex 52.1 -22.6 172.5
      vertex 50.6355 -4.06737 172.5
    endloop
  endfacet
  facet normal 0 0 1
    outer loop
      vertex 48.4993 -8.23642 172.5
      vertex 49.5902 -5.87785 172.5
      vertex 49.0824 -6.44178 172.5
    endloop
  endfacet
  facet normal 0 0 1
    outer loop
      vertex 49.5902 -5.87785 172.5
      vertex 48.4993 -8.23642 172.5
      vertex 52.1 -22.6 172.5
    endloop
  endfacet
  facet normal -0 0 1
    outer loop
      vertex 46.3826 -11.9027 172.5
      vertex 52.1 -22.6 172.5
      vertex 48.4993 -8.23642 172.5
    endloop
  endfacet
  facet normal -0 0 1
    outer loop
      vertex 43.5499 -15.0487 172.5
      vertex 52.1 -22.6 172.5
      vertex 46.3826 -11.9027 172.5
    endloop
  endfacet
  facet normal -0 0 1
    outer loop
      vertex 40.125 -17.537 172.5
      vertex 52.1 -22.6 172.5
      vertex 43.5499 -15.0487 172.5
    endloop
  endfacet
  facet normal -0 0 1
    outer loop
      vertex 36.2576 -19.2589 172.5
      vertex 52.1 -22.6 172.5
      vertex 40.125 -17.537 172.5
    endloop
  endfacet
  facet normal 0 0 1
    outer loop
      vertex 35 -20.1603 172.5
      vertex 36.2576 -19.2589 172.5
      vertex 36.2336 -19.264 172.5
    endloop
  endfacet
  facet normal 0 0 1
    outer loop
      vertex 36.2576 -19.2589 172.5
      vertex 35 -20.1603 172.5
      vertex 52.1 -22.6 172.5
    endloop
  endfacet
  facet normal -0 0 1
    outer loop
      vertex 33.0902 -21.0106 172.5
      vertex 52.1 -22.6 172.5
      vertex 35 -20.1603 172.5
    endloop
  endfacet
  facet normal -0 0 1
    outer loop
      vertex 31.0453 -21.4452 172.5
      vertex 52.1 -22.6 172.5
      vertex 33.0902 -21.0106 172.5
    endloop
  endfacet
  facet normal -0 0 1
    outer loop
      vertex 28.9547 -21.4452 172.5
      vertex 52.1 -22.6 172.5
      vertex 31.0453 -21.4452 172.5
    endloop
  endfacet
  facet normal 0 0 1
    outer loop
      vertex 23.7424 -19.2589 172.5
      vertex 25 -20.1603 172.5
      vertex 23.7664 -19.264 172.5
    endloop
  endfacet
  facet normal 0 0 1
    outer loop
      vertex 7.9 -22.6 172.5
      vertex 23.7424 -19.2589 172.5
      vertex 19.875 -17.537 172.5
    endloop
  endfacet
  facet normal 0 0 1
    outer loop
      vertex 7.9 -10 172.5
      vertex 11.5007 -8.23642 172.5
      vertex 11.4401 -8.05 172.5
    endloop
  endfacet
  facet normal -0 0 1
    outer loop
      vertex 7.9 -10 172.5
      vertex 13.6174 -11.9027 172.5
      vertex 11.5007 -8.23642 172.5
    endloop
  endfacet
  facet normal 0 0 1
    outer loop
      vertex 7.9 -22.6 172.5
      vertex 13.6174 -11.9027 172.5
      vertex 7.9 -10 172.5
    endloop
  endfacet
  facet normal 0 0 1
    outer loop
      vertex 13.6174 -11.9027 172.5
      vertex 7.9 -22.6 172.5
      vertex 16.4501 -15.0487 172.5
    endloop
  endfacet
  facet normal 0 0 1
    outer loop
      vertex 28.9547 -21.4452 172.5
      vertex 7.9 -22.6 172.5
      vertex 52.1 -22.6 172.5
    endloop
  endfacet
  facet normal 0 0 1
    outer loop
      vertex 26.9098 -21.0106 172.5
      vertex 7.9 -22.6 172.5
      vertex 28.9547 -21.4452 172.5
    endloop
  endfacet
  facet normal 0 0 1
    outer loop
      vertex 25 -20.1603 172.5
      vertex 7.9 -22.6 172.5
      vertex 26.9098 -21.0106 172.5
    endloop
  endfacet
  facet normal 0 0 1
    outer loop
      vertex 23.7424 -19.2589 172.5
      vertex 7.9 -22.6 172.5
      vertex 25 -20.1603 172.5
    endloop
  endfacet
  facet normal 0 0 1
    outer loop
      vertex 16.4501 -15.0487 172.5
      vertex 7.9 -22.6 172.5
      vertex 19.875 -17.537 172.5
    endloop
  endfacet
  facet normal 1 -0 0
    outer loop
      vertex 52.1 -22.6 172.5
      vertex 52.1 22.6 167.5
      vertex 52.1 22.6 172.5
    endloop
  endfacet
  facet normal 1 0 0
    outer loop
      vertex 52.1 22.6 167.5
      vertex 52.1 -22.6 172.5
      vertex 52.1 -22.6 167.5
    endloop
  endfacet
  facet normal 0 1 -0
    outer loop
      vertex 52.1 22.6 167.5
      vertex 7.9 22.6 172.5
      vertex 52.1 22.6 172.5
    endloop
  endfacet
  facet normal 0 1 0
    outer loop
      vertex 7.9 22.6 172.5
      vertex 52.1 22.6 167.5
      vertex 7.9 22.6 167.5
    endloop
  endfacet
  facet normal 0 0 -1
    outer loop
      vertex 6.47295 1.76336 167.5
      vertex 7.9 10 167.5
      vertex 7.97295 2.85317 167.5
    endloop
  endfacet
  facet normal 0 0 -1
    outer loop
      vertex -2.25 5.25 167.5
      vertex 6.47295 1.76336 167.5
      vertex 5.9 0 167.5
    endloop
  endfacet
  facet normal 0 0 -1
    outer loop
      vertex -2.25 5.25 167.5
      vertex 5.9 0 167.5
      vertex -2.25 -5.25 167.5
    endloop
  endfacet
  facet normal 0 0 -1
    outer loop
      vertex 6.47295 1.76336 167.5
      vertex -2.25 5.25 167.5
      vertex 7.9 10 167.5
    endloop
  endfacet
  facet normal 0 0 -1
    outer loop
      vertex -12.5 10 167.5
      vertex -2.25 5.25 167.5
      vertex -7.75 5.25 167.5
    endloop
  endfacet
  facet normal 0 0 -1
    outer loop
      vertex -2.25 5.25 167.5
      vertex -12.5 10 167.5
      vertex 7.9 10 167.5
    endloop
  endfacet
  facet normal 0 0 -1
    outer loop
      vertex -12.5 10 167.5
      vertex -7.75 5.25 167.5
      vertex -12.5 -10 167.5
    endloop
  endfacet
  facet normal 0 0 -1
    outer loop
      vertex 52.1 -22.6 167.5
      vertex 49.75 0 167.5
      vertex 52.1 22.6 167.5
    endloop
  endfacet
  facet normal 0 0 -1
    outer loop
      vertex 52.1 -22.6 167.5
      vertex 49.3184 -4.10626 167.5
      vertex 49.75 0 167.5
    endloop
  endfacet
  facet normal 0 0 -1
    outer loop
      vertex 52.1 -22.6 167.5
      vertex 48.0425 -8.03305 167.5
      vertex 49.3184 -4.10626 167.5
    endloop
  endfacet
  facet normal 0 0 -1
    outer loop
      vertex 52.1 -22.6 167.5
      vertex 45.9781 -11.6088 167.5
      vertex 48.0425 -8.03305 167.5
    endloop
  endfacet
  facet normal 0 0 -1
    outer loop
      vertex 52.1 -22.6 167.5
      vertex 43.2153 -14.6771 167.5
      vertex 45.9781 -11.6088 167.5
    endloop
  endfacet
  facet normal 0 0 -1
    outer loop
      vertex 52.1 -22.6 167.5
      vertex 39.875 -17.104 167.5
      vertex 43.2153 -14.6771 167.5
    endloop
  endfacet
  facet normal 0 0 -1
    outer loop
      vertex 52.1 -22.6 167.5
      vertex 36.1031 -18.7834 167.5
      vertex 39.875 -17.104 167.5
    endloop
  endfacet
  facet normal 0 0 -1
    outer loop
      vertex 52.1 -22.6 167.5
      vertex 32.0644 -19.6418 167.5
      vertex 36.1031 -18.7834 167.5
    endloop
  endfacet
  facet normal 0 0 -1
    outer loop
      vertex 52.1 -22.6 167.5
      vertex 27.9356 -19.6418 167.5
      vertex 32.0644 -19.6418 167.5
    endloop
  endfacet
  facet normal 0 0 -1
    outer loop
      vertex 10.6816 -4.10626 167.5
      vertex 9.82705 -2.85317 167.5
      vertex 10.4986 -2.36526 167.5
    endloop
  endfacet
  facet normal 0 0 -1
    outer loop
      vertex 7.9 -10 167.5
      vertex 10.6816 -4.10626 167.5
      vertex 11.9575 -8.03305 167.5
    endloop
  endfacet
  facet normal 0 0 -1
    outer loop
      vertex 10.6816 -4.10626 167.5
      vertex 7.97295 -2.85317 167.5
      vertex 9.82705 -2.85317 167.5
    endloop
  endfacet
  facet normal 0 0 -1
    outer loop
      vertex 7.9 -10 167.5
      vertex 11.9575 -8.03305 167.5
      vertex 14.0219 -11.6088 167.5
    endloop
  endfacet
  facet normal 0 0 -1
    outer loop
      vertex 7.9 -22.6 167.5
      vertex 27.9356 -19.6418 167.5
      vertex 52.1 -22.6 167.5
    endloop
  endfacet
  facet normal 0 0 -1
    outer loop
      vertex 7.9 -22.6 167.5
      vertex 23.8969 -18.7834 167.5
      vertex 27.9356 -19.6418 167.5
    endloop
  endfacet
  facet normal 0 0 -1
    outer loop
      vertex 7.9 -22.6 167.5
      vertex 20.125 -17.104 167.5
      vertex 23.8969 -18.7834 167.5
    endloop
  endfacet
  facet normal 0 0 -1
    outer loop
      vertex 7.9 -22.6 167.5
      vertex 16.7847 -14.6771 167.5
      vertex 20.125 -17.104 167.5
    endloop
  endfacet
  facet normal 0 0 -1
    outer loop
      vertex 7.9 -22.6 167.5
      vertex 14.0219 -11.6088 167.5
      vertex 16.7847 -14.6771 167.5
    endloop
  endfacet
  facet normal 0 0 -1
    outer loop
      vertex 7.9 -10 167.5
      vertex 14.0219 -11.6088 167.5
      vertex 7.9 -22.6 167.5
    endloop
  endfacet
  facet normal -0 0 -1
    outer loop
      vertex 10.6816 -4.10626 167.5
      vertex 7.9 -10 167.5
      vertex 7.97295 -2.85317 167.5
    endloop
  endfacet
  facet normal 0 0 -1
    outer loop
      vertex 7.9 -10 167.5
      vertex 6.47295 -1.76336 167.5
      vertex 7.97295 -2.85317 167.5
    endloop
  endfacet
  facet normal 0 0 -1
    outer loop
      vertex -2.25 -5.25 167.5
      vertex 6.47295 -1.76336 167.5
      vertex 7.9 -10 167.5
    endloop
  endfacet
  facet normal -0 0 -1
    outer loop
      vertex 6.47295 -1.76336 167.5
      vertex -2.25 -5.25 167.5
      vertex 5.9 0 167.5
    endloop
  endfacet
  facet normal 0 0 -1
    outer loop
      vertex -12.5 -10 167.5
      vertex -2.25 -5.25 167.5
      vertex 7.9 -10 167.5
    endloop
  endfacet
  facet normal -0 0 -1
    outer loop
      vertex -7.75 -5.25 167.5
      vertex -12.5 -10 167.5
      vertex -7.75 5.25 167.5
    endloop
  endfacet
  facet normal -0 0 -1
    outer loop
      vertex -2.25 -5.25 167.5
      vertex -12.5 -10 167.5
      vertex -7.75 -5.25 167.5
    endloop
  endfacet
  facet normal 0 0 -1
    outer loop
      vertex 49.3184 4.10626 167.5
      vertex 52.1 22.6 167.5
      vertex 49.75 0 167.5
    endloop
  endfacet
  facet normal 0 0 -1
    outer loop
      vertex 48.0425 8.03305 167.5
      vertex 52.1 22.6 167.5
      vertex 49.3184 4.10626 167.5
    endloop
  endfacet
  facet normal 0 0 -1
    outer loop
      vertex 45.9781 11.6088 167.5
      vertex 52.1 22.6 167.5
      vertex 48.0425 8.03305 167.5
    endloop
  endfacet
  facet normal 0 0 -1
    outer loop
      vertex 43.2153 14.6771 167.5
      vertex 52.1 22.6 167.5
      vertex 45.9781 11.6088 167.5
    endloop
  endfacet
  facet normal 0 0 -1
    outer loop
      vertex 39.875 17.104 167.5
      vertex 52.1 22.6 167.5
      vertex 43.2153 14.6771 167.5
    endloop
  endfacet
  facet normal 0 0 -1
    outer loop
      vertex 36.1031 18.7834 167.5
      vertex 52.1 22.6 167.5
      vertex 39.875 17.104 167.5
    endloop
  endfacet
  facet normal 0 0 -1
    outer loop
      vertex 32.0644 19.6418 167.5
      vertex 52.1 22.6 167.5
      vertex 36.1031 18.7834 167.5
    endloop
  endfacet
  facet normal 0 0 -1
    outer loop
      vertex 27.9356 19.6418 167.5
      vertex 52.1 22.6 167.5
      vertex 32.0644 19.6418 167.5
    endloop
  endfacet
  facet normal 0 0 -1
    outer loop
      vertex 9.82705 2.85317 167.5
      vertex 10.6816 4.10626 167.5
      vertex 10.4986 2.36526 167.5
    endloop
  endfacet
  facet normal 0 0 -1
    outer loop
      vertex 7.97295 2.85317 167.5
      vertex 10.6816 4.10626 167.5
      vertex 9.82705 2.85317 167.5
    endloop
  endfacet
  facet normal 0 0 -1
    outer loop
      vertex 7.9 10 167.5
      vertex 10.6816 4.10626 167.5
      vertex 7.97295 2.85317 167.5
    endloop
  endfacet
  facet normal 0 0 -1
    outer loop
      vertex 10.6816 4.10626 167.5
      vertex 7.9 10 167.5
      vertex 11.9575 8.03305 167.5
    endloop
  endfacet
  facet normal 0 0 -1
    outer loop
      vertex 11.9575 8.03305 167.5
      vertex 7.9 10 167.5
      vertex 14.0219 11.6088 167.5
    endloop
  endfacet
  facet normal 0 0 -1
    outer loop
      vertex 7.9 22.6 167.5
      vertex 14.0219 11.6088 167.5
      vertex 7.9 10 167.5
    endloop
  endfacet
  facet normal 0 0 -1
    outer loop
      vertex 14.0219 11.6088 167.5
      vertex 7.9 22.6 167.5
      vertex 16.7847 14.6771 167.5
    endloop
  endfacet
  facet normal 0 0 -1
    outer loop
      vertex 27.9356 19.6418 167.5
      vertex 7.9 22.6 167.5
      vertex 52.1 22.6 167.5
    endloop
  endfacet
  facet normal 0 0 -1
    outer loop
      vertex 23.8969 18.7834 167.5
      vertex 7.9 22.6 167.5
      vertex 27.9356 19.6418 167.5
    endloop
  endfacet
  facet normal 0 0 -1
    outer loop
      vertex 20.125 17.104 167.5
      vertex 7.9 22.6 167.5
      vertex 23.8969 18.7834 167.5
    endloop
  endfacet
  facet normal 0 0 -1
    outer loop
      vertex 16.7847 14.6771 167.5
      vertex 7.9 22.6 167.5
      vertex 20.125 17.104 167.5
    endloop
  endfacet
  facet normal 0 -1 0
    outer loop
      vertex 7.9 -22.6 167.5
      vertex 52.1 -22.6 172.5
      vertex 7.9 -22.6 172.5
    endloop
  endfacet
  facet normal 0 -1 -0
    outer loop
      vertex 52.1 -22.6 172.5
      vertex 7.9 -22.6 167.5
      vertex 52.1 -22.6 167.5
    endloop
  endfacet
  facet normal -1 0 0
    outer loop
      vertex -12.5 10 167.5
      vertex -12.5 1.42658 169.536
      vertex -12.5 10 172.5
    endloop
  endfacet
  facet normal -1 0 0
    outer loop
      vertex -12.5 10 167.5
      vertex -12.5 0 168.5
      vertex -12.5 1.42658 169.536
    endloop
  endfacet
  facet normal -1 -0 0
    outer loop
      vertex -12.5 0 168.5
      vertex -12.5 -10 167.5
      vertex -12.5 -1.42658 169.536
    endloop
  endfacet
  facet normal -1 0 0
    outer loop
      vertex -12.5 -10 167.5
      vertex -12.5 0 168.5
      vertex -12.5 10 167.5
    endloop
  endfacet
  facet normal -1 0 0
    outer loop
      vertex -12.5 0.881678 171.214
      vertex -12.5 10 172.5
      vertex -12.5 1.42658 169.536
    endloop
  endfacet
  facet normal -1 0 0
    outer loop
      vertex -12.5 -0.881678 171.214
      vertex -12.5 10 172.5
      vertex -12.5 0.881678 171.214
    endloop
  endfacet
  facet normal -1 0 0
    outer loop
      vertex -12.5 -10 172.5
      vertex -12.5 -1.42658 169.536
      vertex -12.5 -10 167.5
    endloop
  endfacet
  facet normal -1 0 0
    outer loop
      vertex -12.5 -0.881678 171.214
      vertex -12.5 -10 172.5
      vertex -12.5 10 172.5
    endloop
  endfacet
  facet normal -1 0 0
    outer loop
      vertex -12.5 -1.42658 169.536
      vertex -12.5 -10 172.5
      vertex -12.5 -0.881678 171.214
    endloop
  endfacet
  facet normal 0 1 -0
    outer loop
      vertex 7.9 10 167.5
      vertex -12.5 10 172.5
      vertex 7.9 10 172.5
    endloop
  endfacet
  facet normal 0 1 0
    outer loop
      vertex -12.5 10 172.5
      vertex 7.9 10 167.5
      vertex -12.5 10 167.5
    endloop
  endfacet
  facet normal 0 -1 0
    outer loop
      vertex -12.5 -10 167.5
      vertex 7.9 -10 172.5
      vertex -12.5 -10 172.5
    endloop
  endfacet
  facet normal 0 -1 -0
    outer loop
      vertex 7.9 -10 172.5
      vertex -12.5 -10 167.5
      vertex 7.9 -10 167.5
    endloop
  endfacet
  facet normal -0.994522 -0.104529 0
    outer loop
      vertex 49.75 0 167.5
      vertex 49.3184 4.10626 168.5
      vertex 49.3184 4.10626 167.5
    endloop
  endfacet
  facet normal -0.994522 -0.104529 0
    outer loop
      vertex 49.3184 4.10626 168.5
      vertex 49.75 0 167.5
      vertex 49.75 0 168.5
    endloop
  endfacet
  facet normal 0 -1 0
    outer loop
      vertex 27.9356 19.6418 167.5
      vertex 32.0644 19.6418 168.5
      vertex 27.9356 19.6418 168.5
    endloop
  endfacet
  facet normal 0 -1 -0
    outer loop
      vertex 32.0644 19.6418 168.5
      vertex 27.9356 19.6418 167.5
      vertex 32.0644 19.6418 167.5
    endloop
  endfacet
  facet normal 0.587785 0.809017 -0
    outer loop
      vertex 20.125 -17.104 167.5
      vertex 16.7847 -14.6771 168.5
      vertex 20.125 -17.104 168.5
    endloop
  endfacet
  facet normal 0.587785 0.809017 0
    outer loop
      vertex 16.7847 -14.6771 168.5
      vertex 20.125 -17.104 167.5
      vertex 16.7847 -14.6771 167.5
    endloop
  endfacet
  facet normal -0.587785 -0.809017 0
    outer loop
      vertex 39.875 17.104 167.5
      vertex 43.2153 14.6771 168.5
      vertex 39.875 17.104 168.5
    endloop
  endfacet
  facet normal -0.587785 -0.809017 -0
    outer loop
      vertex 43.2153 14.6771 168.5
      vertex 39.875 17.104 167.5
      vertex 43.2153 14.6771 167.5
    endloop
  endfacet
  facet normal 0.743145 -0.669131 0
    outer loop
      vertex 14.0219 11.6088 168.5
      vertex 16.7847 14.6771 167.5
      vertex 16.7847 14.6771 168.5
    endloop
  endfacet
  facet normal 0.743145 -0.669131 0
    outer loop
      vertex 16.7847 14.6771 167.5
      vertex 14.0219 11.6088 168.5
      vertex 14.0219 11.6088 167.5
    endloop
  endfacet
  facet normal 0.406737 -0.913545 0
    outer loop
      vertex 20.125 17.104 167.5
      vertex 23.8969 18.7834 168.5
      vertex 20.125 17.104 168.5
    endloop
  endfacet
  facet normal 0.406737 -0.913545 0
    outer loop
      vertex 23.8969 18.7834 168.5
      vertex 20.125 17.104 167.5
      vertex 23.8969 18.7834 167.5
    endloop
  endfacet
  facet normal -0.743145 0.669131 0
    outer loop
      vertex 43.2153 -14.6771 167.5
      vertex 45.9781 -11.6088 168.5
      vertex 45.9781 -11.6088 167.5
    endloop
  endfacet
  facet normal -0.743145 0.669131 0
    outer loop
      vertex 45.9781 -11.6088 168.5
      vertex 43.2153 -14.6771 167.5
      vertex 43.2153 -14.6771 168.5
    endloop
  endfacet
  facet normal -0.866025 -0.5 0
    outer loop
      vertex 48.0425 8.03305 167.5
      vertex 45.9781 11.6088 168.5
      vertex 45.9781 11.6088 167.5
    endloop
  endfacet
  facet normal -0.866025 -0.5 0
    outer loop
      vertex 45.9781 11.6088 168.5
      vertex 48.0425 8.03305 167.5
      vertex 48.0425 8.03305 168.5
    endloop
  endfacet
  facet normal -0.951057 -0.309017 0
    outer loop
      vertex 49.3184 4.10626 167.5
      vertex 48.0425 8.03305 168.5
      vertex 48.0425 8.03305 167.5
    endloop
  endfacet
  facet normal -0.951057 -0.309017 0
    outer loop
      vertex 48.0425 8.03305 168.5
      vertex 49.3184 4.10626 167.5
      vertex 49.3184 4.10626 168.5
    endloop
  endfacet
  facet normal -0.743145 -0.669131 0
    outer loop
      vertex 45.9781 11.6088 167.5
      vertex 43.2153 14.6771 168.5
      vertex 43.2153 14.6771 167.5
    endloop
  endfacet
  facet normal -0.743145 -0.669131 0
    outer loop
      vertex 43.2153 14.6771 168.5
      vertex 45.9781 11.6088 167.5
      vertex 45.9781 11.6088 168.5
    endloop
  endfacet
  facet normal -0.207912 -0.978148 0
    outer loop
      vertex 32.0644 19.6418 167.5
      vertex 36.1031 18.7834 168.5
      vertex 32.0644 19.6418 168.5
    endloop
  endfacet
  facet normal -0.207912 -0.978148 -0
    outer loop
      vertex 36.1031 18.7834 168.5
      vertex 32.0644 19.6418 167.5
      vertex 36.1031 18.7834 167.5
    endloop
  endfacet
  facet normal -0.406737 -0.913545 0
    outer loop
      vertex 36.1031 18.7834 167.5
      vertex 39.875 17.104 168.5
      vertex 36.1031 18.7834 168.5
    endloop
  endfacet
  facet normal -0.406737 -0.913545 -0
    outer loop
      vertex 39.875 17.104 168.5
      vertex 36.1031 18.7834 167.5
      vertex 39.875 17.104 167.5
    endloop
  endfacet
  facet normal 0.951057 -0.309017 0
    outer loop
      vertex 10.6816 4.10626 168.5
      vertex 11.9575 8.03305 167.5
      vertex 11.9575 8.03305 168.5
    endloop
  endfacet
  facet normal 0.951057 -0.309017 0
    outer loop
      vertex 11.9575 8.03305 167.5
      vertex 10.6816 4.10626 168.5
      vertex 10.6816 4.10626 167.5
    endloop
  endfacet
  facet normal 0.866025 -0.5 0
    outer loop
      vertex 11.9575 8.03305 168.5
      vertex 14.0219 11.6088 167.5
      vertex 14.0219 11.6088 168.5
    endloop
  endfacet
  facet normal 0.866025 -0.5 0
    outer loop
      vertex 14.0219 11.6088 167.5
      vertex 11.9575 8.03305 168.5
      vertex 11.9575 8.03305 167.5
    endloop
  endfacet
  facet normal 0.994522 -0.104528 0
    outer loop
      vertex 10.4986 2.36526 168.5
      vertex 10.6816 4.10626 167.5
      vertex 10.6816 4.10626 168.5
    endloop
  endfacet
  facet normal 0.994522 -0.104528 0
    outer loop
      vertex 10.6816 4.10626 167.5
      vertex 10.4986 2.36526 168.5
      vertex 10.4986 2.36526 167.5
    endloop
  endfacet
  facet normal 0.587785 -0.809017 0
    outer loop
      vertex 16.7847 14.6771 167.5
      vertex 20.125 17.104 168.5
      vertex 16.7847 14.6771 168.5
    endloop
  endfacet
  facet normal 0.587785 -0.809017 0
    outer loop
      vertex 20.125 17.104 168.5
      vertex 16.7847 14.6771 167.5
      vertex 20.125 17.104 167.5
    endloop
  endfacet
  facet normal 0.207912 -0.978148 0
    outer loop
      vertex 23.8969 18.7834 167.5
      vertex 27.9356 19.6418 168.5
      vertex 23.8969 18.7834 168.5
    endloop
  endfacet
  facet normal 0.207912 -0.978148 0
    outer loop
      vertex 27.9356 19.6418 168.5
      vertex 23.8969 18.7834 167.5
      vertex 27.9356 19.6418 167.5
    endloop
  endfacet
  facet normal -0.207912 0.978148 0
    outer loop
      vertex 36.1031 -18.7834 167.5
      vertex 32.0644 -19.6418 168.5
      vertex 36.1031 -18.7834 168.5
    endloop
  endfacet
  facet normal -0.207912 0.978148 0
    outer loop
      vertex 32.0644 -19.6418 168.5
      vertex 36.1031 -18.7834 167.5
      vertex 32.0644 -19.6418 167.5
    endloop
  endfacet
  facet normal -0.587785 0.809017 0
    outer loop
      vertex 43.2153 -14.6771 167.5
      vertex 39.875 -17.104 168.5
      vertex 43.2153 -14.6771 168.5
    endloop
  endfacet
  facet normal -0.587785 0.809017 0
    outer loop
      vertex 39.875 -17.104 168.5
      vertex 43.2153 -14.6771 167.5
      vertex 39.875 -17.104 167.5
    endloop
  endfacet
  facet normal 0.406737 0.913545 -0
    outer loop
      vertex 23.8969 -18.7834 167.5
      vertex 20.125 -17.104 168.5
      vertex 23.8969 -18.7834 168.5
    endloop
  endfacet
  facet normal 0.406737 0.913545 0
    outer loop
      vertex 20.125 -17.104 168.5
      vertex 23.8969 -18.7834 167.5
      vertex 20.125 -17.104 167.5
    endloop
  endfacet
  facet normal 0 1 -0
    outer loop
      vertex 32.0644 -19.6418 167.5
      vertex 27.9356 -19.6418 168.5
      vertex 32.0644 -19.6418 168.5
    endloop
  endfacet
  facet normal 0 1 0
    outer loop
      vertex 27.9356 -19.6418 168.5
      vertex 32.0644 -19.6418 167.5
      vertex 27.9356 -19.6418 167.5
    endloop
  endfacet
  facet normal 0.743145 0.669131 0
    outer loop
      vertex 16.7847 -14.6771 168.5
      vertex 14.0219 -11.6088 167.5
      vertex 14.0219 -11.6088 168.5
    endloop
  endfacet
  facet normal 0.743145 0.669131 0
    outer loop
      vertex 14.0219 -11.6088 167.5
      vertex 16.7847 -14.6771 168.5
      vertex 16.7847 -14.6771 167.5
    endloop
  endfacet
  facet normal 0.951057 0.309017 0
    outer loop
      vertex 11.9575 -8.03305 168.5
      vertex 10.6816 -4.10626 167.5
      vertex 10.6816 -4.10626 168.5
    endloop
  endfacet
  facet normal 0.951057 0.309017 0
    outer loop
      vertex 10.6816 -4.10626 167.5
      vertex 11.9575 -8.03305 168.5
      vertex 11.9575 -8.03305 167.5
    endloop
  endfacet
  facet normal 0.994522 0.104528 0
    outer loop
      vertex 10.6816 -4.10626 168.5
      vertex 10.4986 -2.36526 167.5
      vertex 10.4986 -2.36526 168.5
    endloop
  endfacet
  facet normal 0.994522 0.104528 0
    outer loop
      vertex 10.4986 -2.36526 167.5
      vertex 10.6816 -4.10626 168.5
      vertex 10.6816 -4.10626 167.5
    endloop
  endfacet
  facet normal -0.406737 0.913545 0
    outer loop
      vertex 39.875 -17.104 167.5
      vertex 36.1031 -18.7834 168.5
      vertex 39.875 -17.104 168.5
    endloop
  endfacet
  facet normal -0.406737 0.913545 0
    outer loop
      vertex 36.1031 -18.7834 168.5
      vertex 39.875 -17.104 167.5
      vertex 36.1031 -18.7834 167.5
    endloop
  endfacet
  facet normal -0.951057 0.309017 0
    outer loop
      vertex 48.0425 -8.03305 167.5
      vertex 49.3184 -4.10626 168.5
      vertex 49.3184 -4.10626 167.5
    endloop
  endfacet
  facet normal -0.951057 0.309017 0
    outer loop
      vertex 49.3184 -4.10626 168.5
      vertex 48.0425 -8.03305 167.5
      vertex 48.0425 -8.03305 168.5
    endloop
  endfacet
  facet normal -0.866025 0.5 0
    outer loop
      vertex 45.9781 -11.6088 167.5
      vertex 48.0425 -8.03305 168.5
      vertex 48.0425 -8.03305 167.5
    endloop
  endfacet
  facet normal -0.866025 0.5 0
    outer loop
      vertex 48.0425 -8.03305 168.5
      vertex 45.9781 -11.6088 167.5
      vertex 45.9781 -11.6088 168.5
    endloop
  endfacet
  facet normal -0.994522 0.104529 0
    outer loop
      vertex 49.3184 -4.10626 167.5
      vertex 49.75 0 168.5
      vertex 49.75 0 167.5
    endloop
  endfacet
  facet normal -0.994522 0.104529 0
    outer loop
      vertex 49.75 0 168.5
      vertex 49.3184 -4.10626 167.5
      vertex 49.3184 -4.10626 168.5
    endloop
  endfacet
  facet normal 0.207912 0.978148 -0
    outer loop
      vertex 27.9356 -19.6418 167.5
      vertex 23.8969 -18.7834 168.5
      vertex 27.9356 -19.6418 168.5
    endloop
  endfacet
  facet normal 0.207912 0.978148 0
    outer loop
      vertex 23.8969 -18.7834 168.5
      vertex 27.9356 -19.6418 167.5
      vertex 23.8969 -18.7834 167.5
    endloop
  endfacet
  facet normal 0.866025 0.5 0
    outer loop
      vertex 14.0219 -11.6088 168.5
      vertex 11.9575 -8.03305 167.5
      vertex 11.9575 -8.03305 168.5
    endloop
  endfacet
  facet normal 0.866025 0.5 0
    outer loop
      vertex 11.9575 -8.03305 167.5
      vertex 14.0219 -11.6088 168.5
      vertex 14.0219 -11.6088 167.5
    endloop
  endfacet
  facet normal 0.207926 -0.978145 0
    outer loop
      vertex 23.7424 19.2589 168.5
      vertex 23.7664 19.264 172.5
      vertex 23.7424 19.2589 172.5
    endloop
  endfacet
  facet normal 0.207926 -0.978145 0
    outer loop
      vertex 23.7664 19.264 172.5
      vertex 23.7424 19.2589 168.5
      vertex 23.7664 19.264 168.5
    endloop
  endfacet
  facet normal -0.207926 0.978145 0
    outer loop
      vertex 36.2576 -19.2589 168.5
      vertex 36.2336 -19.264 172.5
      vertex 36.2576 -19.2589 172.5
    endloop
  endfacet
  facet normal -0.207926 0.978145 0
    outer loop
      vertex 36.2336 -19.264 172.5
      vertex 36.2576 -19.2589 168.5
      vertex 36.2336 -19.264 168.5
    endloop
  endfacet
  facet normal -0.406737 0.913545 0
    outer loop
      vertex 40.125 -17.537 168.5
      vertex 36.2576 -19.2589 172.5
      vertex 40.125 -17.537 172.5
    endloop
  endfacet
  facet normal -0.406737 0.913545 0
    outer loop
      vertex 36.2576 -19.2589 172.5
      vertex 40.125 -17.537 168.5
      vertex 36.2576 -19.2589 168.5
    endloop
  endfacet
  facet normal -0.587785 -0.809017 0
    outer loop
      vertex 40.125 17.537 168.5
      vertex 43.5499 15.0487 172.5
      vertex 40.125 17.537 172.5
    endloop
  endfacet
  facet normal -0.587785 -0.809017 -0
    outer loop
      vertex 43.5499 15.0487 172.5
      vertex 40.125 17.537 168.5
      vertex 43.5499 15.0487 168.5
    endloop
  endfacet
  facet normal 0.743145 -0.669131 0
    outer loop
      vertex 13.6174 11.9027 172.5
      vertex 16.4501 15.0487 168.5
      vertex 16.4501 15.0487 172.5
    endloop
  endfacet
  facet normal 0.743145 -0.669131 0
    outer loop
      vertex 16.4501 15.0487 168.5
      vertex 13.6174 11.9027 172.5
      vertex 13.6174 11.9027 168.5
    endloop
  endfacet
  facet normal 0.587785 -0.809017 0
    outer loop
      vertex 16.4501 15.0487 168.5
      vertex 19.875 17.537 172.5
      vertex 16.4501 15.0487 172.5
    endloop
  endfacet
  facet normal 0.587785 -0.809017 0
    outer loop
      vertex 19.875 17.537 172.5
      vertex 16.4501 15.0487 168.5
      vertex 19.875 17.537 168.5
    endloop
  endfacet
  facet normal -0.866026 -0.5 0
    outer loop
      vertex 48.4993 8.23642 168.5
      vertex 46.3826 11.9027 172.5
      vertex 46.3826 11.9027 168.5
    endloop
  endfacet
  facet normal -0.866026 -0.5 0
    outer loop
      vertex 46.3826 11.9027 172.5
      vertex 48.4993 8.23642 168.5
      vertex 48.4993 8.23642 172.5
    endloop
  endfacet
  facet normal -0.951056 -0.309018 0
    outer loop
      vertex 49.0824 6.44178 168.5
      vertex 48.4993 8.23642 172.5
      vertex 48.4993 8.23642 168.5
    endloop
  endfacet
  facet normal -0.951056 -0.309018 0
    outer loop
      vertex 48.4993 8.23642 172.5
      vertex 49.0824 6.44178 168.5
      vertex 49.0824 6.44178 172.5
    endloop
  endfacet
  facet normal -0.743145 -0.669131 0
    outer loop
      vertex 46.3826 11.9027 168.5
      vertex 43.5499 15.0487 172.5
      vertex 43.5499 15.0487 168.5
    endloop
  endfacet
  facet normal -0.743145 -0.669131 0
    outer loop
      vertex 43.5499 15.0487 172.5
      vertex 46.3826 11.9027 168.5
      vertex 46.3826 11.9027 172.5
    endloop
  endfacet
  facet normal -0.207926 -0.978145 0
    outer loop
      vertex 36.2336 19.264 168.5
      vertex 36.2576 19.2589 172.5
      vertex 36.2336 19.264 172.5
    endloop
  endfacet
  facet normal -0.207926 -0.978145 -0
    outer loop
      vertex 36.2576 19.2589 172.5
      vertex 36.2336 19.264 168.5
      vertex 36.2576 19.2589 168.5
    endloop
  endfacet
  facet normal -0.406737 -0.913545 0
    outer loop
      vertex 36.2576 19.2589 168.5
      vertex 40.125 17.537 172.5
      vertex 36.2576 19.2589 172.5
    endloop
  endfacet
  facet normal -0.406737 -0.913545 -0
    outer loop
      vertex 40.125 17.537 172.5
      vertex 36.2576 19.2589 168.5
      vertex 40.125 17.537 168.5
    endloop
  endfacet
  facet normal 0.951057 -0.309017 0
    outer loop
      vertex 11.4401 8.05 168.75
      vertex 11.5007 8.23642 172.5
      vertex 11.4401 8.05 172.5
    endloop
  endfacet
  facet normal 0.951057 -0.309017 0
    outer loop
      vertex 11.5007 8.23642 172.5
      vertex 11.4401 8.05 168.75
      vertex 11.5007 8.23642 168.5
    endloop
  endfacet
  facet normal 0.951056 -0.309017 0
    outer loop
      vertex 10.9176 6.44178 168.5
      vertex 11.4401 8.05 168.75
      vertex 10.9176 6.44178 168.75
    endloop
  endfacet
  facet normal 0.951056 -0.309017 -1.91928e-007
    outer loop
      vertex 11.4401 8.05 168.75
      vertex 10.9176 6.44178 168.5
      vertex 11.5007 8.23642 168.5
    endloop
  endfacet
  facet normal 0 0 1
    outer loop
      vertex 49.75 0 168.5
      vertex 51.5 0 168.5
      vertex 51.2815 2.07912 168.5
    endloop
  endfacet
  facet normal 0 0 1
    outer loop
      vertex 49.3184 4.10626 168.5
      vertex 51.2815 2.07912 168.5
      vertex 50.6355 4.06737 168.5
    endloop
  endfacet
  facet normal 0 0 1
    outer loop
      vertex 51.5 0 168.5
      vertex 49.75 0 168.5
      vertex 51.2815 -2.07912 168.5
    endloop
  endfacet
  facet normal 0 0 1
    outer loop
      vertex 49.3184 -4.10626 168.5
      vertex 51.2815 -2.07912 168.5
      vertex 49.75 0 168.5
    endloop
  endfacet
  facet normal -0 0 1
    outer loop
      vertex 49.3184 4.10626 168.5
      vertex 50.6355 4.06737 168.5
      vertex 49.5902 5.87785 168.5
    endloop
  endfacet
  facet normal 0 0 1
    outer loop
      vertex 51.2815 2.07912 168.5
      vertex 49.3184 4.10626 168.5
      vertex 49.75 0 168.5
    endloop
  endfacet
  facet normal 0 0 1
    outer loop
      vertex 49.0824 6.44178 168.5
      vertex 49.3184 4.10626 168.5
      vertex 49.5902 5.87785 168.5
    endloop
  endfacet
  facet normal -0 0 1
    outer loop
      vertex 48.0425 8.03305 168.5
      vertex 49.0824 6.44178 168.5
      vertex 48.4993 8.23642 168.5
    endloop
  endfacet
  facet normal 0 0 1
    outer loop
      vertex 49.0824 6.44178 168.5
      vertex 48.0425 8.03305 168.5
      vertex 49.3184 4.10626 168.5
    endloop
  endfacet
  facet normal 0 0 1
    outer loop
      vertex 46.3826 11.9027 168.5
      vertex 48.0425 8.03305 168.5
      vertex 48.4993 8.23642 168.5
    endloop
  endfacet
  facet normal 0 0 1
    outer loop
      vertex 46.3826 11.9027 168.5
      vertex 45.9781 11.6088 168.5
      vertex 48.0425 8.03305 168.5
    endloop
  endfacet
  facet normal 0 0 1
    outer loop
      vertex 43.5499 15.0487 168.5
      vertex 45.9781 11.6088 168.5
      vertex 46.3826 11.9027 168.5
    endloop
  endfacet
  facet normal 0 0 1
    outer loop
      vertex 43.5499 15.0487 168.5
      vertex 43.2153 14.6771 168.5
      vertex 45.9781 11.6088 168.5
    endloop
  endfacet
  facet normal 0 0 1
    outer loop
      vertex 40.125 17.537 168.5
      vertex 43.2153 14.6771 168.5
      vertex 43.5499 15.0487 168.5
    endloop
  endfacet
  facet normal 0 0 1
    outer loop
      vertex 40.125 17.537 168.5
      vertex 39.875 17.104 168.5
      vertex 43.2153 14.6771 168.5
    endloop
  endfacet
  facet normal 0 0 1
    outer loop
      vertex 36.2576 19.2589 168.5
      vertex 39.875 17.104 168.5
      vertex 40.125 17.537 168.5
    endloop
  endfacet
  facet normal 0 0 1
    outer loop
      vertex 36.1031 18.7834 168.5
      vertex 36.2576 19.2589 168.5
      vertex 36.2336 19.264 168.5
    endloop
  endfacet
  facet normal 0 0 1
    outer loop
      vertex 36.2576 19.2589 168.5
      vertex 36.1031 18.7834 168.5
      vertex 39.875 17.104 168.5
    endloop
  endfacet
  facet normal 0 0 1
    outer loop
      vertex 35 20.1603 168.5
      vertex 36.1031 18.7834 168.5
      vertex 36.2336 19.264 168.5
    endloop
  endfacet
  facet normal 0 0 1
    outer loop
      vertex 32.0644 19.6418 168.5
      vertex 35 20.1603 168.5
      vertex 33.0902 21.0106 168.5
    endloop
  endfacet
  facet normal 0 0 1
    outer loop
      vertex 35 20.1603 168.5
      vertex 32.0644 19.6418 168.5
      vertex 36.1031 18.7834 168.5
    endloop
  endfacet
  facet normal 0 0 1
    outer loop
      vertex 31.0453 21.4452 168.5
      vertex 32.0644 19.6418 168.5
      vertex 33.0902 21.0106 168.5
    endloop
  endfacet
  facet normal -0 0 1
    outer loop
      vertex 28.9547 21.4452 168.5
      vertex 32.0644 19.6418 168.5
      vertex 31.0453 21.4452 168.5
    endloop
  endfacet
  facet normal 0 0 1
    outer loop
      vertex 28.9547 21.4452 168.5
      vertex 27.9356 19.6418 168.5
      vertex 32.0644 19.6418 168.5
    endloop
  endfacet
  facet normal -0 0 1
    outer loop
      vertex 26.9098 21.0106 168.5
      vertex 27.9356 19.6418 168.5
      vertex 28.9547 21.4452 168.5
    endloop
  endfacet
  facet normal -0 0 1
    outer loop
      vertex 25 20.1603 168.5
      vertex 27.9356 19.6418 168.5
      vertex 26.9098 21.0106 168.5
    endloop
  endfacet
  facet normal 0 0 1
    outer loop
      vertex 25 20.1603 168.5
      vertex 23.8969 18.7834 168.5
      vertex 27.9356 19.6418 168.5
    endloop
  endfacet
  facet normal -0 0 1
    outer loop
      vertex 23.7664 19.264 168.5
      vertex 23.8969 18.7834 168.5
      vertex 25 20.1603 168.5
    endloop
  endfacet
  facet normal -0 0 1
    outer loop
      vertex 23.7424 19.2589 168.5
      vertex 23.8969 18.7834 168.5
      vertex 23.7664 19.264 168.5
    endloop
  endfacet
  facet normal 0 0 1
    outer loop
      vertex 23.7424 19.2589 168.5
      vertex 20.125 17.104 168.5
      vertex 23.8969 18.7834 168.5
    endloop
  endfacet
  facet normal -0 0 1
    outer loop
      vertex 19.875 17.537 168.5
      vertex 20.125 17.104 168.5
      vertex 23.7424 19.2589 168.5
    endloop
  endfacet
  facet normal 0 0 1
    outer loop
      vertex 19.875 17.537 168.5
      vertex 16.7847 14.6771 168.5
      vertex 20.125 17.104 168.5
    endloop
  endfacet
  facet normal -0 0 1
    outer loop
      vertex 16.4501 15.0487 168.5
      vertex 16.7847 14.6771 168.5
      vertex 19.875 17.537 168.5
    endloop
  endfacet
  facet normal 0 0 1
    outer loop
      vertex 16.4501 15.0487 168.5
      vertex 14.0219 11.6088 168.5
      vertex 16.7847 14.6771 168.5
    endloop
  endfacet
  facet normal -0 0 1
    outer loop
      vertex 13.6174 11.9027 168.5
      vertex 14.0219 11.6088 168.5
      vertex 16.4501 15.0487 168.5
    endloop
  endfacet
  facet normal 0 0 1
    outer loop
      vertex 13.6174 11.9027 168.5
      vertex 11.9575 8.03305 168.5
      vertex 14.0219 11.6088 168.5
    endloop
  endfacet
  facet normal -0 0 1
    outer loop
      vertex 11.5007 8.23642 168.5
      vertex 11.9575 8.03305 168.5
      vertex 13.6174 11.9027 168.5
    endloop
  endfacet
  facet normal 0 0 1
    outer loop
      vertex 10.9176 6.44178 168.5
      vertex 11.9575 8.03305 168.5
      vertex 11.5007 8.23642 168.5
    endloop
  endfacet
  facet normal -0 0 1
    outer loop
      vertex 10.9176 6.44178 168.5
      vertex 10.6816 4.10626 168.5
      vertex 11.9575 8.03305 168.5
    endloop
  endfacet
  facet normal -0 0 1
    outer loop
      vertex 10.4098 5.87785 168.5
      vertex 10.6816 4.10626 168.5
      vertex 10.9176 6.44178 168.5
    endloop
  endfacet
  facet normal 0 0 1
    outer loop
      vertex 9.36454 4.06737 168.5
      vertex 10.6816 4.10626 168.5
      vertex 10.4098 5.87785 168.5
    endloop
  endfacet
  facet normal 0 -0 1
    outer loop
      vertex 9.82705 2.85317 168.5
      vertex 10.6816 4.10626 168.5
      vertex 9.36454 4.06737 168.5
    endloop
  endfacet
  facet normal 0 0 1
    outer loop
      vertex 10.6816 4.10626 168.5
      vertex 9.82705 2.85317 168.5
      vertex 10.4986 2.36526 168.5
    endloop
  endfacet
  facet normal 0 0 1
    outer loop
      vertex 9.82705 2.85317 168.5
      vertex 9.36454 4.06737 168.5
      vertex 8.97003 2.85317 168.5
    endloop
  endfacet
  facet normal 0 0 1
    outer loop
      vertex 51.2815 -2.07912 168.5
      vertex 49.3184 -4.10626 168.5
      vertex 50.6355 -4.06737 168.5
    endloop
  endfacet
  facet normal 0 0 1
    outer loop
      vertex 50.6355 -4.06737 168.5
      vertex 49.3184 -4.10626 168.5
      vertex 49.5902 -5.87785 168.5
    endloop
  endfacet
  facet normal 0 0 1
    outer loop
      vertex 49.3184 -4.10626 168.5
      vertex 49.0824 -6.44178 168.5
      vertex 49.5902 -5.87785 168.5
    endloop
  endfacet
  facet normal 0 0 1
    outer loop
      vertex 48.0425 -8.03305 168.5
      vertex 49.0824 -6.44178 168.5
      vertex 49.3184 -4.10626 168.5
    endloop
  endfacet
  facet normal 0 0 1
    outer loop
      vertex 49.0824 -6.44178 168.5
      vertex 48.0425 -8.03305 168.5
      vertex 48.4993 -8.23642 168.5
    endloop
  endfacet
  facet normal 0 0 1
    outer loop
      vertex 48.0425 -8.03305 168.5
      vertex 46.3826 -11.9027 168.5
      vertex 48.4993 -8.23642 168.5
    endloop
  endfacet
  facet normal -0 0 1
    outer loop
      vertex 45.9781 -11.6088 168.5
      vertex 46.3826 -11.9027 168.5
      vertex 48.0425 -8.03305 168.5
    endloop
  endfacet
  facet normal 0 0 1
    outer loop
      vertex 45.9781 -11.6088 168.5
      vertex 43.5499 -15.0487 168.5
      vertex 46.3826 -11.9027 168.5
    endloop
  endfacet
  facet normal -0 0 1
    outer loop
      vertex 43.2153 -14.6771 168.5
      vertex 43.5499 -15.0487 168.5
      vertex 45.9781 -11.6088 168.5
    endloop
  endfacet
  facet normal 0 0 1
    outer loop
      vertex 43.2153 -14.6771 168.5
      vertex 40.125 -17.537 168.5
      vertex 43.5499 -15.0487 168.5
    endloop
  endfacet
  facet normal -0 0 1
    outer loop
      vertex 39.875 -17.104 168.5
      vertex 40.125 -17.537 168.5
      vertex 43.2153 -14.6771 168.5
    endloop
  endfacet
  facet normal 0 0 1
    outer loop
      vertex 39.875 -17.104 168.5
      vertex 36.2576 -19.2589 168.5
      vertex 40.125 -17.537 168.5
    endloop
  endfacet
  facet normal -0 0 1
    outer loop
      vertex 36.1031 -18.7834 168.5
      vertex 36.2576 -19.2589 168.5
      vertex 39.875 -17.104 168.5
    endloop
  endfacet
  facet normal 0 0 1
    outer loop
      vertex 36.2576 -19.2589 168.5
      vertex 36.1031 -18.7834 168.5
      vertex 36.2336 -19.264 168.5
    endloop
  endfacet
  facet normal 0 0 1
    outer loop
      vertex 36.1031 -18.7834 168.5
      vertex 35 -20.1603 168.5
      vertex 36.2336 -19.264 168.5
    endloop
  endfacet
  facet normal -0 0 1
    outer loop
      vertex 32.0644 -19.6418 168.5
      vertex 35 -20.1603 168.5
      vertex 36.1031 -18.7834 168.5
    endloop
  endfacet
  facet normal 0 0 1
    outer loop
      vertex 35 -20.1603 168.5
      vertex 32.0644 -19.6418 168.5
      vertex 33.0902 -21.0106 168.5
    endloop
  endfacet
  facet normal 0 0 1
    outer loop
      vertex 32.0644 -19.6418 168.5
      vertex 31.0453 -21.4452 168.5
      vertex 33.0902 -21.0106 168.5
    endloop
  endfacet
  facet normal 0 0 1
    outer loop
      vertex 32.0644 -19.6418 168.5
      vertex 28.9547 -21.4452 168.5
      vertex 31.0453 -21.4452 168.5
    endloop
  endfacet
  facet normal -0 0 1
    outer loop
      vertex 27.9356 -19.6418 168.5
      vertex 28.9547 -21.4452 168.5
      vertex 32.0644 -19.6418 168.5
    endloop
  endfacet
  facet normal 0 0 1
    outer loop
      vertex 27.9356 -19.6418 168.5
      vertex 26.9098 -21.0106 168.5
      vertex 28.9547 -21.4452 168.5
    endloop
  endfacet
  facet normal 0 0 1
    outer loop
      vertex 27.9356 -19.6418 168.5
      vertex 25 -20.1603 168.5
      vertex 26.9098 -21.0106 168.5
    endloop
  endfacet
  facet normal 0 0 1
    outer loop
      vertex 23.8969 -18.7834 168.5
      vertex 25 -20.1603 168.5
      vertex 27.9356 -19.6418 168.5
    endloop
  endfacet
  facet normal 0 0 1
    outer loop
      vertex 23.8969 -18.7834 168.5
      vertex 23.7664 -19.264 168.5
      vertex 25 -20.1603 168.5
    endloop
  endfacet
  facet normal 0 0 1
    outer loop
      vertex 23.8969 -18.7834 168.5
      vertex 23.7424 -19.2589 168.5
      vertex 23.7664 -19.264 168.5
    endloop
  endfacet
  facet normal 0 0 1
    outer loop
      vertex 20.125 -17.104 168.5
      vertex 23.7424 -19.2589 168.5
      vertex 23.8969 -18.7834 168.5
    endloop
  endfacet
  facet normal 0 0 1
    outer loop
      vertex 20.125 -17.104 168.5
      vertex 19.875 -17.537 168.5
      vertex 23.7424 -19.2589 168.5
    endloop
  endfacet
  facet normal 0 0 1
    outer loop
      vertex 16.7847 -14.6771 168.5
      vertex 19.875 -17.537 168.5
      vertex 20.125 -17.104 168.5
    endloop
  endfacet
  facet normal 0 0 1
    outer loop
      vertex 16.7847 -14.6771 168.5
      vertex 16.4501 -15.0487 168.5
      vertex 19.875 -17.537 168.5
    endloop
  endfacet
  facet normal 0 0 1
    outer loop
      vertex 14.0219 -11.6088 168.5
      vertex 16.4501 -15.0487 168.5
      vertex 16.7847 -14.6771 168.5
    endloop
  endfacet
  facet normal 0 0 1
    outer loop
      vertex 14.0219 -11.6088 168.5
      vertex 13.6174 -11.9027 168.5
      vertex 16.4501 -15.0487 168.5
    endloop
  endfacet
  facet normal 0 0 1
    outer loop
      vertex 11.9575 -8.03305 168.5
      vertex 13.6174 -11.9027 168.5
      vertex 14.0219 -11.6088 168.5
    endloop
  endfacet
  facet normal 0 0 1
    outer loop
      vertex 11.9575 -8.03305 168.5
      vertex 11.5007 -8.23642 168.5
      vertex 13.6174 -11.9027 168.5
    endloop
  endfacet
  facet normal 0 0 1
    outer loop
      vertex 11.9575 -8.03305 168.5
      vertex 10.9176 -6.44178 168.5
      vertex 11.5007 -8.23642 168.5
    endloop
  endfacet
  facet normal 0 0 1
    outer loop
      vertex 10.6816 -4.10626 168.5
      vertex 10.9176 -6.44178 168.5
      vertex 11.9575 -8.03305 168.5
    endloop
  endfacet
  facet normal -0 0 1
    outer loop
      vertex 9.82705 -2.85317 168.5
      vertex 10.6816 -4.10626 168.5
      vertex 10.4986 -2.36526 168.5
    endloop
  endfacet
  facet normal 0 0 1
    outer loop
      vertex 10.6816 -4.10626 168.5
      vertex 10.4098 -5.87785 168.5
      vertex 10.9176 -6.44178 168.5
    endloop
  endfacet
  facet normal 0 0 1
    outer loop
      vertex 10.6816 -4.10626 168.5
      vertex 9.82705 -2.85317 168.5
      vertex 9.36454 -4.06737 168.5
    endloop
  endfacet
  facet normal 0 0 1
    outer loop
      vertex 10.6816 -4.10626 168.5
      vertex 9.36454 -4.06737 168.5
      vertex 10.4098 -5.87785 168.5
    endloop
  endfacet
  facet normal 0 -0 1
    outer loop
      vertex 9.36454 -4.06737 168.5
      vertex 9.82705 -2.85317 168.5
      vertex 8.97003 -2.85317 168.5
    endloop
  endfacet
  facet normal 0.866025 -0.5 0
    outer loop
      vertex 11.5007 8.23642 172.5
      vertex 13.6174 11.9027 168.5
      vertex 13.6174 11.9027 172.5
    endloop
  endfacet
  facet normal 0.866025 -0.5 0
    outer loop
      vertex 13.6174 11.9027 168.5
      vertex 11.5007 8.23642 172.5
      vertex 11.5007 8.23642 168.5
    endloop
  endfacet
  facet normal 0.406737 -0.913545 0
    outer loop
      vertex 19.875 17.537 168.5
      vertex 23.7424 19.2589 172.5
      vertex 19.875 17.537 172.5
    endloop
  endfacet
  facet normal 0.406737 -0.913545 0
    outer loop
      vertex 23.7424 19.2589 172.5
      vertex 19.875 17.537 168.5
      vertex 23.7424 19.2589 168.5
    endloop
  endfacet
  facet normal -0.743145 0.669131 0
    outer loop
      vertex 43.5499 -15.0487 168.5
      vertex 46.3826 -11.9027 172.5
      vertex 46.3826 -11.9027 168.5
    endloop
  endfacet
  facet normal -0.743145 0.669131 0
    outer loop
      vertex 46.3826 -11.9027 172.5
      vertex 43.5499 -15.0487 168.5
      vertex 43.5499 -15.0487 172.5
    endloop
  endfacet
  facet normal -0.866026 0.5 0
    outer loop
      vertex 46.3826 -11.9027 168.5
      vertex 48.4993 -8.23642 172.5
      vertex 48.4993 -8.23642 168.5
    endloop
  endfacet
  facet normal -0.866026 0.5 0
    outer loop
      vertex 48.4993 -8.23642 172.5
      vertex 46.3826 -11.9027 168.5
      vertex 46.3826 -11.9027 172.5
    endloop
  endfacet
  facet normal 0.406737 0.913545 -0
    outer loop
      vertex 23.7424 -19.2589 168.5
      vertex 19.875 -17.537 172.5
      vertex 23.7424 -19.2589 172.5
    endloop
  endfacet
  facet normal 0.406737 0.913545 0
    outer loop
      vertex 19.875 -17.537 172.5
      vertex 23.7424 -19.2589 168.5
      vertex 19.875 -17.537 168.5
    endloop
  endfacet
  facet normal 0.743145 0.669131 0
    outer loop
      vertex 16.4501 -15.0487 172.5
      vertex 13.6174 -11.9027 168.5
      vertex 13.6174 -11.9027 172.5
    endloop
  endfacet
  facet normal 0.743145 0.669131 0
    outer loop
      vertex 13.6174 -11.9027 168.5
      vertex 16.4501 -15.0487 172.5
      vertex 16.4501 -15.0487 168.5
    endloop
  endfacet
  facet normal -0.587785 0.809017 0
    outer loop
      vertex 43.5499 -15.0487 168.5
      vertex 40.125 -17.537 172.5
      vertex 43.5499 -15.0487 172.5
    endloop
  endfacet
  facet normal -0.587785 0.809017 0
    outer loop
      vertex 40.125 -17.537 172.5
      vertex 43.5499 -15.0487 168.5
      vertex 40.125 -17.537 168.5
    endloop
  endfacet
  facet normal -0.951056 0.309018 0
    outer loop
      vertex 48.4993 -8.23642 168.5
      vertex 49.0824 -6.44178 172.5
      vertex 49.0824 -6.44178 168.5
    endloop
  endfacet
  facet normal -0.951056 0.309018 0
    outer loop
      vertex 49.0824 -6.44178 172.5
      vertex 48.4993 -8.23642 168.5
      vertex 48.4993 -8.23642 172.5
    endloop
  endfacet
  facet normal 0.207926 0.978145 -0
    outer loop
      vertex 23.7664 -19.264 168.5
      vertex 23.7424 -19.2589 172.5
      vertex 23.7664 -19.264 172.5
    endloop
  endfacet
  facet normal 0.207926 0.978145 0
    outer loop
      vertex 23.7424 -19.2589 172.5
      vertex 23.7664 -19.264 168.5
      vertex 23.7424 -19.2589 168.5
    endloop
  endfacet
  facet normal 0.587785 0.809017 -0
    outer loop
      vertex 19.875 -17.537 168.5
      vertex 16.4501 -15.0487 172.5
      vertex 19.875 -17.537 172.5
    endloop
  endfacet
  facet normal 0.587785 0.809017 0
    outer loop
      vertex 16.4501 -15.0487 172.5
      vertex 19.875 -17.537 168.5
      vertex 16.4501 -15.0487 168.5
    endloop
  endfacet
  facet normal 0.866025 0.5 0
    outer loop
      vertex 13.6174 -11.9027 172.5
      vertex 11.5007 -8.23642 168.5
      vertex 11.5007 -8.23642 172.5
    endloop
  endfacet
  facet normal 0.866025 0.5 0
    outer loop
      vertex 11.5007 -8.23642 168.5
      vertex 13.6174 -11.9027 172.5
      vertex 13.6174 -11.9027 168.5
    endloop
  endfacet
  facet normal 0.951057 0.309017 0
    outer loop
      vertex 11.4401 -8.05 172.5
      vertex 11.5007 -8.23642 172.5
      vertex 11.4401 -8.05 168.75
    endloop
  endfacet
  facet normal 0.951056 0.309017 0
    outer loop
      vertex 11.4401 -8.05 168.75
      vertex 10.9176 -6.44178 168.5
      vertex 10.9176 -6.44178 168.75
    endloop
  endfacet
  facet normal 0.951056 0.309017 -1.91928e-007
    outer loop
      vertex 11.4401 -8.05 168.75
      vertex 11.5007 -8.23642 168.5
      vertex 10.9176 -6.44178 168.5
    endloop
  endfacet
  facet normal 0.951057 0.309017 -0
    outer loop
      vertex 11.5007 -8.23642 168.5
      vertex 11.4401 -8.05 168.75
      vertex 11.5007 -8.23642 172.5
    endloop
  endfacet
  facet normal 0.207911 -0.978148 0
    outer loop
      vertex 26.9098 21.0106 168.5
      vertex 28.9547 21.4452 172.5
      vertex 26.9098 21.0106 172.5
    endloop
  endfacet
  facet normal 0.207911 -0.978148 0
    outer loop
      vertex 28.9547 21.4452 172.5
      vertex 26.9098 21.0106 168.5
      vertex 28.9547 21.4452 168.5
    endloop
  endfacet
  facet normal -0.587785 -0.809017 0
    outer loop
      vertex 35 20.1603 168.5
      vertex 36.2336 19.264 172.5
      vertex 35 20.1603 172.5
    endloop
  endfacet
  facet normal -0.587785 -0.809017 -0
    outer loop
      vertex 36.2336 19.264 172.5
      vertex 35 20.1603 168.5
      vertex 36.2336 19.264 168.5
    endloop
  endfacet
  facet normal 0.587785 -0.809017 0
    outer loop
      vertex 23.7664 19.264 168.5
      vertex 25 20.1603 172.5
      vertex 23.7664 19.264 172.5
    endloop
  endfacet
  facet normal 0.587785 -0.809017 0
    outer loop
      vertex 25 20.1603 172.5
      vertex 23.7664 19.264 168.5
      vertex 25 20.1603 168.5
    endloop
  endfacet
  facet normal -0.207911 -0.978148 0
    outer loop
      vertex 31.0453 21.4452 168.5
      vertex 33.0902 21.0106 172.5
      vertex 31.0453 21.4452 172.5
    endloop
  endfacet
  facet normal -0.207911 -0.978148 -0
    outer loop
      vertex 33.0902 21.0106 172.5
      vertex 31.0453 21.4452 168.5
      vertex 33.0902 21.0106 168.5
    endloop
  endfacet
  facet normal 0 -1 0
    outer loop
      vertex 28.9547 21.4452 168.5
      vertex 31.0453 21.4452 172.5
      vertex 28.9547 21.4452 172.5
    endloop
  endfacet
  facet normal 0 -1 -0
    outer loop
      vertex 31.0453 21.4452 172.5
      vertex 28.9547 21.4452 168.5
      vertex 31.0453 21.4452 168.5
    endloop
  endfacet
  facet normal -0.406737 -0.913545 0
    outer loop
      vertex 33.0902 21.0106 168.5
      vertex 35 20.1603 172.5
      vertex 33.0902 21.0106 172.5
    endloop
  endfacet
  facet normal -0.406737 -0.913545 -0
    outer loop
      vertex 35 20.1603 172.5
      vertex 33.0902 21.0106 168.5
      vertex 35 20.1603 168.5
    endloop
  endfacet
  facet normal 0.406737 -0.913545 0
    outer loop
      vertex 25 20.1603 168.5
      vertex 26.9098 21.0106 172.5
      vertex 25 20.1603 172.5
    endloop
  endfacet
  facet normal 0.406737 -0.913545 0
    outer loop
      vertex 26.9098 21.0106 172.5
      vertex 25 20.1603 168.5
      vertex 26.9098 21.0106 168.5
    endloop
  endfacet
  facet normal -0.207911 0.978148 0
    outer loop
      vertex 33.0902 -21.0106 168.5
      vertex 31.0453 -21.4452 172.5
      vertex 33.0902 -21.0106 172.5
    endloop
  endfacet
  facet normal -0.207911 0.978148 0
    outer loop
      vertex 31.0453 -21.4452 172.5
      vertex 33.0902 -21.0106 168.5
      vertex 31.0453 -21.4452 168.5
    endloop
  endfacet
  facet normal -0.406737 0.913545 0
    outer loop
      vertex 35 -20.1603 168.5
      vertex 33.0902 -21.0106 172.5
      vertex 35 -20.1603 172.5
    endloop
  endfacet
  facet normal -0.406737 0.913545 0
    outer loop
      vertex 33.0902 -21.0106 172.5
      vertex 35 -20.1603 168.5
      vertex 33.0902 -21.0106 168.5
    endloop
  endfacet
  facet normal 0.406737 0.913545 -0
    outer loop
      vertex 26.9098 -21.0106 168.5
      vertex 25 -20.1603 172.5
      vertex 26.9098 -21.0106 172.5
    endloop
  endfacet
  facet normal 0.406737 0.913545 0
    outer loop
      vertex 25 -20.1603 172.5
      vertex 26.9098 -21.0106 168.5
      vertex 25 -20.1603 168.5
    endloop
  endfacet
  facet normal -0.587785 0.809017 0
    outer loop
      vertex 36.2336 -19.264 168.5
      vertex 35 -20.1603 172.5
      vertex 36.2336 -19.264 172.5
    endloop
  endfacet
  facet normal -0.587785 0.809017 0
    outer loop
      vertex 35 -20.1603 172.5
      vertex 36.2336 -19.264 168.5
      vertex 35 -20.1603 168.5
    endloop
  endfacet
  facet normal 0 1 -0
    outer loop
      vertex 31.0453 -21.4452 168.5
      vertex 28.9547 -21.4452 172.5
      vertex 31.0453 -21.4452 172.5
    endloop
  endfacet
  facet normal 0 1 0
    outer loop
      vertex 28.9547 -21.4452 172.5
      vertex 31.0453 -21.4452 168.5
      vertex 28.9547 -21.4452 168.5
    endloop
  endfacet
  facet normal 0.207911 0.978148 -0
    outer loop
      vertex 28.9547 -21.4452 168.5
      vertex 26.9098 -21.0106 172.5
      vertex 28.9547 -21.4452 172.5
    endloop
  endfacet
  facet normal 0.207911 0.978148 0
    outer loop
      vertex 26.9098 -21.0106 172.5
      vertex 28.9547 -21.4452 168.5
      vertex 26.9098 -21.0106 168.5
    endloop
  endfacet
  facet normal 0.587785 0.809017 -0
    outer loop
      vertex 25 -20.1603 168.5
      vertex 23.7664 -19.264 172.5
      vertex 25 -20.1603 172.5
    endloop
  endfacet
  facet normal 0.587785 0.809017 0
    outer loop
      vertex 23.7664 -19.264 172.5
      vertex 25 -20.1603 168.5
      vertex 23.7664 -19.264 168.5
    endloop
  endfacet
  facet normal 0.743145 -0.669131 0
    outer loop
      vertex 10.4098 5.87785 168.75
      vertex 10.9176 6.44178 168.5
      vertex 10.9176 6.44178 168.75
    endloop
  endfacet
  facet normal 0.743145 -0.669131 0
    outer loop
      vertex 10.9176 6.44178 168.5
      vertex 10.4098 5.87785 168.75
      vertex 10.4098 5.87785 168.5
    endloop
  endfacet
  facet normal 0.951057 -0.309017 0
    outer loop
      vertex 8.97003 2.85317 168.75
      vertex 9.36454 4.06737 168.5
      vertex 9.36454 4.06737 168.75
    endloop
  endfacet
  facet normal 0.951057 -0.309017 0
    outer loop
      vertex 9.36454 4.06737 168.5
      vertex 8.97003 2.85317 168.75
      vertex 8.97003 2.85317 168.5
    endloop
  endfacet
  facet normal 0.866026 -0.5 0
    outer loop
      vertex 9.36454 4.06737 168.75
      vertex 10.4098 5.87785 168.5
      vertex 10.4098 5.87785 168.75
    endloop
  endfacet
  facet normal 0.866026 -0.5 0
    outer loop
      vertex 10.4098 5.87785 168.5
      vertex 9.36454 4.06737 168.75
      vertex 9.36454 4.06737 168.5
    endloop
  endfacet
  facet normal 0.743145 0.669131 0
    outer loop
      vertex 10.9176 -6.44178 168.75
      vertex 10.4098 -5.87785 168.5
      vertex 10.4098 -5.87785 168.75
    endloop
  endfacet
  facet normal 0.743145 0.669131 0
    outer loop
      vertex 10.4098 -5.87785 168.5
      vertex 10.9176 -6.44178 168.75
      vertex 10.9176 -6.44178 168.5
    endloop
  endfacet
  facet normal 0.951057 0.309017 0
    outer loop
      vertex 9.36454 -4.06737 168.75
      vertex 8.97003 -2.85317 168.5
      vertex 8.97003 -2.85317 168.75
    endloop
  endfacet
  facet normal 0.951057 0.309017 0
    outer loop
      vertex 8.97003 -2.85317 168.5
      vertex 9.36454 -4.06737 168.75
      vertex 9.36454 -4.06737 168.5
    endloop
  endfacet
  facet normal 0.866026 0.5 0
    outer loop
      vertex 10.4098 -5.87785 168.75
      vertex 9.36454 -4.06737 168.5
      vertex 9.36454 -4.06737 168.75
    endloop
  endfacet
  facet normal 0.866026 0.5 0
    outer loop
      vertex 9.36454 -4.06737 168.5
      vertex 10.4098 -5.87785 168.75
      vertex 10.4098 -5.87785 168.5
    endloop
  endfacet
  facet normal -0.994522 -0.104529 0
    outer loop
      vertex 51.5 0 168.5
      vertex 51.2815 2.07912 172.5
      vertex 51.2815 2.07912 168.5
    endloop
  endfacet
  facet normal -0.994522 -0.104529 0
    outer loop
      vertex 51.2815 2.07912 172.5
      vertex 51.5 0 168.5
      vertex 51.5 0 172.5
    endloop
  endfacet
  facet normal -0.866026 -0.499998 0
    outer loop
      vertex 50.6355 4.06737 168.5
      vertex 49.5902 5.87785 172.5
      vertex 49.5902 5.87785 168.5
    endloop
  endfacet
  facet normal -0.866026 -0.499998 0
    outer loop
      vertex 49.5902 5.87785 172.5
      vertex 50.6355 4.06737 168.5
      vertex 50.6355 4.06737 172.5
    endloop
  endfacet
  facet normal -0.951056 -0.309018 0
    outer loop
      vertex 51.2815 2.07912 168.5
      vertex 50.6355 4.06737 172.5
      vertex 50.6355 4.06737 168.5
    endloop
  endfacet
  facet normal -0.951056 -0.309018 0
    outer loop
      vertex 50.6355 4.06737 172.5
      vertex 51.2815 2.07912 168.5
      vertex 51.2815 2.07912 172.5
    endloop
  endfacet
  facet normal -0.743144 -0.669132 0
    outer loop
      vertex 49.5902 5.87785 168.5
      vertex 49.0824 6.44178 172.5
      vertex 49.0824 6.44178 168.5
    endloop
  endfacet
  facet normal -0.743144 -0.669132 0
    outer loop
      vertex 49.0824 6.44178 172.5
      vertex 49.5902 5.87785 168.5
      vertex 49.5902 5.87785 172.5
    endloop
  endfacet
  facet normal -0.994522 0.104529 0
    outer loop
      vertex 51.2815 -2.07912 168.5
      vertex 51.5 0 172.5
      vertex 51.5 0 168.5
    endloop
  endfacet
  facet normal -0.994522 0.104529 0
    outer loop
      vertex 51.5 0 172.5
      vertex 51.2815 -2.07912 168.5
      vertex 51.2815 -2.07912 172.5
    endloop
  endfacet
  facet normal -0.866026 0.499998 0
    outer loop
      vertex 49.5902 -5.87785 168.5
      vertex 50.6355 -4.06737 172.5
      vertex 50.6355 -4.06737 168.5
    endloop
  endfacet
  facet normal -0.866026 0.499998 0
    outer loop
      vertex 50.6355 -4.06737 172.5
      vertex 49.5902 -5.87785 168.5
      vertex 49.5902 -5.87785 172.5
    endloop
  endfacet
  facet normal -0.951056 0.309018 0
    outer loop
      vertex 50.6355 -4.06737 168.5
      vertex 51.2815 -2.07912 172.5
      vertex 51.2815 -2.07912 168.5
    endloop
  endfacet
  facet normal -0.951056 0.309018 0
    outer loop
      vertex 51.2815 -2.07912 172.5
      vertex 50.6355 -4.06737 168.5
      vertex 50.6355 -4.06737 172.5
    endloop
  endfacet
  facet normal -0.743144 0.669132 0
    outer loop
      vertex 49.0824 -6.44178 168.5
      vertex 49.5902 -5.87785 172.5
      vertex 49.5902 -5.87785 168.5
    endloop
  endfacet
  facet normal -0.743144 0.669132 0
    outer loop
      vertex 49.5902 -5.87785 172.5
      vertex 49.0824 -6.44178 168.5
      vertex 49.0824 -6.44178 172.5
    endloop
  endfacet
  facet normal 1 0 0
    outer loop
      vertex 5.9 8.05 172.5
      vertex 5.9 0 168.75
      vertex 5.9 8.05 168.75
    endloop
  endfacet
  facet normal 1 -0 0
    outer loop
      vertex 5.9 -8.05 172.5
      vertex 5.9 0 168.75
      vertex 5.9 8.05 172.5
    endloop
  endfacet
  facet normal 1 0 0
    outer loop
      vertex 5.9 0 168.75
      vertex 5.9 -8.05 172.5
      vertex 5.9 -8.05 168.75
    endloop
  endfacet
  facet normal 0 -1 0
    outer loop
      vertex 5.9 8.05 168.75
      vertex 11.4401 8.05 172.5
      vertex 5.9 8.05 172.5
    endloop
  endfacet
  facet normal 0 -1 -0
    outer loop
      vertex 11.4401 8.05 172.5
      vertex 5.9 8.05 168.75
      vertex 11.4401 8.05 168.75
    endloop
  endfacet
  facet normal -0 0 1
    outer loop
      vertex 5.9 8.05 168.75
      vertex 10.9176 6.44178 168.75
      vertex 11.4401 8.05 168.75
    endloop
  endfacet
  facet normal 0 0 1
    outer loop
      vertex 10.9176 6.44178 168.75
      vertex 5.9 8.05 168.75
      vertex 10.4098 5.87785 168.75
    endloop
  endfacet
  facet normal 0 0 1
    outer loop
      vertex 9.36454 4.06737 168.75
      vertex 7.97295 2.85317 168.75
      vertex 8.97003 2.85317 168.75
    endloop
  endfacet
  facet normal 0 0 1
    outer loop
      vertex 10.4098 5.87785 168.75
      vertex 5.9 8.05 168.75
      vertex 9.36454 4.06737 168.75
    endloop
  endfacet
  facet normal 0 0 1
    outer loop
      vertex 9.36454 4.06737 168.75
      vertex 5.9 8.05 168.75
      vertex 7.97295 2.85317 168.75
    endloop
  endfacet
  facet normal 0 0 1
    outer loop
      vertex 7.97295 2.85317 168.75
      vertex 5.9 8.05 168.75
      vertex 6.47295 1.76336 168.75
    endloop
  endfacet
  facet normal 0 0 1
    outer loop
      vertex 6.47295 1.76336 168.75
      vertex 5.9 8.05 168.75
      vertex 5.9 0 168.75
    endloop
  endfacet
  facet normal 0 0 1
    outer loop
      vertex 5.9 -8.05 168.75
      vertex 10.9176 -6.44178 168.75
      vertex 10.4098 -5.87785 168.75
    endloop
  endfacet
  facet normal 0 0 1
    outer loop
      vertex 5.9 -8.05 168.75
      vertex 10.4098 -5.87785 168.75
      vertex 9.36454 -4.06737 168.75
    endloop
  endfacet
  facet normal -0 0 1
    outer loop
      vertex 7.97295 -2.85317 168.75
      vertex 9.36454 -4.06737 168.75
      vertex 8.97003 -2.85317 168.75
    endloop
  endfacet
  facet normal 0 0 1
    outer loop
      vertex 5.9 -8.05 168.75
      vertex 9.36454 -4.06737 168.75
      vertex 7.97295 -2.85317 168.75
    endloop
  endfacet
  facet normal 0 0 1
    outer loop
      vertex 5.9 -8.05 168.75
      vertex 7.97295 -2.85317 168.75
      vertex 6.47295 -1.76336 168.75
    endloop
  endfacet
  facet normal 0 0 1
    outer loop
      vertex 10.9176 -6.44178 168.75
      vertex 5.9 -8.05 168.75
      vertex 11.4401 -8.05 168.75
    endloop
  endfacet
  facet normal 0 0 1
    outer loop
      vertex 5.9 -8.05 168.75
      vertex 6.47295 -1.76336 168.75
      vertex 5.9 0 168.75
    endloop
  endfacet
  facet normal 0 1 -0
    outer loop
      vertex 11.4401 -8.05 168.75
      vertex 5.9 -8.05 172.5
      vertex 11.4401 -8.05 172.5
    endloop
  endfacet
  facet normal 0 1 0
    outer loop
      vertex 5.9 -8.05 172.5
      vertex 11.4401 -8.05 168.75
      vertex 5.9 -8.05 168.75
    endloop
  endfacet
  facet normal 0.951057 0.309017 0
    outer loop
      vertex 6.47295 -1.76336 168.75
      vertex 5.9 0 167.5
      vertex 5.9 0 168.75
    endloop
  endfacet
  facet normal 0.951057 0.309017 0
    outer loop
      vertex 5.9 0 167.5
      vertex 6.47295 -1.76336 168.75
      vertex 6.47295 -1.76336 167.5
    endloop
  endfacet
  facet normal 0 -1 0
    outer loop
      vertex 7.97295 2.85317 168.75
      vertex 8.97003 2.85317 168.5
      vertex 8.97003 2.85317 168.75
    endloop
  endfacet
  facet normal 0 -1 0
    outer loop
      vertex 7.97295 2.85317 167.5
      vertex 8.97003 2.85317 168.5
      vertex 7.97295 2.85317 168.75
    endloop
  endfacet
  facet normal 0 -1 0
    outer loop
      vertex 9.82705 2.85317 167.5
      vertex 8.97003 2.85317 168.5
      vertex 7.97295 2.85317 167.5
    endloop
  endfacet
  facet normal 0 -1 0
    outer loop
      vertex 8.97003 2.85317 168.5
      vertex 9.82705 2.85317 167.5
      vertex 9.82705 2.85317 168.5
    endloop
  endfacet
  facet normal -0.587785 -0.809017 0
    outer loop
      vertex 9.82705 2.85317 167.5
      vertex 10.4986 2.36526 168.5
      vertex 9.82705 2.85317 168.5
    endloop
  endfacet
  facet normal -0.587785 -0.809017 -0
    outer loop
      vertex 10.4986 2.36526 168.5
      vertex 9.82705 2.85317 167.5
      vertex 10.4986 2.36526 167.5
    endloop
  endfacet
  facet normal 0.587785 -0.809017 0
    outer loop
      vertex 6.47295 1.76336 167.5
      vertex 7.97295 2.85317 168.75
      vertex 6.47295 1.76336 168.75
    endloop
  endfacet
  facet normal 0.587785 -0.809017 0
    outer loop
      vertex 7.97295 2.85317 168.75
      vertex 6.47295 1.76336 167.5
      vertex 7.97295 2.85317 167.5
    endloop
  endfacet
  facet normal -0.587785 0.809017 0
    outer loop
      vertex 10.4986 -2.36526 167.5
      vertex 9.82705 -2.85317 168.5
      vertex 10.4986 -2.36526 168.5
    endloop
  endfacet
  facet normal -0.587785 0.809017 0
    outer loop
      vertex 9.82705 -2.85317 168.5
      vertex 10.4986 -2.36526 167.5
      vertex 9.82705 -2.85317 167.5
    endloop
  endfacet
  facet normal 0.587785 0.809017 -0
    outer loop
      vertex 7.97295 -2.85317 167.5
      vertex 6.47295 -1.76336 168.75
      vertex 7.97295 -2.85317 168.75
    endloop
  endfacet
  facet normal 0.587785 0.809017 0
    outer loop
      vertex 6.47295 -1.76336 168.75
      vertex 7.97295 -2.85317 167.5
      vertex 6.47295 -1.76336 167.5
    endloop
  endfacet
  facet normal 0.951057 -0.309017 0
    outer loop
      vertex 5.9 0 168.75
      vertex 6.47295 1.76336 167.5
      vertex 6.47295 1.76336 168.75
    endloop
  endfacet
  facet normal 0.951057 -0.309017 0
    outer loop
      vertex 6.47295 1.76336 167.5
      vertex 5.9 0 168.75
      vertex 5.9 0 167.5
    endloop
  endfacet
  facet normal 0 1 0
    outer loop
      vertex 9.82705 -2.85317 168.5
      vertex 9.82705 -2.85317 167.5
      vertex 8.97003 -2.85317 168.5
    endloop
  endfacet
  facet normal 0 1 -0
    outer loop
      vertex 8.97003 -2.85317 168.5
      vertex 7.97295 -2.85317 168.75
      vertex 8.97003 -2.85317 168.75
    endloop
  endfacet
  facet normal 0 1 0
    outer loop
      vertex 7.97295 -2.85317 167.5
      vertex 8.97003 -2.85317 168.5
      vertex 9.82705 -2.85317 167.5
    endloop
  endfacet
  facet normal 0 1 0
    outer loop
      vertex 8.97003 -2.85317 168.5
      vertex 7.97295 -2.85317 167.5
      vertex 7.97295 -2.85317 168.75
    endloop
  endfacet
  facet normal 1 0 0
    outer loop
      vertex -7.75 5.25 172.5
      vertex -7.75 1.42658 169.536
      vertex -7.75 5.25 167.5
    endloop
  endfacet
  facet normal 1 0 0
    outer loop
      vertex -7.75 5.25 172.5
      vertex -7.75 0.881678 171.214
      vertex -7.75 1.42658 169.536
    endloop
  endfacet
  facet normal 1 0 0
    outer loop
      vertex -7.75 5.25 172.5
      vertex -7.75 -0.881678 171.214
      vertex -7.75 0.881678 171.214
    endloop
  endfacet
  facet normal 1 0 0
    outer loop
      vertex -7.75 -0.881678 171.214
      vertex -7.75 -5.25 172.5
      vertex -7.75 -1.42658 169.536
    endloop
  endfacet
  facet normal 1 -0 0
    outer loop
      vertex -7.75 -5.25 172.5
      vertex -7.75 -0.881678 171.214
      vertex -7.75 5.25 172.5
    endloop
  endfacet
  facet normal 1 -0 0
    outer loop
      vertex -7.75 0 168.5
      vertex -7.75 5.25 167.5
      vertex -7.75 1.42658 169.536
    endloop
  endfacet
  facet normal 1 0 0
    outer loop
      vertex -7.75 0 168.5
      vertex -7.75 -5.25 167.5
      vertex -7.75 5.25 167.5
    endloop
  endfacet
  facet normal 1 0 0
    outer loop
      vertex -7.75 -1.42658 169.536
      vertex -7.75 -5.25 167.5
      vertex -7.75 0 168.5
    endloop
  endfacet
  facet normal 1 0 0
    outer loop
      vertex -7.75 -5.25 167.5
      vertex -7.75 -1.42658 169.536
      vertex -7.75 -5.25 172.5
    endloop
  endfacet
  facet normal -1 0 0
    outer loop
      vertex -2.25 5.25 167.5
      vertex -2.25 1.42658 169.536
      vertex -2.25 5.25 172.5
    endloop
  endfacet
  facet normal -1 0 0
    outer loop
      vertex -2.25 5.25 167.5
      vertex -2.25 0 168.5
      vertex -2.25 1.42658 169.536
    endloop
  endfacet
  facet normal -1 -0 0
    outer loop
      vertex -2.25 0 168.5
      vertex -2.25 -5.25 167.5
      vertex -2.25 -1.42658 169.536
    endloop
  endfacet
  facet normal -1 0 0
    outer loop
      vertex -2.25 -5.25 167.5
      vertex -2.25 0 168.5
      vertex -2.25 5.25 167.5
    endloop
  endfacet
  facet normal -1 0 0
    outer loop
      vertex -2.25 0.881678 171.214
      vertex -2.25 5.25 172.5
      vertex -2.25 1.42658 169.536
    endloop
  endfacet
  facet normal -1 0 0
    outer loop
      vertex -2.25 -0.881678 171.214
      vertex -2.25 5.25 172.5
      vertex -2.25 0.881678 171.214
    endloop
  endfacet
  facet normal -1 0 0
    outer loop
      vertex -2.25 -5.25 172.5
      vertex -2.25 -1.42658 169.536
      vertex -2.25 -5.25 167.5
    endloop
  endfacet
  facet normal -1 0 0
    outer loop
      vertex -2.25 -0.881678 171.214
      vertex -2.25 -5.25 172.5
      vertex -2.25 5.25 172.5
    endloop
  endfacet
  facet normal -1 0 0
    outer loop
      vertex -2.25 -1.42658 169.536
      vertex -2.25 -5.25 172.5
      vertex -2.25 -0.881678 171.214
    endloop
  endfacet
  facet normal 0 1 -0
    outer loop
      vertex -2.25 -5.25 167.5
      vertex -7.75 -5.25 172.5
      vertex -2.25 -5.25 172.5
    endloop
  endfacet
  facet normal 0 1 0
    outer loop
      vertex -7.75 -5.25 172.5
      vertex -2.25 -5.25 167.5
      vertex -7.75 -5.25 167.5
    endloop
  endfacet
  facet normal 0 -1 0
    outer loop
      vertex -7.75 5.25 167.5
      vertex -2.25 5.25 172.5
      vertex -7.75 5.25 172.5
    endloop
  endfacet
  facet normal 0 -1 -0
    outer loop
      vertex -2.25 5.25 172.5
      vertex -7.75 5.25 167.5
      vertex -2.25 5.25 167.5
    endloop
  endfacet
  facet normal 0 -0.587783 0.809019
    outer loop
      vertex -2.25 1.42658 169.536
      vertex 0.9 0 168.5
      vertex 0.9 1.42658 169.536
    endloop
  endfacet
  facet normal 0 -0.587783 0.809019
    outer loop
      vertex 0.9 0 168.5
      vertex -2.25 1.42658 169.536
      vertex -2.25 0 168.5
    endloop
  endfacet
  facet normal 0 -0.587783 0.809019
    outer loop
      vertex -12.5 1.42658 169.536
      vertex -7.75 0 168.5
      vertex -7.75 1.42658 169.536
    endloop
  endfacet
  facet normal 0 -0.587783 0.809019
    outer loop
      vertex -7.75 0 168.5
      vertex -12.5 1.42658 169.536
      vertex -12.5 0 168.5
    endloop
  endfacet
  facet normal 0 0 -1
    outer loop
      vertex -2.25 -0.881678 171.214
      vertex 0.9 0.881678 171.214
      vertex 0.9 -0.881678 171.214
    endloop
  endfacet
  facet normal -0 0 -1
    outer loop
      vertex 0.9 0.881678 171.214
      vertex -2.25 -0.881678 171.214
      vertex -2.25 0.881678 171.214
    endloop
  endfacet
  facet normal 0 0 -1
    outer loop
      vertex -12.5 -0.881678 171.214
      vertex -7.75 0.881678 171.214
      vertex -7.75 -0.881678 171.214
    endloop
  endfacet
  facet normal -0 0 -1
    outer loop
      vertex -7.75 0.881678 171.214
      vertex -12.5 -0.881678 171.214
      vertex -12.5 0.881678 171.214
    endloop
  endfacet
  facet normal 0 -0.951057 -0.309015
    outer loop
      vertex -2.25 1.42658 169.536
      vertex 0.9 0.881678 171.214
      vertex -2.25 0.881678 171.214
    endloop
  endfacet
  facet normal 0 -0.951057 -0.309015
    outer loop
      vertex 0.9 0.881678 171.214
      vertex -2.25 1.42658 169.536
      vertex 0.9 1.42658 169.536
    endloop
  endfacet
  facet normal 0 -0.951057 -0.309015
    outer loop
      vertex -12.5 1.42658 169.536
      vertex -7.75 0.881678 171.214
      vertex -12.5 0.881678 171.214
    endloop
  endfacet
  facet normal 0 -0.951057 -0.309015
    outer loop
      vertex -7.75 0.881678 171.214
      vertex -12.5 1.42658 169.536
      vertex -7.75 1.42658 169.536
    endloop
  endfacet
  facet normal -1 0 0
    outer loop
      vertex 0.9 0 168.5
      vertex 0.9 0.881678 171.214
      vertex 0.9 1.42658 169.536
    endloop
  endfacet
  facet normal -1 0 0
    outer loop
      vertex 0.9 0 168.5
      vertex 0.9 -0.881678 171.214
      vertex 0.9 0.881678 171.214
    endloop
  endfacet
  facet normal -1 0 -0
    outer loop
      vertex 0.9 -0.881678 171.214
      vertex 0.9 0 168.5
      vertex 0.9 -1.42658 169.536
    endloop
  endfacet
  facet normal 0 0.951057 -0.309015
    outer loop
      vertex 0.9 -1.42658 169.536
      vertex -2.25 -0.881678 171.214
      vertex 0.9 -0.881678 171.214
    endloop
  endfacet
  facet normal 0 0.951057 -0.309015
    outer loop
      vertex -2.25 -0.881678 171.214
      vertex 0.9 -1.42658 169.536
      vertex -2.25 -1.42658 169.536
    endloop
  endfacet
  facet normal 0 0.951057 -0.309015
    outer loop
      vertex -7.75 -1.42658 169.536
      vertex -12.5 -0.881678 171.214
      vertex -7.75 -0.881678 171.214
    endloop
  endfacet
  facet normal 0 0.951057 -0.309015
    outer loop
      vertex -12.5 -0.881678 171.214
      vertex -7.75 -1.42658 169.536
      vertex -12.5 -1.42658 169.536
    endloop
  endfacet
  facet normal -0 0.587783 0.809019
    outer loop
      vertex -2.25 0 168.5
      vertex 0.9 -1.42658 169.536
      vertex 0.9 0 168.5
    endloop
  endfacet
  facet normal 0 0.587783 0.809019
    outer loop
      vertex 0.9 -1.42658 169.536
      vertex -2.25 0 168.5
      vertex -2.25 -1.42658 169.536
    endloop
  endfacet
  facet normal -0 0.587783 0.809019
    outer loop
      vertex -12.5 0 168.5
      vertex -7.75 -1.42658 169.536
      vertex -7.75 0 168.5
    endloop
  endfacet
  facet normal 0 0.587783 0.809019
    outer loop
      vertex -7.75 -1.42658 169.536
      vertex -12.5 0 168.5
      vertex -12.5 -1.42658 169.536
    endloop
  endfacet
endsolid OpenSCAD_Model
