solid OpenSCAD_Model
  facet normal -1 0 0
    outer loop
      vertex 13 -17.5 226.25
      vertex 13 -10 233.75
      vertex 13 -10 226.25
    endloop
  endfacet
  facet normal -1 -0 0
    outer loop
      vertex 13 -10 233.75
      vertex 13 -17.5 226.25
      vertex 13 -17.5 233.75
    endloop
  endfacet
  facet normal -1 0 0
    outer loop
      vertex 13 10 226.25
      vertex 13 17.5 233.75
      vertex 13 17.5 226.25
    endloop
  endfacet
  facet normal -1 -0 0
    outer loop
      vertex 13 17.5 233.75
      vertex 13 10 226.25
      vertex 13 10 233.75
    endloop
  endfacet
  facet normal 0 0 1
    outer loop
      vertex 17.82 -8 233.75
      vertex 13 -10 233.75
      vertex 17.82 -12.68 233.75
    endloop
  endfacet
  facet normal -0 0 1
    outer loop
      vertex 12 -8 233.75
      vertex 13 -10 233.75
      vertex 17.82 -8 233.75
    endloop
  endfacet
  facet normal -0 0 1
    outer loop
      vertex -2.32 -5.18 233.75
      vertex 12 -8 233.75
      vertex -2.32 5.18 233.75
    endloop
  endfacet
  facet normal 0 0 1
    outer loop
      vertex 12 -8 233.75
      vertex -2.32 -5.18 233.75
      vertex 13 -10 233.75
    endloop
  endfacet
  facet normal 0 0 1
    outer loop
      vertex -12.5 -10 233.75
      vertex -2.32 -5.18 233.75
      vertex -7.68 -5.18 233.75
    endloop
  endfacet
  facet normal 0 0 1
    outer loop
      vertex -2.32 -5.18 233.75
      vertex -12.5 -10 233.75
      vertex 13 -10 233.75
    endloop
  endfacet
  facet normal 0 0 1
    outer loop
      vertex -12.5 -10 233.75
      vertex -7.68 -5.18 233.75
      vertex -12.5 10 233.75
    endloop
  endfacet
  facet normal 0 0 1
    outer loop
      vertex 47 17.5 233.75
      vertex 42.18 12.68 233.75
      vertex 47 -17.5 233.75
    endloop
  endfacet
  facet normal 0 0 1
    outer loop
      vertex 47 17.5 233.75
      vertex 17.82 12.68 233.75
      vertex 42.18 12.68 233.75
    endloop
  endfacet
  facet normal -0 0 1
    outer loop
      vertex 13 17.5 233.75
      vertex 17.82 12.68 233.75
      vertex 47 17.5 233.75
    endloop
  endfacet
  facet normal 0 0 1
    outer loop
      vertex 13 10 233.75
      vertex 17.82 12.68 233.75
      vertex 13 17.5 233.75
    endloop
  endfacet
  facet normal 0 0 1
    outer loop
      vertex 17.82 12.68 233.75
      vertex 13 10 233.75
      vertex 17.82 8 233.75
    endloop
  endfacet
  facet normal 0 0 1
    outer loop
      vertex 13 10 233.75
      vertex 12 8 233.75
      vertex 17.82 8 233.75
    endloop
  endfacet
  facet normal 0 0 1
    outer loop
      vertex 12 8 233.75
      vertex -2.32 5.18 233.75
      vertex 12 -8 233.75
    endloop
  endfacet
  facet normal 0 0 1
    outer loop
      vertex 13 10 233.75
      vertex -2.32 5.18 233.75
      vertex 12 8 233.75
    endloop
  endfacet
  facet normal -0 0 1
    outer loop
      vertex -12.5 10 233.75
      vertex -2.32 5.18 233.75
      vertex 13 10 233.75
    endloop
  endfacet
  facet normal 0 0 1
    outer loop
      vertex -7.68 5.18 233.75
      vertex -12.5 10 233.75
      vertex -7.68 -5.18 233.75
    endloop
  endfacet
  facet normal 0 0 1
    outer loop
      vertex -2.32 5.18 233.75
      vertex -12.5 10 233.75
      vertex -7.68 5.18 233.75
    endloop
  endfacet
  facet normal -0 0 1
    outer loop
      vertex 42.18 -12.68 233.75
      vertex 47 -17.5 233.75
      vertex 42.18 12.68 233.75
    endloop
  endfacet
  facet normal -0 0 1
    outer loop
      vertex 17.82 -12.68 233.75
      vertex 47 -17.5 233.75
      vertex 42.18 -12.68 233.75
    endloop
  endfacet
  facet normal 0 0 1
    outer loop
      vertex 17.82 -12.68 233.75
      vertex 13 -17.5 233.75
      vertex 47 -17.5 233.75
    endloop
  endfacet
  facet normal 0 0 1
    outer loop
      vertex 13 -17.5 233.75
      vertex 17.82 -12.68 233.75
      vertex 13 -10 233.75
    endloop
  endfacet
  facet normal 1 -0 0
    outer loop
      vertex 47 -17.5 233.75
      vertex 47 17.5 226.25
      vertex 47 17.5 233.75
    endloop
  endfacet
  facet normal 1 0 0
    outer loop
      vertex 47 17.5 226.25
      vertex 47 -17.5 233.75
      vertex 47 -17.5 226.25
    endloop
  endfacet
  facet normal 0 1 -0
    outer loop
      vertex 47 17.5 226.25
      vertex 13 17.5 233.75
      vertex 47 17.5 233.75
    endloop
  endfacet
  facet normal 0 1 0
    outer loop
      vertex 13 17.5 233.75
      vertex 47 17.5 226.25
      vertex 13 17.5 226.25
    endloop
  endfacet
  facet normal 0 0 -1
    outer loop
      vertex 13 -10 226.25
      vertex -2.32 -5.18 226.25
      vertex 13 10 226.25
    endloop
  endfacet
  facet normal 0 0 -1
    outer loop
      vertex -12.5 -10 226.25
      vertex -2.32 -5.18 226.25
      vertex 13 -10 226.25
    endloop
  endfacet
  facet normal -0 0 -1
    outer loop
      vertex -7.68 -5.18 226.25
      vertex -12.5 -10 226.25
      vertex -7.68 5.18 226.25
    endloop
  endfacet
  facet normal -0 0 -1
    outer loop
      vertex -2.32 -5.18 226.25
      vertex -12.5 -10 226.25
      vertex -7.68 -5.18 226.25
    endloop
  endfacet
  facet normal 0 0 -1
    outer loop
      vertex -2.32 5.18 226.25
      vertex 13 10 226.25
      vertex -2.32 -5.18 226.25
    endloop
  endfacet
  facet normal 0 0 -1
    outer loop
      vertex -12.5 10 226.25
      vertex -2.32 5.18 226.25
      vertex -7.68 5.18 226.25
    endloop
  endfacet
  facet normal 0 0 -1
    outer loop
      vertex -2.32 5.18 226.25
      vertex -12.5 10 226.25
      vertex 13 10 226.25
    endloop
  endfacet
  facet normal 0 0 -1
    outer loop
      vertex -12.5 10 226.25
      vertex -7.68 5.18 226.25
      vertex -12.5 -10 226.25
    endloop
  endfacet
  facet normal 0 0 -1
    outer loop
      vertex 47 -17.5 226.25
      vertex 40 -10.5 226.25
      vertex 47 17.5 226.25
    endloop
  endfacet
  facet normal 0 0 -1
    outer loop
      vertex 47 -17.5 226.25
      vertex 20 -10.5 226.25
      vertex 40 -10.5 226.25
    endloop
  endfacet
  facet normal 0 0 -1
    outer loop
      vertex 13 -10 226.25
      vertex 20 -10.5 226.25
      vertex 13 -17.5 226.25
    endloop
  endfacet
  facet normal 0 0 -1
    outer loop
      vertex 13 -17.5 226.25
      vertex 20 -10.5 226.25
      vertex 47 -17.5 226.25
    endloop
  endfacet
  facet normal 0 0 -1
    outer loop
      vertex 40 10.5 226.25
      vertex 47 17.5 226.25
      vertex 40 -10.5 226.25
    endloop
  endfacet
  facet normal 0 0 -1
    outer loop
      vertex 20 10.5 226.25
      vertex 47 17.5 226.25
      vertex 40 10.5 226.25
    endloop
  endfacet
  facet normal 0 0 -1
    outer loop
      vertex 20 -10.5 226.25
      vertex 13 -10 226.25
      vertex 20 10.5 226.25
    endloop
  endfacet
  facet normal 0 0 -1
    outer loop
      vertex 13 10 226.25
      vertex 20 10.5 226.25
      vertex 13 -10 226.25
    endloop
  endfacet
  facet normal 0 0 -1
    outer loop
      vertex 13 17.5 226.25
      vertex 20 10.5 226.25
      vertex 13 10 226.25
    endloop
  endfacet
  facet normal 0 0 -1
    outer loop
      vertex 20 10.5 226.25
      vertex 13 17.5 226.25
      vertex 47 17.5 226.25
    endloop
  endfacet
  facet normal 0 -1 0
    outer loop
      vertex 13 -17.5 226.25
      vertex 47 -17.5 233.75
      vertex 13 -17.5 233.75
    endloop
  endfacet
  facet normal 0 -1 -0
    outer loop
      vertex 47 -17.5 233.75
      vertex 13 -17.5 226.25
      vertex 47 -17.5 226.25
    endloop
  endfacet
  facet normal -1 0 0
    outer loop
      vertex -12.5 10 226.25
      vertex -12.5 1.42658 229.536
      vertex -12.5 10 233.75
    endloop
  endfacet
  facet normal -1 0 0
    outer loop
      vertex -12.5 10 226.25
      vertex -12.5 0 228.5
      vertex -12.5 1.42658 229.536
    endloop
  endfacet
  facet normal -1 -0 0
    outer loop
      vertex -12.5 0 228.5
      vertex -12.5 -10 226.25
      vertex -12.5 -1.42658 229.536
    endloop
  endfacet
  facet normal -1 0 0
    outer loop
      vertex -12.5 -10 226.25
      vertex -12.5 0 228.5
      vertex -12.5 10 226.25
    endloop
  endfacet
  facet normal -1 0 0
    outer loop
      vertex -12.5 0.881678 231.214
      vertex -12.5 10 233.75
      vertex -12.5 1.42658 229.536
    endloop
  endfacet
  facet normal -1 0 0
    outer loop
      vertex -12.5 -0.881678 231.214
      vertex -12.5 10 233.75
      vertex -12.5 0.881678 231.214
    endloop
  endfacet
  facet normal -1 0 0
    outer loop
      vertex -12.5 -10 233.75
      vertex -12.5 -1.42658 229.536
      vertex -12.5 -10 226.25
    endloop
  endfacet
  facet normal -1 0 0
    outer loop
      vertex -12.5 -0.881678 231.214
      vertex -12.5 -10 233.75
      vertex -12.5 10 233.75
    endloop
  endfacet
  facet normal -1 0 0
    outer loop
      vertex -12.5 -1.42658 229.536
      vertex -12.5 -10 233.75
      vertex -12.5 -0.881678 231.214
    endloop
  endfacet
  facet normal 0 1 -0
    outer loop
      vertex 13 10 226.25
      vertex -12.5 10 233.75
      vertex 13 10 233.75
    endloop
  endfacet
  facet normal 0 1 0
    outer loop
      vertex -12.5 10 233.75
      vertex 13 10 226.25
      vertex -12.5 10 226.25
    endloop
  endfacet
  facet normal 0 -1 0
    outer loop
      vertex -12.5 -10 226.25
      vertex 13 -10 233.75
      vertex -12.5 -10 233.75
    endloop
  endfacet
  facet normal 0 -1 -0
    outer loop
      vertex 13 -10 233.75
      vertex -12.5 -10 226.25
      vertex 13 -10 226.25
    endloop
  endfacet
  facet normal 1 -0 0
    outer loop
      vertex 17.82 -12.68 233.75
      vertex 17.82 -8 231.75
      vertex 17.82 -8 233.75
    endloop
  endfacet
  facet normal 1 0 0
    outer loop
      vertex 17.82 -8 231.75
      vertex 17.82 -12.68 233.75
      vertex 17.82 -12.68 231.75
    endloop
  endfacet
  facet normal 1 -0 0
    outer loop
      vertex 17.82 8 233.75
      vertex 17.82 12.68 231.75
      vertex 17.82 12.68 233.75
    endloop
  endfacet
  facet normal 1 0 0
    outer loop
      vertex 17.82 12.68 231.75
      vertex 17.82 8 233.75
      vertex 17.82 8 231.75
    endloop
  endfacet
  facet normal -1 0 0
    outer loop
      vertex 42.18 -12.68 231.75
      vertex 42.18 12.68 233.75
      vertex 42.18 12.68 231.75
    endloop
  endfacet
  facet normal -1 -0 0
    outer loop
      vertex 42.18 12.68 233.75
      vertex 42.18 -12.68 231.75
      vertex 42.18 -12.68 233.75
    endloop
  endfacet
  facet normal 0 0 1
    outer loop
      vertex 20 -8 231.75
      vertex 17.82 -8 231.75
      vertex 20 -10.5 231.75
    endloop
  endfacet
  facet normal 0 0 1
    outer loop
      vertex 25 -10.5 231.75
      vertex 20 -10.5 231.75
      vertex 25 -12.5 231.75
    endloop
  endfacet
  facet normal 0 0 1
    outer loop
      vertex 42.18 12.68 231.75
      vertex 40 10.5 231.75
      vertex 42.18 -12.68 231.75
    endloop
  endfacet
  facet normal 0 0 1
    outer loop
      vertex 42.18 12.68 231.75
      vertex 20 10.5 231.75
      vertex 40 10.5 231.75
    endloop
  endfacet
  facet normal -0 0 1
    outer loop
      vertex 17.82 12.68 231.75
      vertex 20 10.5 231.75
      vertex 42.18 12.68 231.75
    endloop
  endfacet
  facet normal 0 0 1
    outer loop
      vertex 17.82 8 231.75
      vertex 20 10.5 231.75
      vertex 17.82 12.68 231.75
    endloop
  endfacet
  facet normal 0 0 1
    outer loop
      vertex 20 10.5 231.75
      vertex 17.82 8 231.75
      vertex 20 8 231.75
    endloop
  endfacet
  facet normal -0 0 1
    outer loop
      vertex 40 -12.5 231.75
      vertex 42.18 -12.68 231.75
      vertex 40 10.5 231.75
    endloop
  endfacet
  facet normal -0 0 1
    outer loop
      vertex 25 -12.5 231.75
      vertex 42.18 -12.68 231.75
      vertex 40 -12.5 231.75
    endloop
  endfacet
  facet normal 0 0 1
    outer loop
      vertex 25 -12.5 231.75
      vertex 17.82 -12.68 231.75
      vertex 42.18 -12.68 231.75
    endloop
  endfacet
  facet normal 0 0 1
    outer loop
      vertex 20 -10.5 231.75
      vertex 17.82 -12.68 231.75
      vertex 25 -12.5 231.75
    endloop
  endfacet
  facet normal 0 0 1
    outer loop
      vertex 17.82 -12.68 231.75
      vertex 20 -10.5 231.75
      vertex 17.82 -8 231.75
    endloop
  endfacet
  facet normal 0 1 -0
    outer loop
      vertex 42.18 -12.68 231.75
      vertex 17.82 -12.68 233.75
      vertex 42.18 -12.68 233.75
    endloop
  endfacet
  facet normal 0 1 0
    outer loop
      vertex 17.82 -12.68 233.75
      vertex 42.18 -12.68 231.75
      vertex 17.82 -12.68 231.75
    endloop
  endfacet
  facet normal 0 -1 0
    outer loop
      vertex 17.82 12.68 231.75
      vertex 42.18 12.68 233.75
      vertex 17.82 12.68 233.75
    endloop
  endfacet
  facet normal 0 -1 -0
    outer loop
      vertex 42.18 12.68 233.75
      vertex 17.82 12.68 231.75
      vertex 42.18 12.68 231.75
    endloop
  endfacet
  facet normal 1 -0 0
    outer loop
      vertex 12 -8 233.75
      vertex 12 8 228.75
      vertex 12 8 233.75
    endloop
  endfacet
  facet normal 1 0 0
    outer loop
      vertex 12 8 228.75
      vertex 12 -8 233.75
      vertex 12 -8 228.75
    endloop
  endfacet
  facet normal 0 -1 0
    outer loop
      vertex 12 8 233.75
      vertex 17.82 8 231.75
      vertex 17.82 8 233.75
    endloop
  endfacet
  facet normal 0 -1 0
    outer loop
      vertex 12 8 228.75
      vertex 17.82 8 231.75
      vertex 12 8 233.75
    endloop
  endfacet
  facet normal 0 -1 0
    outer loop
      vertex 20 8 228.75
      vertex 17.82 8 231.75
      vertex 12 8 228.75
    endloop
  endfacet
  facet normal 0 -1 0
    outer loop
      vertex 17.82 8 231.75
      vertex 20 8 228.75
      vertex 20 8 231.75
    endloop
  endfacet
  facet normal -0 0 1
    outer loop
      vertex 12 8 228.75
      vertex 20 -8 228.75
      vertex 20 8 228.75
    endloop
  endfacet
  facet normal 0 0 1
    outer loop
      vertex 20 -8 228.75
      vertex 12 8 228.75
      vertex 12 -8 228.75
    endloop
  endfacet
  facet normal 0 1 0
    outer loop
      vertex 20 -8 231.75
      vertex 20 -8 228.75
      vertex 17.82 -8 231.75
    endloop
  endfacet
  facet normal 0 1 -0
    outer loop
      vertex 17.82 -8 231.75
      vertex 12 -8 233.75
      vertex 17.82 -8 233.75
    endloop
  endfacet
  facet normal 0 1 0
    outer loop
      vertex 12 -8 228.75
      vertex 17.82 -8 231.75
      vertex 20 -8 228.75
    endloop
  endfacet
  facet normal 0 1 0
    outer loop
      vertex 17.82 -8 231.75
      vertex 12 -8 228.75
      vertex 12 -8 233.75
    endloop
  endfacet
  facet normal 1 -0 0
    outer loop
      vertex 25 -12.5 231.75
      vertex 25 -10.5 228.75
      vertex 25 -10.5 231.75
    endloop
  endfacet
  facet normal 1 0 0
    outer loop
      vertex 25 -10.5 228.75
      vertex 25 -12.5 231.75
      vertex 25 -12.5 228.75
    endloop
  endfacet
  facet normal -1 0 0
    outer loop
      vertex 40 -10.5 228.75
      vertex 40 10.5 226.25
      vertex 40 -10.5 226.25
    endloop
  endfacet
  facet normal -1 0 0
    outer loop
      vertex 40 10.5 226.25
      vertex 40 -10.5 228.75
      vertex 40 10.5 231.75
    endloop
  endfacet
  facet normal -1 0 0
    outer loop
      vertex 40 -12.5 231.75
      vertex 40 -10.5 228.75
      vertex 40 -12.5 228.75
    endloop
  endfacet
  facet normal -1 0 0
    outer loop
      vertex 40 -10.5 228.75
      vertex 40 -12.5 231.75
      vertex 40 10.5 231.75
    endloop
  endfacet
  facet normal -0 0 1
    outer loop
      vertex 25 -10.5 228.75
      vertex 40 -12.5 228.75
      vertex 40 -10.5 228.75
    endloop
  endfacet
  facet normal 0 0 1
    outer loop
      vertex 40 -12.5 228.75
      vertex 25 -10.5 228.75
      vertex 25 -12.5 228.75
    endloop
  endfacet
  facet normal 0 1 -0
    outer loop
      vertex 40 -12.5 228.75
      vertex 25 -12.5 231.75
      vertex 40 -12.5 231.75
    endloop
  endfacet
  facet normal 0 1 0
    outer loop
      vertex 25 -12.5 231.75
      vertex 40 -12.5 228.75
      vertex 25 -12.5 228.75
    endloop
  endfacet
  facet normal 0 1 0
    outer loop
      vertex 40 -10.5 228.75
      vertex 40 -10.5 226.25
      vertex 25 -10.5 228.75
    endloop
  endfacet
  facet normal 0 1 -0
    outer loop
      vertex 25 -10.5 228.75
      vertex 20 -10.5 231.75
      vertex 25 -10.5 231.75
    endloop
  endfacet
  facet normal 0 1 0
    outer loop
      vertex 25 -10.5 228.75
      vertex 20 -10.5 226.25
      vertex 20 -10.5 231.75
    endloop
  endfacet
  facet normal 0 1 0
    outer loop
      vertex 20 -10.5 226.25
      vertex 25 -10.5 228.75
      vertex 40 -10.5 226.25
    endloop
  endfacet
  facet normal 1 0 0
    outer loop
      vertex 20 -8 231.75
      vertex 20 -10.5 231.75
      vertex 20 -8 228.75
    endloop
  endfacet
  facet normal 1 0 0
    outer loop
      vertex 20 8 228.75
      vertex 20 10.5 231.75
      vertex 20 8 231.75
    endloop
  endfacet
  facet normal 1 0 0
    outer loop
      vertex 20 10.5 231.75
      vertex 20 8 228.75
      vertex 20 10.5 226.25
    endloop
  endfacet
  facet normal 1 -0 0
    outer loop
      vertex 20 -8 228.75
      vertex 20 10.5 226.25
      vertex 20 8 228.75
    endloop
  endfacet
  facet normal 1 0 0
    outer loop
      vertex 20 -8 228.75
      vertex 20 -10.5 226.25
      vertex 20 10.5 226.25
    endloop
  endfacet
  facet normal 1 0 0
    outer loop
      vertex 20 -10.5 226.25
      vertex 20 -8 228.75
      vertex 20 -10.5 231.75
    endloop
  endfacet
  facet normal 0 -1 0
    outer loop
      vertex 20 10.5 226.25
      vertex 40 10.5 231.75
      vertex 20 10.5 231.75
    endloop
  endfacet
  facet normal 0 -1 -0
    outer loop
      vertex 40 10.5 231.75
      vertex 20 10.5 226.25
      vertex 40 10.5 226.25
    endloop
  endfacet
  facet normal 1 0 0
    outer loop
      vertex -7.68 5.18 233.75
      vertex -7.68 1.42658 229.536
      vertex -7.68 5.18 226.25
    endloop
  endfacet
  facet normal 1 0 0
    outer loop
      vertex -7.68 5.18 233.75
      vertex -7.68 0.881678 231.214
      vertex -7.68 1.42658 229.536
    endloop
  endfacet
  facet normal 1 0 0
    outer loop
      vertex -7.68 5.18 233.75
      vertex -7.68 -0.881678 231.214
      vertex -7.68 0.881678 231.214
    endloop
  endfacet
  facet normal 1 0 0
    outer loop
      vertex -7.68 -0.881678 231.214
      vertex -7.68 -5.18 233.75
      vertex -7.68 -1.42658 229.536
    endloop
  endfacet
  facet normal 1 -0 0
    outer loop
      vertex -7.68 -5.18 233.75
      vertex -7.68 -0.881678 231.214
      vertex -7.68 5.18 233.75
    endloop
  endfacet
  facet normal 1 -0 0
    outer loop
      vertex -7.68 0 228.5
      vertex -7.68 5.18 226.25
      vertex -7.68 1.42658 229.536
    endloop
  endfacet
  facet normal 1 0 0
    outer loop
      vertex -7.68 0 228.5
      vertex -7.68 -5.18 226.25
      vertex -7.68 5.18 226.25
    endloop
  endfacet
  facet normal 1 0 0
    outer loop
      vertex -7.68 -1.42658 229.536
      vertex -7.68 -5.18 226.25
      vertex -7.68 0 228.5
    endloop
  endfacet
  facet normal 1 0 0
    outer loop
      vertex -7.68 -5.18 226.25
      vertex -7.68 -1.42658 229.536
      vertex -7.68 -5.18 233.75
    endloop
  endfacet
  facet normal -1 0 0
    outer loop
      vertex -2.32 5.18 226.25
      vertex -2.32 1.42658 229.536
      vertex -2.32 5.18 233.75
    endloop
  endfacet
  facet normal -1 0 0
    outer loop
      vertex -2.32 5.18 226.25
      vertex -2.32 0 228.5
      vertex -2.32 1.42658 229.536
    endloop
  endfacet
  facet normal -1 -0 0
    outer loop
      vertex -2.32 0 228.5
      vertex -2.32 -5.18 226.25
      vertex -2.32 -1.42658 229.536
    endloop
  endfacet
  facet normal -1 0 0
    outer loop
      vertex -2.32 -5.18 226.25
      vertex -2.32 0 228.5
      vertex -2.32 5.18 226.25
    endloop
  endfacet
  facet normal -1 0 0
    outer loop
      vertex -2.32 0.881678 231.214
      vertex -2.32 5.18 233.75
      vertex -2.32 1.42658 229.536
    endloop
  endfacet
  facet normal -1 0 0
    outer loop
      vertex -2.32 -0.881678 231.214
      vertex -2.32 5.18 233.75
      vertex -2.32 0.881678 231.214
    endloop
  endfacet
  facet normal -1 0 0
    outer loop
      vertex -2.32 -5.18 233.75
      vertex -2.32 -1.42658 229.536
      vertex -2.32 -5.18 226.25
    endloop
  endfacet
  facet normal -1 0 0
    outer loop
      vertex -2.32 -0.881678 231.214
      vertex -2.32 -5.18 233.75
      vertex -2.32 5.18 233.75
    endloop
  endfacet
  facet normal -1 0 0
    outer loop
      vertex -2.32 -1.42658 229.536
      vertex -2.32 -5.18 233.75
      vertex -2.32 -0.881678 231.214
    endloop
  endfacet
  facet normal 0 -1 0
    outer loop
      vertex -7.68 5.18 226.25
      vertex -2.32 5.18 233.75
      vertex -7.68 5.18 233.75
    endloop
  endfacet
  facet normal 0 -1 -0
    outer loop
      vertex -2.32 5.18 233.75
      vertex -7.68 5.18 226.25
      vertex -2.32 5.18 226.25
    endloop
  endfacet
  facet normal 0 1 -0
    outer loop
      vertex -2.32 -5.18 226.25
      vertex -7.68 -5.18 233.75
      vertex -2.32 -5.18 233.75
    endloop
  endfacet
  facet normal 0 1 0
    outer loop
      vertex -7.68 -5.18 233.75
      vertex -2.32 -5.18 226.25
      vertex -7.68 -5.18 226.25
    endloop
  endfacet
  facet normal 0 -0.587783 0.809019
    outer loop
      vertex -2.32 1.42658 229.536
      vertex 7 0 228.5
      vertex 7 1.42658 229.536
    endloop
  endfacet
  facet normal 0 -0.587783 0.809019
    outer loop
      vertex 7 0 228.5
      vertex -2.32 1.42658 229.536
      vertex -2.32 0 228.5
    endloop
  endfacet
  facet normal 0 -0.587783 0.809019
    outer loop
      vertex -12.5 1.42658 229.536
      vertex -7.68 0 228.5
      vertex -7.68 1.42658 229.536
    endloop
  endfacet
  facet normal 0 -0.587783 0.809019
    outer loop
      vertex -7.68 0 228.5
      vertex -12.5 1.42658 229.536
      vertex -12.5 0 228.5
    endloop
  endfacet
  facet normal 0 0 -1
    outer loop
      vertex -2.32 -0.881678 231.214
      vertex 7 0.881678 231.214
      vertex 7 -0.881678 231.214
    endloop
  endfacet
  facet normal -0 0 -1
    outer loop
      vertex 7 0.881678 231.214
      vertex -2.32 -0.881678 231.214
      vertex -2.32 0.881678 231.214
    endloop
  endfacet
  facet normal 0 0 -1
    outer loop
      vertex -12.5 -0.881678 231.214
      vertex -7.68 0.881678 231.214
      vertex -7.68 -0.881678 231.214
    endloop
  endfacet
  facet normal -0 0 -1
    outer loop
      vertex -7.68 0.881678 231.214
      vertex -12.5 -0.881678 231.214
      vertex -12.5 0.881678 231.214
    endloop
  endfacet
  facet normal 0 -0.951057 -0.309015
    outer loop
      vertex -2.32 1.42658 229.536
      vertex 7 0.881678 231.214
      vertex -2.32 0.881678 231.214
    endloop
  endfacet
  facet normal 0 -0.951057 -0.309015
    outer loop
      vertex 7 0.881678 231.214
      vertex -2.32 1.42658 229.536
      vertex 7 1.42658 229.536
    endloop
  endfacet
  facet normal 0 -0.951057 -0.309015
    outer loop
      vertex -12.5 1.42658 229.536
      vertex -7.68 0.881678 231.214
      vertex -12.5 0.881678 231.214
    endloop
  endfacet
  facet normal 0 -0.951057 -0.309015
    outer loop
      vertex -7.68 0.881678 231.214
      vertex -12.5 1.42658 229.536
      vertex -7.68 1.42658 229.536
    endloop
  endfacet
  facet normal -1 0 0
    outer loop
      vertex 7 0 228.5
      vertex 7 0.881678 231.214
      vertex 7 1.42658 229.536
    endloop
  endfacet
  facet normal -1 0 0
    outer loop
      vertex 7 0 228.5
      vertex 7 -0.881678 231.214
      vertex 7 0.881678 231.214
    endloop
  endfacet
  facet normal -1 0 -0
    outer loop
      vertex 7 -0.881678 231.214
      vertex 7 0 228.5
      vertex 7 -1.42658 229.536
    endloop
  endfacet
  facet normal 0 0.951057 -0.309015
    outer loop
      vertex 7 -1.42658 229.536
      vertex -2.32 -0.881678 231.214
      vertex 7 -0.881678 231.214
    endloop
  endfacet
  facet normal 0 0.951057 -0.309015
    outer loop
      vertex -2.32 -0.881678 231.214
      vertex 7 -1.42658 229.536
      vertex -2.32 -1.42658 229.536
    endloop
  endfacet
  facet normal 0 0.951057 -0.309015
    outer loop
      vertex -7.68 -1.42658 229.536
      vertex -12.5 -0.881678 231.214
      vertex -7.68 -0.881678 231.214
    endloop
  endfacet
  facet normal 0 0.951057 -0.309015
    outer loop
      vertex -12.5 -0.881678 231.214
      vertex -7.68 -1.42658 229.536
      vertex -12.5 -1.42658 229.536
    endloop
  endfacet
  facet normal -0 0.587783 0.809019
    outer loop
      vertex -2.32 0 228.5
      vertex 7 -1.42658 229.536
      vertex 7 0 228.5
    endloop
  endfacet
  facet normal 0 0.587783 0.809019
    outer loop
      vertex 7 -1.42658 229.536
      vertex -2.32 0 228.5
      vertex -2.32 -1.42658 229.536
    endloop
  endfacet
  facet normal -0 0.587783 0.809019
    outer loop
      vertex -12.5 0 228.5
      vertex -7.68 -1.42658 229.536
      vertex -7.68 0 228.5
    endloop
  endfacet
  facet normal 0 0.587783 0.809019
    outer loop
      vertex -7.68 -1.42658 229.536
      vertex -12.5 0 228.5
      vertex -12.5 -1.42658 229.536
    endloop
  endfacet
endsolid OpenSCAD_Model
