solid OpenSCAD_Model
  facet normal -1 0 0
    outer loop
      vertex 12.9 -17.6 226.25
      vertex 12.9 -10 233.75
      vertex 12.9 -10 226.25
    endloop
  endfacet
  facet normal -1 -0 0
    outer loop
      vertex 12.9 -10 233.75
      vertex 12.9 -17.6 226.25
      vertex 12.9 -17.6 233.75
    endloop
  endfacet
  facet normal -1 0 0
    outer loop
      vertex 12.9 10 226.25
      vertex 12.9 17.6 233.75
      vertex 12.9 17.6 226.25
    endloop
  endfacet
  facet normal -1 -0 0
    outer loop
      vertex 12.9 17.6 233.75
      vertex 12.9 10 226.25
      vertex 12.9 10 233.75
    endloop
  endfacet
  facet normal 0 0 1
    outer loop
      vertex 17.65 -8.05 233.75
      vertex 12.9 -10 233.75
      vertex 17.65 -12.85 233.75
    endloop
  endfacet
  facet normal -0 0 1
    outer loop
      vertex 5.9 -8.05 233.75
      vertex 12.9 -10 233.75
      vertex 17.65 -8.05 233.75
    endloop
  endfacet
  facet normal -0 0 1
    outer loop
      vertex -2.25 -5.25 233.75
      vertex 5.9 -8.05 233.75
      vertex -2.25 5.25 233.75
    endloop
  endfacet
  facet normal 0 0 1
    outer loop
      vertex -12.5 -10 233.75
      vertex -2.25 -5.25 233.75
      vertex -7.75 -5.25 233.75
    endloop
  endfacet
  facet normal 0 0 1
    outer loop
      vertex -2.25 -5.25 233.75
      vertex -12.5 -10 233.75
      vertex 5.9 -8.05 233.75
    endloop
  endfacet
  facet normal 0 0 1
    outer loop
      vertex 5.9 -8.05 233.75
      vertex -12.5 -10 233.75
      vertex 12.9 -10 233.75
    endloop
  endfacet
  facet normal 0 0 1
    outer loop
      vertex -12.5 -10 233.75
      vertex -7.75 -5.25 233.75
      vertex -12.5 10 233.75
    endloop
  endfacet
  facet normal 0 0 1
    outer loop
      vertex 19.9 -12.85 233.75
      vertex 17.65 -12.85 233.75
      vertex 19.9 -13.35 233.75
    endloop
  endfacet
  facet normal 0 0 1
    outer loop
      vertex 47.1 17.6 233.75
      vertex 42.35 12.85 233.75
      vertex 47.1 -17.6 233.75
    endloop
  endfacet
  facet normal 0 0 1
    outer loop
      vertex 47.1 17.6 233.75
      vertex 40.1 13.35 233.75
      vertex 42.35 12.85 233.75
    endloop
  endfacet
  facet normal 0 0 1
    outer loop
      vertex 47.1 17.6 233.75
      vertex 19.9 13.35 233.75
      vertex 40.1 13.35 233.75
    endloop
  endfacet
  facet normal 0 0 1
    outer loop
      vertex 19.9 13.35 233.75
      vertex 17.65 12.85 233.75
      vertex 19.9 12.85 233.75
    endloop
  endfacet
  facet normal -0 0 1
    outer loop
      vertex 12.9 17.6 233.75
      vertex 19.9 13.35 233.75
      vertex 47.1 17.6 233.75
    endloop
  endfacet
  facet normal 0 0 1
    outer loop
      vertex 12.9 17.6 233.75
      vertex 17.65 12.85 233.75
      vertex 19.9 13.35 233.75
    endloop
  endfacet
  facet normal 0 0 1
    outer loop
      vertex 12.9 10 233.75
      vertex 17.65 12.85 233.75
      vertex 12.9 17.6 233.75
    endloop
  endfacet
  facet normal 0 0 1
    outer loop
      vertex 17.65 12.85 233.75
      vertex 12.9 10 233.75
      vertex 17.65 8.05 233.75
    endloop
  endfacet
  facet normal 0 0 1
    outer loop
      vertex 12.9 10 233.75
      vertex 5.9 8.05 233.75
      vertex 17.65 8.05 233.75
    endloop
  endfacet
  facet normal 0 0 1
    outer loop
      vertex 5.9 8.05 233.75
      vertex -2.25 5.25 233.75
      vertex 5.9 -8.05 233.75
    endloop
  endfacet
  facet normal 0 0 1
    outer loop
      vertex -12.5 10 233.75
      vertex -2.25 5.25 233.75
      vertex 5.9 8.05 233.75
    endloop
  endfacet
  facet normal -0 0 1
    outer loop
      vertex -12.5 10 233.75
      vertex 5.9 8.05 233.75
      vertex 12.9 10 233.75
    endloop
  endfacet
  facet normal 0 0 1
    outer loop
      vertex -7.75 5.25 233.75
      vertex -12.5 10 233.75
      vertex -7.75 -5.25 233.75
    endloop
  endfacet
  facet normal 0 0 1
    outer loop
      vertex -2.25 5.25 233.75
      vertex -12.5 10 233.75
      vertex -7.75 5.25 233.75
    endloop
  endfacet
  facet normal -0 0 1
    outer loop
      vertex 42.35 -12.85 233.75
      vertex 47.1 -17.6 233.75
      vertex 42.35 12.85 233.75
    endloop
  endfacet
  facet normal 0 0 1
    outer loop
      vertex 40.1 -13.35 233.75
      vertex 42.35 -12.85 233.75
      vertex 40.1 -12.85 233.75
    endloop
  endfacet
  facet normal 0 0 1
    outer loop
      vertex 42.35 -12.85 233.75
      vertex 40.1 -13.35 233.75
      vertex 47.1 -17.6 233.75
    endloop
  endfacet
  facet normal -0 0 1
    outer loop
      vertex 19.9 -13.35 233.75
      vertex 47.1 -17.6 233.75
      vertex 40.1 -13.35 233.75
    endloop
  endfacet
  facet normal 0 0 1
    outer loop
      vertex 19.9 -13.35 233.75
      vertex 12.9 -17.6 233.75
      vertex 47.1 -17.6 233.75
    endloop
  endfacet
  facet normal 0 0 1
    outer loop
      vertex 17.65 -12.85 233.75
      vertex 12.9 -17.6 233.75
      vertex 19.9 -13.35 233.75
    endloop
  endfacet
  facet normal 0 0 1
    outer loop
      vertex 12.9 -17.6 233.75
      vertex 17.65 -12.85 233.75
      vertex 12.9 -10 233.75
    endloop
  endfacet
  facet normal 0 0 1
    outer loop
      vertex 42.35 12.85 233.75
      vertex 40.1 13.35 233.75
      vertex 40.1 12.85 233.75
    endloop
  endfacet
  facet normal 1 -0 0
    outer loop
      vertex 47.1 -17.6 233.75
      vertex 47.1 17.6 226.25
      vertex 47.1 17.6 233.75
    endloop
  endfacet
  facet normal 1 0 0
    outer loop
      vertex 47.1 17.6 226.25
      vertex 47.1 -17.6 233.75
      vertex 47.1 -17.6 226.25
    endloop
  endfacet
  facet normal 0 1 -0
    outer loop
      vertex 47.1 17.6 226.25
      vertex 12.9 17.6 233.75
      vertex 47.1 17.6 233.75
    endloop
  endfacet
  facet normal 0 1 0
    outer loop
      vertex 12.9 17.6 233.75
      vertex 47.1 17.6 226.25
      vertex 12.9 17.6 226.25
    endloop
  endfacet
  facet normal 0 0 -1
    outer loop
      vertex 12.9 -10 226.25
      vertex -2.25 -5.25 226.25
      vertex 12.9 10 226.25
    endloop
  endfacet
  facet normal 0 0 -1
    outer loop
      vertex -12.5 -10 226.25
      vertex -2.25 -5.25 226.25
      vertex 12.9 -10 226.25
    endloop
  endfacet
  facet normal -0 0 -1
    outer loop
      vertex -7.75 -5.25 226.25
      vertex -12.5 -10 226.25
      vertex -7.75 5.25 226.25
    endloop
  endfacet
  facet normal -0 0 -1
    outer loop
      vertex -2.25 -5.25 226.25
      vertex -12.5 -10 226.25
      vertex -7.75 -5.25 226.25
    endloop
  endfacet
  facet normal 0 0 -1
    outer loop
      vertex -2.25 5.25 226.25
      vertex 12.9 10 226.25
      vertex -2.25 -5.25 226.25
    endloop
  endfacet
  facet normal 0 0 -1
    outer loop
      vertex -12.5 10 226.25
      vertex -2.25 5.25 226.25
      vertex -7.75 5.25 226.25
    endloop
  endfacet
  facet normal 0 0 -1
    outer loop
      vertex -2.25 5.25 226.25
      vertex -12.5 10 226.25
      vertex 12.9 10 226.25
    endloop
  endfacet
  facet normal 0 0 -1
    outer loop
      vertex -12.5 10 226.25
      vertex -7.75 5.25 226.25
      vertex -12.5 -10 226.25
    endloop
  endfacet
  facet normal 0 0 -1
    outer loop
      vertex 47.1 -17.6 226.25
      vertex 40.1 -13.35 226.25
      vertex 47.1 17.6 226.25
    endloop
  endfacet
  facet normal 0 0 -1
    outer loop
      vertex 47.1 -17.6 226.25
      vertex 19.9 -13.35 226.25
      vertex 40.1 -13.35 226.25
    endloop
  endfacet
  facet normal 0 0 -1
    outer loop
      vertex 12.9 -10 226.25
      vertex 19.9 -13.35 226.25
      vertex 12.9 -17.6 226.25
    endloop
  endfacet
  facet normal 0 0 -1
    outer loop
      vertex 12.9 -17.6 226.25
      vertex 19.9 -13.35 226.25
      vertex 47.1 -17.6 226.25
    endloop
  endfacet
  facet normal 0 0 -1
    outer loop
      vertex 40.1 13.35 226.25
      vertex 47.1 17.6 226.25
      vertex 40.1 -13.35 226.25
    endloop
  endfacet
  facet normal 0 0 -1
    outer loop
      vertex 19.9 13.35 226.25
      vertex 47.1 17.6 226.25
      vertex 40.1 13.35 226.25
    endloop
  endfacet
  facet normal 0 0 -1
    outer loop
      vertex 19.9 -13.35 226.25
      vertex 12.9 -10 226.25
      vertex 19.9 13.35 226.25
    endloop
  endfacet
  facet normal 0 0 -1
    outer loop
      vertex 12.9 10 226.25
      vertex 19.9 13.35 226.25
      vertex 12.9 -10 226.25
    endloop
  endfacet
  facet normal 0 0 -1
    outer loop
      vertex 19.9 13.35 226.25
      vertex 12.9 17.6 226.25
      vertex 47.1 17.6 226.25
    endloop
  endfacet
  facet normal 0 0 -1
    outer loop
      vertex 12.9 17.6 226.25
      vertex 19.9 13.35 226.25
      vertex 12.9 10 226.25
    endloop
  endfacet
  facet normal 0 -1 0
    outer loop
      vertex 12.9 -17.6 226.25
      vertex 47.1 -17.6 233.75
      vertex 12.9 -17.6 233.75
    endloop
  endfacet
  facet normal 0 -1 -0
    outer loop
      vertex 47.1 -17.6 233.75
      vertex 12.9 -17.6 226.25
      vertex 47.1 -17.6 226.25
    endloop
  endfacet
  facet normal -1 0 0
    outer loop
      vertex -12.5 10 226.25
      vertex -12.5 1.42658 229.536
      vertex -12.5 10 233.75
    endloop
  endfacet
  facet normal -1 0 0
    outer loop
      vertex -12.5 10 226.25
      vertex -12.5 0 228.5
      vertex -12.5 1.42658 229.536
    endloop
  endfacet
  facet normal -1 -0 0
    outer loop
      vertex -12.5 0 228.5
      vertex -12.5 -10 226.25
      vertex -12.5 -1.42658 229.536
    endloop
  endfacet
  facet normal -1 0 0
    outer loop
      vertex -12.5 -10 226.25
      vertex -12.5 0 228.5
      vertex -12.5 10 226.25
    endloop
  endfacet
  facet normal -1 0 0
    outer loop
      vertex -12.5 0.881678 231.214
      vertex -12.5 10 233.75
      vertex -12.5 1.42658 229.536
    endloop
  endfacet
  facet normal -1 0 0
    outer loop
      vertex -12.5 -0.881678 231.214
      vertex -12.5 10 233.75
      vertex -12.5 0.881678 231.214
    endloop
  endfacet
  facet normal -1 0 0
    outer loop
      vertex -12.5 -10 233.75
      vertex -12.5 -1.42658 229.536
      vertex -12.5 -10 226.25
    endloop
  endfacet
  facet normal -1 0 0
    outer loop
      vertex -12.5 -0.881678 231.214
      vertex -12.5 -10 233.75
      vertex -12.5 10 233.75
    endloop
  endfacet
  facet normal -1 0 0
    outer loop
      vertex -12.5 -1.42658 229.536
      vertex -12.5 -10 233.75
      vertex -12.5 -0.881678 231.214
    endloop
  endfacet
  facet normal 0 1 -0
    outer loop
      vertex 12.9 10 226.25
      vertex -12.5 10 233.75
      vertex 12.9 10 233.75
    endloop
  endfacet
  facet normal 0 1 0
    outer loop
      vertex -12.5 10 233.75
      vertex 12.9 10 226.25
      vertex -12.5 10 226.25
    endloop
  endfacet
  facet normal 0 -1 0
    outer loop
      vertex -12.5 -10 226.25
      vertex 12.9 -10 233.75
      vertex -12.5 -10 233.75
    endloop
  endfacet
  facet normal 0 -1 -0
    outer loop
      vertex 12.9 -10 233.75
      vertex -12.5 -10 226.25
      vertex 12.9 -10 226.25
    endloop
  endfacet
  facet normal 1 -0 0
    outer loop
      vertex 17.65 -12.85 233.75
      vertex 17.65 -8.05 231.75
      vertex 17.65 -8.05 233.75
    endloop
  endfacet
  facet normal 1 0 0
    outer loop
      vertex 17.65 -8.05 231.75
      vertex 17.65 -12.85 233.75
      vertex 17.65 -12.85 231.75
    endloop
  endfacet
  facet normal 1 -0 0
    outer loop
      vertex 17.65 8.05 233.75
      vertex 17.65 12.85 231.75
      vertex 17.65 12.85 233.75
    endloop
  endfacet
  facet normal 1 0 0
    outer loop
      vertex 17.65 12.85 231.75
      vertex 17.65 8.05 233.75
      vertex 17.65 8.05 231.75
    endloop
  endfacet
  facet normal -1 0 0
    outer loop
      vertex 42.35 -12.85 231.75
      vertex 42.35 12.85 233.75
      vertex 42.35 12.85 231.75
    endloop
  endfacet
  facet normal -1 -0 0
    outer loop
      vertex 42.35 12.85 233.75
      vertex 42.35 -12.85 231.75
      vertex 42.35 -12.85 233.75
    endloop
  endfacet
  facet normal 0 -1 0
    outer loop
      vertex 40.1 12.85 231.75
      vertex 42.35 12.85 233.75
      vertex 40.1 12.85 233.75
    endloop
  endfacet
  facet normal 0 -1 -0
    outer loop
      vertex 42.35 12.85 233.75
      vertex 40.1 12.85 231.75
      vertex 42.35 12.85 231.75
    endloop
  endfacet
  facet normal 0 -1 0
    outer loop
      vertex 17.65 12.85 231.75
      vertex 19.9 12.85 233.75
      vertex 17.65 12.85 233.75
    endloop
  endfacet
  facet normal 0 -1 -0
    outer loop
      vertex 19.9 12.85 233.75
      vertex 17.65 12.85 231.75
      vertex 19.9 12.85 231.75
    endloop
  endfacet
  facet normal 0 0 1
    outer loop
      vertex 19.9 12.85 231.75
      vertex 17.9 12 231.75
      vertex 19.9 12 231.75
    endloop
  endfacet
  facet normal -0 0 1
    outer loop
      vertex 17.65 12.85 231.75
      vertex 17.9 12 231.75
      vertex 19.9 12.85 231.75
    endloop
  endfacet
  facet normal 0 0 1
    outer loop
      vertex 17.65 8.05 231.75
      vertex 17.9 12 231.75
      vertex 17.65 12.85 231.75
    endloop
  endfacet
  facet normal 0 0 1
    outer loop
      vertex 17.9 12 231.75
      vertex 17.65 8.05 231.75
      vertex 17.9 8.05 231.75
    endloop
  endfacet
  facet normal 0 0 1
    outer loop
      vertex 17.9 -8.05 231.75
      vertex 17.65 -8.05 231.75
      vertex 17.9 -12 231.75
    endloop
  endfacet
  facet normal -0 0 1
    outer loop
      vertex 17.9 -12 231.75
      vertex 19.9 -12.85 231.75
      vertex 19.9 -12 231.75
    endloop
  endfacet
  facet normal 0 0 1
    outer loop
      vertex 17.9 -12 231.75
      vertex 17.65 -12.85 231.75
      vertex 19.9 -12.85 231.75
    endloop
  endfacet
  facet normal 0 0 1
    outer loop
      vertex 17.65 -12.85 231.75
      vertex 17.9 -12 231.75
      vertex 17.65 -8.05 231.75
    endloop
  endfacet
  facet normal -0 0 1
    outer loop
      vertex 40.1 12.85 231.75
      vertex 42.35 -12.85 231.75
      vertex 42.35 12.85 231.75
    endloop
  endfacet
  facet normal 0 0 1
    outer loop
      vertex 42.35 -12.85 231.75
      vertex 40.1 12.85 231.75
      vertex 40.1 -12.85 231.75
    endloop
  endfacet
  facet normal 0 1 -0
    outer loop
      vertex 19.9 -12.85 231.75
      vertex 17.65 -12.85 233.75
      vertex 19.9 -12.85 233.75
    endloop
  endfacet
  facet normal 0 1 0
    outer loop
      vertex 17.65 -12.85 233.75
      vertex 19.9 -12.85 231.75
      vertex 17.65 -12.85 231.75
    endloop
  endfacet
  facet normal 0 1 -0
    outer loop
      vertex 42.35 -12.85 231.75
      vertex 40.1 -12.85 233.75
      vertex 42.35 -12.85 233.75
    endloop
  endfacet
  facet normal 0 1 0
    outer loop
      vertex 40.1 -12.85 233.75
      vertex 42.35 -12.85 231.75
      vertex 40.1 -12.85 231.75
    endloop
  endfacet
  facet normal 1 -0 0
    outer loop
      vertex 5.9 -8.05 233.75
      vertex 5.9 8.05 228.75
      vertex 5.9 8.05 233.75
    endloop
  endfacet
  facet normal 1 0 0
    outer loop
      vertex 5.9 8.05 228.75
      vertex 5.9 -8.05 233.75
      vertex 5.9 -8.05 228.75
    endloop
  endfacet
  facet normal 1 -0 0
    outer loop
      vertex 17.9 8.05 231.75
      vertex 17.9 12 228.75
      vertex 17.9 12 231.75
    endloop
  endfacet
  facet normal 1 0 0
    outer loop
      vertex 17.9 12 228.75
      vertex 17.9 8.05 231.75
      vertex 17.9 8.05 228.75
    endloop
  endfacet
  facet normal 1 -0 0
    outer loop
      vertex 17.9 -12 231.75
      vertex 17.9 -8.05 228.75
      vertex 17.9 -8.05 231.75
    endloop
  endfacet
  facet normal 1 0 0
    outer loop
      vertex 17.9 -8.05 228.75
      vertex 17.9 -12 231.75
      vertex 17.9 -12 228.75
    endloop
  endfacet
  facet normal 0 -1 0
    outer loop
      vertex 5.9 8.05 233.75
      vertex 17.65 8.05 231.75
      vertex 17.65 8.05 233.75
    endloop
  endfacet
  facet normal 0 -1 0
    outer loop
      vertex 5.9 8.05 228.75
      vertex 17.65 8.05 231.75
      vertex 5.9 8.05 233.75
    endloop
  endfacet
  facet normal 0 -1 0
    outer loop
      vertex 17.9 8.05 228.75
      vertex 17.65 8.05 231.75
      vertex 5.9 8.05 228.75
    endloop
  endfacet
  facet normal 0 -1 0
    outer loop
      vertex 17.65 8.05 231.75
      vertex 17.9 8.05 228.75
      vertex 17.9 8.05 231.75
    endloop
  endfacet
  facet normal -0 0 1
    outer loop
      vertex 5.9 8.05 228.75
      vertex 17.9 -8.05 228.75
      vertex 17.9 8.05 228.75
    endloop
  endfacet
  facet normal 0 0 1
    outer loop
      vertex 17.9 -8.05 228.75
      vertex 5.9 8.05 228.75
      vertex 5.9 -8.05 228.75
    endloop
  endfacet
  facet normal 0 0 1
    outer loop
      vertex 17.9 8.05 228.75
      vertex 19.9 12 228.75
      vertex 17.9 12 228.75
    endloop
  endfacet
  facet normal 0 0 1
    outer loop
      vertex 19.9 12 228.75
      vertex 17.9 8.05 228.75
      vertex 19.9 -12 228.75
    endloop
  endfacet
  facet normal -0 0 1
    outer loop
      vertex 17.9 -8.05 228.75
      vertex 19.9 -12 228.75
      vertex 17.9 8.05 228.75
    endloop
  endfacet
  facet normal 0 0 1
    outer loop
      vertex 19.9 -12 228.75
      vertex 17.9 -8.05 228.75
      vertex 17.9 -12 228.75
    endloop
  endfacet
  facet normal 0 1 0
    outer loop
      vertex 17.9 -8.05 231.75
      vertex 17.9 -8.05 228.75
      vertex 17.65 -8.05 231.75
    endloop
  endfacet
  facet normal 0 1 -0
    outer loop
      vertex 17.65 -8.05 231.75
      vertex 5.9 -8.05 233.75
      vertex 17.65 -8.05 233.75
    endloop
  endfacet
  facet normal 0 1 0
    outer loop
      vertex 5.9 -8.05 228.75
      vertex 17.65 -8.05 231.75
      vertex 17.9 -8.05 228.75
    endloop
  endfacet
  facet normal 0 1 0
    outer loop
      vertex 17.65 -8.05 231.75
      vertex 5.9 -8.05 228.75
      vertex 5.9 -8.05 233.75
    endloop
  endfacet
  facet normal -1 0 0
    outer loop
      vertex 40.1 13.35 226.25
      vertex 40.1 12.85 231.75
      vertex 40.1 13.35 233.75
    endloop
  endfacet
  facet normal -1 0 0
    outer loop
      vertex 40.1 13.35 226.25
      vertex 40.1 -12.85 231.75
      vertex 40.1 12.85 231.75
    endloop
  endfacet
  facet normal -1 0 0
    outer loop
      vertex 40.1 -13.35 226.25
      vertex 40.1 -12.85 231.75
      vertex 40.1 13.35 226.25
    endloop
  endfacet
  facet normal -1 0 0
    outer loop
      vertex 40.1 -13.35 233.75
      vertex 40.1 -12.85 231.75
      vertex 40.1 -13.35 226.25
    endloop
  endfacet
  facet normal -1 0 0
    outer loop
      vertex 40.1 -12.85 231.75
      vertex 40.1 -13.35 233.75
      vertex 40.1 -12.85 233.75
    endloop
  endfacet
  facet normal -1 -0 0
    outer loop
      vertex 40.1 13.35 233.75
      vertex 40.1 12.85 231.75
      vertex 40.1 12.85 233.75
    endloop
  endfacet
  facet normal 0 1 -0
    outer loop
      vertex 19.9 -12 228.75
      vertex 17.9 -12 231.75
      vertex 19.9 -12 231.75
    endloop
  endfacet
  facet normal 0 1 0
    outer loop
      vertex 17.9 -12 231.75
      vertex 19.9 -12 228.75
      vertex 17.9 -12 228.75
    endloop
  endfacet
  facet normal 0 -1 0
    outer loop
      vertex 17.9 12 228.75
      vertex 19.9 12 231.75
      vertex 17.9 12 231.75
    endloop
  endfacet
  facet normal 0 -1 -0
    outer loop
      vertex 19.9 12 231.75
      vertex 17.9 12 228.75
      vertex 19.9 12 228.75
    endloop
  endfacet
  facet normal 1 0 0
    outer loop
      vertex 19.9 -12.85 233.75
      vertex 19.9 -13.35 233.75
      vertex 19.9 -12.85 231.75
    endloop
  endfacet
  facet normal 1 0 0
    outer loop
      vertex 19.9 -12 231.75
      vertex 19.9 -12.85 231.75
      vertex 19.9 -12 228.75
    endloop
  endfacet
  facet normal 1 0 0
    outer loop
      vertex 19.9 12.85 231.75
      vertex 19.9 13.35 233.75
      vertex 19.9 12.85 233.75
    endloop
  endfacet
  facet normal 1 0 0
    outer loop
      vertex 19.9 13.35 233.75
      vertex 19.9 12.85 231.75
      vertex 19.9 13.35 226.25
    endloop
  endfacet
  facet normal 1 0 0
    outer loop
      vertex 19.9 12 228.75
      vertex 19.9 12.85 231.75
      vertex 19.9 12 231.75
    endloop
  endfacet
  facet normal 1 0 0
    outer loop
      vertex 19.9 12.85 231.75
      vertex 19.9 12 228.75
      vertex 19.9 13.35 226.25
    endloop
  endfacet
  facet normal 1 -0 0
    outer loop
      vertex 19.9 -12 228.75
      vertex 19.9 13.35 226.25
      vertex 19.9 12 228.75
    endloop
  endfacet
  facet normal 1 0 0
    outer loop
      vertex 19.9 -12 228.75
      vertex 19.9 -13.35 226.25
      vertex 19.9 13.35 226.25
    endloop
  endfacet
  facet normal 1 0 0
    outer loop
      vertex 19.9 -12.85 231.75
      vertex 19.9 -13.35 226.25
      vertex 19.9 -12 228.75
    endloop
  endfacet
  facet normal 1 0 0
    outer loop
      vertex 19.9 -13.35 226.25
      vertex 19.9 -12.85 231.75
      vertex 19.9 -13.35 233.75
    endloop
  endfacet
  facet normal 0 1 -0
    outer loop
      vertex 40.1 -13.35 226.25
      vertex 19.9 -13.35 233.75
      vertex 40.1 -13.35 233.75
    endloop
  endfacet
  facet normal 0 1 0
    outer loop
      vertex 19.9 -13.35 233.75
      vertex 40.1 -13.35 226.25
      vertex 19.9 -13.35 226.25
    endloop
  endfacet
  facet normal 0 -1 0
    outer loop
      vertex 19.9 13.35 226.25
      vertex 40.1 13.35 233.75
      vertex 19.9 13.35 233.75
    endloop
  endfacet
  facet normal 0 -1 -0
    outer loop
      vertex 40.1 13.35 233.75
      vertex 19.9 13.35 226.25
      vertex 40.1 13.35 226.25
    endloop
  endfacet
  facet normal 1 0 0
    outer loop
      vertex -7.75 5.25 233.75
      vertex -7.75 1.42658 229.536
      vertex -7.75 5.25 226.25
    endloop
  endfacet
  facet normal 1 0 0
    outer loop
      vertex -7.75 5.25 233.75
      vertex -7.75 0.881678 231.214
      vertex -7.75 1.42658 229.536
    endloop
  endfacet
  facet normal 1 0 0
    outer loop
      vertex -7.75 5.25 233.75
      vertex -7.75 -0.881678 231.214
      vertex -7.75 0.881678 231.214
    endloop
  endfacet
  facet normal 1 0 0
    outer loop
      vertex -7.75 -0.881678 231.214
      vertex -7.75 -5.25 233.75
      vertex -7.75 -1.42658 229.536
    endloop
  endfacet
  facet normal 1 -0 0
    outer loop
      vertex -7.75 -5.25 233.75
      vertex -7.75 -0.881678 231.214
      vertex -7.75 5.25 233.75
    endloop
  endfacet
  facet normal 1 -0 0
    outer loop
      vertex -7.75 0 228.5
      vertex -7.75 5.25 226.25
      vertex -7.75 1.42658 229.536
    endloop
  endfacet
  facet normal 1 0 0
    outer loop
      vertex -7.75 0 228.5
      vertex -7.75 -5.25 226.25
      vertex -7.75 5.25 226.25
    endloop
  endfacet
  facet normal 1 0 0
    outer loop
      vertex -7.75 -1.42658 229.536
      vertex -7.75 -5.25 226.25
      vertex -7.75 0 228.5
    endloop
  endfacet
  facet normal 1 0 0
    outer loop
      vertex -7.75 -5.25 226.25
      vertex -7.75 -1.42658 229.536
      vertex -7.75 -5.25 233.75
    endloop
  endfacet
  facet normal -1 0 0
    outer loop
      vertex -2.25 5.25 226.25
      vertex -2.25 1.42658 229.536
      vertex -2.25 5.25 233.75
    endloop
  endfacet
  facet normal -1 0 0
    outer loop
      vertex -2.25 5.25 226.25
      vertex -2.25 0 228.5
      vertex -2.25 1.42658 229.536
    endloop
  endfacet
  facet normal -1 -0 0
    outer loop
      vertex -2.25 0 228.5
      vertex -2.25 -5.25 226.25
      vertex -2.25 -1.42658 229.536
    endloop
  endfacet
  facet normal -1 0 0
    outer loop
      vertex -2.25 -5.25 226.25
      vertex -2.25 0 228.5
      vertex -2.25 5.25 226.25
    endloop
  endfacet
  facet normal -1 0 0
    outer loop
      vertex -2.25 0.881678 231.214
      vertex -2.25 5.25 233.75
      vertex -2.25 1.42658 229.536
    endloop
  endfacet
  facet normal -1 0 0
    outer loop
      vertex -2.25 -0.881678 231.214
      vertex -2.25 5.25 233.75
      vertex -2.25 0.881678 231.214
    endloop
  endfacet
  facet normal -1 0 0
    outer loop
      vertex -2.25 -5.25 233.75
      vertex -2.25 -1.42658 229.536
      vertex -2.25 -5.25 226.25
    endloop
  endfacet
  facet normal -1 0 0
    outer loop
      vertex -2.25 -0.881678 231.214
      vertex -2.25 -5.25 233.75
      vertex -2.25 5.25 233.75
    endloop
  endfacet
  facet normal -1 0 0
    outer loop
      vertex -2.25 -1.42658 229.536
      vertex -2.25 -5.25 233.75
      vertex -2.25 -0.881678 231.214
    endloop
  endfacet
  facet normal 0 -1 0
    outer loop
      vertex -7.75 5.25 226.25
      vertex -2.25 5.25 233.75
      vertex -7.75 5.25 233.75
    endloop
  endfacet
  facet normal 0 -1 -0
    outer loop
      vertex -2.25 5.25 233.75
      vertex -7.75 5.25 226.25
      vertex -2.25 5.25 226.25
    endloop
  endfacet
  facet normal 0 1 -0
    outer loop
      vertex -2.25 -5.25 226.25
      vertex -7.75 -5.25 233.75
      vertex -2.25 -5.25 233.75
    endloop
  endfacet
  facet normal 0 1 0
    outer loop
      vertex -7.75 -5.25 233.75
      vertex -2.25 -5.25 226.25
      vertex -7.75 -5.25 226.25
    endloop
  endfacet
  facet normal 0 -0.587783 0.809019
    outer loop
      vertex -2.25 1.42658 229.536
      vertex 0.9 0 228.5
      vertex 0.9 1.42658 229.536
    endloop
  endfacet
  facet normal 0 -0.587783 0.809019
    outer loop
      vertex 0.9 0 228.5
      vertex -2.25 1.42658 229.536
      vertex -2.25 0 228.5
    endloop
  endfacet
  facet normal 0 -0.587783 0.809019
    outer loop
      vertex -12.5 1.42658 229.536
      vertex -7.75 0 228.5
      vertex -7.75 1.42658 229.536
    endloop
  endfacet
  facet normal 0 -0.587783 0.809019
    outer loop
      vertex -7.75 0 228.5
      vertex -12.5 1.42658 229.536
      vertex -12.5 0 228.5
    endloop
  endfacet
  facet normal 0 0 -1
    outer loop
      vertex -2.25 -0.881678 231.214
      vertex 0.9 0.881678 231.214
      vertex 0.9 -0.881678 231.214
    endloop
  endfacet
  facet normal -0 0 -1
    outer loop
      vertex 0.9 0.881678 231.214
      vertex -2.25 -0.881678 231.214
      vertex -2.25 0.881678 231.214
    endloop
  endfacet
  facet normal 0 0 -1
    outer loop
      vertex -12.5 -0.881678 231.214
      vertex -7.75 0.881678 231.214
      vertex -7.75 -0.881678 231.214
    endloop
  endfacet
  facet normal -0 0 -1
    outer loop
      vertex -7.75 0.881678 231.214
      vertex -12.5 -0.881678 231.214
      vertex -12.5 0.881678 231.214
    endloop
  endfacet
  facet normal 0 -0.951057 -0.309015
    outer loop
      vertex -2.25 1.42658 229.536
      vertex 0.9 0.881678 231.214
      vertex -2.25 0.881678 231.214
    endloop
  endfacet
  facet normal 0 -0.951057 -0.309015
    outer loop
      vertex 0.9 0.881678 231.214
      vertex -2.25 1.42658 229.536
      vertex 0.9 1.42658 229.536
    endloop
  endfacet
  facet normal 0 -0.951057 -0.309015
    outer loop
      vertex -12.5 1.42658 229.536
      vertex -7.75 0.881678 231.214
      vertex -12.5 0.881678 231.214
    endloop
  endfacet
  facet normal 0 -0.951057 -0.309015
    outer loop
      vertex -7.75 0.881678 231.214
      vertex -12.5 1.42658 229.536
      vertex -7.75 1.42658 229.536
    endloop
  endfacet
  facet normal -1 0 0
    outer loop
      vertex 0.9 0 228.5
      vertex 0.9 0.881678 231.214
      vertex 0.9 1.42658 229.536
    endloop
  endfacet
  facet normal -1 0 0
    outer loop
      vertex 0.9 0 228.5
      vertex 0.9 -0.881678 231.214
      vertex 0.9 0.881678 231.214
    endloop
  endfacet
  facet normal -1 0 -0
    outer loop
      vertex 0.9 -0.881678 231.214
      vertex 0.9 0 228.5
      vertex 0.9 -1.42658 229.536
    endloop
  endfacet
  facet normal 0 0.951057 -0.309015
    outer loop
      vertex 0.9 -1.42658 229.536
      vertex -2.25 -0.881678 231.214
      vertex 0.9 -0.881678 231.214
    endloop
  endfacet
  facet normal 0 0.951057 -0.309015
    outer loop
      vertex -2.25 -0.881678 231.214
      vertex 0.9 -1.42658 229.536
      vertex -2.25 -1.42658 229.536
    endloop
  endfacet
  facet normal 0 0.951057 -0.309015
    outer loop
      vertex -7.75 -1.42658 229.536
      vertex -12.5 -0.881678 231.214
      vertex -7.75 -0.881678 231.214
    endloop
  endfacet
  facet normal 0 0.951057 -0.309015
    outer loop
      vertex -12.5 -0.881678 231.214
      vertex -7.75 -1.42658 229.536
      vertex -12.5 -1.42658 229.536
    endloop
  endfacet
  facet normal -0 0.587783 0.809019
    outer loop
      vertex -2.25 0 228.5
      vertex 0.9 -1.42658 229.536
      vertex 0.9 0 228.5
    endloop
  endfacet
  facet normal 0 0.587783 0.809019
    outer loop
      vertex 0.9 -1.42658 229.536
      vertex -2.25 0 228.5
      vertex -2.25 -1.42658 229.536
    endloop
  endfacet
  facet normal -0 0.587783 0.809019
    outer loop
      vertex -12.5 0 228.5
      vertex -7.75 -1.42658 229.536
      vertex -7.75 0 228.5
    endloop
  endfacet
  facet normal 0 0.587783 0.809019
    outer loop
      vertex -7.75 -1.42658 229.536
      vertex -12.5 0 228.5
      vertex -12.5 -1.42658 229.536
    endloop
  endfacet
endsolid OpenSCAD_Model
