solid OpenSCAD_Model
  facet normal -1 0 0
    outer loop
      vertex 12.9 10 196.25
      vertex 12.9 17.6 199.5
      vertex 12.9 17.6 196.25
    endloop
  endfacet
  facet normal -1 -0 0
    outer loop
      vertex 12.9 17.6 199.5
      vertex 12.9 10 196.25
      vertex 12.9 10 199.5
    endloop
  endfacet
  facet normal -1 0 0
    outer loop
      vertex 12.9 -17.6 196.25
      vertex 12.9 -10 199.5
      vertex 12.9 -10 196.25
    endloop
  endfacet
  facet normal -1 -0 0
    outer loop
      vertex 12.9 -10 199.5
      vertex 12.9 -17.6 196.25
      vertex 12.9 -17.6 199.5
    endloop
  endfacet
  facet normal 0 0 1
    outer loop
      vertex 12.25 10 203.75
      vertex -2.25 5.25 203.75
      vertex 12.25 -10 203.75
    endloop
  endfacet
  facet normal -0 0 1
    outer loop
      vertex -12.5 10 203.75
      vertex -2.25 5.25 203.75
      vertex 12.25 10 203.75
    endloop
  endfacet
  facet normal 0 0 1
    outer loop
      vertex -7.75 5.25 203.75
      vertex -12.5 10 203.75
      vertex -7.75 -5.25 203.75
    endloop
  endfacet
  facet normal 0 0 1
    outer loop
      vertex -2.25 5.25 203.75
      vertex -12.5 10 203.75
      vertex -7.75 5.25 203.75
    endloop
  endfacet
  facet normal -0 0 1
    outer loop
      vertex -2.25 -5.25 203.75
      vertex 12.25 -10 203.75
      vertex -2.25 5.25 203.75
    endloop
  endfacet
  facet normal 0 0 1
    outer loop
      vertex -12.5 -10 203.75
      vertex -2.25 -5.25 203.75
      vertex -7.75 -5.25 203.75
    endloop
  endfacet
  facet normal 0 0 1
    outer loop
      vertex -2.25 -5.25 203.75
      vertex -12.5 -10 203.75
      vertex 12.25 -10 203.75
    endloop
  endfacet
  facet normal 0 0 1
    outer loop
      vertex -12.5 -10 203.75
      vertex -7.75 -5.25 203.75
      vertex -12.5 10 203.75
    endloop
  endfacet
  facet normal 1 -0 0
    outer loop
      vertex 47.1 -17.6 199.5
      vertex 47.1 17.6 196.25
      vertex 47.1 17.6 199.5
    endloop
  endfacet
  facet normal 1 0 0
    outer loop
      vertex 47.1 17.6 196.25
      vertex 47.1 -17.6 199.5
      vertex 47.1 -17.6 196.25
    endloop
  endfacet
  facet normal 0 1 -0
    outer loop
      vertex 47.1 17.6 196.25
      vertex 12.9 17.6 199.5
      vertex 47.1 17.6 199.5
    endloop
  endfacet
  facet normal 0 1 0
    outer loop
      vertex 12.9 17.6 199.5
      vertex 47.1 17.6 196.25
      vertex 12.9 17.6 196.25
    endloop
  endfacet
  facet normal 0 0 -1
    outer loop
      vertex -2.25 5.25 196.25
      vertex 17.25 0 196.25
      vertex -2.25 -5.25 196.25
    endloop
  endfacet
  facet normal 0 0 -1
    outer loop
      vertex -12.5 -10 196.25
      vertex -2.25 -5.25 196.25
      vertex 12.9 -10 196.25
    endloop
  endfacet
  facet normal -0 0 -1
    outer loop
      vertex -7.75 -5.25 196.25
      vertex -12.5 -10 196.25
      vertex -7.75 5.25 196.25
    endloop
  endfacet
  facet normal -0 0 -1
    outer loop
      vertex -2.25 -5.25 196.25
      vertex -12.5 -10 196.25
      vertex -7.75 -5.25 196.25
    endloop
  endfacet
  facet normal 0 0 -1
    outer loop
      vertex 17.25 0 196.25
      vertex -2.25 5.25 196.25
      vertex 12.9 10 196.25
    endloop
  endfacet
  facet normal 0 0 -1
    outer loop
      vertex -12.5 10 196.25
      vertex -2.25 5.25 196.25
      vertex -7.75 5.25 196.25
    endloop
  endfacet
  facet normal 0 0 -1
    outer loop
      vertex -2.25 5.25 196.25
      vertex -12.5 10 196.25
      vertex 12.9 10 196.25
    endloop
  endfacet
  facet normal 0 0 -1
    outer loop
      vertex -12.5 10 196.25
      vertex -7.75 5.25 196.25
      vertex -12.5 -10 196.25
    endloop
  endfacet
  facet normal 0 0 -1
    outer loop
      vertex 47.1 -17.6 196.25
      vertex 42.75 0 196.25
      vertex 47.1 17.6 196.25
    endloop
  endfacet
  facet normal 0 0 -1
    outer loop
      vertex 47.1 -17.6 196.25
      vertex 42.4714 -2.65087 196.25
      vertex 42.75 0 196.25
    endloop
  endfacet
  facet normal 0 0 -1
    outer loop
      vertex 47.1 -17.6 196.25
      vertex 41.6477 -5.18589 196.25
      vertex 42.4714 -2.65087 196.25
    endloop
  endfacet
  facet normal 0 0 -1
    outer loop
      vertex 47.1 -17.6 196.25
      vertex 40.315 -7.49426 196.25
      vertex 41.6477 -5.18589 196.25
    endloop
  endfacet
  facet normal 0 0 -1
    outer loop
      vertex 47.1 -17.6 196.25
      vertex 38.5314 -9.4751 196.25
      vertex 40.315 -7.49426 196.25
    endloop
  endfacet
  facet normal 0 0 -1
    outer loop
      vertex 47.1 -17.6 196.25
      vertex 36.375 -11.0418 196.25
      vertex 38.5314 -9.4751 196.25
    endloop
  endfacet
  facet normal 0 0 -1
    outer loop
      vertex 47.1 -17.6 196.25
      vertex 33.94 -12.126 196.25
      vertex 36.375 -11.0418 196.25
    endloop
  endfacet
  facet normal 0 0 -1
    outer loop
      vertex 47.1 -17.6 196.25
      vertex 31.3327 -12.6802 196.25
      vertex 33.94 -12.126 196.25
    endloop
  endfacet
  facet normal 0 0 -1
    outer loop
      vertex 47.1 -17.6 196.25
      vertex 28.6673 -12.6802 196.25
      vertex 31.3327 -12.6802 196.25
    endloop
  endfacet
  facet normal 0 0 -1
    outer loop
      vertex 12.9 -17.6 196.25
      vertex 28.6673 -12.6802 196.25
      vertex 47.1 -17.6 196.25
    endloop
  endfacet
  facet normal -0 0 -1
    outer loop
      vertex 18.3523 -5.18589 196.25
      vertex 12.9 -10 196.25
      vertex 17.5286 -2.65087 196.25
    endloop
  endfacet
  facet normal -0 0 -1
    outer loop
      vertex 19.685 -7.49426 196.25
      vertex 12.9 -10 196.25
      vertex 18.3523 -5.18589 196.25
    endloop
  endfacet
  facet normal -0 0 -1
    outer loop
      vertex 21.4686 -9.4751 196.25
      vertex 12.9 -10 196.25
      vertex 19.685 -7.49426 196.25
    endloop
  endfacet
  facet normal 0 0 -1
    outer loop
      vertex 12.9 -10 196.25
      vertex 21.4686 -9.4751 196.25
      vertex 12.9 -17.6 196.25
    endloop
  endfacet
  facet normal -0 0 -1
    outer loop
      vertex 23.625 -11.0418 196.25
      vertex 12.9 -17.6 196.25
      vertex 21.4686 -9.4751 196.25
    endloop
  endfacet
  facet normal -0 0 -1
    outer loop
      vertex 26.06 -12.126 196.25
      vertex 12.9 -17.6 196.25
      vertex 23.625 -11.0418 196.25
    endloop
  endfacet
  facet normal -0 0 -1
    outer loop
      vertex 28.6673 -12.6802 196.25
      vertex 12.9 -17.6 196.25
      vertex 26.06 -12.126 196.25
    endloop
  endfacet
  facet normal 0 0 -1
    outer loop
      vertex 42.4714 2.65087 196.25
      vertex 47.1 17.6 196.25
      vertex 42.75 0 196.25
    endloop
  endfacet
  facet normal 0 0 -1
    outer loop
      vertex 41.6477 5.18589 196.25
      vertex 47.1 17.6 196.25
      vertex 42.4714 2.65087 196.25
    endloop
  endfacet
  facet normal 0 0 -1
    outer loop
      vertex 40.315 7.49426 196.25
      vertex 47.1 17.6 196.25
      vertex 41.6477 5.18589 196.25
    endloop
  endfacet
  facet normal 0 0 -1
    outer loop
      vertex 38.5314 9.4751 196.25
      vertex 47.1 17.6 196.25
      vertex 40.315 7.49426 196.25
    endloop
  endfacet
  facet normal 0 0 -1
    outer loop
      vertex 36.375 11.0418 196.25
      vertex 47.1 17.6 196.25
      vertex 38.5314 9.4751 196.25
    endloop
  endfacet
  facet normal 0 0 -1
    outer loop
      vertex 33.94 12.126 196.25
      vertex 47.1 17.6 196.25
      vertex 36.375 11.0418 196.25
    endloop
  endfacet
  facet normal 0 0 -1
    outer loop
      vertex 31.3327 12.6802 196.25
      vertex 47.1 17.6 196.25
      vertex 33.94 12.126 196.25
    endloop
  endfacet
  facet normal 0 0 -1
    outer loop
      vertex 28.6673 12.6802 196.25
      vertex 47.1 17.6 196.25
      vertex 31.3327 12.6802 196.25
    endloop
  endfacet
  facet normal 0 0 -1
    outer loop
      vertex 12.9 17.6 196.25
      vertex 28.6673 12.6802 196.25
      vertex 26.06 12.126 196.25
    endloop
  endfacet
  facet normal -0 0 -1
    outer loop
      vertex 17.5286 -2.65087 196.25
      vertex 12.9 -10 196.25
      vertex 17.25 0 196.25
    endloop
  endfacet
  facet normal 0 0 -1
    outer loop
      vertex -2.25 -5.25 196.25
      vertex 17.25 0 196.25
      vertex 12.9 -10 196.25
    endloop
  endfacet
  facet normal 0 0 -1
    outer loop
      vertex 17.25 0 196.25
      vertex 12.9 10 196.25
      vertex 17.5286 2.65087 196.25
    endloop
  endfacet
  facet normal 0 0 -1
    outer loop
      vertex 17.5286 2.65087 196.25
      vertex 12.9 10 196.25
      vertex 18.3523 5.18589 196.25
    endloop
  endfacet
  facet normal 0 0 -1
    outer loop
      vertex 12.9 10 196.25
      vertex 19.685 7.49426 196.25
      vertex 18.3523 5.18589 196.25
    endloop
  endfacet
  facet normal 0 0 -1
    outer loop
      vertex 12.9 10 196.25
      vertex 21.4686 9.4751 196.25
      vertex 19.685 7.49426 196.25
    endloop
  endfacet
  facet normal 0 0 -1
    outer loop
      vertex 12.9 17.6 196.25
      vertex 21.4686 9.4751 196.25
      vertex 12.9 10 196.25
    endloop
  endfacet
  facet normal 0 0 -1
    outer loop
      vertex 21.4686 9.4751 196.25
      vertex 12.9 17.6 196.25
      vertex 23.625 11.0418 196.25
    endloop
  endfacet
  facet normal 0 0 -1
    outer loop
      vertex 23.625 11.0418 196.25
      vertex 12.9 17.6 196.25
      vertex 26.06 12.126 196.25
    endloop
  endfacet
  facet normal 0 0 -1
    outer loop
      vertex 28.6673 12.6802 196.25
      vertex 12.9 17.6 196.25
      vertex 47.1 17.6 196.25
    endloop
  endfacet
  facet normal 0 -1 0
    outer loop
      vertex 12.9 -17.6 196.25
      vertex 47.1 -17.6 199.5
      vertex 12.9 -17.6 199.5
    endloop
  endfacet
  facet normal 0 -1 -0
    outer loop
      vertex 47.1 -17.6 199.5
      vertex 12.9 -17.6 196.25
      vertex 47.1 -17.6 196.25
    endloop
  endfacet
  facet normal -1 0 0
    outer loop
      vertex -12.5 10 196.25
      vertex -12.5 1.42658 199.536
      vertex -12.5 10 203.75
    endloop
  endfacet
  facet normal -1 0 0
    outer loop
      vertex -12.5 10 196.25
      vertex -12.5 0 198.5
      vertex -12.5 1.42658 199.536
    endloop
  endfacet
  facet normal -1 -0 0
    outer loop
      vertex -12.5 0 198.5
      vertex -12.5 -10 196.25
      vertex -12.5 -1.42658 199.536
    endloop
  endfacet
  facet normal -1 0 0
    outer loop
      vertex -12.5 -10 196.25
      vertex -12.5 0 198.5
      vertex -12.5 10 196.25
    endloop
  endfacet
  facet normal -1 0 0
    outer loop
      vertex -12.5 0.881678 201.214
      vertex -12.5 10 203.75
      vertex -12.5 1.42658 199.536
    endloop
  endfacet
  facet normal -1 0 0
    outer loop
      vertex -12.5 -0.881678 201.214
      vertex -12.5 10 203.75
      vertex -12.5 0.881678 201.214
    endloop
  endfacet
  facet normal -1 0 0
    outer loop
      vertex -12.5 -10 203.75
      vertex -12.5 -1.42658 199.536
      vertex -12.5 -10 196.25
    endloop
  endfacet
  facet normal -1 0 0
    outer loop
      vertex -12.5 -0.881678 201.214
      vertex -12.5 -10 203.75
      vertex -12.5 10 203.75
    endloop
  endfacet
  facet normal -1 0 0
    outer loop
      vertex -12.5 -1.42658 199.536
      vertex -12.5 -10 203.75
      vertex -12.5 -0.881678 201.214
    endloop
  endfacet
  facet normal 0 1 0
    outer loop
      vertex 12.9 10 199.5
      vertex 12.9 10 196.25
      vertex 12.25 10 199.5
    endloop
  endfacet
  facet normal 0 1 -0
    outer loop
      vertex 12.25 10 199.5
      vertex -12.5 10 203.75
      vertex 12.25 10 203.75
    endloop
  endfacet
  facet normal 0 1 0
    outer loop
      vertex -12.5 10 196.25
      vertex 12.25 10 199.5
      vertex 12.9 10 196.25
    endloop
  endfacet
  facet normal 0 1 0
    outer loop
      vertex 12.25 10 199.5
      vertex -12.5 10 196.25
      vertex -12.5 10 203.75
    endloop
  endfacet
  facet normal 0 -1 0
    outer loop
      vertex -12.5 -10 203.75
      vertex 12.25 -10 199.5
      vertex 12.25 -10 203.75
    endloop
  endfacet
  facet normal 0 -1 0
    outer loop
      vertex -12.5 -10 196.25
      vertex 12.25 -10 199.5
      vertex -12.5 -10 203.75
    endloop
  endfacet
  facet normal 0 -1 0
    outer loop
      vertex 12.9 -10 196.25
      vertex 12.25 -10 199.5
      vertex -12.5 -10 196.25
    endloop
  endfacet
  facet normal 0 -1 0
    outer loop
      vertex 12.25 -10 199.5
      vertex 12.9 -10 196.25
      vertex 12.9 -10 199.5
    endloop
  endfacet
  facet normal -0.994522 -0.104528 0
    outer loop
      vertex 42.75 0 196.25
      vertex 42.4714 2.65087 199.5
      vertex 42.4714 2.65087 196.25
    endloop
  endfacet
  facet normal -0.994522 -0.104528 0
    outer loop
      vertex 42.4714 2.65087 199.5
      vertex 42.75 0 196.25
      vertex 42.75 0 199.5
    endloop
  endfacet
  facet normal 0 -1 0
    outer loop
      vertex 28.6673 12.6802 196.25
      vertex 31.3327 12.6802 199.5
      vertex 28.6673 12.6802 199.5
    endloop
  endfacet
  facet normal 0 -1 -0
    outer loop
      vertex 31.3327 12.6802 199.5
      vertex 28.6673 12.6802 196.25
      vertex 31.3327 12.6802 196.25
    endloop
  endfacet
  facet normal -0.587786 -0.809017 0
    outer loop
      vertex 36.375 11.0418 196.25
      vertex 38.5314 9.4751 199.5
      vertex 36.375 11.0418 199.5
    endloop
  endfacet
  facet normal -0.587786 -0.809017 -0
    outer loop
      vertex 38.5314 9.4751 199.5
      vertex 36.375 11.0418 196.25
      vertex 38.5314 9.4751 196.25
    endloop
  endfacet
  facet normal 0.743145 -0.669131 0
    outer loop
      vertex 19.685 7.49426 199.5
      vertex 21.4686 9.4751 196.25
      vertex 21.4686 9.4751 199.5
    endloop
  endfacet
  facet normal 0.743145 -0.669131 0
    outer loop
      vertex 21.4686 9.4751 196.25
      vertex 19.685 7.49426 199.5
      vertex 19.685 7.49426 196.25
    endloop
  endfacet
  facet normal 0.406737 -0.913545 0
    outer loop
      vertex 23.625 11.0418 196.25
      vertex 26.06 12.126 199.5
      vertex 23.625 11.0418 199.5
    endloop
  endfacet
  facet normal 0.406737 -0.913545 0
    outer loop
      vertex 26.06 12.126 199.5
      vertex 23.625 11.0418 196.25
      vertex 26.06 12.126 196.25
    endloop
  endfacet
  facet normal -0.743145 0.66913 0
    outer loop
      vertex 38.5314 -9.4751 196.25
      vertex 40.315 -7.49426 199.5
      vertex 40.315 -7.49426 196.25
    endloop
  endfacet
  facet normal -0.743145 0.66913 0
    outer loop
      vertex 40.315 -7.49426 199.5
      vertex 38.5314 -9.4751 196.25
      vertex 38.5314 -9.4751 199.5
    endloop
  endfacet
  facet normal -0.866025 -0.500001 0
    outer loop
      vertex 41.6477 5.18589 196.25
      vertex 40.315 7.49426 199.5
      vertex 40.315 7.49426 196.25
    endloop
  endfacet
  facet normal -0.866025 -0.500001 0
    outer loop
      vertex 40.315 7.49426 199.5
      vertex 41.6477 5.18589 196.25
      vertex 41.6477 5.18589 199.5
    endloop
  endfacet
  facet normal -0.951057 -0.309017 0
    outer loop
      vertex 42.4714 2.65087 196.25
      vertex 41.6477 5.18589 199.5
      vertex 41.6477 5.18589 196.25
    endloop
  endfacet
  facet normal -0.951057 -0.309017 0
    outer loop
      vertex 41.6477 5.18589 199.5
      vertex 42.4714 2.65087 196.25
      vertex 42.4714 2.65087 199.5
    endloop
  endfacet
  facet normal -0.743145 -0.66913 0
    outer loop
      vertex 40.315 7.49426 196.25
      vertex 38.5314 9.4751 199.5
      vertex 38.5314 9.4751 196.25
    endloop
  endfacet
  facet normal -0.743145 -0.66913 0
    outer loop
      vertex 38.5314 9.4751 199.5
      vertex 40.315 7.49426 196.25
      vertex 40.315 7.49426 199.5
    endloop
  endfacet
  facet normal -0.207912 -0.978148 0
    outer loop
      vertex 31.3327 12.6802 196.25
      vertex 33.94 12.126 199.5
      vertex 31.3327 12.6802 199.5
    endloop
  endfacet
  facet normal -0.207912 -0.978148 -0
    outer loop
      vertex 33.94 12.126 199.5
      vertex 31.3327 12.6802 196.25
      vertex 33.94 12.126 196.25
    endloop
  endfacet
  facet normal -0.406736 -0.913546 0
    outer loop
      vertex 33.94 12.126 196.25
      vertex 36.375 11.0418 199.5
      vertex 33.94 12.126 199.5
    endloop
  endfacet
  facet normal -0.406736 -0.913546 -0
    outer loop
      vertex 36.375 11.0418 199.5
      vertex 33.94 12.126 196.25
      vertex 36.375 11.0418 196.25
    endloop
  endfacet
  facet normal 0.951057 -0.309017 0
    outer loop
      vertex 17.5286 2.65087 199.5
      vertex 18.3523 5.18589 196.25
      vertex 18.3523 5.18589 199.5
    endloop
  endfacet
  facet normal 0.951057 -0.309017 0
    outer loop
      vertex 18.3523 5.18589 196.25
      vertex 17.5286 2.65087 199.5
      vertex 17.5286 2.65087 196.25
    endloop
  endfacet
  facet normal 0.866026 -0.5 0
    outer loop
      vertex 18.3523 5.18589 199.5
      vertex 19.685 7.49426 196.25
      vertex 19.685 7.49426 199.5
    endloop
  endfacet
  facet normal 0.866026 -0.5 0
    outer loop
      vertex 19.685 7.49426 196.25
      vertex 18.3523 5.18589 199.5
      vertex 18.3523 5.18589 196.25
    endloop
  endfacet
  facet normal 0.994522 -0.104528 0
    outer loop
      vertex 17.25 0 199.5
      vertex 17.5286 2.65087 196.25
      vertex 17.5286 2.65087 199.5
    endloop
  endfacet
  facet normal 0.994522 -0.104528 0
    outer loop
      vertex 17.5286 2.65087 196.25
      vertex 17.25 0 199.5
      vertex 17.25 0 196.25
    endloop
  endfacet
  facet normal 0.587785 -0.809017 0
    outer loop
      vertex 21.4686 9.4751 196.25
      vertex 23.625 11.0418 199.5
      vertex 21.4686 9.4751 199.5
    endloop
  endfacet
  facet normal 0.587785 -0.809017 0
    outer loop
      vertex 23.625 11.0418 199.5
      vertex 21.4686 9.4751 196.25
      vertex 23.625 11.0418 196.25
    endloop
  endfacet
  facet normal 0.207912 -0.978148 0
    outer loop
      vertex 26.06 12.126 196.25
      vertex 28.6673 12.6802 199.5
      vertex 26.06 12.126 199.5
    endloop
  endfacet
  facet normal 0.207912 -0.978148 0
    outer loop
      vertex 28.6673 12.6802 199.5
      vertex 26.06 12.126 196.25
      vertex 28.6673 12.6802 196.25
    endloop
  endfacet
  facet normal -0.994522 0.104528 0
    outer loop
      vertex 42.4714 -2.65087 196.25
      vertex 42.75 0 199.5
      vertex 42.75 0 196.25
    endloop
  endfacet
  facet normal -0.994522 0.104528 0
    outer loop
      vertex 42.75 0 199.5
      vertex 42.4714 -2.65087 196.25
      vertex 42.4714 -2.65087 199.5
    endloop
  endfacet
  facet normal -0.207912 0.978148 0
    outer loop
      vertex 33.94 -12.126 196.25
      vertex 31.3327 -12.6802 199.5
      vertex 33.94 -12.126 199.5
    endloop
  endfacet
  facet normal -0.207912 0.978148 0
    outer loop
      vertex 31.3327 -12.6802 199.5
      vertex 33.94 -12.126 196.25
      vertex 31.3327 -12.6802 196.25
    endloop
  endfacet
  facet normal -0.587786 0.809017 0
    outer loop
      vertex 38.5314 -9.4751 196.25
      vertex 36.375 -11.0418 199.5
      vertex 38.5314 -9.4751 199.5
    endloop
  endfacet
  facet normal -0.587786 0.809017 0
    outer loop
      vertex 36.375 -11.0418 199.5
      vertex 38.5314 -9.4751 196.25
      vertex 36.375 -11.0418 196.25
    endloop
  endfacet
  facet normal 0.406737 0.913545 -0
    outer loop
      vertex 26.06 -12.126 196.25
      vertex 23.625 -11.0418 199.5
      vertex 26.06 -12.126 199.5
    endloop
  endfacet
  facet normal 0.406737 0.913545 0
    outer loop
      vertex 23.625 -11.0418 199.5
      vertex 26.06 -12.126 196.25
      vertex 23.625 -11.0418 196.25
    endloop
  endfacet
  facet normal 0 1 -0
    outer loop
      vertex 31.3327 -12.6802 196.25
      vertex 28.6673 -12.6802 199.5
      vertex 31.3327 -12.6802 199.5
    endloop
  endfacet
  facet normal 0 1 0
    outer loop
      vertex 28.6673 -12.6802 199.5
      vertex 31.3327 -12.6802 196.25
      vertex 28.6673 -12.6802 196.25
    endloop
  endfacet
  facet normal 0.743145 0.669131 0
    outer loop
      vertex 21.4686 -9.4751 199.5
      vertex 19.685 -7.49426 196.25
      vertex 19.685 -7.49426 199.5
    endloop
  endfacet
  facet normal 0.743145 0.669131 0
    outer loop
      vertex 19.685 -7.49426 196.25
      vertex 21.4686 -9.4751 199.5
      vertex 21.4686 -9.4751 196.25
    endloop
  endfacet
  facet normal 0.951057 0.309017 0
    outer loop
      vertex 18.3523 -5.18589 199.5
      vertex 17.5286 -2.65087 196.25
      vertex 17.5286 -2.65087 199.5
    endloop
  endfacet
  facet normal 0.951057 0.309017 0
    outer loop
      vertex 17.5286 -2.65087 196.25
      vertex 18.3523 -5.18589 199.5
      vertex 18.3523 -5.18589 196.25
    endloop
  endfacet
  facet normal 0.994522 0.104528 0
    outer loop
      vertex 17.5286 -2.65087 199.5
      vertex 17.25 0 196.25
      vertex 17.25 0 199.5
    endloop
  endfacet
  facet normal 0.994522 0.104528 0
    outer loop
      vertex 17.25 0 196.25
      vertex 17.5286 -2.65087 199.5
      vertex 17.5286 -2.65087 196.25
    endloop
  endfacet
  facet normal -0.406736 0.913546 0
    outer loop
      vertex 36.375 -11.0418 196.25
      vertex 33.94 -12.126 199.5
      vertex 36.375 -11.0418 199.5
    endloop
  endfacet
  facet normal -0.406736 0.913546 0
    outer loop
      vertex 33.94 -12.126 199.5
      vertex 36.375 -11.0418 196.25
      vertex 33.94 -12.126 196.25
    endloop
  endfacet
  facet normal -0.951057 0.309017 0
    outer loop
      vertex 41.6477 -5.18589 196.25
      vertex 42.4714 -2.65087 199.5
      vertex 42.4714 -2.65087 196.25
    endloop
  endfacet
  facet normal -0.951057 0.309017 0
    outer loop
      vertex 42.4714 -2.65087 199.5
      vertex 41.6477 -5.18589 196.25
      vertex 41.6477 -5.18589 199.5
    endloop
  endfacet
  facet normal -0.866025 0.500001 0
    outer loop
      vertex 40.315 -7.49426 196.25
      vertex 41.6477 -5.18589 199.5
      vertex 41.6477 -5.18589 196.25
    endloop
  endfacet
  facet normal -0.866025 0.500001 0
    outer loop
      vertex 41.6477 -5.18589 199.5
      vertex 40.315 -7.49426 196.25
      vertex 40.315 -7.49426 199.5
    endloop
  endfacet
  facet normal 0.207912 0.978148 -0
    outer loop
      vertex 28.6673 -12.6802 196.25
      vertex 26.06 -12.126 199.5
      vertex 28.6673 -12.6802 199.5
    endloop
  endfacet
  facet normal 0.207912 0.978148 0
    outer loop
      vertex 26.06 -12.126 199.5
      vertex 28.6673 -12.6802 196.25
      vertex 26.06 -12.126 196.25
    endloop
  endfacet
  facet normal 0.587785 0.809017 -0
    outer loop
      vertex 23.625 -11.0418 196.25
      vertex 21.4686 -9.4751 199.5
      vertex 23.625 -11.0418 199.5
    endloop
  endfacet
  facet normal 0.587785 0.809017 0
    outer loop
      vertex 21.4686 -9.4751 199.5
      vertex 23.625 -11.0418 196.25
      vertex 21.4686 -9.4751 196.25
    endloop
  endfacet
  facet normal 0.866026 0.5 0
    outer loop
      vertex 19.685 -7.49426 199.5
      vertex 18.3523 -5.18589 196.25
      vertex 18.3523 -5.18589 199.5
    endloop
  endfacet
  facet normal 0.866026 0.5 0
    outer loop
      vertex 18.3523 -5.18589 196.25
      vertex 19.685 -7.49426 199.5
      vertex 19.685 -7.49426 196.25
    endloop
  endfacet
  facet normal 1 -0 0
    outer loop
      vertex 12.25 -10 203.75
      vertex 12.25 10 199.5
      vertex 12.25 10 203.75
    endloop
  endfacet
  facet normal 1 0 0
    outer loop
      vertex 12.25 10 199.5
      vertex 12.25 -10 203.75
      vertex 12.25 -10 199.5
    endloop
  endfacet
  facet normal 0 0 1
    outer loop
      vertex 12.25 -10 199.5
      vertex 17.25 0 199.5
      vertex 12.25 10 199.5
    endloop
  endfacet
  facet normal 0 0 1
    outer loop
      vertex 17.25 0 199.5
      vertex 12.25 -10 199.5
      vertex 12.9 -10 199.5
    endloop
  endfacet
  facet normal 0 0 1
    outer loop
      vertex 47.1 17.6 199.5
      vertex 42.75 0 199.5
      vertex 47.1 -17.6 199.5
    endloop
  endfacet
  facet normal 0 0 1
    outer loop
      vertex 47.1 17.6 199.5
      vertex 42.4714 2.65087 199.5
      vertex 42.75 0 199.5
    endloop
  endfacet
  facet normal 0 0 1
    outer loop
      vertex 47.1 17.6 199.5
      vertex 41.6477 5.18589 199.5
      vertex 42.4714 2.65087 199.5
    endloop
  endfacet
  facet normal 0 0 1
    outer loop
      vertex 47.1 17.6 199.5
      vertex 40.315 7.49426 199.5
      vertex 41.6477 5.18589 199.5
    endloop
  endfacet
  facet normal 0 0 1
    outer loop
      vertex 47.1 17.6 199.5
      vertex 38.5314 9.4751 199.5
      vertex 40.315 7.49426 199.5
    endloop
  endfacet
  facet normal 0 0 1
    outer loop
      vertex 47.1 17.6 199.5
      vertex 36.375 11.0418 199.5
      vertex 38.5314 9.4751 199.5
    endloop
  endfacet
  facet normal 0 0 1
    outer loop
      vertex 47.1 17.6 199.5
      vertex 33.94 12.126 199.5
      vertex 36.375 11.0418 199.5
    endloop
  endfacet
  facet normal 0 0 1
    outer loop
      vertex 47.1 17.6 199.5
      vertex 31.3327 12.6802 199.5
      vertex 33.94 12.126 199.5
    endloop
  endfacet
  facet normal 0 0 1
    outer loop
      vertex 47.1 17.6 199.5
      vertex 28.6673 12.6802 199.5
      vertex 31.3327 12.6802 199.5
    endloop
  endfacet
  facet normal -0 0 1
    outer loop
      vertex 12.9 17.6 199.5
      vertex 28.6673 12.6802 199.5
      vertex 47.1 17.6 199.5
    endloop
  endfacet
  facet normal 0 0 1
    outer loop
      vertex 18.3523 5.18589 199.5
      vertex 12.9 10 199.5
      vertex 17.5286 2.65087 199.5
    endloop
  endfacet
  facet normal 0 0 1
    outer loop
      vertex 19.685 7.49426 199.5
      vertex 12.9 10 199.5
      vertex 18.3523 5.18589 199.5
    endloop
  endfacet
  facet normal 0 0 1
    outer loop
      vertex 21.4686 9.4751 199.5
      vertex 12.9 10 199.5
      vertex 19.685 7.49426 199.5
    endloop
  endfacet
  facet normal -0 0 1
    outer loop
      vertex 12.9 10 199.5
      vertex 21.4686 9.4751 199.5
      vertex 12.9 17.6 199.5
    endloop
  endfacet
  facet normal 0 0 1
    outer loop
      vertex 23.625 11.0418 199.5
      vertex 12.9 17.6 199.5
      vertex 21.4686 9.4751 199.5
    endloop
  endfacet
  facet normal 0 0 1
    outer loop
      vertex 26.06 12.126 199.5
      vertex 12.9 17.6 199.5
      vertex 23.625 11.0418 199.5
    endloop
  endfacet
  facet normal 0 0 1
    outer loop
      vertex 28.6673 12.6802 199.5
      vertex 12.9 17.6 199.5
      vertex 26.06 12.126 199.5
    endloop
  endfacet
  facet normal -0 0 1
    outer loop
      vertex 42.4714 -2.65087 199.5
      vertex 47.1 -17.6 199.5
      vertex 42.75 0 199.5
    endloop
  endfacet
  facet normal -0 0 1
    outer loop
      vertex 41.6477 -5.18589 199.5
      vertex 47.1 -17.6 199.5
      vertex 42.4714 -2.65087 199.5
    endloop
  endfacet
  facet normal -0 0 1
    outer loop
      vertex 40.315 -7.49426 199.5
      vertex 47.1 -17.6 199.5
      vertex 41.6477 -5.18589 199.5
    endloop
  endfacet
  facet normal -0 0 1
    outer loop
      vertex 38.5314 -9.4751 199.5
      vertex 47.1 -17.6 199.5
      vertex 40.315 -7.49426 199.5
    endloop
  endfacet
  facet normal -0 0 1
    outer loop
      vertex 36.375 -11.0418 199.5
      vertex 47.1 -17.6 199.5
      vertex 38.5314 -9.4751 199.5
    endloop
  endfacet
  facet normal -0 0 1
    outer loop
      vertex 33.94 -12.126 199.5
      vertex 47.1 -17.6 199.5
      vertex 36.375 -11.0418 199.5
    endloop
  endfacet
  facet normal -0 0 1
    outer loop
      vertex 31.3327 -12.6802 199.5
      vertex 47.1 -17.6 199.5
      vertex 33.94 -12.126 199.5
    endloop
  endfacet
  facet normal -0 0 1
    outer loop
      vertex 28.6673 -12.6802 199.5
      vertex 47.1 -17.6 199.5
      vertex 31.3327 -12.6802 199.5
    endloop
  endfacet
  facet normal 0 0 1
    outer loop
      vertex 12.9 -17.6 199.5
      vertex 28.6673 -12.6802 199.5
      vertex 26.06 -12.126 199.5
    endloop
  endfacet
  facet normal -0 0 1
    outer loop
      vertex 12.25 10 199.5
      vertex 17.5286 2.65087 199.5
      vertex 12.9 10 199.5
    endloop
  endfacet
  facet normal 0 0 1
    outer loop
      vertex 17.5286 2.65087 199.5
      vertex 12.25 10 199.5
      vertex 17.25 0 199.5
    endloop
  endfacet
  facet normal 0 0 1
    outer loop
      vertex 17.25 0 199.5
      vertex 12.9 -10 199.5
      vertex 17.5286 -2.65087 199.5
    endloop
  endfacet
  facet normal 0 0 1
    outer loop
      vertex 17.5286 -2.65087 199.5
      vertex 12.9 -10 199.5
      vertex 18.3523 -5.18589 199.5
    endloop
  endfacet
  facet normal 0 0 1
    outer loop
      vertex 12.9 -10 199.5
      vertex 19.685 -7.49426 199.5
      vertex 18.3523 -5.18589 199.5
    endloop
  endfacet
  facet normal 0 0 1
    outer loop
      vertex 12.9 -10 199.5
      vertex 21.4686 -9.4751 199.5
      vertex 19.685 -7.49426 199.5
    endloop
  endfacet
  facet normal 0 0 1
    outer loop
      vertex 12.9 -17.6 199.5
      vertex 21.4686 -9.4751 199.5
      vertex 12.9 -10 199.5
    endloop
  endfacet
  facet normal 0 0 1
    outer loop
      vertex 21.4686 -9.4751 199.5
      vertex 12.9 -17.6 199.5
      vertex 23.625 -11.0418 199.5
    endloop
  endfacet
  facet normal 0 0 1
    outer loop
      vertex 23.625 -11.0418 199.5
      vertex 12.9 -17.6 199.5
      vertex 26.06 -12.126 199.5
    endloop
  endfacet
  facet normal 0 0 1
    outer loop
      vertex 28.6673 -12.6802 199.5
      vertex 12.9 -17.6 199.5
      vertex 47.1 -17.6 199.5
    endloop
  endfacet
  facet normal 1 0 0
    outer loop
      vertex -7.75 5.25 203.75
      vertex -7.75 1.42658 199.536
      vertex -7.75 5.25 196.25
    endloop
  endfacet
  facet normal 1 0 0
    outer loop
      vertex -7.75 5.25 203.75
      vertex -7.75 0.881678 201.214
      vertex -7.75 1.42658 199.536
    endloop
  endfacet
  facet normal 1 0 0
    outer loop
      vertex -7.75 5.25 203.75
      vertex -7.75 -0.881678 201.214
      vertex -7.75 0.881678 201.214
    endloop
  endfacet
  facet normal 1 0 0
    outer loop
      vertex -7.75 -0.881678 201.214
      vertex -7.75 -5.25 203.75
      vertex -7.75 -1.42658 199.536
    endloop
  endfacet
  facet normal 1 -0 0
    outer loop
      vertex -7.75 -5.25 203.75
      vertex -7.75 -0.881678 201.214
      vertex -7.75 5.25 203.75
    endloop
  endfacet
  facet normal 1 -0 0
    outer loop
      vertex -7.75 0 198.5
      vertex -7.75 5.25 196.25
      vertex -7.75 1.42658 199.536
    endloop
  endfacet
  facet normal 1 0 0
    outer loop
      vertex -7.75 0 198.5
      vertex -7.75 -5.25 196.25
      vertex -7.75 5.25 196.25
    endloop
  endfacet
  facet normal 1 0 0
    outer loop
      vertex -7.75 -1.42658 199.536
      vertex -7.75 -5.25 196.25
      vertex -7.75 0 198.5
    endloop
  endfacet
  facet normal 1 0 0
    outer loop
      vertex -7.75 -5.25 196.25
      vertex -7.75 -1.42658 199.536
      vertex -7.75 -5.25 203.75
    endloop
  endfacet
  facet normal -1 0 0
    outer loop
      vertex -2.25 5.25 196.25
      vertex -2.25 1.42658 199.536
      vertex -2.25 5.25 203.75
    endloop
  endfacet
  facet normal -1 0 0
    outer loop
      vertex -2.25 5.25 196.25
      vertex -2.25 0 198.5
      vertex -2.25 1.42658 199.536
    endloop
  endfacet
  facet normal -1 -0 0
    outer loop
      vertex -2.25 0 198.5
      vertex -2.25 -5.25 196.25
      vertex -2.25 -1.42658 199.536
    endloop
  endfacet
  facet normal -1 0 0
    outer loop
      vertex -2.25 -5.25 196.25
      vertex -2.25 0 198.5
      vertex -2.25 5.25 196.25
    endloop
  endfacet
  facet normal -1 0 0
    outer loop
      vertex -2.25 0.881678 201.214
      vertex -2.25 5.25 203.75
      vertex -2.25 1.42658 199.536
    endloop
  endfacet
  facet normal -1 0 0
    outer loop
      vertex -2.25 -0.881678 201.214
      vertex -2.25 5.25 203.75
      vertex -2.25 0.881678 201.214
    endloop
  endfacet
  facet normal -1 0 0
    outer loop
      vertex -2.25 -5.25 203.75
      vertex -2.25 -1.42658 199.536
      vertex -2.25 -5.25 196.25
    endloop
  endfacet
  facet normal -1 0 0
    outer loop
      vertex -2.25 -0.881678 201.214
      vertex -2.25 -5.25 203.75
      vertex -2.25 5.25 203.75
    endloop
  endfacet
  facet normal -1 0 0
    outer loop
      vertex -2.25 -1.42658 199.536
      vertex -2.25 -5.25 203.75
      vertex -2.25 -0.881678 201.214
    endloop
  endfacet
  facet normal 0 -1 0
    outer loop
      vertex -7.75 5.25 196.25
      vertex -2.25 5.25 203.75
      vertex -7.75 5.25 203.75
    endloop
  endfacet
  facet normal 0 -1 -0
    outer loop
      vertex -2.25 5.25 203.75
      vertex -7.75 5.25 196.25
      vertex -2.25 5.25 196.25
    endloop
  endfacet
  facet normal 0 1 -0
    outer loop
      vertex -2.25 -5.25 196.25
      vertex -7.75 -5.25 203.75
      vertex -2.25 -5.25 203.75
    endloop
  endfacet
  facet normal 0 1 0
    outer loop
      vertex -7.75 -5.25 203.75
      vertex -2.25 -5.25 196.25
      vertex -7.75 -5.25 196.25
    endloop
  endfacet
  facet normal 0 -0.587783 0.809019
    outer loop
      vertex -2.25 1.42658 199.536
      vertex 0.9 0 198.5
      vertex 0.9 1.42658 199.536
    endloop
  endfacet
  facet normal 0 -0.587783 0.809019
    outer loop
      vertex 0.9 0 198.5
      vertex -2.25 1.42658 199.536
      vertex -2.25 0 198.5
    endloop
  endfacet
  facet normal 0 -0.587783 0.809019
    outer loop
      vertex -12.5 1.42658 199.536
      vertex -7.75 0 198.5
      vertex -7.75 1.42658 199.536
    endloop
  endfacet
  facet normal 0 -0.587783 0.809019
    outer loop
      vertex -7.75 0 198.5
      vertex -12.5 1.42658 199.536
      vertex -12.5 0 198.5
    endloop
  endfacet
  facet normal 0 0 -1
    outer loop
      vertex -2.25 -0.881678 201.214
      vertex 0.9 0.881678 201.214
      vertex 0.9 -0.881678 201.214
    endloop
  endfacet
  facet normal -0 0 -1
    outer loop
      vertex 0.9 0.881678 201.214
      vertex -2.25 -0.881678 201.214
      vertex -2.25 0.881678 201.214
    endloop
  endfacet
  facet normal 0 0 -1
    outer loop
      vertex -12.5 -0.881678 201.214
      vertex -7.75 0.881678 201.214
      vertex -7.75 -0.881678 201.214
    endloop
  endfacet
  facet normal -0 0 -1
    outer loop
      vertex -7.75 0.881678 201.214
      vertex -12.5 -0.881678 201.214
      vertex -12.5 0.881678 201.214
    endloop
  endfacet
  facet normal 0 -0.951057 -0.309015
    outer loop
      vertex -2.25 1.42658 199.536
      vertex 0.9 0.881678 201.214
      vertex -2.25 0.881678 201.214
    endloop
  endfacet
  facet normal 0 -0.951057 -0.309015
    outer loop
      vertex 0.9 0.881678 201.214
      vertex -2.25 1.42658 199.536
      vertex 0.9 1.42658 199.536
    endloop
  endfacet
  facet normal 0 -0.951057 -0.309015
    outer loop
      vertex -12.5 1.42658 199.536
      vertex -7.75 0.881678 201.214
      vertex -12.5 0.881678 201.214
    endloop
  endfacet
  facet normal 0 -0.951057 -0.309015
    outer loop
      vertex -7.75 0.881678 201.214
      vertex -12.5 1.42658 199.536
      vertex -7.75 1.42658 199.536
    endloop
  endfacet
  facet normal -1 0 0
    outer loop
      vertex 0.9 0 198.5
      vertex 0.9 0.881678 201.214
      vertex 0.9 1.42658 199.536
    endloop
  endfacet
  facet normal -1 0 0
    outer loop
      vertex 0.9 0 198.5
      vertex 0.9 -0.881678 201.214
      vertex 0.9 0.881678 201.214
    endloop
  endfacet
  facet normal -1 0 -0
    outer loop
      vertex 0.9 -0.881678 201.214
      vertex 0.9 0 198.5
      vertex 0.9 -1.42658 199.536
    endloop
  endfacet
  facet normal 0 0.951057 -0.309015
    outer loop
      vertex 0.9 -1.42658 199.536
      vertex -2.25 -0.881678 201.214
      vertex 0.9 -0.881678 201.214
    endloop
  endfacet
  facet normal 0 0.951057 -0.309015
    outer loop
      vertex -2.25 -0.881678 201.214
      vertex 0.9 -1.42658 199.536
      vertex -2.25 -1.42658 199.536
    endloop
  endfacet
  facet normal 0 0.951057 -0.309015
    outer loop
      vertex -7.75 -1.42658 199.536
      vertex -12.5 -0.881678 201.214
      vertex -7.75 -0.881678 201.214
    endloop
  endfacet
  facet normal 0 0.951057 -0.309015
    outer loop
      vertex -12.5 -0.881678 201.214
      vertex -7.75 -1.42658 199.536
      vertex -12.5 -1.42658 199.536
    endloop
  endfacet
  facet normal -0 0.587783 0.809019
    outer loop
      vertex -2.25 0 198.5
      vertex 0.9 -1.42658 199.536
      vertex 0.9 0 198.5
    endloop
  endfacet
  facet normal 0 0.587783 0.809019
    outer loop
      vertex 0.9 -1.42658 199.536
      vertex -2.25 0 198.5
      vertex -2.25 -1.42658 199.536
    endloop
  endfacet
  facet normal -0 0.587783 0.809019
    outer loop
      vertex -12.5 0 198.5
      vertex -7.75 -1.42658 199.536
      vertex -7.75 0 198.5
    endloop
  endfacet
  facet normal 0 0.587783 0.809019
    outer loop
      vertex -7.75 -1.42658 199.536
      vertex -12.5 0 198.5
      vertex -12.5 -1.42658 199.536
    endloop
  endfacet
endsolid OpenSCAD_Model
