G04 MADE WITH FRITZING*
G04 WWW.FRITZING.ORG*
G04 DOUBLE SIDED*
G04 HOLES PLATED*
G04 CONTOUR ON CENTER OF CONTOUR VECTOR*
%ASAXBY*%
%FSLAX23Y23*%
%MOIN*%
%OFA0B0*%
%SFA1.0B1.0*%
%ADD10C,0.074803*%
%ADD11C,0.075000*%
%ADD12C,0.039370*%
%ADD13C,0.080000*%
%ADD14C,0.070000*%
%ADD15R,0.075000X0.075000*%
%ADD16R,0.080000X0.080000*%
%ADD17R,0.070000X0.069972*%
%ADD18C,0.024000*%
%LNCOPPER0*%
G90*
G70*
G54D10*
X1317Y506D03*
X1417Y506D03*
X1517Y506D03*
X1617Y506D03*
X1717Y506D03*
X1817Y506D03*
X1917Y506D03*
X1267Y306D03*
X1367Y306D03*
X1467Y306D03*
X1567Y306D03*
X1667Y306D03*
X1767Y306D03*
X1867Y306D03*
X1967Y306D03*
G54D11*
X967Y606D03*
X1067Y606D03*
X967Y306D03*
X1067Y306D03*
G54D12*
X2004Y1215D03*
X1740Y1215D03*
X2004Y711D03*
X2028Y1143D03*
X948Y1215D03*
X660Y1719D03*
G54D13*
X167Y955D03*
X167Y1092D03*
X167Y1230D03*
X167Y1368D03*
X167Y1506D03*
X167Y1644D03*
X167Y206D03*
X167Y344D03*
X167Y481D03*
X167Y619D03*
X167Y757D03*
X367Y1606D03*
X505Y1606D03*
X967Y1606D03*
X1105Y1606D03*
X1667Y1606D03*
X1805Y1606D03*
X1942Y1606D03*
X867Y206D03*
X729Y206D03*
X591Y206D03*
X453Y206D03*
X2167Y706D03*
X2167Y568D03*
X2167Y430D03*
X2167Y292D03*
X1267Y1606D03*
X1405Y1606D03*
X667Y1606D03*
X805Y1606D03*
G54D14*
X467Y806D03*
X567Y806D03*
X667Y806D03*
X767Y806D03*
X867Y806D03*
X967Y806D03*
X1067Y806D03*
X1167Y806D03*
X1267Y806D03*
X1367Y806D03*
X1467Y806D03*
X1567Y806D03*
X1667Y806D03*
X1767Y806D03*
X1867Y806D03*
X467Y1406D03*
X567Y1406D03*
X667Y1406D03*
X767Y1406D03*
X867Y1406D03*
X967Y1406D03*
X1067Y1406D03*
X1167Y1406D03*
X1267Y1406D03*
X1367Y1406D03*
X1467Y1406D03*
X1567Y1406D03*
X1667Y1406D03*
X1767Y1406D03*
X1867Y1406D03*
G54D11*
X367Y406D03*
X767Y406D03*
X367Y506D03*
X767Y506D03*
X367Y606D03*
X767Y606D03*
X2367Y1306D03*
X2367Y1706D03*
X2367Y1206D03*
X2367Y806D03*
X2167Y1606D03*
X2167Y1506D03*
X2167Y1406D03*
X2167Y1206D03*
X2167Y1106D03*
X2167Y1006D03*
G54D15*
X967Y606D03*
X967Y306D03*
G54D16*
X167Y955D03*
X167Y206D03*
X367Y1606D03*
X967Y1606D03*
X1667Y1606D03*
X867Y206D03*
X2167Y706D03*
X1267Y1606D03*
X667Y1606D03*
G54D17*
X467Y806D03*
G54D18*
X2187Y986D02*
X2347Y826D01*
D02*
X584Y236D02*
X564Y327D01*
X564Y327D02*
X388Y487D01*
D02*
X1093Y318D02*
X1404Y471D01*
X1404Y471D02*
X1405Y475D01*
D02*
X143Y974D02*
X84Y1023D01*
X84Y1023D02*
X84Y1527D01*
X84Y1527D02*
X149Y1618D01*
D02*
X842Y225D02*
X516Y471D01*
X516Y471D02*
X516Y663D01*
X516Y663D02*
X300Y663D01*
X300Y663D02*
X300Y447D01*
X300Y447D02*
X343Y421D01*
D02*
X791Y620D02*
X1068Y783D01*
D02*
X1068Y783D02*
X1068Y777D01*
D02*
X2338Y1705D02*
X996Y1671D01*
D02*
X996Y1671D02*
X979Y1634D01*
D02*
X776Y533D02*
X780Y543D01*
D02*
X780Y543D02*
X1116Y543D01*
X1116Y543D02*
X1161Y777D01*
D02*
X198Y1364D02*
X396Y1335D01*
D02*
X396Y1335D02*
X1116Y1335D01*
X1116Y1335D02*
X1150Y1382D01*
D02*
X167Y1261D02*
X167Y1337D01*
D02*
X2146Y1486D02*
X1692Y1047D01*
D02*
X1692Y1047D02*
X1670Y835D01*
D02*
X2141Y1593D02*
X2004Y1527D01*
D02*
X2004Y1527D02*
X588Y1527D01*
X588Y1527D02*
X527Y1584D01*
D02*
X1136Y1606D02*
X1236Y1606D01*
D02*
X195Y1520D02*
X339Y1592D01*
D02*
X142Y224D02*
X36Y303D01*
X36Y303D02*
X36Y639D01*
X36Y639D02*
X144Y736D01*
D02*
X794Y413D02*
X1188Y519D01*
X1188Y519D02*
X1259Y778D01*
D02*
X1521Y538D02*
X1548Y735D01*
X1548Y735D02*
X1908Y735D01*
X1908Y735D02*
X1932Y759D01*
X1932Y759D02*
X1932Y1191D01*
X1932Y1191D02*
X1986Y1209D01*
D02*
X1751Y1231D02*
X1851Y1382D01*
D02*
X2167Y399D02*
X2167Y323D01*
D02*
X1985Y711D02*
X1956Y711D01*
X1956Y711D02*
X1980Y447D01*
X1980Y447D02*
X1452Y447D01*
X1452Y447D02*
X1384Y334D01*
D02*
X1443Y283D02*
X1284Y135D01*
X1284Y135D02*
X540Y135D01*
X540Y135D02*
X516Y279D01*
X516Y279D02*
X300Y351D01*
X300Y351D02*
X252Y399D01*
X252Y399D02*
X252Y711D01*
X252Y711D02*
X852Y711D01*
D02*
X852Y711D02*
X862Y777D01*
D02*
X2029Y1125D02*
X2052Y663D01*
X2052Y663D02*
X2028Y399D01*
X2028Y399D02*
X1524Y399D01*
X1524Y399D02*
X1553Y336D01*
D02*
X962Y1202D02*
X1346Y826D01*
D02*
X780Y1625D02*
X675Y1708D01*
D02*
X69Y605D02*
X69Y408D01*
D02*
X136Y615D02*
X69Y605D01*
D02*
X69Y408D02*
X141Y361D01*
G04 End of Copper0*
M02*