; NON-PLATED HOLES START AT T1
; THROUGH (PLATED) HOLES START AT T100
M48
INCH
T100C0.015748
T101C0.040000
T102C0.043307
T103C0.036000
T104C0.035000
%
T100
X006599Y017194
X020040Y007114
X020040Y012154
X017400Y012154
X020280Y011434
X009479Y012154
T101
X005912Y002057
X001668Y015057
X014046Y016057
X003668Y016057
X001668Y016435
X004534Y002057
X008046Y016057
X011046Y016057
X001668Y002057
X001668Y003435
X019424Y016057
X001668Y004813
X021668Y002923
X018046Y016057
X001668Y010923
X021668Y004301
X001668Y007569
X021668Y005679
X007290Y002057
X016668Y016057
X001668Y012301
X001668Y013679
X005046Y016057
X009668Y016057
X012668Y016057
X001668Y006191
X021668Y007057
X008668Y002057
X001668Y009545
X006668Y016057
T102
X019168Y005057
X013668Y003057
X012668Y003057
X016168Y005057
X015168Y005057
X018668Y003057
X017668Y003057
X015668Y003057
X014668Y003057
X018168Y005057
X017168Y005057
X014168Y005057
X013168Y005057
X019668Y003057
X016668Y003057
T103
X014668Y014057
X008668Y014057
X016668Y008057
X011668Y014057
X007668Y014057
X010668Y014057
X005668Y014057
X013668Y008057
X009668Y008057
X004668Y014057
X012668Y008057
X006668Y008057
X016668Y014057
X018668Y008057
X013668Y014057
X009668Y014057
X017668Y008057
X012668Y014057
X015668Y008057
X006668Y014057
X014668Y008057
X008668Y008057
X011668Y008057
X007668Y008057
X018668Y014057
X010668Y008057
X017668Y014057
X005668Y008057
X004668Y008057
X015668Y014057
T104
X023668Y012057
X009668Y003057
X021668Y016057
X003668Y006057
X023668Y017057
X007668Y004057
X021668Y010057
X021668Y015057
X007668Y006057
X003668Y005057
X010668Y006057
X021668Y012057
X010668Y003057
X023668Y013057
X021668Y014057
X007668Y005057
X003668Y004057
X021668Y011057
X009668Y006057
X023668Y008057
T00
M30
