G04 MADE WITH FRITZING*
G04 WWW.FRITZING.ORG*
G04 DOUBLE SIDED*
G04 HOLES PLATED*
G04 CONTOUR ON CENTER OF CONTOUR VECTOR*
%ASAXBY*%
%FSLAX23Y23*%
%MOIN*%
%OFA0B0*%
%SFA1.0B1.0*%
%ADD10C,0.084803*%
%ADD11C,0.085000*%
%ADD12C,0.049370*%
%ADD13C,0.090000*%
%ADD14C,0.080000*%
%ADD15R,0.085000X0.085000*%
%ADD16R,0.057244X0.053307*%
%ADD17R,0.090000X0.090000*%
%ADD18R,0.080000X0.079972*%
%LNMASK1*%
G90*
G70*
G54D10*
X1317Y506D03*
X1417Y506D03*
X1517Y506D03*
X1617Y506D03*
X1717Y506D03*
X1817Y506D03*
X1917Y506D03*
X1267Y306D03*
X1367Y306D03*
X1467Y306D03*
X1567Y306D03*
X1667Y306D03*
X1767Y306D03*
X1867Y306D03*
X1967Y306D03*
X1317Y506D03*
X1417Y506D03*
X1517Y506D03*
X1617Y506D03*
X1717Y506D03*
X1817Y506D03*
X1917Y506D03*
X1267Y306D03*
X1367Y306D03*
X1467Y306D03*
X1567Y306D03*
X1667Y306D03*
X1767Y306D03*
X1867Y306D03*
X1967Y306D03*
G54D11*
X967Y606D03*
X1067Y606D03*
X967Y306D03*
X1067Y306D03*
G54D12*
X2004Y1215D03*
X1740Y1215D03*
X2004Y711D03*
X2028Y1143D03*
X948Y1215D03*
X660Y1719D03*
G54D13*
X167Y955D03*
X167Y1092D03*
X167Y1230D03*
X167Y1368D03*
X167Y1506D03*
X167Y1644D03*
X167Y206D03*
X167Y344D03*
X167Y481D03*
X167Y619D03*
X167Y757D03*
X367Y1606D03*
X505Y1606D03*
X967Y1606D03*
X1105Y1606D03*
X1667Y1606D03*
X1805Y1606D03*
X1942Y1606D03*
X867Y206D03*
X729Y206D03*
X591Y206D03*
X453Y206D03*
X2167Y706D03*
X2167Y568D03*
X2167Y430D03*
X2167Y292D03*
X1267Y1606D03*
X1405Y1606D03*
X667Y1606D03*
X805Y1606D03*
G54D14*
X467Y806D03*
X567Y806D03*
X667Y806D03*
X767Y806D03*
X867Y806D03*
X967Y806D03*
X1067Y806D03*
X1167Y806D03*
X1267Y806D03*
X1367Y806D03*
X1467Y806D03*
X1567Y806D03*
X1667Y806D03*
X1767Y806D03*
X1867Y806D03*
X467Y1406D03*
X567Y1406D03*
X667Y1406D03*
X767Y1406D03*
X867Y1406D03*
X967Y1406D03*
X1067Y1406D03*
X1167Y1406D03*
X1267Y1406D03*
X1367Y1406D03*
X1467Y1406D03*
X1567Y1406D03*
X1667Y1406D03*
X1767Y1406D03*
X1867Y1406D03*
G54D11*
X367Y406D03*
X767Y406D03*
X367Y506D03*
X767Y506D03*
X367Y606D03*
X767Y606D03*
X2367Y1306D03*
X2367Y1706D03*
X2367Y1206D03*
X2367Y806D03*
X2167Y1606D03*
X2167Y1506D03*
X2167Y1406D03*
X2167Y1206D03*
X2167Y1106D03*
X2167Y1006D03*
G54D15*
X967Y606D03*
X967Y306D03*
G54D16*
X1267Y106D03*
X1334Y106D03*
G54D17*
X167Y955D03*
X167Y206D03*
X367Y1606D03*
X967Y1606D03*
X1667Y1606D03*
X867Y206D03*
X2167Y706D03*
X1267Y1606D03*
X667Y1606D03*
G54D18*
X467Y806D03*
G04 End of Mask1*
M02*