M48
;DRILL file {KiCad 4.0.7-e2-6376~58~ubuntu16.04.1} date Sun Nov 19 07:08:25 2017
;FORMAT={-:-/ absolute / inch / decimal}
FMAT,2
INCH,TZ
T1C0.016
T2C0.031
T3C0.032
T4C0.035
T5C0.036
T6C0.037
T7C0.039
T8C0.039
T9C0.053
T10C0.059
%
G90
G05
M72
T1
X4.3Y-4.47
X4.725Y-3.025
X4.725Y-3.15
X4.825Y-3.45
X4.825Y-3.55
X4.83Y-3.03
X4.83Y-3.11
X4.9Y-3.98
X4.9Y-4.95
X4.91Y-3.94
X4.94Y-4.08
X4.95Y-3.92
X5.01Y-2.85
X5.01Y-4.04
X5.04Y-2.89
X5.04Y-4.01
X5.14Y-2.67
X5.16Y-5.05
X5.21Y-4.66
X5.21Y-4.77
X5.5Y-3.15
X5.55Y-3.2
X5.55Y-3.35
X5.55Y-4.05
X5.6Y-3.2
X5.6Y-3.35
X5.6Y-4.1
X5.65Y-2.7
X5.65Y-2.9
X5.65Y-3.2
X5.65Y-3.35
X5.65Y-4.15
X5.7Y-3.15
X5.7Y-4.15
X5.75Y-3.35
X5.75Y-4.05
X6.Y-3.45
X6.05Y-2.05
X6.05Y-2.15
X6.05Y-3.2
X6.05Y-3.35
X6.2Y-3.25
X6.25Y-1.95
X6.25Y-2.9
X6.5Y-3.
X6.5Y-3.6
X6.6Y-3.65
X6.65Y-3.15
X6.76Y-2.63
T2
X4.3709Y-1.7622
X4.3709Y-1.9591
X4.7531Y-4.711
X4.9Y-3.4
X5.0016Y-4.711
X5.05Y-3.425
X5.0791Y-2.1134
X5.0791Y-2.263
X5.08Y-3.64
X5.08Y-3.86
X5.15Y-3.425
X5.18Y-3.64
X5.18Y-3.86
X5.25Y-3.425
X5.28Y-3.64
X5.28Y-3.86
X5.33Y-1.7
X5.33Y-1.8
X5.33Y-1.9
X5.33Y-2.
X5.33Y-2.1
X5.33Y-2.2
X5.33Y-2.3
X5.33Y-2.4
X5.33Y-2.5
X5.33Y-2.6
X5.33Y-2.7
X5.33Y-2.8
X5.33Y-2.9
X5.33Y-3.
X5.33Y-3.1
X5.93Y-1.7
X5.93Y-1.8
X5.93Y-1.9
X5.93Y-2.
X5.93Y-2.1
X5.93Y-2.2
X5.93Y-2.3
X5.93Y-2.4
X5.93Y-2.5
X5.93Y-2.6
X5.93Y-2.7
X5.93Y-2.8
X5.93Y-2.9
X5.93Y-3.
X5.93Y-3.1
X6.1984Y-4.115
X6.1984Y-4.3118
X6.4094Y-2.7055
X6.46Y-1.68
X6.46Y-1.78
X6.46Y-1.88
X6.4799Y-2.1799
X6.4799Y-2.3768
X6.5134Y-4.5437
X6.5134Y-4.6933
X6.5591Y-2.7055
T3
X4.8516Y-4.711
X4.9Y-3.4984
X5.065Y-2.5016
X5.065Y-2.6984
X5.1Y-4.711
X6.1425Y-4.5847
X6.1425Y-4.7815
X6.8213Y-2.7197
X7.0181Y-2.7197
T4
X4.4449Y-4.5567
X4.4449Y-4.6551
X4.45Y-4.1866
X4.45Y-4.285
X4.4508Y-3.7236
X4.4508Y-3.822
X4.4508Y-3.9205
X4.4571Y-3.1567
X4.4571Y-3.2551
X4.4571Y-3.3535
X4.4571Y-3.452
X4.4591Y-2.7854
X4.4591Y-2.8839
X4.4594Y-2.4248
X4.4594Y-2.5232
X6.8Y-1.765
X6.8Y-1.8634
X6.8Y-1.9618
X6.8189Y-3.0165
X6.8189Y-3.115
X6.8189Y-3.2134
X6.8201Y-3.4799
X6.8201Y-3.5783
X6.8201Y-3.6768
X6.8201Y-3.7752
T5
X6.3888Y-5.075
X6.4675Y-5.075
X6.5463Y-5.075
X6.625Y-5.075
T6
X4.2142Y-4.8685
X4.2642Y-5.0685
X4.3142Y-4.8685
X4.3642Y-5.0685
X4.4142Y-4.8685
X4.4642Y-5.0685
X4.5142Y-4.8685
X4.5642Y-5.0685
X4.6142Y-4.8685
X4.6642Y-5.0685
X4.7012Y-1.9453
X4.7142Y-4.8685
X4.7642Y-5.0685
X4.7681Y-1.7799
X4.8142Y-4.8685
X4.835Y-1.9453
X4.8642Y-5.0685
X4.902Y-1.7799
X4.9142Y-4.8685
X4.9689Y-1.9453
X6.7846Y-4.5063
X6.7846Y-4.6402
X6.7846Y-4.774
X6.7898Y-2.2012
X6.7898Y-2.335
X6.7898Y-2.4689
X6.95Y-4.5732
X6.95Y-4.7071
X6.9551Y-2.2681
X6.9551Y-2.402
T7
X4.7201Y-3.515
X4.7201Y-3.8693
X5.06Y-4.3
X5.06Y-4.51
X5.0996Y-5.1512
X5.28Y-4.91
X5.2996Y-5.1512
X5.4143Y-4.3
X5.4143Y-4.51
X5.47Y-3.42
X5.47Y-3.63
X5.47Y-3.83
X5.6343Y-4.91
X5.8243Y-3.42
X5.8243Y-3.63
X5.8243Y-3.83
X6.1252Y-1.75
X6.1252Y-2.1043
T9
X6.3781Y-4.9679
X6.3781Y-5.1821
X6.6537Y-4.9679
X6.6537Y-5.1821
T10
X4.73Y-2.15
X4.73Y-2.75
X5.803Y-4.174
X5.803Y-4.774
X6.153Y-2.4
X6.153Y-3.
T8
X6.5559Y-4.2445G85X6.5559Y-4.1658
G05
X6.7134Y-4.0201G85X6.6346Y-4.0201
G05
X6.7921Y-4.2445G85X6.7921Y-4.1658
G05
T0
M30
