G04 #@! TF.FileFunction,Legend,Top*
%FSLAX46Y46*%
G04 Gerber Fmt 4.6, Leading zero omitted, Abs format (unit mm)*
G04 Created by KiCad (PCBNEW 4.0.7-e2-6376~58~ubuntu16.04.1) date Sun Nov 19 07:08:21 2017*
%MOMM*%
%LPD*%
G01*
G04 APERTURE LIST*
%ADD10C,0.100000*%
%ADD11C,0.150000*%
%ADD12C,0.300000*%
%ADD13C,0.400000*%
%ADD14C,0.120000*%
G04 APERTURE END LIST*
D10*
D11*
X177002200Y-166007200D02*
X177002200Y-198007200D01*
X285002200Y-198007200D01*
X285002200Y-166007200D01*
X177002200Y-166007200D01*
D10*
D11*
X10000000Y-10000000D02*
X10000000Y-200007200D01*
X287002200Y-200007200D01*
X287002200Y-10000000D01*
X10000000Y-10000000D01*
D10*
D11*
X12000000Y-12000000D02*
X12000000Y-198007200D01*
X285002200Y-198007200D01*
X285002200Y-12000000D01*
X12000000Y-12000000D01*
D10*
D11*
X60000000Y-12000000D02*
X60000000Y-10000000D01*
D10*
D11*
X110000000Y-12000000D02*
X110000000Y-10000000D01*
D10*
D11*
X160000000Y-12000000D02*
X160000000Y-10000000D01*
D10*
D11*
X210000000Y-12000000D02*
X210000000Y-10000000D01*
D10*
D11*
X260000000Y-12000000D02*
X260000000Y-10000000D01*
D10*
D11*
X35990476Y-11588095D02*
X35247619Y-11588095D01*
X35619048Y-11588095D02*
X35619048Y-10288095D01*
X35495238Y-10473810D01*
X35371429Y-10597619D01*
X35247619Y-10659524D01*
D10*
D11*
X85247619Y-10411905D02*
X85309524Y-10350000D01*
X85433333Y-10288095D01*
X85742857Y-10288095D01*
X85866667Y-10350000D01*
X85928571Y-10411905D01*
X85990476Y-10535714D01*
X85990476Y-10659524D01*
X85928571Y-10845238D01*
X85185714Y-11588095D01*
X85990476Y-11588095D01*
D10*
D11*
X135185714Y-10288095D02*
X135990476Y-10288095D01*
X135557143Y-10783333D01*
X135742857Y-10783333D01*
X135866667Y-10845238D01*
X135928571Y-10907143D01*
X135990476Y-11030952D01*
X135990476Y-11340476D01*
X135928571Y-11464286D01*
X135866667Y-11526190D01*
X135742857Y-11588095D01*
X135371429Y-11588095D01*
X135247619Y-11526190D01*
X135185714Y-11464286D01*
D10*
D11*
X185866667Y-10721429D02*
X185866667Y-11588095D01*
X185557143Y-10226190D02*
X185247619Y-11154762D01*
X186052381Y-11154762D01*
D10*
D11*
X235928571Y-10288095D02*
X235309524Y-10288095D01*
X235247619Y-10907143D01*
X235309524Y-10845238D01*
X235433333Y-10783333D01*
X235742857Y-10783333D01*
X235866667Y-10845238D01*
X235928571Y-10907143D01*
X235990476Y-11030952D01*
X235990476Y-11340476D01*
X235928571Y-11464286D01*
X235866667Y-11526190D01*
X235742857Y-11588095D01*
X235433333Y-11588095D01*
X235309524Y-11526190D01*
X235247619Y-11464286D01*
D10*
D11*
X285866667Y-10288095D02*
X285619048Y-10288095D01*
X285495238Y-10350000D01*
X285433333Y-10411905D01*
X285309524Y-10597619D01*
X285247619Y-10845238D01*
X285247619Y-11340476D01*
X285309524Y-11464286D01*
X285371429Y-11526190D01*
X285495238Y-11588095D01*
X285742857Y-11588095D01*
X285866667Y-11526190D01*
X285928571Y-11464286D01*
X285990476Y-11340476D01*
X285990476Y-11030952D01*
X285928571Y-10907143D01*
X285866667Y-10845238D01*
X285742857Y-10783333D01*
X285495238Y-10783333D01*
X285371429Y-10845238D01*
X285309524Y-10907143D01*
X285247619Y-11030952D01*
D10*
D11*
X60000000Y-198007200D02*
X60000000Y-200007200D01*
D10*
D11*
X110000000Y-198007200D02*
X110000000Y-200007200D01*
D10*
D11*
X160000000Y-198007200D02*
X160000000Y-200007200D01*
D10*
D11*
X210000000Y-198007200D02*
X210000000Y-200007200D01*
D10*
D11*
X260000000Y-198007200D02*
X260000000Y-200007200D01*
D10*
D11*
X35990476Y-199595295D02*
X35247619Y-199595295D01*
X35619048Y-199595295D02*
X35619048Y-198295295D01*
X35495238Y-198481010D01*
X35371429Y-198604819D01*
X35247619Y-198666724D01*
D10*
D11*
X85247619Y-198419105D02*
X85309524Y-198357200D01*
X85433333Y-198295295D01*
X85742857Y-198295295D01*
X85866667Y-198357200D01*
X85928571Y-198419105D01*
X85990476Y-198542914D01*
X85990476Y-198666724D01*
X85928571Y-198852438D01*
X85185714Y-199595295D01*
X85990476Y-199595295D01*
D10*
D11*
X135185714Y-198295295D02*
X135990476Y-198295295D01*
X135557143Y-198790533D01*
X135742857Y-198790533D01*
X135866667Y-198852438D01*
X135928571Y-198914343D01*
X135990476Y-199038152D01*
X135990476Y-199347676D01*
X135928571Y-199471486D01*
X135866667Y-199533390D01*
X135742857Y-199595295D01*
X135371429Y-199595295D01*
X135247619Y-199533390D01*
X135185714Y-199471486D01*
D10*
D11*
X185866667Y-198728629D02*
X185866667Y-199595295D01*
X185557143Y-198233390D02*
X185247619Y-199161962D01*
X186052381Y-199161962D01*
D10*
D11*
X235928571Y-198295295D02*
X235309524Y-198295295D01*
X235247619Y-198914343D01*
X235309524Y-198852438D01*
X235433333Y-198790533D01*
X235742857Y-198790533D01*
X235866667Y-198852438D01*
X235928571Y-198914343D01*
X235990476Y-199038152D01*
X235990476Y-199347676D01*
X235928571Y-199471486D01*
X235866667Y-199533390D01*
X235742857Y-199595295D01*
X235433333Y-199595295D01*
X235309524Y-199533390D01*
X235247619Y-199471486D01*
D10*
D11*
X285866667Y-198295295D02*
X285619048Y-198295295D01*
X285495238Y-198357200D01*
X285433333Y-198419105D01*
X285309524Y-198604819D01*
X285247619Y-198852438D01*
X285247619Y-199347676D01*
X285309524Y-199471486D01*
X285371429Y-199533390D01*
X285495238Y-199595295D01*
X285742857Y-199595295D01*
X285866667Y-199533390D01*
X285928571Y-199471486D01*
X285990476Y-199347676D01*
X285990476Y-199038152D01*
X285928571Y-198914343D01*
X285866667Y-198852438D01*
X285742857Y-198790533D01*
X285495238Y-198790533D01*
X285371429Y-198852438D01*
X285309524Y-198914343D01*
X285247619Y-199038152D01*
D10*
D11*
X10000000Y-60000000D02*
X12000000Y-60000000D01*
D10*
D11*
X10000000Y-110000000D02*
X12000000Y-110000000D01*
D10*
D11*
X10000000Y-160000000D02*
X12000000Y-160000000D01*
D10*
D11*
X10690476Y-35216667D02*
X11309524Y-35216667D01*
X10566667Y-35588095D02*
X11000000Y-34288095D01*
X11433333Y-35588095D01*
D10*
D11*
X11092857Y-84907143D02*
X11278571Y-84969048D01*
X11340476Y-85030952D01*
X11402381Y-85154762D01*
X11402381Y-85340476D01*
X11340476Y-85464286D01*
X11278571Y-85526190D01*
X11154762Y-85588095D01*
X10659524Y-85588095D01*
X10659524Y-84288095D01*
X11092857Y-84288095D01*
X11216667Y-84350000D01*
X11278571Y-84411905D01*
X11340476Y-84535714D01*
X11340476Y-84659524D01*
X11278571Y-84783333D01*
X11216667Y-84845238D01*
X11092857Y-84907143D01*
X10659524Y-84907143D01*
D10*
D11*
X11402381Y-135464286D02*
X11340476Y-135526190D01*
X11154762Y-135588095D01*
X11030952Y-135588095D01*
X10845238Y-135526190D01*
X10721429Y-135402381D01*
X10659524Y-135278571D01*
X10597619Y-135030952D01*
X10597619Y-134845238D01*
X10659524Y-134597619D01*
X10721429Y-134473810D01*
X10845238Y-134350000D01*
X11030952Y-134288095D01*
X11154762Y-134288095D01*
X11340476Y-134350000D01*
X11402381Y-134411905D01*
D10*
D11*
X10659524Y-185588095D02*
X10659524Y-184288095D01*
X10969048Y-184288095D01*
X11154762Y-184350000D01*
X11278571Y-184473810D01*
X11340476Y-184597619D01*
X11402381Y-184845238D01*
X11402381Y-185030952D01*
X11340476Y-185278571D01*
X11278571Y-185402381D01*
X11154762Y-185526190D01*
X10969048Y-185588095D01*
X10659524Y-185588095D01*
D10*
D11*
X287002200Y-60000000D02*
X285002200Y-60000000D01*
D10*
D11*
X287002200Y-110000000D02*
X285002200Y-110000000D01*
D10*
D11*
X287002200Y-160000000D02*
X285002200Y-160000000D01*
D10*
D11*
X285692676Y-35216667D02*
X286311724Y-35216667D01*
X285568867Y-35588095D02*
X286002200Y-34288095D01*
X286435533Y-35588095D01*
D10*
D11*
X286095057Y-84907143D02*
X286280771Y-84969048D01*
X286342676Y-85030952D01*
X286404581Y-85154762D01*
X286404581Y-85340476D01*
X286342676Y-85464286D01*
X286280771Y-85526190D01*
X286156962Y-85588095D01*
X285661724Y-85588095D01*
X285661724Y-84288095D01*
X286095057Y-84288095D01*
X286218867Y-84350000D01*
X286280771Y-84411905D01*
X286342676Y-84535714D01*
X286342676Y-84659524D01*
X286280771Y-84783333D01*
X286218867Y-84845238D01*
X286095057Y-84907143D01*
X285661724Y-84907143D01*
D10*
D11*
X286404581Y-135464286D02*
X286342676Y-135526190D01*
X286156962Y-135588095D01*
X286033152Y-135588095D01*
X285847438Y-135526190D01*
X285723629Y-135402381D01*
X285661724Y-135278571D01*
X285599819Y-135030952D01*
X285599819Y-134845238D01*
X285661724Y-134597619D01*
X285723629Y-134473810D01*
X285847438Y-134350000D01*
X286033152Y-134288095D01*
X286156962Y-134288095D01*
X286342676Y-134350000D01*
X286404581Y-134411905D01*
D10*
D11*
X285661724Y-185588095D02*
X285661724Y-184288095D01*
X285971248Y-184288095D01*
X286156962Y-184350000D01*
X286280771Y-184473810D01*
X286342676Y-184597619D01*
X286404581Y-184845238D01*
X286404581Y-185030952D01*
X286342676Y-185278571D01*
X286280771Y-185402381D01*
X286156962Y-185526190D01*
X285971248Y-185588095D01*
X285661724Y-185588095D01*
D10*
D11*
X200359343Y-193785771D02*
X200359343Y-192285771D01*
X200716486Y-192285771D01*
X200930771Y-192357200D01*
X201073629Y-192500057D01*
X201145057Y-192642914D01*
X201216486Y-192928629D01*
X201216486Y-193142914D01*
X201145057Y-193428629D01*
X201073629Y-193571486D01*
X200930771Y-193714343D01*
X200716486Y-193785771D01*
X200359343Y-193785771D01*
X202502200Y-193785771D02*
X202502200Y-193000057D01*
X202430771Y-192857200D01*
X202287914Y-192785771D01*
X202002200Y-192785771D01*
X201859343Y-192857200D01*
X202502200Y-193714343D02*
X202359343Y-193785771D01*
X202002200Y-193785771D01*
X201859343Y-193714343D01*
X201787914Y-193571486D01*
X201787914Y-193428629D01*
X201859343Y-193285771D01*
X202002200Y-193214343D01*
X202359343Y-193214343D01*
X202502200Y-193142914D01*
X203002200Y-192785771D02*
X203573629Y-192785771D01*
X203216486Y-192285771D02*
X203216486Y-193571486D01*
X203287914Y-193714343D01*
X203430772Y-193785771D01*
X203573629Y-193785771D01*
X204645057Y-193714343D02*
X204502200Y-193785771D01*
X204216486Y-193785771D01*
X204073629Y-193714343D01*
X204002200Y-193571486D01*
X204002200Y-193000057D01*
X204073629Y-192857200D01*
X204216486Y-192785771D01*
X204502200Y-192785771D01*
X204645057Y-192857200D01*
X204716486Y-193000057D01*
X204716486Y-193142914D01*
X204002200Y-193285771D01*
X205359343Y-193642914D02*
X205430771Y-193714343D01*
X205359343Y-193785771D01*
X205287914Y-193714343D01*
X205359343Y-193642914D01*
X205359343Y-193785771D01*
X205359343Y-192857200D02*
X205430771Y-192928629D01*
X205359343Y-193000057D01*
X205287914Y-192928629D01*
X205359343Y-192857200D01*
X205359343Y-193000057D01*
D10*
D11*
X177002200Y-194507200D02*
X285002200Y-194507200D01*
D10*
D11*
X178359343Y-196585771D02*
X178359343Y-195085771D01*
X179216486Y-196585771D02*
X178573629Y-195728629D01*
X179216486Y-195085771D02*
X178359343Y-195942914D01*
X179859343Y-196585771D02*
X179859343Y-195585771D01*
X179859343Y-195085771D02*
X179787914Y-195157200D01*
X179859343Y-195228629D01*
X179930771Y-195157200D01*
X179859343Y-195085771D01*
X179859343Y-195228629D01*
X181430772Y-196442914D02*
X181359343Y-196514343D01*
X181145057Y-196585771D01*
X181002200Y-196585771D01*
X180787915Y-196514343D01*
X180645057Y-196371486D01*
X180573629Y-196228629D01*
X180502200Y-195942914D01*
X180502200Y-195728629D01*
X180573629Y-195442914D01*
X180645057Y-195300057D01*
X180787915Y-195157200D01*
X181002200Y-195085771D01*
X181145057Y-195085771D01*
X181359343Y-195157200D01*
X181430772Y-195228629D01*
X182716486Y-196585771D02*
X182716486Y-195800057D01*
X182645057Y-195657200D01*
X182502200Y-195585771D01*
X182216486Y-195585771D01*
X182073629Y-195657200D01*
X182716486Y-196514343D02*
X182573629Y-196585771D01*
X182216486Y-196585771D01*
X182073629Y-196514343D01*
X182002200Y-196371486D01*
X182002200Y-196228629D01*
X182073629Y-196085771D01*
X182216486Y-196014343D01*
X182573629Y-196014343D01*
X182716486Y-195942914D01*
X184073629Y-196585771D02*
X184073629Y-195085771D01*
X184073629Y-196514343D02*
X183930772Y-196585771D01*
X183645058Y-196585771D01*
X183502200Y-196514343D01*
X183430772Y-196442914D01*
X183359343Y-196300057D01*
X183359343Y-195871486D01*
X183430772Y-195728629D01*
X183502200Y-195657200D01*
X183645058Y-195585771D01*
X183930772Y-195585771D01*
X184073629Y-195657200D01*
X185930772Y-195800057D02*
X186430772Y-195800057D01*
X186645058Y-196585771D02*
X185930772Y-196585771D01*
X185930772Y-195085771D01*
X186645058Y-195085771D01*
X187287915Y-196442914D02*
X187359343Y-196514343D01*
X187287915Y-196585771D01*
X187216486Y-196514343D01*
X187287915Y-196442914D01*
X187287915Y-196585771D01*
X188002201Y-196585771D02*
X188002201Y-195085771D01*
X188359344Y-195085771D01*
X188573629Y-195157200D01*
X188716487Y-195300057D01*
X188787915Y-195442914D01*
X188859344Y-195728629D01*
X188859344Y-195942914D01*
X188787915Y-196228629D01*
X188716487Y-196371486D01*
X188573629Y-196514343D01*
X188359344Y-196585771D01*
X188002201Y-196585771D01*
X189502201Y-196442914D02*
X189573629Y-196514343D01*
X189502201Y-196585771D01*
X189430772Y-196514343D01*
X189502201Y-196442914D01*
X189502201Y-196585771D01*
X190145058Y-196157200D02*
X190859344Y-196157200D01*
X190002201Y-196585771D02*
X190502201Y-195085771D01*
X191002201Y-196585771D01*
X191502201Y-196442914D02*
X191573629Y-196514343D01*
X191502201Y-196585771D01*
X191430772Y-196514343D01*
X191502201Y-196442914D01*
X191502201Y-196585771D01*
X194502201Y-196585771D02*
X194502201Y-195085771D01*
X194645058Y-196014343D02*
X195073629Y-196585771D01*
X195073629Y-195585771D02*
X194502201Y-196157200D01*
X195716487Y-196585771D02*
X195716487Y-195585771D01*
X195716487Y-195085771D02*
X195645058Y-195157200D01*
X195716487Y-195228629D01*
X195787915Y-195157200D01*
X195716487Y-195085771D01*
X195716487Y-195228629D01*
X197073630Y-196514343D02*
X196930773Y-196585771D01*
X196645059Y-196585771D01*
X196502201Y-196514343D01*
X196430773Y-196442914D01*
X196359344Y-196300057D01*
X196359344Y-195871486D01*
X196430773Y-195728629D01*
X196502201Y-195657200D01*
X196645059Y-195585771D01*
X196930773Y-195585771D01*
X197073630Y-195657200D01*
X198359344Y-196585771D02*
X198359344Y-195800057D01*
X198287915Y-195657200D01*
X198145058Y-195585771D01*
X197859344Y-195585771D01*
X197716487Y-195657200D01*
X198359344Y-196514343D02*
X198216487Y-196585771D01*
X197859344Y-196585771D01*
X197716487Y-196514343D01*
X197645058Y-196371486D01*
X197645058Y-196228629D01*
X197716487Y-196085771D01*
X197859344Y-196014343D01*
X198216487Y-196014343D01*
X198359344Y-195942914D01*
X199716487Y-196585771D02*
X199716487Y-195085771D01*
X199716487Y-196514343D02*
X199573630Y-196585771D01*
X199287916Y-196585771D01*
X199145058Y-196514343D01*
X199073630Y-196442914D01*
X199002201Y-196300057D01*
X199002201Y-195871486D01*
X199073630Y-195728629D01*
X199145058Y-195657200D01*
X199287916Y-195585771D01*
X199573630Y-195585771D01*
X199716487Y-195657200D01*
X202216487Y-195585771D02*
X202216487Y-196585771D01*
X201859344Y-195014343D02*
X201502201Y-196085771D01*
X202430773Y-196085771D01*
X203002201Y-196442914D02*
X203073629Y-196514343D01*
X203002201Y-196585771D01*
X202930772Y-196514343D01*
X203002201Y-196442914D01*
X203002201Y-196585771D01*
X204002201Y-195085771D02*
X204145058Y-195085771D01*
X204287915Y-195157200D01*
X204359344Y-195228629D01*
X204430773Y-195371486D01*
X204502201Y-195657200D01*
X204502201Y-196014343D01*
X204430773Y-196300057D01*
X204359344Y-196442914D01*
X204287915Y-196514343D01*
X204145058Y-196585771D01*
X204002201Y-196585771D01*
X203859344Y-196514343D01*
X203787915Y-196442914D01*
X203716487Y-196300057D01*
X203645058Y-196014343D01*
X203645058Y-195657200D01*
X203716487Y-195371486D01*
X203787915Y-195228629D01*
X203859344Y-195157200D01*
X204002201Y-195085771D01*
X205145058Y-196442914D02*
X205216486Y-196514343D01*
X205145058Y-196585771D01*
X205073629Y-196514343D01*
X205145058Y-196442914D01*
X205145058Y-196585771D01*
X205716487Y-195085771D02*
X206716487Y-195085771D01*
X206073630Y-196585771D01*
X207287915Y-196014343D02*
X208430772Y-196014343D01*
X209716486Y-196514343D02*
X209573629Y-196585771D01*
X209287915Y-196585771D01*
X209145058Y-196514343D01*
X209073629Y-196371486D01*
X209073629Y-195800057D01*
X209145058Y-195657200D01*
X209287915Y-195585771D01*
X209573629Y-195585771D01*
X209716486Y-195657200D01*
X209787915Y-195800057D01*
X209787915Y-195942914D01*
X209073629Y-196085771D01*
X210359343Y-195228629D02*
X210430772Y-195157200D01*
X210573629Y-195085771D01*
X210930772Y-195085771D01*
X211073629Y-195157200D01*
X211145058Y-195228629D01*
X211216486Y-195371486D01*
X211216486Y-195514343D01*
X211145058Y-195728629D01*
X210287915Y-196585771D01*
X211216486Y-196585771D01*
X211859343Y-196014343D02*
X213002200Y-196014343D01*
X214359343Y-195085771D02*
X214073629Y-195085771D01*
X213930772Y-195157200D01*
X213859343Y-195228629D01*
X213716486Y-195442914D01*
X213645057Y-195728629D01*
X213645057Y-196300057D01*
X213716486Y-196442914D01*
X213787914Y-196514343D01*
X213930772Y-196585771D01*
X214216486Y-196585771D01*
X214359343Y-196514343D01*
X214430772Y-196442914D01*
X214502200Y-196300057D01*
X214502200Y-195942914D01*
X214430772Y-195800057D01*
X214359343Y-195728629D01*
X214216486Y-195657200D01*
X213930772Y-195657200D01*
X213787914Y-195728629D01*
X213716486Y-195800057D01*
X213645057Y-195942914D01*
X215002200Y-195085771D02*
X215930771Y-195085771D01*
X215430771Y-195657200D01*
X215645057Y-195657200D01*
X215787914Y-195728629D01*
X215859343Y-195800057D01*
X215930771Y-195942914D01*
X215930771Y-196300057D01*
X215859343Y-196442914D01*
X215787914Y-196514343D01*
X215645057Y-196585771D01*
X215216485Y-196585771D01*
X215073628Y-196514343D01*
X215002200Y-196442914D01*
X216430771Y-195085771D02*
X217430771Y-195085771D01*
X216787914Y-196585771D01*
X218645056Y-195085771D02*
X218359342Y-195085771D01*
X218216485Y-195157200D01*
X218145056Y-195228629D01*
X218002199Y-195442914D01*
X217930770Y-195728629D01*
X217930770Y-196300057D01*
X218002199Y-196442914D01*
X218073627Y-196514343D01*
X218216485Y-196585771D01*
X218502199Y-196585771D01*
X218645056Y-196514343D01*
X218716485Y-196442914D01*
X218787913Y-196300057D01*
X218787913Y-195942914D01*
X218716485Y-195800057D01*
X218645056Y-195728629D01*
X218502199Y-195657200D01*
X218216485Y-195657200D01*
X218073627Y-195728629D01*
X218002199Y-195800057D01*
X217930770Y-195942914D01*
X220145056Y-195085771D02*
X219430770Y-195085771D01*
X219359341Y-195800057D01*
X219430770Y-195728629D01*
X219573627Y-195657200D01*
X219930770Y-195657200D01*
X220073627Y-195728629D01*
X220145056Y-195800057D01*
X220216484Y-195942914D01*
X220216484Y-196300057D01*
X220145056Y-196442914D01*
X220073627Y-196514343D01*
X219930770Y-196585771D01*
X219573627Y-196585771D01*
X219430770Y-196514343D01*
X219359341Y-196442914D01*
X221073627Y-195728629D02*
X220930769Y-195657200D01*
X220859341Y-195585771D01*
X220787912Y-195442914D01*
X220787912Y-195371486D01*
X220859341Y-195228629D01*
X220930769Y-195157200D01*
X221073627Y-195085771D01*
X221359341Y-195085771D01*
X221502198Y-195157200D01*
X221573627Y-195228629D01*
X221645055Y-195371486D01*
X221645055Y-195442914D01*
X221573627Y-195585771D01*
X221502198Y-195657200D01*
X221359341Y-195728629D01*
X221073627Y-195728629D01*
X220930769Y-195800057D01*
X220859341Y-195871486D01*
X220787912Y-196014343D01*
X220787912Y-196300057D01*
X220859341Y-196442914D01*
X220930769Y-196514343D01*
X221073627Y-196585771D01*
X221359341Y-196585771D01*
X221502198Y-196514343D01*
X221573627Y-196442914D01*
X221645055Y-196300057D01*
X221645055Y-196014343D01*
X221573627Y-195871486D01*
X221502198Y-195800057D01*
X221359341Y-195728629D01*
X219073627Y-194827200D02*
X221930769Y-194827200D01*
X222930769Y-195585771D02*
X222930769Y-196585771D01*
X222287912Y-195585771D02*
X222287912Y-196371486D01*
X222359340Y-196514343D01*
X222502198Y-196585771D01*
X222716483Y-196585771D01*
X222859340Y-196514343D01*
X222930769Y-196442914D01*
X223645055Y-196585771D02*
X223645055Y-195085771D01*
X223645055Y-195657200D02*
X223787912Y-195585771D01*
X224073626Y-195585771D01*
X224216483Y-195657200D01*
X224287912Y-195728629D01*
X224359341Y-195871486D01*
X224359341Y-196300057D01*
X224287912Y-196442914D01*
X224216483Y-196514343D01*
X224073626Y-196585771D01*
X223787912Y-196585771D01*
X223645055Y-196514343D01*
X225645055Y-195585771D02*
X225645055Y-196585771D01*
X225002198Y-195585771D02*
X225002198Y-196371486D01*
X225073626Y-196514343D01*
X225216484Y-196585771D01*
X225430769Y-196585771D01*
X225573626Y-196514343D01*
X225645055Y-196442914D01*
X226359341Y-195585771D02*
X226359341Y-196585771D01*
X226359341Y-195728629D02*
X226430769Y-195657200D01*
X226573627Y-195585771D01*
X226787912Y-195585771D01*
X226930769Y-195657200D01*
X227002198Y-195800057D01*
X227002198Y-196585771D01*
X227502198Y-195585771D02*
X228073627Y-195585771D01*
X227716484Y-195085771D02*
X227716484Y-196371486D01*
X227787912Y-196514343D01*
X227930770Y-196585771D01*
X228073627Y-196585771D01*
X229216484Y-195585771D02*
X229216484Y-196585771D01*
X228573627Y-195585771D02*
X228573627Y-196371486D01*
X228645055Y-196514343D01*
X228787913Y-196585771D01*
X229002198Y-196585771D01*
X229145055Y-196514343D01*
X229216484Y-196442914D01*
X230716484Y-196585771D02*
X229859341Y-196585771D01*
X230287913Y-196585771D02*
X230287913Y-195085771D01*
X230145056Y-195300057D01*
X230002198Y-195442914D01*
X229859341Y-195514343D01*
X232002198Y-195085771D02*
X231716484Y-195085771D01*
X231573627Y-195157200D01*
X231502198Y-195228629D01*
X231359341Y-195442914D01*
X231287912Y-195728629D01*
X231287912Y-196300057D01*
X231359341Y-196442914D01*
X231430769Y-196514343D01*
X231573627Y-196585771D01*
X231859341Y-196585771D01*
X232002198Y-196514343D01*
X232073627Y-196442914D01*
X232145055Y-196300057D01*
X232145055Y-195942914D01*
X232073627Y-195800057D01*
X232002198Y-195728629D01*
X231859341Y-195657200D01*
X231573627Y-195657200D01*
X231430769Y-195728629D01*
X231359341Y-195800057D01*
X231287912Y-195942914D01*
X232787912Y-196442914D02*
X232859340Y-196514343D01*
X232787912Y-196585771D01*
X232716483Y-196514343D01*
X232787912Y-196442914D01*
X232787912Y-196585771D01*
X233787912Y-195085771D02*
X233930769Y-195085771D01*
X234073626Y-195157200D01*
X234145055Y-195228629D01*
X234216484Y-195371486D01*
X234287912Y-195657200D01*
X234287912Y-196014343D01*
X234216484Y-196300057D01*
X234145055Y-196442914D01*
X234073626Y-196514343D01*
X233930769Y-196585771D01*
X233787912Y-196585771D01*
X233645055Y-196514343D01*
X233573626Y-196442914D01*
X233502198Y-196300057D01*
X233430769Y-196014343D01*
X233430769Y-195657200D01*
X233502198Y-195371486D01*
X233573626Y-195228629D01*
X233645055Y-195157200D01*
X233787912Y-195085771D01*
X235573626Y-195585771D02*
X235573626Y-196585771D01*
X235216483Y-195014343D02*
X234859340Y-196085771D01*
X235787912Y-196085771D01*
X236359340Y-196442914D02*
X236430768Y-196514343D01*
X236359340Y-196585771D01*
X236287911Y-196514343D01*
X236359340Y-196442914D01*
X236359340Y-196585771D01*
X237859340Y-196585771D02*
X237002197Y-196585771D01*
X237430769Y-196585771D02*
X237430769Y-195085771D01*
X237287912Y-195300057D01*
X237145054Y-195442914D01*
X237002197Y-195514343D01*
D10*
D11*
X177002200Y-191507200D02*
X285002200Y-191507200D01*
D10*
D12*
X264216486Y-193785771D02*
X263716486Y-193071486D01*
X263359343Y-193785771D02*
X263359343Y-192285771D01*
X263930771Y-192285771D01*
X264073629Y-192357200D01*
X264145057Y-192428629D01*
X264216486Y-192571486D01*
X264216486Y-192785771D01*
X264145057Y-192928629D01*
X264073629Y-193000057D01*
X263930771Y-193071486D01*
X263359343Y-193071486D01*
X265430771Y-193714343D02*
X265287914Y-193785771D01*
X265002200Y-193785771D01*
X264859343Y-193714343D01*
X264787914Y-193571486D01*
X264787914Y-193000057D01*
X264859343Y-192857200D01*
X265002200Y-192785771D01*
X265287914Y-192785771D01*
X265430771Y-192857200D01*
X265502200Y-193000057D01*
X265502200Y-193142914D01*
X264787914Y-193285771D01*
X266002200Y-192785771D02*
X266359343Y-193785771D01*
X266716485Y-192785771D01*
X267287914Y-193642914D02*
X267359342Y-193714343D01*
X267287914Y-193785771D01*
X267216485Y-193714343D01*
X267287914Y-193642914D01*
X267287914Y-193785771D01*
X267287914Y-192857200D02*
X267359342Y-192928629D01*
X267287914Y-193000057D01*
X267216485Y-192928629D01*
X267287914Y-192857200D01*
X267287914Y-193000057D01*
D10*
D11*
X178287914Y-193714343D02*
X178502200Y-193785771D01*
X178859343Y-193785771D01*
X179002200Y-193714343D01*
X179073629Y-193642914D01*
X179145057Y-193500057D01*
X179145057Y-193357200D01*
X179073629Y-193214343D01*
X179002200Y-193142914D01*
X178859343Y-193071486D01*
X178573629Y-193000057D01*
X178430771Y-192928629D01*
X178359343Y-192857200D01*
X178287914Y-192714343D01*
X178287914Y-192571486D01*
X178359343Y-192428629D01*
X178430771Y-192357200D01*
X178573629Y-192285771D01*
X178930771Y-192285771D01*
X179145057Y-192357200D01*
X179787914Y-193785771D02*
X179787914Y-192785771D01*
X179787914Y-192285771D02*
X179716485Y-192357200D01*
X179787914Y-192428629D01*
X179859342Y-192357200D01*
X179787914Y-192285771D01*
X179787914Y-192428629D01*
X180359343Y-192785771D02*
X181145057Y-192785771D01*
X180359343Y-193785771D01*
X181145057Y-193785771D01*
X182287914Y-193714343D02*
X182145057Y-193785771D01*
X181859343Y-193785771D01*
X181716486Y-193714343D01*
X181645057Y-193571486D01*
X181645057Y-193000057D01*
X181716486Y-192857200D01*
X181859343Y-192785771D01*
X182145057Y-192785771D01*
X182287914Y-192857200D01*
X182359343Y-193000057D01*
X182359343Y-193142914D01*
X181645057Y-193285771D01*
X183002200Y-193642914D02*
X183073628Y-193714343D01*
X183002200Y-193785771D01*
X182930771Y-193714343D01*
X183002200Y-193642914D01*
X183002200Y-193785771D01*
X183002200Y-192857200D02*
X183073628Y-192928629D01*
X183002200Y-193000057D01*
X182930771Y-192928629D01*
X183002200Y-192857200D01*
X183002200Y-193000057D01*
X184787914Y-193357200D02*
X185502200Y-193357200D01*
X184645057Y-193785771D02*
X185145057Y-192285771D01*
X185645057Y-193785771D01*
X186787914Y-192785771D02*
X186787914Y-193785771D01*
X186430771Y-192214343D02*
X186073628Y-193285771D01*
X187002200Y-193285771D01*
D10*
D11*
X263359343Y-196585771D02*
X263359343Y-195085771D01*
X264716486Y-196585771D02*
X264716486Y-195085771D01*
X264716486Y-196514343D02*
X264573629Y-196585771D01*
X264287915Y-196585771D01*
X264145057Y-196514343D01*
X264073629Y-196442914D01*
X264002200Y-196300057D01*
X264002200Y-195871486D01*
X264073629Y-195728629D01*
X264145057Y-195657200D01*
X264287915Y-195585771D01*
X264573629Y-195585771D01*
X264716486Y-195657200D01*
X265430772Y-196442914D02*
X265502200Y-196514343D01*
X265430772Y-196585771D01*
X265359343Y-196514343D01*
X265430772Y-196442914D01*
X265430772Y-196585771D01*
X265430772Y-195657200D02*
X265502200Y-195728629D01*
X265430772Y-195800057D01*
X265359343Y-195728629D01*
X265430772Y-195657200D01*
X265430772Y-195800057D01*
X268073629Y-196585771D02*
X267216486Y-196585771D01*
X267645058Y-196585771D02*
X267645058Y-195085771D01*
X267502201Y-195300057D01*
X267359343Y-195442914D01*
X267216486Y-195514343D01*
X269787914Y-195014343D02*
X268502200Y-196942914D01*
X271073629Y-196585771D02*
X270216486Y-196585771D01*
X270645058Y-196585771D02*
X270645058Y-195085771D01*
X270502201Y-195300057D01*
X270359343Y-195442914D01*
X270216486Y-195514343D01*
D10*
D11*
X177002200Y-187507200D02*
X285002200Y-187507200D01*
D10*
D13*
X178454581Y-188211962D02*
X179597438Y-188211962D01*
X178776010Y-190211962D02*
X179026010Y-188211962D01*
X180014105Y-190211962D02*
X180180771Y-188878629D01*
X180264105Y-188211962D02*
X180156962Y-188307200D01*
X180240295Y-188402438D01*
X180347439Y-188307200D01*
X180264105Y-188211962D01*
X180240295Y-188402438D01*
X180847438Y-188878629D02*
X181609343Y-188878629D01*
X181216486Y-188211962D02*
X181002200Y-189926248D01*
X181073630Y-190116724D01*
X181252201Y-190211962D01*
X181442677Y-190211962D01*
X182395058Y-190211962D02*
X182216487Y-190116724D01*
X182145057Y-189926248D01*
X182359343Y-188211962D01*
X183930772Y-190116724D02*
X183728391Y-190211962D01*
X183347439Y-190211962D01*
X183168867Y-190116724D01*
X183097438Y-189926248D01*
X183192676Y-189164343D01*
X183311724Y-188973867D01*
X183514105Y-188878629D01*
X183895057Y-188878629D01*
X184073629Y-188973867D01*
X184145057Y-189164343D01*
X184121248Y-189354819D01*
X183145057Y-189545295D01*
X184895057Y-190021486D02*
X184978392Y-190116724D01*
X184871248Y-190211962D01*
X184787915Y-190116724D01*
X184895057Y-190021486D01*
X184871248Y-190211962D01*
X185026010Y-188973867D02*
X185109344Y-189069105D01*
X185002200Y-189164343D01*
X184918867Y-189069105D01*
X185026010Y-188973867D01*
X185002200Y-189164343D01*
D10*
D11*
X178859343Y-185600057D02*
X178359343Y-185600057D01*
X178359343Y-186385771D02*
X178359343Y-184885771D01*
X179073629Y-184885771D01*
X179645057Y-186385771D02*
X179645057Y-185385771D01*
X179645057Y-184885771D02*
X179573628Y-184957200D01*
X179645057Y-185028629D01*
X179716485Y-184957200D01*
X179645057Y-184885771D01*
X179645057Y-185028629D01*
X180573629Y-186385771D02*
X180430771Y-186314343D01*
X180359343Y-186171486D01*
X180359343Y-184885771D01*
X181716485Y-186314343D02*
X181573628Y-186385771D01*
X181287914Y-186385771D01*
X181145057Y-186314343D01*
X181073628Y-186171486D01*
X181073628Y-185600057D01*
X181145057Y-185457200D01*
X181287914Y-185385771D01*
X181573628Y-185385771D01*
X181716485Y-185457200D01*
X181787914Y-185600057D01*
X181787914Y-185742914D01*
X181073628Y-185885771D01*
X182430771Y-186242914D02*
X182502199Y-186314343D01*
X182430771Y-186385771D01*
X182359342Y-186314343D01*
X182430771Y-186242914D01*
X182430771Y-186385771D01*
X182430771Y-185457200D02*
X182502199Y-185528629D01*
X182430771Y-185600057D01*
X182359342Y-185528629D01*
X182430771Y-185457200D01*
X182430771Y-185600057D01*
X184073628Y-185385771D02*
X184645057Y-185385771D01*
X184287914Y-186385771D02*
X184287914Y-185100057D01*
X184359342Y-184957200D01*
X184502200Y-184885771D01*
X184645057Y-184885771D01*
X185359343Y-186385771D02*
X185216485Y-186314343D01*
X185145057Y-186171486D01*
X185145057Y-184885771D01*
X185787914Y-185385771D02*
X186145057Y-186385771D01*
X186502199Y-185385771D02*
X186145057Y-186385771D01*
X186002199Y-186742914D01*
X185930771Y-186814343D01*
X185787914Y-186885771D01*
X187073628Y-185385771D02*
X187073628Y-186885771D01*
X187073628Y-185457200D02*
X187216485Y-185385771D01*
X187502199Y-185385771D01*
X187645056Y-185457200D01*
X187716485Y-185528629D01*
X187787914Y-185671486D01*
X187787914Y-186100057D01*
X187716485Y-186242914D01*
X187645056Y-186314343D01*
X187502199Y-186385771D01*
X187216485Y-186385771D01*
X187073628Y-186314343D01*
X188430771Y-186385771D02*
X188430771Y-185385771D01*
X188430771Y-184885771D02*
X188359342Y-184957200D01*
X188430771Y-185028629D01*
X188502199Y-184957200D01*
X188430771Y-184885771D01*
X188430771Y-185028629D01*
X189145057Y-186242914D02*
X189216485Y-186314343D01*
X189145057Y-186385771D01*
X189073628Y-186314343D01*
X189145057Y-186242914D01*
X189145057Y-186385771D01*
X189859343Y-186385771D02*
X189859343Y-184885771D01*
X190002200Y-185814343D02*
X190430771Y-186385771D01*
X190430771Y-185385771D02*
X189859343Y-185957200D01*
X191073629Y-186385771D02*
X191073629Y-185385771D01*
X191073629Y-184885771D02*
X191002200Y-184957200D01*
X191073629Y-185028629D01*
X191145057Y-184957200D01*
X191073629Y-184885771D01*
X191073629Y-185028629D01*
X192430772Y-186314343D02*
X192287915Y-186385771D01*
X192002201Y-186385771D01*
X191859343Y-186314343D01*
X191787915Y-186242914D01*
X191716486Y-186100057D01*
X191716486Y-185671486D01*
X191787915Y-185528629D01*
X191859343Y-185457200D01*
X192002201Y-185385771D01*
X192287915Y-185385771D01*
X192430772Y-185457200D01*
X193716486Y-186385771D02*
X193716486Y-185600057D01*
X193645057Y-185457200D01*
X193502200Y-185385771D01*
X193216486Y-185385771D01*
X193073629Y-185457200D01*
X193716486Y-186314343D02*
X193573629Y-186385771D01*
X193216486Y-186385771D01*
X193073629Y-186314343D01*
X193002200Y-186171486D01*
X193002200Y-186028629D01*
X193073629Y-185885771D01*
X193216486Y-185814343D01*
X193573629Y-185814343D01*
X193716486Y-185742914D01*
X195073629Y-186385771D02*
X195073629Y-184885771D01*
X195073629Y-186314343D02*
X194930772Y-186385771D01*
X194645058Y-186385771D01*
X194502200Y-186314343D01*
X194430772Y-186242914D01*
X194359343Y-186100057D01*
X194359343Y-185671486D01*
X194430772Y-185528629D01*
X194502200Y-185457200D01*
X194645058Y-185385771D01*
X194930772Y-185385771D01*
X195073629Y-185457200D01*
X195430772Y-186528629D02*
X196573629Y-186528629D01*
X196930772Y-185385771D02*
X196930772Y-186885771D01*
X196930772Y-185457200D02*
X197073629Y-185385771D01*
X197359343Y-185385771D01*
X197502200Y-185457200D01*
X197573629Y-185528629D01*
X197645058Y-185671486D01*
X197645058Y-186100057D01*
X197573629Y-186242914D01*
X197502200Y-186314343D01*
X197359343Y-186385771D01*
X197073629Y-186385771D01*
X196930772Y-186314343D01*
X198930772Y-186314343D02*
X198787915Y-186385771D01*
X198502201Y-186385771D01*
X198359343Y-186314343D01*
X198287915Y-186242914D01*
X198216486Y-186100057D01*
X198216486Y-185671486D01*
X198287915Y-185528629D01*
X198359343Y-185457200D01*
X198502201Y-185385771D01*
X198787915Y-185385771D01*
X198930772Y-185457200D01*
X199573629Y-186385771D02*
X199573629Y-184885771D01*
X199573629Y-185457200D02*
X199716486Y-185385771D01*
X200002200Y-185385771D01*
X200145057Y-185457200D01*
X200216486Y-185528629D01*
X200287915Y-185671486D01*
X200287915Y-186100057D01*
X200216486Y-186242914D01*
X200145057Y-186314343D01*
X200002200Y-186385771D01*
X199716486Y-186385771D01*
X199573629Y-186314343D01*
D10*
D11*
X177002200Y-181507200D02*
X285002200Y-181507200D01*
D10*
D11*
X178287914Y-183614343D02*
X178502200Y-183685771D01*
X178859343Y-183685771D01*
X179002200Y-183614343D01*
X179073629Y-183542914D01*
X179145057Y-183400057D01*
X179145057Y-183257200D01*
X179073629Y-183114343D01*
X179002200Y-183042914D01*
X178859343Y-182971486D01*
X178573629Y-182900057D01*
X178430771Y-182828629D01*
X178359343Y-182757200D01*
X178287914Y-182614343D01*
X178287914Y-182471486D01*
X178359343Y-182328629D01*
X178430771Y-182257200D01*
X178573629Y-182185771D01*
X178930771Y-182185771D01*
X179145057Y-182257200D01*
X179787914Y-183685771D02*
X179787914Y-182185771D01*
X180430771Y-183685771D02*
X180430771Y-182900057D01*
X180359342Y-182757200D01*
X180216485Y-182685771D01*
X180002200Y-182685771D01*
X179859342Y-182757200D01*
X179787914Y-182828629D01*
X181716485Y-183614343D02*
X181573628Y-183685771D01*
X181287914Y-183685771D01*
X181145057Y-183614343D01*
X181073628Y-183471486D01*
X181073628Y-182900057D01*
X181145057Y-182757200D01*
X181287914Y-182685771D01*
X181573628Y-182685771D01*
X181716485Y-182757200D01*
X181787914Y-182900057D01*
X181787914Y-183042914D01*
X181073628Y-183185771D01*
X183002199Y-183614343D02*
X182859342Y-183685771D01*
X182573628Y-183685771D01*
X182430771Y-183614343D01*
X182359342Y-183471486D01*
X182359342Y-182900057D01*
X182430771Y-182757200D01*
X182573628Y-182685771D01*
X182859342Y-182685771D01*
X183002199Y-182757200D01*
X183073628Y-182900057D01*
X183073628Y-183042914D01*
X182359342Y-183185771D01*
X183502199Y-182685771D02*
X184073628Y-182685771D01*
X183716485Y-182185771D02*
X183716485Y-183471486D01*
X183787913Y-183614343D01*
X183930771Y-183685771D01*
X184073628Y-183685771D01*
X184573628Y-183542914D02*
X184645056Y-183614343D01*
X184573628Y-183685771D01*
X184502199Y-183614343D01*
X184573628Y-183542914D01*
X184573628Y-183685771D01*
X184573628Y-182757200D02*
X184645056Y-182828629D01*
X184573628Y-182900057D01*
X184502199Y-182828629D01*
X184573628Y-182757200D01*
X184573628Y-182900057D01*
D10*
D11*
X197002200Y-191507200D02*
X197002200Y-194507200D01*
D10*
D11*
X261002200Y-191507200D02*
X261002200Y-198007200D01*
D12*
X156082857Y-99078856D02*
X156082857Y-99578856D01*
X156868571Y-99578856D02*
X155368571Y-99578856D01*
X155368571Y-98864570D01*
X156868571Y-98078856D02*
X156797143Y-98221714D01*
X156654286Y-98293142D01*
X155368571Y-98293142D01*
X155868571Y-97650285D02*
X156868571Y-97293142D01*
X155868571Y-96936000D02*
X156868571Y-97293142D01*
X157225714Y-97436000D01*
X157297143Y-97507428D01*
X157368571Y-97650285D01*
X155868571Y-95221714D02*
X157368571Y-95221714D01*
X155940000Y-95221714D02*
X155868571Y-95078857D01*
X155868571Y-94793143D01*
X155940000Y-94650286D01*
X156011429Y-94578857D01*
X156154286Y-94507428D01*
X156582857Y-94507428D01*
X156725714Y-94578857D01*
X156797143Y-94650286D01*
X156868571Y-94793143D01*
X156868571Y-95078857D01*
X156797143Y-95221714D01*
X156868571Y-93864571D02*
X155868571Y-93864571D01*
X155368571Y-93864571D02*
X155440000Y-93936000D01*
X155511429Y-93864571D01*
X155440000Y-93793143D01*
X155368571Y-93864571D01*
X155511429Y-93864571D01*
X156868571Y-92007428D02*
X155868571Y-92007428D01*
X156154286Y-92007428D02*
X156011429Y-91936000D01*
X155940000Y-91864571D01*
X155868571Y-91721714D01*
X155868571Y-91578857D01*
X156797143Y-90507429D02*
X156868571Y-90650286D01*
X156868571Y-90936000D01*
X156797143Y-91078857D01*
X156654286Y-91150286D01*
X156082857Y-91150286D01*
X155940000Y-91078857D01*
X155868571Y-90936000D01*
X155868571Y-90650286D01*
X155940000Y-90507429D01*
X156082857Y-90436000D01*
X156225714Y-90436000D01*
X156368571Y-91150286D01*
X155868571Y-89936000D02*
X156868571Y-89578857D01*
X155868571Y-89221715D01*
X156725714Y-88650286D02*
X156797143Y-88578858D01*
X156868571Y-88650286D01*
X156797143Y-88721715D01*
X156725714Y-88650286D01*
X156868571Y-88650286D01*
X155368571Y-86507429D02*
X155368571Y-86364572D01*
X155440000Y-86221715D01*
X155511429Y-86150286D01*
X155654286Y-86078857D01*
X155940000Y-86007429D01*
X156297143Y-86007429D01*
X156582857Y-86078857D01*
X156725714Y-86150286D01*
X156797143Y-86221715D01*
X156868571Y-86364572D01*
X156868571Y-86507429D01*
X156797143Y-86650286D01*
X156725714Y-86721715D01*
X156582857Y-86793143D01*
X156297143Y-86864572D01*
X155940000Y-86864572D01*
X155654286Y-86793143D01*
X155511429Y-86721715D01*
X155440000Y-86650286D01*
X155368571Y-86507429D01*
X156725714Y-85364572D02*
X156797143Y-85293144D01*
X156868571Y-85364572D01*
X156797143Y-85436001D01*
X156725714Y-85364572D01*
X156868571Y-85364572D01*
X155368571Y-83936000D02*
X155368571Y-84650286D01*
X156082857Y-84721715D01*
X156011429Y-84650286D01*
X155940000Y-84507429D01*
X155940000Y-84150286D01*
X156011429Y-84007429D01*
X156082857Y-83936000D01*
X156225714Y-83864572D01*
X156582857Y-83864572D01*
X156725714Y-83936000D01*
X156797143Y-84007429D01*
X156868571Y-84150286D01*
X156868571Y-84507429D01*
X156797143Y-84650286D01*
X156725714Y-84721715D01*
X158061429Y-95471713D02*
X157990000Y-95400284D01*
X157918571Y-95257427D01*
X157918571Y-94900284D01*
X157990000Y-94757427D01*
X158061429Y-94685998D01*
X158204286Y-94614570D01*
X158347143Y-94614570D01*
X158561429Y-94685998D01*
X159418571Y-95543141D01*
X159418571Y-94614570D01*
X157918571Y-93685999D02*
X157918571Y-93543142D01*
X157990000Y-93400285D01*
X158061429Y-93328856D01*
X158204286Y-93257427D01*
X158490000Y-93185999D01*
X158847143Y-93185999D01*
X159132857Y-93257427D01*
X159275714Y-93328856D01*
X159347143Y-93400285D01*
X159418571Y-93543142D01*
X159418571Y-93685999D01*
X159347143Y-93828856D01*
X159275714Y-93900285D01*
X159132857Y-93971713D01*
X158847143Y-94043142D01*
X158490000Y-94043142D01*
X158204286Y-93971713D01*
X158061429Y-93900285D01*
X157990000Y-93828856D01*
X157918571Y-93685999D01*
X159418571Y-91757428D02*
X159418571Y-92614571D01*
X159418571Y-92185999D02*
X157918571Y-92185999D01*
X158132857Y-92328856D01*
X158275714Y-92471714D01*
X158347143Y-92614571D01*
X157918571Y-91257428D02*
X157918571Y-90257428D01*
X159418571Y-90900285D01*
X159418571Y-88900286D02*
X159418571Y-89757429D01*
X159418571Y-89328857D02*
X157918571Y-89328857D01*
X158132857Y-89471714D01*
X158275714Y-89614572D01*
X158347143Y-89757429D01*
X157918571Y-87971715D02*
X157918571Y-87828858D01*
X157990000Y-87686001D01*
X158061429Y-87614572D01*
X158204286Y-87543143D01*
X158490000Y-87471715D01*
X158847143Y-87471715D01*
X159132857Y-87543143D01*
X159275714Y-87614572D01*
X159347143Y-87686001D01*
X159418571Y-87828858D01*
X159418571Y-87971715D01*
X159347143Y-88114572D01*
X159275714Y-88186001D01*
X159132857Y-88257429D01*
X158847143Y-88328858D01*
X158490000Y-88328858D01*
X158204286Y-88257429D01*
X158061429Y-88186001D01*
X157990000Y-88114572D01*
X157918571Y-87971715D01*
X158061429Y-86900287D02*
X157990000Y-86828858D01*
X157918571Y-86686001D01*
X157918571Y-86328858D01*
X157990000Y-86186001D01*
X158061429Y-86114572D01*
X158204286Y-86043144D01*
X158347143Y-86043144D01*
X158561429Y-86114572D01*
X159418571Y-86971715D01*
X159418571Y-86043144D01*
X157918571Y-85543144D02*
X157918571Y-84614573D01*
X158490000Y-85114573D01*
X158490000Y-84900287D01*
X158561429Y-84757430D01*
X158632857Y-84686001D01*
X158775714Y-84614573D01*
X159132857Y-84614573D01*
X159275714Y-84686001D01*
X159347143Y-84757430D01*
X159418571Y-84900287D01*
X159418571Y-85328859D01*
X159347143Y-85471716D01*
X159275714Y-85543144D01*
X161825714Y-95793142D02*
X161897143Y-95864571D01*
X161968571Y-96078857D01*
X161968571Y-96221714D01*
X161897143Y-96435999D01*
X161754286Y-96578857D01*
X161611429Y-96650285D01*
X161325714Y-96721714D01*
X161111429Y-96721714D01*
X160825714Y-96650285D01*
X160682857Y-96578857D01*
X160540000Y-96435999D01*
X160468571Y-96221714D01*
X160468571Y-96078857D01*
X160540000Y-95864571D01*
X160611429Y-95793142D01*
X161825714Y-94293142D02*
X161897143Y-94364571D01*
X161968571Y-94578857D01*
X161968571Y-94721714D01*
X161897143Y-94935999D01*
X161754286Y-95078857D01*
X161611429Y-95150285D01*
X161325714Y-95221714D01*
X161111429Y-95221714D01*
X160825714Y-95150285D01*
X160682857Y-95078857D01*
X160540000Y-94935999D01*
X160468571Y-94721714D01*
X160468571Y-94578857D01*
X160540000Y-94364571D01*
X160611429Y-94293142D01*
X161182857Y-92007428D02*
X161254286Y-91793142D01*
X161325714Y-91721714D01*
X161468571Y-91650285D01*
X161682857Y-91650285D01*
X161825714Y-91721714D01*
X161897143Y-91793142D01*
X161968571Y-91936000D01*
X161968571Y-92507428D01*
X160468571Y-92507428D01*
X160468571Y-92007428D01*
X160540000Y-91864571D01*
X160611429Y-91793142D01*
X160754286Y-91721714D01*
X160897143Y-91721714D01*
X161040000Y-91793142D01*
X161111429Y-91864571D01*
X161182857Y-92007428D01*
X161182857Y-92507428D01*
X161254286Y-90721714D02*
X161968571Y-90721714D01*
X160468571Y-91221714D02*
X161254286Y-90721714D01*
X160468571Y-90221714D01*
X160968571Y-87936000D02*
X161968571Y-87936000D01*
X160397143Y-88293143D02*
X161468571Y-88650286D01*
X161468571Y-87721714D01*
X161825714Y-87150286D02*
X161897143Y-87078858D01*
X161968571Y-87150286D01*
X161897143Y-87221715D01*
X161825714Y-87150286D01*
X161968571Y-87150286D01*
X160468571Y-86150286D02*
X160468571Y-86007429D01*
X160540000Y-85864572D01*
X160611429Y-85793143D01*
X160754286Y-85721714D01*
X161040000Y-85650286D01*
X161397143Y-85650286D01*
X161682857Y-85721714D01*
X161825714Y-85793143D01*
X161897143Y-85864572D01*
X161968571Y-86007429D01*
X161968571Y-86150286D01*
X161897143Y-86293143D01*
X161825714Y-86364572D01*
X161682857Y-86436000D01*
X161397143Y-86507429D01*
X161040000Y-86507429D01*
X160754286Y-86436000D01*
X160611429Y-86364572D01*
X160540000Y-86293143D01*
X160468571Y-86150286D01*
X164375714Y-102793142D02*
X164447143Y-102864571D01*
X164518571Y-103078857D01*
X164518571Y-103221714D01*
X164447143Y-103435999D01*
X164304286Y-103578857D01*
X164161429Y-103650285D01*
X163875714Y-103721714D01*
X163661429Y-103721714D01*
X163375714Y-103650285D01*
X163232857Y-103578857D01*
X163090000Y-103435999D01*
X163018571Y-103221714D01*
X163018571Y-103078857D01*
X163090000Y-102864571D01*
X163161429Y-102793142D01*
X164518571Y-102150285D02*
X163518571Y-102150285D01*
X163804286Y-102150285D02*
X163661429Y-102078857D01*
X163590000Y-102007428D01*
X163518571Y-101864571D01*
X163518571Y-101721714D01*
X164447143Y-100650286D02*
X164518571Y-100793143D01*
X164518571Y-101078857D01*
X164447143Y-101221714D01*
X164304286Y-101293143D01*
X163732857Y-101293143D01*
X163590000Y-101221714D01*
X163518571Y-101078857D01*
X163518571Y-100793143D01*
X163590000Y-100650286D01*
X163732857Y-100578857D01*
X163875714Y-100578857D01*
X164018571Y-101293143D01*
X164518571Y-99293143D02*
X163732857Y-99293143D01*
X163590000Y-99364572D01*
X163518571Y-99507429D01*
X163518571Y-99793143D01*
X163590000Y-99936000D01*
X164447143Y-99293143D02*
X164518571Y-99436000D01*
X164518571Y-99793143D01*
X164447143Y-99936000D01*
X164304286Y-100007429D01*
X164161429Y-100007429D01*
X164018571Y-99936000D01*
X163947143Y-99793143D01*
X163947143Y-99436000D01*
X163875714Y-99293143D01*
X163518571Y-98793143D02*
X163518571Y-98221714D01*
X163018571Y-98578857D02*
X164304286Y-98578857D01*
X164447143Y-98507429D01*
X164518571Y-98364571D01*
X164518571Y-98221714D01*
X164447143Y-97150286D02*
X164518571Y-97293143D01*
X164518571Y-97578857D01*
X164447143Y-97721714D01*
X164304286Y-97793143D01*
X163732857Y-97793143D01*
X163590000Y-97721714D01*
X163518571Y-97578857D01*
X163518571Y-97293143D01*
X163590000Y-97150286D01*
X163732857Y-97078857D01*
X163875714Y-97078857D01*
X164018571Y-97793143D01*
X164518571Y-95793143D02*
X163018571Y-95793143D01*
X164447143Y-95793143D02*
X164518571Y-95936000D01*
X164518571Y-96221714D01*
X164447143Y-96364572D01*
X164375714Y-96436000D01*
X164232857Y-96507429D01*
X163804286Y-96507429D01*
X163661429Y-96436000D01*
X163590000Y-96364572D01*
X163518571Y-96221714D01*
X163518571Y-95936000D01*
X163590000Y-95793143D01*
X164518571Y-93936000D02*
X163018571Y-93936000D01*
X163590000Y-93936000D02*
X163518571Y-93793143D01*
X163518571Y-93507429D01*
X163590000Y-93364572D01*
X163661429Y-93293143D01*
X163804286Y-93221714D01*
X164232857Y-93221714D01*
X164375714Y-93293143D01*
X164447143Y-93364572D01*
X164518571Y-93507429D01*
X164518571Y-93793143D01*
X164447143Y-93936000D01*
X163518571Y-92721714D02*
X164518571Y-92364571D01*
X163518571Y-92007429D02*
X164518571Y-92364571D01*
X164875714Y-92507429D01*
X164947143Y-92578857D01*
X165018571Y-92721714D01*
X164090000Y-90364572D02*
X164090000Y-89650286D01*
X164518571Y-90507429D02*
X163018571Y-90007429D01*
X164518571Y-89507429D01*
X164518571Y-89007429D02*
X163018571Y-89007429D01*
X164090000Y-88507429D01*
X163018571Y-88007429D01*
X164518571Y-88007429D01*
X164375714Y-85293143D02*
X164447143Y-85364572D01*
X164518571Y-85578858D01*
X164518571Y-85721715D01*
X164447143Y-85936000D01*
X164304286Y-86078858D01*
X164161429Y-86150286D01*
X163875714Y-86221715D01*
X163661429Y-86221715D01*
X163375714Y-86150286D01*
X163232857Y-86078858D01*
X163090000Y-85936000D01*
X163018571Y-85721715D01*
X163018571Y-85578858D01*
X163090000Y-85364572D01*
X163161429Y-85293143D01*
X164518571Y-84650286D02*
X163018571Y-84650286D01*
X164518571Y-84007429D02*
X163732857Y-84007429D01*
X163590000Y-84078858D01*
X163518571Y-84221715D01*
X163518571Y-84436000D01*
X163590000Y-84578858D01*
X163661429Y-84650286D01*
X164518571Y-82650286D02*
X163732857Y-82650286D01*
X163590000Y-82721715D01*
X163518571Y-82864572D01*
X163518571Y-83150286D01*
X163590000Y-83293143D01*
X164447143Y-82650286D02*
X164518571Y-82793143D01*
X164518571Y-83150286D01*
X164447143Y-83293143D01*
X164304286Y-83364572D01*
X164161429Y-83364572D01*
X164018571Y-83293143D01*
X163947143Y-83150286D01*
X163947143Y-82793143D01*
X163875714Y-82650286D01*
X163518571Y-81293143D02*
X164732857Y-81293143D01*
X164875714Y-81364572D01*
X164947143Y-81436000D01*
X165018571Y-81578857D01*
X165018571Y-81793143D01*
X164947143Y-81936000D01*
X164447143Y-81293143D02*
X164518571Y-81436000D01*
X164518571Y-81721714D01*
X164447143Y-81864572D01*
X164375714Y-81936000D01*
X164232857Y-82007429D01*
X163804286Y-82007429D01*
X163661429Y-81936000D01*
X163590000Y-81864572D01*
X163518571Y-81721714D01*
X163518571Y-81436000D01*
X163590000Y-81293143D01*
X164518571Y-79936000D02*
X163732857Y-79936000D01*
X163590000Y-80007429D01*
X163518571Y-80150286D01*
X163518571Y-80436000D01*
X163590000Y-80578857D01*
X164447143Y-79936000D02*
X164518571Y-80078857D01*
X164518571Y-80436000D01*
X164447143Y-80578857D01*
X164304286Y-80650286D01*
X164161429Y-80650286D01*
X164018571Y-80578857D01*
X163947143Y-80436000D01*
X163947143Y-80078857D01*
X163875714Y-79936000D01*
X164447143Y-79293143D02*
X164518571Y-79150286D01*
X164518571Y-78864571D01*
X164447143Y-78721714D01*
X164304286Y-78650286D01*
X164232857Y-78650286D01*
X164090000Y-78721714D01*
X164018571Y-78864571D01*
X164018571Y-79078857D01*
X163947143Y-79221714D01*
X163804286Y-79293143D01*
X163732857Y-79293143D01*
X163590000Y-79221714D01*
X163518571Y-79078857D01*
X163518571Y-78864571D01*
X163590000Y-78721714D01*
X180371429Y-81428572D02*
X180371429Y-81714287D01*
X180442857Y-81857144D01*
X180514286Y-81928572D01*
X180728571Y-82071430D01*
X181014286Y-82142858D01*
X181585714Y-82142858D01*
X181728571Y-82071430D01*
X181800000Y-82000001D01*
X181871429Y-81857144D01*
X181871429Y-81571430D01*
X181800000Y-81428572D01*
X181728571Y-81357144D01*
X181585714Y-81285715D01*
X181228571Y-81285715D01*
X181085714Y-81357144D01*
X181014286Y-81428572D01*
X180942857Y-81571430D01*
X180942857Y-81857144D01*
X181014286Y-82000001D01*
X181085714Y-82071430D01*
X181228571Y-82142858D01*
X181871429Y-82642858D02*
X181871429Y-83571429D01*
X181300000Y-83071429D01*
X181300000Y-83285715D01*
X181228571Y-83428572D01*
X181157143Y-83500001D01*
X181014286Y-83571429D01*
X180657143Y-83571429D01*
X180514286Y-83500001D01*
X180442857Y-83428572D01*
X180371429Y-83285715D01*
X180371429Y-82857143D01*
X180442857Y-82714286D01*
X180514286Y-82642858D01*
X180442857Y-84285714D02*
X180371429Y-84285714D01*
X180228571Y-84214286D01*
X180157143Y-84142857D01*
X180371429Y-85714286D02*
X180371429Y-84857143D01*
X180371429Y-85285715D02*
X181871429Y-85285715D01*
X181657143Y-85142858D01*
X181514286Y-85000000D01*
X181442857Y-84857143D01*
X181871429Y-86642857D02*
X181871429Y-86785714D01*
X181800000Y-86928571D01*
X181728571Y-87000000D01*
X181585714Y-87071429D01*
X181300000Y-87142857D01*
X180942857Y-87142857D01*
X180657143Y-87071429D01*
X180514286Y-87000000D01*
X180442857Y-86928571D01*
X180371429Y-86785714D01*
X180371429Y-86642857D01*
X180442857Y-86500000D01*
X180514286Y-86428571D01*
X180657143Y-86357143D01*
X180942857Y-86285714D01*
X181300000Y-86285714D01*
X181585714Y-86357143D01*
X181728571Y-86428571D01*
X181800000Y-86500000D01*
X181871429Y-86642857D01*
X181871429Y-88071428D02*
X181871429Y-88214285D01*
X181800000Y-88357142D01*
X181728571Y-88428571D01*
X181585714Y-88500000D01*
X181300000Y-88571428D01*
X180942857Y-88571428D01*
X180657143Y-88500000D01*
X180514286Y-88428571D01*
X180442857Y-88357142D01*
X180371429Y-88214285D01*
X180371429Y-88071428D01*
X180442857Y-87928571D01*
X180514286Y-87857142D01*
X180657143Y-87785714D01*
X180942857Y-87714285D01*
X181300000Y-87714285D01*
X181585714Y-87785714D01*
X181728571Y-87857142D01*
X181800000Y-87928571D01*
X181871429Y-88071428D01*
X180371429Y-90357142D02*
X181371429Y-90357142D01*
X181228571Y-90357142D02*
X181300000Y-90428570D01*
X181371429Y-90571428D01*
X181371429Y-90785713D01*
X181300000Y-90928570D01*
X181157143Y-90999999D01*
X180371429Y-90999999D01*
X181157143Y-90999999D02*
X181300000Y-91071428D01*
X181371429Y-91214285D01*
X181371429Y-91428570D01*
X181300000Y-91571428D01*
X181157143Y-91642856D01*
X180371429Y-91642856D01*
X180371429Y-92357142D02*
X181371429Y-92357142D01*
X181228571Y-92357142D02*
X181300000Y-92428570D01*
X181371429Y-92571428D01*
X181371429Y-92785713D01*
X181300000Y-92928570D01*
X181157143Y-92999999D01*
X180371429Y-92999999D01*
X181157143Y-92999999D02*
X181300000Y-93071428D01*
X181371429Y-93214285D01*
X181371429Y-93428570D01*
X181300000Y-93571428D01*
X181157143Y-93642856D01*
X180371429Y-93642856D01*
X181050000Y-40950000D02*
X181050000Y-134050000D01*
X181050000Y-40950000D02*
X181050000Y-40950000D01*
X181050000Y-134050000D02*
X181050000Y-134050000D01*
X181050000Y-134050000D02*
X180463579Y-132923496D01*
X181050000Y-134050000D02*
X181636421Y-132923496D01*
X181050000Y-40950000D02*
X180463579Y-42076504D01*
X181050000Y-40950000D02*
X181636421Y-42076504D01*
X136714287Y-133228571D02*
X137714287Y-133228571D01*
X137071430Y-134728571D01*
X138928572Y-133228571D02*
X138642858Y-133228571D01*
X138500001Y-133300000D01*
X138428572Y-133371429D01*
X138285715Y-133585714D01*
X138214286Y-133871429D01*
X138214286Y-134442857D01*
X138285715Y-134585714D01*
X138357143Y-134657143D01*
X138500001Y-134728571D01*
X138785715Y-134728571D01*
X138928572Y-134657143D01*
X139000001Y-134585714D01*
X139071429Y-134442857D01*
X139071429Y-134085714D01*
X139000001Y-133942857D01*
X138928572Y-133871429D01*
X138785715Y-133800000D01*
X138500001Y-133800000D01*
X138357143Y-133871429D01*
X138285715Y-133942857D01*
X138214286Y-134085714D01*
X139785714Y-134657143D02*
X139785714Y-134728571D01*
X139714286Y-134871429D01*
X139642857Y-134942857D01*
X141214286Y-134728571D02*
X140357143Y-134728571D01*
X140785715Y-134728571D02*
X140785715Y-133228571D01*
X140642858Y-133442857D01*
X140500000Y-133585714D01*
X140357143Y-133657143D01*
X142142857Y-133228571D02*
X142285714Y-133228571D01*
X142428571Y-133300000D01*
X142500000Y-133371429D01*
X142571429Y-133514286D01*
X142642857Y-133800000D01*
X142642857Y-134157143D01*
X142571429Y-134442857D01*
X142500000Y-134585714D01*
X142428571Y-134657143D01*
X142285714Y-134728571D01*
X142142857Y-134728571D01*
X142000000Y-134657143D01*
X141928571Y-134585714D01*
X141857143Y-134442857D01*
X141785714Y-134157143D01*
X141785714Y-133800000D01*
X141857143Y-133514286D01*
X141928571Y-133371429D01*
X142000000Y-133300000D01*
X142142857Y-133228571D01*
X143571428Y-133228571D02*
X143714285Y-133228571D01*
X143857142Y-133300000D01*
X143928571Y-133371429D01*
X144000000Y-133514286D01*
X144071428Y-133800000D01*
X144071428Y-134157143D01*
X144000000Y-134442857D01*
X143928571Y-134585714D01*
X143857142Y-134657143D01*
X143714285Y-134728571D01*
X143571428Y-134728571D01*
X143428571Y-134657143D01*
X143357142Y-134585714D01*
X143285714Y-134442857D01*
X143214285Y-134157143D01*
X143214285Y-133800000D01*
X143285714Y-133514286D01*
X143357142Y-133371429D01*
X143428571Y-133300000D01*
X143571428Y-133228571D01*
X145857142Y-134728571D02*
X145857142Y-133728571D01*
X145857142Y-133871429D02*
X145928570Y-133800000D01*
X146071428Y-133728571D01*
X146285713Y-133728571D01*
X146428570Y-133800000D01*
X146499999Y-133942857D01*
X146499999Y-134728571D01*
X146499999Y-133942857D02*
X146571428Y-133800000D01*
X146714285Y-133728571D01*
X146928570Y-133728571D01*
X147071428Y-133800000D01*
X147142856Y-133942857D01*
X147142856Y-134728571D01*
X147857142Y-134728571D02*
X147857142Y-133728571D01*
X147857142Y-133871429D02*
X147928570Y-133800000D01*
X148071428Y-133728571D01*
X148285713Y-133728571D01*
X148428570Y-133800000D01*
X148499999Y-133942857D01*
X148499999Y-134728571D01*
X148499999Y-133942857D02*
X148571428Y-133800000D01*
X148714285Y-133728571D01*
X148928570Y-133728571D01*
X149071428Y-133800000D01*
X149142856Y-133942857D01*
X149142856Y-134728571D01*
X104950000Y-134050000D02*
X181050000Y-134050000D01*
X104950000Y-134050000D02*
X104950000Y-134050000D01*
X181050000Y-134050000D02*
X181050000Y-134050000D01*
X181050000Y-134050000D02*
X179923496Y-134636421D01*
X181050000Y-134050000D02*
X179923496Y-133463579D01*
X104950000Y-134050000D02*
X106076504Y-134636421D01*
X104950000Y-134050000D02*
X106076504Y-133463579D01*
D14*
X129010000Y-88845000D02*
X132610000Y-88845000D01*
X128485816Y-88117795D02*
G75*
G03X129010000Y-88845000I2324184J1122795D01*
G01*
X128453600Y-85896193D02*
G75*
G02X130810000Y-84395000I2356400J-1098807D01*
G01*
X133166400Y-85896193D02*
G75*
G03X130810000Y-84395000I-2356400J-1098807D01*
G01*
X133134184Y-88117795D02*
G75*
G02X132610000Y-88845000I-2324184J1122795D01*
G01*
D11*
X135517000Y-40885000D02*
X135517000Y-42155000D01*
X150487000Y-40885000D02*
X150487000Y-42155000D01*
X150487000Y-83575000D02*
X150487000Y-82305000D01*
X135517000Y-83575000D02*
X135517000Y-82305000D01*
X135517000Y-40885000D02*
X150487000Y-40885000D01*
X135517000Y-83575000D02*
X150487000Y-83575000D01*
X135517000Y-42155000D02*
X134232000Y-42155000D01*
X169589000Y-57945000D02*
X159591000Y-57945000D01*
X169585000Y-58085000D02*
X159595000Y-58085000D01*
X169577000Y-58225000D02*
X159603000Y-58225000D01*
X169565000Y-58365000D02*
X159615000Y-58365000D01*
X169550000Y-58505000D02*
X159630000Y-58505000D01*
X169530000Y-58645000D02*
X159650000Y-58645000D01*
X169506000Y-58785000D02*
X159674000Y-58785000D01*
X169477000Y-58925000D02*
X159703000Y-58925000D01*
X169445000Y-59065000D02*
X159735000Y-59065000D01*
X169408000Y-59205000D02*
X159772000Y-59205000D01*
X169367000Y-59345000D02*
X159813000Y-59345000D01*
X169322000Y-59485000D02*
X165056000Y-59485000D01*
X164124000Y-59485000D02*
X159858000Y-59485000D01*
X169272000Y-59625000D02*
X165257000Y-59625000D01*
X163923000Y-59625000D02*
X159908000Y-59625000D01*
X169217000Y-59765000D02*
X165386000Y-59765000D01*
X163794000Y-59765000D02*
X159963000Y-59765000D01*
X169157000Y-59905000D02*
X165475000Y-59905000D01*
X163705000Y-59905000D02*
X160023000Y-59905000D01*
X169092000Y-60045000D02*
X165536000Y-60045000D01*
X163644000Y-60045000D02*
X160088000Y-60045000D01*
X169022000Y-60185000D02*
X165573000Y-60185000D01*
X163607000Y-60185000D02*
X160158000Y-60185000D01*
X168946000Y-60325000D02*
X165589000Y-60325000D01*
X163591000Y-60325000D02*
X160234000Y-60325000D01*
X168864000Y-60465000D02*
X165585000Y-60465000D01*
X163595000Y-60465000D02*
X160316000Y-60465000D01*
X168776000Y-60605000D02*
X165562000Y-60605000D01*
X163618000Y-60605000D02*
X160404000Y-60605000D01*
X168681000Y-60745000D02*
X165517000Y-60745000D01*
X163663000Y-60745000D02*
X160499000Y-60745000D01*
X168579000Y-60885000D02*
X165447000Y-60885000D01*
X163733000Y-60885000D02*
X160601000Y-60885000D01*
X168469000Y-61025000D02*
X165346000Y-61025000D01*
X163834000Y-61025000D02*
X160711000Y-61025000D01*
X168351000Y-61165000D02*
X165197000Y-61165000D01*
X163983000Y-61165000D02*
X160829000Y-61165000D01*
X168223000Y-61305000D02*
X164945000Y-61305000D01*
X164235000Y-61305000D02*
X160957000Y-61305000D01*
X168086000Y-61445000D02*
X161094000Y-61445000D01*
X167936000Y-61585000D02*
X161244000Y-61585000D01*
X167774000Y-61725000D02*
X161406000Y-61725000D01*
X167597000Y-61865000D02*
X161583000Y-61865000D01*
X167401000Y-62005000D02*
X161779000Y-62005000D01*
X167183000Y-62145000D02*
X161997000Y-62145000D01*
X166937000Y-62285000D02*
X162243000Y-62285000D01*
X166652000Y-62425000D02*
X162528000Y-62425000D01*
X166310000Y-62565000D02*
X162870000Y-62565000D01*
X165864000Y-62705000D02*
X163316000Y-62705000D01*
X165089000Y-62845000D02*
X164091000Y-62845000D01*
X165590000Y-60370000D02*
G75*
G03X165590000Y-60370000I-1000000J0D01*
G01*
X169627500Y-57870000D02*
G75*
G03X169627500Y-57870000I-5037500J0D01*
G01*
X106021000Y-47185000D02*
X116019000Y-47185000D01*
X106025000Y-47045000D02*
X116015000Y-47045000D01*
X106033000Y-46905000D02*
X116007000Y-46905000D01*
X106045000Y-46765000D02*
X115995000Y-46765000D01*
X106060000Y-46625000D02*
X115980000Y-46625000D01*
X106080000Y-46485000D02*
X115960000Y-46485000D01*
X106104000Y-46345000D02*
X115936000Y-46345000D01*
X106133000Y-46205000D02*
X115907000Y-46205000D01*
X106165000Y-46065000D02*
X115875000Y-46065000D01*
X106202000Y-45925000D02*
X115838000Y-45925000D01*
X106243000Y-45785000D02*
X115797000Y-45785000D01*
X106288000Y-45645000D02*
X110554000Y-45645000D01*
X111486000Y-45645000D02*
X115752000Y-45645000D01*
X106338000Y-45505000D02*
X110353000Y-45505000D01*
X111687000Y-45505000D02*
X115702000Y-45505000D01*
X106393000Y-45365000D02*
X110224000Y-45365000D01*
X111816000Y-45365000D02*
X115647000Y-45365000D01*
X106453000Y-45225000D02*
X110135000Y-45225000D01*
X111905000Y-45225000D02*
X115587000Y-45225000D01*
X106518000Y-45085000D02*
X110074000Y-45085000D01*
X111966000Y-45085000D02*
X115522000Y-45085000D01*
X106588000Y-44945000D02*
X110037000Y-44945000D01*
X112003000Y-44945000D02*
X115452000Y-44945000D01*
X106664000Y-44805000D02*
X110021000Y-44805000D01*
X112019000Y-44805000D02*
X115376000Y-44805000D01*
X106746000Y-44665000D02*
X110025000Y-44665000D01*
X112015000Y-44665000D02*
X115294000Y-44665000D01*
X106834000Y-44525000D02*
X110048000Y-44525000D01*
X111992000Y-44525000D02*
X115206000Y-44525000D01*
X106929000Y-44385000D02*
X110093000Y-44385000D01*
X111947000Y-44385000D02*
X115111000Y-44385000D01*
X107031000Y-44245000D02*
X110163000Y-44245000D01*
X111877000Y-44245000D02*
X115009000Y-44245000D01*
X107141000Y-44105000D02*
X110264000Y-44105000D01*
X111776000Y-44105000D02*
X114899000Y-44105000D01*
X107259000Y-43965000D02*
X110413000Y-43965000D01*
X111627000Y-43965000D02*
X114781000Y-43965000D01*
X107387000Y-43825000D02*
X110665000Y-43825000D01*
X111375000Y-43825000D02*
X114653000Y-43825000D01*
X107524000Y-43685000D02*
X114516000Y-43685000D01*
X107674000Y-43545000D02*
X114366000Y-43545000D01*
X107836000Y-43405000D02*
X114204000Y-43405000D01*
X108013000Y-43265000D02*
X114027000Y-43265000D01*
X108209000Y-43125000D02*
X113831000Y-43125000D01*
X108427000Y-42985000D02*
X113613000Y-42985000D01*
X108673000Y-42845000D02*
X113367000Y-42845000D01*
X108958000Y-42705000D02*
X113082000Y-42705000D01*
X109300000Y-42565000D02*
X112740000Y-42565000D01*
X109746000Y-42425000D02*
X112294000Y-42425000D01*
X110521000Y-42285000D02*
X111519000Y-42285000D01*
X112020000Y-44760000D02*
G75*
G03X112020000Y-44760000I-1000000J0D01*
G01*
X116057500Y-47260000D02*
G75*
G03X116057500Y-47260000I-5037500J0D01*
G01*
X152441000Y-106945000D02*
X162439000Y-106945000D01*
X152445000Y-106805000D02*
X162435000Y-106805000D01*
X152453000Y-106665000D02*
X162427000Y-106665000D01*
X152465000Y-106525000D02*
X162415000Y-106525000D01*
X152480000Y-106385000D02*
X162400000Y-106385000D01*
X152500000Y-106245000D02*
X162380000Y-106245000D01*
X152524000Y-106105000D02*
X162356000Y-106105000D01*
X152553000Y-105965000D02*
X162327000Y-105965000D01*
X152585000Y-105825000D02*
X162295000Y-105825000D01*
X152622000Y-105685000D02*
X162258000Y-105685000D01*
X152663000Y-105545000D02*
X162217000Y-105545000D01*
X152708000Y-105405000D02*
X156974000Y-105405000D01*
X157906000Y-105405000D02*
X162172000Y-105405000D01*
X152758000Y-105265000D02*
X156773000Y-105265000D01*
X158107000Y-105265000D02*
X162122000Y-105265000D01*
X152813000Y-105125000D02*
X156644000Y-105125000D01*
X158236000Y-105125000D02*
X162067000Y-105125000D01*
X152873000Y-104985000D02*
X156555000Y-104985000D01*
X158325000Y-104985000D02*
X162007000Y-104985000D01*
X152938000Y-104845000D02*
X156494000Y-104845000D01*
X158386000Y-104845000D02*
X161942000Y-104845000D01*
X153008000Y-104705000D02*
X156457000Y-104705000D01*
X158423000Y-104705000D02*
X161872000Y-104705000D01*
X153084000Y-104565000D02*
X156441000Y-104565000D01*
X158439000Y-104565000D02*
X161796000Y-104565000D01*
X153166000Y-104425000D02*
X156445000Y-104425000D01*
X158435000Y-104425000D02*
X161714000Y-104425000D01*
X153254000Y-104285000D02*
X156468000Y-104285000D01*
X158412000Y-104285000D02*
X161626000Y-104285000D01*
X153349000Y-104145000D02*
X156513000Y-104145000D01*
X158367000Y-104145000D02*
X161531000Y-104145000D01*
X153451000Y-104005000D02*
X156583000Y-104005000D01*
X158297000Y-104005000D02*
X161429000Y-104005000D01*
X153561000Y-103865000D02*
X156684000Y-103865000D01*
X158196000Y-103865000D02*
X161319000Y-103865000D01*
X153679000Y-103725000D02*
X156833000Y-103725000D01*
X158047000Y-103725000D02*
X161201000Y-103725000D01*
X153807000Y-103585000D02*
X157085000Y-103585000D01*
X157795000Y-103585000D02*
X161073000Y-103585000D01*
X153944000Y-103445000D02*
X160936000Y-103445000D01*
X154094000Y-103305000D02*
X160786000Y-103305000D01*
X154256000Y-103165000D02*
X160624000Y-103165000D01*
X154433000Y-103025000D02*
X160447000Y-103025000D01*
X154629000Y-102885000D02*
X160251000Y-102885000D01*
X154847000Y-102745000D02*
X160033000Y-102745000D01*
X155093000Y-102605000D02*
X159787000Y-102605000D01*
X155378000Y-102465000D02*
X159502000Y-102465000D01*
X155720000Y-102325000D02*
X159160000Y-102325000D01*
X156166000Y-102185000D02*
X158714000Y-102185000D01*
X156941000Y-102045000D02*
X157939000Y-102045000D01*
X158440000Y-104520000D02*
G75*
G03X158440000Y-104520000I-1000000J0D01*
G01*
X162477500Y-107020000D02*
G75*
G03X162477500Y-107020000I-5037500J0D01*
G01*
X133009000Y-55655000D02*
X125011000Y-55655000D01*
X133004000Y-55795000D02*
X125016000Y-55795000D01*
X132994000Y-55935000D02*
X125026000Y-55935000D01*
X132979000Y-56075000D02*
X125041000Y-56075000D01*
X132959000Y-56215000D02*
X125061000Y-56215000D01*
X132934000Y-56355000D02*
X125086000Y-56355000D01*
X132904000Y-56495000D02*
X129183000Y-56495000D01*
X128837000Y-56495000D02*
X125116000Y-56495000D01*
X132868000Y-56635000D02*
X129545000Y-56635000D01*
X128475000Y-56635000D02*
X125152000Y-56635000D01*
X132827000Y-56775000D02*
X129719000Y-56775000D01*
X128301000Y-56775000D02*
X125193000Y-56775000D01*
X132781000Y-56915000D02*
X129835000Y-56915000D01*
X128185000Y-56915000D02*
X125239000Y-56915000D01*
X132728000Y-57055000D02*
X129915000Y-57055000D01*
X128105000Y-57055000D02*
X125292000Y-57055000D01*
X132669000Y-57195000D02*
X129969000Y-57195000D01*
X128051000Y-57195000D02*
X125351000Y-57195000D01*
X132604000Y-57335000D02*
X129999000Y-57335000D01*
X128021000Y-57335000D02*
X125416000Y-57335000D01*
X132533000Y-57475000D02*
X130010000Y-57475000D01*
X128010000Y-57475000D02*
X125487000Y-57475000D01*
X132454000Y-57615000D02*
X130001000Y-57615000D01*
X128019000Y-57615000D02*
X125566000Y-57615000D01*
X132367000Y-57755000D02*
X129971000Y-57755000D01*
X128049000Y-57755000D02*
X125653000Y-57755000D01*
X132272000Y-57895000D02*
X129920000Y-57895000D01*
X128100000Y-57895000D02*
X125748000Y-57895000D01*
X132168000Y-58035000D02*
X129842000Y-58035000D01*
X128178000Y-58035000D02*
X125852000Y-58035000D01*
X132054000Y-58175000D02*
X129729000Y-58175000D01*
X128291000Y-58175000D02*
X125966000Y-58175000D01*
X131929000Y-58315000D02*
X129560000Y-58315000D01*
X128460000Y-58315000D02*
X126091000Y-58315000D01*
X131791000Y-58455000D02*
X129232000Y-58455000D01*
X128788000Y-58455000D02*
X126229000Y-58455000D01*
X131639000Y-58595000D02*
X126381000Y-58595000D01*
X131469000Y-58735000D02*
X126551000Y-58735000D01*
X131278000Y-58875000D02*
X126742000Y-58875000D01*
X131060000Y-59015000D02*
X126960000Y-59015000D01*
X130804000Y-59155000D02*
X127216000Y-59155000D01*
X130493000Y-59295000D02*
X127527000Y-59295000D01*
X130077000Y-59435000D02*
X127943000Y-59435000D01*
X129210000Y-59575000D02*
X128810000Y-59575000D01*
X130010000Y-57480000D02*
G75*
G03X130010000Y-57480000I-1000000J0D01*
G01*
X133047500Y-55580000D02*
G75*
G03X133047500Y-55580000I-4037500J0D01*
G01*
X164625000Y-72719000D02*
X164625000Y-64721000D01*
X164485000Y-72714000D02*
X164485000Y-64726000D01*
X164345000Y-72704000D02*
X164345000Y-64736000D01*
X164205000Y-72689000D02*
X164205000Y-64751000D01*
X164065000Y-72669000D02*
X164065000Y-64771000D01*
X163925000Y-72644000D02*
X163925000Y-64796000D01*
X163785000Y-72614000D02*
X163785000Y-68893000D01*
X163785000Y-68547000D02*
X163785000Y-64826000D01*
X163645000Y-72578000D02*
X163645000Y-69255000D01*
X163645000Y-68185000D02*
X163645000Y-64862000D01*
X163505000Y-72537000D02*
X163505000Y-69429000D01*
X163505000Y-68011000D02*
X163505000Y-64903000D01*
X163365000Y-72491000D02*
X163365000Y-69545000D01*
X163365000Y-67895000D02*
X163365000Y-64949000D01*
X163225000Y-72438000D02*
X163225000Y-69625000D01*
X163225000Y-67815000D02*
X163225000Y-65002000D01*
X163085000Y-72379000D02*
X163085000Y-69679000D01*
X163085000Y-67761000D02*
X163085000Y-65061000D01*
X162945000Y-72314000D02*
X162945000Y-69709000D01*
X162945000Y-67731000D02*
X162945000Y-65126000D01*
X162805000Y-72243000D02*
X162805000Y-69720000D01*
X162805000Y-67720000D02*
X162805000Y-65197000D01*
X162665000Y-72164000D02*
X162665000Y-69711000D01*
X162665000Y-67729000D02*
X162665000Y-65276000D01*
X162525000Y-72077000D02*
X162525000Y-69681000D01*
X162525000Y-67759000D02*
X162525000Y-65363000D01*
X162385000Y-71982000D02*
X162385000Y-69630000D01*
X162385000Y-67810000D02*
X162385000Y-65458000D01*
X162245000Y-71878000D02*
X162245000Y-69552000D01*
X162245000Y-67888000D02*
X162245000Y-65562000D01*
X162105000Y-71764000D02*
X162105000Y-69439000D01*
X162105000Y-68001000D02*
X162105000Y-65676000D01*
X161965000Y-71639000D02*
X161965000Y-69270000D01*
X161965000Y-68170000D02*
X161965000Y-65801000D01*
X161825000Y-71501000D02*
X161825000Y-68942000D01*
X161825000Y-68498000D02*
X161825000Y-65939000D01*
X161685000Y-71349000D02*
X161685000Y-66091000D01*
X161545000Y-71179000D02*
X161545000Y-66261000D01*
X161405000Y-70988000D02*
X161405000Y-66452000D01*
X161265000Y-70770000D02*
X161265000Y-66670000D01*
X161125000Y-70514000D02*
X161125000Y-66926000D01*
X160985000Y-70203000D02*
X160985000Y-67237000D01*
X160845000Y-69787000D02*
X160845000Y-67653000D01*
X160705000Y-68920000D02*
X160705000Y-68520000D01*
X163800000Y-68720000D02*
G75*
G03X163800000Y-68720000I-1000000J0D01*
G01*
X168737500Y-68720000D02*
G75*
G03X168737500Y-68720000I-4037500J0D01*
G01*
X161441000Y-117235000D02*
X169439000Y-117235000D01*
X161446000Y-117095000D02*
X169434000Y-117095000D01*
X161456000Y-116955000D02*
X169424000Y-116955000D01*
X161471000Y-116815000D02*
X169409000Y-116815000D01*
X161491000Y-116675000D02*
X169389000Y-116675000D01*
X161516000Y-116535000D02*
X169364000Y-116535000D01*
X161546000Y-116395000D02*
X165267000Y-116395000D01*
X165613000Y-116395000D02*
X169334000Y-116395000D01*
X161582000Y-116255000D02*
X164905000Y-116255000D01*
X165975000Y-116255000D02*
X169298000Y-116255000D01*
X161623000Y-116115000D02*
X164731000Y-116115000D01*
X166149000Y-116115000D02*
X169257000Y-116115000D01*
X161669000Y-115975000D02*
X164615000Y-115975000D01*
X166265000Y-115975000D02*
X169211000Y-115975000D01*
X161722000Y-115835000D02*
X164535000Y-115835000D01*
X166345000Y-115835000D02*
X169158000Y-115835000D01*
X161781000Y-115695000D02*
X164481000Y-115695000D01*
X166399000Y-115695000D02*
X169099000Y-115695000D01*
X161846000Y-115555000D02*
X164451000Y-115555000D01*
X166429000Y-115555000D02*
X169034000Y-115555000D01*
X161917000Y-115415000D02*
X164440000Y-115415000D01*
X166440000Y-115415000D02*
X168963000Y-115415000D01*
X161996000Y-115275000D02*
X164449000Y-115275000D01*
X166431000Y-115275000D02*
X168884000Y-115275000D01*
X162083000Y-115135000D02*
X164479000Y-115135000D01*
X166401000Y-115135000D02*
X168797000Y-115135000D01*
X162178000Y-114995000D02*
X164530000Y-114995000D01*
X166350000Y-114995000D02*
X168702000Y-114995000D01*
X162282000Y-114855000D02*
X164608000Y-114855000D01*
X166272000Y-114855000D02*
X168598000Y-114855000D01*
X162396000Y-114715000D02*
X164721000Y-114715000D01*
X166159000Y-114715000D02*
X168484000Y-114715000D01*
X162521000Y-114575000D02*
X164890000Y-114575000D01*
X165990000Y-114575000D02*
X168359000Y-114575000D01*
X162659000Y-114435000D02*
X165218000Y-114435000D01*
X165662000Y-114435000D02*
X168221000Y-114435000D01*
X162811000Y-114295000D02*
X168069000Y-114295000D01*
X162981000Y-114155000D02*
X167899000Y-114155000D01*
X163172000Y-114015000D02*
X167708000Y-114015000D01*
X163390000Y-113875000D02*
X167490000Y-113875000D01*
X163646000Y-113735000D02*
X167234000Y-113735000D01*
X163957000Y-113595000D02*
X166923000Y-113595000D01*
X164373000Y-113455000D02*
X166507000Y-113455000D01*
X165240000Y-113315000D02*
X165640000Y-113315000D01*
X166440000Y-115410000D02*
G75*
G03X166440000Y-115410000I-1000000J0D01*
G01*
X169477500Y-117310000D02*
G75*
G03X169477500Y-117310000I-4037500J0D01*
G01*
X120480000Y-118410000D02*
X123480000Y-118410000D01*
X123480000Y-120910000D02*
X120480000Y-120910000D01*
X125710000Y-86110000D02*
X125710000Y-89110000D01*
X123210000Y-89110000D02*
X123210000Y-86110000D01*
X126790000Y-118410000D02*
X129790000Y-118410000D01*
X129790000Y-120910000D02*
X126790000Y-120910000D01*
X176720500Y-111310880D02*
X176720500Y-102309120D01*
X180220620Y-111310880D02*
X180220620Y-102309120D01*
X180220620Y-102309120D02*
X165719760Y-102309120D01*
X165719760Y-102309120D02*
X165719760Y-111310880D01*
X165719760Y-111310880D02*
X180220620Y-111310880D01*
X147397040Y-109066780D02*
X147397040Y-107542780D01*
X147397040Y-118210780D02*
X147397040Y-119734780D01*
X144603040Y-117194780D02*
X150191040Y-117194780D01*
X144603040Y-117448780D02*
X150191040Y-117448780D01*
X144603040Y-117702780D02*
X150191040Y-117702780D01*
X150191040Y-118210780D02*
X144603040Y-118210780D01*
X144603040Y-118210780D02*
X144603040Y-109066780D01*
X144603040Y-109066780D02*
X150191040Y-109066780D01*
X150191040Y-109066780D02*
X150191040Y-118210780D01*
X120142960Y-66803220D02*
X120142960Y-68327220D01*
X120142960Y-57659220D02*
X120142960Y-56135220D01*
X122936960Y-58675220D02*
X117348960Y-58675220D01*
X122936960Y-58421220D02*
X117348960Y-58421220D01*
X122936960Y-58167220D02*
X117348960Y-58167220D01*
X117348960Y-57659220D02*
X122936960Y-57659220D01*
X122936960Y-57659220D02*
X122936960Y-66803220D01*
X122936960Y-66803220D02*
X117348960Y-66803220D01*
X117348960Y-66803220D02*
X117348960Y-57659220D01*
X156287040Y-64006780D02*
X156287040Y-62482780D01*
X156287040Y-73150780D02*
X156287040Y-74674780D01*
X153493040Y-72134780D02*
X159081040Y-72134780D01*
X153493040Y-72388780D02*
X159081040Y-72388780D01*
X153493040Y-72642780D02*
X159081040Y-72642780D01*
X159081040Y-73150780D02*
X153493040Y-73150780D01*
X153493040Y-73150780D02*
X153493040Y-64006780D01*
X153493040Y-64006780D02*
X159081040Y-64006780D01*
X159081040Y-64006780D02*
X159081040Y-73150780D01*
X171510580Y-72079740D02*
X180009420Y-72079740D01*
X180009420Y-72079740D02*
X180009420Y-66080260D01*
X180009420Y-66080260D02*
X171510580Y-66080260D01*
X171510580Y-66080260D02*
X171510580Y-72079740D01*
X159019740Y-123199420D02*
X159019740Y-114700580D01*
X159019740Y-114700580D02*
X153020260Y-114700580D01*
X153020260Y-114700580D02*
X153020260Y-123199420D01*
X153020260Y-123199420D02*
X159019740Y-123199420D01*
X125650260Y-61790580D02*
X125650260Y-70289420D01*
X125650260Y-70289420D02*
X131649740Y-70289420D01*
X131649740Y-70289420D02*
X131649740Y-61790580D01*
X131649740Y-61790580D02*
X125650260Y-61790580D01*
X176530000Y-114960000D02*
X176530000Y-112260000D01*
X176530000Y-112260000D02*
X180030000Y-112260000D01*
X180030000Y-112260000D02*
X180030000Y-123460000D01*
X180030000Y-123460000D02*
X176530000Y-123460000D01*
X176530000Y-123460000D02*
X176530000Y-120660000D01*
X176660000Y-56410000D02*
X176660000Y-53710000D01*
X176660000Y-53710000D02*
X180160000Y-53710000D01*
X180160000Y-53710000D02*
X180160000Y-64910000D01*
X180160000Y-64910000D02*
X176660000Y-64910000D01*
X176660000Y-64910000D02*
X176660000Y-62110000D01*
X119910000Y-45210000D02*
X117210000Y-45210000D01*
X117210000Y-45210000D02*
X117210000Y-41710000D01*
X117210000Y-41710000D02*
X128410000Y-41710000D01*
X128410000Y-41710000D02*
X128410000Y-45210000D01*
X128410000Y-45210000D02*
X125610000Y-45210000D01*
X107040000Y-125184000D02*
X107040000Y-128232000D01*
X109580000Y-125184000D02*
X109580000Y-128232000D01*
X112120000Y-125184000D02*
X112120000Y-128232000D01*
X114660000Y-125184000D02*
X114660000Y-128232000D01*
X117200000Y-125184000D02*
X117200000Y-128232000D01*
X119740000Y-125184000D02*
X119740000Y-128232000D01*
X122280000Y-125184000D02*
X122280000Y-128232000D01*
X124820000Y-125184000D02*
X124820000Y-128232000D01*
X105770000Y-131788000D02*
X126090000Y-131788000D01*
X126090000Y-133312000D02*
X126090000Y-128232000D01*
X126090000Y-128232000D02*
X124566000Y-128232000D01*
X122026000Y-128232000D02*
X122534000Y-128232000D01*
X119486000Y-128232000D02*
X119994000Y-128232000D01*
X116946000Y-128232000D02*
X117454000Y-128232000D01*
X114406000Y-128232000D02*
X114914000Y-128232000D01*
X111866000Y-128232000D02*
X112374000Y-128232000D01*
X109326000Y-128232000D02*
X109834000Y-128232000D01*
X126090000Y-133312000D02*
X105770000Y-133312000D01*
X105770000Y-133312000D02*
X105770000Y-128232000D01*
X105770000Y-128232000D02*
X107294000Y-128232000D01*
D14*
X121950000Y-87220000D02*
X121950000Y-100340000D01*
X117830000Y-87220000D02*
X117830000Y-100340000D01*
X121950000Y-87220000D02*
X117830000Y-87220000D01*
X121950000Y-100340000D02*
X117830000Y-100340000D01*
X170095000Y-131905000D02*
X180775000Y-131905000D01*
X170095000Y-125905000D02*
X180775000Y-125905000D01*
X180775000Y-125905000D02*
X180775000Y-131905000D01*
X167915000Y-125905000D02*
X163095000Y-125905000D01*
X161005000Y-131105000D02*
X161005000Y-126705000D01*
X167915000Y-131905000D02*
X163095000Y-131905000D01*
X112350000Y-119390000D02*
X114550000Y-119390000D01*
X114550000Y-119390000D02*
X114550000Y-120890000D01*
X114550000Y-120890000D02*
X106050000Y-120890000D01*
X106050000Y-120890000D02*
X106050000Y-113090000D01*
X106050000Y-113090000D02*
X114550000Y-113090000D01*
X114550000Y-113090000D02*
X114550000Y-114590000D01*
X114550000Y-114590000D02*
X112350000Y-114590000D01*
X107550000Y-120890000D02*
X107550000Y-119390000D01*
X107550000Y-119390000D02*
X112350000Y-119390000D01*
X112350000Y-119390000D02*
X112350000Y-120890000D01*
X107550000Y-113090000D02*
X107550000Y-114590000D01*
X107550000Y-114590000D02*
X112350000Y-114590000D01*
X112350000Y-114590000D02*
X112350000Y-113090000D01*
X110400000Y-119390000D02*
X110400000Y-114590000D01*
X111400000Y-119390000D02*
X111400000Y-114590000D01*
X110400000Y-118240000D02*
X110400000Y-118560000D01*
X110400000Y-118560000D02*
X106980000Y-118560000D01*
X106980000Y-118560000D02*
X106900000Y-118240000D01*
X106900000Y-118240000D02*
X106980000Y-117920000D01*
X106980000Y-117920000D02*
X110400000Y-117920000D01*
X110400000Y-117920000D02*
X110400000Y-118240000D01*
X110400000Y-115740000D02*
X110400000Y-116060000D01*
X110400000Y-116060000D02*
X106980000Y-116060000D01*
X106980000Y-116060000D02*
X106900000Y-115740000D01*
X106900000Y-115740000D02*
X106980000Y-115420000D01*
X106980000Y-115420000D02*
X110400000Y-115420000D01*
X110400000Y-115420000D02*
X110400000Y-115740000D01*
X114400000Y-118240000D02*
X115000000Y-118540000D01*
X115000000Y-118540000D02*
X115000000Y-117940000D01*
X115000000Y-117940000D02*
X114400000Y-118240000D01*
X112480000Y-109990000D02*
X114680000Y-109990000D01*
X114680000Y-109990000D02*
X114680000Y-111490000D01*
X114680000Y-111490000D02*
X106180000Y-111490000D01*
X106180000Y-111490000D02*
X106180000Y-103690000D01*
X106180000Y-103690000D02*
X114680000Y-103690000D01*
X114680000Y-103690000D02*
X114680000Y-105190000D01*
X114680000Y-105190000D02*
X112480000Y-105190000D01*
X107680000Y-111490000D02*
X107680000Y-109990000D01*
X107680000Y-109990000D02*
X112480000Y-109990000D01*
X112480000Y-109990000D02*
X112480000Y-111490000D01*
X107680000Y-103690000D02*
X107680000Y-105190000D01*
X107680000Y-105190000D02*
X112480000Y-105190000D01*
X112480000Y-105190000D02*
X112480000Y-103690000D01*
X110530000Y-109990000D02*
X110530000Y-105190000D01*
X111530000Y-109990000D02*
X111530000Y-105190000D01*
X110530000Y-108840000D02*
X110530000Y-109160000D01*
X110530000Y-109160000D02*
X107110000Y-109160000D01*
X107110000Y-109160000D02*
X107030000Y-108840000D01*
X107030000Y-108840000D02*
X107110000Y-108520000D01*
X107110000Y-108520000D02*
X110530000Y-108520000D01*
X110530000Y-108520000D02*
X110530000Y-108840000D01*
X110530000Y-106340000D02*
X110530000Y-106660000D01*
X110530000Y-106660000D02*
X107110000Y-106660000D01*
X107110000Y-106660000D02*
X107030000Y-106340000D01*
X107030000Y-106340000D02*
X107110000Y-106020000D01*
X107110000Y-106020000D02*
X110530000Y-106020000D01*
X110530000Y-106020000D02*
X110530000Y-106340000D01*
X114530000Y-108840000D02*
X115130000Y-109140000D01*
X115130000Y-109140000D02*
X115130000Y-108540000D01*
X115130000Y-108540000D02*
X114530000Y-108840000D01*
X112500000Y-100730000D02*
X114700000Y-100730000D01*
X114700000Y-100730000D02*
X114700000Y-102230000D01*
X114700000Y-102230000D02*
X106200000Y-102230000D01*
X106200000Y-102230000D02*
X106200000Y-91930000D01*
X106200000Y-91930000D02*
X114700000Y-91930000D01*
X114700000Y-91930000D02*
X114700000Y-93430000D01*
X114700000Y-93430000D02*
X112500000Y-93430000D01*
X107700000Y-102230000D02*
X107700000Y-100730000D01*
X107700000Y-100730000D02*
X112500000Y-100730000D01*
X112500000Y-100730000D02*
X112500000Y-102230000D01*
X107700000Y-91930000D02*
X107700000Y-93430000D01*
X107700000Y-93430000D02*
X112500000Y-93430000D01*
X112500000Y-93430000D02*
X112500000Y-91930000D01*
X110550000Y-100730000D02*
X110550000Y-93430000D01*
X111550000Y-100730000D02*
X111550000Y-93430000D01*
X110550000Y-99580000D02*
X110550000Y-99900000D01*
X110550000Y-99900000D02*
X107130000Y-99900000D01*
X107130000Y-99900000D02*
X107050000Y-99580000D01*
X107050000Y-99580000D02*
X107130000Y-99260000D01*
X107130000Y-99260000D02*
X110550000Y-99260000D01*
X110550000Y-99260000D02*
X110550000Y-99580000D01*
X110550000Y-97080000D02*
X110550000Y-97400000D01*
X110550000Y-97400000D02*
X107130000Y-97400000D01*
X107130000Y-97400000D02*
X107050000Y-97080000D01*
X107050000Y-97080000D02*
X107130000Y-96760000D01*
X107130000Y-96760000D02*
X110550000Y-96760000D01*
X110550000Y-96760000D02*
X110550000Y-97080000D01*
X110550000Y-94580000D02*
X110550000Y-94900000D01*
X110550000Y-94900000D02*
X107130000Y-94900000D01*
X107130000Y-94900000D02*
X107050000Y-94580000D01*
X107050000Y-94580000D02*
X107130000Y-94260000D01*
X107130000Y-94260000D02*
X110550000Y-94260000D01*
X110550000Y-94260000D02*
X110550000Y-94580000D01*
X114550000Y-99580000D02*
X115150000Y-99880000D01*
X115150000Y-99880000D02*
X115150000Y-99280000D01*
X115150000Y-99280000D02*
X114550000Y-99580000D01*
X112720000Y-65240000D02*
X114920000Y-65240000D01*
X114920000Y-65240000D02*
X114920000Y-66740000D01*
X114920000Y-66740000D02*
X106420000Y-66740000D01*
X106420000Y-66740000D02*
X106420000Y-58940000D01*
X106420000Y-58940000D02*
X114920000Y-58940000D01*
X114920000Y-58940000D02*
X114920000Y-60440000D01*
X114920000Y-60440000D02*
X112720000Y-60440000D01*
X107920000Y-66740000D02*
X107920000Y-65240000D01*
X107920000Y-65240000D02*
X112720000Y-65240000D01*
X112720000Y-65240000D02*
X112720000Y-66740000D01*
X107920000Y-58940000D02*
X107920000Y-60440000D01*
X107920000Y-60440000D02*
X112720000Y-60440000D01*
X112720000Y-60440000D02*
X112720000Y-58940000D01*
X110770000Y-65240000D02*
X110770000Y-60440000D01*
X111770000Y-65240000D02*
X111770000Y-60440000D01*
X110770000Y-64090000D02*
X110770000Y-64410000D01*
X110770000Y-64410000D02*
X107350000Y-64410000D01*
X107350000Y-64410000D02*
X107270000Y-64090000D01*
X107270000Y-64090000D02*
X107350000Y-63770000D01*
X107350000Y-63770000D02*
X110770000Y-63770000D01*
X110770000Y-63770000D02*
X110770000Y-64090000D01*
X110770000Y-61590000D02*
X110770000Y-61910000D01*
X110770000Y-61910000D02*
X107350000Y-61910000D01*
X107350000Y-61910000D02*
X107270000Y-61590000D01*
X107270000Y-61590000D02*
X107350000Y-61270000D01*
X107350000Y-61270000D02*
X110770000Y-61270000D01*
X110770000Y-61270000D02*
X110770000Y-61590000D01*
X114770000Y-64090000D02*
X115370000Y-64390000D01*
X115370000Y-64390000D02*
X115370000Y-63790000D01*
X115370000Y-63790000D02*
X114770000Y-64090000D01*
X112710000Y-74400000D02*
X114910000Y-74400000D01*
X114910000Y-74400000D02*
X114910000Y-75900000D01*
X114910000Y-75900000D02*
X106410000Y-75900000D01*
X106410000Y-75900000D02*
X106410000Y-68100000D01*
X106410000Y-68100000D02*
X114910000Y-68100000D01*
X114910000Y-68100000D02*
X114910000Y-69600000D01*
X114910000Y-69600000D02*
X112710000Y-69600000D01*
X107910000Y-75900000D02*
X107910000Y-74400000D01*
X107910000Y-74400000D02*
X112710000Y-74400000D01*
X112710000Y-74400000D02*
X112710000Y-75900000D01*
X107910000Y-68100000D02*
X107910000Y-69600000D01*
X107910000Y-69600000D02*
X112710000Y-69600000D01*
X112710000Y-69600000D02*
X112710000Y-68100000D01*
X110760000Y-74400000D02*
X110760000Y-69600000D01*
X111760000Y-74400000D02*
X111760000Y-69600000D01*
X110760000Y-73250000D02*
X110760000Y-73570000D01*
X110760000Y-73570000D02*
X107340000Y-73570000D01*
X107340000Y-73570000D02*
X107260000Y-73250000D01*
X107260000Y-73250000D02*
X107340000Y-72930000D01*
X107340000Y-72930000D02*
X110760000Y-72930000D01*
X110760000Y-72930000D02*
X110760000Y-73250000D01*
X110760000Y-70750000D02*
X110760000Y-71070000D01*
X110760000Y-71070000D02*
X107340000Y-71070000D01*
X107340000Y-71070000D02*
X107260000Y-70750000D01*
X107260000Y-70750000D02*
X107340000Y-70430000D01*
X107340000Y-70430000D02*
X110760000Y-70430000D01*
X110760000Y-70430000D02*
X110760000Y-70750000D01*
X114760000Y-73250000D02*
X115360000Y-73550000D01*
X115360000Y-73550000D02*
X115360000Y-72950000D01*
X115360000Y-72950000D02*
X114760000Y-73250000D01*
X173270000Y-43680000D02*
X171070000Y-43680000D01*
X171070000Y-43680000D02*
X171070000Y-42180000D01*
X171070000Y-42180000D02*
X179570000Y-42180000D01*
X179570000Y-42180000D02*
X179570000Y-52480000D01*
X179570000Y-52480000D02*
X171070000Y-52480000D01*
X171070000Y-52480000D02*
X171070000Y-50980000D01*
X171070000Y-50980000D02*
X173270000Y-50980000D01*
X178070000Y-42180000D02*
X178070000Y-43680000D01*
X178070000Y-43680000D02*
X173270000Y-43680000D01*
X173270000Y-43680000D02*
X173270000Y-42180000D01*
X178070000Y-52480000D02*
X178070000Y-50980000D01*
X178070000Y-50980000D02*
X173270000Y-50980000D01*
X173270000Y-50980000D02*
X173270000Y-52480000D01*
X175220000Y-43680000D02*
X175220000Y-50980000D01*
X174220000Y-43680000D02*
X174220000Y-50980000D01*
X175220000Y-44830000D02*
X175220000Y-44510000D01*
X175220000Y-44510000D02*
X178640000Y-44510000D01*
X178640000Y-44510000D02*
X178720000Y-44830000D01*
X178720000Y-44830000D02*
X178640000Y-45150000D01*
X178640000Y-45150000D02*
X175220000Y-45150000D01*
X175220000Y-45150000D02*
X175220000Y-44830000D01*
X175220000Y-47330000D02*
X175220000Y-47010000D01*
X175220000Y-47010000D02*
X178640000Y-47010000D01*
X178640000Y-47010000D02*
X178720000Y-47330000D01*
X178720000Y-47330000D02*
X178640000Y-47650000D01*
X178640000Y-47650000D02*
X175220000Y-47650000D01*
X175220000Y-47650000D02*
X175220000Y-47330000D01*
X175220000Y-49830000D02*
X175220000Y-49510000D01*
X175220000Y-49510000D02*
X178640000Y-49510000D01*
X178640000Y-49510000D02*
X178720000Y-49830000D01*
X178720000Y-49830000D02*
X178640000Y-50150000D01*
X178640000Y-50150000D02*
X175220000Y-50150000D01*
X175220000Y-50150000D02*
X175220000Y-49830000D01*
X171220000Y-44830000D02*
X170620000Y-44530000D01*
X170620000Y-44530000D02*
X170620000Y-45130000D01*
X170620000Y-45130000D02*
X171220000Y-44830000D01*
X173750000Y-75470000D02*
X171550000Y-75470000D01*
X171550000Y-75470000D02*
X171550000Y-73970000D01*
X171550000Y-73970000D02*
X180050000Y-73970000D01*
X180050000Y-73970000D02*
X180050000Y-84270000D01*
X180050000Y-84270000D02*
X171550000Y-84270000D01*
X171550000Y-84270000D02*
X171550000Y-82770000D01*
X171550000Y-82770000D02*
X173750000Y-82770000D01*
X178550000Y-73970000D02*
X178550000Y-75470000D01*
X178550000Y-75470000D02*
X173750000Y-75470000D01*
X173750000Y-75470000D02*
X173750000Y-73970000D01*
X178550000Y-84270000D02*
X178550000Y-82770000D01*
X178550000Y-82770000D02*
X173750000Y-82770000D01*
X173750000Y-82770000D02*
X173750000Y-84270000D01*
X175700000Y-75470000D02*
X175700000Y-82770000D01*
X174700000Y-75470000D02*
X174700000Y-82770000D01*
X175700000Y-76620000D02*
X175700000Y-76300000D01*
X175700000Y-76300000D02*
X179120000Y-76300000D01*
X179120000Y-76300000D02*
X179200000Y-76620000D01*
X179200000Y-76620000D02*
X179120000Y-76940000D01*
X179120000Y-76940000D02*
X175700000Y-76940000D01*
X175700000Y-76940000D02*
X175700000Y-76620000D01*
X175700000Y-79120000D02*
X175700000Y-78800000D01*
X175700000Y-78800000D02*
X179120000Y-78800000D01*
X179120000Y-78800000D02*
X179200000Y-79120000D01*
X179200000Y-79120000D02*
X179120000Y-79440000D01*
X179120000Y-79440000D02*
X175700000Y-79440000D01*
X175700000Y-79440000D02*
X175700000Y-79120000D01*
X175700000Y-81620000D02*
X175700000Y-81300000D01*
X175700000Y-81300000D02*
X179120000Y-81300000D01*
X179120000Y-81300000D02*
X179200000Y-81620000D01*
X179200000Y-81620000D02*
X179120000Y-81940000D01*
X179120000Y-81940000D02*
X175700000Y-81940000D01*
X175700000Y-81940000D02*
X175700000Y-81620000D01*
X171700000Y-76620000D02*
X171100000Y-76320000D01*
X171100000Y-76320000D02*
X171100000Y-76920000D01*
X171100000Y-76920000D02*
X171700000Y-76620000D01*
X173780000Y-87240000D02*
X171580000Y-87240000D01*
X171580000Y-87240000D02*
X171580000Y-85740000D01*
X171580000Y-85740000D02*
X180080000Y-85740000D01*
X180080000Y-85740000D02*
X180080000Y-98540000D01*
X180080000Y-98540000D02*
X171580000Y-98540000D01*
X171580000Y-98540000D02*
X171580000Y-97040000D01*
X171580000Y-97040000D02*
X173780000Y-97040000D01*
X178580000Y-85740000D02*
X178580000Y-87240000D01*
X178580000Y-87240000D02*
X173780000Y-87240000D01*
X173780000Y-87240000D02*
X173780000Y-85740000D01*
X178580000Y-98540000D02*
X178580000Y-97040000D01*
X178580000Y-97040000D02*
X173780000Y-97040000D01*
X173780000Y-97040000D02*
X173780000Y-98540000D01*
X175730000Y-87240000D02*
X175730000Y-97040000D01*
X174730000Y-87240000D02*
X174730000Y-97040000D01*
X175730000Y-88390000D02*
X175730000Y-88070000D01*
X175730000Y-88070000D02*
X179150000Y-88070000D01*
X179150000Y-88070000D02*
X179230000Y-88390000D01*
X179230000Y-88390000D02*
X179150000Y-88710000D01*
X179150000Y-88710000D02*
X175730000Y-88710000D01*
X175730000Y-88710000D02*
X175730000Y-88390000D01*
X175730000Y-90890000D02*
X175730000Y-90570000D01*
X175730000Y-90570000D02*
X179150000Y-90570000D01*
X179150000Y-90570000D02*
X179230000Y-90890000D01*
X179230000Y-90890000D02*
X179150000Y-91210000D01*
X179150000Y-91210000D02*
X175730000Y-91210000D01*
X175730000Y-91210000D02*
X175730000Y-90890000D01*
X175730000Y-93390000D02*
X175730000Y-93070000D01*
X175730000Y-93070000D02*
X179150000Y-93070000D01*
X179150000Y-93070000D02*
X179230000Y-93390000D01*
X179230000Y-93390000D02*
X179150000Y-93710000D01*
X179150000Y-93710000D02*
X175730000Y-93710000D01*
X175730000Y-93710000D02*
X175730000Y-93390000D01*
X175730000Y-95890000D02*
X175730000Y-95570000D01*
X175730000Y-95570000D02*
X179150000Y-95570000D01*
X179150000Y-95570000D02*
X179230000Y-95890000D01*
X179230000Y-95890000D02*
X179150000Y-96210000D01*
X179150000Y-96210000D02*
X175730000Y-96210000D01*
X175730000Y-96210000D02*
X175730000Y-95890000D01*
X171730000Y-88390000D02*
X171130000Y-88090000D01*
X171130000Y-88090000D02*
X171130000Y-88690000D01*
X171130000Y-88690000D02*
X171730000Y-88390000D01*
X112660000Y-88830000D02*
X114860000Y-88830000D01*
X114860000Y-88830000D02*
X114860000Y-90330000D01*
X114860000Y-90330000D02*
X106360000Y-90330000D01*
X106360000Y-90330000D02*
X106360000Y-77530000D01*
X106360000Y-77530000D02*
X114860000Y-77530000D01*
X114860000Y-77530000D02*
X114860000Y-79030000D01*
X114860000Y-79030000D02*
X112660000Y-79030000D01*
X107860000Y-90330000D02*
X107860000Y-88830000D01*
X107860000Y-88830000D02*
X112660000Y-88830000D01*
X112660000Y-88830000D02*
X112660000Y-90330000D01*
X107860000Y-77530000D02*
X107860000Y-79030000D01*
X107860000Y-79030000D02*
X112660000Y-79030000D01*
X112660000Y-79030000D02*
X112660000Y-77530000D01*
X110710000Y-88830000D02*
X110710000Y-79030000D01*
X111710000Y-88830000D02*
X111710000Y-79030000D01*
X110710000Y-87680000D02*
X110710000Y-88000000D01*
X110710000Y-88000000D02*
X107290000Y-88000000D01*
X107290000Y-88000000D02*
X107210000Y-87680000D01*
X107210000Y-87680000D02*
X107290000Y-87360000D01*
X107290000Y-87360000D02*
X110710000Y-87360000D01*
X110710000Y-87360000D02*
X110710000Y-87680000D01*
X110710000Y-85180000D02*
X110710000Y-85500000D01*
X110710000Y-85500000D02*
X107290000Y-85500000D01*
X107290000Y-85500000D02*
X107210000Y-85180000D01*
X107210000Y-85180000D02*
X107290000Y-84860000D01*
X107290000Y-84860000D02*
X110710000Y-84860000D01*
X110710000Y-84860000D02*
X110710000Y-85180000D01*
X110710000Y-82680000D02*
X110710000Y-83000000D01*
X110710000Y-83000000D02*
X107290000Y-83000000D01*
X107290000Y-83000000D02*
X107210000Y-82680000D01*
X107210000Y-82680000D02*
X107290000Y-82360000D01*
X107290000Y-82360000D02*
X110710000Y-82360000D01*
X110710000Y-82360000D02*
X110710000Y-82680000D01*
X110710000Y-80180000D02*
X110710000Y-80500000D01*
X110710000Y-80500000D02*
X107290000Y-80500000D01*
X107290000Y-80500000D02*
X107210000Y-80180000D01*
X107210000Y-80180000D02*
X107290000Y-79860000D01*
X107290000Y-79860000D02*
X110710000Y-79860000D01*
X110710000Y-79860000D02*
X110710000Y-80180000D01*
X114710000Y-87680000D02*
X115310000Y-87980000D01*
X115310000Y-87980000D02*
X115310000Y-87380000D01*
X115310000Y-87380000D02*
X114710000Y-87680000D01*
X137190000Y-133460000D02*
X126950000Y-133460000D01*
X137190000Y-128819000D02*
X126950000Y-128819000D01*
X137190000Y-133460000D02*
X137190000Y-128819000D01*
X126950000Y-133460000D02*
X126950000Y-128819000D01*
X137190000Y-131950000D02*
X126950000Y-131950000D01*
X133920000Y-133460000D02*
X133920000Y-131950000D01*
X130219000Y-133460000D02*
X130219000Y-131950000D01*
X136878000Y-84808000D02*
X149998000Y-84808000D01*
X136878000Y-88928000D02*
X149998000Y-88928000D01*
X136878000Y-84808000D02*
X136878000Y-88928000D01*
X149998000Y-84808000D02*
X149998000Y-88928000D01*
X136878000Y-95222000D02*
X149998000Y-95222000D01*
X136878000Y-99342000D02*
X149998000Y-99342000D01*
X136878000Y-95222000D02*
X136878000Y-99342000D01*
X149998000Y-95222000D02*
X149998000Y-99342000D01*
X136878000Y-90142000D02*
X149998000Y-90142000D01*
X136878000Y-94262000D02*
X149998000Y-94262000D01*
X136878000Y-90142000D02*
X136878000Y-94262000D01*
X149998000Y-90142000D02*
X149998000Y-94262000D01*
X157640000Y-42390000D02*
X157640000Y-55510000D01*
X153520000Y-42390000D02*
X153520000Y-55510000D01*
X157640000Y-42390000D02*
X153520000Y-42390000D01*
X157640000Y-55510000D02*
X153520000Y-55510000D01*
X132052000Y-122654000D02*
X145172000Y-122654000D01*
X132052000Y-126774000D02*
X145172000Y-126774000D01*
X132052000Y-122654000D02*
X132052000Y-126774000D01*
X145172000Y-122654000D02*
X145172000Y-126774000D01*
X126464000Y-112494000D02*
X139584000Y-112494000D01*
X126464000Y-116614000D02*
X139584000Y-116614000D01*
X126464000Y-112494000D02*
X126464000Y-116614000D01*
X139584000Y-112494000D02*
X139584000Y-116614000D01*
X126464000Y-107160000D02*
X139584000Y-107160000D01*
X126464000Y-111280000D02*
X139584000Y-111280000D01*
X126464000Y-107160000D02*
X126464000Y-111280000D01*
X139584000Y-107160000D02*
X139584000Y-111280000D01*
X129772000Y-94306000D02*
X133372000Y-94306000D01*
X129247816Y-93578795D02*
G75*
G03X129772000Y-94306000I2324184J1122795D01*
G01*
X129215600Y-91357193D02*
G75*
G02X131572000Y-89856000I2356400J-1098807D01*
G01*
X133928400Y-91357193D02*
G75*
G03X131572000Y-89856000I-2356400J-1098807D01*
G01*
X133896184Y-93578795D02*
G75*
G02X133372000Y-94306000I-2324184J1122795D01*
G01*
X129772000Y-99894000D02*
X133372000Y-99894000D01*
X129247816Y-99166795D02*
G75*
G03X129772000Y-99894000I2324184J1122795D01*
G01*
X129215600Y-96945193D02*
G75*
G02X131572000Y-95444000I2356400J-1098807D01*
G01*
X133928400Y-96945193D02*
G75*
G03X131572000Y-95444000I-2356400J-1098807D01*
G01*
X133896184Y-99166795D02*
G75*
G02X133372000Y-99894000I-2324184J1122795D01*
G01*
X165934000Y-47012000D02*
X165934000Y-43412000D01*
X165206795Y-47536184D02*
G75*
G03X165934000Y-47012000I-1122795J2324184D01*
G01*
X162985193Y-47568400D02*
G75*
G02X161484000Y-45212000I1098807J2356400D01*
G01*
X162985193Y-42855600D02*
G75*
G03X161484000Y-45212000I1098807J-2356400D01*
G01*
X165206795Y-42887816D02*
G75*
G02X165934000Y-43412000I-1122795J-2324184D01*
G01*
D10*
X135032000Y-43930000D02*
X135732000Y-43930000D01*
X135032000Y-42430000D02*
X135732000Y-42430000D01*
X135732000Y-43930000D02*
G75*
G03X135732000Y-42430000I0J750000D01*
G01*
X135032000Y-42430000D02*
G75*
G03X135032000Y-43930000I0J-750000D01*
G01*
X135032000Y-46470000D02*
X135732000Y-46470000D01*
X135032000Y-44970000D02*
X135732000Y-44970000D01*
X135732000Y-46470000D02*
G75*
G03X135732000Y-44970000I0J750000D01*
G01*
X135032000Y-44970000D02*
G75*
G03X135032000Y-46470000I0J-750000D01*
G01*
X135032000Y-49010000D02*
X135732000Y-49010000D01*
X135032000Y-47510000D02*
X135732000Y-47510000D01*
X135732000Y-49010000D02*
G75*
G03X135732000Y-47510000I0J750000D01*
G01*
X135032000Y-47510000D02*
G75*
G03X135032000Y-49010000I0J-750000D01*
G01*
X135032000Y-51550000D02*
X135732000Y-51550000D01*
X135032000Y-50050000D02*
X135732000Y-50050000D01*
X135732000Y-51550000D02*
G75*
G03X135732000Y-50050000I0J750000D01*
G01*
X135032000Y-50050000D02*
G75*
G03X135032000Y-51550000I0J-750000D01*
G01*
X135032000Y-54090000D02*
X135732000Y-54090000D01*
X135032000Y-52590000D02*
X135732000Y-52590000D01*
X135732000Y-54090000D02*
G75*
G03X135732000Y-52590000I0J750000D01*
G01*
X135032000Y-52590000D02*
G75*
G03X135032000Y-54090000I0J-750000D01*
G01*
X135032000Y-56630000D02*
X135732000Y-56630000D01*
X135032000Y-55130000D02*
X135732000Y-55130000D01*
X135732000Y-56630000D02*
G75*
G03X135732000Y-55130000I0J750000D01*
G01*
X135032000Y-55130000D02*
G75*
G03X135032000Y-56630000I0J-750000D01*
G01*
X135032000Y-59170000D02*
X135732000Y-59170000D01*
X135032000Y-57670000D02*
X135732000Y-57670000D01*
X135732000Y-59170000D02*
G75*
G03X135732000Y-57670000I0J750000D01*
G01*
X135032000Y-57670000D02*
G75*
G03X135032000Y-59170000I0J-750000D01*
G01*
X135032000Y-61710000D02*
X135732000Y-61710000D01*
X135032000Y-60210000D02*
X135732000Y-60210000D01*
X135732000Y-61710000D02*
G75*
G03X135732000Y-60210000I0J750000D01*
G01*
X135032000Y-60210000D02*
G75*
G03X135032000Y-61710000I0J-750000D01*
G01*
X135032000Y-64250000D02*
X135732000Y-64250000D01*
X135032000Y-62750000D02*
X135732000Y-62750000D01*
X135732000Y-64250000D02*
G75*
G03X135732000Y-62750000I0J750000D01*
G01*
X135032000Y-62750000D02*
G75*
G03X135032000Y-64250000I0J-750000D01*
G01*
X135032000Y-66790000D02*
X135732000Y-66790000D01*
X135032000Y-65290000D02*
X135732000Y-65290000D01*
X135732000Y-66790000D02*
G75*
G03X135732000Y-65290000I0J750000D01*
G01*
X135032000Y-65290000D02*
G75*
G03X135032000Y-66790000I0J-750000D01*
G01*
X135032000Y-69330000D02*
X135732000Y-69330000D01*
X135032000Y-67830000D02*
X135732000Y-67830000D01*
X135732000Y-69330000D02*
G75*
G03X135732000Y-67830000I0J750000D01*
G01*
X135032000Y-67830000D02*
G75*
G03X135032000Y-69330000I0J-750000D01*
G01*
X135032000Y-71870000D02*
X135732000Y-71870000D01*
X135032000Y-70370000D02*
X135732000Y-70370000D01*
X135732000Y-71870000D02*
G75*
G03X135732000Y-70370000I0J750000D01*
G01*
X135032000Y-70370000D02*
G75*
G03X135032000Y-71870000I0J-750000D01*
G01*
X135032000Y-74410000D02*
X135732000Y-74410000D01*
X135032000Y-72910000D02*
X135732000Y-72910000D01*
X135732000Y-74410000D02*
G75*
G03X135732000Y-72910000I0J750000D01*
G01*
X135032000Y-72910000D02*
G75*
G03X135032000Y-74410000I0J-750000D01*
G01*
X135032000Y-76950000D02*
X135732000Y-76950000D01*
X135032000Y-75450000D02*
X135732000Y-75450000D01*
X135732000Y-76950000D02*
G75*
G03X135732000Y-75450000I0J750000D01*
G01*
X135032000Y-75450000D02*
G75*
G03X135032000Y-76950000I0J-750000D01*
G01*
X135032000Y-79490000D02*
X135732000Y-79490000D01*
X135032000Y-77990000D02*
X135732000Y-77990000D01*
X135732000Y-79490000D02*
G75*
G03X135732000Y-77990000I0J750000D01*
G01*
X135032000Y-77990000D02*
G75*
G03X135032000Y-79490000I0J-750000D01*
G01*
X150272000Y-79490000D02*
X150972000Y-79490000D01*
X150272000Y-77990000D02*
X150972000Y-77990000D01*
X150972000Y-79490000D02*
G75*
G03X150972000Y-77990000I0J750000D01*
G01*
X150272000Y-77990000D02*
G75*
G03X150272000Y-79490000I0J-750000D01*
G01*
X150272000Y-76950000D02*
X150972000Y-76950000D01*
X150272000Y-75450000D02*
X150972000Y-75450000D01*
X150972000Y-76950000D02*
G75*
G03X150972000Y-75450000I0J750000D01*
G01*
X150272000Y-75450000D02*
G75*
G03X150272000Y-76950000I0J-750000D01*
G01*
X150272000Y-74410000D02*
X150972000Y-74410000D01*
X150272000Y-72910000D02*
X150972000Y-72910000D01*
X150972000Y-74410000D02*
G75*
G03X150972000Y-72910000I0J750000D01*
G01*
X150272000Y-72910000D02*
G75*
G03X150272000Y-74410000I0J-750000D01*
G01*
X150272000Y-71870000D02*
X150972000Y-71870000D01*
X150272000Y-70370000D02*
X150972000Y-70370000D01*
X150972000Y-71870000D02*
G75*
G03X150972000Y-70370000I0J750000D01*
G01*
X150272000Y-70370000D02*
G75*
G03X150272000Y-71870000I0J-750000D01*
G01*
X150272000Y-69330000D02*
X150972000Y-69330000D01*
X150272000Y-67830000D02*
X150972000Y-67830000D01*
X150972000Y-69330000D02*
G75*
G03X150972000Y-67830000I0J750000D01*
G01*
X150272000Y-67830000D02*
G75*
G03X150272000Y-69330000I0J-750000D01*
G01*
X150272000Y-66790000D02*
X150972000Y-66790000D01*
X150272000Y-65290000D02*
X150972000Y-65290000D01*
X150972000Y-66790000D02*
G75*
G03X150972000Y-65290000I0J750000D01*
G01*
X150272000Y-65290000D02*
G75*
G03X150272000Y-66790000I0J-750000D01*
G01*
X150272000Y-64250000D02*
X150972000Y-64250000D01*
X150272000Y-62750000D02*
X150972000Y-62750000D01*
X150972000Y-64250000D02*
G75*
G03X150972000Y-62750000I0J750000D01*
G01*
X150272000Y-62750000D02*
G75*
G03X150272000Y-64250000I0J-750000D01*
G01*
X150272000Y-61710000D02*
X150972000Y-61710000D01*
X150272000Y-60210000D02*
X150972000Y-60210000D01*
X150972000Y-61710000D02*
G75*
G03X150972000Y-60210000I0J750000D01*
G01*
X150272000Y-60210000D02*
G75*
G03X150272000Y-61710000I0J-750000D01*
G01*
X150272000Y-59170000D02*
X150972000Y-59170000D01*
X150272000Y-57670000D02*
X150972000Y-57670000D01*
X150972000Y-59170000D02*
G75*
G03X150972000Y-57670000I0J750000D01*
G01*
X150272000Y-57670000D02*
G75*
G03X150272000Y-59170000I0J-750000D01*
G01*
X150272000Y-56630000D02*
X150972000Y-56630000D01*
X150272000Y-55130000D02*
X150972000Y-55130000D01*
X150972000Y-56630000D02*
G75*
G03X150972000Y-55130000I0J750000D01*
G01*
X150272000Y-55130000D02*
G75*
G03X150272000Y-56630000I0J-750000D01*
G01*
X150272000Y-54090000D02*
X150972000Y-54090000D01*
X150272000Y-52590000D02*
X150972000Y-52590000D01*
X150972000Y-54090000D02*
G75*
G03X150972000Y-52590000I0J750000D01*
G01*
X150272000Y-52590000D02*
G75*
G03X150272000Y-54090000I0J-750000D01*
G01*
X150272000Y-51550000D02*
X150972000Y-51550000D01*
X150272000Y-50050000D02*
X150972000Y-50050000D01*
X150972000Y-51550000D02*
G75*
G03X150972000Y-50050000I0J750000D01*
G01*
X150272000Y-50050000D02*
G75*
G03X150272000Y-51550000I0J-750000D01*
G01*
X150272000Y-49010000D02*
X150972000Y-49010000D01*
X150272000Y-47510000D02*
X150972000Y-47510000D01*
X150972000Y-49010000D02*
G75*
G03X150972000Y-47510000I0J750000D01*
G01*
X150272000Y-47510000D02*
G75*
G03X150272000Y-49010000I0J-750000D01*
G01*
X150272000Y-46470000D02*
X150972000Y-46470000D01*
X150272000Y-44970000D02*
X150972000Y-44970000D01*
X150972000Y-46470000D02*
G75*
G03X150972000Y-44970000I0J750000D01*
G01*
X150272000Y-44970000D02*
G75*
G03X150272000Y-46470000I0J-750000D01*
G01*
X150272000Y-43930000D02*
X150972000Y-43930000D01*
X150272000Y-42430000D02*
X150972000Y-42430000D01*
X150972000Y-43930000D02*
G75*
G03X150972000Y-42430000I0J750000D01*
G01*
X150272000Y-42430000D02*
G75*
G03X150272000Y-43930000I0J-750000D01*
G01*
X165190000Y-60370000D02*
G75*
G03X165190000Y-60370000I-600000J0D01*
G01*
X111620000Y-44760000D02*
G75*
G03X111620000Y-44760000I-600000J0D01*
G01*
X158040000Y-104520000D02*
G75*
G03X158040000Y-104520000I-600000J0D01*
G01*
X129610000Y-57480000D02*
G75*
G03X129610000Y-57480000I-600000J0D01*
G01*
X163400000Y-68720000D02*
G75*
G03X163400000Y-68720000I-600000J0D01*
G01*
X166040000Y-115410000D02*
G75*
G03X166040000Y-115410000I-600000J0D01*
G01*
X123830000Y-119660000D02*
G75*
G03X123830000Y-119660000I-600000J0D01*
G01*
X125060000Y-88860000D02*
G75*
G03X125060000Y-88860000I-600000J0D01*
G01*
X130140000Y-119660000D02*
G75*
G03X130140000Y-119660000I-600000J0D01*
G01*
X148617040Y-106018780D02*
G75*
G03X148617040Y-106018780I-1220000J0D01*
G01*
X121362960Y-69851220D02*
G75*
G03X121362960Y-69851220I-1220000J0D01*
G01*
X157507040Y-60958780D02*
G75*
G03X157507040Y-60958780I-1220000J0D01*
G01*
X179109790Y-69080000D02*
G75*
G03X179109790Y-69080000I-850430J0D01*
G01*
X174111070Y-69080000D02*
G75*
G03X174111070Y-69080000I-850430J0D01*
G01*
X156870430Y-116450640D02*
G75*
G03X156870430Y-116450640I-850430J0D01*
G01*
X156870430Y-121449360D02*
G75*
G03X156870430Y-121449360I-850430J0D01*
G01*
X129500430Y-68539360D02*
G75*
G03X129500430Y-68539360I-850430J0D01*
G01*
X129500430Y-63540640D02*
G75*
G03X129500430Y-63540640I-850430J0D01*
G01*
X173180000Y-117860000D02*
G75*
G03X173180000Y-117860000I-850000J0D01*
G01*
X173180000Y-121260000D02*
G75*
G03X173180000Y-121260000I-850000J0D01*
G01*
X173180000Y-114460000D02*
G75*
G03X173180000Y-114460000I-850000J0D01*
G01*
X177380000Y-116160000D02*
G75*
G03X177380000Y-116160000I-850000J0D01*
G01*
X177380000Y-119560000D02*
G75*
G03X177380000Y-119560000I-850000J0D01*
G01*
X173310000Y-59310000D02*
G75*
G03X173310000Y-59310000I-850000J0D01*
G01*
X173310000Y-62710000D02*
G75*
G03X173310000Y-62710000I-850000J0D01*
G01*
X173310000Y-55910000D02*
G75*
G03X173310000Y-55910000I-850000J0D01*
G01*
X177510000Y-57610000D02*
G75*
G03X177510000Y-57610000I-850000J0D01*
G01*
X177510000Y-61010000D02*
G75*
G03X177510000Y-61010000I-850000J0D01*
G01*
X123660000Y-49410000D02*
G75*
G03X123660000Y-49410000I-850000J0D01*
G01*
X127060000Y-49410000D02*
G75*
G03X127060000Y-49410000I-850000J0D01*
G01*
X120260000Y-49410000D02*
G75*
G03X120260000Y-49410000I-850000J0D01*
G01*
X121960000Y-45210000D02*
G75*
G03X121960000Y-45210000I-850000J0D01*
G01*
X125360000Y-45210000D02*
G75*
G03X125360000Y-45210000I-850000J0D01*
G01*
X125532000Y-123810000D02*
X125532000Y-123510000D01*
X124108000Y-123810000D02*
X124108000Y-123510000D01*
X125532000Y-123510000D02*
G75*
G03X124108000Y-123510000I-712000J0D01*
G01*
X124108000Y-123810000D02*
G75*
G03X125532000Y-123810000I712000J0D01*
G01*
X124262000Y-128890000D02*
X124262000Y-128590000D01*
X122838000Y-128890000D02*
X122838000Y-128590000D01*
X124262000Y-128590000D02*
G75*
G03X122838000Y-128590000I-712000J0D01*
G01*
X122838000Y-128890000D02*
G75*
G03X124262000Y-128890000I712000J0D01*
G01*
X122992000Y-123810000D02*
X122992000Y-123510000D01*
X121568000Y-123810000D02*
X121568000Y-123510000D01*
X122992000Y-123510000D02*
G75*
G03X121568000Y-123510000I-712000J0D01*
G01*
X121568000Y-123810000D02*
G75*
G03X122992000Y-123810000I712000J0D01*
G01*
X121722000Y-128890000D02*
X121722000Y-128590000D01*
X120298000Y-128890000D02*
X120298000Y-128590000D01*
X121722000Y-128590000D02*
G75*
G03X120298000Y-128590000I-712000J0D01*
G01*
X120298000Y-128890000D02*
G75*
G03X121722000Y-128890000I712000J0D01*
G01*
X120452000Y-123810000D02*
X120452000Y-123510000D01*
X119028000Y-123810000D02*
X119028000Y-123510000D01*
X120452000Y-123510000D02*
G75*
G03X119028000Y-123510000I-712000J0D01*
G01*
X119028000Y-123810000D02*
G75*
G03X120452000Y-123810000I712000J0D01*
G01*
X119182000Y-128890000D02*
X119182000Y-128590000D01*
X117758000Y-128890000D02*
X117758000Y-128590000D01*
X119182000Y-128590000D02*
G75*
G03X117758000Y-128590000I-712000J0D01*
G01*
X117758000Y-128890000D02*
G75*
G03X119182000Y-128890000I712000J0D01*
G01*
X117912000Y-123810000D02*
X117912000Y-123510000D01*
X116488000Y-123810000D02*
X116488000Y-123510000D01*
X117912000Y-123510000D02*
G75*
G03X116488000Y-123510000I-712000J0D01*
G01*
X116488000Y-123810000D02*
G75*
G03X117912000Y-123810000I712000J0D01*
G01*
X116642000Y-128890000D02*
X116642000Y-128590000D01*
X115218000Y-128890000D02*
X115218000Y-128590000D01*
X116642000Y-128590000D02*
G75*
G03X115218000Y-128590000I-712000J0D01*
G01*
X115218000Y-128890000D02*
G75*
G03X116642000Y-128890000I712000J0D01*
G01*
X115372000Y-123810000D02*
X115372000Y-123510000D01*
X113948000Y-123810000D02*
X113948000Y-123510000D01*
X115372000Y-123510000D02*
G75*
G03X113948000Y-123510000I-712000J0D01*
G01*
X113948000Y-123810000D02*
G75*
G03X115372000Y-123810000I712000J0D01*
G01*
X114102000Y-128890000D02*
X114102000Y-128590000D01*
X112678000Y-128890000D02*
X112678000Y-128590000D01*
X114102000Y-128590000D02*
G75*
G03X112678000Y-128590000I-712000J0D01*
G01*
X112678000Y-128890000D02*
G75*
G03X114102000Y-128890000I712000J0D01*
G01*
X112832000Y-123810000D02*
X112832000Y-123510000D01*
X111408000Y-123810000D02*
X111408000Y-123510000D01*
X112832000Y-123510000D02*
G75*
G03X111408000Y-123510000I-712000J0D01*
G01*
X111408000Y-123810000D02*
G75*
G03X112832000Y-123810000I712000J0D01*
G01*
X111562000Y-128890000D02*
X111562000Y-128590000D01*
X110138000Y-128890000D02*
X110138000Y-128590000D01*
X111562000Y-128590000D02*
G75*
G03X110138000Y-128590000I-712000J0D01*
G01*
X110138000Y-128890000D02*
G75*
G03X111562000Y-128890000I712000J0D01*
G01*
X110292000Y-123810000D02*
X110292000Y-123510000D01*
X108868000Y-123810000D02*
X108868000Y-123510000D01*
X110292000Y-123510000D02*
G75*
G03X108868000Y-123510000I-712000J0D01*
G01*
X108868000Y-123810000D02*
G75*
G03X110292000Y-123810000I712000J0D01*
G01*
X109022000Y-128890000D02*
X109022000Y-128590000D01*
X107598000Y-128890000D02*
X107598000Y-128590000D01*
X109022000Y-128590000D02*
G75*
G03X107598000Y-128590000I-712000J0D01*
G01*
X107598000Y-128890000D02*
G75*
G03X109022000Y-128890000I712000J0D01*
G01*
X107752000Y-123810000D02*
X107752000Y-123510000D01*
X106328000Y-123810000D02*
X106328000Y-123510000D01*
X107752000Y-123510000D02*
G75*
G03X106328000Y-123510000I-712000J0D01*
G01*
X106328000Y-123810000D02*
G75*
G03X107752000Y-123810000I712000J0D01*
G01*
D11*
X130714762Y-83982619D02*
X130619524Y-83935000D01*
X130524286Y-83839762D01*
X130381429Y-83696905D01*
X130286190Y-83649286D01*
X130190952Y-83649286D01*
X130238571Y-83887381D02*
X130143333Y-83839762D01*
X130048095Y-83744524D01*
X130000476Y-83554048D01*
X130000476Y-83220714D01*
X130048095Y-83030238D01*
X130143333Y-82935000D01*
X130238571Y-82887381D01*
X130429048Y-82887381D01*
X130524286Y-82935000D01*
X130619524Y-83030238D01*
X130667143Y-83220714D01*
X130667143Y-83554048D01*
X130619524Y-83744524D01*
X130524286Y-83839762D01*
X130429048Y-83887381D01*
X130238571Y-83887381D01*
X131048095Y-82982619D02*
X131095714Y-82935000D01*
X131190952Y-82887381D01*
X131429048Y-82887381D01*
X131524286Y-82935000D01*
X131571905Y-82982619D01*
X131619524Y-83077857D01*
X131619524Y-83173095D01*
X131571905Y-83315952D01*
X131000476Y-83887381D01*
X131619524Y-83887381D01*
X134620095Y-38632381D02*
X134620095Y-39441905D01*
X134667714Y-39537143D01*
X134715333Y-39584762D01*
X134810571Y-39632381D01*
X135001048Y-39632381D01*
X135096286Y-39584762D01*
X135143905Y-39537143D01*
X135191524Y-39441905D01*
X135191524Y-38632381D01*
X136143905Y-38632381D02*
X135667714Y-38632381D01*
X135620095Y-39108571D01*
X135667714Y-39060952D01*
X135762952Y-39013333D01*
X136001048Y-39013333D01*
X136096286Y-39060952D01*
X136143905Y-39108571D01*
X136191524Y-39203810D01*
X136191524Y-39441905D01*
X136143905Y-39537143D01*
X136096286Y-39584762D01*
X136001048Y-39632381D01*
X135762952Y-39632381D01*
X135667714Y-39584762D01*
X135620095Y-39537143D01*
X160615334Y-57507143D02*
X160567715Y-57554762D01*
X160424858Y-57602381D01*
X160329620Y-57602381D01*
X160186762Y-57554762D01*
X160091524Y-57459524D01*
X160043905Y-57364286D01*
X159996286Y-57173810D01*
X159996286Y-57030952D01*
X160043905Y-56840476D01*
X160091524Y-56745238D01*
X160186762Y-56650000D01*
X160329620Y-56602381D01*
X160424858Y-56602381D01*
X160567715Y-56650000D01*
X160615334Y-56697619D01*
X160996286Y-56697619D02*
X161043905Y-56650000D01*
X161139143Y-56602381D01*
X161377239Y-56602381D01*
X161472477Y-56650000D01*
X161520096Y-56697619D01*
X161567715Y-56792857D01*
X161567715Y-56888095D01*
X161520096Y-57030952D01*
X160948667Y-57602381D01*
X161567715Y-57602381D01*
X165846286Y-56602381D02*
X165655809Y-56602381D01*
X165560571Y-56650000D01*
X165512952Y-56697619D01*
X165417714Y-56840476D01*
X165370095Y-57030952D01*
X165370095Y-57411905D01*
X165417714Y-57507143D01*
X165465333Y-57554762D01*
X165560571Y-57602381D01*
X165751048Y-57602381D01*
X165846286Y-57554762D01*
X165893905Y-57507143D01*
X165941524Y-57411905D01*
X165941524Y-57173810D01*
X165893905Y-57078571D01*
X165846286Y-57030952D01*
X165751048Y-56983333D01*
X165560571Y-56983333D01*
X165465333Y-57030952D01*
X165417714Y-57078571D01*
X165370095Y-57173810D01*
X166512952Y-57030952D02*
X166417714Y-56983333D01*
X166370095Y-56935714D01*
X166322476Y-56840476D01*
X166322476Y-56792857D01*
X166370095Y-56697619D01*
X166417714Y-56650000D01*
X166512952Y-56602381D01*
X166703429Y-56602381D01*
X166798667Y-56650000D01*
X166846286Y-56697619D01*
X166893905Y-56792857D01*
X166893905Y-56840476D01*
X166846286Y-56935714D01*
X166798667Y-56983333D01*
X166703429Y-57030952D01*
X166512952Y-57030952D01*
X166417714Y-57078571D01*
X166370095Y-57126190D01*
X166322476Y-57221429D01*
X166322476Y-57411905D01*
X166370095Y-57507143D01*
X166417714Y-57554762D01*
X166512952Y-57602381D01*
X166703429Y-57602381D01*
X166798667Y-57554762D01*
X166846286Y-57507143D01*
X166893905Y-57411905D01*
X166893905Y-57221429D01*
X166846286Y-57126190D01*
X166798667Y-57078571D01*
X166703429Y-57030952D01*
X167512952Y-56602381D02*
X167608191Y-56602381D01*
X167703429Y-56650000D01*
X167751048Y-56697619D01*
X167798667Y-56792857D01*
X167846286Y-56983333D01*
X167846286Y-57221429D01*
X167798667Y-57411905D01*
X167751048Y-57507143D01*
X167703429Y-57554762D01*
X167608191Y-57602381D01*
X167512952Y-57602381D01*
X167417714Y-57554762D01*
X167370095Y-57507143D01*
X167322476Y-57411905D01*
X167274857Y-57221429D01*
X167274857Y-56983333D01*
X167322476Y-56792857D01*
X167370095Y-56697619D01*
X167417714Y-56650000D01*
X167512952Y-56602381D01*
X168274857Y-56935714D02*
X168274857Y-57935714D01*
X168751048Y-57459524D02*
X168798667Y-57554762D01*
X168893905Y-57602381D01*
X168274857Y-57459524D02*
X168322476Y-57554762D01*
X168417714Y-57602381D01*
X168608191Y-57602381D01*
X168703429Y-57554762D01*
X168751048Y-57459524D01*
X168751048Y-56935714D01*
X114853334Y-43117143D02*
X114805715Y-43164762D01*
X114662858Y-43212381D01*
X114567620Y-43212381D01*
X114424762Y-43164762D01*
X114329524Y-43069524D01*
X114281905Y-42974286D01*
X114234286Y-42783810D01*
X114234286Y-42640952D01*
X114281905Y-42450476D01*
X114329524Y-42355238D01*
X114424762Y-42260000D01*
X114567620Y-42212381D01*
X114662858Y-42212381D01*
X114805715Y-42260000D01*
X114853334Y-42307619D01*
X115186667Y-42212381D02*
X115805715Y-42212381D01*
X115472381Y-42593333D01*
X115615239Y-42593333D01*
X115710477Y-42640952D01*
X115758096Y-42688571D01*
X115805715Y-42783810D01*
X115805715Y-43021905D01*
X115758096Y-43117143D01*
X115710477Y-43164762D01*
X115615239Y-43212381D01*
X115329524Y-43212381D01*
X115234286Y-43164762D01*
X115186667Y-43117143D01*
X107172286Y-47712381D02*
X106981809Y-47712381D01*
X106886571Y-47760000D01*
X106838952Y-47807619D01*
X106743714Y-47950476D01*
X106696095Y-48140952D01*
X106696095Y-48521905D01*
X106743714Y-48617143D01*
X106791333Y-48664762D01*
X106886571Y-48712381D01*
X107077048Y-48712381D01*
X107172286Y-48664762D01*
X107219905Y-48617143D01*
X107267524Y-48521905D01*
X107267524Y-48283810D01*
X107219905Y-48188571D01*
X107172286Y-48140952D01*
X107077048Y-48093333D01*
X106886571Y-48093333D01*
X106791333Y-48140952D01*
X106743714Y-48188571D01*
X106696095Y-48283810D01*
X107838952Y-48140952D02*
X107743714Y-48093333D01*
X107696095Y-48045714D01*
X107648476Y-47950476D01*
X107648476Y-47902857D01*
X107696095Y-47807619D01*
X107743714Y-47760000D01*
X107838952Y-47712381D01*
X108029429Y-47712381D01*
X108124667Y-47760000D01*
X108172286Y-47807619D01*
X108219905Y-47902857D01*
X108219905Y-47950476D01*
X108172286Y-48045714D01*
X108124667Y-48093333D01*
X108029429Y-48140952D01*
X107838952Y-48140952D01*
X107743714Y-48188571D01*
X107696095Y-48236190D01*
X107648476Y-48331429D01*
X107648476Y-48521905D01*
X107696095Y-48617143D01*
X107743714Y-48664762D01*
X107838952Y-48712381D01*
X108029429Y-48712381D01*
X108124667Y-48664762D01*
X108172286Y-48617143D01*
X108219905Y-48521905D01*
X108219905Y-48331429D01*
X108172286Y-48236190D01*
X108124667Y-48188571D01*
X108029429Y-48140952D01*
X108838952Y-47712381D02*
X108934191Y-47712381D01*
X109029429Y-47760000D01*
X109077048Y-47807619D01*
X109124667Y-47902857D01*
X109172286Y-48093333D01*
X109172286Y-48331429D01*
X109124667Y-48521905D01*
X109077048Y-48617143D01*
X109029429Y-48664762D01*
X108934191Y-48712381D01*
X108838952Y-48712381D01*
X108743714Y-48664762D01*
X108696095Y-48617143D01*
X108648476Y-48521905D01*
X108600857Y-48331429D01*
X108600857Y-48093333D01*
X108648476Y-47902857D01*
X108696095Y-47807619D01*
X108743714Y-47760000D01*
X108838952Y-47712381D01*
X109600857Y-48045714D02*
X109600857Y-49045714D01*
X110077048Y-48569524D02*
X110124667Y-48664762D01*
X110219905Y-48712381D01*
X109600857Y-48569524D02*
X109648476Y-48664762D01*
X109743714Y-48712381D01*
X109934191Y-48712381D01*
X110029429Y-48664762D01*
X110077048Y-48569524D01*
X110077048Y-48045714D01*
X160615334Y-108307143D02*
X160567715Y-108354762D01*
X160424858Y-108402381D01*
X160329620Y-108402381D01*
X160186762Y-108354762D01*
X160091524Y-108259524D01*
X160043905Y-108164286D01*
X159996286Y-107973810D01*
X159996286Y-107830952D01*
X160043905Y-107640476D01*
X160091524Y-107545238D01*
X160186762Y-107450000D01*
X160329620Y-107402381D01*
X160424858Y-107402381D01*
X160567715Y-107450000D01*
X160615334Y-107497619D01*
X161567715Y-108402381D02*
X160996286Y-108402381D01*
X161282000Y-108402381D02*
X161282000Y-107402381D01*
X161186762Y-107545238D01*
X161091524Y-107640476D01*
X160996286Y-107688095D01*
X153400286Y-107402381D02*
X153209809Y-107402381D01*
X153114571Y-107450000D01*
X153066952Y-107497619D01*
X152971714Y-107640476D01*
X152924095Y-107830952D01*
X152924095Y-108211905D01*
X152971714Y-108307143D01*
X153019333Y-108354762D01*
X153114571Y-108402381D01*
X153305048Y-108402381D01*
X153400286Y-108354762D01*
X153447905Y-108307143D01*
X153495524Y-108211905D01*
X153495524Y-107973810D01*
X153447905Y-107878571D01*
X153400286Y-107830952D01*
X153305048Y-107783333D01*
X153114571Y-107783333D01*
X153019333Y-107830952D01*
X152971714Y-107878571D01*
X152924095Y-107973810D01*
X154066952Y-107830952D02*
X153971714Y-107783333D01*
X153924095Y-107735714D01*
X153876476Y-107640476D01*
X153876476Y-107592857D01*
X153924095Y-107497619D01*
X153971714Y-107450000D01*
X154066952Y-107402381D01*
X154257429Y-107402381D01*
X154352667Y-107450000D01*
X154400286Y-107497619D01*
X154447905Y-107592857D01*
X154447905Y-107640476D01*
X154400286Y-107735714D01*
X154352667Y-107783333D01*
X154257429Y-107830952D01*
X154066952Y-107830952D01*
X153971714Y-107878571D01*
X153924095Y-107926190D01*
X153876476Y-108021429D01*
X153876476Y-108211905D01*
X153924095Y-108307143D01*
X153971714Y-108354762D01*
X154066952Y-108402381D01*
X154257429Y-108402381D01*
X154352667Y-108354762D01*
X154400286Y-108307143D01*
X154447905Y-108211905D01*
X154447905Y-108021429D01*
X154400286Y-107926190D01*
X154352667Y-107878571D01*
X154257429Y-107830952D01*
X155066952Y-107402381D02*
X155162191Y-107402381D01*
X155257429Y-107450000D01*
X155305048Y-107497619D01*
X155352667Y-107592857D01*
X155400286Y-107783333D01*
X155400286Y-108021429D01*
X155352667Y-108211905D01*
X155305048Y-108307143D01*
X155257429Y-108354762D01*
X155162191Y-108402381D01*
X155066952Y-108402381D01*
X154971714Y-108354762D01*
X154924095Y-108307143D01*
X154876476Y-108211905D01*
X154828857Y-108021429D01*
X154828857Y-107783333D01*
X154876476Y-107592857D01*
X154924095Y-107497619D01*
X154971714Y-107450000D01*
X155066952Y-107402381D01*
X155828857Y-107735714D02*
X155828857Y-108735714D01*
X156305048Y-108259524D02*
X156352667Y-108354762D01*
X156447905Y-108402381D01*
X155828857Y-108259524D02*
X155876476Y-108354762D01*
X155971714Y-108402381D01*
X156162191Y-108402381D01*
X156257429Y-108354762D01*
X156305048Y-108259524D01*
X156305048Y-107735714D01*
X133367143Y-51846666D02*
X133414762Y-51894285D01*
X133462381Y-52037142D01*
X133462381Y-52132380D01*
X133414762Y-52275238D01*
X133319524Y-52370476D01*
X133224286Y-52418095D01*
X133033810Y-52465714D01*
X132890952Y-52465714D01*
X132700476Y-52418095D01*
X132605238Y-52370476D01*
X132510000Y-52275238D01*
X132462381Y-52132380D01*
X132462381Y-52037142D01*
X132510000Y-51894285D01*
X132557619Y-51846666D01*
X132795714Y-50989523D02*
X133462381Y-50989523D01*
X132414762Y-51227619D02*
X133129048Y-51465714D01*
X133129048Y-50846666D01*
X132557619Y-61441905D02*
X132510000Y-61394286D01*
X132462381Y-61299048D01*
X132462381Y-61060952D01*
X132510000Y-60965714D01*
X132557619Y-60918095D01*
X132652857Y-60870476D01*
X132748095Y-60870476D01*
X132890952Y-60918095D01*
X133462381Y-61489524D01*
X133462381Y-60870476D01*
X132557619Y-60489524D02*
X132510000Y-60441905D01*
X132462381Y-60346667D01*
X132462381Y-60108571D01*
X132510000Y-60013333D01*
X132557619Y-59965714D01*
X132652857Y-59918095D01*
X132748095Y-59918095D01*
X132890952Y-59965714D01*
X133462381Y-60537143D01*
X133462381Y-59918095D01*
X132462381Y-59299048D02*
X132462381Y-59203809D01*
X132510000Y-59108571D01*
X132557619Y-59060952D01*
X132652857Y-59013333D01*
X132843333Y-58965714D01*
X133081429Y-58965714D01*
X133271905Y-59013333D01*
X133367143Y-59060952D01*
X133414762Y-59108571D01*
X133462381Y-59203809D01*
X133462381Y-59299048D01*
X133414762Y-59394286D01*
X133367143Y-59441905D01*
X133271905Y-59489524D01*
X133081429Y-59537143D01*
X132843333Y-59537143D01*
X132652857Y-59489524D01*
X132557619Y-59441905D01*
X132510000Y-59394286D01*
X132462381Y-59299048D01*
X132795714Y-58537143D02*
X133795714Y-58537143D01*
X133319524Y-58060952D02*
X133414762Y-58013333D01*
X133462381Y-57918095D01*
X133319524Y-58537143D02*
X133414762Y-58489524D01*
X133462381Y-58394286D01*
X133462381Y-58203809D01*
X133414762Y-58108571D01*
X133319524Y-58060952D01*
X132795714Y-58060952D01*
X165695334Y-66905143D02*
X165647715Y-66952762D01*
X165504858Y-67000381D01*
X165409620Y-67000381D01*
X165266762Y-66952762D01*
X165171524Y-66857524D01*
X165123905Y-66762286D01*
X165076286Y-66571810D01*
X165076286Y-66428952D01*
X165123905Y-66238476D01*
X165171524Y-66143238D01*
X165266762Y-66048000D01*
X165409620Y-66000381D01*
X165504858Y-66000381D01*
X165647715Y-66048000D01*
X165695334Y-66095619D01*
X166600096Y-66000381D02*
X166123905Y-66000381D01*
X166076286Y-66476571D01*
X166123905Y-66428952D01*
X166219143Y-66381333D01*
X166457239Y-66381333D01*
X166552477Y-66428952D01*
X166600096Y-66476571D01*
X166647715Y-66571810D01*
X166647715Y-66809905D01*
X166600096Y-66905143D01*
X166552477Y-66952762D01*
X166457239Y-67000381D01*
X166219143Y-67000381D01*
X166123905Y-66952762D01*
X166076286Y-66905143D01*
X164862095Y-70159619D02*
X164909714Y-70112000D01*
X165004952Y-70064381D01*
X165243048Y-70064381D01*
X165338286Y-70112000D01*
X165385905Y-70159619D01*
X165433524Y-70254857D01*
X165433524Y-70350095D01*
X165385905Y-70492952D01*
X164814476Y-71064381D01*
X165433524Y-71064381D01*
X165814476Y-70159619D02*
X165862095Y-70112000D01*
X165957333Y-70064381D01*
X166195429Y-70064381D01*
X166290667Y-70112000D01*
X166338286Y-70159619D01*
X166385905Y-70254857D01*
X166385905Y-70350095D01*
X166338286Y-70492952D01*
X165766857Y-71064381D01*
X166385905Y-71064381D01*
X167004952Y-70064381D02*
X167100191Y-70064381D01*
X167195429Y-70112000D01*
X167243048Y-70159619D01*
X167290667Y-70254857D01*
X167338286Y-70445333D01*
X167338286Y-70683429D01*
X167290667Y-70873905D01*
X167243048Y-70969143D01*
X167195429Y-71016762D01*
X167100191Y-71064381D01*
X167004952Y-71064381D01*
X166909714Y-71016762D01*
X166862095Y-70969143D01*
X166814476Y-70873905D01*
X166766857Y-70683429D01*
X166766857Y-70445333D01*
X166814476Y-70254857D01*
X166862095Y-70159619D01*
X166909714Y-70112000D01*
X167004952Y-70064381D01*
X167766857Y-70397714D02*
X167766857Y-71397714D01*
X168243048Y-70921524D02*
X168290667Y-71016762D01*
X168385905Y-71064381D01*
X167766857Y-70921524D02*
X167814476Y-71016762D01*
X167909714Y-71064381D01*
X168100191Y-71064381D01*
X168195429Y-71016762D01*
X168243048Y-70921524D01*
X168243048Y-70397714D01*
X162647334Y-118467143D02*
X162599715Y-118514762D01*
X162456858Y-118562381D01*
X162361620Y-118562381D01*
X162218762Y-118514762D01*
X162123524Y-118419524D01*
X162075905Y-118324286D01*
X162028286Y-118133810D01*
X162028286Y-117990952D01*
X162075905Y-117800476D01*
X162123524Y-117705238D01*
X162218762Y-117610000D01*
X162361620Y-117562381D01*
X162456858Y-117562381D01*
X162599715Y-117610000D01*
X162647334Y-117657619D01*
X163504477Y-117562381D02*
X163314000Y-117562381D01*
X163218762Y-117610000D01*
X163171143Y-117657619D01*
X163075905Y-117800476D01*
X163028286Y-117990952D01*
X163028286Y-118371905D01*
X163075905Y-118467143D01*
X163123524Y-118514762D01*
X163218762Y-118562381D01*
X163409239Y-118562381D01*
X163504477Y-118514762D01*
X163552096Y-118467143D01*
X163599715Y-118371905D01*
X163599715Y-118133810D01*
X163552096Y-118038571D01*
X163504477Y-117990952D01*
X163409239Y-117943333D01*
X163218762Y-117943333D01*
X163123524Y-117990952D01*
X163075905Y-118038571D01*
X163028286Y-118133810D01*
X163592095Y-121975619D02*
X163639714Y-121928000D01*
X163734952Y-121880381D01*
X163973048Y-121880381D01*
X164068286Y-121928000D01*
X164115905Y-121975619D01*
X164163524Y-122070857D01*
X164163524Y-122166095D01*
X164115905Y-122308952D01*
X163544476Y-122880381D01*
X164163524Y-122880381D01*
X164544476Y-121975619D02*
X164592095Y-121928000D01*
X164687333Y-121880381D01*
X164925429Y-121880381D01*
X165020667Y-121928000D01*
X165068286Y-121975619D01*
X165115905Y-122070857D01*
X165115905Y-122166095D01*
X165068286Y-122308952D01*
X164496857Y-122880381D01*
X165115905Y-122880381D01*
X165734952Y-121880381D02*
X165830191Y-121880381D01*
X165925429Y-121928000D01*
X165973048Y-121975619D01*
X166020667Y-122070857D01*
X166068286Y-122261333D01*
X166068286Y-122499429D01*
X166020667Y-122689905D01*
X165973048Y-122785143D01*
X165925429Y-122832762D01*
X165830191Y-122880381D01*
X165734952Y-122880381D01*
X165639714Y-122832762D01*
X165592095Y-122785143D01*
X165544476Y-122689905D01*
X165496857Y-122499429D01*
X165496857Y-122261333D01*
X165544476Y-122070857D01*
X165592095Y-121975619D01*
X165639714Y-121928000D01*
X165734952Y-121880381D01*
X166496857Y-122213714D02*
X166496857Y-123213714D01*
X166973048Y-122737524D02*
X167020667Y-122832762D01*
X167115905Y-122880381D01*
X166496857Y-122737524D02*
X166544476Y-122832762D01*
X166639714Y-122880381D01*
X166830191Y-122880381D01*
X166925429Y-122832762D01*
X166973048Y-122737524D01*
X166973048Y-122213714D01*
X121753334Y-117959143D02*
X121705715Y-118006762D01*
X121562858Y-118054381D01*
X121467620Y-118054381D01*
X121324762Y-118006762D01*
X121229524Y-117911524D01*
X121181905Y-117816286D01*
X121134286Y-117625810D01*
X121134286Y-117482952D01*
X121181905Y-117292476D01*
X121229524Y-117197238D01*
X121324762Y-117102000D01*
X121467620Y-117054381D01*
X121562858Y-117054381D01*
X121705715Y-117102000D01*
X121753334Y-117149619D01*
X122086667Y-117054381D02*
X122753334Y-117054381D01*
X122324762Y-118054381D01*
X119324381Y-120753047D02*
X119324381Y-121324476D01*
X119324381Y-121038762D02*
X118324381Y-121038762D01*
X118467238Y-121134000D01*
X118562476Y-121229238D01*
X118610095Y-121324476D01*
X118324381Y-120134000D02*
X118324381Y-120038761D01*
X118372000Y-119943523D01*
X118419619Y-119895904D01*
X118514857Y-119848285D01*
X118705333Y-119800666D01*
X118943429Y-119800666D01*
X119133905Y-119848285D01*
X119229143Y-119895904D01*
X119276762Y-119943523D01*
X119324381Y-120038761D01*
X119324381Y-120134000D01*
X119276762Y-120229238D01*
X119229143Y-120276857D01*
X119133905Y-120324476D01*
X118943429Y-120372095D01*
X118705333Y-120372095D01*
X118514857Y-120324476D01*
X118419619Y-120276857D01*
X118372000Y-120229238D01*
X118324381Y-120134000D01*
X118324381Y-119181619D02*
X118324381Y-119086380D01*
X118372000Y-118991142D01*
X118419619Y-118943523D01*
X118514857Y-118895904D01*
X118705333Y-118848285D01*
X118943429Y-118848285D01*
X119133905Y-118895904D01*
X119229143Y-118943523D01*
X119276762Y-118991142D01*
X119324381Y-119086380D01*
X119324381Y-119181619D01*
X119276762Y-119276857D01*
X119229143Y-119324476D01*
X119133905Y-119372095D01*
X118943429Y-119419714D01*
X118705333Y-119419714D01*
X118514857Y-119372095D01*
X118419619Y-119324476D01*
X118372000Y-119276857D01*
X118324381Y-119181619D01*
X118657714Y-118419714D02*
X119324381Y-118419714D01*
X118752952Y-118419714D02*
X118705333Y-118372095D01*
X118657714Y-118276857D01*
X118657714Y-118133999D01*
X118705333Y-118038761D01*
X118800571Y-117991142D01*
X119324381Y-117991142D01*
X122531143Y-85510666D02*
X122578762Y-85558285D01*
X122626381Y-85701142D01*
X122626381Y-85796380D01*
X122578762Y-85939238D01*
X122483524Y-86034476D01*
X122388286Y-86082095D01*
X122197810Y-86129714D01*
X122054952Y-86129714D01*
X121864476Y-86082095D01*
X121769238Y-86034476D01*
X121674000Y-85939238D01*
X121626381Y-85796380D01*
X121626381Y-85701142D01*
X121674000Y-85558285D01*
X121721619Y-85510666D01*
X122054952Y-84939238D02*
X122007333Y-85034476D01*
X121959714Y-85082095D01*
X121864476Y-85129714D01*
X121816857Y-85129714D01*
X121721619Y-85082095D01*
X121674000Y-85034476D01*
X121626381Y-84939238D01*
X121626381Y-84748761D01*
X121674000Y-84653523D01*
X121721619Y-84605904D01*
X121816857Y-84558285D01*
X121864476Y-84558285D01*
X121959714Y-84605904D01*
X122007333Y-84653523D01*
X122054952Y-84748761D01*
X122054952Y-84939238D01*
X122102571Y-85034476D01*
X122150190Y-85082095D01*
X122245429Y-85129714D01*
X122435905Y-85129714D01*
X122531143Y-85082095D01*
X122578762Y-85034476D01*
X122626381Y-84939238D01*
X122626381Y-84748761D01*
X122578762Y-84653523D01*
X122531143Y-84605904D01*
X122435905Y-84558285D01*
X122245429Y-84558285D01*
X122150190Y-84605904D01*
X122102571Y-84653523D01*
X122054952Y-84748761D01*
X123340953Y-85034381D02*
X122769524Y-85034381D01*
X123055238Y-85034381D02*
X123055238Y-84034381D01*
X122960000Y-84177238D01*
X122864762Y-84272476D01*
X122769524Y-84320095D01*
X123960000Y-84034381D02*
X124055239Y-84034381D01*
X124150477Y-84082000D01*
X124198096Y-84129619D01*
X124245715Y-84224857D01*
X124293334Y-84415333D01*
X124293334Y-84653429D01*
X124245715Y-84843905D01*
X124198096Y-84939143D01*
X124150477Y-84986762D01*
X124055239Y-85034381D01*
X123960000Y-85034381D01*
X123864762Y-84986762D01*
X123817143Y-84939143D01*
X123769524Y-84843905D01*
X123721905Y-84653429D01*
X123721905Y-84415333D01*
X123769524Y-84224857D01*
X123817143Y-84129619D01*
X123864762Y-84082000D01*
X123960000Y-84034381D01*
X124912381Y-84034381D02*
X125007620Y-84034381D01*
X125102858Y-84082000D01*
X125150477Y-84129619D01*
X125198096Y-84224857D01*
X125245715Y-84415333D01*
X125245715Y-84653429D01*
X125198096Y-84843905D01*
X125150477Y-84939143D01*
X125102858Y-84986762D01*
X125007620Y-85034381D01*
X124912381Y-85034381D01*
X124817143Y-84986762D01*
X124769524Y-84939143D01*
X124721905Y-84843905D01*
X124674286Y-84653429D01*
X124674286Y-84415333D01*
X124721905Y-84224857D01*
X124769524Y-84129619D01*
X124817143Y-84082000D01*
X124912381Y-84034381D01*
X125674286Y-84367714D02*
X125674286Y-85034381D01*
X125674286Y-84462952D02*
X125721905Y-84415333D01*
X125817143Y-84367714D01*
X125960001Y-84367714D01*
X126055239Y-84415333D01*
X126102858Y-84510571D01*
X126102858Y-85034381D01*
X127627143Y-117959143D02*
X127579524Y-118006762D01*
X127436667Y-118054381D01*
X127341429Y-118054381D01*
X127198571Y-118006762D01*
X127103333Y-117911524D01*
X127055714Y-117816286D01*
X127008095Y-117625810D01*
X127008095Y-117482952D01*
X127055714Y-117292476D01*
X127103333Y-117197238D01*
X127198571Y-117102000D01*
X127341429Y-117054381D01*
X127436667Y-117054381D01*
X127579524Y-117102000D01*
X127627143Y-117149619D01*
X128579524Y-118054381D02*
X128008095Y-118054381D01*
X128293809Y-118054381D02*
X128293809Y-117054381D01*
X128198571Y-117197238D01*
X128103333Y-117292476D01*
X128008095Y-117340095D01*
X129198571Y-117054381D02*
X129293810Y-117054381D01*
X129389048Y-117102000D01*
X129436667Y-117149619D01*
X129484286Y-117244857D01*
X129531905Y-117435333D01*
X129531905Y-117673429D01*
X129484286Y-117863905D01*
X129436667Y-117959143D01*
X129389048Y-118006762D01*
X129293810Y-118054381D01*
X129198571Y-118054381D01*
X129103333Y-118006762D01*
X129055714Y-117959143D01*
X129008095Y-117863905D01*
X128960476Y-117673429D01*
X128960476Y-117435333D01*
X129008095Y-117244857D01*
X129055714Y-117149619D01*
X129103333Y-117102000D01*
X129198571Y-117054381D01*
X131770381Y-120499047D02*
X131770381Y-121070476D01*
X131770381Y-120784762D02*
X130770381Y-120784762D01*
X130913238Y-120880000D01*
X131008476Y-120975238D01*
X131056095Y-121070476D01*
X130770381Y-119880000D02*
X130770381Y-119784761D01*
X130818000Y-119689523D01*
X130865619Y-119641904D01*
X130960857Y-119594285D01*
X131151333Y-119546666D01*
X131389429Y-119546666D01*
X131579905Y-119594285D01*
X131675143Y-119641904D01*
X131722762Y-119689523D01*
X131770381Y-119784761D01*
X131770381Y-119880000D01*
X131722762Y-119975238D01*
X131675143Y-120022857D01*
X131579905Y-120070476D01*
X131389429Y-120118095D01*
X131151333Y-120118095D01*
X130960857Y-120070476D01*
X130865619Y-120022857D01*
X130818000Y-119975238D01*
X130770381Y-119880000D01*
X130770381Y-118927619D02*
X130770381Y-118832380D01*
X130818000Y-118737142D01*
X130865619Y-118689523D01*
X130960857Y-118641904D01*
X131151333Y-118594285D01*
X131389429Y-118594285D01*
X131579905Y-118641904D01*
X131675143Y-118689523D01*
X131722762Y-118737142D01*
X131770381Y-118832380D01*
X131770381Y-118927619D01*
X131722762Y-119022857D01*
X131675143Y-119070476D01*
X131579905Y-119118095D01*
X131389429Y-119165714D01*
X131151333Y-119165714D01*
X130960857Y-119118095D01*
X130865619Y-119070476D01*
X130818000Y-119022857D01*
X130770381Y-118927619D01*
X131103714Y-118165714D02*
X131770381Y-118165714D01*
X131198952Y-118165714D02*
X131151333Y-118118095D01*
X131103714Y-118022857D01*
X131103714Y-117879999D01*
X131151333Y-117784761D01*
X131246571Y-117737142D01*
X131770381Y-117737142D01*
X179427143Y-105862285D02*
X179474762Y-105909904D01*
X179522381Y-106052761D01*
X179522381Y-106147999D01*
X179474762Y-106290857D01*
X179379524Y-106386095D01*
X179284286Y-106433714D01*
X179093810Y-106481333D01*
X178950952Y-106481333D01*
X178760476Y-106433714D01*
X178665238Y-106386095D01*
X178570000Y-106290857D01*
X178522381Y-106147999D01*
X178522381Y-106052761D01*
X178570000Y-105909904D01*
X178617619Y-105862285D01*
X178522381Y-105243238D02*
X178522381Y-105052761D01*
X178570000Y-104957523D01*
X178665238Y-104862285D01*
X178855714Y-104814666D01*
X179189048Y-104814666D01*
X179379524Y-104862285D01*
X179474762Y-104957523D01*
X179522381Y-105052761D01*
X179522381Y-105243238D01*
X179474762Y-105338476D01*
X179379524Y-105433714D01*
X179189048Y-105481333D01*
X178855714Y-105481333D01*
X178665238Y-105433714D01*
X178570000Y-105338476D01*
X178522381Y-105243238D01*
X179522381Y-104386095D02*
X178522381Y-104386095D01*
X179522381Y-103814666D01*
X178522381Y-103814666D01*
X179522381Y-102814666D02*
X179522381Y-103386095D01*
X179522381Y-103100381D02*
X178522381Y-103100381D01*
X178665238Y-103195619D01*
X178760476Y-103290857D01*
X178808095Y-103386095D01*
X166537238Y-110164571D02*
X166680095Y-110212190D01*
X166727714Y-110259810D01*
X166775333Y-110355048D01*
X166775333Y-110497905D01*
X166727714Y-110593143D01*
X166680095Y-110640762D01*
X166584857Y-110688381D01*
X166203904Y-110688381D01*
X166203904Y-109688381D01*
X166537238Y-109688381D01*
X166632476Y-109736000D01*
X166680095Y-109783619D01*
X166727714Y-109878857D01*
X166727714Y-109974095D01*
X166680095Y-110069333D01*
X166632476Y-110116952D01*
X166537238Y-110164571D01*
X166203904Y-110164571D01*
X167156285Y-110402667D02*
X167632476Y-110402667D01*
X167061047Y-110688381D02*
X167394380Y-109688381D01*
X167727714Y-110688381D01*
X168632476Y-110688381D02*
X168299142Y-110212190D01*
X168061047Y-110688381D02*
X168061047Y-109688381D01*
X168442000Y-109688381D01*
X168537238Y-109736000D01*
X168584857Y-109783619D01*
X168632476Y-109878857D01*
X168632476Y-110021714D01*
X168584857Y-110116952D01*
X168537238Y-110164571D01*
X168442000Y-110212190D01*
X168061047Y-110212190D01*
X169632476Y-110688381D02*
X169299142Y-110212190D01*
X169061047Y-110688381D02*
X169061047Y-109688381D01*
X169442000Y-109688381D01*
X169537238Y-109736000D01*
X169584857Y-109783619D01*
X169632476Y-109878857D01*
X169632476Y-110021714D01*
X169584857Y-110116952D01*
X169537238Y-110164571D01*
X169442000Y-110212190D01*
X169061047Y-110212190D01*
X170061047Y-110164571D02*
X170394381Y-110164571D01*
X170537238Y-110688381D02*
X170061047Y-110688381D01*
X170061047Y-109688381D01*
X170537238Y-109688381D01*
X171442000Y-110688381D02*
X170965809Y-110688381D01*
X170965809Y-109688381D01*
X171537238Y-110783619D02*
X172299143Y-110783619D01*
X172822953Y-109688381D02*
X172822953Y-110402667D01*
X172775333Y-110545524D01*
X172680095Y-110640762D01*
X172537238Y-110688381D01*
X172442000Y-110688381D01*
X173251524Y-110402667D02*
X173727715Y-110402667D01*
X173156286Y-110688381D02*
X173489619Y-109688381D01*
X173822953Y-110688381D01*
X174727715Y-110593143D02*
X174680096Y-110640762D01*
X174537239Y-110688381D01*
X174442001Y-110688381D01*
X174299143Y-110640762D01*
X174203905Y-110545524D01*
X174156286Y-110450286D01*
X174108667Y-110259810D01*
X174108667Y-110116952D01*
X174156286Y-109926476D01*
X174203905Y-109831238D01*
X174299143Y-109736000D01*
X174442001Y-109688381D01*
X174537239Y-109688381D01*
X174680096Y-109736000D01*
X174727715Y-109783619D01*
X175156286Y-110688381D02*
X175156286Y-109688381D01*
X175727715Y-110688381D02*
X175299143Y-110116952D01*
X175727715Y-109688381D02*
X175156286Y-110259810D01*
X143852381Y-109998095D02*
X142852381Y-109998095D01*
X142852381Y-109760000D01*
X142900000Y-109617142D01*
X142995238Y-109521904D01*
X143090476Y-109474285D01*
X143280952Y-109426666D01*
X143423810Y-109426666D01*
X143614286Y-109474285D01*
X143709524Y-109521904D01*
X143804762Y-109617142D01*
X143852381Y-109760000D01*
X143852381Y-109998095D01*
X143852381Y-108474285D02*
X143852381Y-109045714D01*
X143852381Y-108760000D02*
X142852381Y-108760000D01*
X142995238Y-108855238D01*
X143090476Y-108950476D01*
X143138095Y-109045714D01*
X147874762Y-117031906D02*
X147922381Y-116889049D01*
X147922381Y-116650953D01*
X147874762Y-116555715D01*
X147827143Y-116508096D01*
X147731905Y-116460477D01*
X147636667Y-116460477D01*
X147541429Y-116508096D01*
X147493810Y-116555715D01*
X147446190Y-116650953D01*
X147398571Y-116841430D01*
X147350952Y-116936668D01*
X147303333Y-116984287D01*
X147208095Y-117031906D01*
X147112857Y-117031906D01*
X147017619Y-116984287D01*
X146970000Y-116936668D01*
X146922381Y-116841430D01*
X146922381Y-116603334D01*
X146970000Y-116460477D01*
X147874762Y-115603334D02*
X147922381Y-115698572D01*
X147922381Y-115889049D01*
X147874762Y-115984287D01*
X147827143Y-116031906D01*
X147731905Y-116079525D01*
X147446190Y-116079525D01*
X147350952Y-116031906D01*
X147303333Y-115984287D01*
X147255714Y-115889049D01*
X147255714Y-115698572D01*
X147303333Y-115603334D01*
X147922381Y-115174763D02*
X146922381Y-115174763D01*
X147922381Y-114746191D02*
X147398571Y-114746191D01*
X147303333Y-114793810D01*
X147255714Y-114889048D01*
X147255714Y-115031906D01*
X147303333Y-115127144D01*
X147350952Y-115174763D01*
X147922381Y-114127144D02*
X147874762Y-114222382D01*
X147827143Y-114270001D01*
X147731905Y-114317620D01*
X147446190Y-114317620D01*
X147350952Y-114270001D01*
X147303333Y-114222382D01*
X147255714Y-114127144D01*
X147255714Y-113984286D01*
X147303333Y-113889048D01*
X147350952Y-113841429D01*
X147446190Y-113793810D01*
X147731905Y-113793810D01*
X147827143Y-113841429D01*
X147874762Y-113889048D01*
X147922381Y-113984286D01*
X147922381Y-114127144D01*
X147255714Y-113508096D02*
X147255714Y-113127144D01*
X146922381Y-113365239D02*
X147779524Y-113365239D01*
X147874762Y-113317620D01*
X147922381Y-113222382D01*
X147922381Y-113127144D01*
X147255714Y-112936667D02*
X147255714Y-112555715D01*
X146922381Y-112793810D02*
X147779524Y-112793810D01*
X147874762Y-112746191D01*
X147922381Y-112650953D01*
X147922381Y-112555715D01*
X147922381Y-112222381D02*
X146922381Y-112222381D01*
X147541429Y-112127143D02*
X147922381Y-111841428D01*
X147255714Y-111841428D02*
X147636667Y-112222381D01*
X147255714Y-111508095D02*
X147922381Y-111270000D01*
X147255714Y-111031904D02*
X147922381Y-111270000D01*
X148160476Y-111365238D01*
X148208095Y-111412857D01*
X148255714Y-111508095D01*
X146922381Y-109412856D02*
X146922381Y-109889047D01*
X147398571Y-109936666D01*
X147350952Y-109889047D01*
X147303333Y-109793809D01*
X147303333Y-109555713D01*
X147350952Y-109460475D01*
X147398571Y-109412856D01*
X147493810Y-109365237D01*
X147731905Y-109365237D01*
X147827143Y-109412856D01*
X147874762Y-109460475D01*
X147922381Y-109555713D01*
X147922381Y-109793809D01*
X147874762Y-109889047D01*
X147827143Y-109936666D01*
X147636667Y-108984285D02*
X147636667Y-108508094D01*
X147922381Y-109079523D02*
X146922381Y-108746190D01*
X147922381Y-108412856D01*
X118308381Y-57380095D02*
X117308381Y-57380095D01*
X117308381Y-57142000D01*
X117356000Y-56999142D01*
X117451238Y-56903904D01*
X117546476Y-56856285D01*
X117736952Y-56808666D01*
X117879810Y-56808666D01*
X118070286Y-56856285D01*
X118165524Y-56903904D01*
X118260762Y-56999142D01*
X118308381Y-57142000D01*
X118308381Y-57380095D01*
X117403619Y-56427714D02*
X117356000Y-56380095D01*
X117308381Y-56284857D01*
X117308381Y-56046761D01*
X117356000Y-55951523D01*
X117403619Y-55903904D01*
X117498857Y-55856285D01*
X117594095Y-55856285D01*
X117736952Y-55903904D01*
X118308381Y-56475333D01*
X118308381Y-55856285D01*
X120794762Y-66361906D02*
X120842381Y-66219049D01*
X120842381Y-65980953D01*
X120794762Y-65885715D01*
X120747143Y-65838096D01*
X120651905Y-65790477D01*
X120556667Y-65790477D01*
X120461429Y-65838096D01*
X120413810Y-65885715D01*
X120366190Y-65980953D01*
X120318571Y-66171430D01*
X120270952Y-66266668D01*
X120223333Y-66314287D01*
X120128095Y-66361906D01*
X120032857Y-66361906D01*
X119937619Y-66314287D01*
X119890000Y-66266668D01*
X119842381Y-66171430D01*
X119842381Y-65933334D01*
X119890000Y-65790477D01*
X120794762Y-64933334D02*
X120842381Y-65028572D01*
X120842381Y-65219049D01*
X120794762Y-65314287D01*
X120747143Y-65361906D01*
X120651905Y-65409525D01*
X120366190Y-65409525D01*
X120270952Y-65361906D01*
X120223333Y-65314287D01*
X120175714Y-65219049D01*
X120175714Y-65028572D01*
X120223333Y-64933334D01*
X120842381Y-64504763D02*
X119842381Y-64504763D01*
X120842381Y-64076191D02*
X120318571Y-64076191D01*
X120223333Y-64123810D01*
X120175714Y-64219048D01*
X120175714Y-64361906D01*
X120223333Y-64457144D01*
X120270952Y-64504763D01*
X120842381Y-63457144D02*
X120794762Y-63552382D01*
X120747143Y-63600001D01*
X120651905Y-63647620D01*
X120366190Y-63647620D01*
X120270952Y-63600001D01*
X120223333Y-63552382D01*
X120175714Y-63457144D01*
X120175714Y-63314286D01*
X120223333Y-63219048D01*
X120270952Y-63171429D01*
X120366190Y-63123810D01*
X120651905Y-63123810D01*
X120747143Y-63171429D01*
X120794762Y-63219048D01*
X120842381Y-63314286D01*
X120842381Y-63457144D01*
X120175714Y-62838096D02*
X120175714Y-62457144D01*
X119842381Y-62695239D02*
X120699524Y-62695239D01*
X120794762Y-62647620D01*
X120842381Y-62552382D01*
X120842381Y-62457144D01*
X120175714Y-62266667D02*
X120175714Y-61885715D01*
X119842381Y-62123810D02*
X120699524Y-62123810D01*
X120794762Y-62076191D01*
X120842381Y-61980953D01*
X120842381Y-61885715D01*
X120842381Y-61552381D02*
X119842381Y-61552381D01*
X120461429Y-61457143D02*
X120842381Y-61171428D01*
X120175714Y-61171428D02*
X120556667Y-61552381D01*
X120175714Y-60838095D02*
X120842381Y-60600000D01*
X120175714Y-60361904D02*
X120842381Y-60600000D01*
X121080476Y-60695238D01*
X121128095Y-60742857D01*
X121175714Y-60838095D01*
X119842381Y-58742856D02*
X119842381Y-59219047D01*
X120318571Y-59266666D01*
X120270952Y-59219047D01*
X120223333Y-59123809D01*
X120223333Y-58885713D01*
X120270952Y-58790475D01*
X120318571Y-58742856D01*
X120413810Y-58695237D01*
X120651905Y-58695237D01*
X120747143Y-58742856D01*
X120794762Y-58790475D01*
X120842381Y-58885713D01*
X120842381Y-59123809D01*
X120794762Y-59219047D01*
X120747143Y-59266666D01*
X120556667Y-58314285D02*
X120556667Y-57838094D01*
X120842381Y-58409523D02*
X119842381Y-58076190D01*
X120842381Y-57742856D01*
X157551905Y-63652381D02*
X157551905Y-62652381D01*
X157790000Y-62652381D01*
X157932858Y-62700000D01*
X158028096Y-62795238D01*
X158075715Y-62890476D01*
X158123334Y-63080952D01*
X158123334Y-63223810D01*
X158075715Y-63414286D01*
X158028096Y-63509524D01*
X157932858Y-63604762D01*
X157790000Y-63652381D01*
X157551905Y-63652381D01*
X158456667Y-62652381D02*
X159075715Y-62652381D01*
X158742381Y-63033333D01*
X158885239Y-63033333D01*
X158980477Y-63080952D01*
X159028096Y-63128571D01*
X159075715Y-63223810D01*
X159075715Y-63461905D01*
X159028096Y-63557143D01*
X158980477Y-63604762D01*
X158885239Y-63652381D01*
X158599524Y-63652381D01*
X158504286Y-63604762D01*
X158456667Y-63557143D01*
X156772381Y-71419525D02*
X155772381Y-71419525D01*
X155772381Y-71181430D01*
X155820000Y-71038572D01*
X155915238Y-70943334D01*
X156010476Y-70895715D01*
X156200952Y-70848096D01*
X156343810Y-70848096D01*
X156534286Y-70895715D01*
X156629524Y-70943334D01*
X156724762Y-71038572D01*
X156772381Y-71181430D01*
X156772381Y-71419525D01*
X156867619Y-70657620D02*
X156867619Y-69895715D01*
X156724762Y-69705239D02*
X156772381Y-69562382D01*
X156772381Y-69324286D01*
X156724762Y-69229048D01*
X156677143Y-69181429D01*
X156581905Y-69133810D01*
X156486667Y-69133810D01*
X156391429Y-69181429D01*
X156343810Y-69229048D01*
X156296190Y-69324286D01*
X156248571Y-69514763D01*
X156200952Y-69610001D01*
X156153333Y-69657620D01*
X156058095Y-69705239D01*
X155962857Y-69705239D01*
X155867619Y-69657620D01*
X155820000Y-69610001D01*
X155772381Y-69514763D01*
X155772381Y-69276667D01*
X155820000Y-69133810D01*
X156724762Y-68276667D02*
X156772381Y-68371905D01*
X156772381Y-68562382D01*
X156724762Y-68657620D01*
X156677143Y-68705239D01*
X156581905Y-68752858D01*
X156296190Y-68752858D01*
X156200952Y-68705239D01*
X156153333Y-68657620D01*
X156105714Y-68562382D01*
X156105714Y-68371905D01*
X156153333Y-68276667D01*
X156772381Y-67848096D02*
X155772381Y-67848096D01*
X156772381Y-67419524D02*
X156248571Y-67419524D01*
X156153333Y-67467143D01*
X156105714Y-67562381D01*
X156105714Y-67705239D01*
X156153333Y-67800477D01*
X156200952Y-67848096D01*
X156772381Y-66800477D02*
X156724762Y-66895715D01*
X156677143Y-66943334D01*
X156581905Y-66990953D01*
X156296190Y-66990953D01*
X156200952Y-66943334D01*
X156153333Y-66895715D01*
X156105714Y-66800477D01*
X156105714Y-66657619D01*
X156153333Y-66562381D01*
X156200952Y-66514762D01*
X156296190Y-66467143D01*
X156581905Y-66467143D01*
X156677143Y-66514762D01*
X156724762Y-66562381D01*
X156772381Y-66657619D01*
X156772381Y-66800477D01*
X156105714Y-66181429D02*
X156105714Y-65800477D01*
X155772381Y-66038572D02*
X156629524Y-66038572D01*
X156724762Y-65990953D01*
X156772381Y-65895715D01*
X156772381Y-65800477D01*
X156105714Y-65610000D02*
X156105714Y-65229048D01*
X155772381Y-65467143D02*
X156629524Y-65467143D01*
X156724762Y-65419524D01*
X156772381Y-65324286D01*
X156772381Y-65229048D01*
X156772381Y-64895714D02*
X155772381Y-64895714D01*
X156391429Y-64800476D02*
X156772381Y-64514761D01*
X156105714Y-64514761D02*
X156486667Y-64895714D01*
X156105714Y-64181428D02*
X156772381Y-63943333D01*
X156105714Y-63705237D02*
X156772381Y-63943333D01*
X157010476Y-64038571D01*
X157058095Y-64086190D01*
X157105714Y-64181428D01*
X178903334Y-73350381D02*
X178427143Y-73350381D01*
X178427143Y-72350381D01*
X179760477Y-73350381D02*
X179189048Y-73350381D01*
X179474762Y-73350381D02*
X179474762Y-72350381D01*
X179379524Y-72493238D01*
X179284286Y-72588476D01*
X179189048Y-72636095D01*
X171116857Y-64730381D02*
X171735905Y-64730381D01*
X171402571Y-65111333D01*
X171545429Y-65111333D01*
X171640667Y-65158952D01*
X171688286Y-65206571D01*
X171735905Y-65301810D01*
X171735905Y-65539905D01*
X171688286Y-65635143D01*
X171640667Y-65682762D01*
X171545429Y-65730381D01*
X171259714Y-65730381D01*
X171164476Y-65682762D01*
X171116857Y-65635143D01*
X172069238Y-64730381D02*
X172688286Y-64730381D01*
X172354952Y-65111333D01*
X172497810Y-65111333D01*
X172593048Y-65158952D01*
X172640667Y-65206571D01*
X172688286Y-65301810D01*
X172688286Y-65539905D01*
X172640667Y-65635143D01*
X172593048Y-65682762D01*
X172497810Y-65730381D01*
X172212095Y-65730381D01*
X172116857Y-65682762D01*
X172069238Y-65635143D01*
X173116857Y-65063714D02*
X173116857Y-66063714D01*
X173593048Y-65587524D02*
X173640667Y-65682762D01*
X173735905Y-65730381D01*
X173116857Y-65587524D02*
X173164476Y-65682762D01*
X173259714Y-65730381D01*
X173450191Y-65730381D01*
X173545429Y-65682762D01*
X173593048Y-65587524D01*
X173593048Y-65063714D01*
X174164476Y-65730381D02*
X174164476Y-64730381D01*
X174164476Y-65206571D02*
X174735905Y-65206571D01*
X174735905Y-65730381D02*
X174735905Y-64730381D01*
X160472381Y-123116666D02*
X160472381Y-123592857D01*
X159472381Y-123592857D01*
X159567619Y-122830952D02*
X159520000Y-122783333D01*
X159472381Y-122688095D01*
X159472381Y-122449999D01*
X159520000Y-122354761D01*
X159567619Y-122307142D01*
X159662857Y-122259523D01*
X159758095Y-122259523D01*
X159900952Y-122307142D01*
X160472381Y-122878571D01*
X160472381Y-122259523D01*
X154098857Y-118324381D02*
X154717905Y-118324381D01*
X154384571Y-118705333D01*
X154527429Y-118705333D01*
X154622667Y-118752952D01*
X154670286Y-118800571D01*
X154717905Y-118895810D01*
X154717905Y-119133905D01*
X154670286Y-119229143D01*
X154622667Y-119276762D01*
X154527429Y-119324381D01*
X154241714Y-119324381D01*
X154146476Y-119276762D01*
X154098857Y-119229143D01*
X155051238Y-118324381D02*
X155670286Y-118324381D01*
X155336952Y-118705333D01*
X155479810Y-118705333D01*
X155575048Y-118752952D01*
X155622667Y-118800571D01*
X155670286Y-118895810D01*
X155670286Y-119133905D01*
X155622667Y-119229143D01*
X155575048Y-119276762D01*
X155479810Y-119324381D01*
X155194095Y-119324381D01*
X155098857Y-119276762D01*
X155051238Y-119229143D01*
X156098857Y-118657714D02*
X156098857Y-119657714D01*
X156575048Y-119181524D02*
X156622667Y-119276762D01*
X156717905Y-119324381D01*
X156098857Y-119181524D02*
X156146476Y-119276762D01*
X156241714Y-119324381D01*
X156432191Y-119324381D01*
X156527429Y-119276762D01*
X156575048Y-119181524D01*
X156575048Y-118657714D01*
X157146476Y-119324381D02*
X157146476Y-118324381D01*
X157146476Y-118800571D02*
X157717905Y-118800571D01*
X157717905Y-119324381D02*
X157717905Y-118324381D01*
X125102381Y-63206666D02*
X125102381Y-63682857D01*
X124102381Y-63682857D01*
X124102381Y-62968571D02*
X124102381Y-62349523D01*
X124483333Y-62682857D01*
X124483333Y-62539999D01*
X124530952Y-62444761D01*
X124578571Y-62397142D01*
X124673810Y-62349523D01*
X124911905Y-62349523D01*
X125007143Y-62397142D01*
X125054762Y-62444761D01*
X125102381Y-62539999D01*
X125102381Y-62825714D01*
X125054762Y-62920952D01*
X125007143Y-62968571D01*
X126162381Y-67537143D02*
X126162381Y-66918095D01*
X126543333Y-67251429D01*
X126543333Y-67108571D01*
X126590952Y-67013333D01*
X126638571Y-66965714D01*
X126733810Y-66918095D01*
X126971905Y-66918095D01*
X127067143Y-66965714D01*
X127114762Y-67013333D01*
X127162381Y-67108571D01*
X127162381Y-67394286D01*
X127114762Y-67489524D01*
X127067143Y-67537143D01*
X126162381Y-66584762D02*
X126162381Y-65965714D01*
X126543333Y-66299048D01*
X126543333Y-66156190D01*
X126590952Y-66060952D01*
X126638571Y-66013333D01*
X126733810Y-65965714D01*
X126971905Y-65965714D01*
X127067143Y-66013333D01*
X127114762Y-66060952D01*
X127162381Y-66156190D01*
X127162381Y-66441905D01*
X127114762Y-66537143D01*
X127067143Y-66584762D01*
X126495714Y-65537143D02*
X127495714Y-65537143D01*
X127019524Y-65060952D02*
X127114762Y-65013333D01*
X127162381Y-64918095D01*
X127019524Y-65537143D02*
X127114762Y-65489524D01*
X127162381Y-65394286D01*
X127162381Y-65203809D01*
X127114762Y-65108571D01*
X127019524Y-65060952D01*
X126495714Y-65060952D01*
X127162381Y-64489524D02*
X126162381Y-64489524D01*
X126638571Y-64489524D02*
X126638571Y-63918095D01*
X127162381Y-63918095D02*
X126162381Y-63918095D01*
X176530095Y-123658381D02*
X176530095Y-124467905D01*
X176577714Y-124563143D01*
X176625333Y-124610762D01*
X176720571Y-124658381D01*
X176911048Y-124658381D01*
X177006286Y-124610762D01*
X177053905Y-124563143D01*
X177101524Y-124467905D01*
X177101524Y-123658381D01*
X178101524Y-124658381D02*
X177530095Y-124658381D01*
X177815809Y-124658381D02*
X177815809Y-123658381D01*
X177720571Y-123801238D01*
X177625333Y-123896476D01*
X177530095Y-123944095D01*
X179522381Y-119514666D02*
X179522381Y-119990857D01*
X178522381Y-119990857D01*
X179522381Y-119181333D02*
X178522381Y-119181333D01*
X179236667Y-118847999D01*
X178522381Y-118514666D01*
X179522381Y-118514666D01*
X178617619Y-118086095D02*
X178570000Y-118038476D01*
X178522381Y-117943238D01*
X178522381Y-117705142D01*
X178570000Y-117609904D01*
X178617619Y-117562285D01*
X178712857Y-117514666D01*
X178808095Y-117514666D01*
X178950952Y-117562285D01*
X179522381Y-118133714D01*
X179522381Y-117514666D01*
X178522381Y-116609904D02*
X178522381Y-117086095D01*
X178998571Y-117133714D01*
X178950952Y-117086095D01*
X178903333Y-116990857D01*
X178903333Y-116752761D01*
X178950952Y-116657523D01*
X178998571Y-116609904D01*
X179093810Y-116562285D01*
X179331905Y-116562285D01*
X179427143Y-116609904D01*
X179474762Y-116657523D01*
X179522381Y-116752761D01*
X179522381Y-116990857D01*
X179474762Y-117086095D01*
X179427143Y-117133714D01*
X179522381Y-116086095D02*
X179522381Y-115895619D01*
X179474762Y-115800380D01*
X179427143Y-115752761D01*
X179284286Y-115657523D01*
X179093810Y-115609904D01*
X178712857Y-115609904D01*
X178617619Y-115657523D01*
X178570000Y-115705142D01*
X178522381Y-115800380D01*
X178522381Y-115990857D01*
X178570000Y-116086095D01*
X178617619Y-116133714D01*
X178712857Y-116181333D01*
X178950952Y-116181333D01*
X179046190Y-116133714D01*
X179093810Y-116086095D01*
X179141429Y-115990857D01*
X179141429Y-115800380D01*
X179093810Y-115705142D01*
X179046190Y-115657523D01*
X178950952Y-115609904D01*
X178522381Y-114752761D02*
X178522381Y-114943238D01*
X178570000Y-115038476D01*
X178617619Y-115086095D01*
X178760476Y-115181333D01*
X178950952Y-115228952D01*
X179331905Y-115228952D01*
X179427143Y-115181333D01*
X179474762Y-115133714D01*
X179522381Y-115038476D01*
X179522381Y-114847999D01*
X179474762Y-114752761D01*
X179427143Y-114705142D01*
X179331905Y-114657523D01*
X179093810Y-114657523D01*
X178998571Y-114705142D01*
X178950952Y-114752761D01*
X178903333Y-114847999D01*
X178903333Y-115038476D01*
X178950952Y-115133714D01*
X178998571Y-115181333D01*
X179093810Y-115228952D01*
X175474381Y-64769905D02*
X176283905Y-64769905D01*
X176379143Y-64722286D01*
X176426762Y-64674667D01*
X176474381Y-64579429D01*
X176474381Y-64388952D01*
X176426762Y-64293714D01*
X176379143Y-64246095D01*
X176283905Y-64198476D01*
X175474381Y-64198476D01*
X175569619Y-63769905D02*
X175522000Y-63722286D01*
X175474381Y-63627048D01*
X175474381Y-63388952D01*
X175522000Y-63293714D01*
X175569619Y-63246095D01*
X175664857Y-63198476D01*
X175760095Y-63198476D01*
X175902952Y-63246095D01*
X176474381Y-63817524D01*
X176474381Y-63198476D01*
X179522381Y-61602666D02*
X179522381Y-62078857D01*
X178522381Y-62078857D01*
X179522381Y-61269333D02*
X178522381Y-61269333D01*
X179236667Y-60935999D01*
X178522381Y-60602666D01*
X179522381Y-60602666D01*
X178617619Y-60174095D02*
X178570000Y-60126476D01*
X178522381Y-60031238D01*
X178522381Y-59793142D01*
X178570000Y-59697904D01*
X178617619Y-59650285D01*
X178712857Y-59602666D01*
X178808095Y-59602666D01*
X178950952Y-59650285D01*
X179522381Y-60221714D01*
X179522381Y-59602666D01*
X178522381Y-58697904D02*
X178522381Y-59174095D01*
X178998571Y-59221714D01*
X178950952Y-59174095D01*
X178903333Y-59078857D01*
X178903333Y-58840761D01*
X178950952Y-58745523D01*
X178998571Y-58697904D01*
X179093810Y-58650285D01*
X179331905Y-58650285D01*
X179427143Y-58697904D01*
X179474762Y-58745523D01*
X179522381Y-58840761D01*
X179522381Y-59078857D01*
X179474762Y-59174095D01*
X179427143Y-59221714D01*
X179522381Y-58174095D02*
X179522381Y-57983619D01*
X179474762Y-57888380D01*
X179427143Y-57840761D01*
X179284286Y-57745523D01*
X179093810Y-57697904D01*
X178712857Y-57697904D01*
X178617619Y-57745523D01*
X178570000Y-57793142D01*
X178522381Y-57888380D01*
X178522381Y-58078857D01*
X178570000Y-58174095D01*
X178617619Y-58221714D01*
X178712857Y-58269333D01*
X178950952Y-58269333D01*
X179046190Y-58221714D01*
X179093810Y-58174095D01*
X179141429Y-58078857D01*
X179141429Y-57888380D01*
X179093810Y-57793142D01*
X179046190Y-57745523D01*
X178950952Y-57697904D01*
X178522381Y-56840761D02*
X178522381Y-57031238D01*
X178570000Y-57126476D01*
X178617619Y-57174095D01*
X178760476Y-57269333D01*
X178950952Y-57316952D01*
X179331905Y-57316952D01*
X179427143Y-57269333D01*
X179474762Y-57221714D01*
X179522381Y-57126476D01*
X179522381Y-56935999D01*
X179474762Y-56840761D01*
X179427143Y-56793142D01*
X179331905Y-56745523D01*
X179093810Y-56745523D01*
X178998571Y-56793142D01*
X178950952Y-56840761D01*
X178903333Y-56935999D01*
X178903333Y-57126476D01*
X178950952Y-57221714D01*
X178998571Y-57269333D01*
X179093810Y-57316952D01*
X126238095Y-42378381D02*
X126238095Y-43187905D01*
X126285714Y-43283143D01*
X126333333Y-43330762D01*
X126428571Y-43378381D01*
X126619048Y-43378381D01*
X126714286Y-43330762D01*
X126761905Y-43283143D01*
X126809524Y-43187905D01*
X126809524Y-42378381D01*
X127190476Y-42378381D02*
X127809524Y-42378381D01*
X127476190Y-42759333D01*
X127619048Y-42759333D01*
X127714286Y-42806952D01*
X127761905Y-42854571D01*
X127809524Y-42949810D01*
X127809524Y-43187905D01*
X127761905Y-43283143D01*
X127714286Y-43330762D01*
X127619048Y-43378381D01*
X127333333Y-43378381D01*
X127238095Y-43330762D01*
X127190476Y-43283143D01*
X120261334Y-43378381D02*
X119785143Y-43378381D01*
X119785143Y-42378381D01*
X120594667Y-43378381D02*
X120594667Y-42378381D01*
X120928001Y-43092667D01*
X121261334Y-42378381D01*
X121261334Y-43378381D01*
X121689905Y-42473619D02*
X121737524Y-42426000D01*
X121832762Y-42378381D01*
X122070858Y-42378381D01*
X122166096Y-42426000D01*
X122213715Y-42473619D01*
X122261334Y-42568857D01*
X122261334Y-42664095D01*
X122213715Y-42806952D01*
X121642286Y-43378381D01*
X122261334Y-43378381D01*
X123166096Y-42378381D02*
X122689905Y-42378381D01*
X122642286Y-42854571D01*
X122689905Y-42806952D01*
X122785143Y-42759333D01*
X123023239Y-42759333D01*
X123118477Y-42806952D01*
X123166096Y-42854571D01*
X123213715Y-42949810D01*
X123213715Y-43187905D01*
X123166096Y-43283143D01*
X123118477Y-43330762D01*
X123023239Y-43378381D01*
X122785143Y-43378381D01*
X122689905Y-43330762D01*
X122642286Y-43283143D01*
X123689905Y-43378381D02*
X123880381Y-43378381D01*
X123975620Y-43330762D01*
X124023239Y-43283143D01*
X124118477Y-43140286D01*
X124166096Y-42949810D01*
X124166096Y-42568857D01*
X124118477Y-42473619D01*
X124070858Y-42426000D01*
X123975620Y-42378381D01*
X123785143Y-42378381D01*
X123689905Y-42426000D01*
X123642286Y-42473619D01*
X123594667Y-42568857D01*
X123594667Y-42806952D01*
X123642286Y-42902190D01*
X123689905Y-42949810D01*
X123785143Y-42997429D01*
X123975620Y-42997429D01*
X124070858Y-42949810D01*
X124118477Y-42902190D01*
X124166096Y-42806952D01*
X125023239Y-42378381D02*
X124832762Y-42378381D01*
X124737524Y-42426000D01*
X124689905Y-42473619D01*
X124594667Y-42616476D01*
X124547048Y-42806952D01*
X124547048Y-43187905D01*
X124594667Y-43283143D01*
X124642286Y-43330762D01*
X124737524Y-43378381D01*
X124928001Y-43378381D01*
X125023239Y-43330762D01*
X125070858Y-43283143D01*
X125118477Y-43187905D01*
X125118477Y-42949810D01*
X125070858Y-42854571D01*
X125023239Y-42806952D01*
X124928001Y-42759333D01*
X124737524Y-42759333D01*
X124642286Y-42806952D01*
X124594667Y-42854571D01*
X124547048Y-42949810D01*
X117602095Y-132040381D02*
X117602095Y-132849905D01*
X117649714Y-132945143D01*
X117697333Y-132992762D01*
X117792571Y-133040381D01*
X117983048Y-133040381D01*
X118078286Y-132992762D01*
X118125905Y-132945143D01*
X118173524Y-132849905D01*
X118173524Y-132040381D01*
X119078286Y-132373714D02*
X119078286Y-133040381D01*
X118840190Y-131992762D02*
X118602095Y-132707048D01*
X119221143Y-132707048D01*
X121039143Y-133040381D02*
X120562952Y-133040381D01*
X120562952Y-132040381D01*
X121324857Y-132135619D02*
X121372476Y-132088000D01*
X121467714Y-132040381D01*
X121705810Y-132040381D01*
X121801048Y-132088000D01*
X121848667Y-132135619D01*
X121896286Y-132230857D01*
X121896286Y-132326095D01*
X121848667Y-132468952D01*
X121277238Y-133040381D01*
X121896286Y-133040381D01*
X122372476Y-133040381D02*
X122562952Y-133040381D01*
X122658191Y-132992762D01*
X122705810Y-132945143D01*
X122801048Y-132802286D01*
X122848667Y-132611810D01*
X122848667Y-132230857D01*
X122801048Y-132135619D01*
X122753429Y-132088000D01*
X122658191Y-132040381D01*
X122467714Y-132040381D01*
X122372476Y-132088000D01*
X122324857Y-132135619D01*
X122277238Y-132230857D01*
X122277238Y-132468952D01*
X122324857Y-132564190D01*
X122372476Y-132611810D01*
X122467714Y-132659429D01*
X122658191Y-132659429D01*
X122753429Y-132611810D01*
X122801048Y-132564190D01*
X122848667Y-132468952D01*
X123420095Y-132468952D02*
X123324857Y-132421333D01*
X123277238Y-132373714D01*
X123229619Y-132278476D01*
X123229619Y-132230857D01*
X123277238Y-132135619D01*
X123324857Y-132088000D01*
X123420095Y-132040381D01*
X123610572Y-132040381D01*
X123705810Y-132088000D01*
X123753429Y-132135619D01*
X123801048Y-132230857D01*
X123801048Y-132278476D01*
X123753429Y-132373714D01*
X123705810Y-132421333D01*
X123610572Y-132468952D01*
X123420095Y-132468952D01*
X123324857Y-132516571D01*
X123277238Y-132564190D01*
X123229619Y-132659429D01*
X123229619Y-132849905D01*
X123277238Y-132945143D01*
X123324857Y-132992762D01*
X123420095Y-133040381D01*
X123610572Y-133040381D01*
X123705810Y-132992762D01*
X123753429Y-132945143D01*
X123801048Y-132849905D01*
X123801048Y-132659429D01*
X123753429Y-132564190D01*
X123705810Y-132516571D01*
X123610572Y-132468952D01*
X124229619Y-133040381D02*
X124229619Y-132040381D01*
X124801048Y-133040381D01*
X124801048Y-132040381D01*
X123402381Y-94375238D02*
X123402381Y-94946667D01*
X123402381Y-94660953D02*
X122402381Y-94660953D01*
X122545238Y-94756191D01*
X122640476Y-94851429D01*
X122688095Y-94946667D01*
X123402381Y-93946667D02*
X122402381Y-93946667D01*
X123021429Y-93851429D02*
X123402381Y-93565714D01*
X122735714Y-93565714D02*
X123116667Y-93946667D01*
X123402381Y-92613333D02*
X123402381Y-93184762D01*
X123402381Y-92899048D02*
X122402381Y-92899048D01*
X122545238Y-92994286D01*
X122640476Y-93089524D01*
X122688095Y-93184762D01*
X123388381Y-95702476D02*
X122912190Y-96035810D01*
X123388381Y-96273905D02*
X122388381Y-96273905D01*
X122388381Y-95892952D01*
X122436000Y-95797714D01*
X122483619Y-95750095D01*
X122578857Y-95702476D01*
X122721714Y-95702476D01*
X122816952Y-95750095D01*
X122864571Y-95797714D01*
X122912190Y-95892952D01*
X122912190Y-96273905D01*
X158777381Y-129714523D02*
X159491667Y-129714523D01*
X159634524Y-129762143D01*
X159729762Y-129857381D01*
X159777381Y-130000238D01*
X159777381Y-130095476D01*
X159777381Y-128714523D02*
X159777381Y-129285952D01*
X159777381Y-129000238D02*
X158777381Y-129000238D01*
X158920238Y-129095476D01*
X159015476Y-129190714D01*
X159063095Y-129285952D01*
X158872619Y-128333571D02*
X158825000Y-128285952D01*
X158777381Y-128190714D01*
X158777381Y-127952618D01*
X158825000Y-127857380D01*
X158872619Y-127809761D01*
X158967857Y-127762142D01*
X159063095Y-127762142D01*
X159205952Y-127809761D01*
X159777381Y-128381190D01*
X159777381Y-127762142D01*
X173527381Y-130926429D02*
X174336905Y-130926429D01*
X174432143Y-130878810D01*
X174479762Y-130831191D01*
X174527381Y-130735953D01*
X174527381Y-130545476D01*
X174479762Y-130450238D01*
X174432143Y-130402619D01*
X174336905Y-130355000D01*
X173527381Y-130355000D01*
X174479762Y-129926429D02*
X174527381Y-129783572D01*
X174527381Y-129545476D01*
X174479762Y-129450238D01*
X174432143Y-129402619D01*
X174336905Y-129355000D01*
X174241667Y-129355000D01*
X174146429Y-129402619D01*
X174098810Y-129450238D01*
X174051190Y-129545476D01*
X174003571Y-129735953D01*
X173955952Y-129831191D01*
X173908333Y-129878810D01*
X173813095Y-129926429D01*
X173717857Y-129926429D01*
X173622619Y-129878810D01*
X173575000Y-129831191D01*
X173527381Y-129735953D01*
X173527381Y-129497857D01*
X173575000Y-129355000D01*
X174003571Y-128593095D02*
X174051190Y-128450238D01*
X174098810Y-128402619D01*
X174194048Y-128355000D01*
X174336905Y-128355000D01*
X174432143Y-128402619D01*
X174479762Y-128450238D01*
X174527381Y-128545476D01*
X174527381Y-128926429D01*
X173527381Y-128926429D01*
X173527381Y-128593095D01*
X173575000Y-128497857D01*
X173622619Y-128450238D01*
X173717857Y-128402619D01*
X173813095Y-128402619D01*
X173908333Y-128450238D01*
X173955952Y-128497857D01*
X174003571Y-128593095D01*
X174003571Y-128926429D01*
X174622619Y-128164524D02*
X174622619Y-127402619D01*
X174241667Y-127212143D02*
X174241667Y-126735952D01*
X174527381Y-127307381D02*
X173527381Y-126974048D01*
X174527381Y-126640714D01*
X116276381Y-121642095D02*
X115276381Y-121642095D01*
X115276381Y-121261142D01*
X115324000Y-121165904D01*
X115371619Y-121118285D01*
X115466857Y-121070666D01*
X115609714Y-121070666D01*
X115704952Y-121118285D01*
X115752571Y-121165904D01*
X115800190Y-121261142D01*
X115800190Y-121642095D01*
X116276381Y-120118285D02*
X116276381Y-120689714D01*
X116276381Y-120404000D02*
X115276381Y-120404000D01*
X115419238Y-120499238D01*
X115514476Y-120594476D01*
X115562095Y-120689714D01*
X116276381Y-119728858D02*
X115276381Y-119728858D01*
X115276381Y-119347905D01*
X115324000Y-119252667D01*
X115371619Y-119205048D01*
X115466857Y-119157429D01*
X115609714Y-119157429D01*
X115704952Y-119205048D01*
X115752571Y-119252667D01*
X115800190Y-119347905D01*
X115800190Y-119728858D01*
X116228762Y-118347905D02*
X116276381Y-118443143D01*
X116276381Y-118633620D01*
X116228762Y-118728858D01*
X116133524Y-118776477D01*
X115752571Y-118776477D01*
X115657333Y-118728858D01*
X115609714Y-118633620D01*
X115609714Y-118443143D01*
X115657333Y-118347905D01*
X115752571Y-118300286D01*
X115847810Y-118300286D01*
X115943048Y-118776477D01*
X116276381Y-117728858D02*
X116228762Y-117824096D01*
X116133524Y-117871715D01*
X115276381Y-117871715D01*
X115609714Y-117490762D02*
X115609714Y-117109810D01*
X115276381Y-117347905D02*
X116133524Y-117347905D01*
X116228762Y-117300286D01*
X116276381Y-117205048D01*
X116276381Y-117109810D01*
X116228762Y-116824095D02*
X116276381Y-116681238D01*
X116276381Y-116443142D01*
X116228762Y-116347904D01*
X116181143Y-116300285D01*
X116085905Y-116252666D01*
X115990667Y-116252666D01*
X115895429Y-116300285D01*
X115847810Y-116347904D01*
X115800190Y-116443142D01*
X115752571Y-116633619D01*
X115704952Y-116728857D01*
X115657333Y-116776476D01*
X115562095Y-116824095D01*
X115466857Y-116824095D01*
X115371619Y-116776476D01*
X115324000Y-116728857D01*
X115276381Y-116633619D01*
X115276381Y-116395523D01*
X115324000Y-116252666D01*
X116276381Y-115300285D02*
X116276381Y-115871714D01*
X116276381Y-115586000D02*
X115276381Y-115586000D01*
X115419238Y-115681238D01*
X115514476Y-115776476D01*
X115562095Y-115871714D01*
X116228762Y-114919333D02*
X116276381Y-114776476D01*
X116276381Y-114538380D01*
X116228762Y-114443142D01*
X116181143Y-114395523D01*
X116085905Y-114347904D01*
X115990667Y-114347904D01*
X115895429Y-114395523D01*
X115847810Y-114443142D01*
X115800190Y-114538380D01*
X115752571Y-114728857D01*
X115704952Y-114824095D01*
X115657333Y-114871714D01*
X115562095Y-114919333D01*
X115466857Y-114919333D01*
X115371619Y-114871714D01*
X115324000Y-114824095D01*
X115276381Y-114728857D01*
X115276381Y-114490761D01*
X115324000Y-114347904D01*
X115371619Y-113966952D02*
X115324000Y-113919333D01*
X115276381Y-113824095D01*
X115276381Y-113585999D01*
X115324000Y-113490761D01*
X115371619Y-113443142D01*
X115466857Y-113395523D01*
X115562095Y-113395523D01*
X115704952Y-113443142D01*
X116276381Y-114014571D01*
X116276381Y-113395523D01*
X116530381Y-111228095D02*
X115530381Y-111228095D01*
X115530381Y-110847142D01*
X115578000Y-110751904D01*
X115625619Y-110704285D01*
X115720857Y-110656666D01*
X115863714Y-110656666D01*
X115958952Y-110704285D01*
X116006571Y-110751904D01*
X116054190Y-110847142D01*
X116054190Y-111228095D01*
X115530381Y-110323333D02*
X115530381Y-109704285D01*
X115911333Y-110037619D01*
X115911333Y-109894761D01*
X115958952Y-109799523D01*
X116006571Y-109751904D01*
X116101810Y-109704285D01*
X116339905Y-109704285D01*
X116435143Y-109751904D01*
X116482762Y-109799523D01*
X116530381Y-109894761D01*
X116530381Y-110180476D01*
X116482762Y-110275714D01*
X116435143Y-110323333D01*
X116006571Y-108171999D02*
X116006571Y-108505333D01*
X116530381Y-108505333D02*
X115530381Y-108505333D01*
X115530381Y-108029142D01*
X116530381Y-107219618D02*
X116006571Y-107219618D01*
X115911333Y-107267237D01*
X115863714Y-107362475D01*
X115863714Y-107552952D01*
X115911333Y-107648190D01*
X116482762Y-107219618D02*
X116530381Y-107314856D01*
X116530381Y-107552952D01*
X116482762Y-107648190D01*
X116387524Y-107695809D01*
X116292286Y-107695809D01*
X116197048Y-107648190D01*
X116149429Y-107552952D01*
X116149429Y-107314856D01*
X116101810Y-107219618D01*
X115863714Y-106743428D02*
X116530381Y-106743428D01*
X115958952Y-106743428D02*
X115911333Y-106695809D01*
X115863714Y-106600571D01*
X115863714Y-106457713D01*
X115911333Y-106362475D01*
X116006571Y-106314856D01*
X116530381Y-106314856D01*
X116149429Y-105838666D02*
X116149429Y-105076761D01*
X116530381Y-105457713D02*
X115768476Y-105457713D01*
X116149429Y-104600571D02*
X116149429Y-103838666D01*
X116784381Y-102084095D02*
X115784381Y-102084095D01*
X115784381Y-101703142D01*
X115832000Y-101607904D01*
X115879619Y-101560285D01*
X115974857Y-101512666D01*
X116117714Y-101512666D01*
X116212952Y-101560285D01*
X116260571Y-101607904D01*
X116308190Y-101703142D01*
X116308190Y-102084095D01*
X116117714Y-100655523D02*
X116784381Y-100655523D01*
X115736762Y-100893619D02*
X116451048Y-101131714D01*
X116451048Y-100512666D01*
X115530381Y-100178667D02*
X115530381Y-99607238D01*
X116530381Y-99892953D02*
X115530381Y-99892953D01*
X116530381Y-99273905D02*
X115530381Y-99273905D01*
X116530381Y-98845333D02*
X116006571Y-98845333D01*
X115911333Y-98892952D01*
X115863714Y-98988190D01*
X115863714Y-99131048D01*
X115911333Y-99226286D01*
X115958952Y-99273905D01*
X116482762Y-97988190D02*
X116530381Y-98083428D01*
X116530381Y-98273905D01*
X116482762Y-98369143D01*
X116387524Y-98416762D01*
X116006571Y-98416762D01*
X115911333Y-98369143D01*
X115863714Y-98273905D01*
X115863714Y-98083428D01*
X115911333Y-97988190D01*
X116006571Y-97940571D01*
X116101810Y-97940571D01*
X116197048Y-98416762D01*
X116530381Y-97512000D02*
X115863714Y-97512000D01*
X116054190Y-97512000D02*
X115958952Y-97464381D01*
X115911333Y-97416762D01*
X115863714Y-97321524D01*
X115863714Y-97226285D01*
X116530381Y-96892952D02*
X115863714Y-96892952D01*
X115958952Y-96892952D02*
X115911333Y-96845333D01*
X115863714Y-96750095D01*
X115863714Y-96607237D01*
X115911333Y-96511999D01*
X116006571Y-96464380D01*
X116530381Y-96464380D01*
X116006571Y-96464380D02*
X115911333Y-96416761D01*
X115863714Y-96321523D01*
X115863714Y-96178666D01*
X115911333Y-96083428D01*
X116006571Y-96035809D01*
X116530381Y-96035809D01*
X116149429Y-94797714D02*
X116149429Y-94035809D01*
X116530381Y-94416761D02*
X115768476Y-94416761D01*
X116482762Y-93607238D02*
X116530381Y-93512000D01*
X116530381Y-93321524D01*
X116482762Y-93226285D01*
X116387524Y-93178666D01*
X116339905Y-93178666D01*
X116244667Y-93226285D01*
X116197048Y-93321524D01*
X116197048Y-93464381D01*
X116149429Y-93559619D01*
X116054190Y-93607238D01*
X116006571Y-93607238D01*
X115911333Y-93559619D01*
X115863714Y-93464381D01*
X115863714Y-93321524D01*
X115911333Y-93226285D01*
X116149429Y-92750095D02*
X116149429Y-91988190D01*
X116784381Y-67032095D02*
X115784381Y-67032095D01*
X115784381Y-66651142D01*
X115832000Y-66555904D01*
X115879619Y-66508285D01*
X115974857Y-66460666D01*
X116117714Y-66460666D01*
X116212952Y-66508285D01*
X116260571Y-66555904D01*
X116308190Y-66651142D01*
X116308190Y-67032095D01*
X115784381Y-65555904D02*
X115784381Y-66032095D01*
X116260571Y-66079714D01*
X116212952Y-66032095D01*
X116165333Y-65936857D01*
X116165333Y-65698761D01*
X116212952Y-65603523D01*
X116260571Y-65555904D01*
X116355810Y-65508285D01*
X116593905Y-65508285D01*
X116689143Y-65555904D01*
X116736762Y-65603523D01*
X116784381Y-65698761D01*
X116784381Y-65936857D01*
X116736762Y-66032095D01*
X116689143Y-66079714D01*
X116784381Y-64984000D02*
X115784381Y-64984000D01*
X116260571Y-64984000D02*
X116260571Y-64412571D01*
X116784381Y-64412571D02*
X115784381Y-64412571D01*
X116784381Y-63936381D02*
X115784381Y-63936381D01*
X115784381Y-63555428D01*
X115832000Y-63460190D01*
X115879619Y-63412571D01*
X115974857Y-63364952D01*
X116117714Y-63364952D01*
X116212952Y-63412571D01*
X116260571Y-63460190D01*
X116308190Y-63555428D01*
X116308190Y-63936381D01*
X116784381Y-62412571D02*
X116784381Y-62984000D01*
X116784381Y-62698286D02*
X115784381Y-62698286D01*
X115927238Y-62793524D01*
X116022476Y-62888762D01*
X116070095Y-62984000D01*
X116403429Y-61984000D02*
X116403429Y-61222095D01*
X116784381Y-61603047D02*
X116022476Y-61603047D01*
X116403429Y-60745905D02*
X116403429Y-59984000D01*
X116784381Y-75922095D02*
X115784381Y-75922095D01*
X115784381Y-75541142D01*
X115832000Y-75445904D01*
X115879619Y-75398285D01*
X115974857Y-75350666D01*
X116117714Y-75350666D01*
X116212952Y-75398285D01*
X116260571Y-75445904D01*
X116308190Y-75541142D01*
X116308190Y-75922095D01*
X115784381Y-74493523D02*
X115784381Y-74684000D01*
X115832000Y-74779238D01*
X115879619Y-74826857D01*
X116022476Y-74922095D01*
X116212952Y-74969714D01*
X116593905Y-74969714D01*
X116689143Y-74922095D01*
X116736762Y-74874476D01*
X116784381Y-74779238D01*
X116784381Y-74588761D01*
X116736762Y-74493523D01*
X116689143Y-74445904D01*
X116593905Y-74398285D01*
X116355810Y-74398285D01*
X116260571Y-74445904D01*
X116212952Y-74493523D01*
X116165333Y-74588761D01*
X116165333Y-74779238D01*
X116212952Y-74874476D01*
X116260571Y-74922095D01*
X116355810Y-74969714D01*
X116784381Y-73620000D02*
X115784381Y-73620000D01*
X116260571Y-73620000D02*
X116260571Y-73048571D01*
X116784381Y-73048571D02*
X115784381Y-73048571D01*
X116784381Y-72572381D02*
X115784381Y-72572381D01*
X115784381Y-72191428D01*
X115832000Y-72096190D01*
X115879619Y-72048571D01*
X115974857Y-72000952D01*
X116117714Y-72000952D01*
X116212952Y-72048571D01*
X116260571Y-72096190D01*
X116308190Y-72191428D01*
X116308190Y-72572381D01*
X115879619Y-71620000D02*
X115832000Y-71572381D01*
X115784381Y-71477143D01*
X115784381Y-71239047D01*
X115832000Y-71143809D01*
X115879619Y-71096190D01*
X115974857Y-71048571D01*
X116070095Y-71048571D01*
X116212952Y-71096190D01*
X116784381Y-71667619D01*
X116784381Y-71048571D01*
X116403429Y-70620000D02*
X116403429Y-69858095D01*
X116784381Y-70239047D02*
X116022476Y-70239047D01*
X116403429Y-69381905D02*
X116403429Y-68620000D01*
X170124381Y-51030095D02*
X169124381Y-51030095D01*
X169124381Y-50649142D01*
X169172000Y-50553904D01*
X169219619Y-50506285D01*
X169314857Y-50458666D01*
X169457714Y-50458666D01*
X169552952Y-50506285D01*
X169600571Y-50553904D01*
X169648190Y-50649142D01*
X169648190Y-51030095D01*
X169124381Y-50125333D02*
X169124381Y-49458666D01*
X170124381Y-49887238D01*
X170076762Y-48767524D02*
X170124381Y-48672286D01*
X170124381Y-48481810D01*
X170076762Y-48386571D01*
X169981524Y-48338952D01*
X169933905Y-48338952D01*
X169838667Y-48386571D01*
X169791048Y-48481810D01*
X169791048Y-48624667D01*
X169743429Y-48719905D01*
X169648190Y-48767524D01*
X169600571Y-48767524D01*
X169505333Y-48719905D01*
X169457714Y-48624667D01*
X169457714Y-48481810D01*
X169505333Y-48386571D01*
X170076762Y-47529428D02*
X170124381Y-47624666D01*
X170124381Y-47815143D01*
X170076762Y-47910381D01*
X169981524Y-47958000D01*
X169600571Y-47958000D01*
X169505333Y-47910381D01*
X169457714Y-47815143D01*
X169457714Y-47624666D01*
X169505333Y-47529428D01*
X169600571Y-47481809D01*
X169695810Y-47481809D01*
X169791048Y-47958000D01*
X170124381Y-47053238D02*
X169457714Y-47053238D01*
X169648190Y-47053238D02*
X169552952Y-47005619D01*
X169505333Y-46958000D01*
X169457714Y-46862762D01*
X169457714Y-46767523D01*
X169457714Y-46529428D02*
X170124381Y-46291333D01*
X169457714Y-46053237D01*
X170124381Y-45529428D02*
X170076762Y-45624666D01*
X170029143Y-45672285D01*
X169933905Y-45719904D01*
X169648190Y-45719904D01*
X169552952Y-45672285D01*
X169505333Y-45624666D01*
X169457714Y-45529428D01*
X169457714Y-45386570D01*
X169505333Y-45291332D01*
X169552952Y-45243713D01*
X169648190Y-45196094D01*
X169933905Y-45196094D01*
X170029143Y-45243713D01*
X170076762Y-45291332D01*
X170124381Y-45386570D01*
X170124381Y-45529428D01*
X169743429Y-44005618D02*
X169743429Y-43243713D01*
X170076762Y-42815142D02*
X170124381Y-42719904D01*
X170124381Y-42529428D01*
X170076762Y-42434189D01*
X169981524Y-42386570D01*
X169933905Y-42386570D01*
X169838667Y-42434189D01*
X169791048Y-42529428D01*
X169791048Y-42672285D01*
X169743429Y-42767523D01*
X169648190Y-42815142D01*
X169600571Y-42815142D01*
X169505333Y-42767523D01*
X169457714Y-42672285D01*
X169457714Y-42529428D01*
X169505333Y-42434189D01*
X169743429Y-41957999D02*
X169743429Y-41196094D01*
X170124381Y-41577046D02*
X169362476Y-41577046D01*
X170378381Y-84558095D02*
X169378381Y-84558095D01*
X169378381Y-84177142D01*
X169426000Y-84081904D01*
X169473619Y-84034285D01*
X169568857Y-83986666D01*
X169711714Y-83986666D01*
X169806952Y-84034285D01*
X169854571Y-84081904D01*
X169902190Y-84177142D01*
X169902190Y-84558095D01*
X169806952Y-83415238D02*
X169759333Y-83510476D01*
X169711714Y-83558095D01*
X169616476Y-83605714D01*
X169568857Y-83605714D01*
X169473619Y-83558095D01*
X169426000Y-83510476D01*
X169378381Y-83415238D01*
X169378381Y-83224761D01*
X169426000Y-83129523D01*
X169473619Y-83081904D01*
X169568857Y-83034285D01*
X169616476Y-83034285D01*
X169711714Y-83081904D01*
X169759333Y-83129523D01*
X169806952Y-83224761D01*
X169806952Y-83415238D01*
X169854571Y-83510476D01*
X169902190Y-83558095D01*
X169997429Y-83605714D01*
X170187905Y-83605714D01*
X170283143Y-83558095D01*
X170330762Y-83510476D01*
X170378381Y-83415238D01*
X170378381Y-83224761D01*
X170330762Y-83129523D01*
X170283143Y-83081904D01*
X170187905Y-83034285D01*
X169997429Y-83034285D01*
X169902190Y-83081904D01*
X169854571Y-83129523D01*
X169806952Y-83224761D01*
X170378381Y-81089142D02*
X169902190Y-81422476D01*
X170378381Y-81660571D02*
X169378381Y-81660571D01*
X169378381Y-81279618D01*
X169426000Y-81184380D01*
X169473619Y-81136761D01*
X169568857Y-81089142D01*
X169711714Y-81089142D01*
X169806952Y-81136761D01*
X169854571Y-81184380D01*
X169902190Y-81279618D01*
X169902190Y-81660571D01*
X170378381Y-80660571D02*
X169711714Y-80660571D01*
X169378381Y-80660571D02*
X169426000Y-80708190D01*
X169473619Y-80660571D01*
X169426000Y-80612952D01*
X169378381Y-80660571D01*
X169473619Y-80660571D01*
X169711714Y-80184381D02*
X170378381Y-80184381D01*
X169806952Y-80184381D02*
X169759333Y-80136762D01*
X169711714Y-80041524D01*
X169711714Y-79898666D01*
X169759333Y-79803428D01*
X169854571Y-79755809D01*
X170378381Y-79755809D01*
X169711714Y-78851047D02*
X170521238Y-78851047D01*
X170616476Y-78898666D01*
X170664095Y-78946285D01*
X170711714Y-79041524D01*
X170711714Y-79184381D01*
X170664095Y-79279619D01*
X170330762Y-78851047D02*
X170378381Y-78946285D01*
X170378381Y-79136762D01*
X170330762Y-79232000D01*
X170283143Y-79279619D01*
X170187905Y-79327238D01*
X169902190Y-79327238D01*
X169806952Y-79279619D01*
X169759333Y-79232000D01*
X169711714Y-79136762D01*
X169711714Y-78946285D01*
X169759333Y-78851047D01*
X170330762Y-77660571D02*
X170378381Y-77565333D01*
X170378381Y-77374857D01*
X170330762Y-77279618D01*
X170235524Y-77231999D01*
X170187905Y-77231999D01*
X170092667Y-77279618D01*
X170045048Y-77374857D01*
X170045048Y-77517714D01*
X169997429Y-77612952D01*
X169902190Y-77660571D01*
X169854571Y-77660571D01*
X169759333Y-77612952D01*
X169711714Y-77517714D01*
X169711714Y-77374857D01*
X169759333Y-77279618D01*
X169997429Y-76803428D02*
X169997429Y-76041523D01*
X169997429Y-75565333D02*
X169997429Y-74803428D01*
X170378381Y-75184380D02*
X169616476Y-75184380D01*
X170886381Y-98782095D02*
X169886381Y-98782095D01*
X169886381Y-98401142D01*
X169934000Y-98305904D01*
X169981619Y-98258285D01*
X170076857Y-98210666D01*
X170219714Y-98210666D01*
X170314952Y-98258285D01*
X170362571Y-98305904D01*
X170410190Y-98401142D01*
X170410190Y-98782095D01*
X170886381Y-97734476D02*
X170886381Y-97544000D01*
X170838762Y-97448761D01*
X170791143Y-97401142D01*
X170648286Y-97305904D01*
X170457810Y-97258285D01*
X170076857Y-97258285D01*
X169981619Y-97305904D01*
X169934000Y-97353523D01*
X169886381Y-97448761D01*
X169886381Y-97639238D01*
X169934000Y-97734476D01*
X169981619Y-97782095D01*
X170076857Y-97829714D01*
X170314952Y-97829714D01*
X170410190Y-97782095D01*
X170457810Y-97734476D01*
X170505429Y-97639238D01*
X170505429Y-97448761D01*
X170457810Y-97353523D01*
X170410190Y-97305904D01*
X170314952Y-97258285D01*
X170632381Y-96614572D02*
X169965714Y-96614572D01*
X170060952Y-96614572D02*
X170013333Y-96566953D01*
X169965714Y-96471715D01*
X169965714Y-96328857D01*
X170013333Y-96233619D01*
X170108571Y-96186000D01*
X170632381Y-96186000D01*
X170108571Y-96186000D02*
X170013333Y-96138381D01*
X169965714Y-96043143D01*
X169965714Y-95900286D01*
X170013333Y-95805048D01*
X170108571Y-95757429D01*
X170632381Y-95757429D01*
X170632381Y-94852667D02*
X170108571Y-94852667D01*
X170013333Y-94900286D01*
X169965714Y-94995524D01*
X169965714Y-95186001D01*
X170013333Y-95281239D01*
X170584762Y-94852667D02*
X170632381Y-94947905D01*
X170632381Y-95186001D01*
X170584762Y-95281239D01*
X170489524Y-95328858D01*
X170394286Y-95328858D01*
X170299048Y-95281239D01*
X170251429Y-95186001D01*
X170251429Y-94947905D01*
X170203810Y-94852667D01*
X169965714Y-94519334D02*
X169965714Y-94138382D01*
X169632381Y-94376477D02*
X170489524Y-94376477D01*
X170584762Y-94328858D01*
X170632381Y-94233620D01*
X170632381Y-94138382D01*
X170632381Y-93805048D02*
X169965714Y-93805048D01*
X170156190Y-93805048D02*
X170060952Y-93757429D01*
X170013333Y-93709810D01*
X169965714Y-93614572D01*
X169965714Y-93519333D01*
X170632381Y-93186000D02*
X169965714Y-93186000D01*
X169632381Y-93186000D02*
X169680000Y-93233619D01*
X169727619Y-93186000D01*
X169680000Y-93138381D01*
X169632381Y-93186000D01*
X169727619Y-93186000D01*
X170632381Y-92805048D02*
X169965714Y-92281238D01*
X169965714Y-92805048D02*
X170632381Y-92281238D01*
X170584762Y-91186000D02*
X170632381Y-91090762D01*
X170632381Y-90900286D01*
X170584762Y-90805047D01*
X170489524Y-90757428D01*
X170441905Y-90757428D01*
X170346667Y-90805047D01*
X170299048Y-90900286D01*
X170299048Y-91043143D01*
X170251429Y-91138381D01*
X170156190Y-91186000D01*
X170108571Y-91186000D01*
X170013333Y-91138381D01*
X169965714Y-91043143D01*
X169965714Y-90900286D01*
X170013333Y-90805047D01*
X170632381Y-89900285D02*
X169632381Y-89900285D01*
X170584762Y-89900285D02*
X170632381Y-89995523D01*
X170632381Y-90186000D01*
X170584762Y-90281238D01*
X170537143Y-90328857D01*
X170441905Y-90376476D01*
X170156190Y-90376476D01*
X170060952Y-90328857D01*
X170013333Y-90281238D01*
X169965714Y-90186000D01*
X169965714Y-89995523D01*
X170013333Y-89900285D01*
X170584762Y-89471714D02*
X170632381Y-89376476D01*
X170632381Y-89186000D01*
X170584762Y-89090761D01*
X170489524Y-89043142D01*
X170441905Y-89043142D01*
X170346667Y-89090761D01*
X170299048Y-89186000D01*
X170299048Y-89328857D01*
X170251429Y-89424095D01*
X170156190Y-89471714D01*
X170108571Y-89471714D01*
X170013333Y-89424095D01*
X169965714Y-89328857D01*
X169965714Y-89186000D01*
X170013333Y-89090761D01*
X170584762Y-88185999D02*
X170632381Y-88281237D01*
X170632381Y-88471714D01*
X170584762Y-88566952D01*
X170537143Y-88614571D01*
X170441905Y-88662190D01*
X170156190Y-88662190D01*
X170060952Y-88614571D01*
X170013333Y-88566952D01*
X169965714Y-88471714D01*
X169965714Y-88281237D01*
X170013333Y-88185999D01*
X170251429Y-87757428D02*
X170251429Y-86995523D01*
X170251429Y-86519333D02*
X170251429Y-85757428D01*
X170632381Y-86138380D02*
X169870476Y-86138380D01*
X116784381Y-90622286D02*
X115784381Y-90622286D01*
X115784381Y-90241333D01*
X115832000Y-90146095D01*
X115879619Y-90098476D01*
X115974857Y-90050857D01*
X116117714Y-90050857D01*
X116212952Y-90098476D01*
X116260571Y-90146095D01*
X116308190Y-90241333D01*
X116308190Y-90622286D01*
X116784381Y-89098476D02*
X116784381Y-89669905D01*
X116784381Y-89384191D02*
X115784381Y-89384191D01*
X115927238Y-89479429D01*
X116022476Y-89574667D01*
X116070095Y-89669905D01*
X115784381Y-88479429D02*
X115784381Y-88384190D01*
X115832000Y-88288952D01*
X115879619Y-88241333D01*
X115974857Y-88193714D01*
X116165333Y-88146095D01*
X116403429Y-88146095D01*
X116593905Y-88193714D01*
X116689143Y-88241333D01*
X116736762Y-88288952D01*
X116784381Y-88384190D01*
X116784381Y-88479429D01*
X116736762Y-88574667D01*
X116689143Y-88622286D01*
X116593905Y-88669905D01*
X116403429Y-88717524D01*
X116165333Y-88717524D01*
X115974857Y-88669905D01*
X115879619Y-88622286D01*
X115832000Y-88574667D01*
X115784381Y-88479429D01*
X116784381Y-86454857D02*
X116784381Y-86931048D01*
X115784381Y-86931048D01*
X116260571Y-86121524D02*
X116260571Y-85788190D01*
X116784381Y-85645333D02*
X116784381Y-86121524D01*
X115784381Y-86121524D01*
X115784381Y-85645333D01*
X116784381Y-85216762D02*
X115784381Y-85216762D01*
X115784381Y-84978667D01*
X115832000Y-84835809D01*
X115927238Y-84740571D01*
X116022476Y-84692952D01*
X116212952Y-84645333D01*
X116355810Y-84645333D01*
X116546286Y-84692952D01*
X116641524Y-84740571D01*
X116736762Y-84835809D01*
X116784381Y-84978667D01*
X116784381Y-85216762D01*
X116784381Y-82883428D02*
X116308190Y-83216762D01*
X116784381Y-83454857D02*
X115784381Y-83454857D01*
X115784381Y-83073904D01*
X115832000Y-82978666D01*
X115879619Y-82931047D01*
X115974857Y-82883428D01*
X116117714Y-82883428D01*
X116212952Y-82931047D01*
X116260571Y-82978666D01*
X116308190Y-83073904D01*
X116308190Y-83454857D01*
X116403429Y-82454857D02*
X116403429Y-81692952D01*
X115832000Y-80692952D02*
X115784381Y-80788190D01*
X115784381Y-80931047D01*
X115832000Y-81073905D01*
X115927238Y-81169143D01*
X116022476Y-81216762D01*
X116212952Y-81264381D01*
X116355810Y-81264381D01*
X116546286Y-81216762D01*
X116641524Y-81169143D01*
X116736762Y-81073905D01*
X116784381Y-80931047D01*
X116784381Y-80835809D01*
X116736762Y-80692952D01*
X116689143Y-80645333D01*
X116355810Y-80645333D01*
X116355810Y-80835809D01*
X116260571Y-79883428D02*
X116308190Y-79740571D01*
X116355810Y-79692952D01*
X116451048Y-79645333D01*
X116593905Y-79645333D01*
X116689143Y-79692952D01*
X116736762Y-79740571D01*
X116784381Y-79835809D01*
X116784381Y-80216762D01*
X115784381Y-80216762D01*
X115784381Y-79883428D01*
X115832000Y-79788190D01*
X115879619Y-79740571D01*
X115974857Y-79692952D01*
X116070095Y-79692952D01*
X116165333Y-79740571D01*
X116212952Y-79788190D01*
X116260571Y-79883428D01*
X116260571Y-80216762D01*
X136231334Y-128468381D02*
X135898000Y-127992190D01*
X135659905Y-128468381D02*
X135659905Y-127468381D01*
X136040858Y-127468381D01*
X136136096Y-127516000D01*
X136183715Y-127563619D01*
X136231334Y-127658857D01*
X136231334Y-127801714D01*
X136183715Y-127896952D01*
X136136096Y-127944571D01*
X136040858Y-127992190D01*
X135659905Y-127992190D01*
X137183715Y-128468381D02*
X136612286Y-128468381D01*
X136898000Y-128468381D02*
X136898000Y-127468381D01*
X136802762Y-127611238D01*
X136707524Y-127706476D01*
X136612286Y-127754095D01*
X136207714Y-128833619D02*
X136255333Y-128786000D01*
X136350571Y-128738381D01*
X136588667Y-128738381D01*
X136683905Y-128786000D01*
X136731524Y-128833619D01*
X136779143Y-128928857D01*
X136779143Y-129024095D01*
X136731524Y-129166952D01*
X136160095Y-129738381D01*
X136779143Y-129738381D01*
X137398190Y-128738381D02*
X137493429Y-128738381D01*
X137588667Y-128786000D01*
X137636286Y-128833619D01*
X137683905Y-128928857D01*
X137731524Y-129119333D01*
X137731524Y-129357429D01*
X137683905Y-129547905D01*
X137636286Y-129643143D01*
X137588667Y-129690762D01*
X137493429Y-129738381D01*
X137398190Y-129738381D01*
X137302952Y-129690762D01*
X137255333Y-129643143D01*
X137207714Y-129547905D01*
X137160095Y-129357429D01*
X137160095Y-129119333D01*
X137207714Y-128928857D01*
X137255333Y-128833619D01*
X137302952Y-128786000D01*
X137398190Y-128738381D01*
X138064857Y-128738381D02*
X138302952Y-129738381D01*
X138493429Y-129024095D01*
X138683905Y-129738381D01*
X138922000Y-128738381D01*
X136342381Y-87034666D02*
X135866190Y-87368000D01*
X136342381Y-87606095D02*
X135342381Y-87606095D01*
X135342381Y-87225142D01*
X135390000Y-87129904D01*
X135437619Y-87082285D01*
X135532857Y-87034666D01*
X135675714Y-87034666D01*
X135770952Y-87082285D01*
X135818571Y-87129904D01*
X135866190Y-87225142D01*
X135866190Y-87606095D01*
X135437619Y-86653714D02*
X135390000Y-86606095D01*
X135342381Y-86510857D01*
X135342381Y-86272761D01*
X135390000Y-86177523D01*
X135437619Y-86129904D01*
X135532857Y-86082285D01*
X135628095Y-86082285D01*
X135770952Y-86129904D01*
X136342381Y-86701333D01*
X136342381Y-86082285D01*
X150677619Y-87852095D02*
X150630000Y-87804476D01*
X150582381Y-87709238D01*
X150582381Y-87471142D01*
X150630000Y-87375904D01*
X150677619Y-87328285D01*
X150772857Y-87280666D01*
X150868095Y-87280666D01*
X151010952Y-87328285D01*
X151582381Y-87899714D01*
X151582381Y-87280666D01*
X150582381Y-86947333D02*
X150582381Y-86280666D01*
X151582381Y-86709238D01*
X150582381Y-85709238D02*
X150582381Y-85613999D01*
X150630000Y-85518761D01*
X150677619Y-85471142D01*
X150772857Y-85423523D01*
X150963333Y-85375904D01*
X151201429Y-85375904D01*
X151391905Y-85423523D01*
X151487143Y-85471142D01*
X151534762Y-85518761D01*
X151582381Y-85613999D01*
X151582381Y-85709238D01*
X151534762Y-85804476D01*
X151487143Y-85852095D01*
X151391905Y-85899714D01*
X151201429Y-85947333D01*
X150963333Y-85947333D01*
X150772857Y-85899714D01*
X150677619Y-85852095D01*
X150630000Y-85804476D01*
X150582381Y-85709238D01*
X136342381Y-97448666D02*
X135866190Y-97782000D01*
X136342381Y-98020095D02*
X135342381Y-98020095D01*
X135342381Y-97639142D01*
X135390000Y-97543904D01*
X135437619Y-97496285D01*
X135532857Y-97448666D01*
X135675714Y-97448666D01*
X135770952Y-97496285D01*
X135818571Y-97543904D01*
X135866190Y-97639142D01*
X135866190Y-98020095D01*
X135342381Y-97115333D02*
X135342381Y-96496285D01*
X135723333Y-96829619D01*
X135723333Y-96686761D01*
X135770952Y-96591523D01*
X135818571Y-96543904D01*
X135913810Y-96496285D01*
X136151905Y-96496285D01*
X136247143Y-96543904D01*
X136294762Y-96591523D01*
X136342381Y-96686761D01*
X136342381Y-96972476D01*
X136294762Y-97067714D01*
X136247143Y-97115333D01*
X150677619Y-98266095D02*
X150630000Y-98218476D01*
X150582381Y-98123238D01*
X150582381Y-97885142D01*
X150630000Y-97789904D01*
X150677619Y-97742285D01*
X150772857Y-97694666D01*
X150868095Y-97694666D01*
X151010952Y-97742285D01*
X151582381Y-98313714D01*
X151582381Y-97694666D01*
X150582381Y-97361333D02*
X150582381Y-96694666D01*
X151582381Y-97123238D01*
X150582381Y-96123238D02*
X150582381Y-96027999D01*
X150630000Y-95932761D01*
X150677619Y-95885142D01*
X150772857Y-95837523D01*
X150963333Y-95789904D01*
X151201429Y-95789904D01*
X151391905Y-95837523D01*
X151487143Y-95885142D01*
X151534762Y-95932761D01*
X151582381Y-96027999D01*
X151582381Y-96123238D01*
X151534762Y-96218476D01*
X151487143Y-96266095D01*
X151391905Y-96313714D01*
X151201429Y-96361333D01*
X150963333Y-96361333D01*
X150772857Y-96313714D01*
X150677619Y-96266095D01*
X150630000Y-96218476D01*
X150582381Y-96123238D01*
X143271334Y-89594381D02*
X142938000Y-89118190D01*
X142699905Y-89594381D02*
X142699905Y-88594381D01*
X143080858Y-88594381D01*
X143176096Y-88642000D01*
X143223715Y-88689619D01*
X143271334Y-88784857D01*
X143271334Y-88927714D01*
X143223715Y-89022952D01*
X143176096Y-89070571D01*
X143080858Y-89118190D01*
X142699905Y-89118190D01*
X144128477Y-88927714D02*
X144128477Y-89594381D01*
X143890381Y-88546762D02*
X143652286Y-89261048D01*
X144271334Y-89261048D01*
X150677619Y-93440095D02*
X150630000Y-93392476D01*
X150582381Y-93297238D01*
X150582381Y-93059142D01*
X150630000Y-92963904D01*
X150677619Y-92916285D01*
X150772857Y-92868666D01*
X150868095Y-92868666D01*
X151010952Y-92916285D01*
X151582381Y-93487714D01*
X151582381Y-92868666D01*
X150582381Y-92535333D02*
X150582381Y-91868666D01*
X151582381Y-92297238D01*
X150582381Y-91297238D02*
X150582381Y-91201999D01*
X150630000Y-91106761D01*
X150677619Y-91059142D01*
X150772857Y-91011523D01*
X150963333Y-90963904D01*
X151201429Y-90963904D01*
X151391905Y-91011523D01*
X151487143Y-91059142D01*
X151534762Y-91106761D01*
X151582381Y-91201999D01*
X151582381Y-91297238D01*
X151534762Y-91392476D01*
X151487143Y-91440095D01*
X151391905Y-91487714D01*
X151201429Y-91535333D01*
X150963333Y-91535333D01*
X150772857Y-91487714D01*
X150677619Y-91440095D01*
X150630000Y-91392476D01*
X150582381Y-91297238D01*
X159092381Y-49116666D02*
X158616190Y-49450000D01*
X159092381Y-49688095D02*
X158092381Y-49688095D01*
X158092381Y-49307142D01*
X158140000Y-49211904D01*
X158187619Y-49164285D01*
X158282857Y-49116666D01*
X158425714Y-49116666D01*
X158520952Y-49164285D01*
X158568571Y-49211904D01*
X158616190Y-49307142D01*
X158616190Y-49688095D01*
X158092381Y-48211904D02*
X158092381Y-48688095D01*
X158568571Y-48735714D01*
X158520952Y-48688095D01*
X158473333Y-48592857D01*
X158473333Y-48354761D01*
X158520952Y-48259523D01*
X158568571Y-48211904D01*
X158663810Y-48164285D01*
X158901905Y-48164285D01*
X158997143Y-48211904D01*
X159044762Y-48259523D01*
X159092381Y-48354761D01*
X159092381Y-48592857D01*
X159044762Y-48688095D01*
X158997143Y-48735714D01*
X138445334Y-122106381D02*
X138112000Y-121630190D01*
X137873905Y-122106381D02*
X137873905Y-121106381D01*
X138254858Y-121106381D01*
X138350096Y-121154000D01*
X138397715Y-121201619D01*
X138445334Y-121296857D01*
X138445334Y-121439714D01*
X138397715Y-121534952D01*
X138350096Y-121582571D01*
X138254858Y-121630190D01*
X137873905Y-121630190D01*
X138778667Y-121106381D02*
X139445334Y-121106381D01*
X139016762Y-122106381D01*
X137445905Y-124261619D02*
X137493524Y-124214000D01*
X137588762Y-124166381D01*
X137826858Y-124166381D01*
X137922096Y-124214000D01*
X137969715Y-124261619D01*
X138017334Y-124356857D01*
X138017334Y-124452095D01*
X137969715Y-124594952D01*
X137398286Y-125166381D01*
X138017334Y-125166381D01*
X138398286Y-124261619D02*
X138445905Y-124214000D01*
X138541143Y-124166381D01*
X138779239Y-124166381D01*
X138874477Y-124214000D01*
X138922096Y-124261619D01*
X138969715Y-124356857D01*
X138969715Y-124452095D01*
X138922096Y-124594952D01*
X138350667Y-125166381D01*
X138969715Y-125166381D01*
X139588762Y-124166381D02*
X139684001Y-124166381D01*
X139779239Y-124214000D01*
X139826858Y-124261619D01*
X139874477Y-124356857D01*
X139922096Y-124547333D01*
X139922096Y-124785429D01*
X139874477Y-124975905D01*
X139826858Y-125071143D01*
X139779239Y-125118762D01*
X139684001Y-125166381D01*
X139588762Y-125166381D01*
X139493524Y-125118762D01*
X139445905Y-125071143D01*
X139398286Y-124975905D01*
X139350667Y-124785429D01*
X139350667Y-124547333D01*
X139398286Y-124356857D01*
X139445905Y-124261619D01*
X139493524Y-124214000D01*
X139588762Y-124166381D01*
X125928381Y-114212666D02*
X125452190Y-114546000D01*
X125928381Y-114784095D02*
X124928381Y-114784095D01*
X124928381Y-114403142D01*
X124976000Y-114307904D01*
X125023619Y-114260285D01*
X125118857Y-114212666D01*
X125261714Y-114212666D01*
X125356952Y-114260285D01*
X125404571Y-114307904D01*
X125452190Y-114403142D01*
X125452190Y-114784095D01*
X125356952Y-113641238D02*
X125309333Y-113736476D01*
X125261714Y-113784095D01*
X125166476Y-113831714D01*
X125118857Y-113831714D01*
X125023619Y-113784095D01*
X124976000Y-113736476D01*
X124928381Y-113641238D01*
X124928381Y-113450761D01*
X124976000Y-113355523D01*
X125023619Y-113307904D01*
X125118857Y-113260285D01*
X125166476Y-113260285D01*
X125261714Y-113307904D01*
X125309333Y-113355523D01*
X125356952Y-113450761D01*
X125356952Y-113641238D01*
X125404571Y-113736476D01*
X125452190Y-113784095D01*
X125547429Y-113831714D01*
X125737905Y-113831714D01*
X125833143Y-113784095D01*
X125880762Y-113736476D01*
X125928381Y-113641238D01*
X125928381Y-113450761D01*
X125880762Y-113355523D01*
X125833143Y-113307904D01*
X125737905Y-113260285D01*
X125547429Y-113260285D01*
X125452190Y-113307904D01*
X125404571Y-113355523D01*
X125356952Y-113450761D01*
X140009619Y-115538095D02*
X139962000Y-115490476D01*
X139914381Y-115395238D01*
X139914381Y-115157142D01*
X139962000Y-115061904D01*
X140009619Y-115014285D01*
X140104857Y-114966666D01*
X140200095Y-114966666D01*
X140342952Y-115014285D01*
X140914381Y-115585714D01*
X140914381Y-114966666D01*
X140009619Y-114585714D02*
X139962000Y-114538095D01*
X139914381Y-114442857D01*
X139914381Y-114204761D01*
X139962000Y-114109523D01*
X140009619Y-114061904D01*
X140104857Y-114014285D01*
X140200095Y-114014285D01*
X140342952Y-114061904D01*
X140914381Y-114633333D01*
X140914381Y-114014285D01*
X139914381Y-113395238D02*
X139914381Y-113299999D01*
X139962000Y-113204761D01*
X140009619Y-113157142D01*
X140104857Y-113109523D01*
X140295333Y-113061904D01*
X140533429Y-113061904D01*
X140723905Y-113109523D01*
X140819143Y-113157142D01*
X140866762Y-113204761D01*
X140914381Y-113299999D01*
X140914381Y-113395238D01*
X140866762Y-113490476D01*
X140819143Y-113538095D01*
X140723905Y-113585714D01*
X140533429Y-113633333D01*
X140295333Y-113633333D01*
X140104857Y-113585714D01*
X140009619Y-113538095D01*
X139962000Y-113490476D01*
X139914381Y-113395238D01*
X125928381Y-109386666D02*
X125452190Y-109720000D01*
X125928381Y-109958095D02*
X124928381Y-109958095D01*
X124928381Y-109577142D01*
X124976000Y-109481904D01*
X125023619Y-109434285D01*
X125118857Y-109386666D01*
X125261714Y-109386666D01*
X125356952Y-109434285D01*
X125404571Y-109481904D01*
X125452190Y-109577142D01*
X125452190Y-109958095D01*
X125928381Y-108910476D02*
X125928381Y-108720000D01*
X125880762Y-108624761D01*
X125833143Y-108577142D01*
X125690286Y-108481904D01*
X125499810Y-108434285D01*
X125118857Y-108434285D01*
X125023619Y-108481904D01*
X124976000Y-108529523D01*
X124928381Y-108624761D01*
X124928381Y-108815238D01*
X124976000Y-108910476D01*
X125023619Y-108958095D01*
X125118857Y-109005714D01*
X125356952Y-109005714D01*
X125452190Y-108958095D01*
X125499810Y-108910476D01*
X125547429Y-108815238D01*
X125547429Y-108624761D01*
X125499810Y-108529523D01*
X125452190Y-108481904D01*
X125356952Y-108434285D01*
X140263619Y-110204095D02*
X140216000Y-110156476D01*
X140168381Y-110061238D01*
X140168381Y-109823142D01*
X140216000Y-109727904D01*
X140263619Y-109680285D01*
X140358857Y-109632666D01*
X140454095Y-109632666D01*
X140596952Y-109680285D01*
X141168381Y-110251714D01*
X141168381Y-109632666D01*
X140263619Y-109251714D02*
X140216000Y-109204095D01*
X140168381Y-109108857D01*
X140168381Y-108870761D01*
X140216000Y-108775523D01*
X140263619Y-108727904D01*
X140358857Y-108680285D01*
X140454095Y-108680285D01*
X140596952Y-108727904D01*
X141168381Y-109299333D01*
X141168381Y-108680285D01*
X140168381Y-108061238D02*
X140168381Y-107965999D01*
X140216000Y-107870761D01*
X140263619Y-107823142D01*
X140358857Y-107775523D01*
X140549333Y-107727904D01*
X140787429Y-107727904D01*
X140977905Y-107775523D01*
X141073143Y-107823142D01*
X141120762Y-107870761D01*
X141168381Y-107965999D01*
X141168381Y-108061238D01*
X141120762Y-108156476D01*
X141073143Y-108204095D01*
X140977905Y-108251714D01*
X140787429Y-108299333D01*
X140549333Y-108299333D01*
X140358857Y-108251714D01*
X140263619Y-108204095D01*
X140216000Y-108156476D01*
X140168381Y-108061238D01*
X126904762Y-90717619D02*
X126809524Y-90670000D01*
X126714286Y-90574762D01*
X126571429Y-90431905D01*
X126476190Y-90384286D01*
X126380952Y-90384286D01*
X126428571Y-90622381D02*
X126333333Y-90574762D01*
X126238095Y-90479524D01*
X126190476Y-90289048D01*
X126190476Y-89955714D01*
X126238095Y-89765238D01*
X126333333Y-89670000D01*
X126428571Y-89622381D01*
X126619048Y-89622381D01*
X126714286Y-89670000D01*
X126809524Y-89765238D01*
X126857143Y-89955714D01*
X126857143Y-90289048D01*
X126809524Y-90479524D01*
X126714286Y-90574762D01*
X126619048Y-90622381D01*
X126428571Y-90622381D01*
X127190476Y-89622381D02*
X127809524Y-89622381D01*
X127476190Y-90003333D01*
X127619048Y-90003333D01*
X127714286Y-90050952D01*
X127761905Y-90098571D01*
X127809524Y-90193810D01*
X127809524Y-90431905D01*
X127761905Y-90527143D01*
X127714286Y-90574762D01*
X127619048Y-90622381D01*
X127333333Y-90622381D01*
X127238095Y-90574762D01*
X127190476Y-90527143D01*
X126904762Y-96432619D02*
X126809524Y-96385000D01*
X126714286Y-96289762D01*
X126571429Y-96146905D01*
X126476190Y-96099286D01*
X126380952Y-96099286D01*
X126428571Y-96337381D02*
X126333333Y-96289762D01*
X126238095Y-96194524D01*
X126190476Y-96004048D01*
X126190476Y-95670714D01*
X126238095Y-95480238D01*
X126333333Y-95385000D01*
X126428571Y-95337381D01*
X126619048Y-95337381D01*
X126714286Y-95385000D01*
X126809524Y-95480238D01*
X126857143Y-95670714D01*
X126857143Y-96004048D01*
X126809524Y-96194524D01*
X126714286Y-96289762D01*
X126619048Y-96337381D01*
X126428571Y-96337381D01*
X127809524Y-96337381D02*
X127238095Y-96337381D01*
X127523809Y-96337381D02*
X127523809Y-95337381D01*
X127428571Y-95480238D01*
X127333333Y-95575476D01*
X127238095Y-95623095D01*
X161071619Y-45307238D02*
X161024000Y-45402476D01*
X160928762Y-45497714D01*
X160785905Y-45640571D01*
X160738286Y-45735810D01*
X160738286Y-45831048D01*
X160976381Y-45783429D02*
X160928762Y-45878667D01*
X160833524Y-45973905D01*
X160643048Y-46021524D01*
X160309714Y-46021524D01*
X160119238Y-45973905D01*
X160024000Y-45878667D01*
X159976381Y-45783429D01*
X159976381Y-45592952D01*
X160024000Y-45497714D01*
X160119238Y-45402476D01*
X160309714Y-45354857D01*
X160643048Y-45354857D01*
X160833524Y-45402476D01*
X160928762Y-45497714D01*
X160976381Y-45592952D01*
X160976381Y-45783429D01*
X160309714Y-44497714D02*
X160976381Y-44497714D01*
X159928762Y-44735810D02*
X160643048Y-44973905D01*
X160643048Y-44354857D01*
M02*
