M48
;DRILL file {KiCad 4.0.7-e2-6376~58~ubuntu16.04.1} date Fri Dec 29 18:16:46 2017
;FORMAT={-:-/ absolute / inch / decimal}
FMAT,2
INCH,TZ
T1C0.016
T2C0.031
T3C0.032
T4C0.036
T5C0.037
T6C0.039
T7C0.039
T8C0.041
T9C0.053
T10C0.059
%
G90
G05
M72
T1
X4.57Y-2.56
X4.62Y-2.74
X4.63Y-2.52
X4.67Y-2.74
X4.68Y-2.48
X4.84Y-4.1
X4.85Y-3.65
X5.46Y-3.18
X5.47Y-4.27
X5.52Y-4.98
X5.71Y-4.46
X5.95Y-4.79
X6.46Y-2.95
X6.53Y-2.85
T2
X4.24Y-3.89
X4.3Y-3.14
X4.65Y-3.41
X4.65Y-3.51
X4.65Y-3.61
X4.84Y-3.89
X4.9Y-3.14
X4.94Y-4.47
X4.94Y-4.57
X4.94Y-4.67
X5.02Y-3.86
X5.02Y-4.0569
X5.14Y-4.73
X5.19Y-3.88
X5.19Y-4.06
X5.19Y-4.28
X5.19Y-4.51
X5.32Y-2.13
X5.32Y-2.23
X5.32Y-2.33
X5.32Y-2.43
X5.32Y-2.53
X5.32Y-2.63
X5.32Y-2.73
X5.32Y-2.83
X5.32Y-2.93
X5.32Y-3.03
X5.32Y-3.13
X5.32Y-3.23
X5.32Y-3.33
X5.32Y-3.43
X5.32Y-3.53
X5.3369Y-4.73
X5.51Y-4.73
X5.7069Y-4.73
X5.79Y-3.88
X5.79Y-4.06
X5.79Y-4.28
X5.79Y-4.51
X5.92Y-2.13
X5.92Y-2.23
X5.92Y-2.33
X5.92Y-2.43
X5.92Y-2.53
X5.92Y-2.63
X5.92Y-2.73
X5.92Y-2.83
X5.92Y-2.93
X5.92Y-3.03
X5.92Y-3.13
X5.92Y-3.23
X5.92Y-3.33
X5.92Y-3.43
X5.92Y-3.53
X6.05Y-4.1504
X6.05Y-4.3
X6.13Y-2.38
X6.13Y-2.64
X6.13Y-2.74
X6.13Y-2.84
X6.14Y-2.18
X6.3431Y-3.14
X6.38Y-2.64
X6.38Y-2.74
X6.38Y-2.84
X6.5Y-4.4631
X6.5Y-4.66
X6.54Y-3.14
X6.73Y-2.38
X6.74Y-2.18
X6.7904Y-3.7
X6.94Y-3.7
T3
X6.27Y-4.8916
X6.27Y-5.0884
X6.46Y-3.5716
X6.46Y-3.7684
T4
X6.3938Y-4.11
X6.4725Y-4.11
X6.5513Y-4.11
X6.63Y-4.11
T5
X5.02Y-4.88
X5.07Y-5.08
X5.12Y-4.88
X5.17Y-5.08
X5.22Y-4.88
X5.27Y-5.08
X5.32Y-4.88
X5.37Y-5.08
X5.42Y-4.88
X5.47Y-5.08
X5.52Y-4.88
X5.57Y-5.08
X5.62Y-4.88
X5.67Y-5.08
X5.72Y-4.88
X6.8146Y-3.0861
X6.8146Y-3.22
X6.8146Y-3.3539
X6.8146Y-4.4561
X6.8146Y-4.59
X6.8146Y-4.7239
X6.98Y-3.1531
X6.98Y-3.2869
X6.98Y-4.5231
X6.98Y-4.6569
T6
X4.29Y-4.23
X4.29Y-4.3284
X4.29Y-4.4269
X4.3Y-2.62
X4.3Y-2.7184
X4.3Y-2.8169
X4.3Y-3.42
X4.3Y-3.5184
X4.3Y-3.6169
X4.62Y-5.17
X4.63Y-4.14
X4.63Y-4.2384
X4.63Y-4.3369
X4.63Y-4.4353
X4.82Y-5.17
X5.12Y-3.32
X5.12Y-3.42
X5.12Y-3.52
X5.12Y-3.62
T8
X4.29Y-4.71
X4.29Y-4.8084
X4.63Y-4.71
X4.63Y-4.8084
X6.69Y-2.7
X6.69Y-2.7984
X7.01Y-2.7
X7.01Y-2.7984
T9
X6.3831Y-4.0029
X6.3831Y-4.2171
X6.6587Y-4.0029
X6.6587Y-4.2171
T10
X5.9401Y-4.52
X5.9401Y-5.12
X6.113Y-3.28
X6.113Y-3.88
T7
X6.5859Y-5.1394G85X6.5859Y-5.0606
G05
X6.7433Y-4.915G85X6.6646Y-4.915
G05
X6.8221Y-5.1394G85X6.8221Y-5.0606
G05
T0
M30
