G04 MADE WITH FRITZING*
G04 WWW.FRITZING.ORG*
G04 DOUBLE SIDED*
G04 HOLES PLATED*
G04 CONTOUR ON CENTER OF CONTOUR VECTOR*
%ASAXBY*%
%FSLAX23Y23*%
%MOIN*%
%OFA0B0*%
%SFA1.0B1.0*%
%ADD10C,0.039370*%
%ADD11C,0.075000*%
%ADD12C,0.110236*%
%ADD13C,0.074803*%
%ADD14C,0.080000*%
%ADD15C,0.082000*%
%ADD16C,0.140000*%
%ADD17C,0.070000*%
%ADD18R,0.075000X0.075000*%
%ADD19R,0.082000X0.082000*%
%ADD20R,0.080000X0.080000*%
%ADD21R,0.070000X0.069972*%
%ADD22C,0.024000*%
%LNCOPPER0*%
G90*
G70*
G54D10*
X1332Y652D03*
X1284Y1012D03*
X1020Y1564D03*
X780Y1084D03*
X1068Y1036D03*
X1356Y1180D03*
X2220Y1948D03*
X1884Y2308D03*
X2820Y772D03*
X2892Y1372D03*
X588Y52D03*
X1164Y1900D03*
X1548Y1660D03*
X2916Y1660D03*
X1428Y1036D03*
G54D11*
X1017Y597D03*
X1017Y497D03*
X1017Y397D03*
G54D12*
X2421Y2608D03*
X1121Y2608D03*
X121Y1908D03*
X421Y1908D03*
X1121Y2308D03*
X2421Y2308D03*
G54D13*
X2071Y2508D03*
X2171Y2508D03*
X2021Y2308D03*
X2121Y2308D03*
X2221Y2308D03*
G54D14*
X2021Y2108D03*
X2421Y2108D03*
G54D11*
X1721Y2208D03*
X1721Y2308D03*
X2721Y1808D03*
X2821Y1808D03*
G54D15*
X2421Y2608D03*
X2421Y2310D03*
G54D16*
X2821Y2168D03*
X2821Y2408D03*
X2631Y2288D03*
G54D14*
X1621Y2608D03*
X1759Y2608D03*
G54D11*
X1521Y2308D03*
X1421Y2308D03*
X1321Y2308D03*
G54D14*
X1321Y2608D03*
X1459Y2608D03*
G54D17*
X2821Y1508D03*
X2721Y1508D03*
X2621Y1508D03*
X2521Y1508D03*
X2421Y1508D03*
X2321Y1508D03*
X2221Y1508D03*
X2121Y1508D03*
X2021Y1508D03*
X1921Y1508D03*
X1821Y1508D03*
X1721Y1508D03*
X1621Y1508D03*
X1521Y1508D03*
X1421Y1508D03*
X2821Y908D03*
X2721Y908D03*
X2621Y908D03*
X2521Y908D03*
X2421Y908D03*
X2321Y908D03*
X2221Y908D03*
X2121Y908D03*
X2021Y908D03*
X1921Y908D03*
X1821Y908D03*
X1721Y908D03*
X1621Y908D03*
X1521Y908D03*
X1421Y908D03*
G54D11*
X1221Y1808D03*
X1221Y2208D03*
G54D15*
X121Y1908D03*
X419Y1908D03*
X1121Y2608D03*
X1121Y2310D03*
G54D13*
X221Y1558D03*
X221Y1658D03*
X421Y1508D03*
X421Y1608D03*
X421Y1708D03*
X771Y2508D03*
X871Y2508D03*
X721Y2308D03*
X821Y2308D03*
X921Y2308D03*
G54D14*
X721Y1408D03*
X721Y1808D03*
X721Y2108D03*
X1121Y2108D03*
G54D11*
X421Y1208D03*
X321Y1208D03*
X521Y2508D03*
X521Y2608D03*
X1521Y1808D03*
X1621Y1808D03*
X2121Y1808D03*
X2221Y1808D03*
G54D14*
X2596Y152D03*
X2459Y152D03*
X2321Y152D03*
X2183Y152D03*
X121Y2608D03*
X259Y2608D03*
G54D13*
X221Y358D03*
X221Y458D03*
X221Y558D03*
X221Y658D03*
X221Y758D03*
X221Y858D03*
X221Y958D03*
X421Y308D03*
X421Y408D03*
X421Y508D03*
X421Y608D03*
X421Y708D03*
X421Y808D03*
X421Y908D03*
X421Y1008D03*
G54D14*
X421Y152D03*
X283Y152D03*
G54D11*
X421Y2508D03*
X2542Y386D03*
X421Y2508D03*
X2542Y386D03*
G54D17*
X621Y1208D03*
X721Y1208D03*
G54D11*
X721Y808D03*
X721Y908D03*
X1221Y808D03*
X1221Y1208D03*
X1121Y808D03*
X1121Y1208D03*
X1021Y808D03*
X1021Y1208D03*
G54D14*
X1496Y152D03*
X1359Y152D03*
X1221Y152D03*
X1083Y152D03*
X1996Y157D03*
X1859Y157D03*
X1721Y157D03*
G54D11*
X2021Y508D03*
X1621Y508D03*
G54D17*
X1321Y508D03*
X1421Y508D03*
G54D11*
X521Y2108D03*
X521Y2208D03*
X521Y2308D03*
X2217Y597D03*
X2217Y497D03*
X2217Y397D03*
G54D14*
X2921Y162D03*
X2783Y162D03*
X221Y2108D03*
X221Y2245D03*
X221Y2383D03*
G54D11*
X921Y1408D03*
X921Y1808D03*
X2921Y508D03*
X2521Y508D03*
G54D14*
X896Y151D03*
X759Y151D03*
X621Y151D03*
G54D18*
X1721Y2208D03*
X2721Y1808D03*
G54D19*
X2421Y2609D03*
G54D20*
X1621Y2608D03*
X1321Y2608D03*
G54D21*
X2821Y1508D03*
G54D19*
X120Y1908D03*
X1121Y2609D03*
G54D18*
X421Y1208D03*
X521Y2508D03*
X1521Y1808D03*
X2121Y1808D03*
G54D20*
X2596Y152D03*
X121Y2608D03*
X421Y152D03*
G54D18*
X721Y808D03*
G54D20*
X1496Y152D03*
X1996Y157D03*
X2921Y162D03*
X221Y2108D03*
X896Y151D03*
G54D22*
X1148Y2345D02*
X1260Y2500D01*
X1260Y2500D02*
X1260Y2668D01*
X1260Y2668D02*
X1380Y2668D01*
X1380Y2668D02*
X1434Y2627D01*
D02*
X2245Y498D02*
X2492Y507D01*
D02*
X404Y178D02*
X348Y268D01*
D02*
X348Y268D02*
X348Y364D01*
D02*
X348Y364D02*
X393Y391D01*
D02*
X1872Y185D02*
X2009Y482D01*
D02*
X1402Y2286D02*
X1356Y2236D01*
X1356Y2236D02*
X1260Y2236D01*
X1260Y2236D02*
X1244Y2224D01*
D02*
X781Y173D02*
X996Y377D01*
D02*
X1603Y1484D02*
X1572Y1444D01*
X1572Y1444D02*
X949Y1409D01*
D02*
X1220Y183D02*
X1212Y724D01*
X1212Y724D02*
X1142Y788D01*
D02*
X2517Y372D02*
X2244Y220D01*
X2244Y220D02*
X2244Y100D01*
X2244Y100D02*
X2220Y76D01*
X2220Y76D02*
X1020Y76D01*
X1020Y76D02*
X1020Y220D01*
X1020Y220D02*
X1164Y220D01*
X1164Y220D02*
X1164Y652D01*
X1164Y652D02*
X948Y676D01*
D02*
X948Y676D02*
X448Y326D01*
D02*
X1321Y2576D02*
X1321Y2336D01*
D02*
X2245Y401D02*
X2604Y460D01*
X2604Y460D02*
X2604Y340D01*
X2604Y340D02*
X2508Y292D01*
X2508Y292D02*
X2755Y175D01*
D02*
X1492Y1804D02*
X1284Y1780D01*
X1284Y1780D02*
X1284Y1732D01*
X1284Y1732D02*
X444Y1732D01*
D02*
X444Y1732D02*
X443Y1731D01*
D02*
X2027Y879D02*
X2176Y182D01*
D02*
X1042Y1227D02*
X1188Y1360D01*
X1188Y1360D02*
X2004Y1456D01*
X2004Y1456D02*
X2012Y1480D01*
D02*
X1140Y1186D02*
X1188Y1132D01*
X1188Y1132D02*
X1284Y1132D01*
X1284Y1132D02*
X1284Y1252D01*
X1284Y1252D02*
X2064Y1420D01*
X2064Y1420D02*
X2105Y1483D01*
D02*
X2389Y2604D02*
X2124Y2572D01*
X2124Y2572D02*
X2092Y2533D01*
D02*
X1477Y176D02*
X1260Y460D01*
X1260Y460D02*
X1284Y868D01*
X1284Y868D02*
X1068Y868D01*
X1068Y868D02*
X1038Y830D01*
D02*
X690Y1411D02*
X348Y1444D01*
D02*
X348Y1444D02*
X245Y1536D01*
D02*
X1755Y2577D02*
X1724Y2336D01*
D02*
X2188Y2308D02*
X2154Y2308D01*
D02*
X2389Y2309D02*
X2254Y2308D01*
D02*
X1749Y2211D02*
X2124Y2260D01*
X2124Y2260D02*
X2123Y2275D01*
D02*
X1623Y2576D02*
X1644Y2236D01*
X1644Y2236D02*
X1694Y2217D01*
D02*
X518Y2479D02*
X516Y2452D01*
D02*
X516Y2452D02*
X780Y2380D01*
D02*
X780Y2380D02*
X805Y2336D01*
D02*
X130Y2578D02*
X132Y2572D01*
X132Y2572D02*
X393Y2514D01*
D02*
X235Y2135D02*
X408Y2482D01*
D02*
X396Y1930D02*
X243Y2085D01*
D02*
X2715Y1836D02*
X2642Y2227D01*
D02*
X2121Y1836D02*
X2121Y2275D01*
D02*
X696Y822D02*
X660Y844D01*
D02*
X660Y844D02*
X624Y1182D01*
D02*
X252Y668D02*
X348Y700D01*
D02*
X348Y700D02*
X348Y1084D01*
D02*
X348Y1084D02*
X468Y1084D01*
D02*
X468Y1084D02*
X701Y829D01*
D02*
X1323Y534D02*
X1331Y633D01*
D02*
X745Y892D02*
X780Y868D01*
D02*
X780Y868D02*
X780Y748D01*
D02*
X780Y748D02*
X453Y711D01*
D02*
X888Y2480D02*
X1104Y2134D01*
D02*
X549Y2603D02*
X828Y2560D01*
D02*
X828Y2560D02*
X850Y2533D01*
D02*
X2480Y129D02*
X2532Y76D01*
X2532Y76D02*
X2844Y76D01*
X2844Y76D02*
X2880Y940D01*
X2880Y940D02*
X2868Y964D01*
X2868Y964D02*
X1356Y964D01*
X1356Y964D02*
X1020Y940D01*
X1020Y940D02*
X780Y748D01*
D02*
X537Y2084D02*
X703Y1833D01*
D02*
X246Y1678D02*
X372Y1780D01*
D02*
X372Y1780D02*
X690Y1805D01*
D02*
X306Y1232D02*
X156Y1492D01*
X156Y1492D02*
X156Y1612D01*
X156Y1612D02*
X194Y1639D01*
D02*
X993Y580D02*
X492Y220D01*
D02*
X492Y220D02*
X492Y76D01*
D02*
X492Y76D02*
X228Y76D01*
D02*
X228Y76D02*
X156Y268D01*
X156Y268D02*
X156Y1012D01*
X156Y1012D02*
X302Y1186D01*
D02*
X1267Y1019D02*
X948Y1156D01*
D02*
X948Y1156D02*
X948Y1276D01*
D02*
X948Y1276D02*
X564Y1276D01*
D02*
X564Y1276D02*
X564Y1132D01*
D02*
X564Y1132D02*
X348Y1132D01*
D02*
X348Y1132D02*
X330Y1181D01*
D02*
X1039Y1564D02*
X1908Y1564D01*
X1908Y1564D02*
X1914Y1536D01*
D02*
X799Y1081D02*
X1049Y1039D01*
D02*
X1337Y1180D02*
X1332Y1180D01*
X1332Y1180D02*
X1332Y1228D01*
X1332Y1228D02*
X1716Y1228D01*
X1716Y1228D02*
X1716Y1252D01*
X1716Y1252D02*
X2316Y1468D01*
X2316Y1468D02*
X2317Y1479D01*
D02*
X2821Y2106D02*
X2821Y1836D01*
D02*
X2249Y1804D02*
X2796Y1732D01*
X2796Y1732D02*
X2812Y1780D01*
D02*
X2220Y1929D02*
X2221Y1836D01*
D02*
X1903Y2308D02*
X1988Y2308D01*
D02*
X1615Y1836D02*
X1526Y2279D01*
D02*
X747Y2288D02*
X1068Y2044D01*
X1068Y2044D02*
X1188Y2044D01*
X1188Y2044D02*
X1498Y2290D01*
D02*
X453Y1514D02*
X1596Y1744D01*
X1596Y1744D02*
X1610Y1781D01*
D02*
X2821Y878D02*
X2820Y791D01*
D02*
X2892Y1391D02*
X2892Y1564D01*
X2892Y1564D02*
X2796Y1564D01*
X2796Y1564D02*
X2796Y1732D01*
X2796Y1732D02*
X2812Y1780D01*
D02*
X571Y43D02*
X540Y28D01*
D02*
X540Y28D02*
X156Y28D01*
D02*
X156Y28D02*
X108Y52D01*
X108Y52D02*
X108Y1660D01*
X108Y1660D02*
X324Y1828D01*
D02*
X324Y1828D02*
X516Y1828D01*
D02*
X516Y1828D02*
X516Y1948D01*
D02*
X516Y1948D02*
X444Y1996D01*
D02*
X444Y1996D02*
X444Y2356D01*
D02*
X444Y2356D02*
X564Y2380D01*
D02*
X564Y2380D02*
X564Y2356D01*
D02*
X564Y2356D02*
X1020Y1996D01*
X1020Y1996D02*
X1148Y1910D01*
D02*
X1567Y1658D02*
X2388Y1588D01*
X2388Y1588D02*
X2410Y1535D01*
D02*
X2924Y1643D02*
X2940Y1612D01*
X2940Y1612D02*
X2940Y1324D01*
X2940Y1324D02*
X1447Y1040D01*
D02*
X421Y1640D02*
X421Y1675D01*
G04 End of Copper0*
M02*