; NON-PLATED HOLES START AT T1
; THROUGH (PLATED) HOLES START AT T100
M48
INCH
T100C0.043307
T101C0.015748
T102C0.035000
T103C0.042000
T104C0.030000
T105C0.036000
T106C0.070866
T107C0.040000
T108C0.100000
%
T100
X004207Y015075
X009207Y023075
X007207Y023075
X004207Y007075
X002207Y003575
X002207Y016575
X002207Y008575
X004207Y005075
X007707Y025075
X002207Y006575
X008707Y025075
X004207Y003075
X004207Y016075
X021207Y023075
X004207Y008075
X002207Y004575
X022207Y023075
X020207Y023075
X002207Y009575
X004207Y006075
X002207Y015575
X002207Y007575
X020707Y025075
X021707Y025075
X004207Y004075
X004207Y017075
X004207Y009075
X002207Y005575
X004207Y010075
X008207Y023075
T101
X029160Y016599
X011640Y018999
X018840Y023079
X022200Y019479
X010680Y010359
X028920Y013719
X007799Y010839
X028200Y007719
X012840Y010119
X013320Y006519
X010200Y015639
X015480Y016599
X005879Y000519
X013560Y011799
X014280Y010359
T102
X022167Y004965
X010207Y012075
X012207Y012075
X005207Y021075
X005207Y026075
X013207Y023075
X015207Y023075
X010167Y005965
X014207Y023075
X017207Y023075
X009207Y018075
X010167Y003965
X025420Y003862
X022167Y005965
X015207Y018075
X005207Y022075
X016207Y005075
X016207Y018075
X012207Y018075
X007207Y008075
X022167Y003965
X009207Y014075
X011207Y008075
X025207Y005075
X003207Y012075
X021207Y018075
X010207Y008075
X012207Y008075
X005207Y025075
X020207Y005075
X010167Y004965
X004207Y012075
X022207Y018075
X028207Y018075
X004207Y025075
X029207Y005075
X012207Y022075
X027207Y018075
X017207Y022075
X005207Y023075
X007207Y009075
X011207Y012075
T103
X024207Y026075
X011207Y026075
X004187Y019075
X024207Y023095
X001207Y019075
X011207Y023095
T104
X014209Y005075
X013207Y005075
X007209Y012075
X006207Y012075
T105
X023207Y009075
X015207Y015075
X019207Y009075
X022207Y009075
X014207Y015075
X016207Y009075
X026207Y015075
X028207Y009075
X023207Y015075
X027207Y009075
X019207Y015075
X022207Y015075
X025207Y009075
X024207Y009075
X016207Y015075
X018207Y009075
X021207Y009075
X017207Y009075
X020207Y009075
X028207Y015075
X015207Y009075
X027207Y015075
X014207Y009075
X025207Y015075
X024207Y015075
X026207Y009075
X018207Y015075
X021207Y015075
X017207Y015075
X020207Y015075
T106
X011207Y023075
X024207Y026075
X011207Y026075
X004207Y019075
X001207Y019075
X024207Y023075
T107
X019963Y001565
X016207Y026075
X014585Y026075
X002829Y001515
X018585Y001565
X012207Y001515
X007207Y018075
X013207Y026075
X024207Y021075
X006207Y001514
X002207Y021075
X027829Y001616
X002207Y022453
X020207Y021075
X002207Y023831
X002585Y026075
X014963Y001515
X010829Y001515
X017585Y026075
X013585Y001515
X011207Y021075
X007207Y021075
X007207Y014075
X007585Y001514
X025963Y001515
X021829Y001515
X024585Y001515
X017207Y001565
X004207Y001515
X023207Y001515
X029207Y001616
X008963Y001514
X001207Y026075
T108
X026307Y022875
X028207Y021675
X028207Y024075
T00
M30
