solid OpenSCAD_Model
  facet normal -1 0 0
    outer loop
      vertex -39 -14 -1.25
      vertex -39 14 1.25
      vertex -39 14 -1.25
    endloop
  endfacet
  facet normal -1 -0 0
    outer loop
      vertex -39 14 1.25
      vertex -39 -14 -1.25
      vertex -39 -14 1.25
    endloop
  endfacet
  facet normal 0 0 1
    outer loop
      vertex 39 14 1.25
      vertex 38 13 1.25
      vertex 39 -14 1.25
    endloop
  endfacet
  facet normal 0 0 1
    outer loop
      vertex 39 14 1.25
      vertex -38 13 1.25
      vertex 38 13 1.25
    endloop
  endfacet
  facet normal 0 0 1
    outer loop
      vertex -38 13 1.25
      vertex -39 14 1.25
      vertex -38 -13 1.25
    endloop
  endfacet
  facet normal -0 0 1
    outer loop
      vertex -39 14 1.25
      vertex -38 13 1.25
      vertex 39 14 1.25
    endloop
  endfacet
  facet normal -0 0 1
    outer loop
      vertex 38 -13 1.25
      vertex 39 -14 1.25
      vertex 38 13 1.25
    endloop
  endfacet
  facet normal -0 0 1
    outer loop
      vertex -38 -13 1.25
      vertex 39 -14 1.25
      vertex 38 -13 1.25
    endloop
  endfacet
  facet normal 0 0 1
    outer loop
      vertex -38 -13 1.25
      vertex -39 -14 1.25
      vertex 39 -14 1.25
    endloop
  endfacet
  facet normal 0 0 1
    outer loop
      vertex -39 -14 1.25
      vertex -38 -13 1.25
      vertex -39 14 1.25
    endloop
  endfacet
  facet normal 1 -0 0
    outer loop
      vertex 39 -14 1.25
      vertex 39 14 -1.25
      vertex 39 14 1.25
    endloop
  endfacet
  facet normal 1 0 0
    outer loop
      vertex 39 14 -1.25
      vertex 39 -14 1.25
      vertex 39 -14 -1.25
    endloop
  endfacet
  facet normal 0 1 -0
    outer loop
      vertex 39 14 -1.25
      vertex -39 14 1.25
      vertex 39 14 1.25
    endloop
  endfacet
  facet normal 0 1 0
    outer loop
      vertex -39 14 1.25
      vertex 39 14 -1.25
      vertex -39 14 -1.25
    endloop
  endfacet
  facet normal 0 0 -1
    outer loop
      vertex -38.5 -8.5 -1.25
      vertex -33.5 8.5 -1.25
      vertex -33.5 -8.5 -1.25
    endloop
  endfacet
  facet normal -0 0 -1
    outer loop
      vertex -33.5 8.5 -1.25
      vertex -38.5 -8.5 -1.25
      vertex -38.5 8.5 -1.25
    endloop
  endfacet
  facet normal 0 0 -1
    outer loop
      vertex 33.5 -8.5 -1.25
      vertex 38.5 8.5 -1.25
      vertex 38.5 -8.5 -1.25
    endloop
  endfacet
  facet normal -0 0 -1
    outer loop
      vertex 38.5 8.5 -1.25
      vertex 33.5 -8.5 -1.25
      vertex 33.5 8.5 -1.25
    endloop
  endfacet
  facet normal 0 0 -1
    outer loop
      vertex 38.5 -8.5 -1.25
      vertex 39 -14 -1.25
      vertex 38.5 -13.5 -1.25
    endloop
  endfacet
  facet normal 0 0 -1
    outer loop
      vertex 39 -14 -1.25
      vertex 33.5 -13.5 -1.25
      vertex 38.5 -13.5 -1.25
    endloop
  endfacet
  facet normal 0 0 -1
    outer loop
      vertex -33.5 -8.5 -1.25
      vertex 33.5 -8.5 -1.25
      vertex 33.5 -13.5 -1.25
    endloop
  endfacet
  facet normal 0 0 -1
    outer loop
      vertex 33.5 -8.5 -1.25
      vertex -33.5 -8.5 -1.25
      vertex 33.5 8.5 -1.25
    endloop
  endfacet
  facet normal 0 0 -1
    outer loop
      vertex -33.5 -8.5 -1.25
      vertex 33.5 -13.5 -1.25
      vertex -33.5 -13.5 -1.25
    endloop
  endfacet
  facet normal 0 0 -1
    outer loop
      vertex 39 -14 -1.25
      vertex -33.5 -13.5 -1.25
      vertex 33.5 -13.5 -1.25
    endloop
  endfacet
  facet normal 0 0 -1
    outer loop
      vertex -39 -14 -1.25
      vertex -33.5 -13.5 -1.25
      vertex 39 -14 -1.25
    endloop
  endfacet
  facet normal 0 0 -1
    outer loop
      vertex -39 -14 -1.25
      vertex -38.5 -8.5 -1.25
      vertex -38.5 -13.5 -1.25
    endloop
  endfacet
  facet normal -0 0 -1
    outer loop
      vertex -38.5 -8.5 -1.25
      vertex -39 -14 -1.25
      vertex -38.5 8.5 -1.25
    endloop
  endfacet
  facet normal 0 0 -1
    outer loop
      vertex -39 14 -1.25
      vertex -38.5 8.5 -1.25
      vertex -39 -14 -1.25
    endloop
  endfacet
  facet normal -0 0 -1
    outer loop
      vertex -33.5 -13.5 -1.25
      vertex -39 -14 -1.25
      vertex -38.5 -13.5 -1.25
    endloop
  endfacet
  facet normal 0 0 -1
    outer loop
      vertex 39 -14 -1.25
      vertex 38.5 -8.5 -1.25
      vertex 39 14 -1.25
    endloop
  endfacet
  facet normal 0 0 -1
    outer loop
      vertex 38.5 8.5 -1.25
      vertex 39 14 -1.25
      vertex 38.5 -8.5 -1.25
    endloop
  endfacet
  facet normal 0 0 -1
    outer loop
      vertex 38.5 13.5 -1.25
      vertex 39 14 -1.25
      vertex 38.5 8.5 -1.25
    endloop
  endfacet
  facet normal 0 0 -1
    outer loop
      vertex 33.5 13.5 -1.25
      vertex 39 14 -1.25
      vertex 38.5 13.5 -1.25
    endloop
  endfacet
  facet normal 0 0 -1
    outer loop
      vertex -33.5 8.5 -1.25
      vertex 33.5 8.5 -1.25
      vertex -33.5 -8.5 -1.25
    endloop
  endfacet
  facet normal 0 0 -1
    outer loop
      vertex 33.5 8.5 -1.25
      vertex -33.5 8.5 -1.25
      vertex 33.5 13.5 -1.25
    endloop
  endfacet
  facet normal 0 0 -1
    outer loop
      vertex -33.5 13.5 -1.25
      vertex 33.5 13.5 -1.25
      vertex -33.5 8.5 -1.25
    endloop
  endfacet
  facet normal 0 0 -1
    outer loop
      vertex 33.5 13.5 -1.25
      vertex -33.5 13.5 -1.25
      vertex 39 14 -1.25
    endloop
  endfacet
  facet normal 0 0 -1
    outer loop
      vertex -39 14 -1.25
      vertex -33.5 13.5 -1.25
      vertex -38.5 13.5 -1.25
    endloop
  endfacet
  facet normal 0 0 -1
    outer loop
      vertex -33.5 13.5 -1.25
      vertex -39 14 -1.25
      vertex 39 14 -1.25
    endloop
  endfacet
  facet normal 0 0 -1
    outer loop
      vertex -38.5 8.5 -1.25
      vertex -39 14 -1.25
      vertex -38.5 13.5 -1.25
    endloop
  endfacet
  facet normal 0 -1 0
    outer loop
      vertex -39 -14 -1.25
      vertex 39 -14 1.25
      vertex -39 -14 1.25
    endloop
  endfacet
  facet normal 0 -1 -0
    outer loop
      vertex 39 -14 1.25
      vertex -39 -14 -1.25
      vertex 39 -14 -1.25
    endloop
  endfacet
  facet normal 1 -0 0
    outer loop
      vertex -38 -13 1.25
      vertex -38 13 -0.333333
      vertex -38 13 1.25
    endloop
  endfacet
  facet normal 1 0 0
    outer loop
      vertex -38 13 -0.333333
      vertex -38 -13 1.25
      vertex -38 -13 -0.333333
    endloop
  endfacet
  facet normal -1 0 0
    outer loop
      vertex 38 -13 -0.333333
      vertex 38 13 1.25
      vertex 38 13 -0.333333
    endloop
  endfacet
  facet normal -1 -0 0
    outer loop
      vertex 38 13 1.25
      vertex 38 -13 -0.333333
      vertex 38 -13 1.25
    endloop
  endfacet
  facet normal 0 -1 0
    outer loop
      vertex -38 13 -0.333333
      vertex 38 13 1.25
      vertex -38 13 1.25
    endloop
  endfacet
  facet normal 0 -1 -0
    outer loop
      vertex 38 13 1.25
      vertex -38 13 -0.333333
      vertex 38 13 -0.333333
    endloop
  endfacet
  facet normal -0 0 1
    outer loop
      vertex -38 13 -0.333333
      vertex 38 -13 -0.333333
      vertex 38 13 -0.333333
    endloop
  endfacet
  facet normal 0 0 1
    outer loop
      vertex 38 -13 -0.333333
      vertex -38 13 -0.333333
      vertex -38 -13 -0.333333
    endloop
  endfacet
  facet normal 0 1 -0
    outer loop
      vertex 38 -13 -0.333333
      vertex -38 -13 1.25
      vertex 38 -13 1.25
    endloop
  endfacet
  facet normal 0 1 0
    outer loop
      vertex -38 -13 1.25
      vertex 38 -13 -0.333333
      vertex -38 -13 -0.333333
    endloop
  endfacet
  facet normal -1 0 0
    outer loop
      vertex 33.5 8.5 -11
      vertex 33.5 13.5 -1.25
      vertex 33.5 13.5 -11
    endloop
  endfacet
  facet normal -1 -0 0
    outer loop
      vertex 33.5 13.5 -1.25
      vertex 33.5 8.5 -11
      vertex 33.5 8.5 -1.25
    endloop
  endfacet
  facet normal 1 -0 0
    outer loop
      vertex 38.5 8.5 -1.25
      vertex 38.5 13.5 -11
      vertex 38.5 13.5 -1.25
    endloop
  endfacet
  facet normal 1 0 0
    outer loop
      vertex 38.5 13.5 -11
      vertex 38.5 8.5 -1.25
      vertex 38.5 8.5 -11
    endloop
  endfacet
  facet normal 0 0 -1
    outer loop
      vertex 33.5 8.5 -11
      vertex 38.5 13.5 -11
      vertex 38.5 8.5 -11
    endloop
  endfacet
  facet normal -0 0 -1
    outer loop
      vertex 38.5 13.5 -11
      vertex 33.5 8.5 -11
      vertex 33.5 13.5 -11
    endloop
  endfacet
  facet normal 0 -1 0
    outer loop
      vertex 33.5 8.5 -11
      vertex 38.5 8.5 -1.25
      vertex 33.5 8.5 -1.25
    endloop
  endfacet
  facet normal 0 -1 -0
    outer loop
      vertex 38.5 8.5 -1.25
      vertex 33.5 8.5 -11
      vertex 38.5 8.5 -11
    endloop
  endfacet
  facet normal 0 1 -0
    outer loop
      vertex 38.5 13.5 -11
      vertex 33.5 13.5 -1.25
      vertex 38.5 13.5 -1.25
    endloop
  endfacet
  facet normal 0 1 0
    outer loop
      vertex 33.5 13.5 -1.25
      vertex 38.5 13.5 -11
      vertex 33.5 13.5 -11
    endloop
  endfacet
  facet normal -1 0 0
    outer loop
      vertex -38.5 -13.5 -11
      vertex -38.5 -8.5 -1.25
      vertex -38.5 -8.5 -11
    endloop
  endfacet
  facet normal -1 -0 0
    outer loop
      vertex -38.5 -8.5 -1.25
      vertex -38.5 -13.5 -11
      vertex -38.5 -13.5 -1.25
    endloop
  endfacet
  facet normal 1 -0 0
    outer loop
      vertex -33.5 -13.5 -1.25
      vertex -33.5 -8.5 -11
      vertex -33.5 -8.5 -1.25
    endloop
  endfacet
  facet normal 1 0 0
    outer loop
      vertex -33.5 -8.5 -11
      vertex -33.5 -13.5 -1.25
      vertex -33.5 -13.5 -11
    endloop
  endfacet
  facet normal 0 1 -0
    outer loop
      vertex -33.5 -8.5 -11
      vertex -38.5 -8.5 -1.25
      vertex -33.5 -8.5 -1.25
    endloop
  endfacet
  facet normal 0 1 0
    outer loop
      vertex -38.5 -8.5 -1.25
      vertex -33.5 -8.5 -11
      vertex -38.5 -8.5 -11
    endloop
  endfacet
  facet normal 0 0 -1
    outer loop
      vertex -38.5 -13.5 -11
      vertex -33.5 -8.5 -11
      vertex -33.5 -13.5 -11
    endloop
  endfacet
  facet normal -0 0 -1
    outer loop
      vertex -33.5 -8.5 -11
      vertex -38.5 -13.5 -11
      vertex -38.5 -8.5 -11
    endloop
  endfacet
  facet normal 0 -1 0
    outer loop
      vertex -38.5 -13.5 -11
      vertex -33.5 -13.5 -1.25
      vertex -38.5 -13.5 -1.25
    endloop
  endfacet
  facet normal 0 -1 -0
    outer loop
      vertex -33.5 -13.5 -1.25
      vertex -38.5 -13.5 -11
      vertex -33.5 -13.5 -11
    endloop
  endfacet
  facet normal -1 0 0
    outer loop
      vertex 33.5 -13.5 -11
      vertex 33.5 -8.5 -1.25
      vertex 33.5 -8.5 -11
    endloop
  endfacet
  facet normal -1 -0 0
    outer loop
      vertex 33.5 -8.5 -1.25
      vertex 33.5 -13.5 -11
      vertex 33.5 -13.5 -1.25
    endloop
  endfacet
  facet normal 1 -0 0
    outer loop
      vertex 38.5 -13.5 -1.25
      vertex 38.5 -8.5 -11
      vertex 38.5 -8.5 -1.25
    endloop
  endfacet
  facet normal 1 0 0
    outer loop
      vertex 38.5 -8.5 -11
      vertex 38.5 -13.5 -1.25
      vertex 38.5 -13.5 -11
    endloop
  endfacet
  facet normal 0 0 -1
    outer loop
      vertex 33.5 -13.5 -11
      vertex 38.5 -8.5 -11
      vertex 38.5 -13.5 -11
    endloop
  endfacet
  facet normal -0 0 -1
    outer loop
      vertex 38.5 -8.5 -11
      vertex 33.5 -13.5 -11
      vertex 33.5 -8.5 -11
    endloop
  endfacet
  facet normal 0 -1 0
    outer loop
      vertex 33.5 -13.5 -11
      vertex 38.5 -13.5 -1.25
      vertex 33.5 -13.5 -1.25
    endloop
  endfacet
  facet normal 0 -1 -0
    outer loop
      vertex 38.5 -13.5 -1.25
      vertex 33.5 -13.5 -11
      vertex 38.5 -13.5 -11
    endloop
  endfacet
  facet normal 0 1 -0
    outer loop
      vertex 38.5 -8.5 -11
      vertex 33.5 -8.5 -1.25
      vertex 38.5 -8.5 -1.25
    endloop
  endfacet
  facet normal 0 1 0
    outer loop
      vertex 33.5 -8.5 -1.25
      vertex 38.5 -8.5 -11
      vertex 33.5 -8.5 -11
    endloop
  endfacet
  facet normal -1 0 0
    outer loop
      vertex -38.5 8.5 -11
      vertex -38.5 13.5 -1.25
      vertex -38.5 13.5 -11
    endloop
  endfacet
  facet normal -1 -0 0
    outer loop
      vertex -38.5 13.5 -1.25
      vertex -38.5 8.5 -11
      vertex -38.5 8.5 -1.25
    endloop
  endfacet
  facet normal 1 -0 0
    outer loop
      vertex -33.5 8.5 -1.25
      vertex -33.5 13.5 -11
      vertex -33.5 13.5 -1.25
    endloop
  endfacet
  facet normal 1 0 0
    outer loop
      vertex -33.5 13.5 -11
      vertex -33.5 8.5 -1.25
      vertex -33.5 8.5 -11
    endloop
  endfacet
  facet normal 0 0 -1
    outer loop
      vertex -38.5 8.5 -11
      vertex -33.5 13.5 -11
      vertex -33.5 8.5 -11
    endloop
  endfacet
  facet normal -0 0 -1
    outer loop
      vertex -33.5 13.5 -11
      vertex -38.5 8.5 -11
      vertex -38.5 13.5 -11
    endloop
  endfacet
  facet normal 0 -1 0
    outer loop
      vertex -38.5 8.5 -11
      vertex -33.5 8.5 -1.25
      vertex -38.5 8.5 -1.25
    endloop
  endfacet
  facet normal 0 -1 -0
    outer loop
      vertex -33.5 8.5 -1.25
      vertex -38.5 8.5 -11
      vertex -33.5 8.5 -11
    endloop
  endfacet
  facet normal 0 1 -0
    outer loop
      vertex -33.5 13.5 -11
      vertex -38.5 13.5 -1.25
      vertex -33.5 13.5 -1.25
    endloop
  endfacet
  facet normal 0 1 0
    outer loop
      vertex -38.5 13.5 -1.25
      vertex -33.5 13.5 -11
      vertex -38.5 13.5 -11
    endloop
  endfacet
endsolid OpenSCAD_Model
