%TF.GenerationSoftware,KiCad,Pcbnew,5.1.10-88a1d61d58~88~ubuntu20.04.1*%
%TF.CreationDate,2021-05-12T17:41:59+01:00*%
%TF.ProjectId,flypi,666c7970-692e-46b6-9963-61645f706362,rev?*%
%TF.SameCoordinates,Original*%
%TF.FileFunction,Legend,Top*%
%TF.FilePolarity,Positive*%
%FSLAX46Y46*%
G04 Gerber Fmt 4.6, Leading zero omitted, Abs format (unit mm)*
G04 Created by KiCad (PCBNEW 5.1.10-88a1d61d58~88~ubuntu20.04.1) date 2021-05-12 17:41:59*
%MOMM*%
%LPD*%
G01*
G04 APERTURE LIST*
%ADD10C,0.300000*%
%ADD11C,0.120000*%
%ADD12C,0.150000*%
%ADD13C,0.010000*%
%ADD14C,0.100000*%
G04 APERTURE END LIST*
D10*
X138392857Y-79321428D02*
X138392857Y-79821428D01*
X139178571Y-79821428D02*
X137678571Y-79821428D01*
X137678571Y-79107142D01*
X139178571Y-78321428D02*
X139107142Y-78464285D01*
X138964285Y-78535714D01*
X137678571Y-78535714D01*
X138178571Y-77892857D02*
X139178571Y-77535714D01*
X138178571Y-77178571D02*
X139178571Y-77535714D01*
X139535714Y-77678571D01*
X139607142Y-77750000D01*
X139678571Y-77892857D01*
X138178571Y-75464285D02*
X139678571Y-75464285D01*
X138250000Y-75464285D02*
X138178571Y-75321428D01*
X138178571Y-75035714D01*
X138250000Y-74892857D01*
X138321428Y-74821428D01*
X138464285Y-74750000D01*
X138892857Y-74750000D01*
X139035714Y-74821428D01*
X139107142Y-74892857D01*
X139178571Y-75035714D01*
X139178571Y-75321428D01*
X139107142Y-75464285D01*
X139178571Y-74107142D02*
X138178571Y-74107142D01*
X137678571Y-74107142D02*
X137750000Y-74178571D01*
X137821428Y-74107142D01*
X137750000Y-74035714D01*
X137678571Y-74107142D01*
X137821428Y-74107142D01*
X139178571Y-72250000D02*
X138178571Y-72250000D01*
X138464285Y-72250000D02*
X138321428Y-72178571D01*
X138250000Y-72107142D01*
X138178571Y-71964285D01*
X138178571Y-71821428D01*
X139107142Y-70750000D02*
X139178571Y-70892857D01*
X139178571Y-71178571D01*
X139107142Y-71321428D01*
X138964285Y-71392857D01*
X138392857Y-71392857D01*
X138250000Y-71321428D01*
X138178571Y-71178571D01*
X138178571Y-70892857D01*
X138250000Y-70750000D01*
X138392857Y-70678571D01*
X138535714Y-70678571D01*
X138678571Y-71392857D01*
X138178571Y-70178571D02*
X139178571Y-69821428D01*
X138178571Y-69464285D01*
X139035714Y-68892857D02*
X139107142Y-68821428D01*
X139178571Y-68892857D01*
X139107142Y-68964285D01*
X139035714Y-68892857D01*
X139178571Y-68892857D01*
X137678571Y-66750000D02*
X137678571Y-66607142D01*
X137750000Y-66464285D01*
X137821428Y-66392857D01*
X137964285Y-66321428D01*
X138250000Y-66250000D01*
X138607142Y-66250000D01*
X138892857Y-66321428D01*
X139035714Y-66392857D01*
X139107142Y-66464285D01*
X139178571Y-66607142D01*
X139178571Y-66750000D01*
X139107142Y-66892857D01*
X139035714Y-66964285D01*
X138892857Y-67035714D01*
X138607142Y-67107142D01*
X138250000Y-67107142D01*
X137964285Y-67035714D01*
X137821428Y-66964285D01*
X137750000Y-66892857D01*
X137678571Y-66750000D01*
X139035714Y-65607142D02*
X139107142Y-65535714D01*
X139178571Y-65607142D01*
X139107142Y-65678571D01*
X139035714Y-65607142D01*
X139178571Y-65607142D01*
X137678571Y-64250000D02*
X137678571Y-64535714D01*
X137750000Y-64678571D01*
X137821428Y-64750000D01*
X138035714Y-64892857D01*
X138321428Y-64964285D01*
X138892857Y-64964285D01*
X139035714Y-64892857D01*
X139107142Y-64821428D01*
X139178571Y-64678571D01*
X139178571Y-64392857D01*
X139107142Y-64250000D01*
X139035714Y-64178571D01*
X138892857Y-64107142D01*
X138535714Y-64107142D01*
X138392857Y-64178571D01*
X138321428Y-64250000D01*
X138250000Y-64392857D01*
X138250000Y-64678571D01*
X138321428Y-64821428D01*
X138392857Y-64892857D01*
X138535714Y-64964285D01*
X140371428Y-76285714D02*
X140300000Y-76214285D01*
X140228571Y-76071428D01*
X140228571Y-75714285D01*
X140300000Y-75571428D01*
X140371428Y-75500000D01*
X140514285Y-75428571D01*
X140657142Y-75428571D01*
X140871428Y-75500000D01*
X141728571Y-76357142D01*
X141728571Y-75428571D01*
X140228571Y-74500000D02*
X140228571Y-74357142D01*
X140300000Y-74214285D01*
X140371428Y-74142857D01*
X140514285Y-74071428D01*
X140800000Y-74000000D01*
X141157142Y-74000000D01*
X141442857Y-74071428D01*
X141585714Y-74142857D01*
X141657142Y-74214285D01*
X141728571Y-74357142D01*
X141728571Y-74500000D01*
X141657142Y-74642857D01*
X141585714Y-74714285D01*
X141442857Y-74785714D01*
X141157142Y-74857142D01*
X140800000Y-74857142D01*
X140514285Y-74785714D01*
X140371428Y-74714285D01*
X140300000Y-74642857D01*
X140228571Y-74500000D01*
X141728571Y-72571428D02*
X141728571Y-73428571D01*
X141728571Y-73000000D02*
X140228571Y-73000000D01*
X140442857Y-73142857D01*
X140585714Y-73285714D01*
X140657142Y-73428571D01*
X140228571Y-72071428D02*
X140228571Y-71071428D01*
X141728571Y-71714285D01*
X141728571Y-69714285D02*
X141728571Y-70571428D01*
X141728571Y-70142857D02*
X140228571Y-70142857D01*
X140442857Y-70285714D01*
X140585714Y-70428571D01*
X140657142Y-70571428D01*
X140371428Y-69142857D02*
X140300000Y-69071428D01*
X140228571Y-68928571D01*
X140228571Y-68571428D01*
X140300000Y-68428571D01*
X140371428Y-68357142D01*
X140514285Y-68285714D01*
X140657142Y-68285714D01*
X140871428Y-68357142D01*
X141728571Y-69214285D01*
X141728571Y-68285714D01*
X140228571Y-67357142D02*
X140228571Y-67214285D01*
X140300000Y-67071428D01*
X140371428Y-67000000D01*
X140514285Y-66928571D01*
X140800000Y-66857142D01*
X141157142Y-66857142D01*
X141442857Y-66928571D01*
X141585714Y-67000000D01*
X141657142Y-67071428D01*
X141728571Y-67214285D01*
X141728571Y-67357142D01*
X141657142Y-67500000D01*
X141585714Y-67571428D01*
X141442857Y-67642857D01*
X141157142Y-67714285D01*
X140800000Y-67714285D01*
X140514285Y-67642857D01*
X140371428Y-67571428D01*
X140300000Y-67500000D01*
X140228571Y-67357142D01*
X140228571Y-66357142D02*
X140228571Y-65428571D01*
X140800000Y-65928571D01*
X140800000Y-65714285D01*
X140871428Y-65571428D01*
X140942857Y-65500000D01*
X141085714Y-65428571D01*
X141442857Y-65428571D01*
X141585714Y-65500000D01*
X141657142Y-65571428D01*
X141728571Y-65714285D01*
X141728571Y-66142857D01*
X141657142Y-66285714D01*
X141585714Y-66357142D01*
X144135714Y-76607142D02*
X144207142Y-76678571D01*
X144278571Y-76892857D01*
X144278571Y-77035714D01*
X144207142Y-77250000D01*
X144064285Y-77392857D01*
X143921428Y-77464285D01*
X143635714Y-77535714D01*
X143421428Y-77535714D01*
X143135714Y-77464285D01*
X142992857Y-77392857D01*
X142850000Y-77250000D01*
X142778571Y-77035714D01*
X142778571Y-76892857D01*
X142850000Y-76678571D01*
X142921428Y-76607142D01*
X144135714Y-75107142D02*
X144207142Y-75178571D01*
X144278571Y-75392857D01*
X144278571Y-75535714D01*
X144207142Y-75750000D01*
X144064285Y-75892857D01*
X143921428Y-75964285D01*
X143635714Y-76035714D01*
X143421428Y-76035714D01*
X143135714Y-75964285D01*
X142992857Y-75892857D01*
X142850000Y-75750000D01*
X142778571Y-75535714D01*
X142778571Y-75392857D01*
X142850000Y-75178571D01*
X142921428Y-75107142D01*
X143492857Y-72821428D02*
X143564285Y-72607142D01*
X143635714Y-72535714D01*
X143778571Y-72464285D01*
X143992857Y-72464285D01*
X144135714Y-72535714D01*
X144207142Y-72607142D01*
X144278571Y-72750000D01*
X144278571Y-73321428D01*
X142778571Y-73321428D01*
X142778571Y-72821428D01*
X142850000Y-72678571D01*
X142921428Y-72607142D01*
X143064285Y-72535714D01*
X143207142Y-72535714D01*
X143350000Y-72607142D01*
X143421428Y-72678571D01*
X143492857Y-72821428D01*
X143492857Y-73321428D01*
X143564285Y-71535714D02*
X144278571Y-71535714D01*
X142778571Y-72035714D02*
X143564285Y-71535714D01*
X142778571Y-71035714D01*
X143278571Y-68750000D02*
X144278571Y-68750000D01*
X142707142Y-69107142D02*
X143778571Y-69464285D01*
X143778571Y-68535714D01*
X144135714Y-67964285D02*
X144207142Y-67892857D01*
X144278571Y-67964285D01*
X144207142Y-68035714D01*
X144135714Y-67964285D01*
X144278571Y-67964285D01*
X142778571Y-66964285D02*
X142778571Y-66821428D01*
X142850000Y-66678571D01*
X142921428Y-66607142D01*
X143064285Y-66535714D01*
X143350000Y-66464285D01*
X143707142Y-66464285D01*
X143992857Y-66535714D01*
X144135714Y-66607142D01*
X144207142Y-66678571D01*
X144278571Y-66821428D01*
X144278571Y-66964285D01*
X144207142Y-67107142D01*
X144135714Y-67178571D01*
X143992857Y-67250000D01*
X143707142Y-67321428D01*
X143350000Y-67321428D01*
X143064285Y-67250000D01*
X142921428Y-67178571D01*
X142850000Y-67107142D01*
X142778571Y-66964285D01*
X146685714Y-83607142D02*
X146757142Y-83678571D01*
X146828571Y-83892857D01*
X146828571Y-84035714D01*
X146757142Y-84250000D01*
X146614285Y-84392857D01*
X146471428Y-84464285D01*
X146185714Y-84535714D01*
X145971428Y-84535714D01*
X145685714Y-84464285D01*
X145542857Y-84392857D01*
X145400000Y-84250000D01*
X145328571Y-84035714D01*
X145328571Y-83892857D01*
X145400000Y-83678571D01*
X145471428Y-83607142D01*
X146828571Y-82964285D02*
X145828571Y-82964285D01*
X146114285Y-82964285D02*
X145971428Y-82892857D01*
X145900000Y-82821428D01*
X145828571Y-82678571D01*
X145828571Y-82535714D01*
X146757142Y-81464285D02*
X146828571Y-81607142D01*
X146828571Y-81892857D01*
X146757142Y-82035714D01*
X146614285Y-82107142D01*
X146042857Y-82107142D01*
X145900000Y-82035714D01*
X145828571Y-81892857D01*
X145828571Y-81607142D01*
X145900000Y-81464285D01*
X146042857Y-81392857D01*
X146185714Y-81392857D01*
X146328571Y-82107142D01*
X146828571Y-80107142D02*
X146042857Y-80107142D01*
X145900000Y-80178571D01*
X145828571Y-80321428D01*
X145828571Y-80607142D01*
X145900000Y-80750000D01*
X146757142Y-80107142D02*
X146828571Y-80250000D01*
X146828571Y-80607142D01*
X146757142Y-80750000D01*
X146614285Y-80821428D01*
X146471428Y-80821428D01*
X146328571Y-80750000D01*
X146257142Y-80607142D01*
X146257142Y-80250000D01*
X146185714Y-80107142D01*
X145828571Y-79607142D02*
X145828571Y-79035714D01*
X145328571Y-79392857D02*
X146614285Y-79392857D01*
X146757142Y-79321428D01*
X146828571Y-79178571D01*
X146828571Y-79035714D01*
X146757142Y-77964285D02*
X146828571Y-78107142D01*
X146828571Y-78392857D01*
X146757142Y-78535714D01*
X146614285Y-78607142D01*
X146042857Y-78607142D01*
X145900000Y-78535714D01*
X145828571Y-78392857D01*
X145828571Y-78107142D01*
X145900000Y-77964285D01*
X146042857Y-77892857D01*
X146185714Y-77892857D01*
X146328571Y-78607142D01*
X146828571Y-76607142D02*
X145328571Y-76607142D01*
X146757142Y-76607142D02*
X146828571Y-76750000D01*
X146828571Y-77035714D01*
X146757142Y-77178571D01*
X146685714Y-77250000D01*
X146542857Y-77321428D01*
X146114285Y-77321428D01*
X145971428Y-77250000D01*
X145900000Y-77178571D01*
X145828571Y-77035714D01*
X145828571Y-76750000D01*
X145900000Y-76607142D01*
X146828571Y-74750000D02*
X145328571Y-74750000D01*
X145900000Y-74750000D02*
X145828571Y-74607142D01*
X145828571Y-74321428D01*
X145900000Y-74178571D01*
X145971428Y-74107142D01*
X146114285Y-74035714D01*
X146542857Y-74035714D01*
X146685714Y-74107142D01*
X146757142Y-74178571D01*
X146828571Y-74321428D01*
X146828571Y-74607142D01*
X146757142Y-74750000D01*
X145828571Y-73535714D02*
X146828571Y-73178571D01*
X145828571Y-72821428D02*
X146828571Y-73178571D01*
X147185714Y-73321428D01*
X147257142Y-73392857D01*
X147328571Y-73535714D01*
X146400000Y-71178571D02*
X146400000Y-70464285D01*
X146828571Y-71321428D02*
X145328571Y-70821428D01*
X146828571Y-70321428D01*
X146828571Y-69821428D02*
X145328571Y-69821428D01*
X146400000Y-69321428D01*
X145328571Y-68821428D01*
X146828571Y-68821428D01*
X146685714Y-66107142D02*
X146757142Y-66178571D01*
X146828571Y-66392857D01*
X146828571Y-66535714D01*
X146757142Y-66750000D01*
X146614285Y-66892857D01*
X146471428Y-66964285D01*
X146185714Y-67035714D01*
X145971428Y-67035714D01*
X145685714Y-66964285D01*
X145542857Y-66892857D01*
X145400000Y-66750000D01*
X145328571Y-66535714D01*
X145328571Y-66392857D01*
X145400000Y-66178571D01*
X145471428Y-66107142D01*
X146828571Y-65464285D02*
X145328571Y-65464285D01*
X146828571Y-64821428D02*
X146042857Y-64821428D01*
X145900000Y-64892857D01*
X145828571Y-65035714D01*
X145828571Y-65250000D01*
X145900000Y-65392857D01*
X145971428Y-65464285D01*
X146828571Y-63464285D02*
X146042857Y-63464285D01*
X145900000Y-63535714D01*
X145828571Y-63678571D01*
X145828571Y-63964285D01*
X145900000Y-64107142D01*
X146757142Y-63464285D02*
X146828571Y-63607142D01*
X146828571Y-63964285D01*
X146757142Y-64107142D01*
X146614285Y-64178571D01*
X146471428Y-64178571D01*
X146328571Y-64107142D01*
X146257142Y-63964285D01*
X146257142Y-63607142D01*
X146185714Y-63464285D01*
X145828571Y-62107142D02*
X147042857Y-62107142D01*
X147185714Y-62178571D01*
X147257142Y-62250000D01*
X147328571Y-62392857D01*
X147328571Y-62607142D01*
X147257142Y-62750000D01*
X146757142Y-62107142D02*
X146828571Y-62250000D01*
X146828571Y-62535714D01*
X146757142Y-62678571D01*
X146685714Y-62750000D01*
X146542857Y-62821428D01*
X146114285Y-62821428D01*
X145971428Y-62750000D01*
X145900000Y-62678571D01*
X145828571Y-62535714D01*
X145828571Y-62250000D01*
X145900000Y-62107142D01*
X146828571Y-60750000D02*
X146042857Y-60750000D01*
X145900000Y-60821428D01*
X145828571Y-60964285D01*
X145828571Y-61250000D01*
X145900000Y-61392857D01*
X146757142Y-60750000D02*
X146828571Y-60892857D01*
X146828571Y-61250000D01*
X146757142Y-61392857D01*
X146614285Y-61464285D01*
X146471428Y-61464285D01*
X146328571Y-61392857D01*
X146257142Y-61250000D01*
X146257142Y-60892857D01*
X146185714Y-60750000D01*
X146757142Y-60107142D02*
X146828571Y-59964285D01*
X146828571Y-59678571D01*
X146757142Y-59535714D01*
X146614285Y-59464285D01*
X146542857Y-59464285D01*
X146400000Y-59535714D01*
X146328571Y-59678571D01*
X146328571Y-59892857D01*
X146257142Y-60035714D01*
X146114285Y-60107142D01*
X146042857Y-60107142D01*
X145900000Y-60035714D01*
X145828571Y-59892857D01*
X145828571Y-59678571D01*
X145900000Y-59535714D01*
D11*
%TO.C,Q2*%
X115740000Y-56850000D02*
X119340000Y-56850000D01*
X115215816Y-56122795D02*
G75*
G03*
X115740000Y-56850000I2324184J1122795D01*
G01*
X115183600Y-53901193D02*
G75*
G02*
X117540000Y-52400000I2356400J-1098807D01*
G01*
X119896400Y-53901193D02*
G75*
G03*
X117540000Y-52400000I-2356400J-1098807D01*
G01*
X119864184Y-56122795D02*
G75*
G02*
X119340000Y-56850000I-2324184J1122795D01*
G01*
D12*
%TO.C,U5*%
X135263000Y-51807000D02*
X135263000Y-53077000D01*
X150233000Y-51807000D02*
X150233000Y-53077000D01*
X150233000Y-94497000D02*
X150233000Y-93227000D01*
X135263000Y-94497000D02*
X135263000Y-93227000D01*
X135263000Y-51807000D02*
X150233000Y-51807000D01*
X135263000Y-94497000D02*
X150233000Y-94497000D01*
X135263000Y-53077000D02*
X133978000Y-53077000D01*
%TO.C,C2*%
X163414000Y-61387000D02*
X163414000Y-51389000D01*
X163274000Y-61383000D02*
X163274000Y-51393000D01*
X163134000Y-61375000D02*
X163134000Y-51401000D01*
X162994000Y-61363000D02*
X162994000Y-51413000D01*
X162854000Y-61348000D02*
X162854000Y-51428000D01*
X162714000Y-61328000D02*
X162714000Y-51448000D01*
X162574000Y-61304000D02*
X162574000Y-51472000D01*
X162434000Y-61275000D02*
X162434000Y-51501000D01*
X162294000Y-61243000D02*
X162294000Y-51533000D01*
X162154000Y-61206000D02*
X162154000Y-51570000D01*
X162014000Y-61165000D02*
X162014000Y-51611000D01*
X161874000Y-61120000D02*
X161874000Y-56854000D01*
X161874000Y-55922000D02*
X161874000Y-51656000D01*
X161734000Y-61070000D02*
X161734000Y-57055000D01*
X161734000Y-55721000D02*
X161734000Y-51706000D01*
X161594000Y-61015000D02*
X161594000Y-57184000D01*
X161594000Y-55592000D02*
X161594000Y-51761000D01*
X161454000Y-60955000D02*
X161454000Y-57273000D01*
X161454000Y-55503000D02*
X161454000Y-51821000D01*
X161314000Y-60890000D02*
X161314000Y-57334000D01*
X161314000Y-55442000D02*
X161314000Y-51886000D01*
X161174000Y-60820000D02*
X161174000Y-57371000D01*
X161174000Y-55405000D02*
X161174000Y-51956000D01*
X161034000Y-60744000D02*
X161034000Y-57387000D01*
X161034000Y-55389000D02*
X161034000Y-52032000D01*
X160894000Y-60662000D02*
X160894000Y-57383000D01*
X160894000Y-55393000D02*
X160894000Y-52114000D01*
X160754000Y-60574000D02*
X160754000Y-57360000D01*
X160754000Y-55416000D02*
X160754000Y-52202000D01*
X160614000Y-60479000D02*
X160614000Y-57315000D01*
X160614000Y-55461000D02*
X160614000Y-52297000D01*
X160474000Y-60377000D02*
X160474000Y-57245000D01*
X160474000Y-55531000D02*
X160474000Y-52399000D01*
X160334000Y-60267000D02*
X160334000Y-57144000D01*
X160334000Y-55632000D02*
X160334000Y-52509000D01*
X160194000Y-60149000D02*
X160194000Y-56995000D01*
X160194000Y-55781000D02*
X160194000Y-52627000D01*
X160054000Y-60021000D02*
X160054000Y-56743000D01*
X160054000Y-56033000D02*
X160054000Y-52755000D01*
X159914000Y-59884000D02*
X159914000Y-52892000D01*
X159774000Y-59734000D02*
X159774000Y-53042000D01*
X159634000Y-59572000D02*
X159634000Y-53204000D01*
X159494000Y-59395000D02*
X159494000Y-53381000D01*
X159354000Y-59199000D02*
X159354000Y-53577000D01*
X159214000Y-58981000D02*
X159214000Y-53795000D01*
X159074000Y-58735000D02*
X159074000Y-54041000D01*
X158934000Y-58450000D02*
X158934000Y-54326000D01*
X158794000Y-58108000D02*
X158794000Y-54668000D01*
X158654000Y-57662000D02*
X158654000Y-55114000D01*
X158514000Y-56887000D02*
X158514000Y-55889000D01*
X161989000Y-56388000D02*
G75*
G03*
X161989000Y-56388000I-1000000J0D01*
G01*
X168526500Y-56388000D02*
G75*
G03*
X168526500Y-56388000I-5037500J0D01*
G01*
%TO.C,C1*%
X161498000Y-84674000D02*
X171496000Y-84674000D01*
X161502000Y-84534000D02*
X171492000Y-84534000D01*
X161510000Y-84394000D02*
X171484000Y-84394000D01*
X161522000Y-84254000D02*
X171472000Y-84254000D01*
X161537000Y-84114000D02*
X171457000Y-84114000D01*
X161557000Y-83974000D02*
X171437000Y-83974000D01*
X161581000Y-83834000D02*
X171413000Y-83834000D01*
X161610000Y-83694000D02*
X171384000Y-83694000D01*
X161642000Y-83554000D02*
X171352000Y-83554000D01*
X161679000Y-83414000D02*
X171315000Y-83414000D01*
X161720000Y-83274000D02*
X171274000Y-83274000D01*
X161765000Y-83134000D02*
X166031000Y-83134000D01*
X166963000Y-83134000D02*
X171229000Y-83134000D01*
X161815000Y-82994000D02*
X165830000Y-82994000D01*
X167164000Y-82994000D02*
X171179000Y-82994000D01*
X161870000Y-82854000D02*
X165701000Y-82854000D01*
X167293000Y-82854000D02*
X171124000Y-82854000D01*
X161930000Y-82714000D02*
X165612000Y-82714000D01*
X167382000Y-82714000D02*
X171064000Y-82714000D01*
X161995000Y-82574000D02*
X165551000Y-82574000D01*
X167443000Y-82574000D02*
X170999000Y-82574000D01*
X162065000Y-82434000D02*
X165514000Y-82434000D01*
X167480000Y-82434000D02*
X170929000Y-82434000D01*
X162141000Y-82294000D02*
X165498000Y-82294000D01*
X167496000Y-82294000D02*
X170853000Y-82294000D01*
X162223000Y-82154000D02*
X165502000Y-82154000D01*
X167492000Y-82154000D02*
X170771000Y-82154000D01*
X162311000Y-82014000D02*
X165525000Y-82014000D01*
X167469000Y-82014000D02*
X170683000Y-82014000D01*
X162406000Y-81874000D02*
X165570000Y-81874000D01*
X167424000Y-81874000D02*
X170588000Y-81874000D01*
X162508000Y-81734000D02*
X165640000Y-81734000D01*
X167354000Y-81734000D02*
X170486000Y-81734000D01*
X162618000Y-81594000D02*
X165741000Y-81594000D01*
X167253000Y-81594000D02*
X170376000Y-81594000D01*
X162736000Y-81454000D02*
X165890000Y-81454000D01*
X167104000Y-81454000D02*
X170258000Y-81454000D01*
X162864000Y-81314000D02*
X166142000Y-81314000D01*
X166852000Y-81314000D02*
X170130000Y-81314000D01*
X163001000Y-81174000D02*
X169993000Y-81174000D01*
X163151000Y-81034000D02*
X169843000Y-81034000D01*
X163313000Y-80894000D02*
X169681000Y-80894000D01*
X163490000Y-80754000D02*
X169504000Y-80754000D01*
X163686000Y-80614000D02*
X169308000Y-80614000D01*
X163904000Y-80474000D02*
X169090000Y-80474000D01*
X164150000Y-80334000D02*
X168844000Y-80334000D01*
X164435000Y-80194000D02*
X168559000Y-80194000D01*
X164777000Y-80054000D02*
X168217000Y-80054000D01*
X165223000Y-79914000D02*
X167771000Y-79914000D01*
X165998000Y-79774000D02*
X166996000Y-79774000D01*
X167497000Y-82249000D02*
G75*
G03*
X167497000Y-82249000I-1000000J0D01*
G01*
X171534500Y-84749000D02*
G75*
G03*
X171534500Y-84749000I-5037500J0D01*
G01*
%TO.C,C5*%
X175571000Y-82231000D02*
X175571000Y-74233000D01*
X175431000Y-82226000D02*
X175431000Y-74238000D01*
X175291000Y-82216000D02*
X175291000Y-74248000D01*
X175151000Y-82201000D02*
X175151000Y-74263000D01*
X175011000Y-82181000D02*
X175011000Y-74283000D01*
X174871000Y-82156000D02*
X174871000Y-74308000D01*
X174731000Y-82126000D02*
X174731000Y-78405000D01*
X174731000Y-78059000D02*
X174731000Y-74338000D01*
X174591000Y-82090000D02*
X174591000Y-78767000D01*
X174591000Y-77697000D02*
X174591000Y-74374000D01*
X174451000Y-82049000D02*
X174451000Y-78941000D01*
X174451000Y-77523000D02*
X174451000Y-74415000D01*
X174311000Y-82003000D02*
X174311000Y-79057000D01*
X174311000Y-77407000D02*
X174311000Y-74461000D01*
X174171000Y-81950000D02*
X174171000Y-79137000D01*
X174171000Y-77327000D02*
X174171000Y-74514000D01*
X174031000Y-81891000D02*
X174031000Y-79191000D01*
X174031000Y-77273000D02*
X174031000Y-74573000D01*
X173891000Y-81826000D02*
X173891000Y-79221000D01*
X173891000Y-77243000D02*
X173891000Y-74638000D01*
X173751000Y-81755000D02*
X173751000Y-79232000D01*
X173751000Y-77232000D02*
X173751000Y-74709000D01*
X173611000Y-81676000D02*
X173611000Y-79223000D01*
X173611000Y-77241000D02*
X173611000Y-74788000D01*
X173471000Y-81589000D02*
X173471000Y-79193000D01*
X173471000Y-77271000D02*
X173471000Y-74875000D01*
X173331000Y-81494000D02*
X173331000Y-79142000D01*
X173331000Y-77322000D02*
X173331000Y-74970000D01*
X173191000Y-81390000D02*
X173191000Y-79064000D01*
X173191000Y-77400000D02*
X173191000Y-75074000D01*
X173051000Y-81276000D02*
X173051000Y-78951000D01*
X173051000Y-77513000D02*
X173051000Y-75188000D01*
X172911000Y-81151000D02*
X172911000Y-78782000D01*
X172911000Y-77682000D02*
X172911000Y-75313000D01*
X172771000Y-81013000D02*
X172771000Y-78454000D01*
X172771000Y-78010000D02*
X172771000Y-75451000D01*
X172631000Y-80861000D02*
X172631000Y-75603000D01*
X172491000Y-80691000D02*
X172491000Y-75773000D01*
X172351000Y-80500000D02*
X172351000Y-75964000D01*
X172211000Y-80282000D02*
X172211000Y-76182000D01*
X172071000Y-80026000D02*
X172071000Y-76438000D01*
X171931000Y-79715000D02*
X171931000Y-76749000D01*
X171791000Y-79299000D02*
X171791000Y-77165000D01*
X171651000Y-78432000D02*
X171651000Y-78032000D01*
X174746000Y-78232000D02*
G75*
G03*
X174746000Y-78232000I-1000000J0D01*
G01*
X179683500Y-78232000D02*
G75*
G03*
X179683500Y-78232000I-4037500J0D01*
G01*
%TO.C,C6*%
X154001000Y-93525000D02*
X161999000Y-93525000D01*
X154006000Y-93385000D02*
X161994000Y-93385000D01*
X154016000Y-93245000D02*
X161984000Y-93245000D01*
X154031000Y-93105000D02*
X161969000Y-93105000D01*
X154051000Y-92965000D02*
X161949000Y-92965000D01*
X154076000Y-92825000D02*
X161924000Y-92825000D01*
X154106000Y-92685000D02*
X157827000Y-92685000D01*
X158173000Y-92685000D02*
X161894000Y-92685000D01*
X154142000Y-92545000D02*
X157465000Y-92545000D01*
X158535000Y-92545000D02*
X161858000Y-92545000D01*
X154183000Y-92405000D02*
X157291000Y-92405000D01*
X158709000Y-92405000D02*
X161817000Y-92405000D01*
X154229000Y-92265000D02*
X157175000Y-92265000D01*
X158825000Y-92265000D02*
X161771000Y-92265000D01*
X154282000Y-92125000D02*
X157095000Y-92125000D01*
X158905000Y-92125000D02*
X161718000Y-92125000D01*
X154341000Y-91985000D02*
X157041000Y-91985000D01*
X158959000Y-91985000D02*
X161659000Y-91985000D01*
X154406000Y-91845000D02*
X157011000Y-91845000D01*
X158989000Y-91845000D02*
X161594000Y-91845000D01*
X154477000Y-91705000D02*
X157000000Y-91705000D01*
X159000000Y-91705000D02*
X161523000Y-91705000D01*
X154556000Y-91565000D02*
X157009000Y-91565000D01*
X158991000Y-91565000D02*
X161444000Y-91565000D01*
X154643000Y-91425000D02*
X157039000Y-91425000D01*
X158961000Y-91425000D02*
X161357000Y-91425000D01*
X154738000Y-91285000D02*
X157090000Y-91285000D01*
X158910000Y-91285000D02*
X161262000Y-91285000D01*
X154842000Y-91145000D02*
X157168000Y-91145000D01*
X158832000Y-91145000D02*
X161158000Y-91145000D01*
X154956000Y-91005000D02*
X157281000Y-91005000D01*
X158719000Y-91005000D02*
X161044000Y-91005000D01*
X155081000Y-90865000D02*
X157450000Y-90865000D01*
X158550000Y-90865000D02*
X160919000Y-90865000D01*
X155219000Y-90725000D02*
X157778000Y-90725000D01*
X158222000Y-90725000D02*
X160781000Y-90725000D01*
X155371000Y-90585000D02*
X160629000Y-90585000D01*
X155541000Y-90445000D02*
X160459000Y-90445000D01*
X155732000Y-90305000D02*
X160268000Y-90305000D01*
X155950000Y-90165000D02*
X160050000Y-90165000D01*
X156206000Y-90025000D02*
X159794000Y-90025000D01*
X156517000Y-89885000D02*
X159483000Y-89885000D01*
X156933000Y-89745000D02*
X159067000Y-89745000D01*
X157800000Y-89605000D02*
X158200000Y-89605000D01*
X159000000Y-91700000D02*
G75*
G03*
X159000000Y-91700000I-1000000J0D01*
G01*
X162037500Y-93600000D02*
G75*
G03*
X162037500Y-93600000I-4037500J0D01*
G01*
%TO.C,CON1*%
X177500500Y-125500880D02*
X177500500Y-116499120D01*
X181000620Y-125500880D02*
X181000620Y-116499120D01*
X181000620Y-116499120D02*
X166499760Y-116499120D01*
X166499760Y-116499120D02*
X166499760Y-125500880D01*
X166499760Y-125500880D02*
X181000620Y-125500880D01*
%TO.C,D1*%
X154561960Y-113920220D02*
X154561960Y-115444220D01*
X154561960Y-104776220D02*
X154561960Y-103252220D01*
X157355960Y-105792220D02*
X151767960Y-105792220D01*
X157355960Y-105538220D02*
X151767960Y-105538220D01*
X157355960Y-105284220D02*
X151767960Y-105284220D01*
X151767960Y-104776220D02*
X157355960Y-104776220D01*
X157355960Y-104776220D02*
X157355960Y-113920220D01*
X157355960Y-113920220D02*
X151767960Y-113920220D01*
X151767960Y-113920220D02*
X151767960Y-104776220D01*
%TO.C,D3*%
X156588040Y-65911780D02*
X156588040Y-64387780D01*
X156588040Y-75055780D02*
X156588040Y-76579780D01*
X153794040Y-74039780D02*
X159382040Y-74039780D01*
X153794040Y-74293780D02*
X159382040Y-74293780D01*
X153794040Y-74547780D02*
X159382040Y-74547780D01*
X159382040Y-75055780D02*
X153794040Y-75055780D01*
X153794040Y-75055780D02*
X153794040Y-65911780D01*
X153794040Y-65911780D02*
X159382040Y-65911780D01*
X159382040Y-65911780D02*
X159382040Y-75055780D01*
%TO.C,L1*%
X169496740Y-72194420D02*
X169496740Y-63695580D01*
X169496740Y-63695580D02*
X163497260Y-63695580D01*
X163497260Y-63695580D02*
X163497260Y-72194420D01*
X163497260Y-72194420D02*
X169496740Y-72194420D01*
%TO.C,L2*%
X169749420Y-98000260D02*
X161250580Y-98000260D01*
X161250580Y-98000260D02*
X161250580Y-103999740D01*
X161250580Y-103999740D02*
X169749420Y-103999740D01*
X169749420Y-103999740D02*
X169749420Y-98000260D01*
%TO.C,U1*%
X177482500Y-92667500D02*
X177482500Y-89967500D01*
X177482500Y-89967500D02*
X180982500Y-89967500D01*
X180982500Y-89967500D02*
X180982500Y-101167500D01*
X180982500Y-101167500D02*
X177482500Y-101167500D01*
X177482500Y-101167500D02*
X177482500Y-98367500D01*
%TO.C,U2*%
X177546000Y-63267000D02*
X177546000Y-60567000D01*
X177546000Y-60567000D02*
X181046000Y-60567000D01*
X181046000Y-60567000D02*
X181046000Y-71767000D01*
X181046000Y-71767000D02*
X177546000Y-71767000D01*
X177546000Y-71767000D02*
X177546000Y-68967000D01*
%TO.C,U4*%
X127508000Y-125476000D02*
X127508000Y-128524000D01*
X130048000Y-125476000D02*
X130048000Y-128524000D01*
X132588000Y-125476000D02*
X132588000Y-128524000D01*
X135128000Y-125476000D02*
X135128000Y-128524000D01*
X137668000Y-125476000D02*
X137668000Y-128524000D01*
X140208000Y-125476000D02*
X140208000Y-128524000D01*
X142748000Y-125476000D02*
X142748000Y-128524000D01*
X145288000Y-125476000D02*
X145288000Y-128524000D01*
X126238000Y-132080000D02*
X146558000Y-132080000D01*
X146558000Y-133604000D02*
X146558000Y-128524000D01*
X146558000Y-128524000D02*
X145034000Y-128524000D01*
X142494000Y-128524000D02*
X143002000Y-128524000D01*
X139954000Y-128524000D02*
X140462000Y-128524000D01*
X137414000Y-128524000D02*
X137922000Y-128524000D01*
X134874000Y-128524000D02*
X135382000Y-128524000D01*
X132334000Y-128524000D02*
X132842000Y-128524000D01*
X129794000Y-128524000D02*
X130302000Y-128524000D01*
X146558000Y-133604000D02*
X126238000Y-133604000D01*
X126238000Y-133604000D02*
X126238000Y-128524000D01*
X126238000Y-128524000D02*
X127762000Y-128524000D01*
D11*
%TO.C,J12*%
X170320000Y-112000000D02*
X181000000Y-112000000D01*
X170320000Y-106000000D02*
X181000000Y-106000000D01*
X181000000Y-106000000D02*
X181000000Y-112000000D01*
X168140000Y-106000000D02*
X163320000Y-106000000D01*
X161230000Y-111200000D02*
X161230000Y-106800000D01*
X168140000Y-112000000D02*
X163320000Y-112000000D01*
%TO.C,R1*%
X125008000Y-133938000D02*
X114768000Y-133938000D01*
X125008000Y-129297000D02*
X114768000Y-129297000D01*
X125008000Y-133938000D02*
X125008000Y-129297000D01*
X114768000Y-133938000D02*
X114768000Y-129297000D01*
X125008000Y-132428000D02*
X114768000Y-132428000D01*
X121738000Y-133938000D02*
X121738000Y-132428000D01*
X118037000Y-133938000D02*
X118037000Y-132428000D01*
%TO.C,Q3*%
X126437000Y-74571000D02*
X126437000Y-70971000D01*
X125709795Y-75095184D02*
G75*
G03*
X126437000Y-74571000I-1122795J2324184D01*
G01*
X123488193Y-75127400D02*
G75*
G02*
X121987000Y-72771000I1098807J2356400D01*
G01*
X123488193Y-70414600D02*
G75*
G03*
X121987000Y-72771000I1098807J-2356400D01*
G01*
X125709795Y-70446816D02*
G75*
G02*
X126437000Y-70971000I-1122795J-2324184D01*
G01*
%TO.C,Q1*%
X127326000Y-117878000D02*
X127326000Y-114278000D01*
X126598795Y-118402184D02*
G75*
G03*
X127326000Y-117878000I-1122795J2324184D01*
G01*
X124377193Y-118434400D02*
G75*
G02*
X122876000Y-116078000I1098807J2356400D01*
G01*
X124377193Y-113721600D02*
G75*
G03*
X122876000Y-116078000I1098807J-2356400D01*
G01*
X126598795Y-113753816D02*
G75*
G02*
X127326000Y-114278000I-1122795J-2324184D01*
G01*
%TO.C,Q4*%
X119960000Y-90954000D02*
X119960000Y-87354000D01*
X119232795Y-91478184D02*
G75*
G03*
X119960000Y-90954000I-1122795J2324184D01*
G01*
X117011193Y-91510400D02*
G75*
G02*
X115510000Y-89154000I1098807J2356400D01*
G01*
X117011193Y-86797600D02*
G75*
G03*
X115510000Y-89154000I1098807J-2356400D01*
G01*
X119232795Y-86829816D02*
G75*
G02*
X119960000Y-87354000I-1122795J-2324184D01*
G01*
%TO.C,P9*%
X131378000Y-90678000D02*
X131378000Y-82998000D01*
X131378000Y-82998000D02*
X128718000Y-82998000D01*
X128718000Y-82998000D02*
X128718000Y-90678000D01*
X128718000Y-90678000D02*
X131378000Y-90678000D01*
X131378000Y-91948000D02*
X131378000Y-93278000D01*
X131378000Y-93278000D02*
X130048000Y-93278000D01*
%TO.C,R7*%
X134886000Y-96892000D02*
X134886000Y-100212000D01*
X134886000Y-100212000D02*
X144006000Y-100212000D01*
X144006000Y-100212000D02*
X144006000Y-96892000D01*
X144006000Y-96892000D02*
X134886000Y-96892000D01*
X132806000Y-98552000D02*
X134886000Y-98552000D01*
X146086000Y-98552000D02*
X144006000Y-98552000D01*
%TO.C,R8*%
X134886000Y-101464000D02*
X134886000Y-104784000D01*
X134886000Y-104784000D02*
X144006000Y-104784000D01*
X144006000Y-104784000D02*
X144006000Y-101464000D01*
X144006000Y-101464000D02*
X134886000Y-101464000D01*
X132806000Y-103124000D02*
X134886000Y-103124000D01*
X146086000Y-103124000D02*
X144006000Y-103124000D01*
%TO.C,R9*%
X134886000Y-107052000D02*
X134886000Y-110372000D01*
X134886000Y-110372000D02*
X144006000Y-110372000D01*
X144006000Y-110372000D02*
X144006000Y-107052000D01*
X144006000Y-107052000D02*
X134886000Y-107052000D01*
X132806000Y-108712000D02*
X134886000Y-108712000D01*
X146086000Y-108712000D02*
X144006000Y-108712000D01*
%TO.C,R3*%
X134886000Y-112894000D02*
X134886000Y-116214000D01*
X134886000Y-116214000D02*
X144006000Y-116214000D01*
X144006000Y-116214000D02*
X144006000Y-112894000D01*
X144006000Y-112894000D02*
X134886000Y-112894000D01*
X132806000Y-114554000D02*
X134886000Y-114554000D01*
X146086000Y-114554000D02*
X144006000Y-114554000D01*
%TO.C,R5*%
X112280000Y-78096000D02*
X112280000Y-81416000D01*
X112280000Y-81416000D02*
X121400000Y-81416000D01*
X121400000Y-81416000D02*
X121400000Y-78096000D01*
X121400000Y-78096000D02*
X112280000Y-78096000D01*
X110200000Y-79756000D02*
X112280000Y-79756000D01*
X123480000Y-79756000D02*
X121400000Y-79756000D01*
%TO.C,1k1*%
X119876000Y-100466000D02*
X119876000Y-97146000D01*
X119876000Y-97146000D02*
X110756000Y-97146000D01*
X110756000Y-97146000D02*
X110756000Y-100466000D01*
X110756000Y-100466000D02*
X119876000Y-100466000D01*
X121956000Y-98806000D02*
X119876000Y-98806000D01*
X108676000Y-98806000D02*
X110756000Y-98806000D01*
%TO.C,R4*%
X119392000Y-63999000D02*
X119392000Y-67319000D01*
X119392000Y-67319000D02*
X128512000Y-67319000D01*
X128512000Y-67319000D02*
X128512000Y-63999000D01*
X128512000Y-63999000D02*
X119392000Y-63999000D01*
X117312000Y-65659000D02*
X119392000Y-65659000D01*
X130592000Y-65659000D02*
X128512000Y-65659000D01*
%TO.C,R2*%
X119392000Y-59046000D02*
X119392000Y-62366000D01*
X119392000Y-62366000D02*
X128512000Y-62366000D01*
X128512000Y-62366000D02*
X128512000Y-59046000D01*
X128512000Y-59046000D02*
X119392000Y-59046000D01*
X117312000Y-60706000D02*
X119392000Y-60706000D01*
X130592000Y-60706000D02*
X128512000Y-60706000D01*
%TO.C,C7*%
X129496000Y-118832000D02*
X136616000Y-118832000D01*
X129496000Y-121452000D02*
X136616000Y-121452000D01*
X129496000Y-118832000D02*
X129496000Y-121452000D01*
X136616000Y-118832000D02*
X136616000Y-121452000D01*
%TO.C,C10*%
X138894000Y-118832000D02*
X146014000Y-118832000D01*
X138894000Y-121452000D02*
X146014000Y-121452000D01*
X138894000Y-118832000D02*
X138894000Y-121452000D01*
X146014000Y-118832000D02*
X146014000Y-121452000D01*
%TO.C,P4*%
X111416000Y-104892000D02*
X105466000Y-104892000D01*
X105466000Y-104892000D02*
X105466000Y-114992000D01*
X105466000Y-114992000D02*
X111416000Y-114992000D01*
X111416000Y-114992000D02*
X111416000Y-104892000D01*
X111416000Y-108192000D02*
X110666000Y-108192000D01*
X110666000Y-108192000D02*
X110666000Y-111692000D01*
X110666000Y-111692000D02*
X111416000Y-111692000D01*
X111416000Y-111692000D02*
X111416000Y-108192000D01*
X111416000Y-104892000D02*
X110666000Y-104892000D01*
X110666000Y-104892000D02*
X110666000Y-106692000D01*
X110666000Y-106692000D02*
X111416000Y-106692000D01*
X111416000Y-106692000D02*
X111416000Y-104892000D01*
X111416000Y-113192000D02*
X110666000Y-113192000D01*
X110666000Y-113192000D02*
X110666000Y-114992000D01*
X110666000Y-114992000D02*
X111416000Y-114992000D01*
X111416000Y-114992000D02*
X111416000Y-113192000D01*
X109166000Y-104892000D02*
X109166000Y-105642000D01*
X109166000Y-105642000D02*
X106216000Y-105642000D01*
X106216000Y-105642000D02*
X106216000Y-109942000D01*
X109166000Y-114992000D02*
X109166000Y-114242000D01*
X109166000Y-114242000D02*
X106216000Y-114242000D01*
X106216000Y-114242000D02*
X106216000Y-109942000D01*
X111716000Y-107092000D02*
X111716000Y-104592000D01*
X111716000Y-104592000D02*
X109216000Y-104592000D01*
%TO.C,C8*%
X128818000Y-96984000D02*
X128818000Y-104104000D01*
X126198000Y-96984000D02*
X126198000Y-104104000D01*
X128818000Y-96984000D02*
X126198000Y-96984000D01*
X128818000Y-104104000D02*
X126198000Y-104104000D01*
%TO.C,P10*%
X120052000Y-102606000D02*
X114102000Y-102606000D01*
X114102000Y-102606000D02*
X114102000Y-115206000D01*
X114102000Y-115206000D02*
X120052000Y-115206000D01*
X120052000Y-115206000D02*
X120052000Y-102606000D01*
X120052000Y-105906000D02*
X119302000Y-105906000D01*
X119302000Y-105906000D02*
X119302000Y-111906000D01*
X119302000Y-111906000D02*
X120052000Y-111906000D01*
X120052000Y-111906000D02*
X120052000Y-105906000D01*
X120052000Y-102606000D02*
X119302000Y-102606000D01*
X119302000Y-102606000D02*
X119302000Y-104406000D01*
X119302000Y-104406000D02*
X120052000Y-104406000D01*
X120052000Y-104406000D02*
X120052000Y-102606000D01*
X120052000Y-113406000D02*
X119302000Y-113406000D01*
X119302000Y-113406000D02*
X119302000Y-115206000D01*
X119302000Y-115206000D02*
X120052000Y-115206000D01*
X120052000Y-115206000D02*
X120052000Y-113406000D01*
X117802000Y-102606000D02*
X117802000Y-103356000D01*
X117802000Y-103356000D02*
X114852000Y-103356000D01*
X114852000Y-103356000D02*
X114852000Y-108906000D01*
X117802000Y-115206000D02*
X117802000Y-114456000D01*
X117802000Y-114456000D02*
X114852000Y-114456000D01*
X114852000Y-114456000D02*
X114852000Y-108906000D01*
X120352000Y-104806000D02*
X120352000Y-102306000D01*
X120352000Y-102306000D02*
X117852000Y-102306000D01*
%TO.C,P8*%
X111543000Y-66665000D02*
X105593000Y-66665000D01*
X105593000Y-66665000D02*
X105593000Y-76765000D01*
X105593000Y-76765000D02*
X111543000Y-76765000D01*
X111543000Y-76765000D02*
X111543000Y-66665000D01*
X111543000Y-69965000D02*
X110793000Y-69965000D01*
X110793000Y-69965000D02*
X110793000Y-73465000D01*
X110793000Y-73465000D02*
X111543000Y-73465000D01*
X111543000Y-73465000D02*
X111543000Y-69965000D01*
X111543000Y-66665000D02*
X110793000Y-66665000D01*
X110793000Y-66665000D02*
X110793000Y-68465000D01*
X110793000Y-68465000D02*
X111543000Y-68465000D01*
X111543000Y-68465000D02*
X111543000Y-66665000D01*
X111543000Y-74965000D02*
X110793000Y-74965000D01*
X110793000Y-74965000D02*
X110793000Y-76765000D01*
X110793000Y-76765000D02*
X111543000Y-76765000D01*
X111543000Y-76765000D02*
X111543000Y-74965000D01*
X109293000Y-66665000D02*
X109293000Y-67415000D01*
X109293000Y-67415000D02*
X106343000Y-67415000D01*
X106343000Y-67415000D02*
X106343000Y-71715000D01*
X109293000Y-76765000D02*
X109293000Y-76015000D01*
X109293000Y-76015000D02*
X106343000Y-76015000D01*
X106343000Y-76015000D02*
X106343000Y-71715000D01*
X111843000Y-68865000D02*
X111843000Y-66365000D01*
X111843000Y-66365000D02*
X109343000Y-66365000D01*
%TO.C,P7*%
X111670000Y-84318000D02*
X105720000Y-84318000D01*
X105720000Y-84318000D02*
X105720000Y-94418000D01*
X105720000Y-94418000D02*
X111670000Y-94418000D01*
X111670000Y-94418000D02*
X111670000Y-84318000D01*
X111670000Y-87618000D02*
X110920000Y-87618000D01*
X110920000Y-87618000D02*
X110920000Y-91118000D01*
X110920000Y-91118000D02*
X111670000Y-91118000D01*
X111670000Y-91118000D02*
X111670000Y-87618000D01*
X111670000Y-84318000D02*
X110920000Y-84318000D01*
X110920000Y-84318000D02*
X110920000Y-86118000D01*
X110920000Y-86118000D02*
X111670000Y-86118000D01*
X111670000Y-86118000D02*
X111670000Y-84318000D01*
X111670000Y-92618000D02*
X110920000Y-92618000D01*
X110920000Y-92618000D02*
X110920000Y-94418000D01*
X110920000Y-94418000D02*
X111670000Y-94418000D01*
X111670000Y-94418000D02*
X111670000Y-92618000D01*
X109420000Y-84318000D02*
X109420000Y-85068000D01*
X109420000Y-85068000D02*
X106470000Y-85068000D01*
X106470000Y-85068000D02*
X106470000Y-89368000D01*
X109420000Y-94418000D02*
X109420000Y-93668000D01*
X109420000Y-93668000D02*
X106470000Y-93668000D01*
X106470000Y-93668000D02*
X106470000Y-89368000D01*
X111970000Y-86518000D02*
X111970000Y-84018000D01*
X111970000Y-84018000D02*
X109470000Y-84018000D01*
D13*
%TO.C,*%
G36*
X122599744Y-54519918D02*
G01*
X122655201Y-54547568D01*
X122704148Y-54598480D01*
X122717629Y-54617338D01*
X122732314Y-54642015D01*
X122741842Y-54668816D01*
X122747293Y-54704587D01*
X122749747Y-54756169D01*
X122750286Y-54824267D01*
X122747852Y-54917588D01*
X122739394Y-54987657D01*
X122723174Y-55039931D01*
X122697454Y-55079869D01*
X122660497Y-55112929D01*
X122657782Y-55114886D01*
X122621360Y-55134908D01*
X122577502Y-55144815D01*
X122521724Y-55147257D01*
X122431048Y-55147257D01*
X122431010Y-55235283D01*
X122430166Y-55284308D01*
X122425024Y-55313065D01*
X122411587Y-55330311D01*
X122385858Y-55344808D01*
X122379679Y-55347769D01*
X122350764Y-55361648D01*
X122328376Y-55370414D01*
X122311729Y-55371171D01*
X122300036Y-55361023D01*
X122292510Y-55337073D01*
X122288366Y-55296426D01*
X122286815Y-55236186D01*
X122287071Y-55153455D01*
X122288349Y-55045339D01*
X122288748Y-55013000D01*
X122290185Y-54901524D01*
X122291472Y-54828603D01*
X122430971Y-54828603D01*
X122431755Y-54890499D01*
X122435240Y-54930997D01*
X122443124Y-54957708D01*
X122457105Y-54978244D01*
X122466597Y-54988260D01*
X122505404Y-55017567D01*
X122539763Y-55019952D01*
X122575216Y-54995750D01*
X122576114Y-54994857D01*
X122590539Y-54976153D01*
X122599313Y-54950732D01*
X122603739Y-54911584D01*
X122605118Y-54851697D01*
X122605143Y-54838430D01*
X122601812Y-54755901D01*
X122590969Y-54698691D01*
X122571340Y-54663766D01*
X122541650Y-54648094D01*
X122524491Y-54646514D01*
X122483766Y-54653926D01*
X122455832Y-54678330D01*
X122439017Y-54722980D01*
X122431650Y-54791130D01*
X122430971Y-54828603D01*
X122291472Y-54828603D01*
X122291708Y-54815245D01*
X122293677Y-54750333D01*
X122296450Y-54702958D01*
X122300388Y-54669290D01*
X122305849Y-54645498D01*
X122313192Y-54627753D01*
X122322777Y-54612224D01*
X122326887Y-54606381D01*
X122381405Y-54551185D01*
X122450336Y-54519890D01*
X122530072Y-54511165D01*
X122599744Y-54519918D01*
G37*
X122599744Y-54519918D02*
X122655201Y-54547568D01*
X122704148Y-54598480D01*
X122717629Y-54617338D01*
X122732314Y-54642015D01*
X122741842Y-54668816D01*
X122747293Y-54704587D01*
X122749747Y-54756169D01*
X122750286Y-54824267D01*
X122747852Y-54917588D01*
X122739394Y-54987657D01*
X122723174Y-55039931D01*
X122697454Y-55079869D01*
X122660497Y-55112929D01*
X122657782Y-55114886D01*
X122621360Y-55134908D01*
X122577502Y-55144815D01*
X122521724Y-55147257D01*
X122431048Y-55147257D01*
X122431010Y-55235283D01*
X122430166Y-55284308D01*
X122425024Y-55313065D01*
X122411587Y-55330311D01*
X122385858Y-55344808D01*
X122379679Y-55347769D01*
X122350764Y-55361648D01*
X122328376Y-55370414D01*
X122311729Y-55371171D01*
X122300036Y-55361023D01*
X122292510Y-55337073D01*
X122288366Y-55296426D01*
X122286815Y-55236186D01*
X122287071Y-55153455D01*
X122288349Y-55045339D01*
X122288748Y-55013000D01*
X122290185Y-54901524D01*
X122291472Y-54828603D01*
X122430971Y-54828603D01*
X122431755Y-54890499D01*
X122435240Y-54930997D01*
X122443124Y-54957708D01*
X122457105Y-54978244D01*
X122466597Y-54988260D01*
X122505404Y-55017567D01*
X122539763Y-55019952D01*
X122575216Y-54995750D01*
X122576114Y-54994857D01*
X122590539Y-54976153D01*
X122599313Y-54950732D01*
X122603739Y-54911584D01*
X122605118Y-54851697D01*
X122605143Y-54838430D01*
X122601812Y-54755901D01*
X122590969Y-54698691D01*
X122571340Y-54663766D01*
X122541650Y-54648094D01*
X122524491Y-54646514D01*
X122483766Y-54653926D01*
X122455832Y-54678330D01*
X122439017Y-54722980D01*
X122431650Y-54791130D01*
X122430971Y-54828603D01*
X122291472Y-54828603D01*
X122291708Y-54815245D01*
X122293677Y-54750333D01*
X122296450Y-54702958D01*
X122300388Y-54669290D01*
X122305849Y-54645498D01*
X122313192Y-54627753D01*
X122322777Y-54612224D01*
X122326887Y-54606381D01*
X122381405Y-54551185D01*
X122450336Y-54519890D01*
X122530072Y-54511165D01*
X122599744Y-54519918D01*
G36*
X123716093Y-54527780D02*
G01*
X123762672Y-54554723D01*
X123795057Y-54581466D01*
X123818742Y-54609484D01*
X123835059Y-54643748D01*
X123845339Y-54689227D01*
X123850914Y-54750892D01*
X123853116Y-54833711D01*
X123853371Y-54893246D01*
X123853371Y-55112391D01*
X123791686Y-55140044D01*
X123730000Y-55167697D01*
X123722743Y-54927670D01*
X123719744Y-54838028D01*
X123716598Y-54772962D01*
X123712701Y-54728026D01*
X123707447Y-54698770D01*
X123700231Y-54680748D01*
X123690450Y-54669511D01*
X123687312Y-54667079D01*
X123639761Y-54648083D01*
X123591697Y-54655600D01*
X123563086Y-54675543D01*
X123551447Y-54689675D01*
X123543391Y-54708220D01*
X123538271Y-54736334D01*
X123535441Y-54779173D01*
X123534256Y-54841895D01*
X123534057Y-54907261D01*
X123534018Y-54989268D01*
X123532614Y-55047316D01*
X123527914Y-55086465D01*
X123517987Y-55111780D01*
X123500903Y-55128323D01*
X123474732Y-55141156D01*
X123439775Y-55154491D01*
X123401596Y-55169007D01*
X123406141Y-54911389D01*
X123407971Y-54818519D01*
X123410112Y-54749889D01*
X123413181Y-54700711D01*
X123417794Y-54666198D01*
X123424568Y-54641562D01*
X123434119Y-54622016D01*
X123445634Y-54604770D01*
X123501190Y-54549680D01*
X123568980Y-54517822D01*
X123642713Y-54510191D01*
X123716093Y-54527780D01*
G37*
X123716093Y-54527780D02*
X123762672Y-54554723D01*
X123795057Y-54581466D01*
X123818742Y-54609484D01*
X123835059Y-54643748D01*
X123845339Y-54689227D01*
X123850914Y-54750892D01*
X123853116Y-54833711D01*
X123853371Y-54893246D01*
X123853371Y-55112391D01*
X123791686Y-55140044D01*
X123730000Y-55167697D01*
X123722743Y-54927670D01*
X123719744Y-54838028D01*
X123716598Y-54772962D01*
X123712701Y-54728026D01*
X123707447Y-54698770D01*
X123700231Y-54680748D01*
X123690450Y-54669511D01*
X123687312Y-54667079D01*
X123639761Y-54648083D01*
X123591697Y-54655600D01*
X123563086Y-54675543D01*
X123551447Y-54689675D01*
X123543391Y-54708220D01*
X123538271Y-54736334D01*
X123535441Y-54779173D01*
X123534256Y-54841895D01*
X123534057Y-54907261D01*
X123534018Y-54989268D01*
X123532614Y-55047316D01*
X123527914Y-55086465D01*
X123517987Y-55111780D01*
X123500903Y-55128323D01*
X123474732Y-55141156D01*
X123439775Y-55154491D01*
X123401596Y-55169007D01*
X123406141Y-54911389D01*
X123407971Y-54818519D01*
X123410112Y-54749889D01*
X123413181Y-54700711D01*
X123417794Y-54666198D01*
X123424568Y-54641562D01*
X123434119Y-54622016D01*
X123445634Y-54604770D01*
X123501190Y-54549680D01*
X123568980Y-54517822D01*
X123642713Y-54510191D01*
X123716093Y-54527780D01*
G36*
X122041115Y-54521962D02*
G01*
X122109145Y-54557733D01*
X122159351Y-54615301D01*
X122177185Y-54652312D01*
X122191063Y-54707882D01*
X122198167Y-54778096D01*
X122198840Y-54854727D01*
X122193427Y-54929552D01*
X122182270Y-54994342D01*
X122165714Y-55040873D01*
X122160626Y-55048887D01*
X122100355Y-55108707D01*
X122028769Y-55144535D01*
X121951092Y-55155020D01*
X121872548Y-55138810D01*
X121850689Y-55129092D01*
X121808122Y-55099143D01*
X121770763Y-55059433D01*
X121767232Y-55054397D01*
X121752881Y-55030124D01*
X121743394Y-55004178D01*
X121737790Y-54970022D01*
X121735086Y-54921119D01*
X121734299Y-54850935D01*
X121734286Y-54835200D01*
X121734322Y-54830192D01*
X121879429Y-54830192D01*
X121880273Y-54896430D01*
X121883596Y-54940386D01*
X121890583Y-54968779D01*
X121902416Y-54988325D01*
X121908457Y-54994857D01*
X121943186Y-55019680D01*
X121976903Y-55018548D01*
X122010995Y-54997016D01*
X122031329Y-54974029D01*
X122043371Y-54940478D01*
X122050134Y-54887569D01*
X122050598Y-54881399D01*
X122051752Y-54785513D01*
X122039688Y-54714299D01*
X122014570Y-54668194D01*
X121976560Y-54647635D01*
X121962992Y-54646514D01*
X121927364Y-54652152D01*
X121902994Y-54671686D01*
X121888093Y-54709042D01*
X121880875Y-54768150D01*
X121879429Y-54830192D01*
X121734322Y-54830192D01*
X121734826Y-54760413D01*
X121737096Y-54708159D01*
X121742068Y-54671949D01*
X121750713Y-54645299D01*
X121764005Y-54621722D01*
X121766943Y-54617338D01*
X121816313Y-54558249D01*
X121870109Y-54523947D01*
X121935602Y-54510331D01*
X121957842Y-54509665D01*
X122041115Y-54521962D01*
G37*
X122041115Y-54521962D02*
X122109145Y-54557733D01*
X122159351Y-54615301D01*
X122177185Y-54652312D01*
X122191063Y-54707882D01*
X122198167Y-54778096D01*
X122198840Y-54854727D01*
X122193427Y-54929552D01*
X122182270Y-54994342D01*
X122165714Y-55040873D01*
X122160626Y-55048887D01*
X122100355Y-55108707D01*
X122028769Y-55144535D01*
X121951092Y-55155020D01*
X121872548Y-55138810D01*
X121850689Y-55129092D01*
X121808122Y-55099143D01*
X121770763Y-55059433D01*
X121767232Y-55054397D01*
X121752881Y-55030124D01*
X121743394Y-55004178D01*
X121737790Y-54970022D01*
X121735086Y-54921119D01*
X121734299Y-54850935D01*
X121734286Y-54835200D01*
X121734322Y-54830192D01*
X121879429Y-54830192D01*
X121880273Y-54896430D01*
X121883596Y-54940386D01*
X121890583Y-54968779D01*
X121902416Y-54988325D01*
X121908457Y-54994857D01*
X121943186Y-55019680D01*
X121976903Y-55018548D01*
X122010995Y-54997016D01*
X122031329Y-54974029D01*
X122043371Y-54940478D01*
X122050134Y-54887569D01*
X122050598Y-54881399D01*
X122051752Y-54785513D01*
X122039688Y-54714299D01*
X122014570Y-54668194D01*
X121976560Y-54647635D01*
X121962992Y-54646514D01*
X121927364Y-54652152D01*
X121902994Y-54671686D01*
X121888093Y-54709042D01*
X121880875Y-54768150D01*
X121879429Y-54830192D01*
X121734322Y-54830192D01*
X121734826Y-54760413D01*
X121737096Y-54708159D01*
X121742068Y-54671949D01*
X121750713Y-54645299D01*
X121764005Y-54621722D01*
X121766943Y-54617338D01*
X121816313Y-54558249D01*
X121870109Y-54523947D01*
X121935602Y-54510331D01*
X121957842Y-54509665D01*
X122041115Y-54521962D01*
G36*
X123168303Y-54531239D02*
G01*
X123225527Y-54569735D01*
X123269749Y-54625335D01*
X123296167Y-54696086D01*
X123301510Y-54748162D01*
X123300903Y-54769893D01*
X123295822Y-54786531D01*
X123281855Y-54801437D01*
X123254589Y-54817973D01*
X123209612Y-54839498D01*
X123142511Y-54869374D01*
X123142171Y-54869524D01*
X123080407Y-54897813D01*
X123029759Y-54922933D01*
X122995404Y-54942179D01*
X122982518Y-54952848D01*
X122982514Y-54952934D01*
X122993872Y-54976166D01*
X123020431Y-55001774D01*
X123050923Y-55020221D01*
X123066370Y-55023886D01*
X123108515Y-55011212D01*
X123144808Y-54979471D01*
X123162517Y-54944572D01*
X123179552Y-54918845D01*
X123212922Y-54889546D01*
X123252149Y-54864235D01*
X123286756Y-54850471D01*
X123293993Y-54849714D01*
X123302139Y-54862160D01*
X123302630Y-54893972D01*
X123296643Y-54936866D01*
X123285357Y-54982558D01*
X123269950Y-55022761D01*
X123269171Y-55024322D01*
X123222804Y-55089062D01*
X123162711Y-55133097D01*
X123094465Y-55154711D01*
X123023638Y-55152185D01*
X122955804Y-55123804D01*
X122952788Y-55121808D01*
X122899427Y-55073448D01*
X122864340Y-55010352D01*
X122844922Y-54927387D01*
X122842316Y-54904078D01*
X122837701Y-54794055D01*
X122843233Y-54742748D01*
X122982514Y-54742748D01*
X122984324Y-54774753D01*
X122994222Y-54784093D01*
X123018898Y-54777105D01*
X123057795Y-54760587D01*
X123101275Y-54739881D01*
X123102356Y-54739333D01*
X123139209Y-54719949D01*
X123154000Y-54707013D01*
X123150353Y-54693451D01*
X123134995Y-54675632D01*
X123095923Y-54649845D01*
X123053846Y-54647950D01*
X123016103Y-54666717D01*
X122990034Y-54702915D01*
X122982514Y-54742748D01*
X122843233Y-54742748D01*
X122847194Y-54706027D01*
X122871550Y-54636212D01*
X122905456Y-54587302D01*
X122966653Y-54537878D01*
X123034063Y-54513359D01*
X123102880Y-54511797D01*
X123168303Y-54531239D01*
G37*
X123168303Y-54531239D02*
X123225527Y-54569735D01*
X123269749Y-54625335D01*
X123296167Y-54696086D01*
X123301510Y-54748162D01*
X123300903Y-54769893D01*
X123295822Y-54786531D01*
X123281855Y-54801437D01*
X123254589Y-54817973D01*
X123209612Y-54839498D01*
X123142511Y-54869374D01*
X123142171Y-54869524D01*
X123080407Y-54897813D01*
X123029759Y-54922933D01*
X122995404Y-54942179D01*
X122982518Y-54952848D01*
X122982514Y-54952934D01*
X122993872Y-54976166D01*
X123020431Y-55001774D01*
X123050923Y-55020221D01*
X123066370Y-55023886D01*
X123108515Y-55011212D01*
X123144808Y-54979471D01*
X123162517Y-54944572D01*
X123179552Y-54918845D01*
X123212922Y-54889546D01*
X123252149Y-54864235D01*
X123286756Y-54850471D01*
X123293993Y-54849714D01*
X123302139Y-54862160D01*
X123302630Y-54893972D01*
X123296643Y-54936866D01*
X123285357Y-54982558D01*
X123269950Y-55022761D01*
X123269171Y-55024322D01*
X123222804Y-55089062D01*
X123162711Y-55133097D01*
X123094465Y-55154711D01*
X123023638Y-55152185D01*
X122955804Y-55123804D01*
X122952788Y-55121808D01*
X122899427Y-55073448D01*
X122864340Y-55010352D01*
X122844922Y-54927387D01*
X122842316Y-54904078D01*
X122837701Y-54794055D01*
X122843233Y-54742748D01*
X122982514Y-54742748D01*
X122984324Y-54774753D01*
X122994222Y-54784093D01*
X123018898Y-54777105D01*
X123057795Y-54760587D01*
X123101275Y-54739881D01*
X123102356Y-54739333D01*
X123139209Y-54719949D01*
X123154000Y-54707013D01*
X123150353Y-54693451D01*
X123134995Y-54675632D01*
X123095923Y-54649845D01*
X123053846Y-54647950D01*
X123016103Y-54666717D01*
X122990034Y-54702915D01*
X122982514Y-54742748D01*
X122843233Y-54742748D01*
X122847194Y-54706027D01*
X122871550Y-54636212D01*
X122905456Y-54587302D01*
X122966653Y-54537878D01*
X123034063Y-54513359D01*
X123102880Y-54511797D01*
X123168303Y-54531239D01*
G36*
X124375886Y-54451289D02*
G01*
X124380139Y-54510613D01*
X124385025Y-54545572D01*
X124391795Y-54560820D01*
X124401702Y-54561015D01*
X124404914Y-54559195D01*
X124447644Y-54546015D01*
X124503227Y-54546785D01*
X124559737Y-54560333D01*
X124595082Y-54577861D01*
X124631321Y-54605861D01*
X124657813Y-54637549D01*
X124675999Y-54677813D01*
X124687322Y-54731543D01*
X124693222Y-54803626D01*
X124695143Y-54898951D01*
X124695177Y-54917237D01*
X124695200Y-55122646D01*
X124649491Y-55138580D01*
X124617027Y-55149420D01*
X124599215Y-55154468D01*
X124598691Y-55154514D01*
X124596937Y-55140828D01*
X124595444Y-55103076D01*
X124594326Y-55046224D01*
X124593697Y-54975234D01*
X124593600Y-54932073D01*
X124593398Y-54846973D01*
X124592358Y-54785981D01*
X124589831Y-54744177D01*
X124585164Y-54716642D01*
X124577707Y-54698456D01*
X124566811Y-54684698D01*
X124560007Y-54678073D01*
X124513272Y-54651375D01*
X124462272Y-54649375D01*
X124416001Y-54671955D01*
X124407444Y-54680107D01*
X124394893Y-54695436D01*
X124386188Y-54713618D01*
X124380631Y-54739909D01*
X124377526Y-54779562D01*
X124376176Y-54837832D01*
X124375886Y-54918173D01*
X124375886Y-55122646D01*
X124330177Y-55138580D01*
X124297713Y-55149420D01*
X124279901Y-55154468D01*
X124279377Y-55154514D01*
X124278037Y-55140623D01*
X124276828Y-55101439D01*
X124275801Y-55040700D01*
X124275002Y-54962141D01*
X124274481Y-54869498D01*
X124274286Y-54766509D01*
X124274286Y-54369342D01*
X124321457Y-54349444D01*
X124368629Y-54329547D01*
X124375886Y-54451289D01*
G37*
X124375886Y-54451289D02*
X124380139Y-54510613D01*
X124385025Y-54545572D01*
X124391795Y-54560820D01*
X124401702Y-54561015D01*
X124404914Y-54559195D01*
X124447644Y-54546015D01*
X124503227Y-54546785D01*
X124559737Y-54560333D01*
X124595082Y-54577861D01*
X124631321Y-54605861D01*
X124657813Y-54637549D01*
X124675999Y-54677813D01*
X124687322Y-54731543D01*
X124693222Y-54803626D01*
X124695143Y-54898951D01*
X124695177Y-54917237D01*
X124695200Y-55122646D01*
X124649491Y-55138580D01*
X124617027Y-55149420D01*
X124599215Y-55154468D01*
X124598691Y-55154514D01*
X124596937Y-55140828D01*
X124595444Y-55103076D01*
X124594326Y-55046224D01*
X124593697Y-54975234D01*
X124593600Y-54932073D01*
X124593398Y-54846973D01*
X124592358Y-54785981D01*
X124589831Y-54744177D01*
X124585164Y-54716642D01*
X124577707Y-54698456D01*
X124566811Y-54684698D01*
X124560007Y-54678073D01*
X124513272Y-54651375D01*
X124462272Y-54649375D01*
X124416001Y-54671955D01*
X124407444Y-54680107D01*
X124394893Y-54695436D01*
X124386188Y-54713618D01*
X124380631Y-54739909D01*
X124377526Y-54779562D01*
X124376176Y-54837832D01*
X124375886Y-54918173D01*
X124375886Y-55122646D01*
X124330177Y-55138580D01*
X124297713Y-55149420D01*
X124279901Y-55154468D01*
X124279377Y-55154514D01*
X124278037Y-55140623D01*
X124276828Y-55101439D01*
X124275801Y-55040700D01*
X124275002Y-54962141D01*
X124274481Y-54869498D01*
X124274286Y-54766509D01*
X124274286Y-54369342D01*
X124321457Y-54349444D01*
X124368629Y-54329547D01*
X124375886Y-54451289D01*
G36*
X125039744Y-54550968D02*
G01*
X125096616Y-54572087D01*
X125097267Y-54572493D01*
X125132440Y-54598380D01*
X125158407Y-54628633D01*
X125176670Y-54668058D01*
X125188732Y-54721462D01*
X125196096Y-54793651D01*
X125200264Y-54889432D01*
X125200629Y-54903078D01*
X125205876Y-55108842D01*
X125161716Y-55131678D01*
X125129763Y-55147110D01*
X125110470Y-55154423D01*
X125109578Y-55154514D01*
X125106239Y-55141022D01*
X125103587Y-55104626D01*
X125101956Y-55051452D01*
X125101600Y-55008393D01*
X125101592Y-54938641D01*
X125098403Y-54894837D01*
X125087288Y-54873944D01*
X125063501Y-54872925D01*
X125022296Y-54888741D01*
X124960086Y-54917815D01*
X124914341Y-54941963D01*
X124890813Y-54962913D01*
X124883896Y-54985747D01*
X124883886Y-54986877D01*
X124895299Y-55026212D01*
X124929092Y-55047462D01*
X124980809Y-55050539D01*
X125018061Y-55050006D01*
X125037703Y-55060735D01*
X125049952Y-55086505D01*
X125057002Y-55119337D01*
X125046842Y-55137966D01*
X125043017Y-55140632D01*
X125007001Y-55151340D01*
X124956566Y-55152856D01*
X124904626Y-55145759D01*
X124867822Y-55132788D01*
X124816938Y-55089585D01*
X124788014Y-55029446D01*
X124782286Y-54982462D01*
X124786657Y-54940082D01*
X124802475Y-54905488D01*
X124833797Y-54874763D01*
X124884678Y-54843990D01*
X124959176Y-54809252D01*
X124963714Y-54807288D01*
X125030821Y-54776287D01*
X125072232Y-54750862D01*
X125089981Y-54728014D01*
X125086107Y-54704745D01*
X125062643Y-54678056D01*
X125055627Y-54671914D01*
X125008630Y-54648100D01*
X124959933Y-54649103D01*
X124917522Y-54672451D01*
X124889384Y-54715675D01*
X124886769Y-54724160D01*
X124861308Y-54765308D01*
X124829001Y-54785128D01*
X124782286Y-54804770D01*
X124782286Y-54753950D01*
X124796496Y-54680082D01*
X124838675Y-54612327D01*
X124860624Y-54589661D01*
X124910517Y-54560569D01*
X124973967Y-54547400D01*
X125039744Y-54550968D01*
G37*
X125039744Y-54550968D02*
X125096616Y-54572087D01*
X125097267Y-54572493D01*
X125132440Y-54598380D01*
X125158407Y-54628633D01*
X125176670Y-54668058D01*
X125188732Y-54721462D01*
X125196096Y-54793651D01*
X125200264Y-54889432D01*
X125200629Y-54903078D01*
X125205876Y-55108842D01*
X125161716Y-55131678D01*
X125129763Y-55147110D01*
X125110470Y-55154423D01*
X125109578Y-55154514D01*
X125106239Y-55141022D01*
X125103587Y-55104626D01*
X125101956Y-55051452D01*
X125101600Y-55008393D01*
X125101592Y-54938641D01*
X125098403Y-54894837D01*
X125087288Y-54873944D01*
X125063501Y-54872925D01*
X125022296Y-54888741D01*
X124960086Y-54917815D01*
X124914341Y-54941963D01*
X124890813Y-54962913D01*
X124883896Y-54985747D01*
X124883886Y-54986877D01*
X124895299Y-55026212D01*
X124929092Y-55047462D01*
X124980809Y-55050539D01*
X125018061Y-55050006D01*
X125037703Y-55060735D01*
X125049952Y-55086505D01*
X125057002Y-55119337D01*
X125046842Y-55137966D01*
X125043017Y-55140632D01*
X125007001Y-55151340D01*
X124956566Y-55152856D01*
X124904626Y-55145759D01*
X124867822Y-55132788D01*
X124816938Y-55089585D01*
X124788014Y-55029446D01*
X124782286Y-54982462D01*
X124786657Y-54940082D01*
X124802475Y-54905488D01*
X124833797Y-54874763D01*
X124884678Y-54843990D01*
X124959176Y-54809252D01*
X124963714Y-54807288D01*
X125030821Y-54776287D01*
X125072232Y-54750862D01*
X125089981Y-54728014D01*
X125086107Y-54704745D01*
X125062643Y-54678056D01*
X125055627Y-54671914D01*
X125008630Y-54648100D01*
X124959933Y-54649103D01*
X124917522Y-54672451D01*
X124889384Y-54715675D01*
X124886769Y-54724160D01*
X124861308Y-54765308D01*
X124829001Y-54785128D01*
X124782286Y-54804770D01*
X124782286Y-54753950D01*
X124796496Y-54680082D01*
X124838675Y-54612327D01*
X124860624Y-54589661D01*
X124910517Y-54560569D01*
X124973967Y-54547400D01*
X125039744Y-54550968D01*
G36*
X125529926Y-54549755D02*
G01*
X125595858Y-54574084D01*
X125649273Y-54617117D01*
X125670164Y-54647409D01*
X125692939Y-54702994D01*
X125692466Y-54743186D01*
X125668562Y-54770217D01*
X125659717Y-54774813D01*
X125621530Y-54789144D01*
X125602028Y-54785472D01*
X125595422Y-54761407D01*
X125595086Y-54748114D01*
X125582992Y-54699210D01*
X125551471Y-54664999D01*
X125507659Y-54648476D01*
X125458695Y-54652634D01*
X125418894Y-54674227D01*
X125405450Y-54686544D01*
X125395921Y-54701487D01*
X125389485Y-54724075D01*
X125385317Y-54759328D01*
X125382597Y-54812266D01*
X125380502Y-54887907D01*
X125379960Y-54911857D01*
X125377981Y-54993790D01*
X125375731Y-55051455D01*
X125372357Y-55089608D01*
X125367006Y-55113004D01*
X125358824Y-55126398D01*
X125346959Y-55134545D01*
X125339362Y-55138144D01*
X125307102Y-55150452D01*
X125288111Y-55154514D01*
X125281836Y-55140948D01*
X125278006Y-55099934D01*
X125276600Y-55030999D01*
X125277598Y-54933669D01*
X125277908Y-54918657D01*
X125280101Y-54829859D01*
X125282693Y-54765019D01*
X125286382Y-54719067D01*
X125291864Y-54686935D01*
X125299835Y-54663553D01*
X125310993Y-54643852D01*
X125316830Y-54635410D01*
X125350296Y-54598057D01*
X125387727Y-54569003D01*
X125392309Y-54566467D01*
X125459426Y-54546443D01*
X125529926Y-54549755D01*
G37*
X125529926Y-54549755D02*
X125595858Y-54574084D01*
X125649273Y-54617117D01*
X125670164Y-54647409D01*
X125692939Y-54702994D01*
X125692466Y-54743186D01*
X125668562Y-54770217D01*
X125659717Y-54774813D01*
X125621530Y-54789144D01*
X125602028Y-54785472D01*
X125595422Y-54761407D01*
X125595086Y-54748114D01*
X125582992Y-54699210D01*
X125551471Y-54664999D01*
X125507659Y-54648476D01*
X125458695Y-54652634D01*
X125418894Y-54674227D01*
X125405450Y-54686544D01*
X125395921Y-54701487D01*
X125389485Y-54724075D01*
X125385317Y-54759328D01*
X125382597Y-54812266D01*
X125380502Y-54887907D01*
X125379960Y-54911857D01*
X125377981Y-54993790D01*
X125375731Y-55051455D01*
X125372357Y-55089608D01*
X125367006Y-55113004D01*
X125358824Y-55126398D01*
X125346959Y-55134545D01*
X125339362Y-55138144D01*
X125307102Y-55150452D01*
X125288111Y-55154514D01*
X125281836Y-55140948D01*
X125278006Y-55099934D01*
X125276600Y-55030999D01*
X125277598Y-54933669D01*
X125277908Y-54918657D01*
X125280101Y-54829859D01*
X125282693Y-54765019D01*
X125286382Y-54719067D01*
X125291864Y-54686935D01*
X125299835Y-54663553D01*
X125310993Y-54643852D01*
X125316830Y-54635410D01*
X125350296Y-54598057D01*
X125387727Y-54569003D01*
X125392309Y-54566467D01*
X125459426Y-54546443D01*
X125529926Y-54549755D01*
G36*
X126190117Y-54665358D02*
G01*
X126189933Y-54773837D01*
X126189219Y-54857287D01*
X126187675Y-54919704D01*
X126185001Y-54965085D01*
X126180894Y-54997429D01*
X126175055Y-55020733D01*
X126167182Y-55038995D01*
X126161221Y-55049418D01*
X126111855Y-55105945D01*
X126049264Y-55141377D01*
X125980013Y-55154090D01*
X125910668Y-55142463D01*
X125869375Y-55121568D01*
X125826025Y-55085422D01*
X125796481Y-55041276D01*
X125778655Y-54983462D01*
X125770463Y-54906313D01*
X125769302Y-54849714D01*
X125769458Y-54845647D01*
X125870857Y-54845647D01*
X125871476Y-54910550D01*
X125874314Y-54953514D01*
X125880840Y-54981622D01*
X125892523Y-55001953D01*
X125906483Y-55017288D01*
X125953365Y-55046890D01*
X126003701Y-55049419D01*
X126051276Y-55024705D01*
X126054979Y-55021356D01*
X126070783Y-55003935D01*
X126080693Y-54983209D01*
X126086058Y-54952362D01*
X126088228Y-54904577D01*
X126088571Y-54851748D01*
X126087827Y-54785381D01*
X126084748Y-54741106D01*
X126078061Y-54712009D01*
X126066496Y-54691173D01*
X126057013Y-54680107D01*
X126012960Y-54652198D01*
X125962224Y-54648843D01*
X125913796Y-54670159D01*
X125904450Y-54678073D01*
X125888540Y-54695647D01*
X125878610Y-54716587D01*
X125873278Y-54747782D01*
X125871163Y-54796122D01*
X125870857Y-54845647D01*
X125769458Y-54845647D01*
X125772810Y-54758568D01*
X125784726Y-54690086D01*
X125807135Y-54638600D01*
X125842124Y-54598443D01*
X125869375Y-54577861D01*
X125918907Y-54555625D01*
X125976316Y-54545304D01*
X126029682Y-54548067D01*
X126059543Y-54559212D01*
X126071261Y-54562383D01*
X126079037Y-54550557D01*
X126084465Y-54518866D01*
X126088571Y-54470593D01*
X126093067Y-54416829D01*
X126099313Y-54384482D01*
X126110676Y-54365985D01*
X126130528Y-54353770D01*
X126143000Y-54348362D01*
X126190171Y-54328601D01*
X126190117Y-54665358D01*
G37*
X126190117Y-54665358D02*
X126189933Y-54773837D01*
X126189219Y-54857287D01*
X126187675Y-54919704D01*
X126185001Y-54965085D01*
X126180894Y-54997429D01*
X126175055Y-55020733D01*
X126167182Y-55038995D01*
X126161221Y-55049418D01*
X126111855Y-55105945D01*
X126049264Y-55141377D01*
X125980013Y-55154090D01*
X125910668Y-55142463D01*
X125869375Y-55121568D01*
X125826025Y-55085422D01*
X125796481Y-55041276D01*
X125778655Y-54983462D01*
X125770463Y-54906313D01*
X125769302Y-54849714D01*
X125769458Y-54845647D01*
X125870857Y-54845647D01*
X125871476Y-54910550D01*
X125874314Y-54953514D01*
X125880840Y-54981622D01*
X125892523Y-55001953D01*
X125906483Y-55017288D01*
X125953365Y-55046890D01*
X126003701Y-55049419D01*
X126051276Y-55024705D01*
X126054979Y-55021356D01*
X126070783Y-55003935D01*
X126080693Y-54983209D01*
X126086058Y-54952362D01*
X126088228Y-54904577D01*
X126088571Y-54851748D01*
X126087827Y-54785381D01*
X126084748Y-54741106D01*
X126078061Y-54712009D01*
X126066496Y-54691173D01*
X126057013Y-54680107D01*
X126012960Y-54652198D01*
X125962224Y-54648843D01*
X125913796Y-54670159D01*
X125904450Y-54678073D01*
X125888540Y-54695647D01*
X125878610Y-54716587D01*
X125873278Y-54747782D01*
X125871163Y-54796122D01*
X125870857Y-54845647D01*
X125769458Y-54845647D01*
X125772810Y-54758568D01*
X125784726Y-54690086D01*
X125807135Y-54638600D01*
X125842124Y-54598443D01*
X125869375Y-54577861D01*
X125918907Y-54555625D01*
X125976316Y-54545304D01*
X126029682Y-54548067D01*
X126059543Y-54559212D01*
X126071261Y-54562383D01*
X126079037Y-54550557D01*
X126084465Y-54518866D01*
X126088571Y-54470593D01*
X126093067Y-54416829D01*
X126099313Y-54384482D01*
X126110676Y-54365985D01*
X126130528Y-54353770D01*
X126143000Y-54348362D01*
X126190171Y-54328601D01*
X126190117Y-54665358D01*
G36*
X126779833Y-54558663D02*
G01*
X126782048Y-54596850D01*
X126783784Y-54654886D01*
X126784899Y-54728180D01*
X126785257Y-54805055D01*
X126785257Y-55065196D01*
X126739326Y-55111127D01*
X126707675Y-55139429D01*
X126679890Y-55150893D01*
X126641915Y-55150168D01*
X126626840Y-55148321D01*
X126579726Y-55142948D01*
X126540756Y-55139869D01*
X126531257Y-55139585D01*
X126499233Y-55141445D01*
X126453432Y-55146114D01*
X126435674Y-55148321D01*
X126392057Y-55151735D01*
X126362745Y-55144320D01*
X126333680Y-55121427D01*
X126323188Y-55111127D01*
X126277257Y-55065196D01*
X126277257Y-54578602D01*
X126314226Y-54561758D01*
X126346059Y-54549282D01*
X126364683Y-54544914D01*
X126369458Y-54558718D01*
X126373921Y-54597286D01*
X126377775Y-54656356D01*
X126380722Y-54731663D01*
X126382143Y-54795286D01*
X126386114Y-55045657D01*
X126420759Y-55050556D01*
X126452268Y-55047131D01*
X126467708Y-55036041D01*
X126472023Y-55015308D01*
X126475708Y-54971145D01*
X126478469Y-54909146D01*
X126480012Y-54834909D01*
X126480235Y-54796706D01*
X126480457Y-54576783D01*
X126526166Y-54560849D01*
X126558518Y-54550015D01*
X126576115Y-54544962D01*
X126576623Y-54544914D01*
X126578388Y-54558648D01*
X126580329Y-54596730D01*
X126582282Y-54654482D01*
X126584084Y-54727227D01*
X126585343Y-54795286D01*
X126589314Y-55045657D01*
X126676400Y-55045657D01*
X126680396Y-54817240D01*
X126684392Y-54588822D01*
X126726847Y-54566868D01*
X126758192Y-54551793D01*
X126776744Y-54544951D01*
X126777279Y-54544914D01*
X126779833Y-54558663D01*
G37*
X126779833Y-54558663D02*
X126782048Y-54596850D01*
X126783784Y-54654886D01*
X126784899Y-54728180D01*
X126785257Y-54805055D01*
X126785257Y-55065196D01*
X126739326Y-55111127D01*
X126707675Y-55139429D01*
X126679890Y-55150893D01*
X126641915Y-55150168D01*
X126626840Y-55148321D01*
X126579726Y-55142948D01*
X126540756Y-55139869D01*
X126531257Y-55139585D01*
X126499233Y-55141445D01*
X126453432Y-55146114D01*
X126435674Y-55148321D01*
X126392057Y-55151735D01*
X126362745Y-55144320D01*
X126333680Y-55121427D01*
X126323188Y-55111127D01*
X126277257Y-55065196D01*
X126277257Y-54578602D01*
X126314226Y-54561758D01*
X126346059Y-54549282D01*
X126364683Y-54544914D01*
X126369458Y-54558718D01*
X126373921Y-54597286D01*
X126377775Y-54656356D01*
X126380722Y-54731663D01*
X126382143Y-54795286D01*
X126386114Y-55045657D01*
X126420759Y-55050556D01*
X126452268Y-55047131D01*
X126467708Y-55036041D01*
X126472023Y-55015308D01*
X126475708Y-54971145D01*
X126478469Y-54909146D01*
X126480012Y-54834909D01*
X126480235Y-54796706D01*
X126480457Y-54576783D01*
X126526166Y-54560849D01*
X126558518Y-54550015D01*
X126576115Y-54544962D01*
X126576623Y-54544914D01*
X126578388Y-54558648D01*
X126580329Y-54596730D01*
X126582282Y-54654482D01*
X126584084Y-54727227D01*
X126585343Y-54795286D01*
X126589314Y-55045657D01*
X126676400Y-55045657D01*
X126680396Y-54817240D01*
X126684392Y-54588822D01*
X126726847Y-54566868D01*
X126758192Y-54551793D01*
X126776744Y-54544951D01*
X126777279Y-54544914D01*
X126779833Y-54558663D01*
G36*
X127144876Y-54556335D02*
G01*
X127186667Y-54575344D01*
X127219469Y-54598378D01*
X127243503Y-54624133D01*
X127260097Y-54657358D01*
X127270577Y-54702800D01*
X127276271Y-54765207D01*
X127278507Y-54849327D01*
X127278743Y-54904721D01*
X127278743Y-55120826D01*
X127241774Y-55137670D01*
X127212656Y-55149981D01*
X127198231Y-55154514D01*
X127195472Y-55141025D01*
X127193282Y-55104653D01*
X127191942Y-55051542D01*
X127191657Y-55009372D01*
X127190434Y-54948447D01*
X127187136Y-54900115D01*
X127182321Y-54870518D01*
X127178496Y-54864229D01*
X127152783Y-54870652D01*
X127112418Y-54887125D01*
X127065679Y-54909458D01*
X127020845Y-54933457D01*
X126986193Y-54954930D01*
X126970002Y-54969685D01*
X126969938Y-54969845D01*
X126971330Y-54997152D01*
X126983818Y-55023219D01*
X127005743Y-55044392D01*
X127037743Y-55051474D01*
X127065092Y-55050649D01*
X127103826Y-55050042D01*
X127124158Y-55059116D01*
X127136369Y-55083092D01*
X127137909Y-55087613D01*
X127143203Y-55121806D01*
X127129047Y-55142568D01*
X127092148Y-55152462D01*
X127052289Y-55154292D01*
X126980562Y-55140727D01*
X126943432Y-55121355D01*
X126897576Y-55075845D01*
X126873256Y-55019983D01*
X126871073Y-54960957D01*
X126891629Y-54905953D01*
X126922549Y-54871486D01*
X126953420Y-54852189D01*
X127001942Y-54827759D01*
X127058485Y-54802985D01*
X127067910Y-54799199D01*
X127130019Y-54771791D01*
X127165822Y-54747634D01*
X127177337Y-54723619D01*
X127166580Y-54696635D01*
X127148114Y-54675543D01*
X127104469Y-54649572D01*
X127056446Y-54647624D01*
X127012406Y-54667637D01*
X126980709Y-54707551D01*
X126976549Y-54717848D01*
X126952327Y-54755724D01*
X126916965Y-54783842D01*
X126872343Y-54806917D01*
X126872343Y-54741485D01*
X126874969Y-54701506D01*
X126886230Y-54669997D01*
X126911199Y-54636378D01*
X126935169Y-54610484D01*
X126972441Y-54573817D01*
X127001401Y-54554121D01*
X127032505Y-54546220D01*
X127067713Y-54544914D01*
X127144876Y-54556335D01*
G37*
X127144876Y-54556335D02*
X127186667Y-54575344D01*
X127219469Y-54598378D01*
X127243503Y-54624133D01*
X127260097Y-54657358D01*
X127270577Y-54702800D01*
X127276271Y-54765207D01*
X127278507Y-54849327D01*
X127278743Y-54904721D01*
X127278743Y-55120826D01*
X127241774Y-55137670D01*
X127212656Y-55149981D01*
X127198231Y-55154514D01*
X127195472Y-55141025D01*
X127193282Y-55104653D01*
X127191942Y-55051542D01*
X127191657Y-55009372D01*
X127190434Y-54948447D01*
X127187136Y-54900115D01*
X127182321Y-54870518D01*
X127178496Y-54864229D01*
X127152783Y-54870652D01*
X127112418Y-54887125D01*
X127065679Y-54909458D01*
X127020845Y-54933457D01*
X126986193Y-54954930D01*
X126970002Y-54969685D01*
X126969938Y-54969845D01*
X126971330Y-54997152D01*
X126983818Y-55023219D01*
X127005743Y-55044392D01*
X127037743Y-55051474D01*
X127065092Y-55050649D01*
X127103826Y-55050042D01*
X127124158Y-55059116D01*
X127136369Y-55083092D01*
X127137909Y-55087613D01*
X127143203Y-55121806D01*
X127129047Y-55142568D01*
X127092148Y-55152462D01*
X127052289Y-55154292D01*
X126980562Y-55140727D01*
X126943432Y-55121355D01*
X126897576Y-55075845D01*
X126873256Y-55019983D01*
X126871073Y-54960957D01*
X126891629Y-54905953D01*
X126922549Y-54871486D01*
X126953420Y-54852189D01*
X127001942Y-54827759D01*
X127058485Y-54802985D01*
X127067910Y-54799199D01*
X127130019Y-54771791D01*
X127165822Y-54747634D01*
X127177337Y-54723619D01*
X127166580Y-54696635D01*
X127148114Y-54675543D01*
X127104469Y-54649572D01*
X127056446Y-54647624D01*
X127012406Y-54667637D01*
X126980709Y-54707551D01*
X126976549Y-54717848D01*
X126952327Y-54755724D01*
X126916965Y-54783842D01*
X126872343Y-54806917D01*
X126872343Y-54741485D01*
X126874969Y-54701506D01*
X126886230Y-54669997D01*
X126911199Y-54636378D01*
X126935169Y-54610484D01*
X126972441Y-54573817D01*
X127001401Y-54554121D01*
X127032505Y-54546220D01*
X127067713Y-54544914D01*
X127144876Y-54556335D01*
G36*
X127652600Y-54558752D02*
G01*
X127669948Y-54566334D01*
X127711356Y-54599128D01*
X127746765Y-54646547D01*
X127768664Y-54697151D01*
X127772229Y-54722098D01*
X127760279Y-54756927D01*
X127734067Y-54775357D01*
X127705964Y-54786516D01*
X127693095Y-54788572D01*
X127686829Y-54773649D01*
X127674456Y-54741175D01*
X127669028Y-54726502D01*
X127638590Y-54675744D01*
X127594520Y-54650427D01*
X127538010Y-54651206D01*
X127533825Y-54652203D01*
X127503655Y-54666507D01*
X127481476Y-54694393D01*
X127466327Y-54739287D01*
X127457250Y-54804615D01*
X127453286Y-54893804D01*
X127452914Y-54941261D01*
X127452730Y-55016071D01*
X127451522Y-55067069D01*
X127448309Y-55099471D01*
X127442109Y-55118495D01*
X127431940Y-55129356D01*
X127416819Y-55137272D01*
X127415946Y-55137670D01*
X127386828Y-55149981D01*
X127372403Y-55154514D01*
X127370186Y-55140809D01*
X127368289Y-55102925D01*
X127366847Y-55045715D01*
X127365998Y-54974027D01*
X127365829Y-54921565D01*
X127366692Y-54820047D01*
X127370070Y-54743032D01*
X127377142Y-54686023D01*
X127389088Y-54644526D01*
X127407090Y-54614043D01*
X127432327Y-54590080D01*
X127457247Y-54573355D01*
X127517171Y-54551097D01*
X127586911Y-54546076D01*
X127652600Y-54558752D01*
G37*
X127652600Y-54558752D02*
X127669948Y-54566334D01*
X127711356Y-54599128D01*
X127746765Y-54646547D01*
X127768664Y-54697151D01*
X127772229Y-54722098D01*
X127760279Y-54756927D01*
X127734067Y-54775357D01*
X127705964Y-54786516D01*
X127693095Y-54788572D01*
X127686829Y-54773649D01*
X127674456Y-54741175D01*
X127669028Y-54726502D01*
X127638590Y-54675744D01*
X127594520Y-54650427D01*
X127538010Y-54651206D01*
X127533825Y-54652203D01*
X127503655Y-54666507D01*
X127481476Y-54694393D01*
X127466327Y-54739287D01*
X127457250Y-54804615D01*
X127453286Y-54893804D01*
X127452914Y-54941261D01*
X127452730Y-55016071D01*
X127451522Y-55067069D01*
X127448309Y-55099471D01*
X127442109Y-55118495D01*
X127431940Y-55129356D01*
X127416819Y-55137272D01*
X127415946Y-55137670D01*
X127386828Y-55149981D01*
X127372403Y-55154514D01*
X127370186Y-55140809D01*
X127368289Y-55102925D01*
X127366847Y-55045715D01*
X127365998Y-54974027D01*
X127365829Y-54921565D01*
X127366692Y-54820047D01*
X127370070Y-54743032D01*
X127377142Y-54686023D01*
X127389088Y-54644526D01*
X127407090Y-54614043D01*
X127432327Y-54590080D01*
X127457247Y-54573355D01*
X127517171Y-54551097D01*
X127586911Y-54546076D01*
X127652600Y-54558752D01*
G36*
X128153595Y-54566966D02*
G01*
X128211021Y-54604497D01*
X128238719Y-54638096D01*
X128260662Y-54699064D01*
X128262405Y-54747308D01*
X128258457Y-54811816D01*
X128109686Y-54876934D01*
X128037349Y-54910202D01*
X127990084Y-54936964D01*
X127965507Y-54960144D01*
X127961237Y-54982667D01*
X127974889Y-55007455D01*
X127989943Y-55023886D01*
X128033746Y-55050235D01*
X128081389Y-55052081D01*
X128125145Y-55031546D01*
X128157289Y-54990752D01*
X128163038Y-54976347D01*
X128190576Y-54931356D01*
X128222258Y-54912182D01*
X128265714Y-54895779D01*
X128265714Y-54957966D01*
X128261872Y-55000283D01*
X128246823Y-55035969D01*
X128215280Y-55076943D01*
X128210592Y-55082267D01*
X128175506Y-55118720D01*
X128145347Y-55138283D01*
X128107615Y-55147283D01*
X128076335Y-55150230D01*
X128020385Y-55150965D01*
X127980555Y-55141660D01*
X127955708Y-55127846D01*
X127916656Y-55097467D01*
X127889625Y-55064613D01*
X127872517Y-55023294D01*
X127863238Y-54967521D01*
X127859693Y-54891305D01*
X127859410Y-54852622D01*
X127860372Y-54806247D01*
X127948007Y-54806247D01*
X127949023Y-54831126D01*
X127951556Y-54835200D01*
X127968274Y-54829665D01*
X128004249Y-54815017D01*
X128052331Y-54794190D01*
X128062386Y-54789714D01*
X128123152Y-54758814D01*
X128156632Y-54731657D01*
X128163990Y-54706220D01*
X128146391Y-54680481D01*
X128131856Y-54669109D01*
X128079410Y-54646364D01*
X128030322Y-54650122D01*
X127989227Y-54677884D01*
X127960758Y-54727152D01*
X127951631Y-54766257D01*
X127948007Y-54806247D01*
X127860372Y-54806247D01*
X127861285Y-54762249D01*
X127868196Y-54695384D01*
X127881884Y-54646695D01*
X127904096Y-54610849D01*
X127936574Y-54582513D01*
X127950733Y-54573355D01*
X128015053Y-54549507D01*
X128085473Y-54548006D01*
X128153595Y-54566966D01*
G37*
X128153595Y-54566966D02*
X128211021Y-54604497D01*
X128238719Y-54638096D01*
X128260662Y-54699064D01*
X128262405Y-54747308D01*
X128258457Y-54811816D01*
X128109686Y-54876934D01*
X128037349Y-54910202D01*
X127990084Y-54936964D01*
X127965507Y-54960144D01*
X127961237Y-54982667D01*
X127974889Y-55007455D01*
X127989943Y-55023886D01*
X128033746Y-55050235D01*
X128081389Y-55052081D01*
X128125145Y-55031546D01*
X128157289Y-54990752D01*
X128163038Y-54976347D01*
X128190576Y-54931356D01*
X128222258Y-54912182D01*
X128265714Y-54895779D01*
X128265714Y-54957966D01*
X128261872Y-55000283D01*
X128246823Y-55035969D01*
X128215280Y-55076943D01*
X128210592Y-55082267D01*
X128175506Y-55118720D01*
X128145347Y-55138283D01*
X128107615Y-55147283D01*
X128076335Y-55150230D01*
X128020385Y-55150965D01*
X127980555Y-55141660D01*
X127955708Y-55127846D01*
X127916656Y-55097467D01*
X127889625Y-55064613D01*
X127872517Y-55023294D01*
X127863238Y-54967521D01*
X127859693Y-54891305D01*
X127859410Y-54852622D01*
X127860372Y-54806247D01*
X127948007Y-54806247D01*
X127949023Y-54831126D01*
X127951556Y-54835200D01*
X127968274Y-54829665D01*
X128004249Y-54815017D01*
X128052331Y-54794190D01*
X128062386Y-54789714D01*
X128123152Y-54758814D01*
X128156632Y-54731657D01*
X128163990Y-54706220D01*
X128146391Y-54680481D01*
X128131856Y-54669109D01*
X128079410Y-54646364D01*
X128030322Y-54650122D01*
X127989227Y-54677884D01*
X127960758Y-54727152D01*
X127951631Y-54766257D01*
X127948007Y-54806247D01*
X127860372Y-54806247D01*
X127861285Y-54762249D01*
X127868196Y-54695384D01*
X127881884Y-54646695D01*
X127904096Y-54610849D01*
X127936574Y-54582513D01*
X127950733Y-54573355D01*
X128015053Y-54549507D01*
X128085473Y-54548006D01*
X128153595Y-54566966D01*
G36*
X125103910Y-49842348D02*
G01*
X125182454Y-49842778D01*
X125239298Y-49843942D01*
X125278105Y-49846207D01*
X125302538Y-49849940D01*
X125316262Y-49855506D01*
X125322940Y-49863273D01*
X125326236Y-49873605D01*
X125326556Y-49874943D01*
X125331562Y-49899079D01*
X125340829Y-49946701D01*
X125353392Y-50012741D01*
X125368287Y-50092128D01*
X125384551Y-50179796D01*
X125385119Y-50182875D01*
X125401410Y-50268789D01*
X125416652Y-50344696D01*
X125429861Y-50406045D01*
X125440054Y-50448282D01*
X125446248Y-50466855D01*
X125446543Y-50467184D01*
X125464788Y-50476253D01*
X125502405Y-50491367D01*
X125551271Y-50509262D01*
X125551543Y-50509358D01*
X125613093Y-50532493D01*
X125685657Y-50561965D01*
X125754057Y-50591597D01*
X125757294Y-50593062D01*
X125868702Y-50643626D01*
X126115399Y-50475160D01*
X126191077Y-50423803D01*
X126259631Y-50377889D01*
X126317088Y-50340030D01*
X126359476Y-50312837D01*
X126382825Y-50298921D01*
X126385042Y-50297889D01*
X126402010Y-50302484D01*
X126433701Y-50324655D01*
X126481352Y-50365447D01*
X126546198Y-50425905D01*
X126612397Y-50490227D01*
X126676214Y-50553612D01*
X126733329Y-50611451D01*
X126780305Y-50660175D01*
X126813703Y-50696210D01*
X126830085Y-50715984D01*
X126830694Y-50717002D01*
X126832505Y-50730572D01*
X126825683Y-50752733D01*
X126808540Y-50786478D01*
X126779393Y-50834800D01*
X126736555Y-50900692D01*
X126679448Y-50985517D01*
X126628766Y-51060177D01*
X126583461Y-51127140D01*
X126546150Y-51182516D01*
X126519452Y-51222420D01*
X126505985Y-51242962D01*
X126505137Y-51244356D01*
X126506781Y-51264038D01*
X126519245Y-51302293D01*
X126540048Y-51351889D01*
X126547462Y-51367728D01*
X126579814Y-51438290D01*
X126614328Y-51518353D01*
X126642365Y-51587629D01*
X126662568Y-51639045D01*
X126678615Y-51678119D01*
X126687888Y-51698541D01*
X126689041Y-51700114D01*
X126706096Y-51702721D01*
X126746298Y-51709863D01*
X126804302Y-51720523D01*
X126874763Y-51733685D01*
X126952335Y-51748333D01*
X127031672Y-51763449D01*
X127107431Y-51778018D01*
X127174264Y-51791022D01*
X127226828Y-51801445D01*
X127259776Y-51808270D01*
X127267857Y-51810199D01*
X127276205Y-51814962D01*
X127282506Y-51825718D01*
X127287045Y-51846098D01*
X127290104Y-51879734D01*
X127291967Y-51930255D01*
X127292918Y-52001292D01*
X127293240Y-52096476D01*
X127293257Y-52135492D01*
X127293257Y-52452799D01*
X127217057Y-52467839D01*
X127174663Y-52475995D01*
X127111400Y-52487899D01*
X127034962Y-52502116D01*
X126953043Y-52517210D01*
X126930400Y-52521355D01*
X126854806Y-52536053D01*
X126788953Y-52550505D01*
X126738366Y-52563375D01*
X126708574Y-52573322D01*
X126703612Y-52576287D01*
X126691426Y-52597283D01*
X126673953Y-52637967D01*
X126654577Y-52690322D01*
X126650734Y-52701600D01*
X126625339Y-52771523D01*
X126593817Y-52850418D01*
X126562969Y-52921266D01*
X126562817Y-52921595D01*
X126511447Y-53032733D01*
X126680399Y-53281253D01*
X126849352Y-53529772D01*
X126632429Y-53747058D01*
X126566819Y-53811726D01*
X126506979Y-53868733D01*
X126456267Y-53915033D01*
X126418046Y-53947584D01*
X126395675Y-53963343D01*
X126392466Y-53964343D01*
X126373626Y-53956469D01*
X126335180Y-53934578D01*
X126281330Y-53901267D01*
X126216276Y-53859131D01*
X126145940Y-53811943D01*
X126074555Y-53763810D01*
X126010908Y-53721928D01*
X125959041Y-53688871D01*
X125922995Y-53667218D01*
X125906867Y-53659543D01*
X125887189Y-53666037D01*
X125849875Y-53683150D01*
X125802621Y-53707326D01*
X125797612Y-53710013D01*
X125733977Y-53741927D01*
X125690341Y-53757579D01*
X125663202Y-53757745D01*
X125649057Y-53743204D01*
X125648975Y-53743000D01*
X125641905Y-53725779D01*
X125625042Y-53684899D01*
X125599695Y-53623525D01*
X125567171Y-53544819D01*
X125528778Y-53451947D01*
X125485822Y-53348072D01*
X125444222Y-53247502D01*
X125398504Y-53136516D01*
X125356526Y-53033703D01*
X125319548Y-52942215D01*
X125288827Y-52865201D01*
X125265622Y-52805815D01*
X125251190Y-52767209D01*
X125246743Y-52752800D01*
X125257896Y-52736272D01*
X125287069Y-52709930D01*
X125325971Y-52680887D01*
X125436757Y-52589039D01*
X125523351Y-52483759D01*
X125584716Y-52367266D01*
X125619815Y-52241776D01*
X125627608Y-52109507D01*
X125621943Y-52048457D01*
X125591078Y-51921795D01*
X125537920Y-51809941D01*
X125465767Y-51714001D01*
X125377917Y-51635076D01*
X125277665Y-51574270D01*
X125168310Y-51532687D01*
X125053147Y-51511428D01*
X124935475Y-51511599D01*
X124818590Y-51534301D01*
X124705789Y-51580638D01*
X124600369Y-51651713D01*
X124556368Y-51691911D01*
X124471979Y-51795129D01*
X124413222Y-51907925D01*
X124379704Y-52027010D01*
X124371035Y-52149095D01*
X124386823Y-52270893D01*
X124426678Y-52389116D01*
X124490207Y-52500475D01*
X124577021Y-52601684D01*
X124674029Y-52680887D01*
X124714437Y-52711162D01*
X124742982Y-52737219D01*
X124753257Y-52752825D01*
X124747877Y-52769843D01*
X124732575Y-52810500D01*
X124708612Y-52871642D01*
X124677244Y-52950119D01*
X124639732Y-53042780D01*
X124597333Y-53146472D01*
X124555663Y-53247526D01*
X124509690Y-53358607D01*
X124467107Y-53461541D01*
X124429221Y-53553165D01*
X124397340Y-53630316D01*
X124372771Y-53689831D01*
X124356820Y-53728544D01*
X124350910Y-53743000D01*
X124336948Y-53757685D01*
X124309940Y-53757642D01*
X124266413Y-53742099D01*
X124202890Y-53710284D01*
X124202388Y-53710013D01*
X124154560Y-53685323D01*
X124115897Y-53667338D01*
X124094095Y-53659614D01*
X124093133Y-53659543D01*
X124076721Y-53667378D01*
X124040487Y-53689165D01*
X123988474Y-53722328D01*
X123924725Y-53764291D01*
X123854060Y-53811943D01*
X123782116Y-53860191D01*
X123717274Y-53902151D01*
X123663735Y-53935227D01*
X123625697Y-53956821D01*
X123607533Y-53964343D01*
X123590808Y-53954457D01*
X123557180Y-53926826D01*
X123510010Y-53884495D01*
X123452658Y-53830505D01*
X123388484Y-53767899D01*
X123367497Y-53746983D01*
X123150499Y-53529623D01*
X123315668Y-53287220D01*
X123365864Y-53212781D01*
X123409919Y-53145972D01*
X123445362Y-53090665D01*
X123469719Y-53050729D01*
X123480522Y-53030036D01*
X123480838Y-53028563D01*
X123475143Y-53009058D01*
X123459826Y-52969822D01*
X123437537Y-52917430D01*
X123421893Y-52882355D01*
X123392641Y-52815201D01*
X123365094Y-52747358D01*
X123343737Y-52690034D01*
X123337935Y-52672572D01*
X123321452Y-52625938D01*
X123305340Y-52589905D01*
X123296490Y-52576287D01*
X123276960Y-52567952D01*
X123234334Y-52556137D01*
X123174145Y-52542181D01*
X123101922Y-52527422D01*
X123069600Y-52521355D01*
X122987522Y-52506273D01*
X122908795Y-52491669D01*
X122841109Y-52478980D01*
X122792160Y-52469642D01*
X122782943Y-52467839D01*
X122706743Y-52452799D01*
X122706743Y-52135492D01*
X122706914Y-52031154D01*
X122707616Y-51952213D01*
X122709134Y-51895038D01*
X122711749Y-51855999D01*
X122715746Y-51831465D01*
X122721409Y-51817805D01*
X122729020Y-51811389D01*
X122732143Y-51810199D01*
X122750978Y-51805980D01*
X122792588Y-51797562D01*
X122851630Y-51785961D01*
X122922757Y-51772195D01*
X123000625Y-51757280D01*
X123079887Y-51742232D01*
X123155198Y-51728069D01*
X123221213Y-51715806D01*
X123272587Y-51706461D01*
X123303975Y-51701050D01*
X123310959Y-51700114D01*
X123317285Y-51687596D01*
X123331290Y-51654246D01*
X123350355Y-51606377D01*
X123357634Y-51587629D01*
X123386996Y-51515195D01*
X123421571Y-51435170D01*
X123452537Y-51367728D01*
X123475323Y-51316159D01*
X123490482Y-51273785D01*
X123495542Y-51247834D01*
X123494736Y-51244356D01*
X123484041Y-51227936D01*
X123459620Y-51191417D01*
X123424095Y-51138687D01*
X123380087Y-51073635D01*
X123330217Y-51000151D01*
X123320356Y-50985645D01*
X123262492Y-50899704D01*
X123219956Y-50834261D01*
X123191054Y-50786304D01*
X123174090Y-50752820D01*
X123167367Y-50730795D01*
X123169190Y-50717217D01*
X123169236Y-50717131D01*
X123183586Y-50699297D01*
X123215323Y-50664817D01*
X123261010Y-50617268D01*
X123317204Y-50560222D01*
X123380468Y-50497255D01*
X123387602Y-50490227D01*
X123467330Y-50413020D01*
X123528857Y-50356330D01*
X123573421Y-50319110D01*
X123602257Y-50300315D01*
X123614958Y-50297889D01*
X123633494Y-50308471D01*
X123671961Y-50332916D01*
X123726386Y-50368612D01*
X123792798Y-50412947D01*
X123867225Y-50463311D01*
X123884601Y-50475160D01*
X124131297Y-50643626D01*
X124242706Y-50593062D01*
X124310457Y-50563595D01*
X124383183Y-50533959D01*
X124445703Y-50510330D01*
X124448457Y-50509358D01*
X124497360Y-50491457D01*
X124535057Y-50476320D01*
X124553425Y-50467210D01*
X124553456Y-50467184D01*
X124559285Y-50450717D01*
X124569192Y-50410219D01*
X124582195Y-50350242D01*
X124597309Y-50275340D01*
X124613552Y-50190064D01*
X124614881Y-50182875D01*
X124631175Y-50095014D01*
X124646133Y-50015260D01*
X124658791Y-49948681D01*
X124668186Y-49900347D01*
X124673354Y-49875325D01*
X124673444Y-49874943D01*
X124676589Y-49864299D01*
X124682704Y-49856262D01*
X124695453Y-49850467D01*
X124718500Y-49846547D01*
X124755509Y-49844135D01*
X124810144Y-49842865D01*
X124886067Y-49842371D01*
X124986944Y-49842286D01*
X125000000Y-49842286D01*
X125103910Y-49842348D01*
G37*
X125103910Y-49842348D02*
X125182454Y-49842778D01*
X125239298Y-49843942D01*
X125278105Y-49846207D01*
X125302538Y-49849940D01*
X125316262Y-49855506D01*
X125322940Y-49863273D01*
X125326236Y-49873605D01*
X125326556Y-49874943D01*
X125331562Y-49899079D01*
X125340829Y-49946701D01*
X125353392Y-50012741D01*
X125368287Y-50092128D01*
X125384551Y-50179796D01*
X125385119Y-50182875D01*
X125401410Y-50268789D01*
X125416652Y-50344696D01*
X125429861Y-50406045D01*
X125440054Y-50448282D01*
X125446248Y-50466855D01*
X125446543Y-50467184D01*
X125464788Y-50476253D01*
X125502405Y-50491367D01*
X125551271Y-50509262D01*
X125551543Y-50509358D01*
X125613093Y-50532493D01*
X125685657Y-50561965D01*
X125754057Y-50591597D01*
X125757294Y-50593062D01*
X125868702Y-50643626D01*
X126115399Y-50475160D01*
X126191077Y-50423803D01*
X126259631Y-50377889D01*
X126317088Y-50340030D01*
X126359476Y-50312837D01*
X126382825Y-50298921D01*
X126385042Y-50297889D01*
X126402010Y-50302484D01*
X126433701Y-50324655D01*
X126481352Y-50365447D01*
X126546198Y-50425905D01*
X126612397Y-50490227D01*
X126676214Y-50553612D01*
X126733329Y-50611451D01*
X126780305Y-50660175D01*
X126813703Y-50696210D01*
X126830085Y-50715984D01*
X126830694Y-50717002D01*
X126832505Y-50730572D01*
X126825683Y-50752733D01*
X126808540Y-50786478D01*
X126779393Y-50834800D01*
X126736555Y-50900692D01*
X126679448Y-50985517D01*
X126628766Y-51060177D01*
X126583461Y-51127140D01*
X126546150Y-51182516D01*
X126519452Y-51222420D01*
X126505985Y-51242962D01*
X126505137Y-51244356D01*
X126506781Y-51264038D01*
X126519245Y-51302293D01*
X126540048Y-51351889D01*
X126547462Y-51367728D01*
X126579814Y-51438290D01*
X126614328Y-51518353D01*
X126642365Y-51587629D01*
X126662568Y-51639045D01*
X126678615Y-51678119D01*
X126687888Y-51698541D01*
X126689041Y-51700114D01*
X126706096Y-51702721D01*
X126746298Y-51709863D01*
X126804302Y-51720523D01*
X126874763Y-51733685D01*
X126952335Y-51748333D01*
X127031672Y-51763449D01*
X127107431Y-51778018D01*
X127174264Y-51791022D01*
X127226828Y-51801445D01*
X127259776Y-51808270D01*
X127267857Y-51810199D01*
X127276205Y-51814962D01*
X127282506Y-51825718D01*
X127287045Y-51846098D01*
X127290104Y-51879734D01*
X127291967Y-51930255D01*
X127292918Y-52001292D01*
X127293240Y-52096476D01*
X127293257Y-52135492D01*
X127293257Y-52452799D01*
X127217057Y-52467839D01*
X127174663Y-52475995D01*
X127111400Y-52487899D01*
X127034962Y-52502116D01*
X126953043Y-52517210D01*
X126930400Y-52521355D01*
X126854806Y-52536053D01*
X126788953Y-52550505D01*
X126738366Y-52563375D01*
X126708574Y-52573322D01*
X126703612Y-52576287D01*
X126691426Y-52597283D01*
X126673953Y-52637967D01*
X126654577Y-52690322D01*
X126650734Y-52701600D01*
X126625339Y-52771523D01*
X126593817Y-52850418D01*
X126562969Y-52921266D01*
X126562817Y-52921595D01*
X126511447Y-53032733D01*
X126680399Y-53281253D01*
X126849352Y-53529772D01*
X126632429Y-53747058D01*
X126566819Y-53811726D01*
X126506979Y-53868733D01*
X126456267Y-53915033D01*
X126418046Y-53947584D01*
X126395675Y-53963343D01*
X126392466Y-53964343D01*
X126373626Y-53956469D01*
X126335180Y-53934578D01*
X126281330Y-53901267D01*
X126216276Y-53859131D01*
X126145940Y-53811943D01*
X126074555Y-53763810D01*
X126010908Y-53721928D01*
X125959041Y-53688871D01*
X125922995Y-53667218D01*
X125906867Y-53659543D01*
X125887189Y-53666037D01*
X125849875Y-53683150D01*
X125802621Y-53707326D01*
X125797612Y-53710013D01*
X125733977Y-53741927D01*
X125690341Y-53757579D01*
X125663202Y-53757745D01*
X125649057Y-53743204D01*
X125648975Y-53743000D01*
X125641905Y-53725779D01*
X125625042Y-53684899D01*
X125599695Y-53623525D01*
X125567171Y-53544819D01*
X125528778Y-53451947D01*
X125485822Y-53348072D01*
X125444222Y-53247502D01*
X125398504Y-53136516D01*
X125356526Y-53033703D01*
X125319548Y-52942215D01*
X125288827Y-52865201D01*
X125265622Y-52805815D01*
X125251190Y-52767209D01*
X125246743Y-52752800D01*
X125257896Y-52736272D01*
X125287069Y-52709930D01*
X125325971Y-52680887D01*
X125436757Y-52589039D01*
X125523351Y-52483759D01*
X125584716Y-52367266D01*
X125619815Y-52241776D01*
X125627608Y-52109507D01*
X125621943Y-52048457D01*
X125591078Y-51921795D01*
X125537920Y-51809941D01*
X125465767Y-51714001D01*
X125377917Y-51635076D01*
X125277665Y-51574270D01*
X125168310Y-51532687D01*
X125053147Y-51511428D01*
X124935475Y-51511599D01*
X124818590Y-51534301D01*
X124705789Y-51580638D01*
X124600369Y-51651713D01*
X124556368Y-51691911D01*
X124471979Y-51795129D01*
X124413222Y-51907925D01*
X124379704Y-52027010D01*
X124371035Y-52149095D01*
X124386823Y-52270893D01*
X124426678Y-52389116D01*
X124490207Y-52500475D01*
X124577021Y-52601684D01*
X124674029Y-52680887D01*
X124714437Y-52711162D01*
X124742982Y-52737219D01*
X124753257Y-52752825D01*
X124747877Y-52769843D01*
X124732575Y-52810500D01*
X124708612Y-52871642D01*
X124677244Y-52950119D01*
X124639732Y-53042780D01*
X124597333Y-53146472D01*
X124555663Y-53247526D01*
X124509690Y-53358607D01*
X124467107Y-53461541D01*
X124429221Y-53553165D01*
X124397340Y-53630316D01*
X124372771Y-53689831D01*
X124356820Y-53728544D01*
X124350910Y-53743000D01*
X124336948Y-53757685D01*
X124309940Y-53757642D01*
X124266413Y-53742099D01*
X124202890Y-53710284D01*
X124202388Y-53710013D01*
X124154560Y-53685323D01*
X124115897Y-53667338D01*
X124094095Y-53659614D01*
X124093133Y-53659543D01*
X124076721Y-53667378D01*
X124040487Y-53689165D01*
X123988474Y-53722328D01*
X123924725Y-53764291D01*
X123854060Y-53811943D01*
X123782116Y-53860191D01*
X123717274Y-53902151D01*
X123663735Y-53935227D01*
X123625697Y-53956821D01*
X123607533Y-53964343D01*
X123590808Y-53954457D01*
X123557180Y-53926826D01*
X123510010Y-53884495D01*
X123452658Y-53830505D01*
X123388484Y-53767899D01*
X123367497Y-53746983D01*
X123150499Y-53529623D01*
X123315668Y-53287220D01*
X123365864Y-53212781D01*
X123409919Y-53145972D01*
X123445362Y-53090665D01*
X123469719Y-53050729D01*
X123480522Y-53030036D01*
X123480838Y-53028563D01*
X123475143Y-53009058D01*
X123459826Y-52969822D01*
X123437537Y-52917430D01*
X123421893Y-52882355D01*
X123392641Y-52815201D01*
X123365094Y-52747358D01*
X123343737Y-52690034D01*
X123337935Y-52672572D01*
X123321452Y-52625938D01*
X123305340Y-52589905D01*
X123296490Y-52576287D01*
X123276960Y-52567952D01*
X123234334Y-52556137D01*
X123174145Y-52542181D01*
X123101922Y-52527422D01*
X123069600Y-52521355D01*
X122987522Y-52506273D01*
X122908795Y-52491669D01*
X122841109Y-52478980D01*
X122792160Y-52469642D01*
X122782943Y-52467839D01*
X122706743Y-52452799D01*
X122706743Y-52135492D01*
X122706914Y-52031154D01*
X122707616Y-51952213D01*
X122709134Y-51895038D01*
X122711749Y-51855999D01*
X122715746Y-51831465D01*
X122721409Y-51817805D01*
X122729020Y-51811389D01*
X122732143Y-51810199D01*
X122750978Y-51805980D01*
X122792588Y-51797562D01*
X122851630Y-51785961D01*
X122922757Y-51772195D01*
X123000625Y-51757280D01*
X123079887Y-51742232D01*
X123155198Y-51728069D01*
X123221213Y-51715806D01*
X123272587Y-51706461D01*
X123303975Y-51701050D01*
X123310959Y-51700114D01*
X123317285Y-51687596D01*
X123331290Y-51654246D01*
X123350355Y-51606377D01*
X123357634Y-51587629D01*
X123386996Y-51515195D01*
X123421571Y-51435170D01*
X123452537Y-51367728D01*
X123475323Y-51316159D01*
X123490482Y-51273785D01*
X123495542Y-51247834D01*
X123494736Y-51244356D01*
X123484041Y-51227936D01*
X123459620Y-51191417D01*
X123424095Y-51138687D01*
X123380087Y-51073635D01*
X123330217Y-51000151D01*
X123320356Y-50985645D01*
X123262492Y-50899704D01*
X123219956Y-50834261D01*
X123191054Y-50786304D01*
X123174090Y-50752820D01*
X123167367Y-50730795D01*
X123169190Y-50717217D01*
X123169236Y-50717131D01*
X123183586Y-50699297D01*
X123215323Y-50664817D01*
X123261010Y-50617268D01*
X123317204Y-50560222D01*
X123380468Y-50497255D01*
X123387602Y-50490227D01*
X123467330Y-50413020D01*
X123528857Y-50356330D01*
X123573421Y-50319110D01*
X123602257Y-50300315D01*
X123614958Y-50297889D01*
X123633494Y-50308471D01*
X123671961Y-50332916D01*
X123726386Y-50368612D01*
X123792798Y-50412947D01*
X123867225Y-50463311D01*
X123884601Y-50475160D01*
X124131297Y-50643626D01*
X124242706Y-50593062D01*
X124310457Y-50563595D01*
X124383183Y-50533959D01*
X124445703Y-50510330D01*
X124448457Y-50509358D01*
X124497360Y-50491457D01*
X124535057Y-50476320D01*
X124553425Y-50467210D01*
X124553456Y-50467184D01*
X124559285Y-50450717D01*
X124569192Y-50410219D01*
X124582195Y-50350242D01*
X124597309Y-50275340D01*
X124613552Y-50190064D01*
X124614881Y-50182875D01*
X124631175Y-50095014D01*
X124646133Y-50015260D01*
X124658791Y-49948681D01*
X124668186Y-49900347D01*
X124673354Y-49875325D01*
X124673444Y-49874943D01*
X124676589Y-49864299D01*
X124682704Y-49856262D01*
X124695453Y-49850467D01*
X124718500Y-49846547D01*
X124755509Y-49844135D01*
X124810144Y-49842865D01*
X124886067Y-49842371D01*
X124986944Y-49842286D01*
X125000000Y-49842286D01*
X125103910Y-49842348D01*
D12*
X157286960Y-129001520D02*
X157688280Y-128902460D01*
X157688280Y-128902460D02*
X157787340Y-128402080D01*
X155488640Y-124602240D02*
X155287980Y-124701300D01*
X155287980Y-124701300D02*
X154889200Y-125300740D01*
X154889200Y-125300740D02*
X154688540Y-125801120D01*
X154688540Y-125801120D02*
X154586940Y-126700280D01*
X154586940Y-126700280D02*
X154688540Y-127200660D01*
X157789880Y-128701800D02*
X157690820Y-128899920D01*
X161688780Y-128402080D02*
X161787840Y-128701800D01*
X160987740Y-123901200D02*
X161287460Y-124000260D01*
X161287460Y-124000260D02*
X161086800Y-124302520D01*
X157988000Y-120901460D02*
X157487620Y-120901460D01*
X157487620Y-120901460D02*
X156687520Y-121201180D01*
X156687520Y-121201180D02*
X155989020Y-121401840D01*
X155989020Y-121401840D02*
X155287980Y-121602500D01*
X155287980Y-121602500D02*
X154688540Y-122100340D01*
X154688540Y-122100340D02*
X153987500Y-122702320D01*
X153987500Y-122702320D02*
X153487120Y-123301760D01*
X153487120Y-123301760D02*
X152986740Y-124200920D01*
X152986740Y-124200920D02*
X152687020Y-125201680D01*
X152687020Y-125201680D02*
X152587960Y-126400560D01*
X152587960Y-126400560D02*
X152788620Y-127601980D01*
X152788620Y-127601980D02*
X153187400Y-128701800D01*
X153187400Y-128701800D02*
X154188160Y-130200400D01*
X154188160Y-130200400D02*
X155387040Y-131102100D01*
X155387040Y-131102100D02*
X156687520Y-131602480D01*
X156687520Y-131602480D02*
X158087060Y-131602480D01*
X158087060Y-131602480D02*
X159588200Y-131500880D01*
X159588200Y-131500880D02*
X160588960Y-131000500D01*
X160588960Y-131000500D02*
X162189160Y-129702560D01*
X162189160Y-129702560D02*
X162989260Y-128102360D01*
X162989260Y-128102360D02*
X163388040Y-126601220D01*
X163388040Y-126601220D02*
X163187380Y-124901960D01*
X163187380Y-124901960D02*
X162687000Y-123802140D01*
X162687000Y-123802140D02*
X161389060Y-122201940D01*
X161389060Y-122201940D02*
X160388300Y-121500900D01*
X160388300Y-121500900D02*
X159387540Y-121102120D01*
X159387540Y-121102120D02*
X157988000Y-121000520D01*
X158589980Y-125600460D02*
X158490920Y-126100840D01*
X158490920Y-126100840D02*
X158490920Y-126799340D01*
X158490920Y-126799340D02*
X158589980Y-127401320D01*
X158589980Y-127401320D02*
X158988760Y-128000760D01*
X158988760Y-128000760D02*
X159489140Y-128501140D01*
X159489140Y-128501140D02*
X160088580Y-128800860D01*
X160088580Y-128800860D02*
X160588960Y-128899920D01*
X160588960Y-128899920D02*
X160990280Y-128899920D01*
X160990280Y-128899920D02*
X161389060Y-128899920D01*
X161389060Y-128899920D02*
X161790380Y-128800860D01*
X161790380Y-128800860D02*
X161688780Y-128600200D01*
X161688780Y-128600200D02*
X160789620Y-128701800D01*
X160789620Y-128701800D02*
X159788860Y-128399540D01*
X159788860Y-128399540D02*
X159189420Y-127901700D01*
X159189420Y-127901700D02*
X158790640Y-127000000D01*
X158790640Y-127000000D02*
X158689040Y-126001780D01*
X158689040Y-126001780D02*
X158988760Y-125300740D01*
X158988760Y-125300740D02*
X159590740Y-124599700D01*
X159590740Y-124599700D02*
X160289240Y-124200920D01*
X160289240Y-124200920D02*
X160990280Y-124200920D01*
X160990280Y-124200920D02*
X161089340Y-124401580D01*
X161089340Y-124401580D02*
X160489900Y-124401580D01*
X160489900Y-124401580D02*
X159788860Y-124701300D01*
X159788860Y-124701300D02*
X159288480Y-125300740D01*
X159288480Y-125300740D02*
X158988760Y-125900180D01*
X158988760Y-125900180D02*
X158988760Y-126400560D01*
X158988760Y-126400560D02*
X158988760Y-127000000D01*
X158988760Y-127000000D02*
X159288480Y-127500380D01*
X159288480Y-127500380D02*
X159689800Y-128000760D01*
X159689800Y-128000760D02*
X160289240Y-128300480D01*
X160289240Y-128300480D02*
X160888680Y-128399540D01*
X160888680Y-128399540D02*
X161389060Y-128399540D01*
X161389060Y-128399540D02*
X161688780Y-128300480D01*
X160990280Y-123901200D02*
X160390840Y-123901200D01*
X160390840Y-123901200D02*
X159989520Y-124099320D01*
X159989520Y-124099320D02*
X159489140Y-124299980D01*
X159489140Y-124299980D02*
X159090360Y-124701300D01*
X159090360Y-124701300D02*
X158790640Y-125201680D01*
X158790640Y-125201680D02*
X158589980Y-125600460D01*
X157589220Y-124302520D02*
X157088840Y-124302520D01*
X157088840Y-124302520D02*
X156588460Y-124404120D01*
X156588460Y-124404120D02*
X156088080Y-124703840D01*
X156088080Y-124703840D02*
X155587700Y-125102620D01*
X155587700Y-125001020D02*
X155287980Y-125501400D01*
X155287980Y-125501400D02*
X155188920Y-126001780D01*
X155188920Y-126001780D02*
X155188920Y-126502160D01*
X155188920Y-126502160D02*
X155389580Y-127302260D01*
X155290520Y-127302260D02*
X155590240Y-127701040D01*
X155691840Y-127800100D02*
X156192220Y-128201420D01*
X156192220Y-128201420D02*
X156690060Y-128399540D01*
X156690060Y-128399540D02*
X157091380Y-128501140D01*
X157091380Y-128501140D02*
X157490160Y-128501140D01*
X157490160Y-128501140D02*
X157789880Y-128399540D01*
X157789880Y-128399540D02*
X157690820Y-128701800D01*
X157690820Y-128701800D02*
X157091380Y-128800860D01*
X157091380Y-128800860D02*
X156390340Y-128600200D01*
X156390340Y-128600200D02*
X155691840Y-128099820D01*
X155691840Y-128099820D02*
X155191460Y-127599440D01*
X155188920Y-127701040D02*
X154988260Y-127002540D01*
X154988260Y-127002540D02*
X154889200Y-126301500D01*
X154889200Y-126301500D02*
X154988260Y-125702060D01*
X154988260Y-125501400D02*
X155287980Y-125001020D01*
X155287980Y-125201680D02*
X155788360Y-124701300D01*
X155788360Y-124602240D02*
X156288740Y-124302520D01*
X156288740Y-124302520D02*
X156789120Y-124101860D01*
X156789120Y-124101860D02*
X157289500Y-124101860D01*
X157289500Y-124101860D02*
X157688280Y-124101860D01*
X157688280Y-124101860D02*
X157787340Y-123903740D01*
X157787340Y-123903740D02*
X157388560Y-123802140D01*
X157388560Y-123802140D02*
X156987240Y-123802140D01*
X156987240Y-123802140D02*
X156489400Y-123903740D01*
X156489400Y-123903740D02*
X155887420Y-124203460D01*
X155887420Y-124203460D02*
X155389580Y-124602240D01*
X155389580Y-124701300D02*
X154889200Y-125402340D01*
X154889200Y-125402340D02*
X154688540Y-126001780D01*
X154688540Y-126001780D02*
X154688540Y-126702820D01*
X154688540Y-126702820D02*
X154787600Y-127302260D01*
X154688540Y-127101600D02*
X154988260Y-127701040D01*
X155089860Y-127800100D02*
X155491180Y-128300480D01*
X155491180Y-128300480D02*
X156090620Y-128701800D01*
X156090620Y-128701800D02*
X156791660Y-128899920D01*
X156791660Y-128899920D02*
X157292040Y-129001520D01*
X154990800Y-127500380D02*
X155389580Y-127500380D01*
X163168604Y-126301500D02*
G75*
G03*
X163168604Y-126301500I-5180604J0D01*
G01*
X163576000Y-126301500D02*
G75*
G03*
X163576000Y-126301500I-5588000J0D01*
G01*
D11*
%TO.C,P1*%
X120062000Y-117074000D02*
X114092000Y-117074000D01*
X114092000Y-117074000D02*
X114092000Y-124694000D01*
X114092000Y-124694000D02*
X120062000Y-124694000D01*
X120062000Y-124694000D02*
X120062000Y-117074000D01*
X120052000Y-120384000D02*
X119302000Y-120384000D01*
X119302000Y-120384000D02*
X119302000Y-121384000D01*
X119302000Y-121384000D02*
X120052000Y-121384000D01*
X120052000Y-121384000D02*
X120052000Y-120384000D01*
X120052000Y-117084000D02*
X119302000Y-117084000D01*
X119302000Y-117084000D02*
X119302000Y-118884000D01*
X119302000Y-118884000D02*
X120052000Y-118884000D01*
X120052000Y-118884000D02*
X120052000Y-117084000D01*
X120052000Y-122884000D02*
X119302000Y-122884000D01*
X119302000Y-122884000D02*
X119302000Y-124684000D01*
X119302000Y-124684000D02*
X120052000Y-124684000D01*
X120052000Y-124684000D02*
X120052000Y-122884000D01*
X117802000Y-117084000D02*
X117802000Y-117834000D01*
X117802000Y-117834000D02*
X114852000Y-117834000D01*
X114852000Y-117834000D02*
X114852000Y-120884000D01*
X117802000Y-124684000D02*
X117802000Y-123934000D01*
X117802000Y-123934000D02*
X114852000Y-123934000D01*
X114852000Y-123934000D02*
X114852000Y-120884000D01*
X120352000Y-118034000D02*
X120352000Y-116784000D01*
X120352000Y-116784000D02*
X119102000Y-116784000D01*
%TO.C,P3*%
X111716000Y-116784000D02*
X110466000Y-116784000D01*
X111716000Y-118034000D02*
X111716000Y-116784000D01*
X106216000Y-123934000D02*
X106216000Y-120884000D01*
X109166000Y-123934000D02*
X106216000Y-123934000D01*
X109166000Y-124684000D02*
X109166000Y-123934000D01*
X106216000Y-117834000D02*
X106216000Y-120884000D01*
X109166000Y-117834000D02*
X106216000Y-117834000D01*
X109166000Y-117084000D02*
X109166000Y-117834000D01*
X111416000Y-124684000D02*
X111416000Y-122884000D01*
X110666000Y-124684000D02*
X111416000Y-124684000D01*
X110666000Y-122884000D02*
X110666000Y-124684000D01*
X111416000Y-122884000D02*
X110666000Y-122884000D01*
X111416000Y-118884000D02*
X111416000Y-117084000D01*
X110666000Y-118884000D02*
X111416000Y-118884000D01*
X110666000Y-117084000D02*
X110666000Y-118884000D01*
X111416000Y-117084000D02*
X110666000Y-117084000D01*
X111416000Y-121384000D02*
X111416000Y-120384000D01*
X110666000Y-121384000D02*
X111416000Y-121384000D01*
X110666000Y-120384000D02*
X110666000Y-121384000D01*
X111416000Y-120384000D02*
X110666000Y-120384000D01*
X111426000Y-124694000D02*
X111426000Y-117074000D01*
X105456000Y-124694000D02*
X111426000Y-124694000D01*
X105456000Y-117074000D02*
X105456000Y-124694000D01*
X111426000Y-117074000D02*
X105456000Y-117074000D01*
%TO.C,P5*%
X106497000Y-58210000D02*
X106497000Y-59460000D01*
X107747000Y-58210000D02*
X106497000Y-58210000D01*
X113647000Y-63710000D02*
X110597000Y-63710000D01*
X113647000Y-60760000D02*
X113647000Y-63710000D01*
X114397000Y-60760000D02*
X113647000Y-60760000D01*
X107547000Y-63710000D02*
X110597000Y-63710000D01*
X107547000Y-60760000D02*
X107547000Y-63710000D01*
X106797000Y-60760000D02*
X107547000Y-60760000D01*
X114397000Y-58510000D02*
X112597000Y-58510000D01*
X114397000Y-59260000D02*
X114397000Y-58510000D01*
X112597000Y-59260000D02*
X114397000Y-59260000D01*
X112597000Y-58510000D02*
X112597000Y-59260000D01*
X108597000Y-58510000D02*
X106797000Y-58510000D01*
X108597000Y-59260000D02*
X108597000Y-58510000D01*
X106797000Y-59260000D02*
X108597000Y-59260000D01*
X106797000Y-58510000D02*
X106797000Y-59260000D01*
X111097000Y-58510000D02*
X110097000Y-58510000D01*
X111097000Y-59260000D02*
X111097000Y-58510000D01*
X110097000Y-59260000D02*
X111097000Y-59260000D01*
X110097000Y-58510000D02*
X110097000Y-59260000D01*
X114407000Y-58500000D02*
X106787000Y-58500000D01*
X114407000Y-64470000D02*
X114407000Y-58500000D01*
X106787000Y-64470000D02*
X114407000Y-64470000D01*
X106787000Y-58500000D02*
X106787000Y-64470000D01*
%TO.C,P6*%
X120189000Y-69068000D02*
X114219000Y-69068000D01*
X114219000Y-69068000D02*
X114219000Y-76688000D01*
X114219000Y-76688000D02*
X120189000Y-76688000D01*
X120189000Y-76688000D02*
X120189000Y-69068000D01*
X120179000Y-72378000D02*
X119429000Y-72378000D01*
X119429000Y-72378000D02*
X119429000Y-73378000D01*
X119429000Y-73378000D02*
X120179000Y-73378000D01*
X120179000Y-73378000D02*
X120179000Y-72378000D01*
X120179000Y-69078000D02*
X119429000Y-69078000D01*
X119429000Y-69078000D02*
X119429000Y-70878000D01*
X119429000Y-70878000D02*
X120179000Y-70878000D01*
X120179000Y-70878000D02*
X120179000Y-69078000D01*
X120179000Y-74878000D02*
X119429000Y-74878000D01*
X119429000Y-74878000D02*
X119429000Y-76678000D01*
X119429000Y-76678000D02*
X120179000Y-76678000D01*
X120179000Y-76678000D02*
X120179000Y-74878000D01*
X117929000Y-69078000D02*
X117929000Y-69828000D01*
X117929000Y-69828000D02*
X114979000Y-69828000D01*
X114979000Y-69828000D02*
X114979000Y-72878000D01*
X117929000Y-76678000D02*
X117929000Y-75928000D01*
X117929000Y-75928000D02*
X114979000Y-75928000D01*
X114979000Y-75928000D02*
X114979000Y-72878000D01*
X120479000Y-70028000D02*
X120479000Y-68778000D01*
X120479000Y-68778000D02*
X119229000Y-68778000D01*
%TD*%
D14*
X134778000Y-54852000D02*
X135478000Y-54852000D01*
X134778000Y-53352000D02*
X135478000Y-53352000D01*
X135478000Y-54852000D02*
G75*
G03*
X135478000Y-53352000I0J750000D01*
G01*
X134778000Y-53352000D02*
G75*
G03*
X134778000Y-54852000I0J-750000D01*
G01*
X134778000Y-57392000D02*
X135478000Y-57392000D01*
X134778000Y-55892000D02*
X135478000Y-55892000D01*
X135478000Y-57392000D02*
G75*
G03*
X135478000Y-55892000I0J750000D01*
G01*
X134778000Y-55892000D02*
G75*
G03*
X134778000Y-57392000I0J-750000D01*
G01*
X134778000Y-59932000D02*
X135478000Y-59932000D01*
X134778000Y-58432000D02*
X135478000Y-58432000D01*
X135478000Y-59932000D02*
G75*
G03*
X135478000Y-58432000I0J750000D01*
G01*
X134778000Y-58432000D02*
G75*
G03*
X134778000Y-59932000I0J-750000D01*
G01*
X134778000Y-62472000D02*
X135478000Y-62472000D01*
X134778000Y-60972000D02*
X135478000Y-60972000D01*
X135478000Y-62472000D02*
G75*
G03*
X135478000Y-60972000I0J750000D01*
G01*
X134778000Y-60972000D02*
G75*
G03*
X134778000Y-62472000I0J-750000D01*
G01*
X134778000Y-65012000D02*
X135478000Y-65012000D01*
X134778000Y-63512000D02*
X135478000Y-63512000D01*
X135478000Y-65012000D02*
G75*
G03*
X135478000Y-63512000I0J750000D01*
G01*
X134778000Y-63512000D02*
G75*
G03*
X134778000Y-65012000I0J-750000D01*
G01*
X134778000Y-67552000D02*
X135478000Y-67552000D01*
X134778000Y-66052000D02*
X135478000Y-66052000D01*
X135478000Y-67552000D02*
G75*
G03*
X135478000Y-66052000I0J750000D01*
G01*
X134778000Y-66052000D02*
G75*
G03*
X134778000Y-67552000I0J-750000D01*
G01*
X134778000Y-70092000D02*
X135478000Y-70092000D01*
X134778000Y-68592000D02*
X135478000Y-68592000D01*
X135478000Y-70092000D02*
G75*
G03*
X135478000Y-68592000I0J750000D01*
G01*
X134778000Y-68592000D02*
G75*
G03*
X134778000Y-70092000I0J-750000D01*
G01*
X134778000Y-72632000D02*
X135478000Y-72632000D01*
X134778000Y-71132000D02*
X135478000Y-71132000D01*
X135478000Y-72632000D02*
G75*
G03*
X135478000Y-71132000I0J750000D01*
G01*
X134778000Y-71132000D02*
G75*
G03*
X134778000Y-72632000I0J-750000D01*
G01*
X134778000Y-75172000D02*
X135478000Y-75172000D01*
X134778000Y-73672000D02*
X135478000Y-73672000D01*
X135478000Y-75172000D02*
G75*
G03*
X135478000Y-73672000I0J750000D01*
G01*
X134778000Y-73672000D02*
G75*
G03*
X134778000Y-75172000I0J-750000D01*
G01*
X134778000Y-77712000D02*
X135478000Y-77712000D01*
X134778000Y-76212000D02*
X135478000Y-76212000D01*
X135478000Y-77712000D02*
G75*
G03*
X135478000Y-76212000I0J750000D01*
G01*
X134778000Y-76212000D02*
G75*
G03*
X134778000Y-77712000I0J-750000D01*
G01*
X134778000Y-80252000D02*
X135478000Y-80252000D01*
X134778000Y-78752000D02*
X135478000Y-78752000D01*
X135478000Y-80252000D02*
G75*
G03*
X135478000Y-78752000I0J750000D01*
G01*
X134778000Y-78752000D02*
G75*
G03*
X134778000Y-80252000I0J-750000D01*
G01*
X134778000Y-82792000D02*
X135478000Y-82792000D01*
X134778000Y-81292000D02*
X135478000Y-81292000D01*
X135478000Y-82792000D02*
G75*
G03*
X135478000Y-81292000I0J750000D01*
G01*
X134778000Y-81292000D02*
G75*
G03*
X134778000Y-82792000I0J-750000D01*
G01*
X134778000Y-85332000D02*
X135478000Y-85332000D01*
X134778000Y-83832000D02*
X135478000Y-83832000D01*
X135478000Y-85332000D02*
G75*
G03*
X135478000Y-83832000I0J750000D01*
G01*
X134778000Y-83832000D02*
G75*
G03*
X134778000Y-85332000I0J-750000D01*
G01*
X134778000Y-87872000D02*
X135478000Y-87872000D01*
X134778000Y-86372000D02*
X135478000Y-86372000D01*
X135478000Y-87872000D02*
G75*
G03*
X135478000Y-86372000I0J750000D01*
G01*
X134778000Y-86372000D02*
G75*
G03*
X134778000Y-87872000I0J-750000D01*
G01*
X134778000Y-90412000D02*
X135478000Y-90412000D01*
X134778000Y-88912000D02*
X135478000Y-88912000D01*
X135478000Y-90412000D02*
G75*
G03*
X135478000Y-88912000I0J750000D01*
G01*
X134778000Y-88912000D02*
G75*
G03*
X134778000Y-90412000I0J-750000D01*
G01*
X150018000Y-90412000D02*
X150718000Y-90412000D01*
X150018000Y-88912000D02*
X150718000Y-88912000D01*
X150718000Y-90412000D02*
G75*
G03*
X150718000Y-88912000I0J750000D01*
G01*
X150018000Y-88912000D02*
G75*
G03*
X150018000Y-90412000I0J-750000D01*
G01*
X150018000Y-87872000D02*
X150718000Y-87872000D01*
X150018000Y-86372000D02*
X150718000Y-86372000D01*
X150718000Y-87872000D02*
G75*
G03*
X150718000Y-86372000I0J750000D01*
G01*
X150018000Y-86372000D02*
G75*
G03*
X150018000Y-87872000I0J-750000D01*
G01*
X150018000Y-85332000D02*
X150718000Y-85332000D01*
X150018000Y-83832000D02*
X150718000Y-83832000D01*
X150718000Y-85332000D02*
G75*
G03*
X150718000Y-83832000I0J750000D01*
G01*
X150018000Y-83832000D02*
G75*
G03*
X150018000Y-85332000I0J-750000D01*
G01*
X150018000Y-82792000D02*
X150718000Y-82792000D01*
X150018000Y-81292000D02*
X150718000Y-81292000D01*
X150718000Y-82792000D02*
G75*
G03*
X150718000Y-81292000I0J750000D01*
G01*
X150018000Y-81292000D02*
G75*
G03*
X150018000Y-82792000I0J-750000D01*
G01*
X150018000Y-80252000D02*
X150718000Y-80252000D01*
X150018000Y-78752000D02*
X150718000Y-78752000D01*
X150718000Y-80252000D02*
G75*
G03*
X150718000Y-78752000I0J750000D01*
G01*
X150018000Y-78752000D02*
G75*
G03*
X150018000Y-80252000I0J-750000D01*
G01*
X150018000Y-77712000D02*
X150718000Y-77712000D01*
X150018000Y-76212000D02*
X150718000Y-76212000D01*
X150718000Y-77712000D02*
G75*
G03*
X150718000Y-76212000I0J750000D01*
G01*
X150018000Y-76212000D02*
G75*
G03*
X150018000Y-77712000I0J-750000D01*
G01*
X150018000Y-75172000D02*
X150718000Y-75172000D01*
X150018000Y-73672000D02*
X150718000Y-73672000D01*
X150718000Y-75172000D02*
G75*
G03*
X150718000Y-73672000I0J750000D01*
G01*
X150018000Y-73672000D02*
G75*
G03*
X150018000Y-75172000I0J-750000D01*
G01*
X150018000Y-72632000D02*
X150718000Y-72632000D01*
X150018000Y-71132000D02*
X150718000Y-71132000D01*
X150718000Y-72632000D02*
G75*
G03*
X150718000Y-71132000I0J750000D01*
G01*
X150018000Y-71132000D02*
G75*
G03*
X150018000Y-72632000I0J-750000D01*
G01*
X150018000Y-70092000D02*
X150718000Y-70092000D01*
X150018000Y-68592000D02*
X150718000Y-68592000D01*
X150718000Y-70092000D02*
G75*
G03*
X150718000Y-68592000I0J750000D01*
G01*
X150018000Y-68592000D02*
G75*
G03*
X150018000Y-70092000I0J-750000D01*
G01*
X150018000Y-67552000D02*
X150718000Y-67552000D01*
X150018000Y-66052000D02*
X150718000Y-66052000D01*
X150718000Y-67552000D02*
G75*
G03*
X150718000Y-66052000I0J750000D01*
G01*
X150018000Y-66052000D02*
G75*
G03*
X150018000Y-67552000I0J-750000D01*
G01*
X150018000Y-65012000D02*
X150718000Y-65012000D01*
X150018000Y-63512000D02*
X150718000Y-63512000D01*
X150718000Y-65012000D02*
G75*
G03*
X150718000Y-63512000I0J750000D01*
G01*
X150018000Y-63512000D02*
G75*
G03*
X150018000Y-65012000I0J-750000D01*
G01*
X150018000Y-62472000D02*
X150718000Y-62472000D01*
X150018000Y-60972000D02*
X150718000Y-60972000D01*
X150718000Y-62472000D02*
G75*
G03*
X150718000Y-60972000I0J750000D01*
G01*
X150018000Y-60972000D02*
G75*
G03*
X150018000Y-62472000I0J-750000D01*
G01*
X150018000Y-59932000D02*
X150718000Y-59932000D01*
X150018000Y-58432000D02*
X150718000Y-58432000D01*
X150718000Y-59932000D02*
G75*
G03*
X150718000Y-58432000I0J750000D01*
G01*
X150018000Y-58432000D02*
G75*
G03*
X150018000Y-59932000I0J-750000D01*
G01*
X150018000Y-57392000D02*
X150718000Y-57392000D01*
X150018000Y-55892000D02*
X150718000Y-55892000D01*
X150718000Y-57392000D02*
G75*
G03*
X150718000Y-55892000I0J750000D01*
G01*
X150018000Y-55892000D02*
G75*
G03*
X150018000Y-57392000I0J-750000D01*
G01*
X150018000Y-54852000D02*
X150718000Y-54852000D01*
X150018000Y-53352000D02*
X150718000Y-53352000D01*
X150718000Y-54852000D02*
G75*
G03*
X150718000Y-53352000I0J750000D01*
G01*
X150018000Y-53352000D02*
G75*
G03*
X150018000Y-54852000I0J-750000D01*
G01*
%TO.C,C2*%
X165389000Y-55788000D02*
X165389000Y-56988000D01*
X166589000Y-56988000D01*
X166589000Y-55788000D01*
X165389000Y-55788000D01*
X161589000Y-56388000D02*
G75*
G03*
X161589000Y-56388000I-600000J0D01*
G01*
%TD*%
%TO.C,C1*%
X165897000Y-86649000D02*
X165897000Y-87849000D01*
X167097000Y-87849000D01*
X167097000Y-86649000D01*
X165897000Y-86649000D01*
X167097000Y-82249000D02*
G75*
G03*
X167097000Y-82249000I-600000J0D01*
G01*
%TD*%
%TO.C,C5*%
X176946000Y-77632000D02*
X176946000Y-78832000D01*
X178146000Y-78832000D01*
X178146000Y-77632000D01*
X176946000Y-77632000D01*
X174346000Y-78232000D02*
G75*
G03*
X174346000Y-78232000I-600000J0D01*
G01*
%TD*%
%TO.C,C6*%
X157400000Y-94900000D02*
X157400000Y-96100000D01*
X158600000Y-96100000D01*
X158600000Y-94900000D01*
X157400000Y-94900000D01*
X158600000Y-91700000D02*
G75*
G03*
X158600000Y-91700000I-600000J0D01*
G01*
%TD*%
%TO.C,CON1*%
X165599800Y-119299940D02*
X165599800Y-122700060D01*
X168999920Y-122700060D01*
X168999920Y-119299940D01*
X165599800Y-119299940D01*
X171599280Y-119299940D02*
X171599280Y-122700060D01*
X174999400Y-122700060D01*
X174999400Y-119299940D01*
X171599280Y-119299940D01*
X168599540Y-114600940D02*
X168599540Y-118001060D01*
X171999660Y-118001060D01*
X171999660Y-114600940D01*
X168599540Y-114600940D01*
%TD*%
%TO.C,D1*%
X155781960Y-116968220D02*
G75*
G03*
X155781960Y-116968220I-1220000J0D01*
G01*
X153341960Y-100508220D02*
X153341960Y-102948220D01*
X155781960Y-102948220D01*
X155781960Y-100508220D01*
X153341960Y-100508220D01*
%TD*%
%TO.C,D3*%
X157808040Y-62863780D02*
G75*
G03*
X157808040Y-62863780I-1220000J0D01*
G01*
X155368040Y-76883780D02*
X155368040Y-79323780D01*
X157808040Y-79323780D01*
X157808040Y-76883780D01*
X155368040Y-76883780D01*
%TD*%
%TO.C,L1*%
X167347430Y-65445640D02*
G75*
G03*
X167347430Y-65445640I-850430J0D01*
G01*
X167347430Y-70444360D02*
G75*
G03*
X167347430Y-70444360I-850430J0D01*
G01*
%TD*%
%TO.C,L2*%
X163851070Y-101000000D02*
G75*
G03*
X163851070Y-101000000I-850430J0D01*
G01*
X168849790Y-101000000D02*
G75*
G03*
X168849790Y-101000000I-850430J0D01*
G01*
%TD*%
%TO.C,U1*%
X174132500Y-95567500D02*
G75*
G03*
X174132500Y-95567500I-850000J0D01*
G01*
X174132500Y-98967500D02*
G75*
G03*
X174132500Y-98967500I-850000J0D01*
G01*
X174132500Y-92167500D02*
G75*
G03*
X174132500Y-92167500I-850000J0D01*
G01*
X178332500Y-93867500D02*
G75*
G03*
X178332500Y-93867500I-850000J0D01*
G01*
X178332500Y-97267500D02*
G75*
G03*
X178332500Y-97267500I-850000J0D01*
G01*
%TD*%
%TO.C,U2*%
X174196000Y-66167000D02*
G75*
G03*
X174196000Y-66167000I-850000J0D01*
G01*
X174196000Y-69567000D02*
G75*
G03*
X174196000Y-69567000I-850000J0D01*
G01*
X174196000Y-62767000D02*
G75*
G03*
X174196000Y-62767000I-850000J0D01*
G01*
X178396000Y-64467000D02*
G75*
G03*
X178396000Y-64467000I-850000J0D01*
G01*
X178396000Y-67867000D02*
G75*
G03*
X178396000Y-67867000I-850000J0D01*
G01*
%TD*%
X146000000Y-124102000D02*
X146000000Y-123802000D01*
X144576000Y-124102000D02*
X144576000Y-123802000D01*
X146000000Y-123802000D02*
G75*
G03*
X144576000Y-123802000I-712000J0D01*
G01*
X144576000Y-124102000D02*
G75*
G03*
X146000000Y-124102000I712000J0D01*
G01*
X144730000Y-129182000D02*
X144730000Y-128882000D01*
X143306000Y-129182000D02*
X143306000Y-128882000D01*
X144730000Y-128882000D02*
G75*
G03*
X143306000Y-128882000I-712000J0D01*
G01*
X143306000Y-129182000D02*
G75*
G03*
X144730000Y-129182000I712000J0D01*
G01*
X143460000Y-124102000D02*
X143460000Y-123802000D01*
X142036000Y-124102000D02*
X142036000Y-123802000D01*
X143460000Y-123802000D02*
G75*
G03*
X142036000Y-123802000I-712000J0D01*
G01*
X142036000Y-124102000D02*
G75*
G03*
X143460000Y-124102000I712000J0D01*
G01*
X142190000Y-129182000D02*
X142190000Y-128882000D01*
X140766000Y-129182000D02*
X140766000Y-128882000D01*
X142190000Y-128882000D02*
G75*
G03*
X140766000Y-128882000I-712000J0D01*
G01*
X140766000Y-129182000D02*
G75*
G03*
X142190000Y-129182000I712000J0D01*
G01*
X140920000Y-124102000D02*
X140920000Y-123802000D01*
X139496000Y-124102000D02*
X139496000Y-123802000D01*
X140920000Y-123802000D02*
G75*
G03*
X139496000Y-123802000I-712000J0D01*
G01*
X139496000Y-124102000D02*
G75*
G03*
X140920000Y-124102000I712000J0D01*
G01*
X139650000Y-129182000D02*
X139650000Y-128882000D01*
X138226000Y-129182000D02*
X138226000Y-128882000D01*
X139650000Y-128882000D02*
G75*
G03*
X138226000Y-128882000I-712000J0D01*
G01*
X138226000Y-129182000D02*
G75*
G03*
X139650000Y-129182000I712000J0D01*
G01*
X138380000Y-124102000D02*
X138380000Y-123802000D01*
X136956000Y-124102000D02*
X136956000Y-123802000D01*
X138380000Y-123802000D02*
G75*
G03*
X136956000Y-123802000I-712000J0D01*
G01*
X136956000Y-124102000D02*
G75*
G03*
X138380000Y-124102000I712000J0D01*
G01*
X137110000Y-129182000D02*
X137110000Y-128882000D01*
X135686000Y-129182000D02*
X135686000Y-128882000D01*
X137110000Y-128882000D02*
G75*
G03*
X135686000Y-128882000I-712000J0D01*
G01*
X135686000Y-129182000D02*
G75*
G03*
X137110000Y-129182000I712000J0D01*
G01*
X135840000Y-124102000D02*
X135840000Y-123802000D01*
X134416000Y-124102000D02*
X134416000Y-123802000D01*
X135840000Y-123802000D02*
G75*
G03*
X134416000Y-123802000I-712000J0D01*
G01*
X134416000Y-124102000D02*
G75*
G03*
X135840000Y-124102000I712000J0D01*
G01*
X134570000Y-129182000D02*
X134570000Y-128882000D01*
X133146000Y-129182000D02*
X133146000Y-128882000D01*
X134570000Y-128882000D02*
G75*
G03*
X133146000Y-128882000I-712000J0D01*
G01*
X133146000Y-129182000D02*
G75*
G03*
X134570000Y-129182000I712000J0D01*
G01*
X133300000Y-124102000D02*
X133300000Y-123802000D01*
X131876000Y-124102000D02*
X131876000Y-123802000D01*
X133300000Y-123802000D02*
G75*
G03*
X131876000Y-123802000I-712000J0D01*
G01*
X131876000Y-124102000D02*
G75*
G03*
X133300000Y-124102000I712000J0D01*
G01*
X132030000Y-129182000D02*
X132030000Y-128882000D01*
X130606000Y-129182000D02*
X130606000Y-128882000D01*
X132030000Y-128882000D02*
G75*
G03*
X130606000Y-128882000I-712000J0D01*
G01*
X130606000Y-129182000D02*
G75*
G03*
X132030000Y-129182000I712000J0D01*
G01*
X130760000Y-124102000D02*
X130760000Y-123802000D01*
X129336000Y-124102000D02*
X129336000Y-123802000D01*
X130760000Y-123802000D02*
G75*
G03*
X129336000Y-123802000I-712000J0D01*
G01*
X129336000Y-124102000D02*
G75*
G03*
X130760000Y-124102000I712000J0D01*
G01*
X129490000Y-129182000D02*
X129490000Y-128882000D01*
X128066000Y-129182000D02*
X128066000Y-128882000D01*
X129490000Y-128882000D02*
G75*
G03*
X128066000Y-128882000I-712000J0D01*
G01*
X128066000Y-129182000D02*
G75*
G03*
X129490000Y-129182000I712000J0D01*
G01*
X128220000Y-124102000D02*
X128220000Y-123802000D01*
X126796000Y-124102000D02*
X126796000Y-123802000D01*
X128220000Y-123802000D02*
G75*
G03*
X126796000Y-123802000I-712000J0D01*
G01*
X126796000Y-124102000D02*
G75*
G03*
X128220000Y-124102000I712000J0D01*
G01*
%TO.C,Q2*%
D12*
X117444761Y-51987619D02*
X117349523Y-51940000D01*
X117254285Y-51844761D01*
X117111428Y-51701904D01*
X117016190Y-51654285D01*
X116920952Y-51654285D01*
X116968571Y-51892380D02*
X116873333Y-51844761D01*
X116778095Y-51749523D01*
X116730476Y-51559047D01*
X116730476Y-51225714D01*
X116778095Y-51035238D01*
X116873333Y-50940000D01*
X116968571Y-50892380D01*
X117159047Y-50892380D01*
X117254285Y-50940000D01*
X117349523Y-51035238D01*
X117397142Y-51225714D01*
X117397142Y-51559047D01*
X117349523Y-51749523D01*
X117254285Y-51844761D01*
X117159047Y-51892380D01*
X116968571Y-51892380D01*
X117778095Y-50987619D02*
X117825714Y-50940000D01*
X117920952Y-50892380D01*
X118159047Y-50892380D01*
X118254285Y-50940000D01*
X118301904Y-50987619D01*
X118349523Y-51082857D01*
X118349523Y-51178095D01*
X118301904Y-51320952D01*
X117730476Y-51892380D01*
X118349523Y-51892380D01*
%TO.C,U5*%
X134366095Y-49554380D02*
X134366095Y-50363904D01*
X134413714Y-50459142D01*
X134461333Y-50506761D01*
X134556571Y-50554380D01*
X134747047Y-50554380D01*
X134842285Y-50506761D01*
X134889904Y-50459142D01*
X134937523Y-50363904D01*
X134937523Y-49554380D01*
X135889904Y-49554380D02*
X135413714Y-49554380D01*
X135366095Y-50030571D01*
X135413714Y-49982952D01*
X135508952Y-49935333D01*
X135747047Y-49935333D01*
X135842285Y-49982952D01*
X135889904Y-50030571D01*
X135937523Y-50125809D01*
X135937523Y-50363904D01*
X135889904Y-50459142D01*
X135842285Y-50506761D01*
X135747047Y-50554380D01*
X135508952Y-50554380D01*
X135413714Y-50506761D01*
X135366095Y-50459142D01*
%TO.C,C2*%
X164566142Y-52746666D02*
X164613761Y-52794285D01*
X164661380Y-52937142D01*
X164661380Y-53032380D01*
X164613761Y-53175238D01*
X164518523Y-53270476D01*
X164423285Y-53318095D01*
X164232809Y-53365714D01*
X164089952Y-53365714D01*
X163899476Y-53318095D01*
X163804238Y-53270476D01*
X163709000Y-53175238D01*
X163661380Y-53032380D01*
X163661380Y-52937142D01*
X163709000Y-52794285D01*
X163756619Y-52746666D01*
X163756619Y-52365714D02*
X163709000Y-52318095D01*
X163661380Y-52222857D01*
X163661380Y-51984761D01*
X163709000Y-51889523D01*
X163756619Y-51841904D01*
X163851857Y-51794285D01*
X163947095Y-51794285D01*
X164089952Y-51841904D01*
X164661380Y-52413333D01*
X164661380Y-51794285D01*
X163661380Y-60215714D02*
X163661380Y-60406190D01*
X163709000Y-60501428D01*
X163756619Y-60549047D01*
X163899476Y-60644285D01*
X164089952Y-60691904D01*
X164470904Y-60691904D01*
X164566142Y-60644285D01*
X164613761Y-60596666D01*
X164661380Y-60501428D01*
X164661380Y-60310952D01*
X164613761Y-60215714D01*
X164566142Y-60168095D01*
X164470904Y-60120476D01*
X164232809Y-60120476D01*
X164137571Y-60168095D01*
X164089952Y-60215714D01*
X164042333Y-60310952D01*
X164042333Y-60501428D01*
X164089952Y-60596666D01*
X164137571Y-60644285D01*
X164232809Y-60691904D01*
X164089952Y-59549047D02*
X164042333Y-59644285D01*
X163994714Y-59691904D01*
X163899476Y-59739523D01*
X163851857Y-59739523D01*
X163756619Y-59691904D01*
X163709000Y-59644285D01*
X163661380Y-59549047D01*
X163661380Y-59358571D01*
X163709000Y-59263333D01*
X163756619Y-59215714D01*
X163851857Y-59168095D01*
X163899476Y-59168095D01*
X163994714Y-59215714D01*
X164042333Y-59263333D01*
X164089952Y-59358571D01*
X164089952Y-59549047D01*
X164137571Y-59644285D01*
X164185190Y-59691904D01*
X164280428Y-59739523D01*
X164470904Y-59739523D01*
X164566142Y-59691904D01*
X164613761Y-59644285D01*
X164661380Y-59549047D01*
X164661380Y-59358571D01*
X164613761Y-59263333D01*
X164566142Y-59215714D01*
X164470904Y-59168095D01*
X164280428Y-59168095D01*
X164185190Y-59215714D01*
X164137571Y-59263333D01*
X164089952Y-59358571D01*
X163661380Y-58549047D02*
X163661380Y-58453809D01*
X163709000Y-58358571D01*
X163756619Y-58310952D01*
X163851857Y-58263333D01*
X164042333Y-58215714D01*
X164280428Y-58215714D01*
X164470904Y-58263333D01*
X164566142Y-58310952D01*
X164613761Y-58358571D01*
X164661380Y-58453809D01*
X164661380Y-58549047D01*
X164613761Y-58644285D01*
X164566142Y-58691904D01*
X164470904Y-58739523D01*
X164280428Y-58787142D01*
X164042333Y-58787142D01*
X163851857Y-58739523D01*
X163756619Y-58691904D01*
X163709000Y-58644285D01*
X163661380Y-58549047D01*
X163994714Y-57787142D02*
X164994714Y-57787142D01*
X164518523Y-57310952D02*
X164613761Y-57263333D01*
X164661380Y-57168095D01*
X164518523Y-57787142D02*
X164613761Y-57739523D01*
X164661380Y-57644285D01*
X164661380Y-57453809D01*
X164613761Y-57358571D01*
X164518523Y-57310952D01*
X163994714Y-57310952D01*
%TO.C,C1*%
X169672333Y-86036142D02*
X169624714Y-86083761D01*
X169481857Y-86131380D01*
X169386619Y-86131380D01*
X169243761Y-86083761D01*
X169148523Y-85988523D01*
X169100904Y-85893285D01*
X169053285Y-85702809D01*
X169053285Y-85559952D01*
X169100904Y-85369476D01*
X169148523Y-85274238D01*
X169243761Y-85179000D01*
X169386619Y-85131380D01*
X169481857Y-85131380D01*
X169624714Y-85179000D01*
X169672333Y-85226619D01*
X170624714Y-86131380D02*
X170053285Y-86131380D01*
X170339000Y-86131380D02*
X170339000Y-85131380D01*
X170243761Y-85274238D01*
X170148523Y-85369476D01*
X170053285Y-85417095D01*
X162457285Y-85131380D02*
X162266809Y-85131380D01*
X162171571Y-85179000D01*
X162123952Y-85226619D01*
X162028714Y-85369476D01*
X161981095Y-85559952D01*
X161981095Y-85940904D01*
X162028714Y-86036142D01*
X162076333Y-86083761D01*
X162171571Y-86131380D01*
X162362047Y-86131380D01*
X162457285Y-86083761D01*
X162504904Y-86036142D01*
X162552523Y-85940904D01*
X162552523Y-85702809D01*
X162504904Y-85607571D01*
X162457285Y-85559952D01*
X162362047Y-85512333D01*
X162171571Y-85512333D01*
X162076333Y-85559952D01*
X162028714Y-85607571D01*
X161981095Y-85702809D01*
X163123952Y-85559952D02*
X163028714Y-85512333D01*
X162981095Y-85464714D01*
X162933476Y-85369476D01*
X162933476Y-85321857D01*
X162981095Y-85226619D01*
X163028714Y-85179000D01*
X163123952Y-85131380D01*
X163314428Y-85131380D01*
X163409666Y-85179000D01*
X163457285Y-85226619D01*
X163504904Y-85321857D01*
X163504904Y-85369476D01*
X163457285Y-85464714D01*
X163409666Y-85512333D01*
X163314428Y-85559952D01*
X163123952Y-85559952D01*
X163028714Y-85607571D01*
X162981095Y-85655190D01*
X162933476Y-85750428D01*
X162933476Y-85940904D01*
X162981095Y-86036142D01*
X163028714Y-86083761D01*
X163123952Y-86131380D01*
X163314428Y-86131380D01*
X163409666Y-86083761D01*
X163457285Y-86036142D01*
X163504904Y-85940904D01*
X163504904Y-85750428D01*
X163457285Y-85655190D01*
X163409666Y-85607571D01*
X163314428Y-85559952D01*
X164123952Y-85131380D02*
X164219190Y-85131380D01*
X164314428Y-85179000D01*
X164362047Y-85226619D01*
X164409666Y-85321857D01*
X164457285Y-85512333D01*
X164457285Y-85750428D01*
X164409666Y-85940904D01*
X164362047Y-86036142D01*
X164314428Y-86083761D01*
X164219190Y-86131380D01*
X164123952Y-86131380D01*
X164028714Y-86083761D01*
X163981095Y-86036142D01*
X163933476Y-85940904D01*
X163885857Y-85750428D01*
X163885857Y-85512333D01*
X163933476Y-85321857D01*
X163981095Y-85226619D01*
X164028714Y-85179000D01*
X164123952Y-85131380D01*
X164885857Y-85464714D02*
X164885857Y-86464714D01*
X165362047Y-85988523D02*
X165409666Y-86083761D01*
X165504904Y-86131380D01*
X164885857Y-85988523D02*
X164933476Y-86083761D01*
X165028714Y-86131380D01*
X165219190Y-86131380D01*
X165314428Y-86083761D01*
X165362047Y-85988523D01*
X165362047Y-85464714D01*
%TO.C,C5*%
X176641333Y-76417142D02*
X176593714Y-76464761D01*
X176450857Y-76512380D01*
X176355619Y-76512380D01*
X176212761Y-76464761D01*
X176117523Y-76369523D01*
X176069904Y-76274285D01*
X176022285Y-76083809D01*
X176022285Y-75940952D01*
X176069904Y-75750476D01*
X176117523Y-75655238D01*
X176212761Y-75560000D01*
X176355619Y-75512380D01*
X176450857Y-75512380D01*
X176593714Y-75560000D01*
X176641333Y-75607619D01*
X177546095Y-75512380D02*
X177069904Y-75512380D01*
X177022285Y-75988571D01*
X177069904Y-75940952D01*
X177165142Y-75893333D01*
X177403238Y-75893333D01*
X177498476Y-75940952D01*
X177546095Y-75988571D01*
X177593714Y-76083809D01*
X177593714Y-76321904D01*
X177546095Y-76417142D01*
X177498476Y-76464761D01*
X177403238Y-76512380D01*
X177165142Y-76512380D01*
X177069904Y-76464761D01*
X177022285Y-76417142D01*
X175554095Y-80179619D02*
X175601714Y-80132000D01*
X175696952Y-80084380D01*
X175935047Y-80084380D01*
X176030285Y-80132000D01*
X176077904Y-80179619D01*
X176125523Y-80274857D01*
X176125523Y-80370095D01*
X176077904Y-80512952D01*
X175506476Y-81084380D01*
X176125523Y-81084380D01*
X176506476Y-80179619D02*
X176554095Y-80132000D01*
X176649333Y-80084380D01*
X176887428Y-80084380D01*
X176982666Y-80132000D01*
X177030285Y-80179619D01*
X177077904Y-80274857D01*
X177077904Y-80370095D01*
X177030285Y-80512952D01*
X176458857Y-81084380D01*
X177077904Y-81084380D01*
X177696952Y-80084380D02*
X177792190Y-80084380D01*
X177887428Y-80132000D01*
X177935047Y-80179619D01*
X177982666Y-80274857D01*
X178030285Y-80465333D01*
X178030285Y-80703428D01*
X177982666Y-80893904D01*
X177935047Y-80989142D01*
X177887428Y-81036761D01*
X177792190Y-81084380D01*
X177696952Y-81084380D01*
X177601714Y-81036761D01*
X177554095Y-80989142D01*
X177506476Y-80893904D01*
X177458857Y-80703428D01*
X177458857Y-80465333D01*
X177506476Y-80274857D01*
X177554095Y-80179619D01*
X177601714Y-80132000D01*
X177696952Y-80084380D01*
X178458857Y-80417714D02*
X178458857Y-81417714D01*
X178935047Y-80941523D02*
X178982666Y-81036761D01*
X179077904Y-81084380D01*
X178458857Y-80941523D02*
X178506476Y-81036761D01*
X178601714Y-81084380D01*
X178792190Y-81084380D01*
X178887428Y-81036761D01*
X178935047Y-80941523D01*
X178935047Y-80417714D01*
%TO.C,C6*%
X155207333Y-94757142D02*
X155159714Y-94804761D01*
X155016857Y-94852380D01*
X154921619Y-94852380D01*
X154778761Y-94804761D01*
X154683523Y-94709523D01*
X154635904Y-94614285D01*
X154588285Y-94423809D01*
X154588285Y-94280952D01*
X154635904Y-94090476D01*
X154683523Y-93995238D01*
X154778761Y-93900000D01*
X154921619Y-93852380D01*
X155016857Y-93852380D01*
X155159714Y-93900000D01*
X155207333Y-93947619D01*
X156064476Y-93852380D02*
X155874000Y-93852380D01*
X155778761Y-93900000D01*
X155731142Y-93947619D01*
X155635904Y-94090476D01*
X155588285Y-94280952D01*
X155588285Y-94661904D01*
X155635904Y-94757142D01*
X155683523Y-94804761D01*
X155778761Y-94852380D01*
X155969238Y-94852380D01*
X156064476Y-94804761D01*
X156112095Y-94757142D01*
X156159714Y-94661904D01*
X156159714Y-94423809D01*
X156112095Y-94328571D01*
X156064476Y-94280952D01*
X155969238Y-94233333D01*
X155778761Y-94233333D01*
X155683523Y-94280952D01*
X155635904Y-94328571D01*
X155588285Y-94423809D01*
X156152095Y-98265619D02*
X156199714Y-98218000D01*
X156294952Y-98170380D01*
X156533047Y-98170380D01*
X156628285Y-98218000D01*
X156675904Y-98265619D01*
X156723523Y-98360857D01*
X156723523Y-98456095D01*
X156675904Y-98598952D01*
X156104476Y-99170380D01*
X156723523Y-99170380D01*
X157104476Y-98265619D02*
X157152095Y-98218000D01*
X157247333Y-98170380D01*
X157485428Y-98170380D01*
X157580666Y-98218000D01*
X157628285Y-98265619D01*
X157675904Y-98360857D01*
X157675904Y-98456095D01*
X157628285Y-98598952D01*
X157056857Y-99170380D01*
X157675904Y-99170380D01*
X158294952Y-98170380D02*
X158390190Y-98170380D01*
X158485428Y-98218000D01*
X158533047Y-98265619D01*
X158580666Y-98360857D01*
X158628285Y-98551333D01*
X158628285Y-98789428D01*
X158580666Y-98979904D01*
X158533047Y-99075142D01*
X158485428Y-99122761D01*
X158390190Y-99170380D01*
X158294952Y-99170380D01*
X158199714Y-99122761D01*
X158152095Y-99075142D01*
X158104476Y-98979904D01*
X158056857Y-98789428D01*
X158056857Y-98551333D01*
X158104476Y-98360857D01*
X158152095Y-98265619D01*
X158199714Y-98218000D01*
X158294952Y-98170380D01*
X159056857Y-98503714D02*
X159056857Y-99503714D01*
X159533047Y-99027523D02*
X159580666Y-99122761D01*
X159675904Y-99170380D01*
X159056857Y-99027523D02*
X159104476Y-99122761D01*
X159199714Y-99170380D01*
X159390190Y-99170380D01*
X159485428Y-99122761D01*
X159533047Y-99027523D01*
X159533047Y-98503714D01*
%TO.C,CON1*%
X180207142Y-120052285D02*
X180254761Y-120099904D01*
X180302380Y-120242761D01*
X180302380Y-120338000D01*
X180254761Y-120480857D01*
X180159523Y-120576095D01*
X180064285Y-120623714D01*
X179873809Y-120671333D01*
X179730952Y-120671333D01*
X179540476Y-120623714D01*
X179445238Y-120576095D01*
X179350000Y-120480857D01*
X179302380Y-120338000D01*
X179302380Y-120242761D01*
X179350000Y-120099904D01*
X179397619Y-120052285D01*
X179302380Y-119433238D02*
X179302380Y-119242761D01*
X179350000Y-119147523D01*
X179445238Y-119052285D01*
X179635714Y-119004666D01*
X179969047Y-119004666D01*
X180159523Y-119052285D01*
X180254761Y-119147523D01*
X180302380Y-119242761D01*
X180302380Y-119433238D01*
X180254761Y-119528476D01*
X180159523Y-119623714D01*
X179969047Y-119671333D01*
X179635714Y-119671333D01*
X179445238Y-119623714D01*
X179350000Y-119528476D01*
X179302380Y-119433238D01*
X180302380Y-118576095D02*
X179302380Y-118576095D01*
X180302380Y-118004666D01*
X179302380Y-118004666D01*
X180302380Y-117004666D02*
X180302380Y-117576095D01*
X180302380Y-117290380D02*
X179302380Y-117290380D01*
X179445238Y-117385619D01*
X179540476Y-117480857D01*
X179588095Y-117576095D01*
X167317238Y-124354571D02*
X167460095Y-124402190D01*
X167507714Y-124449809D01*
X167555333Y-124545047D01*
X167555333Y-124687904D01*
X167507714Y-124783142D01*
X167460095Y-124830761D01*
X167364857Y-124878380D01*
X166983904Y-124878380D01*
X166983904Y-123878380D01*
X167317238Y-123878380D01*
X167412476Y-123926000D01*
X167460095Y-123973619D01*
X167507714Y-124068857D01*
X167507714Y-124164095D01*
X167460095Y-124259333D01*
X167412476Y-124306952D01*
X167317238Y-124354571D01*
X166983904Y-124354571D01*
X167936285Y-124592666D02*
X168412476Y-124592666D01*
X167841047Y-124878380D02*
X168174380Y-123878380D01*
X168507714Y-124878380D01*
X169412476Y-124878380D02*
X169079142Y-124402190D01*
X168841047Y-124878380D02*
X168841047Y-123878380D01*
X169222000Y-123878380D01*
X169317238Y-123926000D01*
X169364857Y-123973619D01*
X169412476Y-124068857D01*
X169412476Y-124211714D01*
X169364857Y-124306952D01*
X169317238Y-124354571D01*
X169222000Y-124402190D01*
X168841047Y-124402190D01*
X170412476Y-124878380D02*
X170079142Y-124402190D01*
X169841047Y-124878380D02*
X169841047Y-123878380D01*
X170222000Y-123878380D01*
X170317238Y-123926000D01*
X170364857Y-123973619D01*
X170412476Y-124068857D01*
X170412476Y-124211714D01*
X170364857Y-124306952D01*
X170317238Y-124354571D01*
X170222000Y-124402190D01*
X169841047Y-124402190D01*
X170841047Y-124354571D02*
X171174380Y-124354571D01*
X171317238Y-124878380D02*
X170841047Y-124878380D01*
X170841047Y-123878380D01*
X171317238Y-123878380D01*
X172222000Y-124878380D02*
X171745809Y-124878380D01*
X171745809Y-123878380D01*
X172317238Y-124973619D02*
X173079142Y-124973619D01*
X173602952Y-123878380D02*
X173602952Y-124592666D01*
X173555333Y-124735523D01*
X173460095Y-124830761D01*
X173317238Y-124878380D01*
X173222000Y-124878380D01*
X174031523Y-124592666D02*
X174507714Y-124592666D01*
X173936285Y-124878380D02*
X174269619Y-123878380D01*
X174602952Y-124878380D01*
X175507714Y-124783142D02*
X175460095Y-124830761D01*
X175317238Y-124878380D01*
X175222000Y-124878380D01*
X175079142Y-124830761D01*
X174983904Y-124735523D01*
X174936285Y-124640285D01*
X174888666Y-124449809D01*
X174888666Y-124306952D01*
X174936285Y-124116476D01*
X174983904Y-124021238D01*
X175079142Y-123926000D01*
X175222000Y-123878380D01*
X175317238Y-123878380D01*
X175460095Y-123926000D01*
X175507714Y-123973619D01*
X175936285Y-124878380D02*
X175936285Y-123878380D01*
X176507714Y-124878380D02*
X176079142Y-124306952D01*
X176507714Y-123878380D02*
X175936285Y-124449809D01*
%TO.C,D1*%
X159011380Y-114465095D02*
X158011380Y-114465095D01*
X158011380Y-114227000D01*
X158059000Y-114084142D01*
X158154238Y-113988904D01*
X158249476Y-113941285D01*
X158439952Y-113893666D01*
X158582809Y-113893666D01*
X158773285Y-113941285D01*
X158868523Y-113988904D01*
X158963761Y-114084142D01*
X159011380Y-114227000D01*
X159011380Y-114465095D01*
X159011380Y-112941285D02*
X159011380Y-113512714D01*
X159011380Y-113227000D02*
X158011380Y-113227000D01*
X158154238Y-113322238D01*
X158249476Y-113417476D01*
X158297095Y-113512714D01*
X154963761Y-114624904D02*
X155011380Y-114482047D01*
X155011380Y-114243952D01*
X154963761Y-114148714D01*
X154916142Y-114101095D01*
X154820904Y-114053476D01*
X154725666Y-114053476D01*
X154630428Y-114101095D01*
X154582809Y-114148714D01*
X154535190Y-114243952D01*
X154487571Y-114434428D01*
X154439952Y-114529666D01*
X154392333Y-114577285D01*
X154297095Y-114624904D01*
X154201857Y-114624904D01*
X154106619Y-114577285D01*
X154059000Y-114529666D01*
X154011380Y-114434428D01*
X154011380Y-114196333D01*
X154059000Y-114053476D01*
X154963761Y-113196333D02*
X155011380Y-113291571D01*
X155011380Y-113482047D01*
X154963761Y-113577285D01*
X154916142Y-113624904D01*
X154820904Y-113672523D01*
X154535190Y-113672523D01*
X154439952Y-113624904D01*
X154392333Y-113577285D01*
X154344714Y-113482047D01*
X154344714Y-113291571D01*
X154392333Y-113196333D01*
X155011380Y-112767761D02*
X154011380Y-112767761D01*
X155011380Y-112339190D02*
X154487571Y-112339190D01*
X154392333Y-112386809D01*
X154344714Y-112482047D01*
X154344714Y-112624904D01*
X154392333Y-112720142D01*
X154439952Y-112767761D01*
X155011380Y-111720142D02*
X154963761Y-111815380D01*
X154916142Y-111863000D01*
X154820904Y-111910619D01*
X154535190Y-111910619D01*
X154439952Y-111863000D01*
X154392333Y-111815380D01*
X154344714Y-111720142D01*
X154344714Y-111577285D01*
X154392333Y-111482047D01*
X154439952Y-111434428D01*
X154535190Y-111386809D01*
X154820904Y-111386809D01*
X154916142Y-111434428D01*
X154963761Y-111482047D01*
X155011380Y-111577285D01*
X155011380Y-111720142D01*
X154344714Y-111101095D02*
X154344714Y-110720142D01*
X154011380Y-110958238D02*
X154868523Y-110958238D01*
X154963761Y-110910619D01*
X155011380Y-110815380D01*
X155011380Y-110720142D01*
X154344714Y-110529666D02*
X154344714Y-110148714D01*
X154011380Y-110386809D02*
X154868523Y-110386809D01*
X154963761Y-110339190D01*
X155011380Y-110243952D01*
X155011380Y-110148714D01*
X155011380Y-109815380D02*
X154011380Y-109815380D01*
X154630428Y-109720142D02*
X155011380Y-109434428D01*
X154344714Y-109434428D02*
X154725666Y-109815380D01*
X154344714Y-109101095D02*
X155011380Y-108863000D01*
X154344714Y-108624904D02*
X155011380Y-108863000D01*
X155249476Y-108958238D01*
X155297095Y-109005857D01*
X155344714Y-109101095D01*
X154011380Y-107005857D02*
X154011380Y-107482047D01*
X154487571Y-107529666D01*
X154439952Y-107482047D01*
X154392333Y-107386809D01*
X154392333Y-107148714D01*
X154439952Y-107053476D01*
X154487571Y-107005857D01*
X154582809Y-106958238D01*
X154820904Y-106958238D01*
X154916142Y-107005857D01*
X154963761Y-107053476D01*
X155011380Y-107148714D01*
X155011380Y-107386809D01*
X154963761Y-107482047D01*
X154916142Y-107529666D01*
X154725666Y-106577285D02*
X154725666Y-106101095D01*
X155011380Y-106672523D02*
X154011380Y-106339190D01*
X155011380Y-106005857D01*
%TO.C,D3*%
X157852904Y-65557380D02*
X157852904Y-64557380D01*
X158091000Y-64557380D01*
X158233857Y-64605000D01*
X158329095Y-64700238D01*
X158376714Y-64795476D01*
X158424333Y-64985952D01*
X158424333Y-65128809D01*
X158376714Y-65319285D01*
X158329095Y-65414523D01*
X158233857Y-65509761D01*
X158091000Y-65557380D01*
X157852904Y-65557380D01*
X158757666Y-64557380D02*
X159376714Y-64557380D01*
X159043380Y-64938333D01*
X159186238Y-64938333D01*
X159281476Y-64985952D01*
X159329095Y-65033571D01*
X159376714Y-65128809D01*
X159376714Y-65366904D01*
X159329095Y-65462142D01*
X159281476Y-65509761D01*
X159186238Y-65557380D01*
X158900523Y-65557380D01*
X158805285Y-65509761D01*
X158757666Y-65462142D01*
X157073380Y-73324523D02*
X156073380Y-73324523D01*
X156073380Y-73086428D01*
X156121000Y-72943571D01*
X156216238Y-72848333D01*
X156311476Y-72800714D01*
X156501952Y-72753095D01*
X156644809Y-72753095D01*
X156835285Y-72800714D01*
X156930523Y-72848333D01*
X157025761Y-72943571D01*
X157073380Y-73086428D01*
X157073380Y-73324523D01*
X157168619Y-72562619D02*
X157168619Y-71800714D01*
X157025761Y-71610238D02*
X157073380Y-71467380D01*
X157073380Y-71229285D01*
X157025761Y-71134047D01*
X156978142Y-71086428D01*
X156882904Y-71038809D01*
X156787666Y-71038809D01*
X156692428Y-71086428D01*
X156644809Y-71134047D01*
X156597190Y-71229285D01*
X156549571Y-71419761D01*
X156501952Y-71515000D01*
X156454333Y-71562619D01*
X156359095Y-71610238D01*
X156263857Y-71610238D01*
X156168619Y-71562619D01*
X156121000Y-71515000D01*
X156073380Y-71419761D01*
X156073380Y-71181666D01*
X156121000Y-71038809D01*
X157025761Y-70181666D02*
X157073380Y-70276904D01*
X157073380Y-70467380D01*
X157025761Y-70562619D01*
X156978142Y-70610238D01*
X156882904Y-70657857D01*
X156597190Y-70657857D01*
X156501952Y-70610238D01*
X156454333Y-70562619D01*
X156406714Y-70467380D01*
X156406714Y-70276904D01*
X156454333Y-70181666D01*
X157073380Y-69753095D02*
X156073380Y-69753095D01*
X157073380Y-69324523D02*
X156549571Y-69324523D01*
X156454333Y-69372142D01*
X156406714Y-69467380D01*
X156406714Y-69610238D01*
X156454333Y-69705476D01*
X156501952Y-69753095D01*
X157073380Y-68705476D02*
X157025761Y-68800714D01*
X156978142Y-68848333D01*
X156882904Y-68895952D01*
X156597190Y-68895952D01*
X156501952Y-68848333D01*
X156454333Y-68800714D01*
X156406714Y-68705476D01*
X156406714Y-68562619D01*
X156454333Y-68467380D01*
X156501952Y-68419761D01*
X156597190Y-68372142D01*
X156882904Y-68372142D01*
X156978142Y-68419761D01*
X157025761Y-68467380D01*
X157073380Y-68562619D01*
X157073380Y-68705476D01*
X156406714Y-68086428D02*
X156406714Y-67705476D01*
X156073380Y-67943571D02*
X156930523Y-67943571D01*
X157025761Y-67895952D01*
X157073380Y-67800714D01*
X157073380Y-67705476D01*
X156406714Y-67515000D02*
X156406714Y-67134047D01*
X156073380Y-67372142D02*
X156930523Y-67372142D01*
X157025761Y-67324523D01*
X157073380Y-67229285D01*
X157073380Y-67134047D01*
X157073380Y-66800714D02*
X156073380Y-66800714D01*
X156692428Y-66705476D02*
X157073380Y-66419761D01*
X156406714Y-66419761D02*
X156787666Y-66800714D01*
X156406714Y-66086428D02*
X157073380Y-65848333D01*
X156406714Y-65610238D02*
X157073380Y-65848333D01*
X157311476Y-65943571D01*
X157359095Y-65991190D01*
X157406714Y-66086428D01*
%TO.C,L1*%
X170767380Y-64801666D02*
X170767380Y-65277857D01*
X169767380Y-65277857D01*
X170767380Y-63944523D02*
X170767380Y-64515952D01*
X170767380Y-64230238D02*
X169767380Y-64230238D01*
X169910238Y-64325476D01*
X170005476Y-64420714D01*
X170053095Y-64515952D01*
X162147380Y-72588142D02*
X162147380Y-71969095D01*
X162528333Y-72302428D01*
X162528333Y-72159571D01*
X162575952Y-72064333D01*
X162623571Y-72016714D01*
X162718809Y-71969095D01*
X162956904Y-71969095D01*
X163052142Y-72016714D01*
X163099761Y-72064333D01*
X163147380Y-72159571D01*
X163147380Y-72445285D01*
X163099761Y-72540523D01*
X163052142Y-72588142D01*
X162147380Y-71635761D02*
X162147380Y-71016714D01*
X162528333Y-71350047D01*
X162528333Y-71207190D01*
X162575952Y-71111952D01*
X162623571Y-71064333D01*
X162718809Y-71016714D01*
X162956904Y-71016714D01*
X163052142Y-71064333D01*
X163099761Y-71111952D01*
X163147380Y-71207190D01*
X163147380Y-71492904D01*
X163099761Y-71588142D01*
X163052142Y-71635761D01*
X162480714Y-70588142D02*
X163480714Y-70588142D01*
X163004523Y-70111952D02*
X163099761Y-70064333D01*
X163147380Y-69969095D01*
X163004523Y-70588142D02*
X163099761Y-70540523D01*
X163147380Y-70445285D01*
X163147380Y-70254809D01*
X163099761Y-70159571D01*
X163004523Y-70111952D01*
X162480714Y-70111952D01*
X163147380Y-69540523D02*
X162147380Y-69540523D01*
X162623571Y-69540523D02*
X162623571Y-68969095D01*
X163147380Y-68969095D02*
X162147380Y-68969095D01*
%TO.C,L2*%
X169333333Y-97452380D02*
X168857142Y-97452380D01*
X168857142Y-96452380D01*
X169619047Y-96547619D02*
X169666666Y-96500000D01*
X169761904Y-96452380D01*
X170000000Y-96452380D01*
X170095238Y-96500000D01*
X170142857Y-96547619D01*
X170190476Y-96642857D01*
X170190476Y-96738095D01*
X170142857Y-96880952D01*
X169571428Y-97452380D01*
X170190476Y-97452380D01*
X165098380Y-103003142D02*
X165098380Y-102384095D01*
X165479333Y-102717428D01*
X165479333Y-102574571D01*
X165526952Y-102479333D01*
X165574571Y-102431714D01*
X165669809Y-102384095D01*
X165907904Y-102384095D01*
X166003142Y-102431714D01*
X166050761Y-102479333D01*
X166098380Y-102574571D01*
X166098380Y-102860285D01*
X166050761Y-102955523D01*
X166003142Y-103003142D01*
X165098380Y-102050761D02*
X165098380Y-101431714D01*
X165479333Y-101765047D01*
X165479333Y-101622190D01*
X165526952Y-101526952D01*
X165574571Y-101479333D01*
X165669809Y-101431714D01*
X165907904Y-101431714D01*
X166003142Y-101479333D01*
X166050761Y-101526952D01*
X166098380Y-101622190D01*
X166098380Y-101907904D01*
X166050761Y-102003142D01*
X166003142Y-102050761D01*
X165431714Y-101003142D02*
X166431714Y-101003142D01*
X165955523Y-100526952D02*
X166050761Y-100479333D01*
X166098380Y-100384095D01*
X165955523Y-101003142D02*
X166050761Y-100955523D01*
X166098380Y-100860285D01*
X166098380Y-100669809D01*
X166050761Y-100574571D01*
X165955523Y-100526952D01*
X165431714Y-100526952D01*
X166098380Y-99955523D02*
X165098380Y-99955523D01*
X165574571Y-99955523D02*
X165574571Y-99384095D01*
X166098380Y-99384095D02*
X165098380Y-99384095D01*
%TO.C,U1*%
X177482595Y-101365880D02*
X177482595Y-102175404D01*
X177530214Y-102270642D01*
X177577833Y-102318261D01*
X177673071Y-102365880D01*
X177863547Y-102365880D01*
X177958785Y-102318261D01*
X178006404Y-102270642D01*
X178054023Y-102175404D01*
X178054023Y-101365880D01*
X179054023Y-102365880D02*
X178482595Y-102365880D01*
X178768309Y-102365880D02*
X178768309Y-101365880D01*
X178673071Y-101508738D01*
X178577833Y-101603976D01*
X178482595Y-101651595D01*
X180474880Y-97222166D02*
X180474880Y-97698357D01*
X179474880Y-97698357D01*
X180474880Y-96888833D02*
X179474880Y-96888833D01*
X180189166Y-96555500D01*
X179474880Y-96222166D01*
X180474880Y-96222166D01*
X179570119Y-95793595D02*
X179522500Y-95745976D01*
X179474880Y-95650738D01*
X179474880Y-95412642D01*
X179522500Y-95317404D01*
X179570119Y-95269785D01*
X179665357Y-95222166D01*
X179760595Y-95222166D01*
X179903452Y-95269785D01*
X180474880Y-95841214D01*
X180474880Y-95222166D01*
X179474880Y-94317404D02*
X179474880Y-94793595D01*
X179951071Y-94841214D01*
X179903452Y-94793595D01*
X179855833Y-94698357D01*
X179855833Y-94460261D01*
X179903452Y-94365023D01*
X179951071Y-94317404D01*
X180046309Y-94269785D01*
X180284404Y-94269785D01*
X180379642Y-94317404D01*
X180427261Y-94365023D01*
X180474880Y-94460261D01*
X180474880Y-94698357D01*
X180427261Y-94793595D01*
X180379642Y-94841214D01*
X180474880Y-93793595D02*
X180474880Y-93603119D01*
X180427261Y-93507880D01*
X180379642Y-93460261D01*
X180236785Y-93365023D01*
X180046309Y-93317404D01*
X179665357Y-93317404D01*
X179570119Y-93365023D01*
X179522500Y-93412642D01*
X179474880Y-93507880D01*
X179474880Y-93698357D01*
X179522500Y-93793595D01*
X179570119Y-93841214D01*
X179665357Y-93888833D01*
X179903452Y-93888833D01*
X179998690Y-93841214D01*
X180046309Y-93793595D01*
X180093928Y-93698357D01*
X180093928Y-93507880D01*
X180046309Y-93412642D01*
X179998690Y-93365023D01*
X179903452Y-93317404D01*
X179474880Y-92460261D02*
X179474880Y-92650738D01*
X179522500Y-92745976D01*
X179570119Y-92793595D01*
X179712976Y-92888833D01*
X179903452Y-92936452D01*
X180284404Y-92936452D01*
X180379642Y-92888833D01*
X180427261Y-92841214D01*
X180474880Y-92745976D01*
X180474880Y-92555500D01*
X180427261Y-92460261D01*
X180379642Y-92412642D01*
X180284404Y-92365023D01*
X180046309Y-92365023D01*
X179951071Y-92412642D01*
X179903452Y-92460261D01*
X179855833Y-92555500D01*
X179855833Y-92745976D01*
X179903452Y-92841214D01*
X179951071Y-92888833D01*
X180046309Y-92936452D01*
%TO.C,U2*%
X176360380Y-71626904D02*
X177169904Y-71626904D01*
X177265142Y-71579285D01*
X177312761Y-71531666D01*
X177360380Y-71436428D01*
X177360380Y-71245952D01*
X177312761Y-71150714D01*
X177265142Y-71103095D01*
X177169904Y-71055476D01*
X176360380Y-71055476D01*
X176455619Y-70626904D02*
X176408000Y-70579285D01*
X176360380Y-70484047D01*
X176360380Y-70245952D01*
X176408000Y-70150714D01*
X176455619Y-70103095D01*
X176550857Y-70055476D01*
X176646095Y-70055476D01*
X176788952Y-70103095D01*
X177360380Y-70674523D01*
X177360380Y-70055476D01*
X180408380Y-68459666D02*
X180408380Y-68935857D01*
X179408380Y-68935857D01*
X180408380Y-68126333D02*
X179408380Y-68126333D01*
X180122666Y-67793000D01*
X179408380Y-67459666D01*
X180408380Y-67459666D01*
X179503619Y-67031095D02*
X179456000Y-66983476D01*
X179408380Y-66888238D01*
X179408380Y-66650142D01*
X179456000Y-66554904D01*
X179503619Y-66507285D01*
X179598857Y-66459666D01*
X179694095Y-66459666D01*
X179836952Y-66507285D01*
X180408380Y-67078714D01*
X180408380Y-66459666D01*
X179408380Y-65554904D02*
X179408380Y-66031095D01*
X179884571Y-66078714D01*
X179836952Y-66031095D01*
X179789333Y-65935857D01*
X179789333Y-65697761D01*
X179836952Y-65602523D01*
X179884571Y-65554904D01*
X179979809Y-65507285D01*
X180217904Y-65507285D01*
X180313142Y-65554904D01*
X180360761Y-65602523D01*
X180408380Y-65697761D01*
X180408380Y-65935857D01*
X180360761Y-66031095D01*
X180313142Y-66078714D01*
X180408380Y-65031095D02*
X180408380Y-64840619D01*
X180360761Y-64745380D01*
X180313142Y-64697761D01*
X180170285Y-64602523D01*
X179979809Y-64554904D01*
X179598857Y-64554904D01*
X179503619Y-64602523D01*
X179456000Y-64650142D01*
X179408380Y-64745380D01*
X179408380Y-64935857D01*
X179456000Y-65031095D01*
X179503619Y-65078714D01*
X179598857Y-65126333D01*
X179836952Y-65126333D01*
X179932190Y-65078714D01*
X179979809Y-65031095D01*
X180027428Y-64935857D01*
X180027428Y-64745380D01*
X179979809Y-64650142D01*
X179932190Y-64602523D01*
X179836952Y-64554904D01*
X179408380Y-63697761D02*
X179408380Y-63888238D01*
X179456000Y-63983476D01*
X179503619Y-64031095D01*
X179646476Y-64126333D01*
X179836952Y-64173952D01*
X180217904Y-64173952D01*
X180313142Y-64126333D01*
X180360761Y-64078714D01*
X180408380Y-63983476D01*
X180408380Y-63793000D01*
X180360761Y-63697761D01*
X180313142Y-63650142D01*
X180217904Y-63602523D01*
X179979809Y-63602523D01*
X179884571Y-63650142D01*
X179836952Y-63697761D01*
X179789333Y-63793000D01*
X179789333Y-63983476D01*
X179836952Y-64078714D01*
X179884571Y-64126333D01*
X179979809Y-64173952D01*
%TO.C,U4*%
X138070095Y-132332380D02*
X138070095Y-133141904D01*
X138117714Y-133237142D01*
X138165333Y-133284761D01*
X138260571Y-133332380D01*
X138451047Y-133332380D01*
X138546285Y-133284761D01*
X138593904Y-133237142D01*
X138641523Y-133141904D01*
X138641523Y-132332380D01*
X139546285Y-132665714D02*
X139546285Y-133332380D01*
X139308190Y-132284761D02*
X139070095Y-132999047D01*
X139689142Y-132999047D01*
X141507142Y-133332380D02*
X141030952Y-133332380D01*
X141030952Y-132332380D01*
X141792857Y-132427619D02*
X141840476Y-132380000D01*
X141935714Y-132332380D01*
X142173809Y-132332380D01*
X142269047Y-132380000D01*
X142316666Y-132427619D01*
X142364285Y-132522857D01*
X142364285Y-132618095D01*
X142316666Y-132760952D01*
X141745238Y-133332380D01*
X142364285Y-133332380D01*
X142840476Y-133332380D02*
X143030952Y-133332380D01*
X143126190Y-133284761D01*
X143173809Y-133237142D01*
X143269047Y-133094285D01*
X143316666Y-132903809D01*
X143316666Y-132522857D01*
X143269047Y-132427619D01*
X143221428Y-132380000D01*
X143126190Y-132332380D01*
X142935714Y-132332380D01*
X142840476Y-132380000D01*
X142792857Y-132427619D01*
X142745238Y-132522857D01*
X142745238Y-132760952D01*
X142792857Y-132856190D01*
X142840476Y-132903809D01*
X142935714Y-132951428D01*
X143126190Y-132951428D01*
X143221428Y-132903809D01*
X143269047Y-132856190D01*
X143316666Y-132760952D01*
X143888095Y-132760952D02*
X143792857Y-132713333D01*
X143745238Y-132665714D01*
X143697619Y-132570476D01*
X143697619Y-132522857D01*
X143745238Y-132427619D01*
X143792857Y-132380000D01*
X143888095Y-132332380D01*
X144078571Y-132332380D01*
X144173809Y-132380000D01*
X144221428Y-132427619D01*
X144269047Y-132522857D01*
X144269047Y-132570476D01*
X144221428Y-132665714D01*
X144173809Y-132713333D01*
X144078571Y-132760952D01*
X143888095Y-132760952D01*
X143792857Y-132808571D01*
X143745238Y-132856190D01*
X143697619Y-132951428D01*
X143697619Y-133141904D01*
X143745238Y-133237142D01*
X143792857Y-133284761D01*
X143888095Y-133332380D01*
X144078571Y-133332380D01*
X144173809Y-133284761D01*
X144221428Y-133237142D01*
X144269047Y-133141904D01*
X144269047Y-132951428D01*
X144221428Y-132856190D01*
X144173809Y-132808571D01*
X144078571Y-132760952D01*
X144697619Y-133332380D02*
X144697619Y-132332380D01*
X145269047Y-133332380D01*
X145269047Y-132332380D01*
%TO.C,J12*%
X159002380Y-109809523D02*
X159716666Y-109809523D01*
X159859523Y-109857142D01*
X159954761Y-109952380D01*
X160002380Y-110095238D01*
X160002380Y-110190476D01*
X160002380Y-108809523D02*
X160002380Y-109380952D01*
X160002380Y-109095238D02*
X159002380Y-109095238D01*
X159145238Y-109190476D01*
X159240476Y-109285714D01*
X159288095Y-109380952D01*
X159097619Y-108428571D02*
X159050000Y-108380952D01*
X159002380Y-108285714D01*
X159002380Y-108047619D01*
X159050000Y-107952380D01*
X159097619Y-107904761D01*
X159192857Y-107857142D01*
X159288095Y-107857142D01*
X159430952Y-107904761D01*
X160002380Y-108476190D01*
X160002380Y-107857142D01*
X173752380Y-111021428D02*
X174561904Y-111021428D01*
X174657142Y-110973809D01*
X174704761Y-110926190D01*
X174752380Y-110830952D01*
X174752380Y-110640476D01*
X174704761Y-110545238D01*
X174657142Y-110497619D01*
X174561904Y-110450000D01*
X173752380Y-110450000D01*
X174704761Y-110021428D02*
X174752380Y-109878571D01*
X174752380Y-109640476D01*
X174704761Y-109545238D01*
X174657142Y-109497619D01*
X174561904Y-109450000D01*
X174466666Y-109450000D01*
X174371428Y-109497619D01*
X174323809Y-109545238D01*
X174276190Y-109640476D01*
X174228571Y-109830952D01*
X174180952Y-109926190D01*
X174133333Y-109973809D01*
X174038095Y-110021428D01*
X173942857Y-110021428D01*
X173847619Y-109973809D01*
X173800000Y-109926190D01*
X173752380Y-109830952D01*
X173752380Y-109592857D01*
X173800000Y-109450000D01*
X174228571Y-108688095D02*
X174276190Y-108545238D01*
X174323809Y-108497619D01*
X174419047Y-108450000D01*
X174561904Y-108450000D01*
X174657142Y-108497619D01*
X174704761Y-108545238D01*
X174752380Y-108640476D01*
X174752380Y-109021428D01*
X173752380Y-109021428D01*
X173752380Y-108688095D01*
X173800000Y-108592857D01*
X173847619Y-108545238D01*
X173942857Y-108497619D01*
X174038095Y-108497619D01*
X174133333Y-108545238D01*
X174180952Y-108592857D01*
X174228571Y-108688095D01*
X174228571Y-109021428D01*
X174847619Y-108259523D02*
X174847619Y-107497619D01*
X174466666Y-107307142D02*
X174466666Y-106830952D01*
X174752380Y-107402380D02*
X173752380Y-107069047D01*
X174752380Y-106735714D01*
%TO.C,R1*%
X124049333Y-128946380D02*
X123716000Y-128470190D01*
X123477904Y-128946380D02*
X123477904Y-127946380D01*
X123858857Y-127946380D01*
X123954095Y-127994000D01*
X124001714Y-128041619D01*
X124049333Y-128136857D01*
X124049333Y-128279714D01*
X124001714Y-128374952D01*
X123954095Y-128422571D01*
X123858857Y-128470190D01*
X123477904Y-128470190D01*
X125001714Y-128946380D02*
X124430285Y-128946380D01*
X124716000Y-128946380D02*
X124716000Y-127946380D01*
X124620761Y-128089238D01*
X124525523Y-128184476D01*
X124430285Y-128232095D01*
X120285714Y-128097619D02*
X120333333Y-128050000D01*
X120428571Y-128002380D01*
X120666666Y-128002380D01*
X120761904Y-128050000D01*
X120809523Y-128097619D01*
X120857142Y-128192857D01*
X120857142Y-128288095D01*
X120809523Y-128430952D01*
X120238095Y-129002380D01*
X120857142Y-129002380D01*
X121476190Y-128002380D02*
X121571428Y-128002380D01*
X121666666Y-128050000D01*
X121714285Y-128097619D01*
X121761904Y-128192857D01*
X121809523Y-128383333D01*
X121809523Y-128621428D01*
X121761904Y-128811904D01*
X121714285Y-128907142D01*
X121666666Y-128954761D01*
X121571428Y-129002380D01*
X121476190Y-129002380D01*
X121380952Y-128954761D01*
X121333333Y-128907142D01*
X121285714Y-128811904D01*
X121238095Y-128621428D01*
X121238095Y-128383333D01*
X121285714Y-128192857D01*
X121333333Y-128097619D01*
X121380952Y-128050000D01*
X121476190Y-128002380D01*
X122142857Y-128002380D02*
X122380952Y-129002380D01*
X122571428Y-128288095D01*
X122761904Y-129002380D01*
X123000000Y-128002380D01*
%TO.C,Q3*%
X122848619Y-77438238D02*
X122801000Y-77533476D01*
X122705761Y-77628714D01*
X122562904Y-77771571D01*
X122515285Y-77866809D01*
X122515285Y-77962047D01*
X122753380Y-77914428D02*
X122705761Y-78009666D01*
X122610523Y-78104904D01*
X122420047Y-78152523D01*
X122086714Y-78152523D01*
X121896238Y-78104904D01*
X121801000Y-78009666D01*
X121753380Y-77914428D01*
X121753380Y-77723952D01*
X121801000Y-77628714D01*
X121896238Y-77533476D01*
X122086714Y-77485857D01*
X122420047Y-77485857D01*
X122610523Y-77533476D01*
X122705761Y-77628714D01*
X122753380Y-77723952D01*
X122753380Y-77914428D01*
X121753380Y-77152523D02*
X121753380Y-76533476D01*
X122134333Y-76866809D01*
X122134333Y-76723952D01*
X122181952Y-76628714D01*
X122229571Y-76581095D01*
X122324809Y-76533476D01*
X122562904Y-76533476D01*
X122658142Y-76581095D01*
X122705761Y-76628714D01*
X122753380Y-76723952D01*
X122753380Y-77009666D01*
X122705761Y-77104904D01*
X122658142Y-77152523D01*
%TO.C,Q1*%
X123864619Y-120745238D02*
X123817000Y-120840476D01*
X123721761Y-120935714D01*
X123578904Y-121078571D01*
X123531285Y-121173809D01*
X123531285Y-121269047D01*
X123769380Y-121221428D02*
X123721761Y-121316666D01*
X123626523Y-121411904D01*
X123436047Y-121459523D01*
X123102714Y-121459523D01*
X122912238Y-121411904D01*
X122817000Y-121316666D01*
X122769380Y-121221428D01*
X122769380Y-121030952D01*
X122817000Y-120935714D01*
X122912238Y-120840476D01*
X123102714Y-120792857D01*
X123436047Y-120792857D01*
X123626523Y-120840476D01*
X123721761Y-120935714D01*
X123769380Y-121030952D01*
X123769380Y-121221428D01*
X123769380Y-119840476D02*
X123769380Y-120411904D01*
X123769380Y-120126190D02*
X122769380Y-120126190D01*
X122912238Y-120221428D01*
X123007476Y-120316666D01*
X123055095Y-120411904D01*
%TO.C,Q4*%
X115097619Y-89249238D02*
X115050000Y-89344476D01*
X114954761Y-89439714D01*
X114811904Y-89582571D01*
X114764285Y-89677809D01*
X114764285Y-89773047D01*
X115002380Y-89725428D02*
X114954761Y-89820666D01*
X114859523Y-89915904D01*
X114669047Y-89963523D01*
X114335714Y-89963523D01*
X114145238Y-89915904D01*
X114050000Y-89820666D01*
X114002380Y-89725428D01*
X114002380Y-89534952D01*
X114050000Y-89439714D01*
X114145238Y-89344476D01*
X114335714Y-89296857D01*
X114669047Y-89296857D01*
X114859523Y-89344476D01*
X114954761Y-89439714D01*
X115002380Y-89534952D01*
X115002380Y-89725428D01*
X114335714Y-88439714D02*
X115002380Y-88439714D01*
X113954761Y-88677809D02*
X114669047Y-88915904D01*
X114669047Y-88296857D01*
%TO.C,P9*%
X129309904Y-94730380D02*
X129309904Y-93730380D01*
X129690857Y-93730380D01*
X129786095Y-93778000D01*
X129833714Y-93825619D01*
X129881333Y-93920857D01*
X129881333Y-94063714D01*
X129833714Y-94158952D01*
X129786095Y-94206571D01*
X129690857Y-94254190D01*
X129309904Y-94254190D01*
X130357523Y-94730380D02*
X130548000Y-94730380D01*
X130643238Y-94682761D01*
X130690857Y-94635142D01*
X130786095Y-94492285D01*
X130833714Y-94301809D01*
X130833714Y-93920857D01*
X130786095Y-93825619D01*
X130738476Y-93778000D01*
X130643238Y-93730380D01*
X130452761Y-93730380D01*
X130357523Y-93778000D01*
X130309904Y-93825619D01*
X130262285Y-93920857D01*
X130262285Y-94158952D01*
X130309904Y-94254190D01*
X130357523Y-94301809D01*
X130452761Y-94349428D01*
X130643238Y-94349428D01*
X130738476Y-94301809D01*
X130786095Y-94254190D01*
X130833714Y-94158952D01*
X128214380Y-92423714D02*
X127214380Y-92423714D01*
X127309619Y-91995142D02*
X127262000Y-91947523D01*
X127214380Y-91852285D01*
X127214380Y-91614190D01*
X127262000Y-91518952D01*
X127309619Y-91471333D01*
X127404857Y-91423714D01*
X127500095Y-91423714D01*
X127642952Y-91471333D01*
X128214380Y-92042761D01*
X128214380Y-91423714D01*
X128119142Y-90423714D02*
X128166761Y-90471333D01*
X128214380Y-90614190D01*
X128214380Y-90709428D01*
X128166761Y-90852285D01*
X128071523Y-90947523D01*
X127976285Y-90995142D01*
X127785809Y-91042761D01*
X127642952Y-91042761D01*
X127452476Y-90995142D01*
X127357238Y-90947523D01*
X127262000Y-90852285D01*
X127214380Y-90709428D01*
X127214380Y-90614190D01*
X127262000Y-90471333D01*
X127309619Y-90423714D01*
X127833428Y-89233238D02*
X127833428Y-88471333D01*
X128214380Y-88852285D02*
X127452476Y-88852285D01*
X127833428Y-87995142D02*
X127833428Y-87233238D01*
X128166761Y-86804666D02*
X128214380Y-86709428D01*
X128214380Y-86518952D01*
X128166761Y-86423714D01*
X128071523Y-86376095D01*
X128023904Y-86376095D01*
X127928666Y-86423714D01*
X127881047Y-86518952D01*
X127881047Y-86661809D01*
X127833428Y-86757047D01*
X127738190Y-86804666D01*
X127690571Y-86804666D01*
X127595333Y-86757047D01*
X127547714Y-86661809D01*
X127547714Y-86518952D01*
X127595333Y-86423714D01*
X128166761Y-85518952D02*
X128214380Y-85614190D01*
X128214380Y-85804666D01*
X128166761Y-85899904D01*
X128119142Y-85947523D01*
X128023904Y-85995142D01*
X127738190Y-85995142D01*
X127642952Y-85947523D01*
X127595333Y-85899904D01*
X127547714Y-85804666D01*
X127547714Y-85614190D01*
X127595333Y-85518952D01*
X128166761Y-85138000D02*
X128214380Y-85042761D01*
X128214380Y-84852285D01*
X128166761Y-84757047D01*
X128071523Y-84709428D01*
X128023904Y-84709428D01*
X127928666Y-84757047D01*
X127881047Y-84852285D01*
X127881047Y-84995142D01*
X127833428Y-85090380D01*
X127738190Y-85138000D01*
X127690571Y-85138000D01*
X127595333Y-85090380D01*
X127547714Y-84995142D01*
X127547714Y-84852285D01*
X127595333Y-84757047D01*
X128214380Y-83852285D02*
X127214380Y-83852285D01*
X128166761Y-83852285D02*
X128214380Y-83947523D01*
X128214380Y-84138000D01*
X128166761Y-84233238D01*
X128119142Y-84280857D01*
X128023904Y-84328476D01*
X127738190Y-84328476D01*
X127642952Y-84280857D01*
X127595333Y-84233238D01*
X127547714Y-84138000D01*
X127547714Y-83947523D01*
X127595333Y-83852285D01*
%TO.C,R7*%
X134707333Y-96337380D02*
X134374000Y-95861190D01*
X134135904Y-96337380D02*
X134135904Y-95337380D01*
X134516857Y-95337380D01*
X134612095Y-95385000D01*
X134659714Y-95432619D01*
X134707333Y-95527857D01*
X134707333Y-95670714D01*
X134659714Y-95765952D01*
X134612095Y-95813571D01*
X134516857Y-95861190D01*
X134135904Y-95861190D01*
X135040666Y-95337380D02*
X135707333Y-95337380D01*
X135278761Y-96337380D01*
X130968904Y-95432619D02*
X131016523Y-95385000D01*
X131111761Y-95337380D01*
X131349857Y-95337380D01*
X131445095Y-95385000D01*
X131492714Y-95432619D01*
X131540333Y-95527857D01*
X131540333Y-95623095D01*
X131492714Y-95765952D01*
X130921285Y-96337380D01*
X131540333Y-96337380D01*
X131921285Y-95432619D02*
X131968904Y-95385000D01*
X132064142Y-95337380D01*
X132302238Y-95337380D01*
X132397476Y-95385000D01*
X132445095Y-95432619D01*
X132492714Y-95527857D01*
X132492714Y-95623095D01*
X132445095Y-95765952D01*
X131873666Y-96337380D01*
X132492714Y-96337380D01*
X133111761Y-95337380D02*
X133207000Y-95337380D01*
X133302238Y-95385000D01*
X133349857Y-95432619D01*
X133397476Y-95527857D01*
X133445095Y-95718333D01*
X133445095Y-95956428D01*
X133397476Y-96146904D01*
X133349857Y-96242142D01*
X133302238Y-96289761D01*
X133207000Y-96337380D01*
X133111761Y-96337380D01*
X133016523Y-96289761D01*
X132968904Y-96242142D01*
X132921285Y-96146904D01*
X132873666Y-95956428D01*
X132873666Y-95718333D01*
X132921285Y-95527857D01*
X132968904Y-95432619D01*
X133016523Y-95385000D01*
X133111761Y-95337380D01*
%TO.C,R8*%
X134834333Y-106370380D02*
X134501000Y-105894190D01*
X134262904Y-106370380D02*
X134262904Y-105370380D01*
X134643857Y-105370380D01*
X134739095Y-105418000D01*
X134786714Y-105465619D01*
X134834333Y-105560857D01*
X134834333Y-105703714D01*
X134786714Y-105798952D01*
X134739095Y-105846571D01*
X134643857Y-105894190D01*
X134262904Y-105894190D01*
X135405761Y-105798952D02*
X135310523Y-105751333D01*
X135262904Y-105703714D01*
X135215285Y-105608476D01*
X135215285Y-105560857D01*
X135262904Y-105465619D01*
X135310523Y-105418000D01*
X135405761Y-105370380D01*
X135596238Y-105370380D01*
X135691476Y-105418000D01*
X135739095Y-105465619D01*
X135786714Y-105560857D01*
X135786714Y-105608476D01*
X135739095Y-105703714D01*
X135691476Y-105751333D01*
X135596238Y-105798952D01*
X135405761Y-105798952D01*
X135310523Y-105846571D01*
X135262904Y-105894190D01*
X135215285Y-105989428D01*
X135215285Y-106179904D01*
X135262904Y-106275142D01*
X135310523Y-106322761D01*
X135405761Y-106370380D01*
X135596238Y-106370380D01*
X135691476Y-106322761D01*
X135739095Y-106275142D01*
X135786714Y-106179904D01*
X135786714Y-105989428D01*
X135739095Y-105894190D01*
X135691476Y-105846571D01*
X135596238Y-105798952D01*
X130968904Y-105465619D02*
X131016523Y-105418000D01*
X131111761Y-105370380D01*
X131349857Y-105370380D01*
X131445095Y-105418000D01*
X131492714Y-105465619D01*
X131540333Y-105560857D01*
X131540333Y-105656095D01*
X131492714Y-105798952D01*
X130921285Y-106370380D01*
X131540333Y-106370380D01*
X131921285Y-105465619D02*
X131968904Y-105418000D01*
X132064142Y-105370380D01*
X132302238Y-105370380D01*
X132397476Y-105418000D01*
X132445095Y-105465619D01*
X132492714Y-105560857D01*
X132492714Y-105656095D01*
X132445095Y-105798952D01*
X131873666Y-106370380D01*
X132492714Y-106370380D01*
X133111761Y-105370380D02*
X133207000Y-105370380D01*
X133302238Y-105418000D01*
X133349857Y-105465619D01*
X133397476Y-105560857D01*
X133445095Y-105751333D01*
X133445095Y-105989428D01*
X133397476Y-106179904D01*
X133349857Y-106275142D01*
X133302238Y-106322761D01*
X133207000Y-106370380D01*
X133111761Y-106370380D01*
X133016523Y-106322761D01*
X132968904Y-106275142D01*
X132921285Y-106179904D01*
X132873666Y-105989428D01*
X132873666Y-105751333D01*
X132921285Y-105560857D01*
X132968904Y-105465619D01*
X133016523Y-105418000D01*
X133111761Y-105370380D01*
%TO.C,R9*%
X134580333Y-111958380D02*
X134247000Y-111482190D01*
X134008904Y-111958380D02*
X134008904Y-110958380D01*
X134389857Y-110958380D01*
X134485095Y-111006000D01*
X134532714Y-111053619D01*
X134580333Y-111148857D01*
X134580333Y-111291714D01*
X134532714Y-111386952D01*
X134485095Y-111434571D01*
X134389857Y-111482190D01*
X134008904Y-111482190D01*
X135056523Y-111958380D02*
X135247000Y-111958380D01*
X135342238Y-111910761D01*
X135389857Y-111863142D01*
X135485095Y-111720285D01*
X135532714Y-111529809D01*
X135532714Y-111148857D01*
X135485095Y-111053619D01*
X135437476Y-111006000D01*
X135342238Y-110958380D01*
X135151761Y-110958380D01*
X135056523Y-111006000D01*
X135008904Y-111053619D01*
X134961285Y-111148857D01*
X134961285Y-111386952D01*
X135008904Y-111482190D01*
X135056523Y-111529809D01*
X135151761Y-111577428D01*
X135342238Y-111577428D01*
X135437476Y-111529809D01*
X135485095Y-111482190D01*
X135532714Y-111386952D01*
X130841904Y-110926619D02*
X130889523Y-110879000D01*
X130984761Y-110831380D01*
X131222857Y-110831380D01*
X131318095Y-110879000D01*
X131365714Y-110926619D01*
X131413333Y-111021857D01*
X131413333Y-111117095D01*
X131365714Y-111259952D01*
X130794285Y-111831380D01*
X131413333Y-111831380D01*
X131794285Y-110926619D02*
X131841904Y-110879000D01*
X131937142Y-110831380D01*
X132175238Y-110831380D01*
X132270476Y-110879000D01*
X132318095Y-110926619D01*
X132365714Y-111021857D01*
X132365714Y-111117095D01*
X132318095Y-111259952D01*
X131746666Y-111831380D01*
X132365714Y-111831380D01*
X132984761Y-110831380D02*
X133080000Y-110831380D01*
X133175238Y-110879000D01*
X133222857Y-110926619D01*
X133270476Y-111021857D01*
X133318095Y-111212333D01*
X133318095Y-111450428D01*
X133270476Y-111640904D01*
X133222857Y-111736142D01*
X133175238Y-111783761D01*
X133080000Y-111831380D01*
X132984761Y-111831380D01*
X132889523Y-111783761D01*
X132841904Y-111736142D01*
X132794285Y-111640904D01*
X132746666Y-111450428D01*
X132746666Y-111212333D01*
X132794285Y-111021857D01*
X132841904Y-110926619D01*
X132889523Y-110879000D01*
X132984761Y-110831380D01*
%TO.C,R3*%
X135850333Y-117673380D02*
X135517000Y-117197190D01*
X135278904Y-117673380D02*
X135278904Y-116673380D01*
X135659857Y-116673380D01*
X135755095Y-116721000D01*
X135802714Y-116768619D01*
X135850333Y-116863857D01*
X135850333Y-117006714D01*
X135802714Y-117101952D01*
X135755095Y-117149571D01*
X135659857Y-117197190D01*
X135278904Y-117197190D01*
X136183666Y-116673380D02*
X136802714Y-116673380D01*
X136469380Y-117054333D01*
X136612238Y-117054333D01*
X136707476Y-117101952D01*
X136755095Y-117149571D01*
X136802714Y-117244809D01*
X136802714Y-117482904D01*
X136755095Y-117578142D01*
X136707476Y-117625761D01*
X136612238Y-117673380D01*
X136326523Y-117673380D01*
X136231285Y-117625761D01*
X136183666Y-117578142D01*
X130841904Y-117022619D02*
X130889523Y-116975000D01*
X130984761Y-116927380D01*
X131222857Y-116927380D01*
X131318095Y-116975000D01*
X131365714Y-117022619D01*
X131413333Y-117117857D01*
X131413333Y-117213095D01*
X131365714Y-117355952D01*
X130794285Y-117927380D01*
X131413333Y-117927380D01*
X131746666Y-116927380D02*
X132413333Y-116927380D01*
X131984761Y-117927380D01*
X132984761Y-116927380D02*
X133080000Y-116927380D01*
X133175238Y-116975000D01*
X133222857Y-117022619D01*
X133270476Y-117117857D01*
X133318095Y-117308333D01*
X133318095Y-117546428D01*
X133270476Y-117736904D01*
X133222857Y-117832142D01*
X133175238Y-117879761D01*
X133080000Y-117927380D01*
X132984761Y-117927380D01*
X132889523Y-117879761D01*
X132841904Y-117832142D01*
X132794285Y-117736904D01*
X132746666Y-117546428D01*
X132746666Y-117308333D01*
X132794285Y-117117857D01*
X132841904Y-117022619D01*
X132889523Y-116975000D01*
X132984761Y-116927380D01*
%TO.C,R5*%
X116673333Y-77548380D02*
X116340000Y-77072190D01*
X116101904Y-77548380D02*
X116101904Y-76548380D01*
X116482857Y-76548380D01*
X116578095Y-76596000D01*
X116625714Y-76643619D01*
X116673333Y-76738857D01*
X116673333Y-76881714D01*
X116625714Y-76976952D01*
X116578095Y-77024571D01*
X116482857Y-77072190D01*
X116101904Y-77072190D01*
X117578095Y-76548380D02*
X117101904Y-76548380D01*
X117054285Y-77024571D01*
X117101904Y-76976952D01*
X117197142Y-76929333D01*
X117435238Y-76929333D01*
X117530476Y-76976952D01*
X117578095Y-77024571D01*
X117625714Y-77119809D01*
X117625714Y-77357904D01*
X117578095Y-77453142D01*
X117530476Y-77500761D01*
X117435238Y-77548380D01*
X117197142Y-77548380D01*
X117101904Y-77500761D01*
X117054285Y-77453142D01*
X115601904Y-81963619D02*
X115649523Y-81916000D01*
X115744761Y-81868380D01*
X115982857Y-81868380D01*
X116078095Y-81916000D01*
X116125714Y-81963619D01*
X116173333Y-82058857D01*
X116173333Y-82154095D01*
X116125714Y-82296952D01*
X115554285Y-82868380D01*
X116173333Y-82868380D01*
X116506666Y-81868380D02*
X117173333Y-81868380D01*
X116744761Y-82868380D01*
X117744761Y-81868380D02*
X117840000Y-81868380D01*
X117935238Y-81916000D01*
X117982857Y-81963619D01*
X118030476Y-82058857D01*
X118078095Y-82249333D01*
X118078095Y-82487428D01*
X118030476Y-82677904D01*
X117982857Y-82773142D01*
X117935238Y-82820761D01*
X117840000Y-82868380D01*
X117744761Y-82868380D01*
X117649523Y-82820761D01*
X117601904Y-82773142D01*
X117554285Y-82677904D01*
X117506666Y-82487428D01*
X117506666Y-82249333D01*
X117554285Y-82058857D01*
X117601904Y-81963619D01*
X117649523Y-81916000D01*
X117744761Y-81868380D01*
%TO.C,1k1*%
X107481761Y-96464380D02*
X106910333Y-96464380D01*
X107196047Y-96464380D02*
X107196047Y-95464380D01*
X107100809Y-95607238D01*
X107005571Y-95702476D01*
X106910333Y-95750095D01*
X107910333Y-96464380D02*
X107910333Y-95464380D01*
X108005571Y-96083428D02*
X108291285Y-96464380D01*
X108291285Y-95797714D02*
X107910333Y-96178666D01*
X109243666Y-96464380D02*
X108672238Y-96464380D01*
X108957952Y-96464380D02*
X108957952Y-95464380D01*
X108862714Y-95607238D01*
X108767476Y-95702476D01*
X108672238Y-95750095D01*
%TO.C,R4*%
X120229333Y-68905380D02*
X119896000Y-68429190D01*
X119657904Y-68905380D02*
X119657904Y-67905380D01*
X120038857Y-67905380D01*
X120134095Y-67953000D01*
X120181714Y-68000619D01*
X120229333Y-68095857D01*
X120229333Y-68238714D01*
X120181714Y-68333952D01*
X120134095Y-68381571D01*
X120038857Y-68429190D01*
X119657904Y-68429190D01*
X121086476Y-68238714D02*
X121086476Y-68905380D01*
X120848380Y-67857761D02*
X120610285Y-68572047D01*
X121229333Y-68572047D01*
X126015904Y-67746619D02*
X126063523Y-67699000D01*
X126158761Y-67651380D01*
X126396857Y-67651380D01*
X126492095Y-67699000D01*
X126539714Y-67746619D01*
X126587333Y-67841857D01*
X126587333Y-67937095D01*
X126539714Y-68079952D01*
X125968285Y-68651380D01*
X126587333Y-68651380D01*
X126920666Y-67651380D02*
X127587333Y-67651380D01*
X127158761Y-68651380D01*
X128158761Y-67651380D02*
X128254000Y-67651380D01*
X128349238Y-67699000D01*
X128396857Y-67746619D01*
X128444476Y-67841857D01*
X128492095Y-68032333D01*
X128492095Y-68270428D01*
X128444476Y-68460904D01*
X128396857Y-68556142D01*
X128349238Y-68603761D01*
X128254000Y-68651380D01*
X128158761Y-68651380D01*
X128063523Y-68603761D01*
X128015904Y-68556142D01*
X127968285Y-68460904D01*
X127920666Y-68270428D01*
X127920666Y-68032333D01*
X127968285Y-67841857D01*
X128015904Y-67746619D01*
X128063523Y-67699000D01*
X128158761Y-67651380D01*
%TO.C,R2*%
X127595333Y-58618380D02*
X127262000Y-58142190D01*
X127023904Y-58618380D02*
X127023904Y-57618380D01*
X127404857Y-57618380D01*
X127500095Y-57666000D01*
X127547714Y-57713619D01*
X127595333Y-57808857D01*
X127595333Y-57951714D01*
X127547714Y-58046952D01*
X127500095Y-58094571D01*
X127404857Y-58142190D01*
X127023904Y-58142190D01*
X127976285Y-57713619D02*
X128023904Y-57666000D01*
X128119142Y-57618380D01*
X128357238Y-57618380D01*
X128452476Y-57666000D01*
X128500095Y-57713619D01*
X128547714Y-57808857D01*
X128547714Y-57904095D01*
X128500095Y-58046952D01*
X127928666Y-58618380D01*
X128547714Y-58618380D01*
X119665904Y-57713619D02*
X119713523Y-57666000D01*
X119808761Y-57618380D01*
X120046857Y-57618380D01*
X120142095Y-57666000D01*
X120189714Y-57713619D01*
X120237333Y-57808857D01*
X120237333Y-57904095D01*
X120189714Y-58046952D01*
X119618285Y-58618380D01*
X120237333Y-58618380D01*
X120570666Y-57618380D02*
X121237333Y-57618380D01*
X120808761Y-58618380D01*
X121808761Y-57618380D02*
X121904000Y-57618380D01*
X121999238Y-57666000D01*
X122046857Y-57713619D01*
X122094476Y-57808857D01*
X122142095Y-57999333D01*
X122142095Y-58237428D01*
X122094476Y-58427904D01*
X122046857Y-58523142D01*
X121999238Y-58570761D01*
X121904000Y-58618380D01*
X121808761Y-58618380D01*
X121713523Y-58570761D01*
X121665904Y-58523142D01*
X121618285Y-58427904D01*
X121570666Y-58237428D01*
X121570666Y-57999333D01*
X121618285Y-57808857D01*
X121665904Y-57713619D01*
X121713523Y-57666000D01*
X121808761Y-57618380D01*
%TO.C,*%
%TO.C,C7*%
X128754142Y-120308666D02*
X128801761Y-120356285D01*
X128849380Y-120499142D01*
X128849380Y-120594380D01*
X128801761Y-120737238D01*
X128706523Y-120832476D01*
X128611285Y-120880095D01*
X128420809Y-120927714D01*
X128277952Y-120927714D01*
X128087476Y-120880095D01*
X127992238Y-120832476D01*
X127897000Y-120737238D01*
X127849380Y-120594380D01*
X127849380Y-120499142D01*
X127897000Y-120356285D01*
X127944619Y-120308666D01*
X127849380Y-119975333D02*
X127849380Y-119308666D01*
X128849380Y-119737238D01*
X130198952Y-122626380D02*
X129627523Y-122626380D01*
X129913238Y-122626380D02*
X129913238Y-121626380D01*
X129818000Y-121769238D01*
X129722761Y-121864476D01*
X129627523Y-121912095D01*
X130818000Y-121626380D02*
X130913238Y-121626380D01*
X131008476Y-121674000D01*
X131056095Y-121721619D01*
X131103714Y-121816857D01*
X131151333Y-122007333D01*
X131151333Y-122245428D01*
X131103714Y-122435904D01*
X131056095Y-122531142D01*
X131008476Y-122578761D01*
X130913238Y-122626380D01*
X130818000Y-122626380D01*
X130722761Y-122578761D01*
X130675142Y-122531142D01*
X130627523Y-122435904D01*
X130579904Y-122245428D01*
X130579904Y-122007333D01*
X130627523Y-121816857D01*
X130675142Y-121721619D01*
X130722761Y-121674000D01*
X130818000Y-121626380D01*
X131770380Y-121626380D02*
X131865619Y-121626380D01*
X131960857Y-121674000D01*
X132008476Y-121721619D01*
X132056095Y-121816857D01*
X132103714Y-122007333D01*
X132103714Y-122245428D01*
X132056095Y-122435904D01*
X132008476Y-122531142D01*
X131960857Y-122578761D01*
X131865619Y-122626380D01*
X131770380Y-122626380D01*
X131675142Y-122578761D01*
X131627523Y-122531142D01*
X131579904Y-122435904D01*
X131532285Y-122245428D01*
X131532285Y-122007333D01*
X131579904Y-121816857D01*
X131627523Y-121721619D01*
X131675142Y-121674000D01*
X131770380Y-121626380D01*
X132532285Y-121959714D02*
X132532285Y-122626380D01*
X132532285Y-122054952D02*
X132579904Y-122007333D01*
X132675142Y-121959714D01*
X132818000Y-121959714D01*
X132913238Y-122007333D01*
X132960857Y-122102571D01*
X132960857Y-122626380D01*
%TO.C,C10*%
X147423142Y-120657857D02*
X147470761Y-120705476D01*
X147518380Y-120848333D01*
X147518380Y-120943571D01*
X147470761Y-121086428D01*
X147375523Y-121181666D01*
X147280285Y-121229285D01*
X147089809Y-121276904D01*
X146946952Y-121276904D01*
X146756476Y-121229285D01*
X146661238Y-121181666D01*
X146566000Y-121086428D01*
X146518380Y-120943571D01*
X146518380Y-120848333D01*
X146566000Y-120705476D01*
X146613619Y-120657857D01*
X147518380Y-119705476D02*
X147518380Y-120276904D01*
X147518380Y-119991190D02*
X146518380Y-119991190D01*
X146661238Y-120086428D01*
X146756476Y-120181666D01*
X146804095Y-120276904D01*
X146518380Y-119086428D02*
X146518380Y-118991190D01*
X146566000Y-118895952D01*
X146613619Y-118848333D01*
X146708857Y-118800714D01*
X146899333Y-118753095D01*
X147137428Y-118753095D01*
X147327904Y-118800714D01*
X147423142Y-118848333D01*
X147470761Y-118895952D01*
X147518380Y-118991190D01*
X147518380Y-119086428D01*
X147470761Y-119181666D01*
X147423142Y-119229285D01*
X147327904Y-119276904D01*
X147137428Y-119324523D01*
X146899333Y-119324523D01*
X146708857Y-119276904D01*
X146613619Y-119229285D01*
X146566000Y-119181666D01*
X146518380Y-119086428D01*
X139469952Y-122626380D02*
X138898523Y-122626380D01*
X139184238Y-122626380D02*
X139184238Y-121626380D01*
X139089000Y-121769238D01*
X138993761Y-121864476D01*
X138898523Y-121912095D01*
X140089000Y-121626380D02*
X140184238Y-121626380D01*
X140279476Y-121674000D01*
X140327095Y-121721619D01*
X140374714Y-121816857D01*
X140422333Y-122007333D01*
X140422333Y-122245428D01*
X140374714Y-122435904D01*
X140327095Y-122531142D01*
X140279476Y-122578761D01*
X140184238Y-122626380D01*
X140089000Y-122626380D01*
X139993761Y-122578761D01*
X139946142Y-122531142D01*
X139898523Y-122435904D01*
X139850904Y-122245428D01*
X139850904Y-122007333D01*
X139898523Y-121816857D01*
X139946142Y-121721619D01*
X139993761Y-121674000D01*
X140089000Y-121626380D01*
X141041380Y-121626380D02*
X141136619Y-121626380D01*
X141231857Y-121674000D01*
X141279476Y-121721619D01*
X141327095Y-121816857D01*
X141374714Y-122007333D01*
X141374714Y-122245428D01*
X141327095Y-122435904D01*
X141279476Y-122531142D01*
X141231857Y-122578761D01*
X141136619Y-122626380D01*
X141041380Y-122626380D01*
X140946142Y-122578761D01*
X140898523Y-122531142D01*
X140850904Y-122435904D01*
X140803285Y-122245428D01*
X140803285Y-122007333D01*
X140850904Y-121816857D01*
X140898523Y-121721619D01*
X140946142Y-121674000D01*
X141041380Y-121626380D01*
X141803285Y-121959714D02*
X141803285Y-122626380D01*
X141803285Y-122054952D02*
X141850904Y-122007333D01*
X141946142Y-121959714D01*
X142089000Y-121959714D01*
X142184238Y-122007333D01*
X142231857Y-122102571D01*
X142231857Y-122626380D01*
%TO.C,P4*%
X105433904Y-104338380D02*
X105433904Y-103338380D01*
X105814857Y-103338380D01*
X105910095Y-103386000D01*
X105957714Y-103433619D01*
X106005333Y-103528857D01*
X106005333Y-103671714D01*
X105957714Y-103766952D01*
X105910095Y-103814571D01*
X105814857Y-103862190D01*
X105433904Y-103862190D01*
X106862476Y-103671714D02*
X106862476Y-104338380D01*
X106624380Y-103290761D02*
X106386285Y-104005047D01*
X107005333Y-104005047D01*
X112052380Y-115366666D02*
X112052380Y-114795238D01*
X113052380Y-115080952D02*
X112052380Y-115080952D01*
X113052380Y-114461904D02*
X112052380Y-114461904D01*
X113052380Y-114033333D02*
X112528571Y-114033333D01*
X112433333Y-114080952D01*
X112385714Y-114176190D01*
X112385714Y-114319047D01*
X112433333Y-114414285D01*
X112480952Y-114461904D01*
X113004761Y-113176190D02*
X113052380Y-113271428D01*
X113052380Y-113461904D01*
X113004761Y-113557142D01*
X112909523Y-113604761D01*
X112528571Y-113604761D01*
X112433333Y-113557142D01*
X112385714Y-113461904D01*
X112385714Y-113271428D01*
X112433333Y-113176190D01*
X112528571Y-113128571D01*
X112623809Y-113128571D01*
X112719047Y-113604761D01*
X113052380Y-112700000D02*
X112385714Y-112700000D01*
X112576190Y-112700000D02*
X112480952Y-112652380D01*
X112433333Y-112604761D01*
X112385714Y-112509523D01*
X112385714Y-112414285D01*
X113052380Y-112080952D02*
X112385714Y-112080952D01*
X112480952Y-112080952D02*
X112433333Y-112033333D01*
X112385714Y-111938095D01*
X112385714Y-111795238D01*
X112433333Y-111700000D01*
X112528571Y-111652380D01*
X113052380Y-111652380D01*
X112528571Y-111652380D02*
X112433333Y-111604761D01*
X112385714Y-111509523D01*
X112385714Y-111366666D01*
X112433333Y-111271428D01*
X112528571Y-111223809D01*
X113052380Y-111223809D01*
X112671428Y-109985714D02*
X112671428Y-109223809D01*
X113052380Y-109604761D02*
X112290476Y-109604761D01*
X113004761Y-108795238D02*
X113052380Y-108700000D01*
X113052380Y-108509523D01*
X113004761Y-108414285D01*
X112909523Y-108366666D01*
X112861904Y-108366666D01*
X112766666Y-108414285D01*
X112719047Y-108509523D01*
X112719047Y-108652380D01*
X112671428Y-108747619D01*
X112576190Y-108795238D01*
X112528571Y-108795238D01*
X112433333Y-108747619D01*
X112385714Y-108652380D01*
X112385714Y-108509523D01*
X112433333Y-108414285D01*
X112671428Y-107938095D02*
X112671428Y-107176190D01*
%TO.C,C8*%
X127214333Y-105513142D02*
X127166714Y-105560761D01*
X127023857Y-105608380D01*
X126928619Y-105608380D01*
X126785761Y-105560761D01*
X126690523Y-105465523D01*
X126642904Y-105370285D01*
X126595285Y-105179809D01*
X126595285Y-105036952D01*
X126642904Y-104846476D01*
X126690523Y-104751238D01*
X126785761Y-104656000D01*
X126928619Y-104608380D01*
X127023857Y-104608380D01*
X127166714Y-104656000D01*
X127214333Y-104703619D01*
X127785761Y-105036952D02*
X127690523Y-104989333D01*
X127642904Y-104941714D01*
X127595285Y-104846476D01*
X127595285Y-104798857D01*
X127642904Y-104703619D01*
X127690523Y-104656000D01*
X127785761Y-104608380D01*
X127976238Y-104608380D01*
X128071476Y-104656000D01*
X128119095Y-104703619D01*
X128166714Y-104798857D01*
X128166714Y-104846476D01*
X128119095Y-104941714D01*
X128071476Y-104989333D01*
X127976238Y-105036952D01*
X127785761Y-105036952D01*
X127690523Y-105084571D01*
X127642904Y-105132190D01*
X127595285Y-105227428D01*
X127595285Y-105417904D01*
X127642904Y-105513142D01*
X127690523Y-105560761D01*
X127785761Y-105608380D01*
X127976238Y-105608380D01*
X128071476Y-105560761D01*
X128119095Y-105513142D01*
X128166714Y-105417904D01*
X128166714Y-105227428D01*
X128119095Y-105132190D01*
X128071476Y-105084571D01*
X127976238Y-105036952D01*
X125674380Y-101322047D02*
X125674380Y-101893476D01*
X125674380Y-101607761D02*
X124674380Y-101607761D01*
X124817238Y-101703000D01*
X124912476Y-101798238D01*
X124960095Y-101893476D01*
X124674380Y-100703000D02*
X124674380Y-100607761D01*
X124722000Y-100512523D01*
X124769619Y-100464904D01*
X124864857Y-100417285D01*
X125055333Y-100369666D01*
X125293428Y-100369666D01*
X125483904Y-100417285D01*
X125579142Y-100464904D01*
X125626761Y-100512523D01*
X125674380Y-100607761D01*
X125674380Y-100703000D01*
X125626761Y-100798238D01*
X125579142Y-100845857D01*
X125483904Y-100893476D01*
X125293428Y-100941095D01*
X125055333Y-100941095D01*
X124864857Y-100893476D01*
X124769619Y-100845857D01*
X124722000Y-100798238D01*
X124674380Y-100703000D01*
X124674380Y-99750619D02*
X124674380Y-99655380D01*
X124722000Y-99560142D01*
X124769619Y-99512523D01*
X124864857Y-99464904D01*
X125055333Y-99417285D01*
X125293428Y-99417285D01*
X125483904Y-99464904D01*
X125579142Y-99512523D01*
X125626761Y-99560142D01*
X125674380Y-99655380D01*
X125674380Y-99750619D01*
X125626761Y-99845857D01*
X125579142Y-99893476D01*
X125483904Y-99941095D01*
X125293428Y-99988714D01*
X125055333Y-99988714D01*
X124864857Y-99941095D01*
X124769619Y-99893476D01*
X124722000Y-99845857D01*
X124674380Y-99750619D01*
X125007714Y-98988714D02*
X125674380Y-98988714D01*
X125102952Y-98988714D02*
X125055333Y-98941095D01*
X125007714Y-98845857D01*
X125007714Y-98703000D01*
X125055333Y-98607761D01*
X125150571Y-98560142D01*
X125674380Y-98560142D01*
%TO.C,P10*%
X117403714Y-102052380D02*
X117403714Y-101052380D01*
X117784666Y-101052380D01*
X117879904Y-101100000D01*
X117927523Y-101147619D01*
X117975142Y-101242857D01*
X117975142Y-101385714D01*
X117927523Y-101480952D01*
X117879904Y-101528571D01*
X117784666Y-101576190D01*
X117403714Y-101576190D01*
X118927523Y-102052380D02*
X118356095Y-102052380D01*
X118641809Y-102052380D02*
X118641809Y-101052380D01*
X118546571Y-101195238D01*
X118451333Y-101290476D01*
X118356095Y-101338095D01*
X119546571Y-101052380D02*
X119641809Y-101052380D01*
X119737047Y-101100000D01*
X119784666Y-101147619D01*
X119832285Y-101242857D01*
X119879904Y-101433333D01*
X119879904Y-101671428D01*
X119832285Y-101861904D01*
X119784666Y-101957142D01*
X119737047Y-102004761D01*
X119641809Y-102052380D01*
X119546571Y-102052380D01*
X119451333Y-102004761D01*
X119403714Y-101957142D01*
X119356095Y-101861904D01*
X119308476Y-101671428D01*
X119308476Y-101433333D01*
X119356095Y-101242857D01*
X119403714Y-101147619D01*
X119451333Y-101100000D01*
X119546571Y-101052380D01*
X121610380Y-111902476D02*
X121134190Y-112235809D01*
X121610380Y-112473904D02*
X120610380Y-112473904D01*
X120610380Y-112092952D01*
X120658000Y-111997714D01*
X120705619Y-111950095D01*
X120800857Y-111902476D01*
X120943714Y-111902476D01*
X121038952Y-111950095D01*
X121086571Y-111997714D01*
X121134190Y-112092952D01*
X121134190Y-112473904D01*
X120658000Y-110950095D02*
X120610380Y-111045333D01*
X120610380Y-111188190D01*
X120658000Y-111331047D01*
X120753238Y-111426285D01*
X120848476Y-111473904D01*
X121038952Y-111521523D01*
X121181809Y-111521523D01*
X121372285Y-111473904D01*
X121467523Y-111426285D01*
X121562761Y-111331047D01*
X121610380Y-111188190D01*
X121610380Y-111092952D01*
X121562761Y-110950095D01*
X121515142Y-110902476D01*
X121181809Y-110902476D01*
X121181809Y-111092952D01*
X121086571Y-110140571D02*
X121134190Y-109997714D01*
X121181809Y-109950095D01*
X121277047Y-109902476D01*
X121419904Y-109902476D01*
X121515142Y-109950095D01*
X121562761Y-109997714D01*
X121610380Y-110092952D01*
X121610380Y-110473904D01*
X120610380Y-110473904D01*
X120610380Y-110140571D01*
X120658000Y-110045333D01*
X120705619Y-109997714D01*
X120800857Y-109950095D01*
X120896095Y-109950095D01*
X120991333Y-109997714D01*
X121038952Y-110045333D01*
X121086571Y-110140571D01*
X121086571Y-110473904D01*
X121610380Y-108140571D02*
X121134190Y-108473904D01*
X121610380Y-108712000D02*
X120610380Y-108712000D01*
X120610380Y-108331047D01*
X120658000Y-108235809D01*
X120705619Y-108188190D01*
X120800857Y-108140571D01*
X120943714Y-108140571D01*
X121038952Y-108188190D01*
X121086571Y-108235809D01*
X121134190Y-108331047D01*
X121134190Y-108712000D01*
X120658000Y-107188190D02*
X120610380Y-107283428D01*
X120610380Y-107426285D01*
X120658000Y-107569142D01*
X120753238Y-107664380D01*
X120848476Y-107712000D01*
X121038952Y-107759619D01*
X121181809Y-107759619D01*
X121372285Y-107712000D01*
X121467523Y-107664380D01*
X121562761Y-107569142D01*
X121610380Y-107426285D01*
X121610380Y-107331047D01*
X121562761Y-107188190D01*
X121515142Y-107140571D01*
X121181809Y-107140571D01*
X121181809Y-107331047D01*
X121229428Y-106712000D02*
X121229428Y-105950095D01*
X121086571Y-105140571D02*
X121134190Y-104997714D01*
X121181809Y-104950095D01*
X121277047Y-104902476D01*
X121419904Y-104902476D01*
X121515142Y-104950095D01*
X121562761Y-104997714D01*
X121610380Y-105092952D01*
X121610380Y-105473904D01*
X120610380Y-105473904D01*
X120610380Y-105140571D01*
X120658000Y-105045333D01*
X120705619Y-104997714D01*
X120800857Y-104950095D01*
X120896095Y-104950095D01*
X120991333Y-104997714D01*
X121038952Y-105045333D01*
X121086571Y-105140571D01*
X121086571Y-105473904D01*
%TO.C,P8*%
X105306904Y-66111380D02*
X105306904Y-65111380D01*
X105687857Y-65111380D01*
X105783095Y-65159000D01*
X105830714Y-65206619D01*
X105878333Y-65301857D01*
X105878333Y-65444714D01*
X105830714Y-65539952D01*
X105783095Y-65587571D01*
X105687857Y-65635190D01*
X105306904Y-65635190D01*
X106449761Y-65539952D02*
X106354523Y-65492333D01*
X106306904Y-65444714D01*
X106259285Y-65349476D01*
X106259285Y-65301857D01*
X106306904Y-65206619D01*
X106354523Y-65159000D01*
X106449761Y-65111380D01*
X106640238Y-65111380D01*
X106735476Y-65159000D01*
X106783095Y-65206619D01*
X106830714Y-65301857D01*
X106830714Y-65349476D01*
X106783095Y-65444714D01*
X106735476Y-65492333D01*
X106640238Y-65539952D01*
X106449761Y-65539952D01*
X106354523Y-65587571D01*
X106306904Y-65635190D01*
X106259285Y-65730428D01*
X106259285Y-65920904D01*
X106306904Y-66016142D01*
X106354523Y-66063761D01*
X106449761Y-66111380D01*
X106640238Y-66111380D01*
X106735476Y-66063761D01*
X106783095Y-66016142D01*
X106830714Y-65920904D01*
X106830714Y-65730428D01*
X106783095Y-65635190D01*
X106735476Y-65587571D01*
X106640238Y-65539952D01*
X113052380Y-76057142D02*
X112576190Y-76390476D01*
X113052380Y-76628571D02*
X112052380Y-76628571D01*
X112052380Y-76247619D01*
X112100000Y-76152380D01*
X112147619Y-76104761D01*
X112242857Y-76057142D01*
X112385714Y-76057142D01*
X112480952Y-76104761D01*
X112528571Y-76152380D01*
X112576190Y-76247619D01*
X112576190Y-76628571D01*
X113052380Y-75628571D02*
X112385714Y-75628571D01*
X112052380Y-75628571D02*
X112100000Y-75676190D01*
X112147619Y-75628571D01*
X112100000Y-75580952D01*
X112052380Y-75628571D01*
X112147619Y-75628571D01*
X112385714Y-75152380D02*
X113052380Y-75152380D01*
X112480952Y-75152380D02*
X112433333Y-75104761D01*
X112385714Y-75009523D01*
X112385714Y-74866666D01*
X112433333Y-74771428D01*
X112528571Y-74723809D01*
X113052380Y-74723809D01*
X112385714Y-73819047D02*
X113195238Y-73819047D01*
X113290476Y-73866666D01*
X113338095Y-73914285D01*
X113385714Y-74009523D01*
X113385714Y-74152380D01*
X113338095Y-74247619D01*
X113004761Y-73819047D02*
X113052380Y-73914285D01*
X113052380Y-74104761D01*
X113004761Y-74200000D01*
X112957142Y-74247619D01*
X112861904Y-74295238D01*
X112576190Y-74295238D01*
X112480952Y-74247619D01*
X112433333Y-74200000D01*
X112385714Y-74104761D01*
X112385714Y-73914285D01*
X112433333Y-73819047D01*
X112671428Y-72580952D02*
X112671428Y-71819047D01*
X113052380Y-72200000D02*
X112290476Y-72200000D01*
X112671428Y-71342857D02*
X112671428Y-70580952D01*
X113004761Y-70152380D02*
X113052380Y-70057142D01*
X113052380Y-69866666D01*
X113004761Y-69771428D01*
X112909523Y-69723809D01*
X112861904Y-69723809D01*
X112766666Y-69771428D01*
X112719047Y-69866666D01*
X112719047Y-70009523D01*
X112671428Y-70104761D01*
X112576190Y-70152380D01*
X112528571Y-70152380D01*
X112433333Y-70104761D01*
X112385714Y-70009523D01*
X112385714Y-69866666D01*
X112433333Y-69771428D01*
%TO.C,P7*%
X106370380Y-83542095D02*
X105370380Y-83542095D01*
X105370380Y-83161142D01*
X105418000Y-83065904D01*
X105465619Y-83018285D01*
X105560857Y-82970666D01*
X105703714Y-82970666D01*
X105798952Y-83018285D01*
X105846571Y-83065904D01*
X105894190Y-83161142D01*
X105894190Y-83542095D01*
X105370380Y-82637333D02*
X105370380Y-81970666D01*
X106370380Y-82399238D01*
X112672761Y-93471523D02*
X112720380Y-93376285D01*
X112720380Y-93185809D01*
X112672761Y-93090571D01*
X112577523Y-93042952D01*
X112529904Y-93042952D01*
X112434666Y-93090571D01*
X112387047Y-93185809D01*
X112387047Y-93328666D01*
X112339428Y-93423904D01*
X112244190Y-93471523D01*
X112196571Y-93471523D01*
X112101333Y-93423904D01*
X112053714Y-93328666D01*
X112053714Y-93185809D01*
X112101333Y-93090571D01*
X112672761Y-92233428D02*
X112720380Y-92328666D01*
X112720380Y-92519142D01*
X112672761Y-92614380D01*
X112577523Y-92662000D01*
X112196571Y-92662000D01*
X112101333Y-92614380D01*
X112053714Y-92519142D01*
X112053714Y-92328666D01*
X112101333Y-92233428D01*
X112196571Y-92185809D01*
X112291809Y-92185809D01*
X112387047Y-92662000D01*
X112720380Y-91757238D02*
X112053714Y-91757238D01*
X112244190Y-91757238D02*
X112148952Y-91709619D01*
X112101333Y-91662000D01*
X112053714Y-91566761D01*
X112053714Y-91471523D01*
X112053714Y-91233428D02*
X112720380Y-90995333D01*
X112053714Y-90757238D01*
X112720380Y-90233428D02*
X112672761Y-90328666D01*
X112625142Y-90376285D01*
X112529904Y-90423904D01*
X112244190Y-90423904D01*
X112148952Y-90376285D01*
X112101333Y-90328666D01*
X112053714Y-90233428D01*
X112053714Y-90090571D01*
X112101333Y-89995333D01*
X112148952Y-89947714D01*
X112244190Y-89900095D01*
X112529904Y-89900095D01*
X112625142Y-89947714D01*
X112672761Y-89995333D01*
X112720380Y-90090571D01*
X112720380Y-90233428D01*
X112339428Y-88709619D02*
X112339428Y-87947714D01*
X112672761Y-87519142D02*
X112720380Y-87423904D01*
X112720380Y-87233428D01*
X112672761Y-87138190D01*
X112577523Y-87090571D01*
X112529904Y-87090571D01*
X112434666Y-87138190D01*
X112387047Y-87233428D01*
X112387047Y-87376285D01*
X112339428Y-87471523D01*
X112244190Y-87519142D01*
X112196571Y-87519142D01*
X112101333Y-87471523D01*
X112053714Y-87376285D01*
X112053714Y-87233428D01*
X112101333Y-87138190D01*
X112339428Y-86662000D02*
X112339428Y-85900095D01*
X112720380Y-86281047D02*
X111958476Y-86281047D01*
%TO.C,*%
%TO.C,P1*%
X121604380Y-121622095D02*
X120604380Y-121622095D01*
X120604380Y-121241142D01*
X120652000Y-121145904D01*
X120699619Y-121098285D01*
X120794857Y-121050666D01*
X120937714Y-121050666D01*
X121032952Y-121098285D01*
X121080571Y-121145904D01*
X121128190Y-121241142D01*
X121128190Y-121622095D01*
X121604380Y-120098285D02*
X121604380Y-120669714D01*
X121604380Y-120384000D02*
X120604380Y-120384000D01*
X120747238Y-120479238D01*
X120842476Y-120574476D01*
X120890095Y-120669714D01*
%TO.C,P3*%
X112968380Y-121622095D02*
X111968380Y-121622095D01*
X111968380Y-121241142D01*
X112016000Y-121145904D01*
X112063619Y-121098285D01*
X112158857Y-121050666D01*
X112301714Y-121050666D01*
X112396952Y-121098285D01*
X112444571Y-121145904D01*
X112492190Y-121241142D01*
X112492190Y-121622095D01*
X111968380Y-120717333D02*
X111968380Y-120098285D01*
X112349333Y-120431619D01*
X112349333Y-120288761D01*
X112396952Y-120193523D01*
X112444571Y-120145904D01*
X112539809Y-120098285D01*
X112777904Y-120098285D01*
X112873142Y-120145904D01*
X112920761Y-120193523D01*
X112968380Y-120288761D01*
X112968380Y-120574476D01*
X112920761Y-120669714D01*
X112873142Y-120717333D01*
%TO.C,P5*%
X109858904Y-57862380D02*
X109858904Y-56862380D01*
X110239857Y-56862380D01*
X110335095Y-56910000D01*
X110382714Y-56957619D01*
X110430333Y-57052857D01*
X110430333Y-57195714D01*
X110382714Y-57290952D01*
X110335095Y-57338571D01*
X110239857Y-57386190D01*
X109858904Y-57386190D01*
X111335095Y-56862380D02*
X110858904Y-56862380D01*
X110811285Y-57338571D01*
X110858904Y-57290952D01*
X110954142Y-57243333D01*
X111192238Y-57243333D01*
X111287476Y-57290952D01*
X111335095Y-57338571D01*
X111382714Y-57433809D01*
X111382714Y-57671904D01*
X111335095Y-57767142D01*
X111287476Y-57814761D01*
X111192238Y-57862380D01*
X110954142Y-57862380D01*
X110858904Y-57814761D01*
X110811285Y-57767142D01*
%TO.C,P6*%
X121731380Y-73616095D02*
X120731380Y-73616095D01*
X120731380Y-73235142D01*
X120779000Y-73139904D01*
X120826619Y-73092285D01*
X120921857Y-73044666D01*
X121064714Y-73044666D01*
X121159952Y-73092285D01*
X121207571Y-73139904D01*
X121255190Y-73235142D01*
X121255190Y-73616095D01*
X120731380Y-72187523D02*
X120731380Y-72378000D01*
X120779000Y-72473238D01*
X120826619Y-72520857D01*
X120969476Y-72616095D01*
X121159952Y-72663714D01*
X121540904Y-72663714D01*
X121636142Y-72616095D01*
X121683761Y-72568476D01*
X121731380Y-72473238D01*
X121731380Y-72282761D01*
X121683761Y-72187523D01*
X121636142Y-72139904D01*
X121540904Y-72092285D01*
X121302809Y-72092285D01*
X121207571Y-72139904D01*
X121159952Y-72187523D01*
X121112333Y-72282761D01*
X121112333Y-72473238D01*
X121159952Y-72568476D01*
X121207571Y-72616095D01*
X121302809Y-72663714D01*
%TD*%
M02*
