G04 #@! TF.FileFunction,Other,Fab,Top*
%FSLAX46Y46*%
G04 Gerber Fmt 4.6, Leading zero omitted, Abs format (unit mm)*
G04 Created by KiCad (PCBNEW 4.0.7-e2-6376~58~ubuntu16.04.1) date Tue May  8 12:05:07 2018*
%MOMM*%
%LPD*%
G01*
G04 APERTURE LIST*
%ADD10C,0.100000*%
%ADD11C,0.150000*%
G04 APERTURE END LIST*
D10*
X115800000Y-56750000D02*
X119300000Y-56750000D01*
X119293625Y-56753625D02*
G75*
G03X117540000Y-52520000I-1753625J1753625D01*
G01*
X115786375Y-56753625D02*
G75*
G02X117540000Y-52520000I1753625J1753625D01*
G01*
X124888000Y-133818000D02*
X124888000Y-129418000D01*
X124888000Y-129418000D02*
X114888000Y-129418000D01*
X114888000Y-129418000D02*
X114888000Y-133818000D01*
X114888000Y-133818000D02*
X124888000Y-133818000D01*
X124888000Y-132548000D02*
X114888000Y-132548000D01*
X121738000Y-133818000D02*
X121738000Y-132548000D01*
X118038000Y-133818000D02*
X118038000Y-132548000D01*
X126337000Y-74511000D02*
X126337000Y-71011000D01*
X126340625Y-71017375D02*
G75*
G03X122107000Y-72771000I-1753625J-1753625D01*
G01*
X126340625Y-74524625D02*
G75*
G02X122107000Y-72771000I-1753625J1753625D01*
G01*
X127226000Y-117818000D02*
X127226000Y-114318000D01*
X127229625Y-114324375D02*
G75*
G03X122996000Y-116078000I-1753625J-1753625D01*
G01*
X127229625Y-117831625D02*
G75*
G02X122996000Y-116078000I-1753625J1753625D01*
G01*
X119860000Y-90894000D02*
X119860000Y-87394000D01*
X119863625Y-87400375D02*
G75*
G03X115630000Y-89154000I-1753625J-1753625D01*
G01*
X119863625Y-90907625D02*
G75*
G02X115630000Y-89154000I-1753625J1753625D01*
G01*
X131318000Y-93218000D02*
X131318000Y-83058000D01*
X131318000Y-83058000D02*
X128778000Y-83058000D01*
X128778000Y-83058000D02*
X128778000Y-93218000D01*
X128778000Y-93218000D02*
X131318000Y-93218000D01*
X134946000Y-96952000D02*
X134946000Y-100152000D01*
X134946000Y-100152000D02*
X143946000Y-100152000D01*
X143946000Y-100152000D02*
X143946000Y-96952000D01*
X143946000Y-96952000D02*
X134946000Y-96952000D01*
X131826000Y-98552000D02*
X134946000Y-98552000D01*
X147066000Y-98552000D02*
X143946000Y-98552000D01*
X134946000Y-101524000D02*
X134946000Y-104724000D01*
X134946000Y-104724000D02*
X143946000Y-104724000D01*
X143946000Y-104724000D02*
X143946000Y-101524000D01*
X143946000Y-101524000D02*
X134946000Y-101524000D01*
X131826000Y-103124000D02*
X134946000Y-103124000D01*
X147066000Y-103124000D02*
X143946000Y-103124000D01*
X134946000Y-107112000D02*
X134946000Y-110312000D01*
X134946000Y-110312000D02*
X143946000Y-110312000D01*
X143946000Y-110312000D02*
X143946000Y-107112000D01*
X143946000Y-107112000D02*
X134946000Y-107112000D01*
X131826000Y-108712000D02*
X134946000Y-108712000D01*
X147066000Y-108712000D02*
X143946000Y-108712000D01*
X134946000Y-112954000D02*
X134946000Y-116154000D01*
X134946000Y-116154000D02*
X143946000Y-116154000D01*
X143946000Y-116154000D02*
X143946000Y-112954000D01*
X143946000Y-112954000D02*
X134946000Y-112954000D01*
X131826000Y-114554000D02*
X134946000Y-114554000D01*
X147066000Y-114554000D02*
X143946000Y-114554000D01*
X112340000Y-78156000D02*
X112340000Y-81356000D01*
X112340000Y-81356000D02*
X121340000Y-81356000D01*
X121340000Y-81356000D02*
X121340000Y-78156000D01*
X121340000Y-78156000D02*
X112340000Y-78156000D01*
X109220000Y-79756000D02*
X112340000Y-79756000D01*
X124460000Y-79756000D02*
X121340000Y-79756000D01*
X119816000Y-100406000D02*
X119816000Y-97206000D01*
X119816000Y-97206000D02*
X110816000Y-97206000D01*
X110816000Y-97206000D02*
X110816000Y-100406000D01*
X110816000Y-100406000D02*
X119816000Y-100406000D01*
X122936000Y-98806000D02*
X119816000Y-98806000D01*
X107696000Y-98806000D02*
X110816000Y-98806000D01*
X119452000Y-64059000D02*
X119452000Y-67259000D01*
X119452000Y-67259000D02*
X128452000Y-67259000D01*
X128452000Y-67259000D02*
X128452000Y-64059000D01*
X128452000Y-64059000D02*
X119452000Y-64059000D01*
X116332000Y-65659000D02*
X119452000Y-65659000D01*
X131572000Y-65659000D02*
X128452000Y-65659000D01*
X119452000Y-59106000D02*
X119452000Y-62306000D01*
X119452000Y-62306000D02*
X128452000Y-62306000D01*
X128452000Y-62306000D02*
X128452000Y-59106000D01*
X128452000Y-59106000D02*
X119452000Y-59106000D01*
X116332000Y-60706000D02*
X119452000Y-60706000D01*
X131572000Y-60706000D02*
X128452000Y-60706000D01*
X111316000Y-117184000D02*
X105566000Y-117184000D01*
X105566000Y-117184000D02*
X105566000Y-124584000D01*
X105566000Y-124584000D02*
X111316000Y-124584000D01*
X111316000Y-124584000D02*
X111316000Y-117184000D01*
X111716000Y-119284000D02*
X111716000Y-116784000D01*
X111716000Y-116784000D02*
X109216000Y-116784000D01*
X129556000Y-118892000D02*
X129556000Y-121392000D01*
X129556000Y-121392000D02*
X136556000Y-121392000D01*
X136556000Y-121392000D02*
X136556000Y-118892000D01*
X136556000Y-118892000D02*
X129556000Y-118892000D01*
X138954000Y-118892000D02*
X138954000Y-121392000D01*
X138954000Y-121392000D02*
X145954000Y-121392000D01*
X145954000Y-121392000D02*
X145954000Y-118892000D01*
X145954000Y-118892000D02*
X138954000Y-118892000D01*
X119952000Y-117184000D02*
X114202000Y-117184000D01*
X114202000Y-117184000D02*
X114202000Y-124584000D01*
X114202000Y-124584000D02*
X119952000Y-124584000D01*
X119952000Y-124584000D02*
X119952000Y-117184000D01*
X120352000Y-119284000D02*
X120352000Y-116784000D01*
X120352000Y-116784000D02*
X117852000Y-116784000D01*
X111316000Y-104992000D02*
X105566000Y-104992000D01*
X105566000Y-104992000D02*
X105566000Y-114892000D01*
X105566000Y-114892000D02*
X111316000Y-114892000D01*
X111316000Y-114892000D02*
X111316000Y-104992000D01*
X111716000Y-107092000D02*
X111716000Y-104592000D01*
X111716000Y-104592000D02*
X109216000Y-104592000D01*
X128758000Y-97044000D02*
X126258000Y-97044000D01*
X126258000Y-97044000D02*
X126258000Y-104044000D01*
X126258000Y-104044000D02*
X128758000Y-104044000D01*
X128758000Y-104044000D02*
X128758000Y-97044000D01*
X119952000Y-102706000D02*
X114202000Y-102706000D01*
X114202000Y-102706000D02*
X114202000Y-115106000D01*
X114202000Y-115106000D02*
X119952000Y-115106000D01*
X119952000Y-115106000D02*
X119952000Y-102706000D01*
X120352000Y-104806000D02*
X120352000Y-102306000D01*
X120352000Y-102306000D02*
X117852000Y-102306000D01*
X111443000Y-66765000D02*
X105693000Y-66765000D01*
X105693000Y-66765000D02*
X105693000Y-76665000D01*
X105693000Y-76665000D02*
X111443000Y-76665000D01*
X111443000Y-76665000D02*
X111443000Y-66765000D01*
X111843000Y-68865000D02*
X111843000Y-66365000D01*
X111843000Y-66365000D02*
X109343000Y-66365000D01*
X111570000Y-84418000D02*
X105820000Y-84418000D01*
X105820000Y-84418000D02*
X105820000Y-94318000D01*
X105820000Y-94318000D02*
X111570000Y-94318000D01*
X111570000Y-94318000D02*
X111570000Y-84418000D01*
X111970000Y-86518000D02*
X111970000Y-84018000D01*
X111970000Y-84018000D02*
X109470000Y-84018000D01*
X120079000Y-69178000D02*
X114329000Y-69178000D01*
X114329000Y-69178000D02*
X114329000Y-76578000D01*
X114329000Y-76578000D02*
X120079000Y-76578000D01*
X120079000Y-76578000D02*
X120079000Y-69178000D01*
X120479000Y-71278000D02*
X120479000Y-68778000D01*
X120479000Y-68778000D02*
X117979000Y-68778000D01*
X106897000Y-58610000D02*
X106897000Y-64360000D01*
X106897000Y-64360000D02*
X114297000Y-64360000D01*
X114297000Y-64360000D02*
X114297000Y-58610000D01*
X114297000Y-58610000D02*
X106897000Y-58610000D01*
X108997000Y-58210000D02*
X106497000Y-58210000D01*
X106497000Y-58210000D02*
X106497000Y-60710000D01*
D11*
X112778048Y-53420381D02*
X112206619Y-53420381D01*
X112492333Y-53420381D02*
X112492333Y-52420381D01*
X112397095Y-52563238D01*
X112301857Y-52658476D01*
X112206619Y-52706095D01*
X113159000Y-53134667D02*
X113635191Y-53134667D01*
X113063762Y-53420381D02*
X113397095Y-52420381D01*
X113730429Y-53420381D01*
X114063762Y-53039429D02*
X114825667Y-53039429D01*
X115301857Y-53420381D02*
X115301857Y-52420381D01*
X115873286Y-53420381D01*
X115873286Y-52420381D01*
X116349476Y-53420381D02*
X116349476Y-52420381D01*
X116730429Y-52420381D01*
X116825667Y-52468000D01*
X116873286Y-52515619D01*
X116920905Y-52610857D01*
X116920905Y-52753714D01*
X116873286Y-52848952D01*
X116825667Y-52896571D01*
X116730429Y-52944190D01*
X116349476Y-52944190D01*
X117349476Y-53420381D02*
X117349476Y-52420381D01*
X117920905Y-53420381D01*
X117920905Y-52420381D01*
X118397095Y-53039429D02*
X119159000Y-53039429D01*
X119635190Y-52896571D02*
X119968524Y-52896571D01*
X120111381Y-53420381D02*
X119635190Y-53420381D01*
X119635190Y-52420381D01*
X120111381Y-52420381D01*
X120873286Y-52896571D02*
X121016143Y-52944190D01*
X121063762Y-52991810D01*
X121111381Y-53087048D01*
X121111381Y-53229905D01*
X121063762Y-53325143D01*
X121016143Y-53372762D01*
X120920905Y-53420381D01*
X120539952Y-53420381D01*
X120539952Y-52420381D01*
X120873286Y-52420381D01*
X120968524Y-52468000D01*
X121016143Y-52515619D01*
X121063762Y-52610857D01*
X121063762Y-52706095D01*
X121016143Y-52801333D01*
X120968524Y-52848952D01*
X120873286Y-52896571D01*
X120539952Y-52896571D01*
X122111381Y-53325143D02*
X122063762Y-53372762D01*
X121920905Y-53420381D01*
X121825667Y-53420381D01*
X121682809Y-53372762D01*
X121587571Y-53277524D01*
X121539952Y-53182286D01*
X121492333Y-52991810D01*
X121492333Y-52848952D01*
X121539952Y-52658476D01*
X121587571Y-52563238D01*
X121682809Y-52468000D01*
X121825667Y-52420381D01*
X121920905Y-52420381D01*
X122063762Y-52468000D01*
X122111381Y-52515619D01*
X117444762Y-51987619D02*
X117349524Y-51940000D01*
X117254286Y-51844762D01*
X117111429Y-51701905D01*
X117016190Y-51654286D01*
X116920952Y-51654286D01*
X116968571Y-51892381D02*
X116873333Y-51844762D01*
X116778095Y-51749524D01*
X116730476Y-51559048D01*
X116730476Y-51225714D01*
X116778095Y-51035238D01*
X116873333Y-50940000D01*
X116968571Y-50892381D01*
X117159048Y-50892381D01*
X117254286Y-50940000D01*
X117349524Y-51035238D01*
X117397143Y-51225714D01*
X117397143Y-51559048D01*
X117349524Y-51749524D01*
X117254286Y-51844762D01*
X117159048Y-51892381D01*
X116968571Y-51892381D01*
X117778095Y-50987619D02*
X117825714Y-50940000D01*
X117920952Y-50892381D01*
X118159048Y-50892381D01*
X118254286Y-50940000D01*
X118301905Y-50987619D01*
X118349524Y-51082857D01*
X118349524Y-51178095D01*
X118301905Y-51320952D01*
X117730476Y-51892381D01*
X118349524Y-51892381D01*
X143580381Y-71221047D02*
X143056571Y-71221047D01*
X142961333Y-71268666D01*
X142913714Y-71363904D01*
X142913714Y-71554381D01*
X142961333Y-71649619D01*
X143532762Y-71221047D02*
X143580381Y-71316285D01*
X143580381Y-71554381D01*
X143532762Y-71649619D01*
X143437524Y-71697238D01*
X143342286Y-71697238D01*
X143247048Y-71649619D01*
X143199429Y-71554381D01*
X143199429Y-71316285D01*
X143151810Y-71221047D01*
X143580381Y-70744857D02*
X142913714Y-70744857D01*
X143104190Y-70744857D02*
X143008952Y-70697238D01*
X142961333Y-70649619D01*
X142913714Y-70554381D01*
X142913714Y-70459142D01*
X143580381Y-69697237D02*
X142580381Y-69697237D01*
X143532762Y-69697237D02*
X143580381Y-69792475D01*
X143580381Y-69982952D01*
X143532762Y-70078190D01*
X143485143Y-70125809D01*
X143389905Y-70173428D01*
X143104190Y-70173428D01*
X143008952Y-70125809D01*
X142961333Y-70078190D01*
X142913714Y-69982952D01*
X142913714Y-69792475D01*
X142961333Y-69697237D01*
X142913714Y-68792475D02*
X143580381Y-68792475D01*
X142913714Y-69221047D02*
X143437524Y-69221047D01*
X143532762Y-69173428D01*
X143580381Y-69078190D01*
X143580381Y-68935332D01*
X143532762Y-68840094D01*
X143485143Y-68792475D01*
X143580381Y-68316285D02*
X142913714Y-68316285D01*
X142580381Y-68316285D02*
X142628000Y-68363904D01*
X142675619Y-68316285D01*
X142628000Y-68268666D01*
X142580381Y-68316285D01*
X142675619Y-68316285D01*
X142913714Y-67840095D02*
X143580381Y-67840095D01*
X143008952Y-67840095D02*
X142961333Y-67792476D01*
X142913714Y-67697238D01*
X142913714Y-67554380D01*
X142961333Y-67459142D01*
X143056571Y-67411523D01*
X143580381Y-67411523D01*
X143580381Y-66792476D02*
X143532762Y-66887714D01*
X143485143Y-66935333D01*
X143389905Y-66982952D01*
X143104190Y-66982952D01*
X143008952Y-66935333D01*
X142961333Y-66887714D01*
X142913714Y-66792476D01*
X142913714Y-66649618D01*
X142961333Y-66554380D01*
X143008952Y-66506761D01*
X143104190Y-66459142D01*
X143389905Y-66459142D01*
X143485143Y-66506761D01*
X143532762Y-66554380D01*
X143580381Y-66649618D01*
X143580381Y-66792476D01*
X143675619Y-66268666D02*
X143675619Y-65506761D01*
X143580381Y-65268666D02*
X142913714Y-65268666D01*
X143008952Y-65268666D02*
X142961333Y-65221047D01*
X142913714Y-65125809D01*
X142913714Y-64982951D01*
X142961333Y-64887713D01*
X143056571Y-64840094D01*
X143580381Y-64840094D01*
X143056571Y-64840094D02*
X142961333Y-64792475D01*
X142913714Y-64697237D01*
X142913714Y-64554380D01*
X142961333Y-64459142D01*
X143056571Y-64411523D01*
X143580381Y-64411523D01*
X143580381Y-63935333D02*
X142913714Y-63935333D01*
X142580381Y-63935333D02*
X142628000Y-63982952D01*
X142675619Y-63935333D01*
X142628000Y-63887714D01*
X142580381Y-63935333D01*
X142675619Y-63935333D01*
X142913714Y-63459143D02*
X143580381Y-63459143D01*
X143008952Y-63459143D02*
X142961333Y-63411524D01*
X142913714Y-63316286D01*
X142913714Y-63173428D01*
X142961333Y-63078190D01*
X143056571Y-63030571D01*
X143580381Y-63030571D01*
X143580381Y-62554381D02*
X142913714Y-62554381D01*
X142580381Y-62554381D02*
X142628000Y-62602000D01*
X142675619Y-62554381D01*
X142628000Y-62506762D01*
X142580381Y-62554381D01*
X142675619Y-62554381D01*
X124083334Y-128902381D02*
X123750000Y-128426190D01*
X123511905Y-128902381D02*
X123511905Y-127902381D01*
X123892858Y-127902381D01*
X123988096Y-127950000D01*
X124035715Y-127997619D01*
X124083334Y-128092857D01*
X124083334Y-128235714D01*
X124035715Y-128330952D01*
X123988096Y-128378571D01*
X123892858Y-128426190D01*
X123511905Y-128426190D01*
X125035715Y-128902381D02*
X124464286Y-128902381D01*
X124750000Y-128902381D02*
X124750000Y-127902381D01*
X124654762Y-128045238D01*
X124559524Y-128140476D01*
X124464286Y-128188095D01*
X127829381Y-76675762D02*
X127829381Y-77247191D01*
X127829381Y-76961477D02*
X126829381Y-76961477D01*
X126972238Y-77056715D01*
X127067476Y-77151953D01*
X127115095Y-77247191D01*
X127543667Y-76294810D02*
X127543667Y-75818619D01*
X127829381Y-76390048D02*
X126829381Y-76056715D01*
X127829381Y-75723381D01*
X127924619Y-75628143D02*
X127924619Y-74866238D01*
X127829381Y-74628143D02*
X126829381Y-74628143D01*
X127829381Y-74056714D01*
X126829381Y-74056714D01*
X127829381Y-73580524D02*
X126829381Y-73580524D01*
X126829381Y-73199571D01*
X126877000Y-73104333D01*
X126924619Y-73056714D01*
X127019857Y-73009095D01*
X127162714Y-73009095D01*
X127257952Y-73056714D01*
X127305571Y-73104333D01*
X127353190Y-73199571D01*
X127353190Y-73580524D01*
X127829381Y-72580524D02*
X126829381Y-72580524D01*
X127829381Y-72009095D01*
X126829381Y-72009095D01*
X127924619Y-71771000D02*
X127924619Y-71009095D01*
X127305571Y-70771000D02*
X127305571Y-70437666D01*
X127829381Y-70294809D02*
X127829381Y-70771000D01*
X126829381Y-70771000D01*
X126829381Y-70294809D01*
X127305571Y-69532904D02*
X127353190Y-69390047D01*
X127400810Y-69342428D01*
X127496048Y-69294809D01*
X127638905Y-69294809D01*
X127734143Y-69342428D01*
X127781762Y-69390047D01*
X127829381Y-69485285D01*
X127829381Y-69866238D01*
X126829381Y-69866238D01*
X126829381Y-69532904D01*
X126877000Y-69437666D01*
X126924619Y-69390047D01*
X127019857Y-69342428D01*
X127115095Y-69342428D01*
X127210333Y-69390047D01*
X127257952Y-69437666D01*
X127305571Y-69532904D01*
X127305571Y-69866238D01*
X127734143Y-68294809D02*
X127781762Y-68342428D01*
X127829381Y-68485285D01*
X127829381Y-68580523D01*
X127781762Y-68723381D01*
X127686524Y-68818619D01*
X127591286Y-68866238D01*
X127400810Y-68913857D01*
X127257952Y-68913857D01*
X127067476Y-68866238D01*
X126972238Y-68818619D01*
X126877000Y-68723381D01*
X126829381Y-68580523D01*
X126829381Y-68485285D01*
X126877000Y-68342428D01*
X126924619Y-68294809D01*
X122947619Y-77495238D02*
X122900000Y-77590476D01*
X122804762Y-77685714D01*
X122661905Y-77828571D01*
X122614286Y-77923810D01*
X122614286Y-78019048D01*
X122852381Y-77971429D02*
X122804762Y-78066667D01*
X122709524Y-78161905D01*
X122519048Y-78209524D01*
X122185714Y-78209524D01*
X121995238Y-78161905D01*
X121900000Y-78066667D01*
X121852381Y-77971429D01*
X121852381Y-77780952D01*
X121900000Y-77685714D01*
X121995238Y-77590476D01*
X122185714Y-77542857D01*
X122519048Y-77542857D01*
X122709524Y-77590476D01*
X122804762Y-77685714D01*
X122852381Y-77780952D01*
X122852381Y-77971429D01*
X121852381Y-77209524D02*
X121852381Y-76590476D01*
X122233333Y-76923810D01*
X122233333Y-76780952D01*
X122280952Y-76685714D01*
X122328571Y-76638095D01*
X122423810Y-76590476D01*
X122661905Y-76590476D01*
X122757143Y-76638095D01*
X122804762Y-76685714D01*
X122852381Y-76780952D01*
X122852381Y-77066667D01*
X122804762Y-77161905D01*
X122757143Y-77209524D01*
X128718381Y-119982762D02*
X128718381Y-120554191D01*
X128718381Y-120268477D02*
X127718381Y-120268477D01*
X127861238Y-120363715D01*
X127956476Y-120458953D01*
X128004095Y-120554191D01*
X128432667Y-119601810D02*
X128432667Y-119125619D01*
X128718381Y-119697048D02*
X127718381Y-119363715D01*
X128718381Y-119030381D01*
X128813619Y-118935143D02*
X128813619Y-118173238D01*
X128718381Y-117935143D02*
X127718381Y-117935143D01*
X128718381Y-117363714D01*
X127718381Y-117363714D01*
X128718381Y-116887524D02*
X127718381Y-116887524D01*
X127718381Y-116506571D01*
X127766000Y-116411333D01*
X127813619Y-116363714D01*
X127908857Y-116316095D01*
X128051714Y-116316095D01*
X128146952Y-116363714D01*
X128194571Y-116411333D01*
X128242190Y-116506571D01*
X128242190Y-116887524D01*
X128718381Y-115887524D02*
X127718381Y-115887524D01*
X128718381Y-115316095D01*
X127718381Y-115316095D01*
X128813619Y-115078000D02*
X128813619Y-114316095D01*
X128194571Y-114078000D02*
X128194571Y-113744666D01*
X128718381Y-113601809D02*
X128718381Y-114078000D01*
X127718381Y-114078000D01*
X127718381Y-113601809D01*
X128194571Y-112839904D02*
X128242190Y-112697047D01*
X128289810Y-112649428D01*
X128385048Y-112601809D01*
X128527905Y-112601809D01*
X128623143Y-112649428D01*
X128670762Y-112697047D01*
X128718381Y-112792285D01*
X128718381Y-113173238D01*
X127718381Y-113173238D01*
X127718381Y-112839904D01*
X127766000Y-112744666D01*
X127813619Y-112697047D01*
X127908857Y-112649428D01*
X128004095Y-112649428D01*
X128099333Y-112697047D01*
X128146952Y-112744666D01*
X128194571Y-112839904D01*
X128194571Y-113173238D01*
X128623143Y-111601809D02*
X128670762Y-111649428D01*
X128718381Y-111792285D01*
X128718381Y-111887523D01*
X128670762Y-112030381D01*
X128575524Y-112125619D01*
X128480286Y-112173238D01*
X128289810Y-112220857D01*
X128146952Y-112220857D01*
X127956476Y-112173238D01*
X127861238Y-112125619D01*
X127766000Y-112030381D01*
X127718381Y-111887523D01*
X127718381Y-111792285D01*
X127766000Y-111649428D01*
X127813619Y-111601809D01*
X122463619Y-116173238D02*
X122416000Y-116268476D01*
X122320762Y-116363714D01*
X122177905Y-116506571D01*
X122130286Y-116601810D01*
X122130286Y-116697048D01*
X122368381Y-116649429D02*
X122320762Y-116744667D01*
X122225524Y-116839905D01*
X122035048Y-116887524D01*
X121701714Y-116887524D01*
X121511238Y-116839905D01*
X121416000Y-116744667D01*
X121368381Y-116649429D01*
X121368381Y-116458952D01*
X121416000Y-116363714D01*
X121511238Y-116268476D01*
X121701714Y-116220857D01*
X122035048Y-116220857D01*
X122225524Y-116268476D01*
X122320762Y-116363714D01*
X122368381Y-116458952D01*
X122368381Y-116649429D01*
X122368381Y-115268476D02*
X122368381Y-115839905D01*
X122368381Y-115554191D02*
X121368381Y-115554191D01*
X121511238Y-115649429D01*
X121606476Y-115744667D01*
X121654095Y-115839905D01*
X121352381Y-93058762D02*
X121352381Y-93630191D01*
X121352381Y-93344477D02*
X120352381Y-93344477D01*
X120495238Y-93439715D01*
X120590476Y-93534953D01*
X120638095Y-93630191D01*
X121066667Y-92677810D02*
X121066667Y-92201619D01*
X121352381Y-92773048D02*
X120352381Y-92439715D01*
X121352381Y-92106381D01*
X121447619Y-92011143D02*
X121447619Y-91249238D01*
X121352381Y-91011143D02*
X120352381Y-91011143D01*
X121352381Y-90439714D01*
X120352381Y-90439714D01*
X121352381Y-89963524D02*
X120352381Y-89963524D01*
X120352381Y-89582571D01*
X120400000Y-89487333D01*
X120447619Y-89439714D01*
X120542857Y-89392095D01*
X120685714Y-89392095D01*
X120780952Y-89439714D01*
X120828571Y-89487333D01*
X120876190Y-89582571D01*
X120876190Y-89963524D01*
X121352381Y-88963524D02*
X120352381Y-88963524D01*
X121352381Y-88392095D01*
X120352381Y-88392095D01*
X121447619Y-88154000D02*
X121447619Y-87392095D01*
X120828571Y-87154000D02*
X120828571Y-86820666D01*
X121352381Y-86677809D02*
X121352381Y-87154000D01*
X120352381Y-87154000D01*
X120352381Y-86677809D01*
X120828571Y-85915904D02*
X120876190Y-85773047D01*
X120923810Y-85725428D01*
X121019048Y-85677809D01*
X121161905Y-85677809D01*
X121257143Y-85725428D01*
X121304762Y-85773047D01*
X121352381Y-85868285D01*
X121352381Y-86249238D01*
X120352381Y-86249238D01*
X120352381Y-85915904D01*
X120400000Y-85820666D01*
X120447619Y-85773047D01*
X120542857Y-85725428D01*
X120638095Y-85725428D01*
X120733333Y-85773047D01*
X120780952Y-85820666D01*
X120828571Y-85915904D01*
X120828571Y-86249238D01*
X121257143Y-84677809D02*
X121304762Y-84725428D01*
X121352381Y-84868285D01*
X121352381Y-84963523D01*
X121304762Y-85106381D01*
X121209524Y-85201619D01*
X121114286Y-85249238D01*
X120923810Y-85296857D01*
X120780952Y-85296857D01*
X120590476Y-85249238D01*
X120495238Y-85201619D01*
X120400000Y-85106381D01*
X120352381Y-84963523D01*
X120352381Y-84868285D01*
X120400000Y-84725428D01*
X120447619Y-84677809D01*
X115097619Y-89249238D02*
X115050000Y-89344476D01*
X114954762Y-89439714D01*
X114811905Y-89582571D01*
X114764286Y-89677810D01*
X114764286Y-89773048D01*
X115002381Y-89725429D02*
X114954762Y-89820667D01*
X114859524Y-89915905D01*
X114669048Y-89963524D01*
X114335714Y-89963524D01*
X114145238Y-89915905D01*
X114050000Y-89820667D01*
X114002381Y-89725429D01*
X114002381Y-89534952D01*
X114050000Y-89439714D01*
X114145238Y-89344476D01*
X114335714Y-89296857D01*
X114669048Y-89296857D01*
X114859524Y-89344476D01*
X114954762Y-89439714D01*
X115002381Y-89534952D01*
X115002381Y-89725429D01*
X114335714Y-88439714D02*
X115002381Y-88439714D01*
X113954762Y-88677810D02*
X114669048Y-88915905D01*
X114669048Y-88296857D01*
X129309905Y-94730381D02*
X129309905Y-93730381D01*
X129690858Y-93730381D01*
X129786096Y-93778000D01*
X129833715Y-93825619D01*
X129881334Y-93920857D01*
X129881334Y-94063714D01*
X129833715Y-94158952D01*
X129786096Y-94206571D01*
X129690858Y-94254190D01*
X129309905Y-94254190D01*
X130357524Y-94730381D02*
X130548000Y-94730381D01*
X130643239Y-94682762D01*
X130690858Y-94635143D01*
X130786096Y-94492286D01*
X130833715Y-94301810D01*
X130833715Y-93920857D01*
X130786096Y-93825619D01*
X130738477Y-93778000D01*
X130643239Y-93730381D01*
X130452762Y-93730381D01*
X130357524Y-93778000D01*
X130309905Y-93825619D01*
X130262286Y-93920857D01*
X130262286Y-94158952D01*
X130309905Y-94254190D01*
X130357524Y-94301810D01*
X130452762Y-94349429D01*
X130643239Y-94349429D01*
X130738477Y-94301810D01*
X130786096Y-94254190D01*
X130833715Y-94158952D01*
X115625524Y-96598381D02*
X115292190Y-96122190D01*
X115054095Y-96598381D02*
X115054095Y-95598381D01*
X115435048Y-95598381D01*
X115530286Y-95646000D01*
X115577905Y-95693619D01*
X115625524Y-95788857D01*
X115625524Y-95931714D01*
X115577905Y-96026952D01*
X115530286Y-96074571D01*
X115435048Y-96122190D01*
X115054095Y-96122190D01*
X106918381Y-121622095D02*
X105918381Y-121622095D01*
X105918381Y-121241142D01*
X105966000Y-121145904D01*
X106013619Y-121098285D01*
X106108857Y-121050666D01*
X106251714Y-121050666D01*
X106346952Y-121098285D01*
X106394571Y-121145904D01*
X106442190Y-121241142D01*
X106442190Y-121622095D01*
X105918381Y-120717333D02*
X105918381Y-120098285D01*
X106299333Y-120431619D01*
X106299333Y-120288761D01*
X106346952Y-120193523D01*
X106394571Y-120145904D01*
X106489810Y-120098285D01*
X106727905Y-120098285D01*
X106823143Y-120145904D01*
X106870762Y-120193523D01*
X106918381Y-120288761D01*
X106918381Y-120574476D01*
X106870762Y-120669714D01*
X106823143Y-120717333D01*
X132889334Y-120499143D02*
X132841715Y-120546762D01*
X132698858Y-120594381D01*
X132603620Y-120594381D01*
X132460762Y-120546762D01*
X132365524Y-120451524D01*
X132317905Y-120356286D01*
X132270286Y-120165810D01*
X132270286Y-120022952D01*
X132317905Y-119832476D01*
X132365524Y-119737238D01*
X132460762Y-119642000D01*
X132603620Y-119594381D01*
X132698858Y-119594381D01*
X132841715Y-119642000D01*
X132889334Y-119689619D01*
X133222667Y-119594381D02*
X133889334Y-119594381D01*
X133460762Y-120594381D01*
X141851143Y-120499143D02*
X141803524Y-120546762D01*
X141660667Y-120594381D01*
X141565429Y-120594381D01*
X141422571Y-120546762D01*
X141327333Y-120451524D01*
X141279714Y-120356286D01*
X141232095Y-120165810D01*
X141232095Y-120022952D01*
X141279714Y-119832476D01*
X141327333Y-119737238D01*
X141422571Y-119642000D01*
X141565429Y-119594381D01*
X141660667Y-119594381D01*
X141803524Y-119642000D01*
X141851143Y-119689619D01*
X142803524Y-120594381D02*
X142232095Y-120594381D01*
X142517809Y-120594381D02*
X142517809Y-119594381D01*
X142422571Y-119737238D01*
X142327333Y-119832476D01*
X142232095Y-119880095D01*
X143422571Y-119594381D02*
X143517810Y-119594381D01*
X143613048Y-119642000D01*
X143660667Y-119689619D01*
X143708286Y-119784857D01*
X143755905Y-119975333D01*
X143755905Y-120213429D01*
X143708286Y-120403905D01*
X143660667Y-120499143D01*
X143613048Y-120546762D01*
X143517810Y-120594381D01*
X143422571Y-120594381D01*
X143327333Y-120546762D01*
X143279714Y-120499143D01*
X143232095Y-120403905D01*
X143184476Y-120213429D01*
X143184476Y-119975333D01*
X143232095Y-119784857D01*
X143279714Y-119689619D01*
X143327333Y-119642000D01*
X143422571Y-119594381D01*
X115554381Y-121622095D02*
X114554381Y-121622095D01*
X114554381Y-121241142D01*
X114602000Y-121145904D01*
X114649619Y-121098285D01*
X114744857Y-121050666D01*
X114887714Y-121050666D01*
X114982952Y-121098285D01*
X115030571Y-121145904D01*
X115078190Y-121241142D01*
X115078190Y-121622095D01*
X115554381Y-120098285D02*
X115554381Y-120669714D01*
X115554381Y-120384000D02*
X114554381Y-120384000D01*
X114697238Y-120479238D01*
X114792476Y-120574476D01*
X114840095Y-120669714D01*
X106918381Y-110680095D02*
X105918381Y-110680095D01*
X105918381Y-110299142D01*
X105966000Y-110203904D01*
X106013619Y-110156285D01*
X106108857Y-110108666D01*
X106251714Y-110108666D01*
X106346952Y-110156285D01*
X106394571Y-110203904D01*
X106442190Y-110299142D01*
X106442190Y-110680095D01*
X106251714Y-109251523D02*
X106918381Y-109251523D01*
X105870762Y-109489619D02*
X106585048Y-109727714D01*
X106585048Y-109108666D01*
X127865143Y-100710666D02*
X127912762Y-100758285D01*
X127960381Y-100901142D01*
X127960381Y-100996380D01*
X127912762Y-101139238D01*
X127817524Y-101234476D01*
X127722286Y-101282095D01*
X127531810Y-101329714D01*
X127388952Y-101329714D01*
X127198476Y-101282095D01*
X127103238Y-101234476D01*
X127008000Y-101139238D01*
X126960381Y-100996380D01*
X126960381Y-100901142D01*
X127008000Y-100758285D01*
X127055619Y-100710666D01*
X127388952Y-100139238D02*
X127341333Y-100234476D01*
X127293714Y-100282095D01*
X127198476Y-100329714D01*
X127150857Y-100329714D01*
X127055619Y-100282095D01*
X127008000Y-100234476D01*
X126960381Y-100139238D01*
X126960381Y-99948761D01*
X127008000Y-99853523D01*
X127055619Y-99805904D01*
X127150857Y-99758285D01*
X127198476Y-99758285D01*
X127293714Y-99805904D01*
X127341333Y-99853523D01*
X127388952Y-99948761D01*
X127388952Y-100139238D01*
X127436571Y-100234476D01*
X127484190Y-100282095D01*
X127579429Y-100329714D01*
X127769905Y-100329714D01*
X127865143Y-100282095D01*
X127912762Y-100234476D01*
X127960381Y-100139238D01*
X127960381Y-99948761D01*
X127912762Y-99853523D01*
X127865143Y-99805904D01*
X127769905Y-99758285D01*
X127579429Y-99758285D01*
X127484190Y-99805904D01*
X127436571Y-99853523D01*
X127388952Y-99948761D01*
X115554381Y-110120286D02*
X114554381Y-110120286D01*
X114554381Y-109739333D01*
X114602000Y-109644095D01*
X114649619Y-109596476D01*
X114744857Y-109548857D01*
X114887714Y-109548857D01*
X114982952Y-109596476D01*
X115030571Y-109644095D01*
X115078190Y-109739333D01*
X115078190Y-110120286D01*
X115554381Y-108596476D02*
X115554381Y-109167905D01*
X115554381Y-108882191D02*
X114554381Y-108882191D01*
X114697238Y-108977429D01*
X114792476Y-109072667D01*
X114840095Y-109167905D01*
X114554381Y-107977429D02*
X114554381Y-107882190D01*
X114602000Y-107786952D01*
X114649619Y-107739333D01*
X114744857Y-107691714D01*
X114935333Y-107644095D01*
X115173429Y-107644095D01*
X115363905Y-107691714D01*
X115459143Y-107739333D01*
X115506762Y-107786952D01*
X115554381Y-107882190D01*
X115554381Y-107977429D01*
X115506762Y-108072667D01*
X115459143Y-108120286D01*
X115363905Y-108167905D01*
X115173429Y-108215524D01*
X114935333Y-108215524D01*
X114744857Y-108167905D01*
X114649619Y-108120286D01*
X114602000Y-108072667D01*
X114554381Y-107977429D01*
X107045381Y-72453095D02*
X106045381Y-72453095D01*
X106045381Y-72072142D01*
X106093000Y-71976904D01*
X106140619Y-71929285D01*
X106235857Y-71881666D01*
X106378714Y-71881666D01*
X106473952Y-71929285D01*
X106521571Y-71976904D01*
X106569190Y-72072142D01*
X106569190Y-72453095D01*
X106473952Y-71310238D02*
X106426333Y-71405476D01*
X106378714Y-71453095D01*
X106283476Y-71500714D01*
X106235857Y-71500714D01*
X106140619Y-71453095D01*
X106093000Y-71405476D01*
X106045381Y-71310238D01*
X106045381Y-71119761D01*
X106093000Y-71024523D01*
X106140619Y-70976904D01*
X106235857Y-70929285D01*
X106283476Y-70929285D01*
X106378714Y-70976904D01*
X106426333Y-71024523D01*
X106473952Y-71119761D01*
X106473952Y-71310238D01*
X106521571Y-71405476D01*
X106569190Y-71453095D01*
X106664429Y-71500714D01*
X106854905Y-71500714D01*
X106950143Y-71453095D01*
X106997762Y-71405476D01*
X107045381Y-71310238D01*
X107045381Y-71119761D01*
X106997762Y-71024523D01*
X106950143Y-70976904D01*
X106854905Y-70929285D01*
X106664429Y-70929285D01*
X106569190Y-70976904D01*
X106521571Y-71024523D01*
X106473952Y-71119761D01*
X107172381Y-90106095D02*
X106172381Y-90106095D01*
X106172381Y-89725142D01*
X106220000Y-89629904D01*
X106267619Y-89582285D01*
X106362857Y-89534666D01*
X106505714Y-89534666D01*
X106600952Y-89582285D01*
X106648571Y-89629904D01*
X106696190Y-89725142D01*
X106696190Y-90106095D01*
X106172381Y-89201333D02*
X106172381Y-88534666D01*
X107172381Y-88963238D01*
X115641381Y-73636095D02*
X114641381Y-73636095D01*
X114641381Y-73255142D01*
X114689000Y-73159904D01*
X114736619Y-73112285D01*
X114831857Y-73064666D01*
X114974714Y-73064666D01*
X115069952Y-73112285D01*
X115117571Y-73159904D01*
X115165190Y-73255142D01*
X115165190Y-73636095D01*
X114641381Y-72207523D02*
X114641381Y-72398000D01*
X114689000Y-72493238D01*
X114736619Y-72540857D01*
X114879476Y-72636095D01*
X115069952Y-72683714D01*
X115450905Y-72683714D01*
X115546143Y-72636095D01*
X115593762Y-72588476D01*
X115641381Y-72493238D01*
X115641381Y-72302761D01*
X115593762Y-72207523D01*
X115546143Y-72159904D01*
X115450905Y-72112285D01*
X115212810Y-72112285D01*
X115117571Y-72159904D01*
X115069952Y-72207523D01*
X115022333Y-72302761D01*
X115022333Y-72493238D01*
X115069952Y-72588476D01*
X115117571Y-72636095D01*
X115212810Y-72683714D01*
X109858905Y-63912381D02*
X109858905Y-62912381D01*
X110239858Y-62912381D01*
X110335096Y-62960000D01*
X110382715Y-63007619D01*
X110430334Y-63102857D01*
X110430334Y-63245714D01*
X110382715Y-63340952D01*
X110335096Y-63388571D01*
X110239858Y-63436190D01*
X109858905Y-63436190D01*
X111335096Y-62912381D02*
X110858905Y-62912381D01*
X110811286Y-63388571D01*
X110858905Y-63340952D01*
X110954143Y-63293333D01*
X111192239Y-63293333D01*
X111287477Y-63340952D01*
X111335096Y-63388571D01*
X111382715Y-63483810D01*
X111382715Y-63721905D01*
X111335096Y-63817143D01*
X111287477Y-63864762D01*
X111192239Y-63912381D01*
X110954143Y-63912381D01*
X110858905Y-63864762D01*
X110811286Y-63817143D01*
M02*
