G04 #@! TF.FileFunction,Other,Fab,Top*
%FSLAX46Y46*%
G04 Gerber Fmt 4.6, Leading zero omitted, Abs format (unit mm)*
G04 Created by KiCad (PCBNEW 4.0.7-e2-6376~58~ubuntu16.04.1) date Sat Nov  4 22:27:25 2017*
%MOMM*%
%LPD*%
G01*
G04 APERTURE LIST*
%ADD10C,0.100000*%
%ADD11C,0.150000*%
%ADD12C,0.300000*%
%ADD13C,0.400000*%
G04 APERTURE END LIST*
D10*
D11*
X177002200Y-166007200D02*
X177002200Y-198007200D01*
X285002200Y-198007200D01*
X285002200Y-166007200D01*
X177002200Y-166007200D01*
D10*
D11*
X10000000Y-10000000D02*
X10000000Y-200007200D01*
X287002200Y-200007200D01*
X287002200Y-10000000D01*
X10000000Y-10000000D01*
D10*
D11*
X12000000Y-12000000D02*
X12000000Y-198007200D01*
X285002200Y-198007200D01*
X285002200Y-12000000D01*
X12000000Y-12000000D01*
D10*
D11*
X60000000Y-12000000D02*
X60000000Y-10000000D01*
D10*
D11*
X110000000Y-12000000D02*
X110000000Y-10000000D01*
D10*
D11*
X160000000Y-12000000D02*
X160000000Y-10000000D01*
D10*
D11*
X210000000Y-12000000D02*
X210000000Y-10000000D01*
D10*
D11*
X260000000Y-12000000D02*
X260000000Y-10000000D01*
D10*
D11*
X35990476Y-11588095D02*
X35247619Y-11588095D01*
X35619048Y-11588095D02*
X35619048Y-10288095D01*
X35495238Y-10473810D01*
X35371429Y-10597619D01*
X35247619Y-10659524D01*
D10*
D11*
X85247619Y-10411905D02*
X85309524Y-10350000D01*
X85433333Y-10288095D01*
X85742857Y-10288095D01*
X85866667Y-10350000D01*
X85928571Y-10411905D01*
X85990476Y-10535714D01*
X85990476Y-10659524D01*
X85928571Y-10845238D01*
X85185714Y-11588095D01*
X85990476Y-11588095D01*
D10*
D11*
X135185714Y-10288095D02*
X135990476Y-10288095D01*
X135557143Y-10783333D01*
X135742857Y-10783333D01*
X135866667Y-10845238D01*
X135928571Y-10907143D01*
X135990476Y-11030952D01*
X135990476Y-11340476D01*
X135928571Y-11464286D01*
X135866667Y-11526190D01*
X135742857Y-11588095D01*
X135371429Y-11588095D01*
X135247619Y-11526190D01*
X135185714Y-11464286D01*
D10*
D11*
X185866667Y-10721429D02*
X185866667Y-11588095D01*
X185557143Y-10226190D02*
X185247619Y-11154762D01*
X186052381Y-11154762D01*
D10*
D11*
X235928571Y-10288095D02*
X235309524Y-10288095D01*
X235247619Y-10907143D01*
X235309524Y-10845238D01*
X235433333Y-10783333D01*
X235742857Y-10783333D01*
X235866667Y-10845238D01*
X235928571Y-10907143D01*
X235990476Y-11030952D01*
X235990476Y-11340476D01*
X235928571Y-11464286D01*
X235866667Y-11526190D01*
X235742857Y-11588095D01*
X235433333Y-11588095D01*
X235309524Y-11526190D01*
X235247619Y-11464286D01*
D10*
D11*
X285866667Y-10288095D02*
X285619048Y-10288095D01*
X285495238Y-10350000D01*
X285433333Y-10411905D01*
X285309524Y-10597619D01*
X285247619Y-10845238D01*
X285247619Y-11340476D01*
X285309524Y-11464286D01*
X285371429Y-11526190D01*
X285495238Y-11588095D01*
X285742857Y-11588095D01*
X285866667Y-11526190D01*
X285928571Y-11464286D01*
X285990476Y-11340476D01*
X285990476Y-11030952D01*
X285928571Y-10907143D01*
X285866667Y-10845238D01*
X285742857Y-10783333D01*
X285495238Y-10783333D01*
X285371429Y-10845238D01*
X285309524Y-10907143D01*
X285247619Y-11030952D01*
D10*
D11*
X60000000Y-198007200D02*
X60000000Y-200007200D01*
D10*
D11*
X110000000Y-198007200D02*
X110000000Y-200007200D01*
D10*
D11*
X160000000Y-198007200D02*
X160000000Y-200007200D01*
D10*
D11*
X210000000Y-198007200D02*
X210000000Y-200007200D01*
D10*
D11*
X260000000Y-198007200D02*
X260000000Y-200007200D01*
D10*
D11*
X35990476Y-199595295D02*
X35247619Y-199595295D01*
X35619048Y-199595295D02*
X35619048Y-198295295D01*
X35495238Y-198481010D01*
X35371429Y-198604819D01*
X35247619Y-198666724D01*
D10*
D11*
X85247619Y-198419105D02*
X85309524Y-198357200D01*
X85433333Y-198295295D01*
X85742857Y-198295295D01*
X85866667Y-198357200D01*
X85928571Y-198419105D01*
X85990476Y-198542914D01*
X85990476Y-198666724D01*
X85928571Y-198852438D01*
X85185714Y-199595295D01*
X85990476Y-199595295D01*
D10*
D11*
X135185714Y-198295295D02*
X135990476Y-198295295D01*
X135557143Y-198790533D01*
X135742857Y-198790533D01*
X135866667Y-198852438D01*
X135928571Y-198914343D01*
X135990476Y-199038152D01*
X135990476Y-199347676D01*
X135928571Y-199471486D01*
X135866667Y-199533390D01*
X135742857Y-199595295D01*
X135371429Y-199595295D01*
X135247619Y-199533390D01*
X135185714Y-199471486D01*
D10*
D11*
X185866667Y-198728629D02*
X185866667Y-199595295D01*
X185557143Y-198233390D02*
X185247619Y-199161962D01*
X186052381Y-199161962D01*
D10*
D11*
X235928571Y-198295295D02*
X235309524Y-198295295D01*
X235247619Y-198914343D01*
X235309524Y-198852438D01*
X235433333Y-198790533D01*
X235742857Y-198790533D01*
X235866667Y-198852438D01*
X235928571Y-198914343D01*
X235990476Y-199038152D01*
X235990476Y-199347676D01*
X235928571Y-199471486D01*
X235866667Y-199533390D01*
X235742857Y-199595295D01*
X235433333Y-199595295D01*
X235309524Y-199533390D01*
X235247619Y-199471486D01*
D10*
D11*
X285866667Y-198295295D02*
X285619048Y-198295295D01*
X285495238Y-198357200D01*
X285433333Y-198419105D01*
X285309524Y-198604819D01*
X285247619Y-198852438D01*
X285247619Y-199347676D01*
X285309524Y-199471486D01*
X285371429Y-199533390D01*
X285495238Y-199595295D01*
X285742857Y-199595295D01*
X285866667Y-199533390D01*
X285928571Y-199471486D01*
X285990476Y-199347676D01*
X285990476Y-199038152D01*
X285928571Y-198914343D01*
X285866667Y-198852438D01*
X285742857Y-198790533D01*
X285495238Y-198790533D01*
X285371429Y-198852438D01*
X285309524Y-198914343D01*
X285247619Y-199038152D01*
D10*
D11*
X10000000Y-60000000D02*
X12000000Y-60000000D01*
D10*
D11*
X10000000Y-110000000D02*
X12000000Y-110000000D01*
D10*
D11*
X10000000Y-160000000D02*
X12000000Y-160000000D01*
D10*
D11*
X10690476Y-35216667D02*
X11309524Y-35216667D01*
X10566667Y-35588095D02*
X11000000Y-34288095D01*
X11433333Y-35588095D01*
D10*
D11*
X11092857Y-84907143D02*
X11278571Y-84969048D01*
X11340476Y-85030952D01*
X11402381Y-85154762D01*
X11402381Y-85340476D01*
X11340476Y-85464286D01*
X11278571Y-85526190D01*
X11154762Y-85588095D01*
X10659524Y-85588095D01*
X10659524Y-84288095D01*
X11092857Y-84288095D01*
X11216667Y-84350000D01*
X11278571Y-84411905D01*
X11340476Y-84535714D01*
X11340476Y-84659524D01*
X11278571Y-84783333D01*
X11216667Y-84845238D01*
X11092857Y-84907143D01*
X10659524Y-84907143D01*
D10*
D11*
X11402381Y-135464286D02*
X11340476Y-135526190D01*
X11154762Y-135588095D01*
X11030952Y-135588095D01*
X10845238Y-135526190D01*
X10721429Y-135402381D01*
X10659524Y-135278571D01*
X10597619Y-135030952D01*
X10597619Y-134845238D01*
X10659524Y-134597619D01*
X10721429Y-134473810D01*
X10845238Y-134350000D01*
X11030952Y-134288095D01*
X11154762Y-134288095D01*
X11340476Y-134350000D01*
X11402381Y-134411905D01*
D10*
D11*
X10659524Y-185588095D02*
X10659524Y-184288095D01*
X10969048Y-184288095D01*
X11154762Y-184350000D01*
X11278571Y-184473810D01*
X11340476Y-184597619D01*
X11402381Y-184845238D01*
X11402381Y-185030952D01*
X11340476Y-185278571D01*
X11278571Y-185402381D01*
X11154762Y-185526190D01*
X10969048Y-185588095D01*
X10659524Y-185588095D01*
D10*
D11*
X287002200Y-60000000D02*
X285002200Y-60000000D01*
D10*
D11*
X287002200Y-110000000D02*
X285002200Y-110000000D01*
D10*
D11*
X287002200Y-160000000D02*
X285002200Y-160000000D01*
D10*
D11*
X285692676Y-35216667D02*
X286311724Y-35216667D01*
X285568867Y-35588095D02*
X286002200Y-34288095D01*
X286435533Y-35588095D01*
D10*
D11*
X286095057Y-84907143D02*
X286280771Y-84969048D01*
X286342676Y-85030952D01*
X286404581Y-85154762D01*
X286404581Y-85340476D01*
X286342676Y-85464286D01*
X286280771Y-85526190D01*
X286156962Y-85588095D01*
X285661724Y-85588095D01*
X285661724Y-84288095D01*
X286095057Y-84288095D01*
X286218867Y-84350000D01*
X286280771Y-84411905D01*
X286342676Y-84535714D01*
X286342676Y-84659524D01*
X286280771Y-84783333D01*
X286218867Y-84845238D01*
X286095057Y-84907143D01*
X285661724Y-84907143D01*
D10*
D11*
X286404581Y-135464286D02*
X286342676Y-135526190D01*
X286156962Y-135588095D01*
X286033152Y-135588095D01*
X285847438Y-135526190D01*
X285723629Y-135402381D01*
X285661724Y-135278571D01*
X285599819Y-135030952D01*
X285599819Y-134845238D01*
X285661724Y-134597619D01*
X285723629Y-134473810D01*
X285847438Y-134350000D01*
X286033152Y-134288095D01*
X286156962Y-134288095D01*
X286342676Y-134350000D01*
X286404581Y-134411905D01*
D10*
D11*
X285661724Y-185588095D02*
X285661724Y-184288095D01*
X285971248Y-184288095D01*
X286156962Y-184350000D01*
X286280771Y-184473810D01*
X286342676Y-184597619D01*
X286404581Y-184845238D01*
X286404581Y-185030952D01*
X286342676Y-185278571D01*
X286280771Y-185402381D01*
X286156962Y-185526190D01*
X285971248Y-185588095D01*
X285661724Y-185588095D01*
D10*
D11*
X200359343Y-193785771D02*
X200359343Y-192285771D01*
X200716486Y-192285771D01*
X200930771Y-192357200D01*
X201073629Y-192500057D01*
X201145057Y-192642914D01*
X201216486Y-192928629D01*
X201216486Y-193142914D01*
X201145057Y-193428629D01*
X201073629Y-193571486D01*
X200930771Y-193714343D01*
X200716486Y-193785771D01*
X200359343Y-193785771D01*
X202502200Y-193785771D02*
X202502200Y-193000057D01*
X202430771Y-192857200D01*
X202287914Y-192785771D01*
X202002200Y-192785771D01*
X201859343Y-192857200D01*
X202502200Y-193714343D02*
X202359343Y-193785771D01*
X202002200Y-193785771D01*
X201859343Y-193714343D01*
X201787914Y-193571486D01*
X201787914Y-193428629D01*
X201859343Y-193285771D01*
X202002200Y-193214343D01*
X202359343Y-193214343D01*
X202502200Y-193142914D01*
X203002200Y-192785771D02*
X203573629Y-192785771D01*
X203216486Y-192285771D02*
X203216486Y-193571486D01*
X203287914Y-193714343D01*
X203430772Y-193785771D01*
X203573629Y-193785771D01*
X204645057Y-193714343D02*
X204502200Y-193785771D01*
X204216486Y-193785771D01*
X204073629Y-193714343D01*
X204002200Y-193571486D01*
X204002200Y-193000057D01*
X204073629Y-192857200D01*
X204216486Y-192785771D01*
X204502200Y-192785771D01*
X204645057Y-192857200D01*
X204716486Y-193000057D01*
X204716486Y-193142914D01*
X204002200Y-193285771D01*
X205359343Y-193642914D02*
X205430771Y-193714343D01*
X205359343Y-193785771D01*
X205287914Y-193714343D01*
X205359343Y-193642914D01*
X205359343Y-193785771D01*
X205359343Y-192857200D02*
X205430771Y-192928629D01*
X205359343Y-193000057D01*
X205287914Y-192928629D01*
X205359343Y-192857200D01*
X205359343Y-193000057D01*
D10*
D11*
X177002200Y-194507200D02*
X285002200Y-194507200D01*
D10*
D11*
X178359343Y-196585771D02*
X178359343Y-195085771D01*
X179216486Y-196585771D02*
X178573629Y-195728629D01*
X179216486Y-195085771D02*
X178359343Y-195942914D01*
X179859343Y-196585771D02*
X179859343Y-195585771D01*
X179859343Y-195085771D02*
X179787914Y-195157200D01*
X179859343Y-195228629D01*
X179930771Y-195157200D01*
X179859343Y-195085771D01*
X179859343Y-195228629D01*
X181430772Y-196442914D02*
X181359343Y-196514343D01*
X181145057Y-196585771D01*
X181002200Y-196585771D01*
X180787915Y-196514343D01*
X180645057Y-196371486D01*
X180573629Y-196228629D01*
X180502200Y-195942914D01*
X180502200Y-195728629D01*
X180573629Y-195442914D01*
X180645057Y-195300057D01*
X180787915Y-195157200D01*
X181002200Y-195085771D01*
X181145057Y-195085771D01*
X181359343Y-195157200D01*
X181430772Y-195228629D01*
X182716486Y-196585771D02*
X182716486Y-195800057D01*
X182645057Y-195657200D01*
X182502200Y-195585771D01*
X182216486Y-195585771D01*
X182073629Y-195657200D01*
X182716486Y-196514343D02*
X182573629Y-196585771D01*
X182216486Y-196585771D01*
X182073629Y-196514343D01*
X182002200Y-196371486D01*
X182002200Y-196228629D01*
X182073629Y-196085771D01*
X182216486Y-196014343D01*
X182573629Y-196014343D01*
X182716486Y-195942914D01*
X184073629Y-196585771D02*
X184073629Y-195085771D01*
X184073629Y-196514343D02*
X183930772Y-196585771D01*
X183645058Y-196585771D01*
X183502200Y-196514343D01*
X183430772Y-196442914D01*
X183359343Y-196300057D01*
X183359343Y-195871486D01*
X183430772Y-195728629D01*
X183502200Y-195657200D01*
X183645058Y-195585771D01*
X183930772Y-195585771D01*
X184073629Y-195657200D01*
X185930772Y-195800057D02*
X186430772Y-195800057D01*
X186645058Y-196585771D02*
X185930772Y-196585771D01*
X185930772Y-195085771D01*
X186645058Y-195085771D01*
X187287915Y-196442914D02*
X187359343Y-196514343D01*
X187287915Y-196585771D01*
X187216486Y-196514343D01*
X187287915Y-196442914D01*
X187287915Y-196585771D01*
X188002201Y-196585771D02*
X188002201Y-195085771D01*
X188359344Y-195085771D01*
X188573629Y-195157200D01*
X188716487Y-195300057D01*
X188787915Y-195442914D01*
X188859344Y-195728629D01*
X188859344Y-195942914D01*
X188787915Y-196228629D01*
X188716487Y-196371486D01*
X188573629Y-196514343D01*
X188359344Y-196585771D01*
X188002201Y-196585771D01*
X189502201Y-196442914D02*
X189573629Y-196514343D01*
X189502201Y-196585771D01*
X189430772Y-196514343D01*
X189502201Y-196442914D01*
X189502201Y-196585771D01*
X190145058Y-196157200D02*
X190859344Y-196157200D01*
X190002201Y-196585771D02*
X190502201Y-195085771D01*
X191002201Y-196585771D01*
X191502201Y-196442914D02*
X191573629Y-196514343D01*
X191502201Y-196585771D01*
X191430772Y-196514343D01*
X191502201Y-196442914D01*
X191502201Y-196585771D01*
X194502201Y-196585771D02*
X194502201Y-195085771D01*
X194645058Y-196014343D02*
X195073629Y-196585771D01*
X195073629Y-195585771D02*
X194502201Y-196157200D01*
X195716487Y-196585771D02*
X195716487Y-195585771D01*
X195716487Y-195085771D02*
X195645058Y-195157200D01*
X195716487Y-195228629D01*
X195787915Y-195157200D01*
X195716487Y-195085771D01*
X195716487Y-195228629D01*
X197073630Y-196514343D02*
X196930773Y-196585771D01*
X196645059Y-196585771D01*
X196502201Y-196514343D01*
X196430773Y-196442914D01*
X196359344Y-196300057D01*
X196359344Y-195871486D01*
X196430773Y-195728629D01*
X196502201Y-195657200D01*
X196645059Y-195585771D01*
X196930773Y-195585771D01*
X197073630Y-195657200D01*
X198359344Y-196585771D02*
X198359344Y-195800057D01*
X198287915Y-195657200D01*
X198145058Y-195585771D01*
X197859344Y-195585771D01*
X197716487Y-195657200D01*
X198359344Y-196514343D02*
X198216487Y-196585771D01*
X197859344Y-196585771D01*
X197716487Y-196514343D01*
X197645058Y-196371486D01*
X197645058Y-196228629D01*
X197716487Y-196085771D01*
X197859344Y-196014343D01*
X198216487Y-196014343D01*
X198359344Y-195942914D01*
X199716487Y-196585771D02*
X199716487Y-195085771D01*
X199716487Y-196514343D02*
X199573630Y-196585771D01*
X199287916Y-196585771D01*
X199145058Y-196514343D01*
X199073630Y-196442914D01*
X199002201Y-196300057D01*
X199002201Y-195871486D01*
X199073630Y-195728629D01*
X199145058Y-195657200D01*
X199287916Y-195585771D01*
X199573630Y-195585771D01*
X199716487Y-195657200D01*
X202216487Y-195585771D02*
X202216487Y-196585771D01*
X201859344Y-195014343D02*
X201502201Y-196085771D01*
X202430773Y-196085771D01*
X203002201Y-196442914D02*
X203073629Y-196514343D01*
X203002201Y-196585771D01*
X202930772Y-196514343D01*
X203002201Y-196442914D01*
X203002201Y-196585771D01*
X204002201Y-195085771D02*
X204145058Y-195085771D01*
X204287915Y-195157200D01*
X204359344Y-195228629D01*
X204430773Y-195371486D01*
X204502201Y-195657200D01*
X204502201Y-196014343D01*
X204430773Y-196300057D01*
X204359344Y-196442914D01*
X204287915Y-196514343D01*
X204145058Y-196585771D01*
X204002201Y-196585771D01*
X203859344Y-196514343D01*
X203787915Y-196442914D01*
X203716487Y-196300057D01*
X203645058Y-196014343D01*
X203645058Y-195657200D01*
X203716487Y-195371486D01*
X203787915Y-195228629D01*
X203859344Y-195157200D01*
X204002201Y-195085771D01*
X205145058Y-196442914D02*
X205216486Y-196514343D01*
X205145058Y-196585771D01*
X205073629Y-196514343D01*
X205145058Y-196442914D01*
X205145058Y-196585771D01*
X205716487Y-195085771D02*
X206716487Y-195085771D01*
X206073630Y-196585771D01*
X207287915Y-196014343D02*
X208430772Y-196014343D01*
X209716486Y-196514343D02*
X209573629Y-196585771D01*
X209287915Y-196585771D01*
X209145058Y-196514343D01*
X209073629Y-196371486D01*
X209073629Y-195800057D01*
X209145058Y-195657200D01*
X209287915Y-195585771D01*
X209573629Y-195585771D01*
X209716486Y-195657200D01*
X209787915Y-195800057D01*
X209787915Y-195942914D01*
X209073629Y-196085771D01*
X210359343Y-195228629D02*
X210430772Y-195157200D01*
X210573629Y-195085771D01*
X210930772Y-195085771D01*
X211073629Y-195157200D01*
X211145058Y-195228629D01*
X211216486Y-195371486D01*
X211216486Y-195514343D01*
X211145058Y-195728629D01*
X210287915Y-196585771D01*
X211216486Y-196585771D01*
X211859343Y-196014343D02*
X213002200Y-196014343D01*
X214359343Y-195085771D02*
X214073629Y-195085771D01*
X213930772Y-195157200D01*
X213859343Y-195228629D01*
X213716486Y-195442914D01*
X213645057Y-195728629D01*
X213645057Y-196300057D01*
X213716486Y-196442914D01*
X213787914Y-196514343D01*
X213930772Y-196585771D01*
X214216486Y-196585771D01*
X214359343Y-196514343D01*
X214430772Y-196442914D01*
X214502200Y-196300057D01*
X214502200Y-195942914D01*
X214430772Y-195800057D01*
X214359343Y-195728629D01*
X214216486Y-195657200D01*
X213930772Y-195657200D01*
X213787914Y-195728629D01*
X213716486Y-195800057D01*
X213645057Y-195942914D01*
X215002200Y-195085771D02*
X215930771Y-195085771D01*
X215430771Y-195657200D01*
X215645057Y-195657200D01*
X215787914Y-195728629D01*
X215859343Y-195800057D01*
X215930771Y-195942914D01*
X215930771Y-196300057D01*
X215859343Y-196442914D01*
X215787914Y-196514343D01*
X215645057Y-196585771D01*
X215216485Y-196585771D01*
X215073628Y-196514343D01*
X215002200Y-196442914D01*
X216430771Y-195085771D02*
X217430771Y-195085771D01*
X216787914Y-196585771D01*
X218645056Y-195085771D02*
X218359342Y-195085771D01*
X218216485Y-195157200D01*
X218145056Y-195228629D01*
X218002199Y-195442914D01*
X217930770Y-195728629D01*
X217930770Y-196300057D01*
X218002199Y-196442914D01*
X218073627Y-196514343D01*
X218216485Y-196585771D01*
X218502199Y-196585771D01*
X218645056Y-196514343D01*
X218716485Y-196442914D01*
X218787913Y-196300057D01*
X218787913Y-195942914D01*
X218716485Y-195800057D01*
X218645056Y-195728629D01*
X218502199Y-195657200D01*
X218216485Y-195657200D01*
X218073627Y-195728629D01*
X218002199Y-195800057D01*
X217930770Y-195942914D01*
X220145056Y-195085771D02*
X219430770Y-195085771D01*
X219359341Y-195800057D01*
X219430770Y-195728629D01*
X219573627Y-195657200D01*
X219930770Y-195657200D01*
X220073627Y-195728629D01*
X220145056Y-195800057D01*
X220216484Y-195942914D01*
X220216484Y-196300057D01*
X220145056Y-196442914D01*
X220073627Y-196514343D01*
X219930770Y-196585771D01*
X219573627Y-196585771D01*
X219430770Y-196514343D01*
X219359341Y-196442914D01*
X221073627Y-195728629D02*
X220930769Y-195657200D01*
X220859341Y-195585771D01*
X220787912Y-195442914D01*
X220787912Y-195371486D01*
X220859341Y-195228629D01*
X220930769Y-195157200D01*
X221073627Y-195085771D01*
X221359341Y-195085771D01*
X221502198Y-195157200D01*
X221573627Y-195228629D01*
X221645055Y-195371486D01*
X221645055Y-195442914D01*
X221573627Y-195585771D01*
X221502198Y-195657200D01*
X221359341Y-195728629D01*
X221073627Y-195728629D01*
X220930769Y-195800057D01*
X220859341Y-195871486D01*
X220787912Y-196014343D01*
X220787912Y-196300057D01*
X220859341Y-196442914D01*
X220930769Y-196514343D01*
X221073627Y-196585771D01*
X221359341Y-196585771D01*
X221502198Y-196514343D01*
X221573627Y-196442914D01*
X221645055Y-196300057D01*
X221645055Y-196014343D01*
X221573627Y-195871486D01*
X221502198Y-195800057D01*
X221359341Y-195728629D01*
X219073627Y-194827200D02*
X221930769Y-194827200D01*
X222930769Y-195585771D02*
X222930769Y-196585771D01*
X222287912Y-195585771D02*
X222287912Y-196371486D01*
X222359340Y-196514343D01*
X222502198Y-196585771D01*
X222716483Y-196585771D01*
X222859340Y-196514343D01*
X222930769Y-196442914D01*
X223645055Y-196585771D02*
X223645055Y-195085771D01*
X223645055Y-195657200D02*
X223787912Y-195585771D01*
X224073626Y-195585771D01*
X224216483Y-195657200D01*
X224287912Y-195728629D01*
X224359341Y-195871486D01*
X224359341Y-196300057D01*
X224287912Y-196442914D01*
X224216483Y-196514343D01*
X224073626Y-196585771D01*
X223787912Y-196585771D01*
X223645055Y-196514343D01*
X225645055Y-195585771D02*
X225645055Y-196585771D01*
X225002198Y-195585771D02*
X225002198Y-196371486D01*
X225073626Y-196514343D01*
X225216484Y-196585771D01*
X225430769Y-196585771D01*
X225573626Y-196514343D01*
X225645055Y-196442914D01*
X226359341Y-195585771D02*
X226359341Y-196585771D01*
X226359341Y-195728629D02*
X226430769Y-195657200D01*
X226573627Y-195585771D01*
X226787912Y-195585771D01*
X226930769Y-195657200D01*
X227002198Y-195800057D01*
X227002198Y-196585771D01*
X227502198Y-195585771D02*
X228073627Y-195585771D01*
X227716484Y-195085771D02*
X227716484Y-196371486D01*
X227787912Y-196514343D01*
X227930770Y-196585771D01*
X228073627Y-196585771D01*
X229216484Y-195585771D02*
X229216484Y-196585771D01*
X228573627Y-195585771D02*
X228573627Y-196371486D01*
X228645055Y-196514343D01*
X228787913Y-196585771D01*
X229002198Y-196585771D01*
X229145055Y-196514343D01*
X229216484Y-196442914D01*
X230716484Y-196585771D02*
X229859341Y-196585771D01*
X230287913Y-196585771D02*
X230287913Y-195085771D01*
X230145056Y-195300057D01*
X230002198Y-195442914D01*
X229859341Y-195514343D01*
X232002198Y-195085771D02*
X231716484Y-195085771D01*
X231573627Y-195157200D01*
X231502198Y-195228629D01*
X231359341Y-195442914D01*
X231287912Y-195728629D01*
X231287912Y-196300057D01*
X231359341Y-196442914D01*
X231430769Y-196514343D01*
X231573627Y-196585771D01*
X231859341Y-196585771D01*
X232002198Y-196514343D01*
X232073627Y-196442914D01*
X232145055Y-196300057D01*
X232145055Y-195942914D01*
X232073627Y-195800057D01*
X232002198Y-195728629D01*
X231859341Y-195657200D01*
X231573627Y-195657200D01*
X231430769Y-195728629D01*
X231359341Y-195800057D01*
X231287912Y-195942914D01*
X232787912Y-196442914D02*
X232859340Y-196514343D01*
X232787912Y-196585771D01*
X232716483Y-196514343D01*
X232787912Y-196442914D01*
X232787912Y-196585771D01*
X233787912Y-195085771D02*
X233930769Y-195085771D01*
X234073626Y-195157200D01*
X234145055Y-195228629D01*
X234216484Y-195371486D01*
X234287912Y-195657200D01*
X234287912Y-196014343D01*
X234216484Y-196300057D01*
X234145055Y-196442914D01*
X234073626Y-196514343D01*
X233930769Y-196585771D01*
X233787912Y-196585771D01*
X233645055Y-196514343D01*
X233573626Y-196442914D01*
X233502198Y-196300057D01*
X233430769Y-196014343D01*
X233430769Y-195657200D01*
X233502198Y-195371486D01*
X233573626Y-195228629D01*
X233645055Y-195157200D01*
X233787912Y-195085771D01*
X235573626Y-195585771D02*
X235573626Y-196585771D01*
X235216483Y-195014343D02*
X234859340Y-196085771D01*
X235787912Y-196085771D01*
X236359340Y-196442914D02*
X236430768Y-196514343D01*
X236359340Y-196585771D01*
X236287911Y-196514343D01*
X236359340Y-196442914D01*
X236359340Y-196585771D01*
X237859340Y-196585771D02*
X237002197Y-196585771D01*
X237430769Y-196585771D02*
X237430769Y-195085771D01*
X237287912Y-195300057D01*
X237145054Y-195442914D01*
X237002197Y-195514343D01*
D10*
D11*
X177002200Y-191507200D02*
X285002200Y-191507200D01*
D10*
D12*
X264216486Y-193785771D02*
X263716486Y-193071486D01*
X263359343Y-193785771D02*
X263359343Y-192285771D01*
X263930771Y-192285771D01*
X264073629Y-192357200D01*
X264145057Y-192428629D01*
X264216486Y-192571486D01*
X264216486Y-192785771D01*
X264145057Y-192928629D01*
X264073629Y-193000057D01*
X263930771Y-193071486D01*
X263359343Y-193071486D01*
X265430771Y-193714343D02*
X265287914Y-193785771D01*
X265002200Y-193785771D01*
X264859343Y-193714343D01*
X264787914Y-193571486D01*
X264787914Y-193000057D01*
X264859343Y-192857200D01*
X265002200Y-192785771D01*
X265287914Y-192785771D01*
X265430771Y-192857200D01*
X265502200Y-193000057D01*
X265502200Y-193142914D01*
X264787914Y-193285771D01*
X266002200Y-192785771D02*
X266359343Y-193785771D01*
X266716485Y-192785771D01*
X267287914Y-193642914D02*
X267359342Y-193714343D01*
X267287914Y-193785771D01*
X267216485Y-193714343D01*
X267287914Y-193642914D01*
X267287914Y-193785771D01*
X267287914Y-192857200D02*
X267359342Y-192928629D01*
X267287914Y-193000057D01*
X267216485Y-192928629D01*
X267287914Y-192857200D01*
X267287914Y-193000057D01*
D10*
D11*
X178287914Y-193714343D02*
X178502200Y-193785771D01*
X178859343Y-193785771D01*
X179002200Y-193714343D01*
X179073629Y-193642914D01*
X179145057Y-193500057D01*
X179145057Y-193357200D01*
X179073629Y-193214343D01*
X179002200Y-193142914D01*
X178859343Y-193071486D01*
X178573629Y-193000057D01*
X178430771Y-192928629D01*
X178359343Y-192857200D01*
X178287914Y-192714343D01*
X178287914Y-192571486D01*
X178359343Y-192428629D01*
X178430771Y-192357200D01*
X178573629Y-192285771D01*
X178930771Y-192285771D01*
X179145057Y-192357200D01*
X179787914Y-193785771D02*
X179787914Y-192785771D01*
X179787914Y-192285771D02*
X179716485Y-192357200D01*
X179787914Y-192428629D01*
X179859342Y-192357200D01*
X179787914Y-192285771D01*
X179787914Y-192428629D01*
X180359343Y-192785771D02*
X181145057Y-192785771D01*
X180359343Y-193785771D01*
X181145057Y-193785771D01*
X182287914Y-193714343D02*
X182145057Y-193785771D01*
X181859343Y-193785771D01*
X181716486Y-193714343D01*
X181645057Y-193571486D01*
X181645057Y-193000057D01*
X181716486Y-192857200D01*
X181859343Y-192785771D01*
X182145057Y-192785771D01*
X182287914Y-192857200D01*
X182359343Y-193000057D01*
X182359343Y-193142914D01*
X181645057Y-193285771D01*
X183002200Y-193642914D02*
X183073628Y-193714343D01*
X183002200Y-193785771D01*
X182930771Y-193714343D01*
X183002200Y-193642914D01*
X183002200Y-193785771D01*
X183002200Y-192857200D02*
X183073628Y-192928629D01*
X183002200Y-193000057D01*
X182930771Y-192928629D01*
X183002200Y-192857200D01*
X183002200Y-193000057D01*
X184787914Y-193357200D02*
X185502200Y-193357200D01*
X184645057Y-193785771D02*
X185145057Y-192285771D01*
X185645057Y-193785771D01*
X186787914Y-192785771D02*
X186787914Y-193785771D01*
X186430771Y-192214343D02*
X186073628Y-193285771D01*
X187002200Y-193285771D01*
D10*
D11*
X263359343Y-196585771D02*
X263359343Y-195085771D01*
X264716486Y-196585771D02*
X264716486Y-195085771D01*
X264716486Y-196514343D02*
X264573629Y-196585771D01*
X264287915Y-196585771D01*
X264145057Y-196514343D01*
X264073629Y-196442914D01*
X264002200Y-196300057D01*
X264002200Y-195871486D01*
X264073629Y-195728629D01*
X264145057Y-195657200D01*
X264287915Y-195585771D01*
X264573629Y-195585771D01*
X264716486Y-195657200D01*
X265430772Y-196442914D02*
X265502200Y-196514343D01*
X265430772Y-196585771D01*
X265359343Y-196514343D01*
X265430772Y-196442914D01*
X265430772Y-196585771D01*
X265430772Y-195657200D02*
X265502200Y-195728629D01*
X265430772Y-195800057D01*
X265359343Y-195728629D01*
X265430772Y-195657200D01*
X265430772Y-195800057D01*
X268073629Y-196585771D02*
X267216486Y-196585771D01*
X267645058Y-196585771D02*
X267645058Y-195085771D01*
X267502201Y-195300057D01*
X267359343Y-195442914D01*
X267216486Y-195514343D01*
X269787914Y-195014343D02*
X268502200Y-196942914D01*
X271073629Y-196585771D02*
X270216486Y-196585771D01*
X270645058Y-196585771D02*
X270645058Y-195085771D01*
X270502201Y-195300057D01*
X270359343Y-195442914D01*
X270216486Y-195514343D01*
D10*
D11*
X177002200Y-187507200D02*
X285002200Y-187507200D01*
D10*
D13*
X178454581Y-188211962D02*
X179597438Y-188211962D01*
X178776010Y-190211962D02*
X179026010Y-188211962D01*
X180014105Y-190211962D02*
X180180771Y-188878629D01*
X180264105Y-188211962D02*
X180156962Y-188307200D01*
X180240295Y-188402438D01*
X180347439Y-188307200D01*
X180264105Y-188211962D01*
X180240295Y-188402438D01*
X180847438Y-188878629D02*
X181609343Y-188878629D01*
X181216486Y-188211962D02*
X181002200Y-189926248D01*
X181073630Y-190116724D01*
X181252201Y-190211962D01*
X181442677Y-190211962D01*
X182395058Y-190211962D02*
X182216487Y-190116724D01*
X182145057Y-189926248D01*
X182359343Y-188211962D01*
X183930772Y-190116724D02*
X183728391Y-190211962D01*
X183347439Y-190211962D01*
X183168867Y-190116724D01*
X183097438Y-189926248D01*
X183192676Y-189164343D01*
X183311724Y-188973867D01*
X183514105Y-188878629D01*
X183895057Y-188878629D01*
X184073629Y-188973867D01*
X184145057Y-189164343D01*
X184121248Y-189354819D01*
X183145057Y-189545295D01*
X184895057Y-190021486D02*
X184978392Y-190116724D01*
X184871248Y-190211962D01*
X184787915Y-190116724D01*
X184895057Y-190021486D01*
X184871248Y-190211962D01*
X185026010Y-188973867D02*
X185109344Y-189069105D01*
X185002200Y-189164343D01*
X184918867Y-189069105D01*
X185026010Y-188973867D01*
X185002200Y-189164343D01*
D10*
D11*
X178859343Y-185600057D02*
X178359343Y-185600057D01*
X178359343Y-186385771D02*
X178359343Y-184885771D01*
X179073629Y-184885771D01*
X179645057Y-186385771D02*
X179645057Y-185385771D01*
X179645057Y-184885771D02*
X179573628Y-184957200D01*
X179645057Y-185028629D01*
X179716485Y-184957200D01*
X179645057Y-184885771D01*
X179645057Y-185028629D01*
X180573629Y-186385771D02*
X180430771Y-186314343D01*
X180359343Y-186171486D01*
X180359343Y-184885771D01*
X181716485Y-186314343D02*
X181573628Y-186385771D01*
X181287914Y-186385771D01*
X181145057Y-186314343D01*
X181073628Y-186171486D01*
X181073628Y-185600057D01*
X181145057Y-185457200D01*
X181287914Y-185385771D01*
X181573628Y-185385771D01*
X181716485Y-185457200D01*
X181787914Y-185600057D01*
X181787914Y-185742914D01*
X181073628Y-185885771D01*
X182430771Y-186242914D02*
X182502199Y-186314343D01*
X182430771Y-186385771D01*
X182359342Y-186314343D01*
X182430771Y-186242914D01*
X182430771Y-186385771D01*
X182430771Y-185457200D02*
X182502199Y-185528629D01*
X182430771Y-185600057D01*
X182359342Y-185528629D01*
X182430771Y-185457200D01*
X182430771Y-185600057D01*
X184073628Y-185385771D02*
X184645057Y-185385771D01*
X184287914Y-186385771D02*
X184287914Y-185100057D01*
X184359342Y-184957200D01*
X184502200Y-184885771D01*
X184645057Y-184885771D01*
X185359343Y-186385771D02*
X185216485Y-186314343D01*
X185145057Y-186171486D01*
X185145057Y-184885771D01*
X185787914Y-185385771D02*
X186145057Y-186385771D01*
X186502199Y-185385771D02*
X186145057Y-186385771D01*
X186002199Y-186742914D01*
X185930771Y-186814343D01*
X185787914Y-186885771D01*
X187073628Y-185385771D02*
X187073628Y-186885771D01*
X187073628Y-185457200D02*
X187216485Y-185385771D01*
X187502199Y-185385771D01*
X187645056Y-185457200D01*
X187716485Y-185528629D01*
X187787914Y-185671486D01*
X187787914Y-186100057D01*
X187716485Y-186242914D01*
X187645056Y-186314343D01*
X187502199Y-186385771D01*
X187216485Y-186385771D01*
X187073628Y-186314343D01*
X188430771Y-186385771D02*
X188430771Y-185385771D01*
X188430771Y-184885771D02*
X188359342Y-184957200D01*
X188430771Y-185028629D01*
X188502199Y-184957200D01*
X188430771Y-184885771D01*
X188430771Y-185028629D01*
X189145057Y-186242914D02*
X189216485Y-186314343D01*
X189145057Y-186385771D01*
X189073628Y-186314343D01*
X189145057Y-186242914D01*
X189145057Y-186385771D01*
X189859343Y-186385771D02*
X189859343Y-184885771D01*
X190002200Y-185814343D02*
X190430771Y-186385771D01*
X190430771Y-185385771D02*
X189859343Y-185957200D01*
X191073629Y-186385771D02*
X191073629Y-185385771D01*
X191073629Y-184885771D02*
X191002200Y-184957200D01*
X191073629Y-185028629D01*
X191145057Y-184957200D01*
X191073629Y-184885771D01*
X191073629Y-185028629D01*
X192430772Y-186314343D02*
X192287915Y-186385771D01*
X192002201Y-186385771D01*
X191859343Y-186314343D01*
X191787915Y-186242914D01*
X191716486Y-186100057D01*
X191716486Y-185671486D01*
X191787915Y-185528629D01*
X191859343Y-185457200D01*
X192002201Y-185385771D01*
X192287915Y-185385771D01*
X192430772Y-185457200D01*
X193716486Y-186385771D02*
X193716486Y-185600057D01*
X193645057Y-185457200D01*
X193502200Y-185385771D01*
X193216486Y-185385771D01*
X193073629Y-185457200D01*
X193716486Y-186314343D02*
X193573629Y-186385771D01*
X193216486Y-186385771D01*
X193073629Y-186314343D01*
X193002200Y-186171486D01*
X193002200Y-186028629D01*
X193073629Y-185885771D01*
X193216486Y-185814343D01*
X193573629Y-185814343D01*
X193716486Y-185742914D01*
X195073629Y-186385771D02*
X195073629Y-184885771D01*
X195073629Y-186314343D02*
X194930772Y-186385771D01*
X194645058Y-186385771D01*
X194502200Y-186314343D01*
X194430772Y-186242914D01*
X194359343Y-186100057D01*
X194359343Y-185671486D01*
X194430772Y-185528629D01*
X194502200Y-185457200D01*
X194645058Y-185385771D01*
X194930772Y-185385771D01*
X195073629Y-185457200D01*
X195430772Y-186528629D02*
X196573629Y-186528629D01*
X196930772Y-185385771D02*
X196930772Y-186885771D01*
X196930772Y-185457200D02*
X197073629Y-185385771D01*
X197359343Y-185385771D01*
X197502200Y-185457200D01*
X197573629Y-185528629D01*
X197645058Y-185671486D01*
X197645058Y-186100057D01*
X197573629Y-186242914D01*
X197502200Y-186314343D01*
X197359343Y-186385771D01*
X197073629Y-186385771D01*
X196930772Y-186314343D01*
X198930772Y-186314343D02*
X198787915Y-186385771D01*
X198502201Y-186385771D01*
X198359343Y-186314343D01*
X198287915Y-186242914D01*
X198216486Y-186100057D01*
X198216486Y-185671486D01*
X198287915Y-185528629D01*
X198359343Y-185457200D01*
X198502201Y-185385771D01*
X198787915Y-185385771D01*
X198930772Y-185457200D01*
X199573629Y-186385771D02*
X199573629Y-184885771D01*
X199573629Y-185457200D02*
X199716486Y-185385771D01*
X200002200Y-185385771D01*
X200145057Y-185457200D01*
X200216486Y-185528629D01*
X200287915Y-185671486D01*
X200287915Y-186100057D01*
X200216486Y-186242914D01*
X200145057Y-186314343D01*
X200002200Y-186385771D01*
X199716486Y-186385771D01*
X199573629Y-186314343D01*
D10*
D11*
X177002200Y-181507200D02*
X285002200Y-181507200D01*
D10*
D11*
X178287914Y-183614343D02*
X178502200Y-183685771D01*
X178859343Y-183685771D01*
X179002200Y-183614343D01*
X179073629Y-183542914D01*
X179145057Y-183400057D01*
X179145057Y-183257200D01*
X179073629Y-183114343D01*
X179002200Y-183042914D01*
X178859343Y-182971486D01*
X178573629Y-182900057D01*
X178430771Y-182828629D01*
X178359343Y-182757200D01*
X178287914Y-182614343D01*
X178287914Y-182471486D01*
X178359343Y-182328629D01*
X178430771Y-182257200D01*
X178573629Y-182185771D01*
X178930771Y-182185771D01*
X179145057Y-182257200D01*
X179787914Y-183685771D02*
X179787914Y-182185771D01*
X180430771Y-183685771D02*
X180430771Y-182900057D01*
X180359342Y-182757200D01*
X180216485Y-182685771D01*
X180002200Y-182685771D01*
X179859342Y-182757200D01*
X179787914Y-182828629D01*
X181716485Y-183614343D02*
X181573628Y-183685771D01*
X181287914Y-183685771D01*
X181145057Y-183614343D01*
X181073628Y-183471486D01*
X181073628Y-182900057D01*
X181145057Y-182757200D01*
X181287914Y-182685771D01*
X181573628Y-182685771D01*
X181716485Y-182757200D01*
X181787914Y-182900057D01*
X181787914Y-183042914D01*
X181073628Y-183185771D01*
X183002199Y-183614343D02*
X182859342Y-183685771D01*
X182573628Y-183685771D01*
X182430771Y-183614343D01*
X182359342Y-183471486D01*
X182359342Y-182900057D01*
X182430771Y-182757200D01*
X182573628Y-182685771D01*
X182859342Y-182685771D01*
X183002199Y-182757200D01*
X183073628Y-182900057D01*
X183073628Y-183042914D01*
X182359342Y-183185771D01*
X183502199Y-182685771D02*
X184073628Y-182685771D01*
X183716485Y-182185771D02*
X183716485Y-183471486D01*
X183787913Y-183614343D01*
X183930771Y-183685771D01*
X184073628Y-183685771D01*
X184573628Y-183542914D02*
X184645056Y-183614343D01*
X184573628Y-183685771D01*
X184502199Y-183614343D01*
X184573628Y-183542914D01*
X184573628Y-183685771D01*
X184573628Y-182757200D02*
X184645056Y-182828629D01*
X184573628Y-182900057D01*
X184502199Y-182828629D01*
X184573628Y-182757200D01*
X184573628Y-182900057D01*
D10*
D11*
X197002200Y-191507200D02*
X197002200Y-194507200D01*
D10*
D11*
X261002200Y-191507200D02*
X261002200Y-198007200D01*
D10*
X121890000Y-87280000D02*
X117890000Y-87280000D01*
X117890000Y-87280000D02*
X117890000Y-100280000D01*
X117890000Y-100280000D02*
X121890000Y-100280000D01*
X121890000Y-100280000D02*
X121890000Y-87280000D01*
X106200000Y-120740000D02*
X114400000Y-120740000D01*
X114400000Y-120740000D02*
X114400000Y-113240000D01*
X114400000Y-113240000D02*
X106200000Y-113240000D01*
X106200000Y-113240000D02*
X106200000Y-120740000D01*
X114400000Y-118240000D02*
X115000000Y-118540000D01*
X115000000Y-118540000D02*
X115000000Y-117940000D01*
X115000000Y-117940000D02*
X114400000Y-118240000D01*
X106330000Y-111340000D02*
X114530000Y-111340000D01*
X114530000Y-111340000D02*
X114530000Y-103840000D01*
X114530000Y-103840000D02*
X106330000Y-103840000D01*
X106330000Y-103840000D02*
X106330000Y-111340000D01*
X114530000Y-108840000D02*
X115130000Y-109140000D01*
X115130000Y-109140000D02*
X115130000Y-108540000D01*
X115130000Y-108540000D02*
X114530000Y-108840000D01*
X106350000Y-102080000D02*
X114550000Y-102080000D01*
X114550000Y-102080000D02*
X114550000Y-92080000D01*
X114550000Y-92080000D02*
X106350000Y-92080000D01*
X106350000Y-92080000D02*
X106350000Y-102080000D01*
X114550000Y-99580000D02*
X115150000Y-99880000D01*
X115150000Y-99880000D02*
X115150000Y-99280000D01*
X115150000Y-99280000D02*
X114550000Y-99580000D01*
X106570000Y-66590000D02*
X114770000Y-66590000D01*
X114770000Y-66590000D02*
X114770000Y-59090000D01*
X114770000Y-59090000D02*
X106570000Y-59090000D01*
X106570000Y-59090000D02*
X106570000Y-66590000D01*
X114770000Y-64090000D02*
X115370000Y-64390000D01*
X115370000Y-64390000D02*
X115370000Y-63790000D01*
X115370000Y-63790000D02*
X114770000Y-64090000D01*
X106560000Y-75750000D02*
X114760000Y-75750000D01*
X114760000Y-75750000D02*
X114760000Y-68250000D01*
X114760000Y-68250000D02*
X106560000Y-68250000D01*
X106560000Y-68250000D02*
X106560000Y-75750000D01*
X114760000Y-73250000D02*
X115360000Y-73550000D01*
X115360000Y-73550000D02*
X115360000Y-72950000D01*
X115360000Y-72950000D02*
X114760000Y-73250000D01*
X179420000Y-42330000D02*
X171220000Y-42330000D01*
X171220000Y-42330000D02*
X171220000Y-52330000D01*
X171220000Y-52330000D02*
X179420000Y-52330000D01*
X179420000Y-52330000D02*
X179420000Y-42330000D01*
X171220000Y-44830000D02*
X170620000Y-44530000D01*
X170620000Y-44530000D02*
X170620000Y-45130000D01*
X170620000Y-45130000D02*
X171220000Y-44830000D01*
X179900000Y-74120000D02*
X171700000Y-74120000D01*
X171700000Y-74120000D02*
X171700000Y-84120000D01*
X171700000Y-84120000D02*
X179900000Y-84120000D01*
X179900000Y-84120000D02*
X179900000Y-74120000D01*
X171700000Y-76620000D02*
X171100000Y-76320000D01*
X171100000Y-76320000D02*
X171100000Y-76920000D01*
X171100000Y-76920000D02*
X171700000Y-76620000D01*
X179930000Y-85890000D02*
X171730000Y-85890000D01*
X171730000Y-85890000D02*
X171730000Y-98390000D01*
X171730000Y-98390000D02*
X179930000Y-98390000D01*
X179930000Y-98390000D02*
X179930000Y-85890000D01*
X171730000Y-88390000D02*
X171130000Y-88090000D01*
X171130000Y-88090000D02*
X171130000Y-88690000D01*
X171130000Y-88690000D02*
X171730000Y-88390000D01*
X106510000Y-90180000D02*
X114710000Y-90180000D01*
X114710000Y-90180000D02*
X114710000Y-77680000D01*
X114710000Y-77680000D02*
X106510000Y-77680000D01*
X106510000Y-77680000D02*
X106510000Y-90180000D01*
X114710000Y-87680000D02*
X115310000Y-87980000D01*
X115310000Y-87980000D02*
X115310000Y-87380000D01*
X115310000Y-87380000D02*
X114710000Y-87680000D01*
X128532000Y-99794000D02*
X132032000Y-99794000D01*
X132055625Y-99797625D02*
G75*
G03X130302000Y-95564000I-1753625J1753625D01*
G01*
X128548375Y-99797625D02*
G75*
G02X130302000Y-95564000I1753625J1753625D01*
G01*
X128532000Y-88364000D02*
X132032000Y-88364000D01*
X132055625Y-88367625D02*
G75*
G03X130302000Y-84134000I-1753625J1753625D01*
G01*
X128548375Y-88367625D02*
G75*
G02X130302000Y-84134000I1753625J1753625D01*
G01*
X128532000Y-94206000D02*
X132032000Y-94206000D01*
X132055625Y-94209625D02*
G75*
G03X130302000Y-89976000I-1753625J1753625D01*
G01*
X128548375Y-94209625D02*
G75*
G02X130302000Y-89976000I1753625J1753625D01*
G01*
X165834000Y-48252000D02*
X165834000Y-44752000D01*
X165837625Y-44728375D02*
G75*
G03X161604000Y-46482000I-1753625J-1753625D01*
G01*
X165837625Y-48235625D02*
G75*
G02X161604000Y-46482000I-1753625J1753625D01*
G01*
X137070000Y-133340000D02*
X137070000Y-128940000D01*
X137070000Y-128940000D02*
X127070000Y-128940000D01*
X127070000Y-128940000D02*
X127070000Y-133340000D01*
X127070000Y-133340000D02*
X137070000Y-133340000D01*
X137070000Y-132070000D02*
X127070000Y-132070000D01*
X133920000Y-133340000D02*
X133920000Y-132070000D01*
X130220000Y-133340000D02*
X130220000Y-132070000D01*
X136938000Y-84868000D02*
X136938000Y-88868000D01*
X136938000Y-88868000D02*
X149938000Y-88868000D01*
X149938000Y-88868000D02*
X149938000Y-84868000D01*
X149938000Y-84868000D02*
X136938000Y-84868000D01*
X136938000Y-95282000D02*
X136938000Y-99282000D01*
X136938000Y-99282000D02*
X149938000Y-99282000D01*
X149938000Y-99282000D02*
X149938000Y-95282000D01*
X149938000Y-95282000D02*
X136938000Y-95282000D01*
X136938000Y-90202000D02*
X136938000Y-94202000D01*
X136938000Y-94202000D02*
X149938000Y-94202000D01*
X149938000Y-94202000D02*
X149938000Y-90202000D01*
X149938000Y-90202000D02*
X136938000Y-90202000D01*
X157580000Y-42450000D02*
X153580000Y-42450000D01*
X153580000Y-42450000D02*
X153580000Y-55450000D01*
X153580000Y-55450000D02*
X157580000Y-55450000D01*
X157580000Y-55450000D02*
X157580000Y-42450000D01*
X132112000Y-122714000D02*
X132112000Y-126714000D01*
X132112000Y-126714000D02*
X145112000Y-126714000D01*
X145112000Y-126714000D02*
X145112000Y-122714000D01*
X145112000Y-122714000D02*
X132112000Y-122714000D01*
X126524000Y-112554000D02*
X126524000Y-116554000D01*
X126524000Y-116554000D02*
X139524000Y-116554000D01*
X139524000Y-116554000D02*
X139524000Y-112554000D01*
X139524000Y-112554000D02*
X126524000Y-112554000D01*
X126524000Y-107220000D02*
X126524000Y-111220000D01*
X126524000Y-111220000D02*
X139524000Y-111220000D01*
X139524000Y-111220000D02*
X139524000Y-107220000D01*
X139524000Y-107220000D02*
X126524000Y-107220000D01*
D11*
X143834381Y-60299047D02*
X143310571Y-60299047D01*
X143215333Y-60346666D01*
X143167714Y-60441904D01*
X143167714Y-60632381D01*
X143215333Y-60727619D01*
X143786762Y-60299047D02*
X143834381Y-60394285D01*
X143834381Y-60632381D01*
X143786762Y-60727619D01*
X143691524Y-60775238D01*
X143596286Y-60775238D01*
X143501048Y-60727619D01*
X143453429Y-60632381D01*
X143453429Y-60394285D01*
X143405810Y-60299047D01*
X143834381Y-59822857D02*
X143167714Y-59822857D01*
X143358190Y-59822857D02*
X143262952Y-59775238D01*
X143215333Y-59727619D01*
X143167714Y-59632381D01*
X143167714Y-59537142D01*
X143834381Y-58775237D02*
X142834381Y-58775237D01*
X143786762Y-58775237D02*
X143834381Y-58870475D01*
X143834381Y-59060952D01*
X143786762Y-59156190D01*
X143739143Y-59203809D01*
X143643905Y-59251428D01*
X143358190Y-59251428D01*
X143262952Y-59203809D01*
X143215333Y-59156190D01*
X143167714Y-59060952D01*
X143167714Y-58870475D01*
X143215333Y-58775237D01*
X143167714Y-57870475D02*
X143834381Y-57870475D01*
X143167714Y-58299047D02*
X143691524Y-58299047D01*
X143786762Y-58251428D01*
X143834381Y-58156190D01*
X143834381Y-58013332D01*
X143786762Y-57918094D01*
X143739143Y-57870475D01*
X143834381Y-57394285D02*
X143167714Y-57394285D01*
X142834381Y-57394285D02*
X142882000Y-57441904D01*
X142929619Y-57394285D01*
X142882000Y-57346666D01*
X142834381Y-57394285D01*
X142929619Y-57394285D01*
X143167714Y-56918095D02*
X143834381Y-56918095D01*
X143262952Y-56918095D02*
X143215333Y-56870476D01*
X143167714Y-56775238D01*
X143167714Y-56632380D01*
X143215333Y-56537142D01*
X143310571Y-56489523D01*
X143834381Y-56489523D01*
X143834381Y-55870476D02*
X143786762Y-55965714D01*
X143739143Y-56013333D01*
X143643905Y-56060952D01*
X143358190Y-56060952D01*
X143262952Y-56013333D01*
X143215333Y-55965714D01*
X143167714Y-55870476D01*
X143167714Y-55727618D01*
X143215333Y-55632380D01*
X143262952Y-55584761D01*
X143358190Y-55537142D01*
X143643905Y-55537142D01*
X143739143Y-55584761D01*
X143786762Y-55632380D01*
X143834381Y-55727618D01*
X143834381Y-55870476D01*
X143929619Y-55346666D02*
X143929619Y-54584761D01*
X143834381Y-54346666D02*
X143167714Y-54346666D01*
X143262952Y-54346666D02*
X143215333Y-54299047D01*
X143167714Y-54203809D01*
X143167714Y-54060951D01*
X143215333Y-53965713D01*
X143310571Y-53918094D01*
X143834381Y-53918094D01*
X143310571Y-53918094D02*
X143215333Y-53870475D01*
X143167714Y-53775237D01*
X143167714Y-53632380D01*
X143215333Y-53537142D01*
X143310571Y-53489523D01*
X143834381Y-53489523D01*
X143834381Y-53013333D02*
X143167714Y-53013333D01*
X142834381Y-53013333D02*
X142882000Y-53060952D01*
X142929619Y-53013333D01*
X142882000Y-52965714D01*
X142834381Y-53013333D01*
X142929619Y-53013333D01*
X143167714Y-52537143D02*
X143834381Y-52537143D01*
X143262952Y-52537143D02*
X143215333Y-52489524D01*
X143167714Y-52394286D01*
X143167714Y-52251428D01*
X143215333Y-52156190D01*
X143310571Y-52108571D01*
X143834381Y-52108571D01*
X143834381Y-51632381D02*
X143167714Y-51632381D01*
X142834381Y-51632381D02*
X142882000Y-51680000D01*
X142929619Y-51632381D01*
X142882000Y-51584762D01*
X142834381Y-51632381D01*
X142929619Y-51632381D01*
X126162381Y-67537143D02*
X126162381Y-66918095D01*
X126543333Y-67251429D01*
X126543333Y-67108571D01*
X126590952Y-67013333D01*
X126638571Y-66965714D01*
X126733810Y-66918095D01*
X126971905Y-66918095D01*
X127067143Y-66965714D01*
X127114762Y-67013333D01*
X127162381Y-67108571D01*
X127162381Y-67394286D01*
X127114762Y-67489524D01*
X127067143Y-67537143D01*
X126162381Y-66584762D02*
X126162381Y-65965714D01*
X126543333Y-66299048D01*
X126543333Y-66156190D01*
X126590952Y-66060952D01*
X126638571Y-66013333D01*
X126733810Y-65965714D01*
X126971905Y-65965714D01*
X127067143Y-66013333D01*
X127114762Y-66060952D01*
X127162381Y-66156190D01*
X127162381Y-66441905D01*
X127114762Y-66537143D01*
X127067143Y-66584762D01*
X126495714Y-65537143D02*
X127495714Y-65537143D01*
X127019524Y-65060952D02*
X127114762Y-65013333D01*
X127162381Y-64918095D01*
X127019524Y-65537143D02*
X127114762Y-65489524D01*
X127162381Y-65394286D01*
X127162381Y-65203809D01*
X127114762Y-65108571D01*
X127019524Y-65060952D01*
X126495714Y-65060952D01*
X127162381Y-64489524D02*
X126162381Y-64489524D01*
X126638571Y-64489524D02*
X126638571Y-63918095D01*
X127162381Y-63918095D02*
X126162381Y-63918095D01*
X111352381Y-117728095D02*
X110352381Y-117728095D01*
X110352381Y-117347142D01*
X110400000Y-117251904D01*
X110447619Y-117204285D01*
X110542857Y-117156666D01*
X110685714Y-117156666D01*
X110780952Y-117204285D01*
X110828571Y-117251904D01*
X110876190Y-117347142D01*
X110876190Y-117728095D01*
X111352381Y-116204285D02*
X111352381Y-116775714D01*
X111352381Y-116490000D02*
X110352381Y-116490000D01*
X110495238Y-116585238D01*
X110590476Y-116680476D01*
X110638095Y-116775714D01*
X111482381Y-108328095D02*
X110482381Y-108328095D01*
X110482381Y-107947142D01*
X110530000Y-107851904D01*
X110577619Y-107804285D01*
X110672857Y-107756666D01*
X110815714Y-107756666D01*
X110910952Y-107804285D01*
X110958571Y-107851904D01*
X111006190Y-107947142D01*
X111006190Y-108328095D01*
X110482381Y-107423333D02*
X110482381Y-106804285D01*
X110863333Y-107137619D01*
X110863333Y-106994761D01*
X110910952Y-106899523D01*
X110958571Y-106851904D01*
X111053810Y-106804285D01*
X111291905Y-106804285D01*
X111387143Y-106851904D01*
X111434762Y-106899523D01*
X111482381Y-106994761D01*
X111482381Y-107280476D01*
X111434762Y-107375714D01*
X111387143Y-107423333D01*
X111502381Y-97818095D02*
X110502381Y-97818095D01*
X110502381Y-97437142D01*
X110550000Y-97341904D01*
X110597619Y-97294285D01*
X110692857Y-97246666D01*
X110835714Y-97246666D01*
X110930952Y-97294285D01*
X110978571Y-97341904D01*
X111026190Y-97437142D01*
X111026190Y-97818095D01*
X110835714Y-96389523D02*
X111502381Y-96389523D01*
X110454762Y-96627619D02*
X111169048Y-96865714D01*
X111169048Y-96246666D01*
X111722381Y-63578095D02*
X110722381Y-63578095D01*
X110722381Y-63197142D01*
X110770000Y-63101904D01*
X110817619Y-63054285D01*
X110912857Y-63006666D01*
X111055714Y-63006666D01*
X111150952Y-63054285D01*
X111198571Y-63101904D01*
X111246190Y-63197142D01*
X111246190Y-63578095D01*
X110722381Y-62101904D02*
X110722381Y-62578095D01*
X111198571Y-62625714D01*
X111150952Y-62578095D01*
X111103333Y-62482857D01*
X111103333Y-62244761D01*
X111150952Y-62149523D01*
X111198571Y-62101904D01*
X111293810Y-62054285D01*
X111531905Y-62054285D01*
X111627143Y-62101904D01*
X111674762Y-62149523D01*
X111722381Y-62244761D01*
X111722381Y-62482857D01*
X111674762Y-62578095D01*
X111627143Y-62625714D01*
X111712381Y-72738095D02*
X110712381Y-72738095D01*
X110712381Y-72357142D01*
X110760000Y-72261904D01*
X110807619Y-72214285D01*
X110902857Y-72166666D01*
X111045714Y-72166666D01*
X111140952Y-72214285D01*
X111188571Y-72261904D01*
X111236190Y-72357142D01*
X111236190Y-72738095D01*
X110712381Y-71309523D02*
X110712381Y-71500000D01*
X110760000Y-71595238D01*
X110807619Y-71642857D01*
X110950476Y-71738095D01*
X111140952Y-71785714D01*
X111521905Y-71785714D01*
X111617143Y-71738095D01*
X111664762Y-71690476D01*
X111712381Y-71595238D01*
X111712381Y-71404761D01*
X111664762Y-71309523D01*
X111617143Y-71261904D01*
X111521905Y-71214285D01*
X111283810Y-71214285D01*
X111188571Y-71261904D01*
X111140952Y-71309523D01*
X111093333Y-71404761D01*
X111093333Y-71595238D01*
X111140952Y-71690476D01*
X111188571Y-71738095D01*
X111283810Y-71785714D01*
X175172381Y-48068095D02*
X174172381Y-48068095D01*
X174172381Y-47687142D01*
X174220000Y-47591904D01*
X174267619Y-47544285D01*
X174362857Y-47496666D01*
X174505714Y-47496666D01*
X174600952Y-47544285D01*
X174648571Y-47591904D01*
X174696190Y-47687142D01*
X174696190Y-48068095D01*
X174172381Y-47163333D02*
X174172381Y-46496666D01*
X175172381Y-46925238D01*
X175652381Y-79858095D02*
X174652381Y-79858095D01*
X174652381Y-79477142D01*
X174700000Y-79381904D01*
X174747619Y-79334285D01*
X174842857Y-79286666D01*
X174985714Y-79286666D01*
X175080952Y-79334285D01*
X175128571Y-79381904D01*
X175176190Y-79477142D01*
X175176190Y-79858095D01*
X175080952Y-78715238D02*
X175033333Y-78810476D01*
X174985714Y-78858095D01*
X174890476Y-78905714D01*
X174842857Y-78905714D01*
X174747619Y-78858095D01*
X174700000Y-78810476D01*
X174652381Y-78715238D01*
X174652381Y-78524761D01*
X174700000Y-78429523D01*
X174747619Y-78381904D01*
X174842857Y-78334285D01*
X174890476Y-78334285D01*
X174985714Y-78381904D01*
X175033333Y-78429523D01*
X175080952Y-78524761D01*
X175080952Y-78715238D01*
X175128571Y-78810476D01*
X175176190Y-78858095D01*
X175271429Y-78905714D01*
X175461905Y-78905714D01*
X175557143Y-78858095D01*
X175604762Y-78810476D01*
X175652381Y-78715238D01*
X175652381Y-78524761D01*
X175604762Y-78429523D01*
X175557143Y-78381904D01*
X175461905Y-78334285D01*
X175271429Y-78334285D01*
X175176190Y-78381904D01*
X175128571Y-78429523D01*
X175080952Y-78524761D01*
X175682381Y-92878095D02*
X174682381Y-92878095D01*
X174682381Y-92497142D01*
X174730000Y-92401904D01*
X174777619Y-92354285D01*
X174872857Y-92306666D01*
X175015714Y-92306666D01*
X175110952Y-92354285D01*
X175158571Y-92401904D01*
X175206190Y-92497142D01*
X175206190Y-92878095D01*
X175682381Y-91830476D02*
X175682381Y-91640000D01*
X175634762Y-91544761D01*
X175587143Y-91497142D01*
X175444286Y-91401904D01*
X175253810Y-91354285D01*
X174872857Y-91354285D01*
X174777619Y-91401904D01*
X174730000Y-91449523D01*
X174682381Y-91544761D01*
X174682381Y-91735238D01*
X174730000Y-91830476D01*
X174777619Y-91878095D01*
X174872857Y-91925714D01*
X175110952Y-91925714D01*
X175206190Y-91878095D01*
X175253810Y-91830476D01*
X175301429Y-91735238D01*
X175301429Y-91544761D01*
X175253810Y-91449523D01*
X175206190Y-91401904D01*
X175110952Y-91354285D01*
X111662381Y-85144286D02*
X110662381Y-85144286D01*
X110662381Y-84763333D01*
X110710000Y-84668095D01*
X110757619Y-84620476D01*
X110852857Y-84572857D01*
X110995714Y-84572857D01*
X111090952Y-84620476D01*
X111138571Y-84668095D01*
X111186190Y-84763333D01*
X111186190Y-85144286D01*
X111662381Y-83620476D02*
X111662381Y-84191905D01*
X111662381Y-83906191D02*
X110662381Y-83906191D01*
X110805238Y-84001429D01*
X110900476Y-84096667D01*
X110948095Y-84191905D01*
X110662381Y-83001429D02*
X110662381Y-82906190D01*
X110710000Y-82810952D01*
X110757619Y-82763333D01*
X110852857Y-82715714D01*
X111043333Y-82668095D01*
X111281429Y-82668095D01*
X111471905Y-82715714D01*
X111567143Y-82763333D01*
X111614762Y-82810952D01*
X111662381Y-82906190D01*
X111662381Y-83001429D01*
X111614762Y-83096667D01*
X111567143Y-83144286D01*
X111471905Y-83191905D01*
X111281429Y-83239524D01*
X111043333Y-83239524D01*
X110852857Y-83191905D01*
X110757619Y-83144286D01*
X110710000Y-83096667D01*
X110662381Y-83001429D01*
X130206762Y-95031619D02*
X130111524Y-94984000D01*
X130016286Y-94888762D01*
X129873429Y-94745905D01*
X129778190Y-94698286D01*
X129682952Y-94698286D01*
X129730571Y-94936381D02*
X129635333Y-94888762D01*
X129540095Y-94793524D01*
X129492476Y-94603048D01*
X129492476Y-94269714D01*
X129540095Y-94079238D01*
X129635333Y-93984000D01*
X129730571Y-93936381D01*
X129921048Y-93936381D01*
X130016286Y-93984000D01*
X130111524Y-94079238D01*
X130159143Y-94269714D01*
X130159143Y-94603048D01*
X130111524Y-94793524D01*
X130016286Y-94888762D01*
X129921048Y-94936381D01*
X129730571Y-94936381D01*
X131111524Y-94936381D02*
X130540095Y-94936381D01*
X130825809Y-94936381D02*
X130825809Y-93936381D01*
X130730571Y-94079238D01*
X130635333Y-94174476D01*
X130540095Y-94222095D01*
X130206762Y-83601619D02*
X130111524Y-83554000D01*
X130016286Y-83458762D01*
X129873429Y-83315905D01*
X129778190Y-83268286D01*
X129682952Y-83268286D01*
X129730571Y-83506381D02*
X129635333Y-83458762D01*
X129540095Y-83363524D01*
X129492476Y-83173048D01*
X129492476Y-82839714D01*
X129540095Y-82649238D01*
X129635333Y-82554000D01*
X129730571Y-82506381D01*
X129921048Y-82506381D01*
X130016286Y-82554000D01*
X130111524Y-82649238D01*
X130159143Y-82839714D01*
X130159143Y-83173048D01*
X130111524Y-83363524D01*
X130016286Y-83458762D01*
X129921048Y-83506381D01*
X129730571Y-83506381D01*
X130540095Y-82601619D02*
X130587714Y-82554000D01*
X130682952Y-82506381D01*
X130921048Y-82506381D01*
X131016286Y-82554000D01*
X131063905Y-82601619D01*
X131111524Y-82696857D01*
X131111524Y-82792095D01*
X131063905Y-82934952D01*
X130492476Y-83506381D01*
X131111524Y-83506381D01*
X130206762Y-89443619D02*
X130111524Y-89396000D01*
X130016286Y-89300762D01*
X129873429Y-89157905D01*
X129778190Y-89110286D01*
X129682952Y-89110286D01*
X129730571Y-89348381D02*
X129635333Y-89300762D01*
X129540095Y-89205524D01*
X129492476Y-89015048D01*
X129492476Y-88681714D01*
X129540095Y-88491238D01*
X129635333Y-88396000D01*
X129730571Y-88348381D01*
X129921048Y-88348381D01*
X130016286Y-88396000D01*
X130111524Y-88491238D01*
X130159143Y-88681714D01*
X130159143Y-89015048D01*
X130111524Y-89205524D01*
X130016286Y-89300762D01*
X129921048Y-89348381D01*
X129730571Y-89348381D01*
X130492476Y-88348381D02*
X131111524Y-88348381D01*
X130778190Y-88729333D01*
X130921048Y-88729333D01*
X131016286Y-88776952D01*
X131063905Y-88824571D01*
X131111524Y-88919810D01*
X131111524Y-89157905D01*
X131063905Y-89253143D01*
X131016286Y-89300762D01*
X130921048Y-89348381D01*
X130635333Y-89348381D01*
X130540095Y-89300762D01*
X130492476Y-89253143D01*
X161071619Y-46577238D02*
X161024000Y-46672476D01*
X160928762Y-46767714D01*
X160785905Y-46910571D01*
X160738286Y-47005810D01*
X160738286Y-47101048D01*
X160976381Y-47053429D02*
X160928762Y-47148667D01*
X160833524Y-47243905D01*
X160643048Y-47291524D01*
X160309714Y-47291524D01*
X160119238Y-47243905D01*
X160024000Y-47148667D01*
X159976381Y-47053429D01*
X159976381Y-46862952D01*
X160024000Y-46767714D01*
X160119238Y-46672476D01*
X160309714Y-46624857D01*
X160643048Y-46624857D01*
X160833524Y-46672476D01*
X160928762Y-46767714D01*
X160976381Y-46862952D01*
X160976381Y-47053429D01*
X160309714Y-45767714D02*
X160976381Y-45767714D01*
X159928762Y-46005810D02*
X160643048Y-46243905D01*
X160643048Y-45624857D01*
X131903334Y-134912381D02*
X131570000Y-134436190D01*
X131331905Y-134912381D02*
X131331905Y-133912381D01*
X131712858Y-133912381D01*
X131808096Y-133960000D01*
X131855715Y-134007619D01*
X131903334Y-134102857D01*
X131903334Y-134245714D01*
X131855715Y-134340952D01*
X131808096Y-134388571D01*
X131712858Y-134436190D01*
X131331905Y-134436190D01*
X132855715Y-134912381D02*
X132284286Y-134912381D01*
X132570000Y-134912381D02*
X132570000Y-133912381D01*
X132474762Y-134055238D01*
X132379524Y-134150476D01*
X132284286Y-134198095D01*
X152067619Y-50188095D02*
X152020000Y-50140476D01*
X151972381Y-50045238D01*
X151972381Y-49807142D01*
X152020000Y-49711904D01*
X152067619Y-49664285D01*
X152162857Y-49616666D01*
X152258095Y-49616666D01*
X152400952Y-49664285D01*
X152972381Y-50235714D01*
X152972381Y-49616666D01*
X151972381Y-49283333D02*
X151972381Y-48616666D01*
X152972381Y-49045238D01*
X151972381Y-48045238D02*
X151972381Y-47949999D01*
X152020000Y-47854761D01*
X152067619Y-47807142D01*
X152162857Y-47759523D01*
X152353333Y-47711904D01*
X152591429Y-47711904D01*
X152781905Y-47759523D01*
X152877143Y-47807142D01*
X152924762Y-47854761D01*
X152972381Y-47949999D01*
X152972381Y-48045238D01*
X152924762Y-48140476D01*
X152877143Y-48188095D01*
X152781905Y-48235714D01*
X152591429Y-48283333D01*
X152353333Y-48283333D01*
X152162857Y-48235714D01*
X152067619Y-48188095D01*
X152020000Y-48140476D01*
X151972381Y-48045238D01*
M02*
