%TF.GenerationSoftware,KiCad,Pcbnew,5.1.10-88a1d61d58~88~ubuntu20.04.1*%
%TF.CreationDate,2021-05-12T17:41:59+01:00*%
%TF.ProjectId,flypi,666c7970-692e-46b6-9963-61645f706362,rev?*%
%TF.SameCoordinates,Original*%
%TF.FileFunction,Profile,NP*%
%FSLAX46Y46*%
G04 Gerber Fmt 4.6, Leading zero omitted, Abs format (unit mm)*
G04 Created by KiCad (PCBNEW 5.1.10-88a1d61d58~88~ubuntu20.04.1) date 2021-05-12 17:41:59*
%MOMM*%
%LPD*%
G01*
G04 APERTURE LIST*
%TA.AperFunction,Profile*%
%ADD10C,0.100000*%
%TD*%
G04 APERTURE END LIST*
D10*
X106666666Y-134000000D02*
G75*
G03*
X106666666Y-134000000I-1666666J0D01*
G01*
X102500000Y-134000000D02*
X107500000Y-134000000D01*
X105000000Y-131500000D02*
X105000000Y-136500000D01*
X182766666Y-134000000D02*
G75*
G03*
X182766666Y-134000000I-1666666J0D01*
G01*
X178600000Y-134000000D02*
X183600000Y-134000000D01*
X181100000Y-131500000D02*
X181100000Y-136500000D01*
X105000000Y-49000000D02*
X105000000Y-134000000D01*
X181100000Y-49000000D02*
X105000000Y-49000000D01*
X181100000Y-134000000D02*
X181100000Y-49000000D01*
X105000000Y-134000000D02*
X181100000Y-134000000D01*
X106666666Y-49000000D02*
G75*
G03*
X106666666Y-49000000I-1666666J0D01*
G01*
X102500000Y-49000000D02*
X107500000Y-49000000D01*
X105000000Y-46500000D02*
X105000000Y-51500000D01*
X182766666Y-49000000D02*
G75*
G03*
X182766666Y-49000000I-1666666J0D01*
G01*
X178600000Y-49000000D02*
X183600000Y-49000000D01*
X181100000Y-46500000D02*
X181100000Y-51500000D01*
X106000000Y-134000000D02*
X105000000Y-134000000D01*
X105150000Y-49000000D02*
X108400000Y-49000000D01*
X105150000Y-49000000D02*
X105000000Y-49000000D01*
X181050000Y-134000000D02*
X181100000Y-134000000D01*
X181000000Y-134000000D02*
X181100000Y-134000000D01*
M02*
