G04 #@! TF.FileFunction,Copper,L1,Top,Signal*
%FSLAX46Y46*%
G04 Gerber Fmt 4.6, Leading zero omitted, Abs format (unit mm)*
G04 Created by KiCad (PCBNEW 4.0.2-stable) date 08/03/2018 17:23:01*
%MOMM*%
G01*
G04 APERTURE LIST*
%ADD10C,0.100000*%
%ADD11C,0.150000*%
%ADD12C,0.300000*%
%ADD13C,0.400000*%
%ADD14C,1.520000*%
%ADD15R,1.520000X1.520000*%
%ADD16O,2.300000X1.600000*%
%ADD17R,1.300000X1.300000*%
%ADD18C,1.300000*%
%ADD19R,3.500120X3.500120*%
%ADD20C,2.540000*%
%ADD21R,2.540000X2.540000*%
%ADD22C,1.800860*%
%ADD23C,1.800000*%
%ADD24O,1.524000X1.824000*%
%ADD25C,1.620000*%
%ADD26C,1.850000*%
%ADD27R,1.800000X1.800000*%
%ADD28O,1.800000X1.800000*%
%ADD29R,1.700000X1.700000*%
%ADD30O,1.700000X1.700000*%
%ADD31C,1.600000*%
%ADD32O,1.600000X1.600000*%
%ADD33R,1.750000X1.750000*%
%ADD34C,1.750000*%
%ADD35C,0.600000*%
%ADD36C,0.800000*%
%ADD37C,1.000000*%
%ADD38C,0.500000*%
%ADD39C,0.750000*%
G04 APERTURE END LIST*
D10*
D11*
X177002200Y-166007200D02*
X177002200Y-198007200D01*
X285002200Y-198007200D01*
X285002200Y-166007200D01*
X177002200Y-166007200D01*
D10*
D11*
X10000000Y-10000000D02*
X10000000Y-200007200D01*
X287002200Y-200007200D01*
X287002200Y-10000000D01*
X10000000Y-10000000D01*
D10*
D11*
X12000000Y-12000000D02*
X12000000Y-198007200D01*
X285002200Y-198007200D01*
X285002200Y-12000000D01*
X12000000Y-12000000D01*
D10*
D11*
X60000000Y-12000000D02*
X60000000Y-10000000D01*
D10*
D11*
X110000000Y-12000000D02*
X110000000Y-10000000D01*
D10*
D11*
X160000000Y-12000000D02*
X160000000Y-10000000D01*
D10*
D11*
X210000000Y-12000000D02*
X210000000Y-10000000D01*
D10*
D11*
X260000000Y-12000000D02*
X260000000Y-10000000D01*
D10*
D11*
X35990476Y-11588095D02*
X35247619Y-11588095D01*
X35619048Y-11588095D02*
X35619048Y-10288095D01*
X35495238Y-10473810D01*
X35371429Y-10597619D01*
X35247619Y-10659524D01*
D10*
D11*
X85247619Y-10411905D02*
X85309524Y-10350000D01*
X85433333Y-10288095D01*
X85742857Y-10288095D01*
X85866667Y-10350000D01*
X85928571Y-10411905D01*
X85990476Y-10535714D01*
X85990476Y-10659524D01*
X85928571Y-10845238D01*
X85185714Y-11588095D01*
X85990476Y-11588095D01*
D10*
D11*
X135185714Y-10288095D02*
X135990476Y-10288095D01*
X135557143Y-10783333D01*
X135742857Y-10783333D01*
X135866667Y-10845238D01*
X135928571Y-10907143D01*
X135990476Y-11030952D01*
X135990476Y-11340476D01*
X135928571Y-11464286D01*
X135866667Y-11526190D01*
X135742857Y-11588095D01*
X135371429Y-11588095D01*
X135247619Y-11526190D01*
X135185714Y-11464286D01*
D10*
D11*
X185866667Y-10721429D02*
X185866667Y-11588095D01*
X185557143Y-10226190D02*
X185247619Y-11154762D01*
X186052381Y-11154762D01*
D10*
D11*
X235928571Y-10288095D02*
X235309524Y-10288095D01*
X235247619Y-10907143D01*
X235309524Y-10845238D01*
X235433333Y-10783333D01*
X235742857Y-10783333D01*
X235866667Y-10845238D01*
X235928571Y-10907143D01*
X235990476Y-11030952D01*
X235990476Y-11340476D01*
X235928571Y-11464286D01*
X235866667Y-11526190D01*
X235742857Y-11588095D01*
X235433333Y-11588095D01*
X235309524Y-11526190D01*
X235247619Y-11464286D01*
D10*
D11*
X285866667Y-10288095D02*
X285619048Y-10288095D01*
X285495238Y-10350000D01*
X285433333Y-10411905D01*
X285309524Y-10597619D01*
X285247619Y-10845238D01*
X285247619Y-11340476D01*
X285309524Y-11464286D01*
X285371429Y-11526190D01*
X285495238Y-11588095D01*
X285742857Y-11588095D01*
X285866667Y-11526190D01*
X285928571Y-11464286D01*
X285990476Y-11340476D01*
X285990476Y-11030952D01*
X285928571Y-10907143D01*
X285866667Y-10845238D01*
X285742857Y-10783333D01*
X285495238Y-10783333D01*
X285371429Y-10845238D01*
X285309524Y-10907143D01*
X285247619Y-11030952D01*
D10*
D11*
X60000000Y-198007200D02*
X60000000Y-200007200D01*
D10*
D11*
X110000000Y-198007200D02*
X110000000Y-200007200D01*
D10*
D11*
X160000000Y-198007200D02*
X160000000Y-200007200D01*
D10*
D11*
X210000000Y-198007200D02*
X210000000Y-200007200D01*
D10*
D11*
X260000000Y-198007200D02*
X260000000Y-200007200D01*
D10*
D11*
X35990476Y-199595295D02*
X35247619Y-199595295D01*
X35619048Y-199595295D02*
X35619048Y-198295295D01*
X35495238Y-198481010D01*
X35371429Y-198604819D01*
X35247619Y-198666724D01*
D10*
D11*
X85247619Y-198419105D02*
X85309524Y-198357200D01*
X85433333Y-198295295D01*
X85742857Y-198295295D01*
X85866667Y-198357200D01*
X85928571Y-198419105D01*
X85990476Y-198542914D01*
X85990476Y-198666724D01*
X85928571Y-198852438D01*
X85185714Y-199595295D01*
X85990476Y-199595295D01*
D10*
D11*
X135185714Y-198295295D02*
X135990476Y-198295295D01*
X135557143Y-198790533D01*
X135742857Y-198790533D01*
X135866667Y-198852438D01*
X135928571Y-198914343D01*
X135990476Y-199038152D01*
X135990476Y-199347676D01*
X135928571Y-199471486D01*
X135866667Y-199533390D01*
X135742857Y-199595295D01*
X135371429Y-199595295D01*
X135247619Y-199533390D01*
X135185714Y-199471486D01*
D10*
D11*
X185866667Y-198728629D02*
X185866667Y-199595295D01*
X185557143Y-198233390D02*
X185247619Y-199161962D01*
X186052381Y-199161962D01*
D10*
D11*
X235928571Y-198295295D02*
X235309524Y-198295295D01*
X235247619Y-198914343D01*
X235309524Y-198852438D01*
X235433333Y-198790533D01*
X235742857Y-198790533D01*
X235866667Y-198852438D01*
X235928571Y-198914343D01*
X235990476Y-199038152D01*
X235990476Y-199347676D01*
X235928571Y-199471486D01*
X235866667Y-199533390D01*
X235742857Y-199595295D01*
X235433333Y-199595295D01*
X235309524Y-199533390D01*
X235247619Y-199471486D01*
D10*
D11*
X285866667Y-198295295D02*
X285619048Y-198295295D01*
X285495238Y-198357200D01*
X285433333Y-198419105D01*
X285309524Y-198604819D01*
X285247619Y-198852438D01*
X285247619Y-199347676D01*
X285309524Y-199471486D01*
X285371429Y-199533390D01*
X285495238Y-199595295D01*
X285742857Y-199595295D01*
X285866667Y-199533390D01*
X285928571Y-199471486D01*
X285990476Y-199347676D01*
X285990476Y-199038152D01*
X285928571Y-198914343D01*
X285866667Y-198852438D01*
X285742857Y-198790533D01*
X285495238Y-198790533D01*
X285371429Y-198852438D01*
X285309524Y-198914343D01*
X285247619Y-199038152D01*
D10*
D11*
X10000000Y-60000000D02*
X12000000Y-60000000D01*
D10*
D11*
X10000000Y-110000000D02*
X12000000Y-110000000D01*
D10*
D11*
X10000000Y-160000000D02*
X12000000Y-160000000D01*
D10*
D11*
X10690476Y-35216667D02*
X11309524Y-35216667D01*
X10566667Y-35588095D02*
X11000000Y-34288095D01*
X11433333Y-35588095D01*
D10*
D11*
X11092857Y-84907143D02*
X11278571Y-84969048D01*
X11340476Y-85030952D01*
X11402381Y-85154762D01*
X11402381Y-85340476D01*
X11340476Y-85464286D01*
X11278571Y-85526190D01*
X11154762Y-85588095D01*
X10659524Y-85588095D01*
X10659524Y-84288095D01*
X11092857Y-84288095D01*
X11216667Y-84350000D01*
X11278571Y-84411905D01*
X11340476Y-84535714D01*
X11340476Y-84659524D01*
X11278571Y-84783333D01*
X11216667Y-84845238D01*
X11092857Y-84907143D01*
X10659524Y-84907143D01*
D10*
D11*
X11402381Y-135464286D02*
X11340476Y-135526190D01*
X11154762Y-135588095D01*
X11030952Y-135588095D01*
X10845238Y-135526190D01*
X10721429Y-135402381D01*
X10659524Y-135278571D01*
X10597619Y-135030952D01*
X10597619Y-134845238D01*
X10659524Y-134597619D01*
X10721429Y-134473810D01*
X10845238Y-134350000D01*
X11030952Y-134288095D01*
X11154762Y-134288095D01*
X11340476Y-134350000D01*
X11402381Y-134411905D01*
D10*
D11*
X10659524Y-185588095D02*
X10659524Y-184288095D01*
X10969048Y-184288095D01*
X11154762Y-184350000D01*
X11278571Y-184473810D01*
X11340476Y-184597619D01*
X11402381Y-184845238D01*
X11402381Y-185030952D01*
X11340476Y-185278571D01*
X11278571Y-185402381D01*
X11154762Y-185526190D01*
X10969048Y-185588095D01*
X10659524Y-185588095D01*
D10*
D11*
X287002200Y-60000000D02*
X285002200Y-60000000D01*
D10*
D11*
X287002200Y-110000000D02*
X285002200Y-110000000D01*
D10*
D11*
X287002200Y-160000000D02*
X285002200Y-160000000D01*
D10*
D11*
X285692676Y-35216667D02*
X286311724Y-35216667D01*
X285568867Y-35588095D02*
X286002200Y-34288095D01*
X286435533Y-35588095D01*
D10*
D11*
X286095057Y-84907143D02*
X286280771Y-84969048D01*
X286342676Y-85030952D01*
X286404581Y-85154762D01*
X286404581Y-85340476D01*
X286342676Y-85464286D01*
X286280771Y-85526190D01*
X286156962Y-85588095D01*
X285661724Y-85588095D01*
X285661724Y-84288095D01*
X286095057Y-84288095D01*
X286218867Y-84350000D01*
X286280771Y-84411905D01*
X286342676Y-84535714D01*
X286342676Y-84659524D01*
X286280771Y-84783333D01*
X286218867Y-84845238D01*
X286095057Y-84907143D01*
X285661724Y-84907143D01*
D10*
D11*
X286404581Y-135464286D02*
X286342676Y-135526190D01*
X286156962Y-135588095D01*
X286033152Y-135588095D01*
X285847438Y-135526190D01*
X285723629Y-135402381D01*
X285661724Y-135278571D01*
X285599819Y-135030952D01*
X285599819Y-134845238D01*
X285661724Y-134597619D01*
X285723629Y-134473810D01*
X285847438Y-134350000D01*
X286033152Y-134288095D01*
X286156962Y-134288095D01*
X286342676Y-134350000D01*
X286404581Y-134411905D01*
D10*
D11*
X285661724Y-185588095D02*
X285661724Y-184288095D01*
X285971248Y-184288095D01*
X286156962Y-184350000D01*
X286280771Y-184473810D01*
X286342676Y-184597619D01*
X286404581Y-184845238D01*
X286404581Y-185030952D01*
X286342676Y-185278571D01*
X286280771Y-185402381D01*
X286156962Y-185526190D01*
X285971248Y-185588095D01*
X285661724Y-185588095D01*
D10*
D11*
X200359343Y-193785771D02*
X200359343Y-192285771D01*
X200716486Y-192285771D01*
X200930771Y-192357200D01*
X201073629Y-192500057D01*
X201145057Y-192642914D01*
X201216486Y-192928629D01*
X201216486Y-193142914D01*
X201145057Y-193428629D01*
X201073629Y-193571486D01*
X200930771Y-193714343D01*
X200716486Y-193785771D01*
X200359343Y-193785771D01*
X202502200Y-193785771D02*
X202502200Y-193000057D01*
X202430771Y-192857200D01*
X202287914Y-192785771D01*
X202002200Y-192785771D01*
X201859343Y-192857200D01*
X202502200Y-193714343D02*
X202359343Y-193785771D01*
X202002200Y-193785771D01*
X201859343Y-193714343D01*
X201787914Y-193571486D01*
X201787914Y-193428629D01*
X201859343Y-193285771D01*
X202002200Y-193214343D01*
X202359343Y-193214343D01*
X202502200Y-193142914D01*
X203002200Y-192785771D02*
X203573629Y-192785771D01*
X203216486Y-192285771D02*
X203216486Y-193571486D01*
X203287914Y-193714343D01*
X203430772Y-193785771D01*
X203573629Y-193785771D01*
X204645057Y-193714343D02*
X204502200Y-193785771D01*
X204216486Y-193785771D01*
X204073629Y-193714343D01*
X204002200Y-193571486D01*
X204002200Y-193000057D01*
X204073629Y-192857200D01*
X204216486Y-192785771D01*
X204502200Y-192785771D01*
X204645057Y-192857200D01*
X204716486Y-193000057D01*
X204716486Y-193142914D01*
X204002200Y-193285771D01*
X205359343Y-193642914D02*
X205430771Y-193714343D01*
X205359343Y-193785771D01*
X205287914Y-193714343D01*
X205359343Y-193642914D01*
X205359343Y-193785771D01*
X205359343Y-192857200D02*
X205430771Y-192928629D01*
X205359343Y-193000057D01*
X205287914Y-192928629D01*
X205359343Y-192857200D01*
X205359343Y-193000057D01*
D10*
D11*
X177002200Y-194507200D02*
X285002200Y-194507200D01*
D10*
D11*
X178359343Y-196585771D02*
X178359343Y-195085771D01*
X179216486Y-196585771D02*
X178573629Y-195728629D01*
X179216486Y-195085771D02*
X178359343Y-195942914D01*
X179859343Y-196585771D02*
X179859343Y-195585771D01*
X179859343Y-195085771D02*
X179787914Y-195157200D01*
X179859343Y-195228629D01*
X179930771Y-195157200D01*
X179859343Y-195085771D01*
X179859343Y-195228629D01*
X181430772Y-196442914D02*
X181359343Y-196514343D01*
X181145057Y-196585771D01*
X181002200Y-196585771D01*
X180787915Y-196514343D01*
X180645057Y-196371486D01*
X180573629Y-196228629D01*
X180502200Y-195942914D01*
X180502200Y-195728629D01*
X180573629Y-195442914D01*
X180645057Y-195300057D01*
X180787915Y-195157200D01*
X181002200Y-195085771D01*
X181145057Y-195085771D01*
X181359343Y-195157200D01*
X181430772Y-195228629D01*
X182716486Y-196585771D02*
X182716486Y-195800057D01*
X182645057Y-195657200D01*
X182502200Y-195585771D01*
X182216486Y-195585771D01*
X182073629Y-195657200D01*
X182716486Y-196514343D02*
X182573629Y-196585771D01*
X182216486Y-196585771D01*
X182073629Y-196514343D01*
X182002200Y-196371486D01*
X182002200Y-196228629D01*
X182073629Y-196085771D01*
X182216486Y-196014343D01*
X182573629Y-196014343D01*
X182716486Y-195942914D01*
X184073629Y-196585771D02*
X184073629Y-195085771D01*
X184073629Y-196514343D02*
X183930772Y-196585771D01*
X183645058Y-196585771D01*
X183502200Y-196514343D01*
X183430772Y-196442914D01*
X183359343Y-196300057D01*
X183359343Y-195871486D01*
X183430772Y-195728629D01*
X183502200Y-195657200D01*
X183645058Y-195585771D01*
X183930772Y-195585771D01*
X184073629Y-195657200D01*
X185930772Y-195800057D02*
X186430772Y-195800057D01*
X186645058Y-196585771D02*
X185930772Y-196585771D01*
X185930772Y-195085771D01*
X186645058Y-195085771D01*
X187287915Y-196442914D02*
X187359343Y-196514343D01*
X187287915Y-196585771D01*
X187216486Y-196514343D01*
X187287915Y-196442914D01*
X187287915Y-196585771D01*
X188002201Y-196585771D02*
X188002201Y-195085771D01*
X188359344Y-195085771D01*
X188573629Y-195157200D01*
X188716487Y-195300057D01*
X188787915Y-195442914D01*
X188859344Y-195728629D01*
X188859344Y-195942914D01*
X188787915Y-196228629D01*
X188716487Y-196371486D01*
X188573629Y-196514343D01*
X188359344Y-196585771D01*
X188002201Y-196585771D01*
X189502201Y-196442914D02*
X189573629Y-196514343D01*
X189502201Y-196585771D01*
X189430772Y-196514343D01*
X189502201Y-196442914D01*
X189502201Y-196585771D01*
X190145058Y-196157200D02*
X190859344Y-196157200D01*
X190002201Y-196585771D02*
X190502201Y-195085771D01*
X191002201Y-196585771D01*
X191502201Y-196442914D02*
X191573629Y-196514343D01*
X191502201Y-196585771D01*
X191430772Y-196514343D01*
X191502201Y-196442914D01*
X191502201Y-196585771D01*
X194502201Y-196585771D02*
X194502201Y-195085771D01*
X194645058Y-196014343D02*
X195073629Y-196585771D01*
X195073629Y-195585771D02*
X194502201Y-196157200D01*
X195716487Y-196585771D02*
X195716487Y-195585771D01*
X195716487Y-195085771D02*
X195645058Y-195157200D01*
X195716487Y-195228629D01*
X195787915Y-195157200D01*
X195716487Y-195085771D01*
X195716487Y-195228629D01*
X197073630Y-196514343D02*
X196930773Y-196585771D01*
X196645059Y-196585771D01*
X196502201Y-196514343D01*
X196430773Y-196442914D01*
X196359344Y-196300057D01*
X196359344Y-195871486D01*
X196430773Y-195728629D01*
X196502201Y-195657200D01*
X196645059Y-195585771D01*
X196930773Y-195585771D01*
X197073630Y-195657200D01*
X198359344Y-196585771D02*
X198359344Y-195800057D01*
X198287915Y-195657200D01*
X198145058Y-195585771D01*
X197859344Y-195585771D01*
X197716487Y-195657200D01*
X198359344Y-196514343D02*
X198216487Y-196585771D01*
X197859344Y-196585771D01*
X197716487Y-196514343D01*
X197645058Y-196371486D01*
X197645058Y-196228629D01*
X197716487Y-196085771D01*
X197859344Y-196014343D01*
X198216487Y-196014343D01*
X198359344Y-195942914D01*
X199716487Y-196585771D02*
X199716487Y-195085771D01*
X199716487Y-196514343D02*
X199573630Y-196585771D01*
X199287916Y-196585771D01*
X199145058Y-196514343D01*
X199073630Y-196442914D01*
X199002201Y-196300057D01*
X199002201Y-195871486D01*
X199073630Y-195728629D01*
X199145058Y-195657200D01*
X199287916Y-195585771D01*
X199573630Y-195585771D01*
X199716487Y-195657200D01*
X202216487Y-195585771D02*
X202216487Y-196585771D01*
X201859344Y-195014343D02*
X201502201Y-196085771D01*
X202430773Y-196085771D01*
X203002201Y-196442914D02*
X203073629Y-196514343D01*
X203002201Y-196585771D01*
X202930772Y-196514343D01*
X203002201Y-196442914D01*
X203002201Y-196585771D01*
X204002201Y-195085771D02*
X204145058Y-195085771D01*
X204287915Y-195157200D01*
X204359344Y-195228629D01*
X204430773Y-195371486D01*
X204502201Y-195657200D01*
X204502201Y-196014343D01*
X204430773Y-196300057D01*
X204359344Y-196442914D01*
X204287915Y-196514343D01*
X204145058Y-196585771D01*
X204002201Y-196585771D01*
X203859344Y-196514343D01*
X203787915Y-196442914D01*
X203716487Y-196300057D01*
X203645058Y-196014343D01*
X203645058Y-195657200D01*
X203716487Y-195371486D01*
X203787915Y-195228629D01*
X203859344Y-195157200D01*
X204002201Y-195085771D01*
X205145058Y-196442914D02*
X205216486Y-196514343D01*
X205145058Y-196585771D01*
X205073629Y-196514343D01*
X205145058Y-196442914D01*
X205145058Y-196585771D01*
X205787915Y-195228629D02*
X205859344Y-195157200D01*
X206002201Y-195085771D01*
X206359344Y-195085771D01*
X206502201Y-195157200D01*
X206573630Y-195228629D01*
X206645058Y-195371486D01*
X206645058Y-195514343D01*
X206573630Y-195728629D01*
X205716487Y-196585771D01*
X206645058Y-196585771D01*
X207287915Y-196014343D02*
X208430772Y-196014343D01*
X209073629Y-196514343D02*
X209216486Y-196585771D01*
X209502201Y-196585771D01*
X209645058Y-196514343D01*
X209716486Y-196371486D01*
X209716486Y-196300057D01*
X209645058Y-196157200D01*
X209502201Y-196085771D01*
X209287915Y-196085771D01*
X209145058Y-196014343D01*
X209073629Y-195871486D01*
X209073629Y-195800057D01*
X209145058Y-195657200D01*
X209287915Y-195585771D01*
X209502201Y-195585771D01*
X209645058Y-195657200D01*
X210145058Y-195585771D02*
X210716487Y-195585771D01*
X210359344Y-195085771D02*
X210359344Y-196371486D01*
X210430772Y-196514343D01*
X210573630Y-196585771D01*
X210716487Y-196585771D01*
X211859344Y-196585771D02*
X211859344Y-195800057D01*
X211787915Y-195657200D01*
X211645058Y-195585771D01*
X211359344Y-195585771D01*
X211216487Y-195657200D01*
X211859344Y-196514343D02*
X211716487Y-196585771D01*
X211359344Y-196585771D01*
X211216487Y-196514343D01*
X211145058Y-196371486D01*
X211145058Y-196228629D01*
X211216487Y-196085771D01*
X211359344Y-196014343D01*
X211716487Y-196014343D01*
X211859344Y-195942914D01*
X212573630Y-196585771D02*
X212573630Y-195085771D01*
X212573630Y-195657200D02*
X212716487Y-195585771D01*
X213002201Y-195585771D01*
X213145058Y-195657200D01*
X213216487Y-195728629D01*
X213287916Y-195871486D01*
X213287916Y-196300057D01*
X213216487Y-196442914D01*
X213145058Y-196514343D01*
X213002201Y-196585771D01*
X212716487Y-196585771D01*
X212573630Y-196514343D01*
X214145059Y-196585771D02*
X214002201Y-196514343D01*
X213930773Y-196371486D01*
X213930773Y-195085771D01*
X215287915Y-196514343D02*
X215145058Y-196585771D01*
X214859344Y-196585771D01*
X214716487Y-196514343D01*
X214645058Y-196371486D01*
X214645058Y-195800057D01*
X214716487Y-195657200D01*
X214859344Y-195585771D01*
X215145058Y-195585771D01*
X215287915Y-195657200D01*
X215359344Y-195800057D01*
X215359344Y-195942914D01*
X214645058Y-196085771D01*
D10*
D11*
X177002200Y-191507200D02*
X285002200Y-191507200D01*
D10*
D12*
X264216486Y-193785771D02*
X263716486Y-193071486D01*
X263359343Y-193785771D02*
X263359343Y-192285771D01*
X263930771Y-192285771D01*
X264073629Y-192357200D01*
X264145057Y-192428629D01*
X264216486Y-192571486D01*
X264216486Y-192785771D01*
X264145057Y-192928629D01*
X264073629Y-193000057D01*
X263930771Y-193071486D01*
X263359343Y-193071486D01*
X265430771Y-193714343D02*
X265287914Y-193785771D01*
X265002200Y-193785771D01*
X264859343Y-193714343D01*
X264787914Y-193571486D01*
X264787914Y-193000057D01*
X264859343Y-192857200D01*
X265002200Y-192785771D01*
X265287914Y-192785771D01*
X265430771Y-192857200D01*
X265502200Y-193000057D01*
X265502200Y-193142914D01*
X264787914Y-193285771D01*
X266002200Y-192785771D02*
X266359343Y-193785771D01*
X266716485Y-192785771D01*
X267287914Y-193642914D02*
X267359342Y-193714343D01*
X267287914Y-193785771D01*
X267216485Y-193714343D01*
X267287914Y-193642914D01*
X267287914Y-193785771D01*
X267287914Y-192857200D02*
X267359342Y-192928629D01*
X267287914Y-193000057D01*
X267216485Y-192928629D01*
X267287914Y-192857200D01*
X267287914Y-193000057D01*
D10*
D11*
X178287914Y-193714343D02*
X178502200Y-193785771D01*
X178859343Y-193785771D01*
X179002200Y-193714343D01*
X179073629Y-193642914D01*
X179145057Y-193500057D01*
X179145057Y-193357200D01*
X179073629Y-193214343D01*
X179002200Y-193142914D01*
X178859343Y-193071486D01*
X178573629Y-193000057D01*
X178430771Y-192928629D01*
X178359343Y-192857200D01*
X178287914Y-192714343D01*
X178287914Y-192571486D01*
X178359343Y-192428629D01*
X178430771Y-192357200D01*
X178573629Y-192285771D01*
X178930771Y-192285771D01*
X179145057Y-192357200D01*
X179787914Y-193785771D02*
X179787914Y-192785771D01*
X179787914Y-192285771D02*
X179716485Y-192357200D01*
X179787914Y-192428629D01*
X179859342Y-192357200D01*
X179787914Y-192285771D01*
X179787914Y-192428629D01*
X180359343Y-192785771D02*
X181145057Y-192785771D01*
X180359343Y-193785771D01*
X181145057Y-193785771D01*
X182287914Y-193714343D02*
X182145057Y-193785771D01*
X181859343Y-193785771D01*
X181716486Y-193714343D01*
X181645057Y-193571486D01*
X181645057Y-193000057D01*
X181716486Y-192857200D01*
X181859343Y-192785771D01*
X182145057Y-192785771D01*
X182287914Y-192857200D01*
X182359343Y-193000057D01*
X182359343Y-193142914D01*
X181645057Y-193285771D01*
X183002200Y-193642914D02*
X183073628Y-193714343D01*
X183002200Y-193785771D01*
X182930771Y-193714343D01*
X183002200Y-193642914D01*
X183002200Y-193785771D01*
X183002200Y-192857200D02*
X183073628Y-192928629D01*
X183002200Y-193000057D01*
X182930771Y-192928629D01*
X183002200Y-192857200D01*
X183002200Y-193000057D01*
X184787914Y-193357200D02*
X185502200Y-193357200D01*
X184645057Y-193785771D02*
X185145057Y-192285771D01*
X185645057Y-193785771D01*
X186787914Y-192785771D02*
X186787914Y-193785771D01*
X186430771Y-192214343D02*
X186073628Y-193285771D01*
X187002200Y-193285771D01*
D10*
D11*
X263359343Y-196585771D02*
X263359343Y-195085771D01*
X264716486Y-196585771D02*
X264716486Y-195085771D01*
X264716486Y-196514343D02*
X264573629Y-196585771D01*
X264287915Y-196585771D01*
X264145057Y-196514343D01*
X264073629Y-196442914D01*
X264002200Y-196300057D01*
X264002200Y-195871486D01*
X264073629Y-195728629D01*
X264145057Y-195657200D01*
X264287915Y-195585771D01*
X264573629Y-195585771D01*
X264716486Y-195657200D01*
X265430772Y-196442914D02*
X265502200Y-196514343D01*
X265430772Y-196585771D01*
X265359343Y-196514343D01*
X265430772Y-196442914D01*
X265430772Y-196585771D01*
X265430772Y-195657200D02*
X265502200Y-195728629D01*
X265430772Y-195800057D01*
X265359343Y-195728629D01*
X265430772Y-195657200D01*
X265430772Y-195800057D01*
X268073629Y-196585771D02*
X267216486Y-196585771D01*
X267645058Y-196585771D02*
X267645058Y-195085771D01*
X267502201Y-195300057D01*
X267359343Y-195442914D01*
X267216486Y-195514343D01*
X269787914Y-195014343D02*
X268502200Y-196942914D01*
X271073629Y-196585771D02*
X270216486Y-196585771D01*
X270645058Y-196585771D02*
X270645058Y-195085771D01*
X270502201Y-195300057D01*
X270359343Y-195442914D01*
X270216486Y-195514343D01*
D10*
D11*
X177002200Y-187507200D02*
X285002200Y-187507200D01*
D10*
D13*
X178454581Y-188211962D02*
X179597438Y-188211962D01*
X178776010Y-190211962D02*
X179026010Y-188211962D01*
X180014105Y-190211962D02*
X180180771Y-188878629D01*
X180264105Y-188211962D02*
X180156962Y-188307200D01*
X180240295Y-188402438D01*
X180347439Y-188307200D01*
X180264105Y-188211962D01*
X180240295Y-188402438D01*
X180847438Y-188878629D02*
X181609343Y-188878629D01*
X181216486Y-188211962D02*
X181002200Y-189926248D01*
X181073630Y-190116724D01*
X181252201Y-190211962D01*
X181442677Y-190211962D01*
X182395058Y-190211962D02*
X182216487Y-190116724D01*
X182145057Y-189926248D01*
X182359343Y-188211962D01*
X183930772Y-190116724D02*
X183728391Y-190211962D01*
X183347439Y-190211962D01*
X183168867Y-190116724D01*
X183097438Y-189926248D01*
X183192676Y-189164343D01*
X183311724Y-188973867D01*
X183514105Y-188878629D01*
X183895057Y-188878629D01*
X184073629Y-188973867D01*
X184145057Y-189164343D01*
X184121248Y-189354819D01*
X183145057Y-189545295D01*
X184895057Y-190021486D02*
X184978392Y-190116724D01*
X184871248Y-190211962D01*
X184787915Y-190116724D01*
X184895057Y-190021486D01*
X184871248Y-190211962D01*
X185026010Y-188973867D02*
X185109344Y-189069105D01*
X185002200Y-189164343D01*
X184918867Y-189069105D01*
X185026010Y-188973867D01*
X185002200Y-189164343D01*
D10*
D11*
X178859343Y-185600057D02*
X178359343Y-185600057D01*
X178359343Y-186385771D02*
X178359343Y-184885771D01*
X179073629Y-184885771D01*
X179645057Y-186385771D02*
X179645057Y-185385771D01*
X179645057Y-184885771D02*
X179573628Y-184957200D01*
X179645057Y-185028629D01*
X179716485Y-184957200D01*
X179645057Y-184885771D01*
X179645057Y-185028629D01*
X180573629Y-186385771D02*
X180430771Y-186314343D01*
X180359343Y-186171486D01*
X180359343Y-184885771D01*
X181716485Y-186314343D02*
X181573628Y-186385771D01*
X181287914Y-186385771D01*
X181145057Y-186314343D01*
X181073628Y-186171486D01*
X181073628Y-185600057D01*
X181145057Y-185457200D01*
X181287914Y-185385771D01*
X181573628Y-185385771D01*
X181716485Y-185457200D01*
X181787914Y-185600057D01*
X181787914Y-185742914D01*
X181073628Y-185885771D01*
X182430771Y-186242914D02*
X182502199Y-186314343D01*
X182430771Y-186385771D01*
X182359342Y-186314343D01*
X182430771Y-186242914D01*
X182430771Y-186385771D01*
X182430771Y-185457200D02*
X182502199Y-185528629D01*
X182430771Y-185600057D01*
X182359342Y-185528629D01*
X182430771Y-185457200D01*
X182430771Y-185600057D01*
X184073628Y-185385771D02*
X184645057Y-185385771D01*
X184287914Y-186385771D02*
X184287914Y-185100057D01*
X184359342Y-184957200D01*
X184502200Y-184885771D01*
X184645057Y-184885771D01*
X185359343Y-186385771D02*
X185216485Y-186314343D01*
X185145057Y-186171486D01*
X185145057Y-184885771D01*
X185787914Y-185385771D02*
X186145057Y-186385771D01*
X186502199Y-185385771D02*
X186145057Y-186385771D01*
X186002199Y-186742914D01*
X185930771Y-186814343D01*
X185787914Y-186885771D01*
X187073628Y-185385771D02*
X187073628Y-186885771D01*
X187073628Y-185457200D02*
X187216485Y-185385771D01*
X187502199Y-185385771D01*
X187645056Y-185457200D01*
X187716485Y-185528629D01*
X187787914Y-185671486D01*
X187787914Y-186100057D01*
X187716485Y-186242914D01*
X187645056Y-186314343D01*
X187502199Y-186385771D01*
X187216485Y-186385771D01*
X187073628Y-186314343D01*
X188430771Y-186385771D02*
X188430771Y-185385771D01*
X188430771Y-184885771D02*
X188359342Y-184957200D01*
X188430771Y-185028629D01*
X188502199Y-184957200D01*
X188430771Y-184885771D01*
X188430771Y-185028629D01*
X189145057Y-186242914D02*
X189216485Y-186314343D01*
X189145057Y-186385771D01*
X189073628Y-186314343D01*
X189145057Y-186242914D01*
X189145057Y-186385771D01*
X189859343Y-186385771D02*
X189859343Y-184885771D01*
X190002200Y-185814343D02*
X190430771Y-186385771D01*
X190430771Y-185385771D02*
X189859343Y-185957200D01*
X191073629Y-186385771D02*
X191073629Y-185385771D01*
X191073629Y-184885771D02*
X191002200Y-184957200D01*
X191073629Y-185028629D01*
X191145057Y-184957200D01*
X191073629Y-184885771D01*
X191073629Y-185028629D01*
X192430772Y-186314343D02*
X192287915Y-186385771D01*
X192002201Y-186385771D01*
X191859343Y-186314343D01*
X191787915Y-186242914D01*
X191716486Y-186100057D01*
X191716486Y-185671486D01*
X191787915Y-185528629D01*
X191859343Y-185457200D01*
X192002201Y-185385771D01*
X192287915Y-185385771D01*
X192430772Y-185457200D01*
X193716486Y-186385771D02*
X193716486Y-185600057D01*
X193645057Y-185457200D01*
X193502200Y-185385771D01*
X193216486Y-185385771D01*
X193073629Y-185457200D01*
X193716486Y-186314343D02*
X193573629Y-186385771D01*
X193216486Y-186385771D01*
X193073629Y-186314343D01*
X193002200Y-186171486D01*
X193002200Y-186028629D01*
X193073629Y-185885771D01*
X193216486Y-185814343D01*
X193573629Y-185814343D01*
X193716486Y-185742914D01*
X195073629Y-186385771D02*
X195073629Y-184885771D01*
X195073629Y-186314343D02*
X194930772Y-186385771D01*
X194645058Y-186385771D01*
X194502200Y-186314343D01*
X194430772Y-186242914D01*
X194359343Y-186100057D01*
X194359343Y-185671486D01*
X194430772Y-185528629D01*
X194502200Y-185457200D01*
X194645058Y-185385771D01*
X194930772Y-185385771D01*
X195073629Y-185457200D01*
X195430772Y-186528629D02*
X196573629Y-186528629D01*
X196930772Y-185385771D02*
X196930772Y-186885771D01*
X196930772Y-185457200D02*
X197073629Y-185385771D01*
X197359343Y-185385771D01*
X197502200Y-185457200D01*
X197573629Y-185528629D01*
X197645058Y-185671486D01*
X197645058Y-186100057D01*
X197573629Y-186242914D01*
X197502200Y-186314343D01*
X197359343Y-186385771D01*
X197073629Y-186385771D01*
X196930772Y-186314343D01*
X198930772Y-186314343D02*
X198787915Y-186385771D01*
X198502201Y-186385771D01*
X198359343Y-186314343D01*
X198287915Y-186242914D01*
X198216486Y-186100057D01*
X198216486Y-185671486D01*
X198287915Y-185528629D01*
X198359343Y-185457200D01*
X198502201Y-185385771D01*
X198787915Y-185385771D01*
X198930772Y-185457200D01*
X199573629Y-186385771D02*
X199573629Y-184885771D01*
X199573629Y-185457200D02*
X199716486Y-185385771D01*
X200002200Y-185385771D01*
X200145057Y-185457200D01*
X200216486Y-185528629D01*
X200287915Y-185671486D01*
X200287915Y-186100057D01*
X200216486Y-186242914D01*
X200145057Y-186314343D01*
X200002200Y-186385771D01*
X199716486Y-186385771D01*
X199573629Y-186314343D01*
D10*
D11*
X177002200Y-181507200D02*
X285002200Y-181507200D01*
D10*
D11*
X178287914Y-183614343D02*
X178502200Y-183685771D01*
X178859343Y-183685771D01*
X179002200Y-183614343D01*
X179073629Y-183542914D01*
X179145057Y-183400057D01*
X179145057Y-183257200D01*
X179073629Y-183114343D01*
X179002200Y-183042914D01*
X178859343Y-182971486D01*
X178573629Y-182900057D01*
X178430771Y-182828629D01*
X178359343Y-182757200D01*
X178287914Y-182614343D01*
X178287914Y-182471486D01*
X178359343Y-182328629D01*
X178430771Y-182257200D01*
X178573629Y-182185771D01*
X178930771Y-182185771D01*
X179145057Y-182257200D01*
X179787914Y-183685771D02*
X179787914Y-182185771D01*
X180430771Y-183685771D02*
X180430771Y-182900057D01*
X180359342Y-182757200D01*
X180216485Y-182685771D01*
X180002200Y-182685771D01*
X179859342Y-182757200D01*
X179787914Y-182828629D01*
X181716485Y-183614343D02*
X181573628Y-183685771D01*
X181287914Y-183685771D01*
X181145057Y-183614343D01*
X181073628Y-183471486D01*
X181073628Y-182900057D01*
X181145057Y-182757200D01*
X181287914Y-182685771D01*
X181573628Y-182685771D01*
X181716485Y-182757200D01*
X181787914Y-182900057D01*
X181787914Y-183042914D01*
X181073628Y-183185771D01*
X183002199Y-183614343D02*
X182859342Y-183685771D01*
X182573628Y-183685771D01*
X182430771Y-183614343D01*
X182359342Y-183471486D01*
X182359342Y-182900057D01*
X182430771Y-182757200D01*
X182573628Y-182685771D01*
X182859342Y-182685771D01*
X183002199Y-182757200D01*
X183073628Y-182900057D01*
X183073628Y-183042914D01*
X182359342Y-183185771D01*
X183502199Y-182685771D02*
X184073628Y-182685771D01*
X183716485Y-182185771D02*
X183716485Y-183471486D01*
X183787913Y-183614343D01*
X183930771Y-183685771D01*
X184073628Y-183685771D01*
X184573628Y-183542914D02*
X184645056Y-183614343D01*
X184573628Y-183685771D01*
X184502199Y-183614343D01*
X184573628Y-183542914D01*
X184573628Y-183685771D01*
X184573628Y-182757200D02*
X184645056Y-182828629D01*
X184573628Y-182900057D01*
X184502199Y-182828629D01*
X184573628Y-182757200D01*
X184573628Y-182900057D01*
D10*
D11*
X197002200Y-191507200D02*
X197002200Y-194507200D01*
D10*
D11*
X261002200Y-191507200D02*
X261002200Y-198007200D01*
D14*
X117540000Y-55000000D03*
X120080000Y-55000000D03*
D15*
X115000000Y-55000000D03*
D16*
X135128000Y-54102000D03*
X135128000Y-56642000D03*
X135128000Y-59182000D03*
X135128000Y-61722000D03*
X135128000Y-64262000D03*
X135128000Y-66802000D03*
X135128000Y-69342000D03*
X135128000Y-71882000D03*
X135128000Y-74422000D03*
X135128000Y-76962000D03*
X135128000Y-79502000D03*
X135128000Y-82042000D03*
X135128000Y-84582000D03*
X135128000Y-87122000D03*
X135128000Y-89662000D03*
X150368000Y-89662000D03*
X150368000Y-87122000D03*
X150368000Y-84582000D03*
X150368000Y-82042000D03*
X150368000Y-79502000D03*
X150368000Y-76962000D03*
X150368000Y-74422000D03*
X150368000Y-71882000D03*
X150368000Y-69342000D03*
X150368000Y-66802000D03*
X150368000Y-64262000D03*
X150368000Y-61722000D03*
X150368000Y-59182000D03*
X150368000Y-56642000D03*
X150368000Y-54102000D03*
D17*
X165989000Y-56388000D03*
D18*
X160989000Y-56388000D03*
D17*
X166497000Y-87249000D03*
D18*
X166497000Y-82249000D03*
D17*
X177546000Y-78232000D03*
D18*
X173746000Y-78232000D03*
D17*
X158000000Y-95500000D03*
D18*
X158000000Y-91700000D03*
D19*
X167299860Y-121000000D03*
X173299340Y-121000000D03*
X170299600Y-116301000D03*
D20*
X154561960Y-116968220D03*
D21*
X154561960Y-101728220D03*
D20*
X156588040Y-62863780D03*
D21*
X156588040Y-78103780D03*
D22*
X166497000Y-65445640D03*
X166497000Y-70444360D03*
X163000640Y-101000000D03*
X167999360Y-101000000D03*
D23*
X173282500Y-95567500D03*
X173282500Y-98967500D03*
X173282500Y-92167500D03*
X177482500Y-93867500D03*
X177482500Y-97267500D03*
X173346000Y-66167000D03*
X173346000Y-69567000D03*
X173346000Y-62767000D03*
X177546000Y-64467000D03*
X177546000Y-67867000D03*
D24*
X145288000Y-123952000D03*
X144018000Y-129032000D03*
X142748000Y-123952000D03*
X141478000Y-129032000D03*
X140208000Y-123952000D03*
X138938000Y-129032000D03*
X137668000Y-123952000D03*
X136398000Y-129032000D03*
X135128000Y-123952000D03*
X133858000Y-129032000D03*
X132588000Y-123952000D03*
X131318000Y-129032000D03*
X130048000Y-123952000D03*
X128778000Y-129032000D03*
X127508000Y-123952000D03*
D25*
X168500000Y-109000000D03*
X166500000Y-109000000D03*
X164500000Y-109000000D03*
D26*
X169230000Y-111720000D03*
D25*
X162500000Y-109000000D03*
D26*
X162230000Y-111720000D03*
X169230000Y-106280000D03*
X162230000Y-106280000D03*
D27*
X122428000Y-131318000D03*
D28*
X117348000Y-131318000D03*
D14*
X124587000Y-72771000D03*
X124587000Y-70231000D03*
D15*
X124587000Y-75311000D03*
D14*
X125476000Y-116078000D03*
X125476000Y-113538000D03*
D15*
X125476000Y-118618000D03*
D14*
X118110000Y-89154000D03*
X118110000Y-86614000D03*
D15*
X118110000Y-91694000D03*
D29*
X130048000Y-91948000D03*
D30*
X130048000Y-89408000D03*
X130048000Y-86868000D03*
X130048000Y-84328000D03*
D31*
X131826000Y-98552000D03*
D32*
X147066000Y-98552000D03*
D31*
X131826000Y-103124000D03*
D32*
X147066000Y-103124000D03*
D31*
X131826000Y-108712000D03*
D32*
X147066000Y-108712000D03*
D31*
X131826000Y-114554000D03*
D32*
X147066000Y-114554000D03*
D31*
X109220000Y-79756000D03*
D32*
X124460000Y-79756000D03*
D31*
X122936000Y-98806000D03*
D32*
X107696000Y-98806000D03*
D31*
X116332000Y-65659000D03*
D32*
X131572000Y-65659000D03*
D31*
X116332000Y-60706000D03*
D32*
X131572000Y-60706000D03*
D33*
X108966000Y-119634000D03*
D34*
X108966000Y-122134000D03*
D31*
X130556000Y-120142000D03*
X135556000Y-120142000D03*
X139954000Y-120142000D03*
X144954000Y-120142000D03*
D33*
X117602000Y-119634000D03*
D34*
X117602000Y-122134000D03*
D33*
X108966000Y-107442000D03*
D34*
X108966000Y-109942000D03*
X108966000Y-112442000D03*
D31*
X127508000Y-98044000D03*
X127508000Y-103044000D03*
D33*
X117602000Y-105156000D03*
D34*
X117602000Y-107656000D03*
X117602000Y-110156000D03*
X117602000Y-112656000D03*
D33*
X109093000Y-69215000D03*
D34*
X109093000Y-71715000D03*
X109093000Y-74215000D03*
D33*
X109220000Y-86868000D03*
D34*
X109220000Y-89368000D03*
X109220000Y-91868000D03*
D33*
X117729000Y-71628000D03*
D34*
X117729000Y-74128000D03*
D33*
X109347000Y-60960000D03*
D34*
X111847000Y-60960000D03*
D35*
X122936000Y-104140000D03*
X123190000Y-92710000D03*
D36*
X160020000Y-65786000D03*
X140208000Y-126492000D03*
D35*
X123634500Y-60325000D03*
X123634500Y-61722000D03*
X123952000Y-57277000D03*
X151066500Y-123634500D03*
X129349500Y-59372500D03*
X123825000Y-58674000D03*
X145034000Y-113284000D03*
X138938000Y-108458000D03*
X138684000Y-80772000D03*
D37*
X177292000Y-129540000D02*
X177292000Y-130048000D01*
D38*
X127508000Y-103044000D02*
X127508000Y-102870000D01*
X127508000Y-102870000D02*
X130302000Y-100076000D01*
X133096000Y-81534000D02*
X135128000Y-79502000D01*
X133096000Y-94742000D02*
X133096000Y-81534000D01*
X130302000Y-97536000D02*
X133096000Y-94742000D01*
X130302000Y-100076000D02*
X130302000Y-97536000D01*
X127508000Y-103044000D02*
X126158000Y-103044000D01*
X122936000Y-99822000D02*
X122936000Y-98806000D01*
X126158000Y-103044000D02*
X122936000Y-99822000D01*
X108966000Y-109942000D02*
X107910000Y-109942000D01*
X106934000Y-99568000D02*
X107696000Y-98806000D01*
X106934000Y-108966000D02*
X106934000Y-99568000D01*
X107910000Y-109942000D02*
X106934000Y-108966000D01*
D37*
X135319000Y-110681000D02*
X133819000Y-110681000D01*
X127962000Y-113538000D02*
X125476000Y-113538000D01*
X129000000Y-112500000D02*
X127962000Y-113538000D01*
X132000000Y-112500000D02*
X129000000Y-112500000D01*
X133819000Y-110681000D02*
X132000000Y-112500000D01*
X166624000Y-88201500D02*
X166624000Y-87376000D01*
X166624000Y-87376000D02*
X166497000Y-87249000D01*
X166624000Y-93916500D02*
X166624000Y-93853000D01*
X162179000Y-60198000D02*
X165989000Y-56388000D01*
X162179000Y-89408000D02*
X162179000Y-60198000D01*
X166624000Y-93853000D02*
X162179000Y-89408000D01*
X164909500Y-121412000D02*
X159829500Y-116332000D01*
X159829500Y-116332000D02*
X159829500Y-100711000D01*
X159829500Y-100711000D02*
X166624000Y-93916500D01*
X166624000Y-93916500D02*
X166624000Y-88201500D01*
X167281860Y-121412000D02*
X164909500Y-121412000D01*
X167281860Y-121412000D02*
X148844000Y-121412000D01*
X148844000Y-121412000D02*
X147574000Y-122682000D01*
X145034000Y-120142000D02*
X147574000Y-122682000D01*
X147574000Y-122682000D02*
X147574000Y-125222000D01*
X147574000Y-125222000D02*
X146304000Y-126492000D01*
X146304000Y-126492000D02*
X143002000Y-126492000D01*
X143002000Y-126492000D02*
X141478000Y-128016000D01*
X141478000Y-128016000D02*
X141478000Y-129032000D01*
X142240000Y-117602000D02*
X141605000Y-116967000D01*
X141605000Y-116967000D02*
X140081000Y-115443000D01*
X140081000Y-115443000D02*
X135319000Y-110681000D01*
X135319000Y-110681000D02*
X135255000Y-110617000D01*
X135255000Y-110617000D02*
X135255000Y-89789000D01*
X135255000Y-89789000D02*
X135128000Y-89662000D01*
X134874000Y-89916000D02*
X135128000Y-89662000D01*
X144954000Y-120142000D02*
X144780000Y-120142000D01*
X144780000Y-120142000D02*
X142240000Y-117602000D01*
X144954000Y-120142000D02*
X145034000Y-120142000D01*
X121000000Y-62000000D02*
X118500000Y-62000000D01*
X115500000Y-63000000D02*
X109285000Y-69215000D01*
X117500000Y-63000000D02*
X115500000Y-63000000D01*
X118500000Y-62000000D02*
X117500000Y-63000000D01*
X109285000Y-69215000D02*
X109093000Y-69215000D01*
X127500000Y-91500000D02*
X123500000Y-87500000D01*
X122500000Y-86500000D02*
X118224000Y-86500000D01*
X123500000Y-87500000D02*
X122500000Y-86500000D01*
X118224000Y-86500000D02*
X118110000Y-86614000D01*
X127500000Y-71500000D02*
X125856000Y-71500000D01*
X125856000Y-71500000D02*
X124587000Y-70231000D01*
X130048000Y-91948000D02*
X127948000Y-91948000D01*
X121000000Y-55920000D02*
X120080000Y-55000000D01*
X121000000Y-62000000D02*
X121000000Y-55920000D01*
X127500000Y-68500000D02*
X121000000Y-62000000D01*
X127500000Y-91500000D02*
X127500000Y-71500000D01*
X127500000Y-71500000D02*
X127500000Y-68500000D01*
X127948000Y-91948000D02*
X127500000Y-91500000D01*
X177546000Y-78232000D02*
X177546000Y-78168500D01*
X177546000Y-78168500D02*
X169821860Y-70444360D01*
X169821860Y-70444360D02*
X166497000Y-70444360D01*
X177546000Y-78232000D02*
X177546000Y-67867000D01*
D39*
X178054000Y-68580000D02*
X177800000Y-68580000D01*
D38*
X124587000Y-70231000D02*
X124333000Y-70231000D01*
D37*
X172000000Y-103500000D02*
X172500000Y-103500000D01*
X177482500Y-98517500D02*
X177482500Y-97267500D01*
X172500000Y-103500000D02*
X177482500Y-98517500D01*
X167999360Y-101000000D02*
X169500000Y-101000000D01*
X170000000Y-109000000D02*
X168500000Y-109000000D01*
X172000000Y-107000000D02*
X170000000Y-109000000D01*
X172000000Y-103500000D02*
X172000000Y-107000000D01*
X169500000Y-101000000D02*
X172000000Y-103500000D01*
D38*
X118110000Y-99060000D02*
X122936000Y-103886000D01*
X122936000Y-103886000D02*
X122936000Y-104140000D01*
X116840000Y-99060000D02*
X118110000Y-99060000D01*
X123190000Y-92710000D02*
X116840000Y-99060000D01*
X116840000Y-99060000D02*
X108966000Y-106934000D01*
X108966000Y-106934000D02*
X108966000Y-107442000D01*
D37*
X163000640Y-101000000D02*
X164000000Y-101000000D01*
X177482500Y-90482500D02*
X177482500Y-93867500D01*
X176500000Y-89500000D02*
X177482500Y-90482500D01*
X171500000Y-89500000D02*
X176500000Y-89500000D01*
X169500000Y-91500000D02*
X171500000Y-89500000D01*
X169500000Y-95500000D02*
X169500000Y-91500000D01*
X164000000Y-101000000D02*
X169500000Y-95500000D01*
X177482500Y-93218000D02*
X177482500Y-93867500D01*
X156588040Y-69217960D02*
X156588040Y-78103780D01*
X160020000Y-65786000D02*
X156588040Y-69217960D01*
X166497000Y-65445640D02*
X166519860Y-65445640D01*
X166519860Y-65445640D02*
X171894500Y-60071000D01*
X177546000Y-62865000D02*
X177546000Y-64467000D01*
X174752000Y-60071000D02*
X177546000Y-62865000D01*
X171894500Y-60071000D02*
X174752000Y-60071000D01*
X140208000Y-126492000D02*
X139954000Y-126746000D01*
X139954000Y-126746000D02*
X127762000Y-126746000D01*
X127762000Y-126746000D02*
X123150000Y-122134000D01*
X123150000Y-122134000D02*
X117602000Y-122134000D01*
X142748000Y-123952000D02*
X142748000Y-122682000D01*
X127254000Y-120396000D02*
X118364000Y-120396000D01*
X129032000Y-122174000D02*
X127254000Y-120396000D01*
X142240000Y-122174000D02*
X129032000Y-122174000D01*
X142748000Y-122682000D02*
X142240000Y-122174000D01*
X118364000Y-120396000D02*
X117602000Y-119634000D01*
D39*
X125476000Y-118618000D02*
X122936000Y-118618000D01*
X111252000Y-117348000D02*
X108966000Y-119634000D01*
X121666000Y-117348000D02*
X111252000Y-117348000D01*
X122936000Y-118618000D02*
X121666000Y-117348000D01*
X109347000Y-60960000D02*
X109347000Y-60153000D01*
X109347000Y-60153000D02*
X114500000Y-55000000D01*
X114500000Y-55000000D02*
X115000000Y-55000000D01*
X124587000Y-75311000D02*
X121412000Y-75311000D01*
X121412000Y-75311000D02*
X117729000Y-71628000D01*
X124587000Y-75311000D02*
X123888500Y-75311000D01*
D38*
X150368000Y-64262000D02*
X142684500Y-64262000D01*
X132397500Y-51562000D02*
X123634500Y-60325000D01*
X136842500Y-51562000D02*
X132397500Y-51562000D01*
X141466002Y-56185502D02*
X136842500Y-51562000D01*
X141466002Y-63043502D02*
X141466002Y-56185502D01*
X142684500Y-64262000D02*
X141466002Y-63043502D01*
X118110000Y-91694000D02*
X114046000Y-91694000D01*
X114046000Y-91694000D02*
X109220000Y-86868000D01*
X150368000Y-66802000D02*
X142811500Y-66802000D01*
X133032500Y-52324000D02*
X123634500Y-61722000D01*
X136461500Y-52324000D02*
X133032500Y-52324000D01*
X140716000Y-56578500D02*
X136461500Y-52324000D01*
X140716000Y-64706500D02*
X140716000Y-56578500D01*
X142811500Y-66802000D02*
X140716000Y-64706500D01*
X151384000Y-66802000D02*
X150368000Y-66802000D01*
X135128000Y-74422000D02*
X134366000Y-74422000D01*
X134366000Y-74422000D02*
X132080000Y-76708000D01*
X132080000Y-76708000D02*
X132080000Y-84836000D01*
X132080000Y-84836000D02*
X130048000Y-86868000D01*
X130048000Y-84328000D02*
X130048000Y-76454000D01*
X131318000Y-75692000D02*
X135128000Y-71882000D01*
X130810000Y-75692000D02*
X131318000Y-75692000D01*
X130048000Y-76454000D02*
X130810000Y-75692000D01*
X131826000Y-103124000D02*
X131826000Y-106172000D01*
X127842000Y-110156000D02*
X117602000Y-110156000D01*
X131826000Y-106172000D02*
X127842000Y-110156000D01*
X131826000Y-108712000D02*
X131318000Y-108712000D01*
X131318000Y-108712000D02*
X128524000Y-111506000D01*
X128524000Y-111506000D02*
X118752000Y-111506000D01*
X118752000Y-111506000D02*
X117602000Y-112656000D01*
X131826000Y-98552000D02*
X131826000Y-100330000D01*
X128524000Y-105156000D02*
X117602000Y-105156000D01*
X130302000Y-103378000D02*
X128524000Y-105156000D01*
X130302000Y-101854000D02*
X130302000Y-103378000D01*
X131826000Y-100330000D02*
X130302000Y-101854000D01*
X150368000Y-59182000D02*
X147383500Y-59182000D01*
X131508500Y-49720500D02*
X123952000Y-57277000D01*
X137922000Y-49720500D02*
X131508500Y-49720500D01*
X147383500Y-59182000D02*
X137922000Y-49720500D01*
X138938000Y-130048000D02*
X138938000Y-129032000D01*
X140208000Y-131318000D02*
X138938000Y-130048000D01*
X145415000Y-131318000D02*
X140208000Y-131318000D01*
X151320500Y-125412500D02*
X145415000Y-131318000D01*
X151320500Y-123888500D02*
X151320500Y-125412500D01*
X151066500Y-123634500D02*
X151320500Y-123888500D01*
X147066000Y-114554000D02*
X144526000Y-114554000D01*
X139954000Y-58928000D02*
X135128000Y-54102000D01*
X139954000Y-109982000D02*
X139954000Y-58928000D01*
X144526000Y-114554000D02*
X139954000Y-109982000D01*
X129349500Y-59372500D02*
X129413000Y-59436000D01*
X129413000Y-59436000D02*
X129413000Y-63500000D01*
X129413000Y-63500000D02*
X131572000Y-65659000D01*
X150368000Y-61722000D02*
X143002000Y-61722000D01*
X131826000Y-50673000D02*
X123825000Y-58674000D01*
X137477500Y-50673000D02*
X131826000Y-50673000D01*
X142557500Y-55753000D02*
X137477500Y-50673000D01*
X142557500Y-61277500D02*
X142557500Y-55753000D01*
X143002000Y-61722000D02*
X142557500Y-61277500D01*
X150368000Y-69342000D02*
X148082000Y-69342000D01*
X143510000Y-94996000D02*
X147066000Y-98552000D01*
X143510000Y-73914000D02*
X143510000Y-94996000D01*
X148082000Y-69342000D02*
X143510000Y-73914000D01*
X150368000Y-71882000D02*
X147828000Y-71882000D01*
X148844000Y-101346000D02*
X147066000Y-103124000D01*
X148844000Y-98044000D02*
X148844000Y-101346000D01*
X144526000Y-93726000D02*
X148844000Y-98044000D01*
X144526000Y-75184000D02*
X144526000Y-93726000D01*
X147828000Y-71882000D02*
X144526000Y-75184000D01*
X150368000Y-74422000D02*
X146812000Y-74422000D01*
X147066000Y-105664000D02*
X147066000Y-108712000D01*
X149860000Y-102870000D02*
X147066000Y-105664000D01*
X149860000Y-97790000D02*
X149860000Y-102870000D01*
X145288000Y-93218000D02*
X149860000Y-97790000D01*
X145288000Y-75946000D02*
X145288000Y-93218000D01*
X146812000Y-74422000D02*
X145288000Y-75946000D01*
X150368000Y-76962000D02*
X147054002Y-76962000D01*
X148590000Y-109728000D02*
X145034000Y-113284000D01*
X148590000Y-107188000D02*
X148590000Y-109728000D01*
X150622000Y-105156000D02*
X148590000Y-107188000D01*
X150622000Y-97028000D02*
X150622000Y-105156000D01*
X146304000Y-92710000D02*
X150622000Y-97028000D01*
X146304000Y-77712002D02*
X146304000Y-92710000D01*
X147054002Y-76962000D02*
X146304000Y-77712002D01*
X138938000Y-81026000D02*
X138938000Y-108458000D01*
X138684000Y-80772000D02*
X138938000Y-81026000D01*
X131826000Y-114554000D02*
X129946000Y-114554000D01*
X128422000Y-116078000D02*
X125476000Y-116078000D01*
X129946000Y-114554000D02*
X128422000Y-116078000D01*
X116332000Y-60706000D02*
X116332000Y-58668000D01*
X117540000Y-57460000D02*
X117540000Y-55000000D01*
X116332000Y-58668000D02*
X117540000Y-57460000D01*
D37*
X117540000Y-55000000D02*
X117540000Y-55460000D01*
D38*
X124587000Y-72771000D02*
X123771000Y-72771000D01*
X123771000Y-72771000D02*
X116659000Y-65659000D01*
X116659000Y-65659000D02*
X116332000Y-65659000D01*
X118110000Y-89154000D02*
X117654000Y-89154000D01*
X117654000Y-89154000D02*
X109220000Y-80720000D01*
X109220000Y-80720000D02*
X109220000Y-79756000D01*
M02*
