G04 #@! TF.FileFunction,Other,Fab,Top*
%FSLAX46Y46*%
G04 Gerber Fmt 4.6, Leading zero omitted, Abs format (unit mm)*
G04 Created by KiCad (PCBNEW 4.0.4+e1-6308~48~ubuntu14.04.1-stable) date Tue Oct  4 21:58:47 2016*
%MOMM*%
%LPD*%
G01*
G04 APERTURE LIST*
%ADD10C,0.100000*%
%ADD11C,0.150000*%
%ADD12C,0.300000*%
%ADD13C,0.400000*%
G04 APERTURE END LIST*
D10*
D11*
X177002200Y-166007200D02*
X177002200Y-198007200D01*
X285002200Y-198007200D01*
X285002200Y-166007200D01*
X177002200Y-166007200D01*
D10*
D11*
X10000000Y-10000000D02*
X10000000Y-200007200D01*
X287002200Y-200007200D01*
X287002200Y-10000000D01*
X10000000Y-10000000D01*
D10*
D11*
X12000000Y-12000000D02*
X12000000Y-198007200D01*
X285002200Y-198007200D01*
X285002200Y-12000000D01*
X12000000Y-12000000D01*
D10*
D11*
X60000000Y-12000000D02*
X60000000Y-10000000D01*
D10*
D11*
X110000000Y-12000000D02*
X110000000Y-10000000D01*
D10*
D11*
X160000000Y-12000000D02*
X160000000Y-10000000D01*
D10*
D11*
X210000000Y-12000000D02*
X210000000Y-10000000D01*
D10*
D11*
X260000000Y-12000000D02*
X260000000Y-10000000D01*
D10*
D11*
X35990476Y-11588095D02*
X35247619Y-11588095D01*
X35619048Y-11588095D02*
X35619048Y-10288095D01*
X35495238Y-10473810D01*
X35371429Y-10597619D01*
X35247619Y-10659524D01*
D10*
D11*
X85247619Y-10411905D02*
X85309524Y-10350000D01*
X85433333Y-10288095D01*
X85742857Y-10288095D01*
X85866667Y-10350000D01*
X85928571Y-10411905D01*
X85990476Y-10535714D01*
X85990476Y-10659524D01*
X85928571Y-10845238D01*
X85185714Y-11588095D01*
X85990476Y-11588095D01*
D10*
D11*
X135185714Y-10288095D02*
X135990476Y-10288095D01*
X135557143Y-10783333D01*
X135742857Y-10783333D01*
X135866667Y-10845238D01*
X135928571Y-10907143D01*
X135990476Y-11030952D01*
X135990476Y-11340476D01*
X135928571Y-11464286D01*
X135866667Y-11526190D01*
X135742857Y-11588095D01*
X135371429Y-11588095D01*
X135247619Y-11526190D01*
X135185714Y-11464286D01*
D10*
D11*
X185866667Y-10721429D02*
X185866667Y-11588095D01*
X185557143Y-10226190D02*
X185247619Y-11154762D01*
X186052381Y-11154762D01*
D10*
D11*
X235928571Y-10288095D02*
X235309524Y-10288095D01*
X235247619Y-10907143D01*
X235309524Y-10845238D01*
X235433333Y-10783333D01*
X235742857Y-10783333D01*
X235866667Y-10845238D01*
X235928571Y-10907143D01*
X235990476Y-11030952D01*
X235990476Y-11340476D01*
X235928571Y-11464286D01*
X235866667Y-11526190D01*
X235742857Y-11588095D01*
X235433333Y-11588095D01*
X235309524Y-11526190D01*
X235247619Y-11464286D01*
D10*
D11*
X285866667Y-10288095D02*
X285619048Y-10288095D01*
X285495238Y-10350000D01*
X285433333Y-10411905D01*
X285309524Y-10597619D01*
X285247619Y-10845238D01*
X285247619Y-11340476D01*
X285309524Y-11464286D01*
X285371429Y-11526190D01*
X285495238Y-11588095D01*
X285742857Y-11588095D01*
X285866667Y-11526190D01*
X285928571Y-11464286D01*
X285990476Y-11340476D01*
X285990476Y-11030952D01*
X285928571Y-10907143D01*
X285866667Y-10845238D01*
X285742857Y-10783333D01*
X285495238Y-10783333D01*
X285371429Y-10845238D01*
X285309524Y-10907143D01*
X285247619Y-11030952D01*
D10*
D11*
X60000000Y-198007200D02*
X60000000Y-200007200D01*
D10*
D11*
X110000000Y-198007200D02*
X110000000Y-200007200D01*
D10*
D11*
X160000000Y-198007200D02*
X160000000Y-200007200D01*
D10*
D11*
X210000000Y-198007200D02*
X210000000Y-200007200D01*
D10*
D11*
X260000000Y-198007200D02*
X260000000Y-200007200D01*
D10*
D11*
X35990476Y-199595295D02*
X35247619Y-199595295D01*
X35619048Y-199595295D02*
X35619048Y-198295295D01*
X35495238Y-198481010D01*
X35371429Y-198604819D01*
X35247619Y-198666724D01*
D10*
D11*
X85247619Y-198419105D02*
X85309524Y-198357200D01*
X85433333Y-198295295D01*
X85742857Y-198295295D01*
X85866667Y-198357200D01*
X85928571Y-198419105D01*
X85990476Y-198542914D01*
X85990476Y-198666724D01*
X85928571Y-198852438D01*
X85185714Y-199595295D01*
X85990476Y-199595295D01*
D10*
D11*
X135185714Y-198295295D02*
X135990476Y-198295295D01*
X135557143Y-198790533D01*
X135742857Y-198790533D01*
X135866667Y-198852438D01*
X135928571Y-198914343D01*
X135990476Y-199038152D01*
X135990476Y-199347676D01*
X135928571Y-199471486D01*
X135866667Y-199533390D01*
X135742857Y-199595295D01*
X135371429Y-199595295D01*
X135247619Y-199533390D01*
X135185714Y-199471486D01*
D10*
D11*
X185866667Y-198728629D02*
X185866667Y-199595295D01*
X185557143Y-198233390D02*
X185247619Y-199161962D01*
X186052381Y-199161962D01*
D10*
D11*
X235928571Y-198295295D02*
X235309524Y-198295295D01*
X235247619Y-198914343D01*
X235309524Y-198852438D01*
X235433333Y-198790533D01*
X235742857Y-198790533D01*
X235866667Y-198852438D01*
X235928571Y-198914343D01*
X235990476Y-199038152D01*
X235990476Y-199347676D01*
X235928571Y-199471486D01*
X235866667Y-199533390D01*
X235742857Y-199595295D01*
X235433333Y-199595295D01*
X235309524Y-199533390D01*
X235247619Y-199471486D01*
D10*
D11*
X285866667Y-198295295D02*
X285619048Y-198295295D01*
X285495238Y-198357200D01*
X285433333Y-198419105D01*
X285309524Y-198604819D01*
X285247619Y-198852438D01*
X285247619Y-199347676D01*
X285309524Y-199471486D01*
X285371429Y-199533390D01*
X285495238Y-199595295D01*
X285742857Y-199595295D01*
X285866667Y-199533390D01*
X285928571Y-199471486D01*
X285990476Y-199347676D01*
X285990476Y-199038152D01*
X285928571Y-198914343D01*
X285866667Y-198852438D01*
X285742857Y-198790533D01*
X285495238Y-198790533D01*
X285371429Y-198852438D01*
X285309524Y-198914343D01*
X285247619Y-199038152D01*
D10*
D11*
X10000000Y-60000000D02*
X12000000Y-60000000D01*
D10*
D11*
X10000000Y-110000000D02*
X12000000Y-110000000D01*
D10*
D11*
X10000000Y-160000000D02*
X12000000Y-160000000D01*
D10*
D11*
X10690476Y-35216667D02*
X11309524Y-35216667D01*
X10566667Y-35588095D02*
X11000000Y-34288095D01*
X11433333Y-35588095D01*
D10*
D11*
X11092857Y-84907143D02*
X11278571Y-84969048D01*
X11340476Y-85030952D01*
X11402381Y-85154762D01*
X11402381Y-85340476D01*
X11340476Y-85464286D01*
X11278571Y-85526190D01*
X11154762Y-85588095D01*
X10659524Y-85588095D01*
X10659524Y-84288095D01*
X11092857Y-84288095D01*
X11216667Y-84350000D01*
X11278571Y-84411905D01*
X11340476Y-84535714D01*
X11340476Y-84659524D01*
X11278571Y-84783333D01*
X11216667Y-84845238D01*
X11092857Y-84907143D01*
X10659524Y-84907143D01*
D10*
D11*
X11402381Y-135464286D02*
X11340476Y-135526190D01*
X11154762Y-135588095D01*
X11030952Y-135588095D01*
X10845238Y-135526190D01*
X10721429Y-135402381D01*
X10659524Y-135278571D01*
X10597619Y-135030952D01*
X10597619Y-134845238D01*
X10659524Y-134597619D01*
X10721429Y-134473810D01*
X10845238Y-134350000D01*
X11030952Y-134288095D01*
X11154762Y-134288095D01*
X11340476Y-134350000D01*
X11402381Y-134411905D01*
D10*
D11*
X10659524Y-185588095D02*
X10659524Y-184288095D01*
X10969048Y-184288095D01*
X11154762Y-184350000D01*
X11278571Y-184473810D01*
X11340476Y-184597619D01*
X11402381Y-184845238D01*
X11402381Y-185030952D01*
X11340476Y-185278571D01*
X11278571Y-185402381D01*
X11154762Y-185526190D01*
X10969048Y-185588095D01*
X10659524Y-185588095D01*
D10*
D11*
X287002200Y-60000000D02*
X285002200Y-60000000D01*
D10*
D11*
X287002200Y-110000000D02*
X285002200Y-110000000D01*
D10*
D11*
X287002200Y-160000000D02*
X285002200Y-160000000D01*
D10*
D11*
X285692676Y-35216667D02*
X286311724Y-35216667D01*
X285568867Y-35588095D02*
X286002200Y-34288095D01*
X286435533Y-35588095D01*
D10*
D11*
X286095057Y-84907143D02*
X286280771Y-84969048D01*
X286342676Y-85030952D01*
X286404581Y-85154762D01*
X286404581Y-85340476D01*
X286342676Y-85464286D01*
X286280771Y-85526190D01*
X286156962Y-85588095D01*
X285661724Y-85588095D01*
X285661724Y-84288095D01*
X286095057Y-84288095D01*
X286218867Y-84350000D01*
X286280771Y-84411905D01*
X286342676Y-84535714D01*
X286342676Y-84659524D01*
X286280771Y-84783333D01*
X286218867Y-84845238D01*
X286095057Y-84907143D01*
X285661724Y-84907143D01*
D10*
D11*
X286404581Y-135464286D02*
X286342676Y-135526190D01*
X286156962Y-135588095D01*
X286033152Y-135588095D01*
X285847438Y-135526190D01*
X285723629Y-135402381D01*
X285661724Y-135278571D01*
X285599819Y-135030952D01*
X285599819Y-134845238D01*
X285661724Y-134597619D01*
X285723629Y-134473810D01*
X285847438Y-134350000D01*
X286033152Y-134288095D01*
X286156962Y-134288095D01*
X286342676Y-134350000D01*
X286404581Y-134411905D01*
D10*
D11*
X285661724Y-185588095D02*
X285661724Y-184288095D01*
X285971248Y-184288095D01*
X286156962Y-184350000D01*
X286280771Y-184473810D01*
X286342676Y-184597619D01*
X286404581Y-184845238D01*
X286404581Y-185030952D01*
X286342676Y-185278571D01*
X286280771Y-185402381D01*
X286156962Y-185526190D01*
X285971248Y-185588095D01*
X285661724Y-185588095D01*
D10*
D11*
X200359343Y-193785771D02*
X200359343Y-192285771D01*
X200716486Y-192285771D01*
X200930771Y-192357200D01*
X201073629Y-192500057D01*
X201145057Y-192642914D01*
X201216486Y-192928629D01*
X201216486Y-193142914D01*
X201145057Y-193428629D01*
X201073629Y-193571486D01*
X200930771Y-193714343D01*
X200716486Y-193785771D01*
X200359343Y-193785771D01*
X202502200Y-193785771D02*
X202502200Y-193000057D01*
X202430771Y-192857200D01*
X202287914Y-192785771D01*
X202002200Y-192785771D01*
X201859343Y-192857200D01*
X202502200Y-193714343D02*
X202359343Y-193785771D01*
X202002200Y-193785771D01*
X201859343Y-193714343D01*
X201787914Y-193571486D01*
X201787914Y-193428629D01*
X201859343Y-193285771D01*
X202002200Y-193214343D01*
X202359343Y-193214343D01*
X202502200Y-193142914D01*
X203002200Y-192785771D02*
X203573629Y-192785771D01*
X203216486Y-192285771D02*
X203216486Y-193571486D01*
X203287914Y-193714343D01*
X203430772Y-193785771D01*
X203573629Y-193785771D01*
X204645057Y-193714343D02*
X204502200Y-193785771D01*
X204216486Y-193785771D01*
X204073629Y-193714343D01*
X204002200Y-193571486D01*
X204002200Y-193000057D01*
X204073629Y-192857200D01*
X204216486Y-192785771D01*
X204502200Y-192785771D01*
X204645057Y-192857200D01*
X204716486Y-193000057D01*
X204716486Y-193142914D01*
X204002200Y-193285771D01*
X205359343Y-193642914D02*
X205430771Y-193714343D01*
X205359343Y-193785771D01*
X205287914Y-193714343D01*
X205359343Y-193642914D01*
X205359343Y-193785771D01*
X205359343Y-192857200D02*
X205430771Y-192928629D01*
X205359343Y-193000057D01*
X205287914Y-192928629D01*
X205359343Y-192857200D01*
X205359343Y-193000057D01*
D10*
D11*
X177002200Y-194507200D02*
X285002200Y-194507200D01*
D10*
D11*
X178359343Y-196585771D02*
X178359343Y-195085771D01*
X179216486Y-196585771D02*
X178573629Y-195728629D01*
X179216486Y-195085771D02*
X178359343Y-195942914D01*
X179859343Y-196585771D02*
X179859343Y-195585771D01*
X179859343Y-195085771D02*
X179787914Y-195157200D01*
X179859343Y-195228629D01*
X179930771Y-195157200D01*
X179859343Y-195085771D01*
X179859343Y-195228629D01*
X181430772Y-196442914D02*
X181359343Y-196514343D01*
X181145057Y-196585771D01*
X181002200Y-196585771D01*
X180787915Y-196514343D01*
X180645057Y-196371486D01*
X180573629Y-196228629D01*
X180502200Y-195942914D01*
X180502200Y-195728629D01*
X180573629Y-195442914D01*
X180645057Y-195300057D01*
X180787915Y-195157200D01*
X181002200Y-195085771D01*
X181145057Y-195085771D01*
X181359343Y-195157200D01*
X181430772Y-195228629D01*
X182716486Y-196585771D02*
X182716486Y-195800057D01*
X182645057Y-195657200D01*
X182502200Y-195585771D01*
X182216486Y-195585771D01*
X182073629Y-195657200D01*
X182716486Y-196514343D02*
X182573629Y-196585771D01*
X182216486Y-196585771D01*
X182073629Y-196514343D01*
X182002200Y-196371486D01*
X182002200Y-196228629D01*
X182073629Y-196085771D01*
X182216486Y-196014343D01*
X182573629Y-196014343D01*
X182716486Y-195942914D01*
X184073629Y-196585771D02*
X184073629Y-195085771D01*
X184073629Y-196514343D02*
X183930772Y-196585771D01*
X183645058Y-196585771D01*
X183502200Y-196514343D01*
X183430772Y-196442914D01*
X183359343Y-196300057D01*
X183359343Y-195871486D01*
X183430772Y-195728629D01*
X183502200Y-195657200D01*
X183645058Y-195585771D01*
X183930772Y-195585771D01*
X184073629Y-195657200D01*
X185930772Y-195800057D02*
X186430772Y-195800057D01*
X186645058Y-196585771D02*
X185930772Y-196585771D01*
X185930772Y-195085771D01*
X186645058Y-195085771D01*
X187287915Y-196442914D02*
X187359343Y-196514343D01*
X187287915Y-196585771D01*
X187216486Y-196514343D01*
X187287915Y-196442914D01*
X187287915Y-196585771D01*
X188002201Y-196585771D02*
X188002201Y-195085771D01*
X188359344Y-195085771D01*
X188573629Y-195157200D01*
X188716487Y-195300057D01*
X188787915Y-195442914D01*
X188859344Y-195728629D01*
X188859344Y-195942914D01*
X188787915Y-196228629D01*
X188716487Y-196371486D01*
X188573629Y-196514343D01*
X188359344Y-196585771D01*
X188002201Y-196585771D01*
X189502201Y-196442914D02*
X189573629Y-196514343D01*
X189502201Y-196585771D01*
X189430772Y-196514343D01*
X189502201Y-196442914D01*
X189502201Y-196585771D01*
X190145058Y-196157200D02*
X190859344Y-196157200D01*
X190002201Y-196585771D02*
X190502201Y-195085771D01*
X191002201Y-196585771D01*
X191502201Y-196442914D02*
X191573629Y-196514343D01*
X191502201Y-196585771D01*
X191430772Y-196514343D01*
X191502201Y-196442914D01*
X191502201Y-196585771D01*
X194502201Y-196585771D02*
X194502201Y-195085771D01*
X194645058Y-196014343D02*
X195073629Y-196585771D01*
X195073629Y-195585771D02*
X194502201Y-196157200D01*
X195716487Y-196585771D02*
X195716487Y-195585771D01*
X195716487Y-195085771D02*
X195645058Y-195157200D01*
X195716487Y-195228629D01*
X195787915Y-195157200D01*
X195716487Y-195085771D01*
X195716487Y-195228629D01*
X197073630Y-196514343D02*
X196930773Y-196585771D01*
X196645059Y-196585771D01*
X196502201Y-196514343D01*
X196430773Y-196442914D01*
X196359344Y-196300057D01*
X196359344Y-195871486D01*
X196430773Y-195728629D01*
X196502201Y-195657200D01*
X196645059Y-195585771D01*
X196930773Y-195585771D01*
X197073630Y-195657200D01*
X198359344Y-196585771D02*
X198359344Y-195800057D01*
X198287915Y-195657200D01*
X198145058Y-195585771D01*
X197859344Y-195585771D01*
X197716487Y-195657200D01*
X198359344Y-196514343D02*
X198216487Y-196585771D01*
X197859344Y-196585771D01*
X197716487Y-196514343D01*
X197645058Y-196371486D01*
X197645058Y-196228629D01*
X197716487Y-196085771D01*
X197859344Y-196014343D01*
X198216487Y-196014343D01*
X198359344Y-195942914D01*
X199716487Y-196585771D02*
X199716487Y-195085771D01*
X199716487Y-196514343D02*
X199573630Y-196585771D01*
X199287916Y-196585771D01*
X199145058Y-196514343D01*
X199073630Y-196442914D01*
X199002201Y-196300057D01*
X199002201Y-195871486D01*
X199073630Y-195728629D01*
X199145058Y-195657200D01*
X199287916Y-195585771D01*
X199573630Y-195585771D01*
X199716487Y-195657200D01*
X202216487Y-195585771D02*
X202216487Y-196585771D01*
X201859344Y-195014343D02*
X201502201Y-196085771D01*
X202430773Y-196085771D01*
X203002201Y-196442914D02*
X203073629Y-196514343D01*
X203002201Y-196585771D01*
X202930772Y-196514343D01*
X203002201Y-196442914D01*
X203002201Y-196585771D01*
X204002201Y-195085771D02*
X204145058Y-195085771D01*
X204287915Y-195157200D01*
X204359344Y-195228629D01*
X204430773Y-195371486D01*
X204502201Y-195657200D01*
X204502201Y-196014343D01*
X204430773Y-196300057D01*
X204359344Y-196442914D01*
X204287915Y-196514343D01*
X204145058Y-196585771D01*
X204002201Y-196585771D01*
X203859344Y-196514343D01*
X203787915Y-196442914D01*
X203716487Y-196300057D01*
X203645058Y-196014343D01*
X203645058Y-195657200D01*
X203716487Y-195371486D01*
X203787915Y-195228629D01*
X203859344Y-195157200D01*
X204002201Y-195085771D01*
X205145058Y-196442914D02*
X205216486Y-196514343D01*
X205145058Y-196585771D01*
X205073629Y-196514343D01*
X205145058Y-196442914D01*
X205145058Y-196585771D01*
X206502201Y-195585771D02*
X206502201Y-196585771D01*
X206145058Y-195014343D02*
X205787915Y-196085771D01*
X206716487Y-196085771D01*
X207287915Y-196014343D02*
X208430772Y-196014343D01*
X207859343Y-196585771D02*
X207859343Y-195442914D01*
X209716486Y-196514343D02*
X209573629Y-196585771D01*
X209287915Y-196585771D01*
X209145058Y-196514343D01*
X209073629Y-196371486D01*
X209073629Y-195800057D01*
X209145058Y-195657200D01*
X209287915Y-195585771D01*
X209573629Y-195585771D01*
X209716486Y-195657200D01*
X209787915Y-195800057D01*
X209787915Y-195942914D01*
X209073629Y-196085771D01*
X211216486Y-196585771D02*
X210359343Y-196585771D01*
X210787915Y-196585771D02*
X210787915Y-195085771D01*
X210645058Y-195300057D01*
X210502200Y-195442914D01*
X210359343Y-195514343D01*
X211859343Y-196014343D02*
X213002200Y-196014343D01*
X214359343Y-195085771D02*
X214073629Y-195085771D01*
X213930772Y-195157200D01*
X213859343Y-195228629D01*
X213716486Y-195442914D01*
X213645057Y-195728629D01*
X213645057Y-196300057D01*
X213716486Y-196442914D01*
X213787914Y-196514343D01*
X213930772Y-196585771D01*
X214216486Y-196585771D01*
X214359343Y-196514343D01*
X214430772Y-196442914D01*
X214502200Y-196300057D01*
X214502200Y-195942914D01*
X214430772Y-195800057D01*
X214359343Y-195728629D01*
X214216486Y-195657200D01*
X213930772Y-195657200D01*
X213787914Y-195728629D01*
X213716486Y-195800057D01*
X213645057Y-195942914D01*
X215002200Y-195085771D02*
X215930771Y-195085771D01*
X215430771Y-195657200D01*
X215645057Y-195657200D01*
X215787914Y-195728629D01*
X215859343Y-195800057D01*
X215930771Y-195942914D01*
X215930771Y-196300057D01*
X215859343Y-196442914D01*
X215787914Y-196514343D01*
X215645057Y-196585771D01*
X215216485Y-196585771D01*
X215073628Y-196514343D01*
X215002200Y-196442914D01*
X216859342Y-195085771D02*
X217002199Y-195085771D01*
X217145056Y-195157200D01*
X217216485Y-195228629D01*
X217287914Y-195371486D01*
X217359342Y-195657200D01*
X217359342Y-196014343D01*
X217287914Y-196300057D01*
X217216485Y-196442914D01*
X217145056Y-196514343D01*
X217002199Y-196585771D01*
X216859342Y-196585771D01*
X216716485Y-196514343D01*
X216645056Y-196442914D01*
X216573628Y-196300057D01*
X216502199Y-196014343D01*
X216502199Y-195657200D01*
X216573628Y-195371486D01*
X216645056Y-195228629D01*
X216716485Y-195157200D01*
X216859342Y-195085771D01*
X218216485Y-195728629D02*
X218073627Y-195657200D01*
X218002199Y-195585771D01*
X217930770Y-195442914D01*
X217930770Y-195371486D01*
X218002199Y-195228629D01*
X218073627Y-195157200D01*
X218216485Y-195085771D01*
X218502199Y-195085771D01*
X218645056Y-195157200D01*
X218716485Y-195228629D01*
X218787913Y-195371486D01*
X218787913Y-195442914D01*
X218716485Y-195585771D01*
X218645056Y-195657200D01*
X218502199Y-195728629D01*
X218216485Y-195728629D01*
X218073627Y-195800057D01*
X218002199Y-195871486D01*
X217930770Y-196014343D01*
X217930770Y-196300057D01*
X218002199Y-196442914D01*
X218073627Y-196514343D01*
X218216485Y-196585771D01*
X218502199Y-196585771D01*
X218645056Y-196514343D01*
X218716485Y-196442914D01*
X218787913Y-196300057D01*
X218787913Y-196014343D01*
X218716485Y-195871486D01*
X218645056Y-195800057D01*
X218502199Y-195728629D01*
X220073627Y-195585771D02*
X220073627Y-196585771D01*
X219716484Y-195014343D02*
X219359341Y-196085771D01*
X220287913Y-196085771D01*
X221073627Y-195728629D02*
X220930769Y-195657200D01*
X220859341Y-195585771D01*
X220787912Y-195442914D01*
X220787912Y-195371486D01*
X220859341Y-195228629D01*
X220930769Y-195157200D01*
X221073627Y-195085771D01*
X221359341Y-195085771D01*
X221502198Y-195157200D01*
X221573627Y-195228629D01*
X221645055Y-195371486D01*
X221645055Y-195442914D01*
X221573627Y-195585771D01*
X221502198Y-195657200D01*
X221359341Y-195728629D01*
X221073627Y-195728629D01*
X220930769Y-195800057D01*
X220859341Y-195871486D01*
X220787912Y-196014343D01*
X220787912Y-196300057D01*
X220859341Y-196442914D01*
X220930769Y-196514343D01*
X221073627Y-196585771D01*
X221359341Y-196585771D01*
X221502198Y-196514343D01*
X221573627Y-196442914D01*
X221645055Y-196300057D01*
X221645055Y-196014343D01*
X221573627Y-195871486D01*
X221502198Y-195800057D01*
X221359341Y-195728629D01*
X219073627Y-194827200D02*
X221930769Y-194827200D01*
X222930769Y-195585771D02*
X222930769Y-196585771D01*
X222287912Y-195585771D02*
X222287912Y-196371486D01*
X222359340Y-196514343D01*
X222502198Y-196585771D01*
X222716483Y-196585771D01*
X222859340Y-196514343D01*
X222930769Y-196442914D01*
X223645055Y-196585771D02*
X223645055Y-195085771D01*
X223645055Y-195657200D02*
X223787912Y-195585771D01*
X224073626Y-195585771D01*
X224216483Y-195657200D01*
X224287912Y-195728629D01*
X224359341Y-195871486D01*
X224359341Y-196300057D01*
X224287912Y-196442914D01*
X224216483Y-196514343D01*
X224073626Y-196585771D01*
X223787912Y-196585771D01*
X223645055Y-196514343D01*
X225645055Y-195585771D02*
X225645055Y-196585771D01*
X225002198Y-195585771D02*
X225002198Y-196371486D01*
X225073626Y-196514343D01*
X225216484Y-196585771D01*
X225430769Y-196585771D01*
X225573626Y-196514343D01*
X225645055Y-196442914D01*
X226359341Y-195585771D02*
X226359341Y-196585771D01*
X226359341Y-195728629D02*
X226430769Y-195657200D01*
X226573627Y-195585771D01*
X226787912Y-195585771D01*
X226930769Y-195657200D01*
X227002198Y-195800057D01*
X227002198Y-196585771D01*
X227502198Y-195585771D02*
X228073627Y-195585771D01*
X227716484Y-195085771D02*
X227716484Y-196371486D01*
X227787912Y-196514343D01*
X227930770Y-196585771D01*
X228073627Y-196585771D01*
X229216484Y-195585771D02*
X229216484Y-196585771D01*
X228573627Y-195585771D02*
X228573627Y-196371486D01*
X228645055Y-196514343D01*
X228787913Y-196585771D01*
X229002198Y-196585771D01*
X229145055Y-196514343D01*
X229216484Y-196442914D01*
X230716484Y-196585771D02*
X229859341Y-196585771D01*
X230287913Y-196585771D02*
X230287913Y-195085771D01*
X230145056Y-195300057D01*
X230002198Y-195442914D01*
X229859341Y-195514343D01*
X232002198Y-195585771D02*
X232002198Y-196585771D01*
X231645055Y-195014343D02*
X231287912Y-196085771D01*
X232216484Y-196085771D01*
X232787912Y-196442914D02*
X232859340Y-196514343D01*
X232787912Y-196585771D01*
X232716483Y-196514343D01*
X232787912Y-196442914D01*
X232787912Y-196585771D01*
X233787912Y-195085771D02*
X233930769Y-195085771D01*
X234073626Y-195157200D01*
X234145055Y-195228629D01*
X234216484Y-195371486D01*
X234287912Y-195657200D01*
X234287912Y-196014343D01*
X234216484Y-196300057D01*
X234145055Y-196442914D01*
X234073626Y-196514343D01*
X233930769Y-196585771D01*
X233787912Y-196585771D01*
X233645055Y-196514343D01*
X233573626Y-196442914D01*
X233502198Y-196300057D01*
X233430769Y-196014343D01*
X233430769Y-195657200D01*
X233502198Y-195371486D01*
X233573626Y-195228629D01*
X233645055Y-195157200D01*
X233787912Y-195085771D01*
X235573626Y-195585771D02*
X235573626Y-196585771D01*
X235216483Y-195014343D02*
X234859340Y-196085771D01*
X235787912Y-196085771D01*
X236359340Y-196442914D02*
X236430768Y-196514343D01*
X236359340Y-196585771D01*
X236287911Y-196514343D01*
X236359340Y-196442914D01*
X236359340Y-196585771D01*
X237859340Y-196585771D02*
X237002197Y-196585771D01*
X237430769Y-196585771D02*
X237430769Y-195085771D01*
X237287912Y-195300057D01*
X237145054Y-195442914D01*
X237002197Y-195514343D01*
X238502197Y-196014343D02*
X239645054Y-196014343D01*
X240287911Y-196514343D02*
X240430768Y-196585771D01*
X240716483Y-196585771D01*
X240859340Y-196514343D01*
X240930768Y-196371486D01*
X240930768Y-196300057D01*
X240859340Y-196157200D01*
X240716483Y-196085771D01*
X240502197Y-196085771D01*
X240359340Y-196014343D01*
X240287911Y-195871486D01*
X240287911Y-195800057D01*
X240359340Y-195657200D01*
X240502197Y-195585771D01*
X240716483Y-195585771D01*
X240859340Y-195657200D01*
X241359340Y-195585771D02*
X241930769Y-195585771D01*
X241573626Y-195085771D02*
X241573626Y-196371486D01*
X241645054Y-196514343D01*
X241787912Y-196585771D01*
X241930769Y-196585771D01*
X243073626Y-196585771D02*
X243073626Y-195800057D01*
X243002197Y-195657200D01*
X242859340Y-195585771D01*
X242573626Y-195585771D01*
X242430769Y-195657200D01*
X243073626Y-196514343D02*
X242930769Y-196585771D01*
X242573626Y-196585771D01*
X242430769Y-196514343D01*
X242359340Y-196371486D01*
X242359340Y-196228629D01*
X242430769Y-196085771D01*
X242573626Y-196014343D01*
X242930769Y-196014343D01*
X243073626Y-195942914D01*
X243787912Y-196585771D02*
X243787912Y-195085771D01*
X243787912Y-195657200D02*
X243930769Y-195585771D01*
X244216483Y-195585771D01*
X244359340Y-195657200D01*
X244430769Y-195728629D01*
X244502198Y-195871486D01*
X244502198Y-196300057D01*
X244430769Y-196442914D01*
X244359340Y-196514343D01*
X244216483Y-196585771D01*
X243930769Y-196585771D01*
X243787912Y-196514343D01*
X245359341Y-196585771D02*
X245216483Y-196514343D01*
X245145055Y-196371486D01*
X245145055Y-195085771D01*
X246502197Y-196514343D02*
X246359340Y-196585771D01*
X246073626Y-196585771D01*
X245930769Y-196514343D01*
X245859340Y-196371486D01*
X245859340Y-195800057D01*
X245930769Y-195657200D01*
X246073626Y-195585771D01*
X246359340Y-195585771D01*
X246502197Y-195657200D01*
X246573626Y-195800057D01*
X246573626Y-195942914D01*
X245859340Y-196085771D01*
D10*
D11*
X177002200Y-191507200D02*
X285002200Y-191507200D01*
D10*
D12*
X264216486Y-193785771D02*
X263716486Y-193071486D01*
X263359343Y-193785771D02*
X263359343Y-192285771D01*
X263930771Y-192285771D01*
X264073629Y-192357200D01*
X264145057Y-192428629D01*
X264216486Y-192571486D01*
X264216486Y-192785771D01*
X264145057Y-192928629D01*
X264073629Y-193000057D01*
X263930771Y-193071486D01*
X263359343Y-193071486D01*
X265430771Y-193714343D02*
X265287914Y-193785771D01*
X265002200Y-193785771D01*
X264859343Y-193714343D01*
X264787914Y-193571486D01*
X264787914Y-193000057D01*
X264859343Y-192857200D01*
X265002200Y-192785771D01*
X265287914Y-192785771D01*
X265430771Y-192857200D01*
X265502200Y-193000057D01*
X265502200Y-193142914D01*
X264787914Y-193285771D01*
X266002200Y-192785771D02*
X266359343Y-193785771D01*
X266716485Y-192785771D01*
X267287914Y-193642914D02*
X267359342Y-193714343D01*
X267287914Y-193785771D01*
X267216485Y-193714343D01*
X267287914Y-193642914D01*
X267287914Y-193785771D01*
X267287914Y-192857200D02*
X267359342Y-192928629D01*
X267287914Y-193000057D01*
X267216485Y-192928629D01*
X267287914Y-192857200D01*
X267287914Y-193000057D01*
D10*
D11*
X178287914Y-193714343D02*
X178502200Y-193785771D01*
X178859343Y-193785771D01*
X179002200Y-193714343D01*
X179073629Y-193642914D01*
X179145057Y-193500057D01*
X179145057Y-193357200D01*
X179073629Y-193214343D01*
X179002200Y-193142914D01*
X178859343Y-193071486D01*
X178573629Y-193000057D01*
X178430771Y-192928629D01*
X178359343Y-192857200D01*
X178287914Y-192714343D01*
X178287914Y-192571486D01*
X178359343Y-192428629D01*
X178430771Y-192357200D01*
X178573629Y-192285771D01*
X178930771Y-192285771D01*
X179145057Y-192357200D01*
X179787914Y-193785771D02*
X179787914Y-192785771D01*
X179787914Y-192285771D02*
X179716485Y-192357200D01*
X179787914Y-192428629D01*
X179859342Y-192357200D01*
X179787914Y-192285771D01*
X179787914Y-192428629D01*
X180359343Y-192785771D02*
X181145057Y-192785771D01*
X180359343Y-193785771D01*
X181145057Y-193785771D01*
X182287914Y-193714343D02*
X182145057Y-193785771D01*
X181859343Y-193785771D01*
X181716486Y-193714343D01*
X181645057Y-193571486D01*
X181645057Y-193000057D01*
X181716486Y-192857200D01*
X181859343Y-192785771D01*
X182145057Y-192785771D01*
X182287914Y-192857200D01*
X182359343Y-193000057D01*
X182359343Y-193142914D01*
X181645057Y-193285771D01*
X183002200Y-193642914D02*
X183073628Y-193714343D01*
X183002200Y-193785771D01*
X182930771Y-193714343D01*
X183002200Y-193642914D01*
X183002200Y-193785771D01*
X183002200Y-192857200D02*
X183073628Y-192928629D01*
X183002200Y-193000057D01*
X182930771Y-192928629D01*
X183002200Y-192857200D01*
X183002200Y-193000057D01*
X184787914Y-193357200D02*
X185502200Y-193357200D01*
X184645057Y-193785771D02*
X185145057Y-192285771D01*
X185645057Y-193785771D01*
X186787914Y-192785771D02*
X186787914Y-193785771D01*
X186430771Y-192214343D02*
X186073628Y-193285771D01*
X187002200Y-193285771D01*
D10*
D11*
X263359343Y-196585771D02*
X263359343Y-195085771D01*
X264716486Y-196585771D02*
X264716486Y-195085771D01*
X264716486Y-196514343D02*
X264573629Y-196585771D01*
X264287915Y-196585771D01*
X264145057Y-196514343D01*
X264073629Y-196442914D01*
X264002200Y-196300057D01*
X264002200Y-195871486D01*
X264073629Y-195728629D01*
X264145057Y-195657200D01*
X264287915Y-195585771D01*
X264573629Y-195585771D01*
X264716486Y-195657200D01*
X265430772Y-196442914D02*
X265502200Y-196514343D01*
X265430772Y-196585771D01*
X265359343Y-196514343D01*
X265430772Y-196442914D01*
X265430772Y-196585771D01*
X265430772Y-195657200D02*
X265502200Y-195728629D01*
X265430772Y-195800057D01*
X265359343Y-195728629D01*
X265430772Y-195657200D01*
X265430772Y-195800057D01*
X268073629Y-196585771D02*
X267216486Y-196585771D01*
X267645058Y-196585771D02*
X267645058Y-195085771D01*
X267502201Y-195300057D01*
X267359343Y-195442914D01*
X267216486Y-195514343D01*
X269787914Y-195014343D02*
X268502200Y-196942914D01*
X271073629Y-196585771D02*
X270216486Y-196585771D01*
X270645058Y-196585771D02*
X270645058Y-195085771D01*
X270502201Y-195300057D01*
X270359343Y-195442914D01*
X270216486Y-195514343D01*
D10*
D11*
X177002200Y-187507200D02*
X285002200Y-187507200D01*
D10*
D13*
X178454581Y-188211962D02*
X179597438Y-188211962D01*
X178776010Y-190211962D02*
X179026010Y-188211962D01*
X180014105Y-190211962D02*
X180180771Y-188878629D01*
X180264105Y-188211962D02*
X180156962Y-188307200D01*
X180240295Y-188402438D01*
X180347439Y-188307200D01*
X180264105Y-188211962D01*
X180240295Y-188402438D01*
X180847438Y-188878629D02*
X181609343Y-188878629D01*
X181216486Y-188211962D02*
X181002200Y-189926248D01*
X181073630Y-190116724D01*
X181252201Y-190211962D01*
X181442677Y-190211962D01*
X182395058Y-190211962D02*
X182216487Y-190116724D01*
X182145057Y-189926248D01*
X182359343Y-188211962D01*
X183930772Y-190116724D02*
X183728391Y-190211962D01*
X183347439Y-190211962D01*
X183168867Y-190116724D01*
X183097438Y-189926248D01*
X183192676Y-189164343D01*
X183311724Y-188973867D01*
X183514105Y-188878629D01*
X183895057Y-188878629D01*
X184073629Y-188973867D01*
X184145057Y-189164343D01*
X184121248Y-189354819D01*
X183145057Y-189545295D01*
X184895057Y-190021486D02*
X184978392Y-190116724D01*
X184871248Y-190211962D01*
X184787915Y-190116724D01*
X184895057Y-190021486D01*
X184871248Y-190211962D01*
X185026010Y-188973867D02*
X185109344Y-189069105D01*
X185002200Y-189164343D01*
X184918867Y-189069105D01*
X185026010Y-188973867D01*
X185002200Y-189164343D01*
D10*
D11*
X178859343Y-185600057D02*
X178359343Y-185600057D01*
X178359343Y-186385771D02*
X178359343Y-184885771D01*
X179073629Y-184885771D01*
X179645057Y-186385771D02*
X179645057Y-185385771D01*
X179645057Y-184885771D02*
X179573628Y-184957200D01*
X179645057Y-185028629D01*
X179716485Y-184957200D01*
X179645057Y-184885771D01*
X179645057Y-185028629D01*
X180573629Y-186385771D02*
X180430771Y-186314343D01*
X180359343Y-186171486D01*
X180359343Y-184885771D01*
X181716485Y-186314343D02*
X181573628Y-186385771D01*
X181287914Y-186385771D01*
X181145057Y-186314343D01*
X181073628Y-186171486D01*
X181073628Y-185600057D01*
X181145057Y-185457200D01*
X181287914Y-185385771D01*
X181573628Y-185385771D01*
X181716485Y-185457200D01*
X181787914Y-185600057D01*
X181787914Y-185742914D01*
X181073628Y-185885771D01*
X182430771Y-186242914D02*
X182502199Y-186314343D01*
X182430771Y-186385771D01*
X182359342Y-186314343D01*
X182430771Y-186242914D01*
X182430771Y-186385771D01*
X182430771Y-185457200D02*
X182502199Y-185528629D01*
X182430771Y-185600057D01*
X182359342Y-185528629D01*
X182430771Y-185457200D01*
X182430771Y-185600057D01*
X184073628Y-185385771D02*
X184645057Y-185385771D01*
X184287914Y-186385771D02*
X184287914Y-185100057D01*
X184359342Y-184957200D01*
X184502200Y-184885771D01*
X184645057Y-184885771D01*
X185359343Y-186385771D02*
X185216485Y-186314343D01*
X185145057Y-186171486D01*
X185145057Y-184885771D01*
X185787914Y-185385771D02*
X186145057Y-186385771D01*
X186502199Y-185385771D02*
X186145057Y-186385771D01*
X186002199Y-186742914D01*
X185930771Y-186814343D01*
X185787914Y-186885771D01*
X187073628Y-185385771D02*
X187073628Y-186885771D01*
X187073628Y-185457200D02*
X187216485Y-185385771D01*
X187502199Y-185385771D01*
X187645056Y-185457200D01*
X187716485Y-185528629D01*
X187787914Y-185671486D01*
X187787914Y-186100057D01*
X187716485Y-186242914D01*
X187645056Y-186314343D01*
X187502199Y-186385771D01*
X187216485Y-186385771D01*
X187073628Y-186314343D01*
X188430771Y-186385771D02*
X188430771Y-185385771D01*
X188430771Y-184885771D02*
X188359342Y-184957200D01*
X188430771Y-185028629D01*
X188502199Y-184957200D01*
X188430771Y-184885771D01*
X188430771Y-185028629D01*
X189145057Y-186242914D02*
X189216485Y-186314343D01*
X189145057Y-186385771D01*
X189073628Y-186314343D01*
X189145057Y-186242914D01*
X189145057Y-186385771D01*
X189859343Y-186385771D02*
X189859343Y-184885771D01*
X190002200Y-185814343D02*
X190430771Y-186385771D01*
X190430771Y-185385771D02*
X189859343Y-185957200D01*
X191073629Y-186385771D02*
X191073629Y-185385771D01*
X191073629Y-184885771D02*
X191002200Y-184957200D01*
X191073629Y-185028629D01*
X191145057Y-184957200D01*
X191073629Y-184885771D01*
X191073629Y-185028629D01*
X192430772Y-186314343D02*
X192287915Y-186385771D01*
X192002201Y-186385771D01*
X191859343Y-186314343D01*
X191787915Y-186242914D01*
X191716486Y-186100057D01*
X191716486Y-185671486D01*
X191787915Y-185528629D01*
X191859343Y-185457200D01*
X192002201Y-185385771D01*
X192287915Y-185385771D01*
X192430772Y-185457200D01*
X193716486Y-186385771D02*
X193716486Y-185600057D01*
X193645057Y-185457200D01*
X193502200Y-185385771D01*
X193216486Y-185385771D01*
X193073629Y-185457200D01*
X193716486Y-186314343D02*
X193573629Y-186385771D01*
X193216486Y-186385771D01*
X193073629Y-186314343D01*
X193002200Y-186171486D01*
X193002200Y-186028629D01*
X193073629Y-185885771D01*
X193216486Y-185814343D01*
X193573629Y-185814343D01*
X193716486Y-185742914D01*
X195073629Y-186385771D02*
X195073629Y-184885771D01*
X195073629Y-186314343D02*
X194930772Y-186385771D01*
X194645058Y-186385771D01*
X194502200Y-186314343D01*
X194430772Y-186242914D01*
X194359343Y-186100057D01*
X194359343Y-185671486D01*
X194430772Y-185528629D01*
X194502200Y-185457200D01*
X194645058Y-185385771D01*
X194930772Y-185385771D01*
X195073629Y-185457200D01*
X195430772Y-186528629D02*
X196573629Y-186528629D01*
X196930772Y-185385771D02*
X196930772Y-186885771D01*
X196930772Y-185457200D02*
X197073629Y-185385771D01*
X197359343Y-185385771D01*
X197502200Y-185457200D01*
X197573629Y-185528629D01*
X197645058Y-185671486D01*
X197645058Y-186100057D01*
X197573629Y-186242914D01*
X197502200Y-186314343D01*
X197359343Y-186385771D01*
X197073629Y-186385771D01*
X196930772Y-186314343D01*
X198930772Y-186314343D02*
X198787915Y-186385771D01*
X198502201Y-186385771D01*
X198359343Y-186314343D01*
X198287915Y-186242914D01*
X198216486Y-186100057D01*
X198216486Y-185671486D01*
X198287915Y-185528629D01*
X198359343Y-185457200D01*
X198502201Y-185385771D01*
X198787915Y-185385771D01*
X198930772Y-185457200D01*
X199573629Y-186385771D02*
X199573629Y-184885771D01*
X199573629Y-185457200D02*
X199716486Y-185385771D01*
X200002200Y-185385771D01*
X200145057Y-185457200D01*
X200216486Y-185528629D01*
X200287915Y-185671486D01*
X200287915Y-186100057D01*
X200216486Y-186242914D01*
X200145057Y-186314343D01*
X200002200Y-186385771D01*
X199716486Y-186385771D01*
X199573629Y-186314343D01*
D10*
D11*
X177002200Y-181507200D02*
X285002200Y-181507200D01*
D10*
D11*
X178287914Y-183614343D02*
X178502200Y-183685771D01*
X178859343Y-183685771D01*
X179002200Y-183614343D01*
X179073629Y-183542914D01*
X179145057Y-183400057D01*
X179145057Y-183257200D01*
X179073629Y-183114343D01*
X179002200Y-183042914D01*
X178859343Y-182971486D01*
X178573629Y-182900057D01*
X178430771Y-182828629D01*
X178359343Y-182757200D01*
X178287914Y-182614343D01*
X178287914Y-182471486D01*
X178359343Y-182328629D01*
X178430771Y-182257200D01*
X178573629Y-182185771D01*
X178930771Y-182185771D01*
X179145057Y-182257200D01*
X179787914Y-183685771D02*
X179787914Y-182185771D01*
X180430771Y-183685771D02*
X180430771Y-182900057D01*
X180359342Y-182757200D01*
X180216485Y-182685771D01*
X180002200Y-182685771D01*
X179859342Y-182757200D01*
X179787914Y-182828629D01*
X181716485Y-183614343D02*
X181573628Y-183685771D01*
X181287914Y-183685771D01*
X181145057Y-183614343D01*
X181073628Y-183471486D01*
X181073628Y-182900057D01*
X181145057Y-182757200D01*
X181287914Y-182685771D01*
X181573628Y-182685771D01*
X181716485Y-182757200D01*
X181787914Y-182900057D01*
X181787914Y-183042914D01*
X181073628Y-183185771D01*
X183002199Y-183614343D02*
X182859342Y-183685771D01*
X182573628Y-183685771D01*
X182430771Y-183614343D01*
X182359342Y-183471486D01*
X182359342Y-182900057D01*
X182430771Y-182757200D01*
X182573628Y-182685771D01*
X182859342Y-182685771D01*
X183002199Y-182757200D01*
X183073628Y-182900057D01*
X183073628Y-183042914D01*
X182359342Y-183185771D01*
X183502199Y-182685771D02*
X184073628Y-182685771D01*
X183716485Y-182185771D02*
X183716485Y-183471486D01*
X183787913Y-183614343D01*
X183930771Y-183685771D01*
X184073628Y-183685771D01*
X184573628Y-183542914D02*
X184645056Y-183614343D01*
X184573628Y-183685771D01*
X184502199Y-183614343D01*
X184573628Y-183542914D01*
X184573628Y-183685771D01*
X184573628Y-182757200D02*
X184645056Y-182828629D01*
X184573628Y-182900057D01*
X184502199Y-182828629D01*
X184573628Y-182757200D01*
X184573628Y-182900057D01*
D10*
D11*
X197002200Y-191507200D02*
X197002200Y-194507200D01*
D10*
D11*
X261002200Y-191507200D02*
X261002200Y-198007200D01*
X165714286Y-61452381D02*
X165523809Y-61452381D01*
X165428571Y-61500000D01*
X165380952Y-61547619D01*
X165285714Y-61690476D01*
X165238095Y-61880952D01*
X165238095Y-62261905D01*
X165285714Y-62357143D01*
X165333333Y-62404762D01*
X165428571Y-62452381D01*
X165619048Y-62452381D01*
X165714286Y-62404762D01*
X165761905Y-62357143D01*
X165809524Y-62261905D01*
X165809524Y-62023810D01*
X165761905Y-61928571D01*
X165714286Y-61880952D01*
X165619048Y-61833333D01*
X165428571Y-61833333D01*
X165333333Y-61880952D01*
X165285714Y-61928571D01*
X165238095Y-62023810D01*
X166380952Y-61880952D02*
X166285714Y-61833333D01*
X166238095Y-61785714D01*
X166190476Y-61690476D01*
X166190476Y-61642857D01*
X166238095Y-61547619D01*
X166285714Y-61500000D01*
X166380952Y-61452381D01*
X166571429Y-61452381D01*
X166666667Y-61500000D01*
X166714286Y-61547619D01*
X166761905Y-61642857D01*
X166761905Y-61690476D01*
X166714286Y-61785714D01*
X166666667Y-61833333D01*
X166571429Y-61880952D01*
X166380952Y-61880952D01*
X166285714Y-61928571D01*
X166238095Y-61976190D01*
X166190476Y-62071429D01*
X166190476Y-62261905D01*
X166238095Y-62357143D01*
X166285714Y-62404762D01*
X166380952Y-62452381D01*
X166571429Y-62452381D01*
X166666667Y-62404762D01*
X166714286Y-62357143D01*
X166761905Y-62261905D01*
X166761905Y-62071429D01*
X166714286Y-61976190D01*
X166666667Y-61928571D01*
X166571429Y-61880952D01*
X167380952Y-61452381D02*
X167476191Y-61452381D01*
X167571429Y-61500000D01*
X167619048Y-61547619D01*
X167666667Y-61642857D01*
X167714286Y-61833333D01*
X167714286Y-62071429D01*
X167666667Y-62261905D01*
X167619048Y-62357143D01*
X167571429Y-62404762D01*
X167476191Y-62452381D01*
X167380952Y-62452381D01*
X167285714Y-62404762D01*
X167238095Y-62357143D01*
X167190476Y-62261905D01*
X167142857Y-62071429D01*
X167142857Y-61833333D01*
X167190476Y-61642857D01*
X167238095Y-61547619D01*
X167285714Y-61500000D01*
X167380952Y-61452381D01*
X168142857Y-61785714D02*
X168142857Y-62785714D01*
X168619048Y-62309524D02*
X168666667Y-62404762D01*
X168761905Y-62452381D01*
X168142857Y-62309524D02*
X168190476Y-62404762D01*
X168285714Y-62452381D01*
X168476191Y-62452381D01*
X168571429Y-62404762D01*
X168619048Y-62309524D01*
X168619048Y-61785714D01*
X125714286Y-52452381D02*
X125523809Y-52452381D01*
X125428571Y-52500000D01*
X125380952Y-52547619D01*
X125285714Y-52690476D01*
X125238095Y-52880952D01*
X125238095Y-53261905D01*
X125285714Y-53357143D01*
X125333333Y-53404762D01*
X125428571Y-53452381D01*
X125619048Y-53452381D01*
X125714286Y-53404762D01*
X125761905Y-53357143D01*
X125809524Y-53261905D01*
X125809524Y-53023810D01*
X125761905Y-52928571D01*
X125714286Y-52880952D01*
X125619048Y-52833333D01*
X125428571Y-52833333D01*
X125333333Y-52880952D01*
X125285714Y-52928571D01*
X125238095Y-53023810D01*
X126380952Y-52880952D02*
X126285714Y-52833333D01*
X126238095Y-52785714D01*
X126190476Y-52690476D01*
X126190476Y-52642857D01*
X126238095Y-52547619D01*
X126285714Y-52500000D01*
X126380952Y-52452381D01*
X126571429Y-52452381D01*
X126666667Y-52500000D01*
X126714286Y-52547619D01*
X126761905Y-52642857D01*
X126761905Y-52690476D01*
X126714286Y-52785714D01*
X126666667Y-52833333D01*
X126571429Y-52880952D01*
X126380952Y-52880952D01*
X126285714Y-52928571D01*
X126238095Y-52976190D01*
X126190476Y-53071429D01*
X126190476Y-53261905D01*
X126238095Y-53357143D01*
X126285714Y-53404762D01*
X126380952Y-53452381D01*
X126571429Y-53452381D01*
X126666667Y-53404762D01*
X126714286Y-53357143D01*
X126761905Y-53261905D01*
X126761905Y-53071429D01*
X126714286Y-52976190D01*
X126666667Y-52928571D01*
X126571429Y-52880952D01*
X127380952Y-52452381D02*
X127476191Y-52452381D01*
X127571429Y-52500000D01*
X127619048Y-52547619D01*
X127666667Y-52642857D01*
X127714286Y-52833333D01*
X127714286Y-53071429D01*
X127666667Y-53261905D01*
X127619048Y-53357143D01*
X127571429Y-53404762D01*
X127476191Y-53452381D01*
X127380952Y-53452381D01*
X127285714Y-53404762D01*
X127238095Y-53357143D01*
X127190476Y-53261905D01*
X127142857Y-53071429D01*
X127142857Y-52833333D01*
X127190476Y-52642857D01*
X127238095Y-52547619D01*
X127285714Y-52500000D01*
X127380952Y-52452381D01*
X128142857Y-52785714D02*
X128142857Y-53785714D01*
X128619048Y-53309524D02*
X128666667Y-53404762D01*
X128761905Y-53452381D01*
X128142857Y-53309524D02*
X128190476Y-53404762D01*
X128285714Y-53452381D01*
X128476191Y-53452381D01*
X128571429Y-53404762D01*
X128619048Y-53309524D01*
X128619048Y-52785714D01*
X156202381Y-108410714D02*
X156202381Y-108601191D01*
X156250000Y-108696429D01*
X156297619Y-108744048D01*
X156440476Y-108839286D01*
X156630952Y-108886905D01*
X157011905Y-108886905D01*
X157107143Y-108839286D01*
X157154762Y-108791667D01*
X157202381Y-108696429D01*
X157202381Y-108505952D01*
X157154762Y-108410714D01*
X157107143Y-108363095D01*
X157011905Y-108315476D01*
X156773810Y-108315476D01*
X156678571Y-108363095D01*
X156630952Y-108410714D01*
X156583333Y-108505952D01*
X156583333Y-108696429D01*
X156630952Y-108791667D01*
X156678571Y-108839286D01*
X156773810Y-108886905D01*
X156630952Y-107744048D02*
X156583333Y-107839286D01*
X156535714Y-107886905D01*
X156440476Y-107934524D01*
X156392857Y-107934524D01*
X156297619Y-107886905D01*
X156250000Y-107839286D01*
X156202381Y-107744048D01*
X156202381Y-107553571D01*
X156250000Y-107458333D01*
X156297619Y-107410714D01*
X156392857Y-107363095D01*
X156440476Y-107363095D01*
X156535714Y-107410714D01*
X156583333Y-107458333D01*
X156630952Y-107553571D01*
X156630952Y-107744048D01*
X156678571Y-107839286D01*
X156726190Y-107886905D01*
X156821429Y-107934524D01*
X157011905Y-107934524D01*
X157107143Y-107886905D01*
X157154762Y-107839286D01*
X157202381Y-107744048D01*
X157202381Y-107553571D01*
X157154762Y-107458333D01*
X157107143Y-107410714D01*
X157011905Y-107363095D01*
X156821429Y-107363095D01*
X156726190Y-107410714D01*
X156678571Y-107458333D01*
X156630952Y-107553571D01*
X156202381Y-106744048D02*
X156202381Y-106648809D01*
X156250000Y-106553571D01*
X156297619Y-106505952D01*
X156392857Y-106458333D01*
X156583333Y-106410714D01*
X156821429Y-106410714D01*
X157011905Y-106458333D01*
X157107143Y-106505952D01*
X157154762Y-106553571D01*
X157202381Y-106648809D01*
X157202381Y-106744048D01*
X157154762Y-106839286D01*
X157107143Y-106886905D01*
X157011905Y-106934524D01*
X156821429Y-106982143D01*
X156583333Y-106982143D01*
X156392857Y-106934524D01*
X156297619Y-106886905D01*
X156250000Y-106839286D01*
X156202381Y-106744048D01*
X156535714Y-105982143D02*
X157535714Y-105982143D01*
X157059524Y-105505952D02*
X157154762Y-105458333D01*
X157202381Y-105363095D01*
X157059524Y-105982143D02*
X157154762Y-105934524D01*
X157202381Y-105839286D01*
X157202381Y-105648809D01*
X157154762Y-105553571D01*
X157059524Y-105505952D01*
X156535714Y-105505952D01*
X140238095Y-53547619D02*
X140285714Y-53500000D01*
X140380952Y-53452381D01*
X140619048Y-53452381D01*
X140714286Y-53500000D01*
X140761905Y-53547619D01*
X140809524Y-53642857D01*
X140809524Y-53738095D01*
X140761905Y-53880952D01*
X140190476Y-54452381D01*
X140809524Y-54452381D01*
X141190476Y-53547619D02*
X141238095Y-53500000D01*
X141333333Y-53452381D01*
X141571429Y-53452381D01*
X141666667Y-53500000D01*
X141714286Y-53547619D01*
X141761905Y-53642857D01*
X141761905Y-53738095D01*
X141714286Y-53880952D01*
X141142857Y-54452381D01*
X141761905Y-54452381D01*
X142380952Y-53452381D02*
X142476191Y-53452381D01*
X142571429Y-53500000D01*
X142619048Y-53547619D01*
X142666667Y-53642857D01*
X142714286Y-53833333D01*
X142714286Y-54071429D01*
X142666667Y-54261905D01*
X142619048Y-54357143D01*
X142571429Y-54404762D01*
X142476191Y-54452381D01*
X142380952Y-54452381D01*
X142285714Y-54404762D01*
X142238095Y-54357143D01*
X142190476Y-54261905D01*
X142142857Y-54071429D01*
X142142857Y-53833333D01*
X142190476Y-53642857D01*
X142238095Y-53547619D01*
X142285714Y-53500000D01*
X142380952Y-53452381D01*
X143142857Y-53785714D02*
X143142857Y-54785714D01*
X143619048Y-54309524D02*
X143666667Y-54404762D01*
X143761905Y-54452381D01*
X143142857Y-54309524D02*
X143190476Y-54404762D01*
X143285714Y-54452381D01*
X143476191Y-54452381D01*
X143571429Y-54404762D01*
X143619048Y-54309524D01*
X143619048Y-53785714D01*
X169438095Y-73372619D02*
X169485714Y-73325000D01*
X169580952Y-73277381D01*
X169819048Y-73277381D01*
X169914286Y-73325000D01*
X169961905Y-73372619D01*
X170009524Y-73467857D01*
X170009524Y-73563095D01*
X169961905Y-73705952D01*
X169390476Y-74277381D01*
X170009524Y-74277381D01*
X170390476Y-73372619D02*
X170438095Y-73325000D01*
X170533333Y-73277381D01*
X170771429Y-73277381D01*
X170866667Y-73325000D01*
X170914286Y-73372619D01*
X170961905Y-73467857D01*
X170961905Y-73563095D01*
X170914286Y-73705952D01*
X170342857Y-74277381D01*
X170961905Y-74277381D01*
X171580952Y-73277381D02*
X171676191Y-73277381D01*
X171771429Y-73325000D01*
X171819048Y-73372619D01*
X171866667Y-73467857D01*
X171914286Y-73658333D01*
X171914286Y-73896429D01*
X171866667Y-74086905D01*
X171819048Y-74182143D01*
X171771429Y-74229762D01*
X171676191Y-74277381D01*
X171580952Y-74277381D01*
X171485714Y-74229762D01*
X171438095Y-74182143D01*
X171390476Y-74086905D01*
X171342857Y-73896429D01*
X171342857Y-73658333D01*
X171390476Y-73467857D01*
X171438095Y-73372619D01*
X171485714Y-73325000D01*
X171580952Y-73277381D01*
X172342857Y-73610714D02*
X172342857Y-74610714D01*
X172819048Y-74134524D02*
X172866667Y-74229762D01*
X172961905Y-74277381D01*
X172342857Y-74134524D02*
X172390476Y-74229762D01*
X172485714Y-74277381D01*
X172676191Y-74277381D01*
X172771429Y-74229762D01*
X172819048Y-74134524D01*
X172819048Y-73610714D01*
X156763095Y-91997619D02*
X156810714Y-91950000D01*
X156905952Y-91902381D01*
X157144048Y-91902381D01*
X157239286Y-91950000D01*
X157286905Y-91997619D01*
X157334524Y-92092857D01*
X157334524Y-92188095D01*
X157286905Y-92330952D01*
X156715476Y-92902381D01*
X157334524Y-92902381D01*
X157715476Y-91997619D02*
X157763095Y-91950000D01*
X157858333Y-91902381D01*
X158096429Y-91902381D01*
X158191667Y-91950000D01*
X158239286Y-91997619D01*
X158286905Y-92092857D01*
X158286905Y-92188095D01*
X158239286Y-92330952D01*
X157667857Y-92902381D01*
X158286905Y-92902381D01*
X158905952Y-91902381D02*
X159001191Y-91902381D01*
X159096429Y-91950000D01*
X159144048Y-91997619D01*
X159191667Y-92092857D01*
X159239286Y-92283333D01*
X159239286Y-92521429D01*
X159191667Y-92711905D01*
X159144048Y-92807143D01*
X159096429Y-92854762D01*
X159001191Y-92902381D01*
X158905952Y-92902381D01*
X158810714Y-92854762D01*
X158763095Y-92807143D01*
X158715476Y-92711905D01*
X158667857Y-92521429D01*
X158667857Y-92283333D01*
X158715476Y-92092857D01*
X158763095Y-91997619D01*
X158810714Y-91950000D01*
X158905952Y-91902381D01*
X159667857Y-92235714D02*
X159667857Y-93235714D01*
X160144048Y-92759524D02*
X160191667Y-92854762D01*
X160286905Y-92902381D01*
X159667857Y-92759524D02*
X159715476Y-92854762D01*
X159810714Y-92902381D01*
X160001191Y-92902381D01*
X160096429Y-92854762D01*
X160144048Y-92759524D01*
X160144048Y-92235714D01*
X119952381Y-122369047D02*
X119952381Y-122940476D01*
X119952381Y-122654762D02*
X118952381Y-122654762D01*
X119095238Y-122750000D01*
X119190476Y-122845238D01*
X119238095Y-122940476D01*
X118952381Y-121750000D02*
X118952381Y-121654761D01*
X119000000Y-121559523D01*
X119047619Y-121511904D01*
X119142857Y-121464285D01*
X119333333Y-121416666D01*
X119571429Y-121416666D01*
X119761905Y-121464285D01*
X119857143Y-121511904D01*
X119904762Y-121559523D01*
X119952381Y-121654761D01*
X119952381Y-121750000D01*
X119904762Y-121845238D01*
X119857143Y-121892857D01*
X119761905Y-121940476D01*
X119571429Y-121988095D01*
X119333333Y-121988095D01*
X119142857Y-121940476D01*
X119047619Y-121892857D01*
X119000000Y-121845238D01*
X118952381Y-121750000D01*
X118952381Y-120797619D02*
X118952381Y-120702380D01*
X119000000Y-120607142D01*
X119047619Y-120559523D01*
X119142857Y-120511904D01*
X119333333Y-120464285D01*
X119571429Y-120464285D01*
X119761905Y-120511904D01*
X119857143Y-120559523D01*
X119904762Y-120607142D01*
X119952381Y-120702380D01*
X119952381Y-120797619D01*
X119904762Y-120892857D01*
X119857143Y-120940476D01*
X119761905Y-120988095D01*
X119571429Y-121035714D01*
X119333333Y-121035714D01*
X119142857Y-120988095D01*
X119047619Y-120940476D01*
X119000000Y-120892857D01*
X118952381Y-120797619D01*
X119285714Y-120035714D02*
X119952381Y-120035714D01*
X119380952Y-120035714D02*
X119333333Y-119988095D01*
X119285714Y-119892857D01*
X119285714Y-119749999D01*
X119333333Y-119654761D01*
X119428571Y-119607142D01*
X119952381Y-119607142D01*
X120952381Y-94035714D02*
X120952381Y-93940475D01*
X121000000Y-93845237D01*
X121047619Y-93797618D01*
X121142857Y-93749999D01*
X121333333Y-93702380D01*
X121571429Y-93702380D01*
X121761905Y-93749999D01*
X121857143Y-93797618D01*
X121904762Y-93845237D01*
X121952381Y-93940475D01*
X121952381Y-94035714D01*
X121904762Y-94130952D01*
X121857143Y-94178571D01*
X121761905Y-94226190D01*
X121571429Y-94273809D01*
X121333333Y-94273809D01*
X121142857Y-94226190D01*
X121047619Y-94178571D01*
X121000000Y-94130952D01*
X120952381Y-94035714D01*
X121857143Y-93273809D02*
X121904762Y-93226190D01*
X121952381Y-93273809D01*
X121904762Y-93321428D01*
X121857143Y-93273809D01*
X121952381Y-93273809D01*
X121952381Y-92273809D02*
X121952381Y-92845238D01*
X121952381Y-92559524D02*
X120952381Y-92559524D01*
X121095238Y-92654762D01*
X121190476Y-92750000D01*
X121238095Y-92845238D01*
X121285714Y-91845238D02*
X122285714Y-91845238D01*
X121809524Y-91369047D02*
X121904762Y-91321428D01*
X121952381Y-91226190D01*
X121809524Y-91845238D02*
X121904762Y-91797619D01*
X121952381Y-91702381D01*
X121952381Y-91511904D01*
X121904762Y-91416666D01*
X121809524Y-91369047D01*
X121285714Y-91369047D01*
X119952381Y-128369047D02*
X119952381Y-128940476D01*
X119952381Y-128654762D02*
X118952381Y-128654762D01*
X119095238Y-128750000D01*
X119190476Y-128845238D01*
X119238095Y-128940476D01*
X118952381Y-127750000D02*
X118952381Y-127654761D01*
X119000000Y-127559523D01*
X119047619Y-127511904D01*
X119142857Y-127464285D01*
X119333333Y-127416666D01*
X119571429Y-127416666D01*
X119761905Y-127464285D01*
X119857143Y-127511904D01*
X119904762Y-127559523D01*
X119952381Y-127654761D01*
X119952381Y-127750000D01*
X119904762Y-127845238D01*
X119857143Y-127892857D01*
X119761905Y-127940476D01*
X119571429Y-127988095D01*
X119333333Y-127988095D01*
X119142857Y-127940476D01*
X119047619Y-127892857D01*
X119000000Y-127845238D01*
X118952381Y-127750000D01*
X118952381Y-126797619D02*
X118952381Y-126702380D01*
X119000000Y-126607142D01*
X119047619Y-126559523D01*
X119142857Y-126511904D01*
X119333333Y-126464285D01*
X119571429Y-126464285D01*
X119761905Y-126511904D01*
X119857143Y-126559523D01*
X119904762Y-126607142D01*
X119952381Y-126702380D01*
X119952381Y-126797619D01*
X119904762Y-126892857D01*
X119857143Y-126940476D01*
X119761905Y-126988095D01*
X119571429Y-127035714D01*
X119333333Y-127035714D01*
X119142857Y-126988095D01*
X119047619Y-126940476D01*
X119000000Y-126892857D01*
X118952381Y-126797619D01*
X119285714Y-126035714D02*
X119952381Y-126035714D01*
X119380952Y-126035714D02*
X119333333Y-125988095D01*
X119285714Y-125892857D01*
X119285714Y-125749999D01*
X119333333Y-125654761D01*
X119428571Y-125607142D01*
X119952381Y-125607142D01*
X165595238Y-130928571D02*
X165738095Y-130976190D01*
X165785714Y-131023810D01*
X165833333Y-131119048D01*
X165833333Y-131261905D01*
X165785714Y-131357143D01*
X165738095Y-131404762D01*
X165642857Y-131452381D01*
X165261904Y-131452381D01*
X165261904Y-130452381D01*
X165595238Y-130452381D01*
X165690476Y-130500000D01*
X165738095Y-130547619D01*
X165785714Y-130642857D01*
X165785714Y-130738095D01*
X165738095Y-130833333D01*
X165690476Y-130880952D01*
X165595238Y-130928571D01*
X165261904Y-130928571D01*
X166214285Y-131166667D02*
X166690476Y-131166667D01*
X166119047Y-131452381D02*
X166452380Y-130452381D01*
X166785714Y-131452381D01*
X167690476Y-131452381D02*
X167357142Y-130976190D01*
X167119047Y-131452381D02*
X167119047Y-130452381D01*
X167500000Y-130452381D01*
X167595238Y-130500000D01*
X167642857Y-130547619D01*
X167690476Y-130642857D01*
X167690476Y-130785714D01*
X167642857Y-130880952D01*
X167595238Y-130928571D01*
X167500000Y-130976190D01*
X167119047Y-130976190D01*
X168690476Y-131452381D02*
X168357142Y-130976190D01*
X168119047Y-131452381D02*
X168119047Y-130452381D01*
X168500000Y-130452381D01*
X168595238Y-130500000D01*
X168642857Y-130547619D01*
X168690476Y-130642857D01*
X168690476Y-130785714D01*
X168642857Y-130880952D01*
X168595238Y-130928571D01*
X168500000Y-130976190D01*
X168119047Y-130976190D01*
X169119047Y-130928571D02*
X169452381Y-130928571D01*
X169595238Y-131452381D02*
X169119047Y-131452381D01*
X169119047Y-130452381D01*
X169595238Y-130452381D01*
X170500000Y-131452381D02*
X170023809Y-131452381D01*
X170023809Y-130452381D01*
X170595238Y-131547619D02*
X171357143Y-131547619D01*
X171880953Y-130452381D02*
X171880953Y-131166667D01*
X171833333Y-131309524D01*
X171738095Y-131404762D01*
X171595238Y-131452381D01*
X171500000Y-131452381D01*
X172309524Y-131166667D02*
X172785715Y-131166667D01*
X172214286Y-131452381D02*
X172547619Y-130452381D01*
X172880953Y-131452381D01*
X173785715Y-131357143D02*
X173738096Y-131404762D01*
X173595239Y-131452381D01*
X173500001Y-131452381D01*
X173357143Y-131404762D01*
X173261905Y-131309524D01*
X173214286Y-131214286D01*
X173166667Y-131023810D01*
X173166667Y-130880952D01*
X173214286Y-130690476D01*
X173261905Y-130595238D01*
X173357143Y-130500000D01*
X173500001Y-130452381D01*
X173595239Y-130452381D01*
X173738096Y-130500000D01*
X173785715Y-130547619D01*
X174214286Y-131452381D02*
X174214286Y-130452381D01*
X174785715Y-131452381D02*
X174357143Y-130880952D01*
X174785715Y-130452381D02*
X174214286Y-131023810D01*
X152138094Y-118029762D02*
X152280951Y-118077381D01*
X152519047Y-118077381D01*
X152614285Y-118029762D01*
X152661904Y-117982143D01*
X152709523Y-117886905D01*
X152709523Y-117791667D01*
X152661904Y-117696429D01*
X152614285Y-117648810D01*
X152519047Y-117601190D01*
X152328570Y-117553571D01*
X152233332Y-117505952D01*
X152185713Y-117458333D01*
X152138094Y-117363095D01*
X152138094Y-117267857D01*
X152185713Y-117172619D01*
X152233332Y-117125000D01*
X152328570Y-117077381D01*
X152566666Y-117077381D01*
X152709523Y-117125000D01*
X153566666Y-118029762D02*
X153471428Y-118077381D01*
X153280951Y-118077381D01*
X153185713Y-118029762D01*
X153138094Y-117982143D01*
X153090475Y-117886905D01*
X153090475Y-117601190D01*
X153138094Y-117505952D01*
X153185713Y-117458333D01*
X153280951Y-117410714D01*
X153471428Y-117410714D01*
X153566666Y-117458333D01*
X153995237Y-118077381D02*
X153995237Y-117077381D01*
X154423809Y-118077381D02*
X154423809Y-117553571D01*
X154376190Y-117458333D01*
X154280952Y-117410714D01*
X154138094Y-117410714D01*
X154042856Y-117458333D01*
X153995237Y-117505952D01*
X155042856Y-118077381D02*
X154947618Y-118029762D01*
X154899999Y-117982143D01*
X154852380Y-117886905D01*
X154852380Y-117601190D01*
X154899999Y-117505952D01*
X154947618Y-117458333D01*
X155042856Y-117410714D01*
X155185714Y-117410714D01*
X155280952Y-117458333D01*
X155328571Y-117505952D01*
X155376190Y-117601190D01*
X155376190Y-117886905D01*
X155328571Y-117982143D01*
X155280952Y-118029762D01*
X155185714Y-118077381D01*
X155042856Y-118077381D01*
X155661904Y-117410714D02*
X156042856Y-117410714D01*
X155804761Y-117077381D02*
X155804761Y-117934524D01*
X155852380Y-118029762D01*
X155947618Y-118077381D01*
X156042856Y-118077381D01*
X156233333Y-117410714D02*
X156614285Y-117410714D01*
X156376190Y-117077381D02*
X156376190Y-117934524D01*
X156423809Y-118029762D01*
X156519047Y-118077381D01*
X156614285Y-118077381D01*
X156947619Y-118077381D02*
X156947619Y-117077381D01*
X157042857Y-117696429D02*
X157328572Y-118077381D01*
X157328572Y-117410714D02*
X156947619Y-117791667D01*
X157661905Y-117410714D02*
X157900000Y-118077381D01*
X158138096Y-117410714D02*
X157900000Y-118077381D01*
X157804762Y-118315476D01*
X157757143Y-118363095D01*
X157661905Y-118410714D01*
X159757144Y-117077381D02*
X159280953Y-117077381D01*
X159233334Y-117553571D01*
X159280953Y-117505952D01*
X159376191Y-117458333D01*
X159614287Y-117458333D01*
X159709525Y-117505952D01*
X159757144Y-117553571D01*
X159804763Y-117648810D01*
X159804763Y-117886905D01*
X159757144Y-117982143D01*
X159709525Y-118029762D01*
X159614287Y-118077381D01*
X159376191Y-118077381D01*
X159280953Y-118029762D01*
X159233334Y-117982143D01*
X160185715Y-117791667D02*
X160661906Y-117791667D01*
X160090477Y-118077381D02*
X160423810Y-117077381D01*
X160757144Y-118077381D01*
X130404762Y-68261906D02*
X130452381Y-68119049D01*
X130452381Y-67880953D01*
X130404762Y-67785715D01*
X130357143Y-67738096D01*
X130261905Y-67690477D01*
X130166667Y-67690477D01*
X130071429Y-67738096D01*
X130023810Y-67785715D01*
X129976190Y-67880953D01*
X129928571Y-68071430D01*
X129880952Y-68166668D01*
X129833333Y-68214287D01*
X129738095Y-68261906D01*
X129642857Y-68261906D01*
X129547619Y-68214287D01*
X129500000Y-68166668D01*
X129452381Y-68071430D01*
X129452381Y-67833334D01*
X129500000Y-67690477D01*
X130404762Y-66833334D02*
X130452381Y-66928572D01*
X130452381Y-67119049D01*
X130404762Y-67214287D01*
X130357143Y-67261906D01*
X130261905Y-67309525D01*
X129976190Y-67309525D01*
X129880952Y-67261906D01*
X129833333Y-67214287D01*
X129785714Y-67119049D01*
X129785714Y-66928572D01*
X129833333Y-66833334D01*
X130452381Y-66404763D02*
X129452381Y-66404763D01*
X130452381Y-65976191D02*
X129928571Y-65976191D01*
X129833333Y-66023810D01*
X129785714Y-66119048D01*
X129785714Y-66261906D01*
X129833333Y-66357144D01*
X129880952Y-66404763D01*
X130452381Y-65357144D02*
X130404762Y-65452382D01*
X130357143Y-65500001D01*
X130261905Y-65547620D01*
X129976190Y-65547620D01*
X129880952Y-65500001D01*
X129833333Y-65452382D01*
X129785714Y-65357144D01*
X129785714Y-65214286D01*
X129833333Y-65119048D01*
X129880952Y-65071429D01*
X129976190Y-65023810D01*
X130261905Y-65023810D01*
X130357143Y-65071429D01*
X130404762Y-65119048D01*
X130452381Y-65214286D01*
X130452381Y-65357144D01*
X129785714Y-64738096D02*
X129785714Y-64357144D01*
X129452381Y-64595239D02*
X130309524Y-64595239D01*
X130404762Y-64547620D01*
X130452381Y-64452382D01*
X130452381Y-64357144D01*
X129785714Y-64166667D02*
X129785714Y-63785715D01*
X129452381Y-64023810D02*
X130309524Y-64023810D01*
X130404762Y-63976191D01*
X130452381Y-63880953D01*
X130452381Y-63785715D01*
X130452381Y-63452381D02*
X129452381Y-63452381D01*
X130071429Y-63357143D02*
X130452381Y-63071428D01*
X129785714Y-63071428D02*
X130166667Y-63452381D01*
X129785714Y-62738095D02*
X130452381Y-62500000D01*
X129785714Y-62261904D02*
X130452381Y-62500000D01*
X130690476Y-62595238D01*
X130738095Y-62642857D01*
X130785714Y-62738095D01*
X129452381Y-60642856D02*
X129452381Y-61119047D01*
X129928571Y-61166666D01*
X129880952Y-61119047D01*
X129833333Y-61023809D01*
X129833333Y-60785713D01*
X129880952Y-60690475D01*
X129928571Y-60642856D01*
X130023810Y-60595237D01*
X130261905Y-60595237D01*
X130357143Y-60642856D01*
X130404762Y-60690475D01*
X130452381Y-60785713D01*
X130452381Y-61023809D01*
X130404762Y-61119047D01*
X130357143Y-61166666D01*
X130166667Y-60214285D02*
X130166667Y-59738094D01*
X130452381Y-60309523D02*
X129452381Y-59976190D01*
X130452381Y-59642856D01*
X161452381Y-86809525D02*
X160452381Y-86809525D01*
X160452381Y-86571430D01*
X160500000Y-86428572D01*
X160595238Y-86333334D01*
X160690476Y-86285715D01*
X160880952Y-86238096D01*
X161023810Y-86238096D01*
X161214286Y-86285715D01*
X161309524Y-86333334D01*
X161404762Y-86428572D01*
X161452381Y-86571430D01*
X161452381Y-86809525D01*
X161547619Y-86047620D02*
X161547619Y-85285715D01*
X161404762Y-85095239D02*
X161452381Y-84952382D01*
X161452381Y-84714286D01*
X161404762Y-84619048D01*
X161357143Y-84571429D01*
X161261905Y-84523810D01*
X161166667Y-84523810D01*
X161071429Y-84571429D01*
X161023810Y-84619048D01*
X160976190Y-84714286D01*
X160928571Y-84904763D01*
X160880952Y-85000001D01*
X160833333Y-85047620D01*
X160738095Y-85095239D01*
X160642857Y-85095239D01*
X160547619Y-85047620D01*
X160500000Y-85000001D01*
X160452381Y-84904763D01*
X160452381Y-84666667D01*
X160500000Y-84523810D01*
X161404762Y-83666667D02*
X161452381Y-83761905D01*
X161452381Y-83952382D01*
X161404762Y-84047620D01*
X161357143Y-84095239D01*
X161261905Y-84142858D01*
X160976190Y-84142858D01*
X160880952Y-84095239D01*
X160833333Y-84047620D01*
X160785714Y-83952382D01*
X160785714Y-83761905D01*
X160833333Y-83666667D01*
X161452381Y-83238096D02*
X160452381Y-83238096D01*
X161452381Y-82809524D02*
X160928571Y-82809524D01*
X160833333Y-82857143D01*
X160785714Y-82952381D01*
X160785714Y-83095239D01*
X160833333Y-83190477D01*
X160880952Y-83238096D01*
X161452381Y-82190477D02*
X161404762Y-82285715D01*
X161357143Y-82333334D01*
X161261905Y-82380953D01*
X160976190Y-82380953D01*
X160880952Y-82333334D01*
X160833333Y-82285715D01*
X160785714Y-82190477D01*
X160785714Y-82047619D01*
X160833333Y-81952381D01*
X160880952Y-81904762D01*
X160976190Y-81857143D01*
X161261905Y-81857143D01*
X161357143Y-81904762D01*
X161404762Y-81952381D01*
X161452381Y-82047619D01*
X161452381Y-82190477D01*
X160785714Y-81571429D02*
X160785714Y-81190477D01*
X160452381Y-81428572D02*
X161309524Y-81428572D01*
X161404762Y-81380953D01*
X161452381Y-81285715D01*
X161452381Y-81190477D01*
X160785714Y-81000000D02*
X160785714Y-80619048D01*
X160452381Y-80857143D02*
X161309524Y-80857143D01*
X161404762Y-80809524D01*
X161452381Y-80714286D01*
X161452381Y-80619048D01*
X161452381Y-80285714D02*
X160452381Y-80285714D01*
X161071429Y-80190476D02*
X161452381Y-79904761D01*
X160785714Y-79904761D02*
X161166667Y-80285714D01*
X160785714Y-79571428D02*
X161452381Y-79333333D01*
X160785714Y-79095237D02*
X161452381Y-79333333D01*
X161690476Y-79428571D01*
X161738095Y-79476190D01*
X161785714Y-79571428D01*
X171592857Y-53202381D02*
X172211905Y-53202381D01*
X171878571Y-53583333D01*
X172021429Y-53583333D01*
X172116667Y-53630952D01*
X172164286Y-53678571D01*
X172211905Y-53773810D01*
X172211905Y-54011905D01*
X172164286Y-54107143D01*
X172116667Y-54154762D01*
X172021429Y-54202381D01*
X171735714Y-54202381D01*
X171640476Y-54154762D01*
X171592857Y-54107143D01*
X172545238Y-53202381D02*
X173164286Y-53202381D01*
X172830952Y-53583333D01*
X172973810Y-53583333D01*
X173069048Y-53630952D01*
X173116667Y-53678571D01*
X173164286Y-53773810D01*
X173164286Y-54011905D01*
X173116667Y-54107143D01*
X173069048Y-54154762D01*
X172973810Y-54202381D01*
X172688095Y-54202381D01*
X172592857Y-54154762D01*
X172545238Y-54107143D01*
X173592857Y-53535714D02*
X173592857Y-54535714D01*
X174069048Y-54059524D02*
X174116667Y-54154762D01*
X174211905Y-54202381D01*
X173592857Y-54059524D02*
X173640476Y-54154762D01*
X173735714Y-54202381D01*
X173926191Y-54202381D01*
X174021429Y-54154762D01*
X174069048Y-54059524D01*
X174069048Y-53535714D01*
X174640476Y-54202381D02*
X174640476Y-53202381D01*
X174640476Y-53678571D02*
X175211905Y-53678571D01*
X175211905Y-54202381D02*
X175211905Y-53202381D01*
X173142857Y-94727381D02*
X173761905Y-94727381D01*
X173428571Y-95108333D01*
X173571429Y-95108333D01*
X173666667Y-95155952D01*
X173714286Y-95203571D01*
X173761905Y-95298810D01*
X173761905Y-95536905D01*
X173714286Y-95632143D01*
X173666667Y-95679762D01*
X173571429Y-95727381D01*
X173285714Y-95727381D01*
X173190476Y-95679762D01*
X173142857Y-95632143D01*
X174095238Y-94727381D02*
X174714286Y-94727381D01*
X174380952Y-95108333D01*
X174523810Y-95108333D01*
X174619048Y-95155952D01*
X174666667Y-95203571D01*
X174714286Y-95298810D01*
X174714286Y-95536905D01*
X174666667Y-95632143D01*
X174619048Y-95679762D01*
X174523810Y-95727381D01*
X174238095Y-95727381D01*
X174142857Y-95679762D01*
X174095238Y-95632143D01*
X175142857Y-95060714D02*
X175142857Y-96060714D01*
X175619048Y-95584524D02*
X175666667Y-95679762D01*
X175761905Y-95727381D01*
X175142857Y-95584524D02*
X175190476Y-95679762D01*
X175285714Y-95727381D01*
X175476191Y-95727381D01*
X175571429Y-95679762D01*
X175619048Y-95584524D01*
X175619048Y-95060714D01*
X176190476Y-95727381D02*
X176190476Y-94727381D01*
X176190476Y-95203571D02*
X176761905Y-95203571D01*
X176761905Y-95727381D02*
X176761905Y-94727381D01*
X122452381Y-63857143D02*
X122452381Y-63238095D01*
X122833333Y-63571429D01*
X122833333Y-63428571D01*
X122880952Y-63333333D01*
X122928571Y-63285714D01*
X123023810Y-63238095D01*
X123261905Y-63238095D01*
X123357143Y-63285714D01*
X123404762Y-63333333D01*
X123452381Y-63428571D01*
X123452381Y-63714286D01*
X123404762Y-63809524D01*
X123357143Y-63857143D01*
X122452381Y-62904762D02*
X122452381Y-62285714D01*
X122833333Y-62619048D01*
X122833333Y-62476190D01*
X122880952Y-62380952D01*
X122928571Y-62333333D01*
X123023810Y-62285714D01*
X123261905Y-62285714D01*
X123357143Y-62333333D01*
X123404762Y-62380952D01*
X123452381Y-62476190D01*
X123452381Y-62761905D01*
X123404762Y-62857143D01*
X123357143Y-62904762D01*
X122785714Y-61857143D02*
X123785714Y-61857143D01*
X123309524Y-61380952D02*
X123404762Y-61333333D01*
X123452381Y-61238095D01*
X123309524Y-61857143D02*
X123404762Y-61809524D01*
X123452381Y-61714286D01*
X123452381Y-61523809D01*
X123404762Y-61428571D01*
X123309524Y-61380952D01*
X122785714Y-61380952D01*
X123452381Y-60809524D02*
X122452381Y-60809524D01*
X122928571Y-60809524D02*
X122928571Y-60238095D01*
X123452381Y-60238095D02*
X122452381Y-60238095D01*
X106452381Y-108892858D02*
X105452381Y-108892858D01*
X105452381Y-108511905D01*
X105500000Y-108416667D01*
X105547619Y-108369048D01*
X105642857Y-108321429D01*
X105785714Y-108321429D01*
X105880952Y-108369048D01*
X105928571Y-108416667D01*
X105976190Y-108511905D01*
X105976190Y-108892858D01*
X106404762Y-107511905D02*
X106452381Y-107607143D01*
X106452381Y-107797620D01*
X106404762Y-107892858D01*
X106309524Y-107940477D01*
X105928571Y-107940477D01*
X105833333Y-107892858D01*
X105785714Y-107797620D01*
X105785714Y-107607143D01*
X105833333Y-107511905D01*
X105928571Y-107464286D01*
X106023810Y-107464286D01*
X106119048Y-107940477D01*
X106452381Y-106892858D02*
X106404762Y-106988096D01*
X106309524Y-107035715D01*
X105452381Y-107035715D01*
X105785714Y-106654762D02*
X105785714Y-106273810D01*
X105452381Y-106511905D02*
X106309524Y-106511905D01*
X106404762Y-106464286D01*
X106452381Y-106369048D01*
X106452381Y-106273810D01*
X106404762Y-105988095D02*
X106452381Y-105845238D01*
X106452381Y-105607142D01*
X106404762Y-105511904D01*
X106357143Y-105464285D01*
X106261905Y-105416666D01*
X106166667Y-105416666D01*
X106071429Y-105464285D01*
X106023810Y-105511904D01*
X105976190Y-105607142D01*
X105928571Y-105797619D01*
X105880952Y-105892857D01*
X105833333Y-105940476D01*
X105738095Y-105988095D01*
X105642857Y-105988095D01*
X105547619Y-105940476D01*
X105500000Y-105892857D01*
X105452381Y-105797619D01*
X105452381Y-105559523D01*
X105500000Y-105416666D01*
X106452381Y-104464285D02*
X106452381Y-105035714D01*
X106452381Y-104750000D02*
X105452381Y-104750000D01*
X105595238Y-104845238D01*
X105690476Y-104940476D01*
X105738095Y-105035714D01*
X106404762Y-104083333D02*
X106452381Y-103940476D01*
X106452381Y-103702380D01*
X106404762Y-103607142D01*
X106357143Y-103559523D01*
X106261905Y-103511904D01*
X106166667Y-103511904D01*
X106071429Y-103559523D01*
X106023810Y-103607142D01*
X105976190Y-103702380D01*
X105928571Y-103892857D01*
X105880952Y-103988095D01*
X105833333Y-104035714D01*
X105738095Y-104083333D01*
X105642857Y-104083333D01*
X105547619Y-104035714D01*
X105500000Y-103988095D01*
X105452381Y-103892857D01*
X105452381Y-103654761D01*
X105500000Y-103511904D01*
X105547619Y-103130952D02*
X105500000Y-103083333D01*
X105452381Y-102988095D01*
X105452381Y-102749999D01*
X105500000Y-102654761D01*
X105547619Y-102607142D01*
X105642857Y-102559523D01*
X105738095Y-102559523D01*
X105880952Y-102607142D01*
X106452381Y-103178571D01*
X106452381Y-102559523D01*
X180452381Y-89838095D02*
X179452381Y-89838095D01*
X179452381Y-89457142D01*
X179500000Y-89361904D01*
X179547619Y-89314285D01*
X179642857Y-89266666D01*
X179785714Y-89266666D01*
X179880952Y-89314285D01*
X179928571Y-89361904D01*
X179976190Y-89457142D01*
X179976190Y-89838095D01*
X180452381Y-88838095D02*
X179785714Y-88838095D01*
X179452381Y-88838095D02*
X179500000Y-88885714D01*
X179547619Y-88838095D01*
X179500000Y-88790476D01*
X179452381Y-88838095D01*
X179547619Y-88838095D01*
X180071429Y-88361905D02*
X180071429Y-87600000D01*
X180452381Y-87980952D02*
X179690476Y-87980952D01*
X180071429Y-87123810D02*
X180071429Y-86361905D01*
X105928571Y-99749999D02*
X105928571Y-100083333D01*
X106452381Y-100083333D02*
X105452381Y-100083333D01*
X105452381Y-99607142D01*
X106452381Y-98797618D02*
X105928571Y-98797618D01*
X105833333Y-98845237D01*
X105785714Y-98940475D01*
X105785714Y-99130952D01*
X105833333Y-99226190D01*
X106404762Y-98797618D02*
X106452381Y-98892856D01*
X106452381Y-99130952D01*
X106404762Y-99226190D01*
X106309524Y-99273809D01*
X106214286Y-99273809D01*
X106119048Y-99226190D01*
X106071429Y-99130952D01*
X106071429Y-98892856D01*
X106023810Y-98797618D01*
X105785714Y-98321428D02*
X106452381Y-98321428D01*
X105880952Y-98321428D02*
X105833333Y-98273809D01*
X105785714Y-98178571D01*
X105785714Y-98035713D01*
X105833333Y-97940475D01*
X105928571Y-97892856D01*
X106452381Y-97892856D01*
X106071429Y-97416666D02*
X106071429Y-96654761D01*
X106071429Y-96178571D02*
X106071429Y-95416666D01*
X106452381Y-95797618D02*
X105690476Y-95797618D01*
X105452381Y-91666667D02*
X105452381Y-91095238D01*
X106452381Y-91380953D02*
X105452381Y-91380953D01*
X106452381Y-90761905D02*
X105452381Y-90761905D01*
X106452381Y-90333333D02*
X105928571Y-90333333D01*
X105833333Y-90380952D01*
X105785714Y-90476190D01*
X105785714Y-90619048D01*
X105833333Y-90714286D01*
X105880952Y-90761905D01*
X106404762Y-89476190D02*
X106452381Y-89571428D01*
X106452381Y-89761905D01*
X106404762Y-89857143D01*
X106309524Y-89904762D01*
X105928571Y-89904762D01*
X105833333Y-89857143D01*
X105785714Y-89761905D01*
X105785714Y-89571428D01*
X105833333Y-89476190D01*
X105928571Y-89428571D01*
X106023810Y-89428571D01*
X106119048Y-89904762D01*
X106452381Y-89000000D02*
X105785714Y-89000000D01*
X105976190Y-89000000D02*
X105880952Y-88952381D01*
X105833333Y-88904762D01*
X105785714Y-88809524D01*
X105785714Y-88714285D01*
X106452381Y-88380952D02*
X105785714Y-88380952D01*
X105880952Y-88380952D02*
X105833333Y-88333333D01*
X105785714Y-88238095D01*
X105785714Y-88095237D01*
X105833333Y-87999999D01*
X105928571Y-87952380D01*
X106452381Y-87952380D01*
X105928571Y-87952380D02*
X105833333Y-87904761D01*
X105785714Y-87809523D01*
X105785714Y-87666666D01*
X105833333Y-87571428D01*
X105928571Y-87523809D01*
X106452381Y-87523809D01*
X106071429Y-86285714D02*
X106071429Y-85523809D01*
X106452381Y-85904761D02*
X105690476Y-85904761D01*
X106404762Y-85095238D02*
X106452381Y-85000000D01*
X106452381Y-84809524D01*
X106404762Y-84714285D01*
X106309524Y-84666666D01*
X106261905Y-84666666D01*
X106166667Y-84714285D01*
X106119048Y-84809524D01*
X106119048Y-84952381D01*
X106071429Y-85047619D01*
X105976190Y-85095238D01*
X105928571Y-85095238D01*
X105833333Y-85047619D01*
X105785714Y-84952381D01*
X105785714Y-84809524D01*
X105833333Y-84714285D01*
X106071429Y-84238095D02*
X106071429Y-83476190D01*
X106452381Y-48750000D02*
X105452381Y-48750000D01*
X105928571Y-48750000D02*
X105928571Y-48178571D01*
X106452381Y-48178571D02*
X105452381Y-48178571D01*
X106452381Y-47702381D02*
X105452381Y-47702381D01*
X105452381Y-47321428D01*
X105500000Y-47226190D01*
X105547619Y-47178571D01*
X105642857Y-47130952D01*
X105785714Y-47130952D01*
X105880952Y-47178571D01*
X105928571Y-47226190D01*
X105976190Y-47321428D01*
X105976190Y-47702381D01*
X106452381Y-46178571D02*
X106452381Y-46750000D01*
X106452381Y-46464286D02*
X105452381Y-46464286D01*
X105595238Y-46559524D01*
X105690476Y-46654762D01*
X105738095Y-46750000D01*
X106071429Y-45750000D02*
X106071429Y-44988095D01*
X106071429Y-44511905D02*
X106071429Y-43750000D01*
X106452381Y-44130952D02*
X105690476Y-44130952D01*
X106452381Y-57000000D02*
X105452381Y-57000000D01*
X105928571Y-57000000D02*
X105928571Y-56428571D01*
X106452381Y-56428571D02*
X105452381Y-56428571D01*
X106452381Y-55952381D02*
X105452381Y-55952381D01*
X105452381Y-55571428D01*
X105500000Y-55476190D01*
X105547619Y-55428571D01*
X105642857Y-55380952D01*
X105785714Y-55380952D01*
X105880952Y-55428571D01*
X105928571Y-55476190D01*
X105976190Y-55571428D01*
X105976190Y-55952381D01*
X105547619Y-55000000D02*
X105500000Y-54952381D01*
X105452381Y-54857143D01*
X105452381Y-54619047D01*
X105500000Y-54523809D01*
X105547619Y-54476190D01*
X105642857Y-54428571D01*
X105738095Y-54428571D01*
X105880952Y-54476190D01*
X106452381Y-55047619D01*
X106452381Y-54428571D01*
X106071429Y-54000000D02*
X106071429Y-53238095D01*
X106071429Y-52761905D02*
X106071429Y-52000000D01*
X106452381Y-52380952D02*
X105690476Y-52380952D01*
X142915476Y-50779762D02*
X143010714Y-50827381D01*
X143201190Y-50827381D01*
X143296429Y-50779762D01*
X143344048Y-50684524D01*
X143344048Y-50636905D01*
X143296429Y-50541667D01*
X143201190Y-50494048D01*
X143058333Y-50494048D01*
X142963095Y-50446429D01*
X142915476Y-50351190D01*
X142915476Y-50303571D01*
X142963095Y-50208333D01*
X143058333Y-50160714D01*
X143201190Y-50160714D01*
X143296429Y-50208333D01*
X144153572Y-50779762D02*
X144058334Y-50827381D01*
X143867857Y-50827381D01*
X143772619Y-50779762D01*
X143725000Y-50684524D01*
X143725000Y-50303571D01*
X143772619Y-50208333D01*
X143867857Y-50160714D01*
X144058334Y-50160714D01*
X144153572Y-50208333D01*
X144201191Y-50303571D01*
X144201191Y-50398810D01*
X143725000Y-50494048D01*
X144629762Y-50827381D02*
X144629762Y-50160714D01*
X144629762Y-50351190D02*
X144677381Y-50255952D01*
X144725000Y-50208333D01*
X144820238Y-50160714D01*
X144915477Y-50160714D01*
X145153572Y-50160714D02*
X145391667Y-50827381D01*
X145629763Y-50160714D01*
X146153572Y-50827381D02*
X146058334Y-50779762D01*
X146010715Y-50732143D01*
X145963096Y-50636905D01*
X145963096Y-50351190D01*
X146010715Y-50255952D01*
X146058334Y-50208333D01*
X146153572Y-50160714D01*
X146296430Y-50160714D01*
X146391668Y-50208333D01*
X146439287Y-50255952D01*
X146486906Y-50351190D01*
X146486906Y-50636905D01*
X146439287Y-50732143D01*
X146391668Y-50779762D01*
X146296430Y-50827381D01*
X146153572Y-50827381D01*
X147677382Y-50446429D02*
X148439287Y-50446429D01*
X148867858Y-50779762D02*
X148963096Y-50827381D01*
X149153572Y-50827381D01*
X149248811Y-50779762D01*
X149296430Y-50684524D01*
X149296430Y-50636905D01*
X149248811Y-50541667D01*
X149153572Y-50494048D01*
X149010715Y-50494048D01*
X148915477Y-50446429D01*
X148867858Y-50351190D01*
X148867858Y-50303571D01*
X148915477Y-50208333D01*
X149010715Y-50160714D01*
X149153572Y-50160714D01*
X149248811Y-50208333D01*
X149725001Y-50446429D02*
X150486906Y-50446429D01*
X150105954Y-50827381D02*
X150105954Y-50065476D01*
X155742858Y-51202381D02*
X155409524Y-50726190D01*
X155171429Y-51202381D02*
X155171429Y-50202381D01*
X155552382Y-50202381D01*
X155647620Y-50250000D01*
X155695239Y-50297619D01*
X155742858Y-50392857D01*
X155742858Y-50535714D01*
X155695239Y-50630952D01*
X155647620Y-50678571D01*
X155552382Y-50726190D01*
X155171429Y-50726190D01*
X156171429Y-51202381D02*
X156171429Y-50535714D01*
X156171429Y-50202381D02*
X156123810Y-50250000D01*
X156171429Y-50297619D01*
X156219048Y-50250000D01*
X156171429Y-50202381D01*
X156171429Y-50297619D01*
X156647619Y-50535714D02*
X156647619Y-51202381D01*
X156647619Y-50630952D02*
X156695238Y-50583333D01*
X156790476Y-50535714D01*
X156933334Y-50535714D01*
X157028572Y-50583333D01*
X157076191Y-50678571D01*
X157076191Y-51202381D01*
X157980953Y-50535714D02*
X157980953Y-51345238D01*
X157933334Y-51440476D01*
X157885715Y-51488095D01*
X157790476Y-51535714D01*
X157647619Y-51535714D01*
X157552381Y-51488095D01*
X157980953Y-51154762D02*
X157885715Y-51202381D01*
X157695238Y-51202381D01*
X157600000Y-51154762D01*
X157552381Y-51107143D01*
X157504762Y-51011905D01*
X157504762Y-50726190D01*
X157552381Y-50630952D01*
X157600000Y-50583333D01*
X157695238Y-50535714D01*
X157885715Y-50535714D01*
X157980953Y-50583333D01*
X159171429Y-51154762D02*
X159266667Y-51202381D01*
X159457143Y-51202381D01*
X159552382Y-51154762D01*
X159600001Y-51059524D01*
X159600001Y-51011905D01*
X159552382Y-50916667D01*
X159457143Y-50869048D01*
X159314286Y-50869048D01*
X159219048Y-50821429D01*
X159171429Y-50726190D01*
X159171429Y-50678571D01*
X159219048Y-50583333D01*
X159314286Y-50535714D01*
X159457143Y-50535714D01*
X159552382Y-50583333D01*
X160028572Y-50821429D02*
X160790477Y-50821429D01*
X161266667Y-50821429D02*
X162028572Y-50821429D01*
X161647620Y-51202381D02*
X161647620Y-50440476D01*
X166346428Y-51027381D02*
X166346428Y-50360714D01*
X166346428Y-50455952D02*
X166394047Y-50408333D01*
X166489285Y-50360714D01*
X166632143Y-50360714D01*
X166727381Y-50408333D01*
X166775000Y-50503571D01*
X166775000Y-51027381D01*
X166775000Y-50503571D02*
X166822619Y-50408333D01*
X166917857Y-50360714D01*
X167060714Y-50360714D01*
X167155952Y-50408333D01*
X167203571Y-50503571D01*
X167203571Y-51027381D01*
X168108333Y-51027381D02*
X168108333Y-50503571D01*
X168060714Y-50408333D01*
X167965476Y-50360714D01*
X167774999Y-50360714D01*
X167679761Y-50408333D01*
X168108333Y-50979762D02*
X168013095Y-51027381D01*
X167774999Y-51027381D01*
X167679761Y-50979762D01*
X167632142Y-50884524D01*
X167632142Y-50789286D01*
X167679761Y-50694048D01*
X167774999Y-50646429D01*
X168013095Y-50646429D01*
X168108333Y-50598810D01*
X168441666Y-50360714D02*
X168822618Y-50360714D01*
X168584523Y-50027381D02*
X168584523Y-50884524D01*
X168632142Y-50979762D01*
X168727380Y-51027381D01*
X168822618Y-51027381D01*
X169155952Y-51027381D02*
X169155952Y-50360714D01*
X169155952Y-50551190D02*
X169203571Y-50455952D01*
X169251190Y-50408333D01*
X169346428Y-50360714D01*
X169441667Y-50360714D01*
X169775000Y-51027381D02*
X169775000Y-50360714D01*
X169775000Y-50027381D02*
X169727381Y-50075000D01*
X169775000Y-50122619D01*
X169822619Y-50075000D01*
X169775000Y-50027381D01*
X169775000Y-50122619D01*
X170155952Y-51027381D02*
X170679762Y-50360714D01*
X170155952Y-50360714D02*
X170679762Y-51027381D01*
X171775000Y-50979762D02*
X171870238Y-51027381D01*
X172060714Y-51027381D01*
X172155953Y-50979762D01*
X172203572Y-50884524D01*
X172203572Y-50836905D01*
X172155953Y-50741667D01*
X172060714Y-50694048D01*
X171917857Y-50694048D01*
X171822619Y-50646429D01*
X171775000Y-50551190D01*
X171775000Y-50503571D01*
X171822619Y-50408333D01*
X171917857Y-50360714D01*
X172060714Y-50360714D01*
X172155953Y-50408333D01*
X173060715Y-51027381D02*
X173060715Y-50027381D01*
X173060715Y-50979762D02*
X172965477Y-51027381D01*
X172775000Y-51027381D01*
X172679762Y-50979762D01*
X172632143Y-50932143D01*
X172584524Y-50836905D01*
X172584524Y-50551190D01*
X172632143Y-50455952D01*
X172679762Y-50408333D01*
X172775000Y-50360714D01*
X172965477Y-50360714D01*
X173060715Y-50408333D01*
X173489286Y-50979762D02*
X173584524Y-51027381D01*
X173775000Y-51027381D01*
X173870239Y-50979762D01*
X173917858Y-50884524D01*
X173917858Y-50836905D01*
X173870239Y-50741667D01*
X173775000Y-50694048D01*
X173632143Y-50694048D01*
X173536905Y-50646429D01*
X173489286Y-50551190D01*
X173489286Y-50503571D01*
X173536905Y-50408333D01*
X173632143Y-50360714D01*
X173775000Y-50360714D01*
X173870239Y-50408333D01*
X174775001Y-50979762D02*
X174679763Y-51027381D01*
X174489286Y-51027381D01*
X174394048Y-50979762D01*
X174346429Y-50932143D01*
X174298810Y-50836905D01*
X174298810Y-50551190D01*
X174346429Y-50455952D01*
X174394048Y-50408333D01*
X174489286Y-50360714D01*
X174679763Y-50360714D01*
X174775001Y-50408333D01*
X175203572Y-50646429D02*
X175965477Y-50646429D01*
X176441667Y-50646429D02*
X177203572Y-50646429D01*
X176822620Y-51027381D02*
X176822620Y-50265476D01*
X106452381Y-77440476D02*
X105976190Y-77773810D01*
X106452381Y-78011905D02*
X105452381Y-78011905D01*
X105452381Y-77630952D01*
X105500000Y-77535714D01*
X105547619Y-77488095D01*
X105642857Y-77440476D01*
X105785714Y-77440476D01*
X105880952Y-77488095D01*
X105928571Y-77535714D01*
X105976190Y-77630952D01*
X105976190Y-78011905D01*
X105500000Y-76488095D02*
X105452381Y-76583333D01*
X105452381Y-76726190D01*
X105500000Y-76869048D01*
X105595238Y-76964286D01*
X105690476Y-77011905D01*
X105880952Y-77059524D01*
X106023810Y-77059524D01*
X106214286Y-77011905D01*
X106309524Y-76964286D01*
X106404762Y-76869048D01*
X106452381Y-76726190D01*
X106452381Y-76630952D01*
X106404762Y-76488095D01*
X106357143Y-76440476D01*
X106023810Y-76440476D01*
X106023810Y-76630952D01*
X105928571Y-75678571D02*
X105976190Y-75535714D01*
X106023810Y-75488095D01*
X106119048Y-75440476D01*
X106261905Y-75440476D01*
X106357143Y-75488095D01*
X106404762Y-75535714D01*
X106452381Y-75630952D01*
X106452381Y-76011905D01*
X105452381Y-76011905D01*
X105452381Y-75678571D01*
X105500000Y-75583333D01*
X105547619Y-75535714D01*
X105642857Y-75488095D01*
X105738095Y-75488095D01*
X105833333Y-75535714D01*
X105880952Y-75583333D01*
X105928571Y-75678571D01*
X105928571Y-76011905D01*
X106452381Y-73678571D02*
X105976190Y-74011905D01*
X106452381Y-74250000D02*
X105452381Y-74250000D01*
X105452381Y-73869047D01*
X105500000Y-73773809D01*
X105547619Y-73726190D01*
X105642857Y-73678571D01*
X105785714Y-73678571D01*
X105880952Y-73726190D01*
X105928571Y-73773809D01*
X105976190Y-73869047D01*
X105976190Y-74250000D01*
X105500000Y-72726190D02*
X105452381Y-72821428D01*
X105452381Y-72964285D01*
X105500000Y-73107143D01*
X105595238Y-73202381D01*
X105690476Y-73250000D01*
X105880952Y-73297619D01*
X106023810Y-73297619D01*
X106214286Y-73250000D01*
X106309524Y-73202381D01*
X106404762Y-73107143D01*
X106452381Y-72964285D01*
X106452381Y-72869047D01*
X106404762Y-72726190D01*
X106357143Y-72678571D01*
X106023810Y-72678571D01*
X106023810Y-72869047D01*
X106071429Y-72250000D02*
X106071429Y-71488095D01*
X105928571Y-70678571D02*
X105976190Y-70535714D01*
X106023810Y-70488095D01*
X106119048Y-70440476D01*
X106261905Y-70440476D01*
X106357143Y-70488095D01*
X106404762Y-70535714D01*
X106452381Y-70630952D01*
X106452381Y-71011905D01*
X105452381Y-71011905D01*
X105452381Y-70678571D01*
X105500000Y-70583333D01*
X105547619Y-70535714D01*
X105642857Y-70488095D01*
X105738095Y-70488095D01*
X105833333Y-70535714D01*
X105880952Y-70583333D01*
X105928571Y-70678571D01*
X105928571Y-71011905D01*
X125547619Y-83238095D02*
X125500000Y-83190476D01*
X125452381Y-83095238D01*
X125452381Y-82857142D01*
X125500000Y-82761904D01*
X125547619Y-82714285D01*
X125642857Y-82666666D01*
X125738095Y-82666666D01*
X125880952Y-82714285D01*
X126452381Y-83285714D01*
X126452381Y-82666666D01*
X125452381Y-82333333D02*
X125452381Y-81666666D01*
X126452381Y-82095238D01*
X125452381Y-81095238D02*
X125452381Y-80999999D01*
X125500000Y-80904761D01*
X125547619Y-80857142D01*
X125642857Y-80809523D01*
X125833333Y-80761904D01*
X126071429Y-80761904D01*
X126261905Y-80809523D01*
X126357143Y-80857142D01*
X126404762Y-80904761D01*
X126452381Y-80999999D01*
X126452381Y-81095238D01*
X126404762Y-81190476D01*
X126357143Y-81238095D01*
X126261905Y-81285714D01*
X126071429Y-81333333D01*
X125833333Y-81333333D01*
X125642857Y-81285714D01*
X125547619Y-81238095D01*
X125500000Y-81190476D01*
X125452381Y-81095238D01*
X121547619Y-112238095D02*
X121500000Y-112190476D01*
X121452381Y-112095238D01*
X121452381Y-111857142D01*
X121500000Y-111761904D01*
X121547619Y-111714285D01*
X121642857Y-111666666D01*
X121738095Y-111666666D01*
X121880952Y-111714285D01*
X122452381Y-112285714D01*
X122452381Y-111666666D01*
X121452381Y-111333333D02*
X121452381Y-110666666D01*
X122452381Y-111095238D01*
X121452381Y-110095238D02*
X121452381Y-109999999D01*
X121500000Y-109904761D01*
X121547619Y-109857142D01*
X121642857Y-109809523D01*
X121833333Y-109761904D01*
X122071429Y-109761904D01*
X122261905Y-109809523D01*
X122357143Y-109857142D01*
X122404762Y-109904761D01*
X122452381Y-109999999D01*
X122452381Y-110095238D01*
X122404762Y-110190476D01*
X122357143Y-110238095D01*
X122261905Y-110285714D01*
X122071429Y-110333333D01*
X121833333Y-110333333D01*
X121642857Y-110285714D01*
X121547619Y-110238095D01*
X121500000Y-110190476D01*
X121452381Y-110095238D01*
X130547619Y-83238095D02*
X130500000Y-83190476D01*
X130452381Y-83095238D01*
X130452381Y-82857142D01*
X130500000Y-82761904D01*
X130547619Y-82714285D01*
X130642857Y-82666666D01*
X130738095Y-82666666D01*
X130880952Y-82714285D01*
X131452381Y-83285714D01*
X131452381Y-82666666D01*
X130452381Y-82333333D02*
X130452381Y-81666666D01*
X131452381Y-82095238D01*
X130452381Y-81095238D02*
X130452381Y-80999999D01*
X130500000Y-80904761D01*
X130547619Y-80857142D01*
X130642857Y-80809523D01*
X130833333Y-80761904D01*
X131071429Y-80761904D01*
X131261905Y-80809523D01*
X131357143Y-80857142D01*
X131404762Y-80904761D01*
X131452381Y-80999999D01*
X131452381Y-81095238D01*
X131404762Y-81190476D01*
X131357143Y-81238095D01*
X131261905Y-81285714D01*
X131071429Y-81333333D01*
X130833333Y-81333333D01*
X130642857Y-81285714D01*
X130547619Y-81238095D01*
X130500000Y-81190476D01*
X130452381Y-81095238D01*
X147761905Y-61547619D02*
X147809524Y-61500000D01*
X147904762Y-61452381D01*
X148142858Y-61452381D01*
X148238096Y-61500000D01*
X148285715Y-61547619D01*
X148333334Y-61642857D01*
X148333334Y-61738095D01*
X148285715Y-61880952D01*
X147714286Y-62452381D01*
X148333334Y-62452381D01*
X148666667Y-61452381D02*
X149333334Y-61452381D01*
X148904762Y-62452381D01*
X149904762Y-61452381D02*
X150000001Y-61452381D01*
X150095239Y-61500000D01*
X150142858Y-61547619D01*
X150190477Y-61642857D01*
X150238096Y-61833333D01*
X150238096Y-62071429D01*
X150190477Y-62261905D01*
X150142858Y-62357143D01*
X150095239Y-62404762D01*
X150000001Y-62452381D01*
X149904762Y-62452381D01*
X149809524Y-62404762D01*
X149761905Y-62357143D01*
X149714286Y-62261905D01*
X149666667Y-62071429D01*
X149666667Y-61833333D01*
X149714286Y-61642857D01*
X149761905Y-61547619D01*
X149809524Y-61500000D01*
X149904762Y-61452381D01*
X138761905Y-112547619D02*
X138809524Y-112500000D01*
X138904762Y-112452381D01*
X139142858Y-112452381D01*
X139238096Y-112500000D01*
X139285715Y-112547619D01*
X139333334Y-112642857D01*
X139333334Y-112738095D01*
X139285715Y-112880952D01*
X138714286Y-113452381D01*
X139333334Y-113452381D01*
X139714286Y-112547619D02*
X139761905Y-112500000D01*
X139857143Y-112452381D01*
X140095239Y-112452381D01*
X140190477Y-112500000D01*
X140238096Y-112547619D01*
X140285715Y-112642857D01*
X140285715Y-112738095D01*
X140238096Y-112880952D01*
X139666667Y-113452381D01*
X140285715Y-113452381D01*
X140904762Y-112452381D02*
X141000001Y-112452381D01*
X141095239Y-112500000D01*
X141142858Y-112547619D01*
X141190477Y-112642857D01*
X141238096Y-112833333D01*
X141238096Y-113071429D01*
X141190477Y-113261905D01*
X141142858Y-113357143D01*
X141095239Y-113404762D01*
X141000001Y-113452381D01*
X140904762Y-113452381D01*
X140809524Y-113404762D01*
X140761905Y-113357143D01*
X140714286Y-113261905D01*
X140666667Y-113071429D01*
X140666667Y-112833333D01*
X140714286Y-112642857D01*
X140761905Y-112547619D01*
X140809524Y-112500000D01*
X140904762Y-112452381D01*
X138761905Y-117547619D02*
X138809524Y-117500000D01*
X138904762Y-117452381D01*
X139142858Y-117452381D01*
X139238096Y-117500000D01*
X139285715Y-117547619D01*
X139333334Y-117642857D01*
X139333334Y-117738095D01*
X139285715Y-117880952D01*
X138714286Y-118452381D01*
X139333334Y-118452381D01*
X139714286Y-117547619D02*
X139761905Y-117500000D01*
X139857143Y-117452381D01*
X140095239Y-117452381D01*
X140190477Y-117500000D01*
X140238096Y-117547619D01*
X140285715Y-117642857D01*
X140285715Y-117738095D01*
X140238096Y-117880952D01*
X139666667Y-118452381D01*
X140285715Y-118452381D01*
X140904762Y-117452381D02*
X141000001Y-117452381D01*
X141095239Y-117500000D01*
X141142858Y-117547619D01*
X141190477Y-117642857D01*
X141238096Y-117833333D01*
X141238096Y-118071429D01*
X141190477Y-118261905D01*
X141142858Y-118357143D01*
X141095239Y-118404762D01*
X141000001Y-118452381D01*
X140904762Y-118452381D01*
X140809524Y-118404762D01*
X140761905Y-118357143D01*
X140714286Y-118261905D01*
X140666667Y-118071429D01*
X140666667Y-117833333D01*
X140714286Y-117642857D01*
X140761905Y-117547619D01*
X140809524Y-117500000D01*
X140904762Y-117452381D01*
X138761905Y-122547619D02*
X138809524Y-122500000D01*
X138904762Y-122452381D01*
X139142858Y-122452381D01*
X139238096Y-122500000D01*
X139285715Y-122547619D01*
X139333334Y-122642857D01*
X139333334Y-122738095D01*
X139285715Y-122880952D01*
X138714286Y-123452381D01*
X139333334Y-123452381D01*
X139714286Y-122547619D02*
X139761905Y-122500000D01*
X139857143Y-122452381D01*
X140095239Y-122452381D01*
X140190477Y-122500000D01*
X140238096Y-122547619D01*
X140285715Y-122642857D01*
X140285715Y-122738095D01*
X140238096Y-122880952D01*
X139666667Y-123452381D01*
X140285715Y-123452381D01*
X140904762Y-122452381D02*
X141000001Y-122452381D01*
X141095239Y-122500000D01*
X141142858Y-122547619D01*
X141190477Y-122642857D01*
X141238096Y-122833333D01*
X141238096Y-123071429D01*
X141190477Y-123261905D01*
X141142858Y-123357143D01*
X141095239Y-123404762D01*
X141000001Y-123452381D01*
X140904762Y-123452381D01*
X140809524Y-123404762D01*
X140761905Y-123357143D01*
X140714286Y-123261905D01*
X140666667Y-123071429D01*
X140666667Y-122833333D01*
X140714286Y-122642857D01*
X140761905Y-122547619D01*
X140809524Y-122500000D01*
X140904762Y-122452381D01*
X180252381Y-111241666D02*
X180252381Y-111717857D01*
X179252381Y-111717857D01*
X180252381Y-110908333D02*
X179252381Y-110908333D01*
X179966667Y-110574999D01*
X179252381Y-110241666D01*
X180252381Y-110241666D01*
X179347619Y-109813095D02*
X179300000Y-109765476D01*
X179252381Y-109670238D01*
X179252381Y-109432142D01*
X179300000Y-109336904D01*
X179347619Y-109289285D01*
X179442857Y-109241666D01*
X179538095Y-109241666D01*
X179680952Y-109289285D01*
X180252381Y-109860714D01*
X180252381Y-109241666D01*
X179252381Y-108336904D02*
X179252381Y-108813095D01*
X179728571Y-108860714D01*
X179680952Y-108813095D01*
X179633333Y-108717857D01*
X179633333Y-108479761D01*
X179680952Y-108384523D01*
X179728571Y-108336904D01*
X179823810Y-108289285D01*
X180061905Y-108289285D01*
X180157143Y-108336904D01*
X180204762Y-108384523D01*
X180252381Y-108479761D01*
X180252381Y-108717857D01*
X180204762Y-108813095D01*
X180157143Y-108860714D01*
X180252381Y-107813095D02*
X180252381Y-107622619D01*
X180204762Y-107527380D01*
X180157143Y-107479761D01*
X180014286Y-107384523D01*
X179823810Y-107336904D01*
X179442857Y-107336904D01*
X179347619Y-107384523D01*
X179300000Y-107432142D01*
X179252381Y-107527380D01*
X179252381Y-107717857D01*
X179300000Y-107813095D01*
X179347619Y-107860714D01*
X179442857Y-107908333D01*
X179680952Y-107908333D01*
X179776190Y-107860714D01*
X179823810Y-107813095D01*
X179871429Y-107717857D01*
X179871429Y-107527380D01*
X179823810Y-107432142D01*
X179776190Y-107384523D01*
X179680952Y-107336904D01*
X179252381Y-106479761D02*
X179252381Y-106670238D01*
X179300000Y-106765476D01*
X179347619Y-106813095D01*
X179490476Y-106908333D01*
X179680952Y-106955952D01*
X180061905Y-106955952D01*
X180157143Y-106908333D01*
X180204762Y-106860714D01*
X180252381Y-106765476D01*
X180252381Y-106574999D01*
X180204762Y-106479761D01*
X180157143Y-106432142D01*
X180061905Y-106384523D01*
X179823810Y-106384523D01*
X179728571Y-106432142D01*
X179680952Y-106479761D01*
X179633333Y-106574999D01*
X179633333Y-106765476D01*
X179680952Y-106860714D01*
X179728571Y-106908333D01*
X179823810Y-106955952D01*
X180877381Y-69366666D02*
X180877381Y-69842857D01*
X179877381Y-69842857D01*
X180877381Y-69033333D02*
X179877381Y-69033333D01*
X180591667Y-68699999D01*
X179877381Y-68366666D01*
X180877381Y-68366666D01*
X179972619Y-67938095D02*
X179925000Y-67890476D01*
X179877381Y-67795238D01*
X179877381Y-67557142D01*
X179925000Y-67461904D01*
X179972619Y-67414285D01*
X180067857Y-67366666D01*
X180163095Y-67366666D01*
X180305952Y-67414285D01*
X180877381Y-67985714D01*
X180877381Y-67366666D01*
X179877381Y-66461904D02*
X179877381Y-66938095D01*
X180353571Y-66985714D01*
X180305952Y-66938095D01*
X180258333Y-66842857D01*
X180258333Y-66604761D01*
X180305952Y-66509523D01*
X180353571Y-66461904D01*
X180448810Y-66414285D01*
X180686905Y-66414285D01*
X180782143Y-66461904D01*
X180829762Y-66509523D01*
X180877381Y-66604761D01*
X180877381Y-66842857D01*
X180829762Y-66938095D01*
X180782143Y-66985714D01*
X180877381Y-65938095D02*
X180877381Y-65747619D01*
X180829762Y-65652380D01*
X180782143Y-65604761D01*
X180639286Y-65509523D01*
X180448810Y-65461904D01*
X180067857Y-65461904D01*
X179972619Y-65509523D01*
X179925000Y-65557142D01*
X179877381Y-65652380D01*
X179877381Y-65842857D01*
X179925000Y-65938095D01*
X179972619Y-65985714D01*
X180067857Y-66033333D01*
X180305952Y-66033333D01*
X180401190Y-65985714D01*
X180448810Y-65938095D01*
X180496429Y-65842857D01*
X180496429Y-65652380D01*
X180448810Y-65557142D01*
X180401190Y-65509523D01*
X180305952Y-65461904D01*
X179877381Y-64604761D02*
X179877381Y-64795238D01*
X179925000Y-64890476D01*
X179972619Y-64938095D01*
X180115476Y-65033333D01*
X180305952Y-65080952D01*
X180686905Y-65080952D01*
X180782143Y-65033333D01*
X180829762Y-64985714D01*
X180877381Y-64890476D01*
X180877381Y-64699999D01*
X180829762Y-64604761D01*
X180782143Y-64557142D01*
X180686905Y-64509523D01*
X180448810Y-64509523D01*
X180353571Y-64557142D01*
X180305952Y-64604761D01*
X180258333Y-64699999D01*
X180258333Y-64890476D01*
X180305952Y-64985714D01*
X180353571Y-65033333D01*
X180448810Y-65080952D01*
X131733334Y-42952381D02*
X131257143Y-42952381D01*
X131257143Y-41952381D01*
X132066667Y-42952381D02*
X132066667Y-41952381D01*
X132400001Y-42666667D01*
X132733334Y-41952381D01*
X132733334Y-42952381D01*
X133161905Y-42047619D02*
X133209524Y-42000000D01*
X133304762Y-41952381D01*
X133542858Y-41952381D01*
X133638096Y-42000000D01*
X133685715Y-42047619D01*
X133733334Y-42142857D01*
X133733334Y-42238095D01*
X133685715Y-42380952D01*
X133114286Y-42952381D01*
X133733334Y-42952381D01*
X134638096Y-41952381D02*
X134161905Y-41952381D01*
X134114286Y-42428571D01*
X134161905Y-42380952D01*
X134257143Y-42333333D01*
X134495239Y-42333333D01*
X134590477Y-42380952D01*
X134638096Y-42428571D01*
X134685715Y-42523810D01*
X134685715Y-42761905D01*
X134638096Y-42857143D01*
X134590477Y-42904762D01*
X134495239Y-42952381D01*
X134257143Y-42952381D01*
X134161905Y-42904762D01*
X134114286Y-42857143D01*
X135161905Y-42952381D02*
X135352381Y-42952381D01*
X135447620Y-42904762D01*
X135495239Y-42857143D01*
X135590477Y-42714286D01*
X135638096Y-42523810D01*
X135638096Y-42142857D01*
X135590477Y-42047619D01*
X135542858Y-42000000D01*
X135447620Y-41952381D01*
X135257143Y-41952381D01*
X135161905Y-42000000D01*
X135114286Y-42047619D01*
X135066667Y-42142857D01*
X135066667Y-42380952D01*
X135114286Y-42476190D01*
X135161905Y-42523810D01*
X135257143Y-42571429D01*
X135447620Y-42571429D01*
X135542858Y-42523810D01*
X135590477Y-42476190D01*
X135638096Y-42380952D01*
X136495239Y-41952381D02*
X136304762Y-41952381D01*
X136209524Y-42000000D01*
X136161905Y-42047619D01*
X136066667Y-42190476D01*
X136019048Y-42380952D01*
X136019048Y-42761905D01*
X136066667Y-42857143D01*
X136114286Y-42904762D01*
X136209524Y-42952381D01*
X136400001Y-42952381D01*
X136495239Y-42904762D01*
X136542858Y-42857143D01*
X136590477Y-42761905D01*
X136590477Y-42523810D01*
X136542858Y-42428571D01*
X136495239Y-42380952D01*
X136400001Y-42333333D01*
X136209524Y-42333333D01*
X136114286Y-42380952D01*
X136066667Y-42428571D01*
X136019048Y-42523810D01*
X110452381Y-129642857D02*
X110452381Y-130119048D01*
X109452381Y-130119048D01*
X109547619Y-129357143D02*
X109500000Y-129309524D01*
X109452381Y-129214286D01*
X109452381Y-128976190D01*
X109500000Y-128880952D01*
X109547619Y-128833333D01*
X109642857Y-128785714D01*
X109738095Y-128785714D01*
X109880952Y-128833333D01*
X110452381Y-129404762D01*
X110452381Y-128785714D01*
X110452381Y-128309524D02*
X110452381Y-128119048D01*
X110404762Y-128023809D01*
X110357143Y-127976190D01*
X110214286Y-127880952D01*
X110023810Y-127833333D01*
X109642857Y-127833333D01*
X109547619Y-127880952D01*
X109500000Y-127928571D01*
X109452381Y-128023809D01*
X109452381Y-128214286D01*
X109500000Y-128309524D01*
X109547619Y-128357143D01*
X109642857Y-128404762D01*
X109880952Y-128404762D01*
X109976190Y-128357143D01*
X110023810Y-128309524D01*
X110071429Y-128214286D01*
X110071429Y-128023809D01*
X110023810Y-127928571D01*
X109976190Y-127880952D01*
X109880952Y-127833333D01*
X109880952Y-127261905D02*
X109833333Y-127357143D01*
X109785714Y-127404762D01*
X109690476Y-127452381D01*
X109642857Y-127452381D01*
X109547619Y-127404762D01*
X109500000Y-127357143D01*
X109452381Y-127261905D01*
X109452381Y-127071428D01*
X109500000Y-126976190D01*
X109547619Y-126928571D01*
X109642857Y-126880952D01*
X109690476Y-126880952D01*
X109785714Y-126928571D01*
X109833333Y-126976190D01*
X109880952Y-127071428D01*
X109880952Y-127261905D01*
X109928571Y-127357143D01*
X109976190Y-127404762D01*
X110071429Y-127452381D01*
X110261905Y-127452381D01*
X110357143Y-127404762D01*
X110404762Y-127357143D01*
X110452381Y-127261905D01*
X110452381Y-127071428D01*
X110404762Y-126976190D01*
X110357143Y-126928571D01*
X110261905Y-126880952D01*
X110071429Y-126880952D01*
X109976190Y-126928571D01*
X109928571Y-126976190D01*
X109880952Y-127071428D01*
X110452381Y-126452381D02*
X109452381Y-126452381D01*
X110452381Y-125880952D01*
X109452381Y-125880952D01*
X147452381Y-85119047D02*
X146928571Y-85119047D01*
X146833333Y-85166666D01*
X146785714Y-85261904D01*
X146785714Y-85452381D01*
X146833333Y-85547619D01*
X147404762Y-85119047D02*
X147452381Y-85214285D01*
X147452381Y-85452381D01*
X147404762Y-85547619D01*
X147309524Y-85595238D01*
X147214286Y-85595238D01*
X147119048Y-85547619D01*
X147071429Y-85452381D01*
X147071429Y-85214285D01*
X147023810Y-85119047D01*
X147452381Y-84642857D02*
X146785714Y-84642857D01*
X146976190Y-84642857D02*
X146880952Y-84595238D01*
X146833333Y-84547619D01*
X146785714Y-84452381D01*
X146785714Y-84357142D01*
X147452381Y-83595237D02*
X146452381Y-83595237D01*
X147404762Y-83595237D02*
X147452381Y-83690475D01*
X147452381Y-83880952D01*
X147404762Y-83976190D01*
X147357143Y-84023809D01*
X147261905Y-84071428D01*
X146976190Y-84071428D01*
X146880952Y-84023809D01*
X146833333Y-83976190D01*
X146785714Y-83880952D01*
X146785714Y-83690475D01*
X146833333Y-83595237D01*
X146785714Y-82690475D02*
X147452381Y-82690475D01*
X146785714Y-83119047D02*
X147309524Y-83119047D01*
X147404762Y-83071428D01*
X147452381Y-82976190D01*
X147452381Y-82833332D01*
X147404762Y-82738094D01*
X147357143Y-82690475D01*
X147452381Y-82214285D02*
X146785714Y-82214285D01*
X146452381Y-82214285D02*
X146500000Y-82261904D01*
X146547619Y-82214285D01*
X146500000Y-82166666D01*
X146452381Y-82214285D01*
X146547619Y-82214285D01*
X146785714Y-81738095D02*
X147452381Y-81738095D01*
X146880952Y-81738095D02*
X146833333Y-81690476D01*
X146785714Y-81595238D01*
X146785714Y-81452380D01*
X146833333Y-81357142D01*
X146928571Y-81309523D01*
X147452381Y-81309523D01*
X147452381Y-80690476D02*
X147404762Y-80785714D01*
X147357143Y-80833333D01*
X147261905Y-80880952D01*
X146976190Y-80880952D01*
X146880952Y-80833333D01*
X146833333Y-80785714D01*
X146785714Y-80690476D01*
X146785714Y-80547618D01*
X146833333Y-80452380D01*
X146880952Y-80404761D01*
X146976190Y-80357142D01*
X147261905Y-80357142D01*
X147357143Y-80404761D01*
X147404762Y-80452380D01*
X147452381Y-80547618D01*
X147452381Y-80690476D01*
X147547619Y-80166666D02*
X147547619Y-79404761D01*
X147452381Y-79166666D02*
X146785714Y-79166666D01*
X146880952Y-79166666D02*
X146833333Y-79119047D01*
X146785714Y-79023809D01*
X146785714Y-78880951D01*
X146833333Y-78785713D01*
X146928571Y-78738094D01*
X147452381Y-78738094D01*
X146928571Y-78738094D02*
X146833333Y-78690475D01*
X146785714Y-78595237D01*
X146785714Y-78452380D01*
X146833333Y-78357142D01*
X146928571Y-78309523D01*
X147452381Y-78309523D01*
X147452381Y-77833333D02*
X146785714Y-77833333D01*
X146452381Y-77833333D02*
X146500000Y-77880952D01*
X146547619Y-77833333D01*
X146500000Y-77785714D01*
X146452381Y-77833333D01*
X146547619Y-77833333D01*
X146785714Y-77357143D02*
X147452381Y-77357143D01*
X146880952Y-77357143D02*
X146833333Y-77309524D01*
X146785714Y-77214286D01*
X146785714Y-77071428D01*
X146833333Y-76976190D01*
X146928571Y-76928571D01*
X147452381Y-76928571D01*
X147452381Y-76452381D02*
X146785714Y-76452381D01*
X146452381Y-76452381D02*
X146500000Y-76500000D01*
X146547619Y-76452381D01*
X146500000Y-76404762D01*
X146452381Y-76452381D01*
X146547619Y-76452381D01*
X117452381Y-67080952D02*
X117452381Y-67652381D01*
X117452381Y-67366667D02*
X116452381Y-67366667D01*
X116595238Y-67461905D01*
X116690476Y-67557143D01*
X116738095Y-67652381D01*
X117166667Y-66700000D02*
X117166667Y-66223809D01*
X117452381Y-66795238D02*
X116452381Y-66461905D01*
X117452381Y-66128571D01*
X117071429Y-65795238D02*
X117071429Y-65033333D01*
X117452381Y-64557143D02*
X116452381Y-64557143D01*
X117452381Y-63985714D01*
X116452381Y-63985714D01*
X117452381Y-63509524D02*
X116452381Y-63509524D01*
X116452381Y-63128571D01*
X116500000Y-63033333D01*
X116547619Y-62985714D01*
X116642857Y-62938095D01*
X116785714Y-62938095D01*
X116880952Y-62985714D01*
X116928571Y-63033333D01*
X116976190Y-63128571D01*
X116976190Y-63509524D01*
X117452381Y-62509524D02*
X116452381Y-62509524D01*
X117452381Y-61938095D01*
X116452381Y-61938095D01*
X117071429Y-61461905D02*
X117071429Y-60700000D01*
X116928571Y-60223810D02*
X116928571Y-59890476D01*
X117452381Y-59747619D02*
X117452381Y-60223810D01*
X116452381Y-60223810D01*
X116452381Y-59747619D01*
X117357143Y-58747619D02*
X117404762Y-58795238D01*
X117452381Y-58938095D01*
X117452381Y-59033333D01*
X117404762Y-59176191D01*
X117309524Y-59271429D01*
X117214286Y-59319048D01*
X117023810Y-59366667D01*
X116880952Y-59366667D01*
X116690476Y-59319048D01*
X116595238Y-59271429D01*
X116500000Y-59176191D01*
X116452381Y-59033333D01*
X116452381Y-58938095D01*
X116500000Y-58795238D01*
X116547619Y-58747619D01*
X116928571Y-57985714D02*
X116976190Y-57842857D01*
X117023810Y-57795238D01*
X117119048Y-57747619D01*
X117261905Y-57747619D01*
X117357143Y-57795238D01*
X117404762Y-57842857D01*
X117452381Y-57938095D01*
X117452381Y-58319048D01*
X116452381Y-58319048D01*
X116452381Y-57985714D01*
X116500000Y-57890476D01*
X116547619Y-57842857D01*
X116642857Y-57795238D01*
X116738095Y-57795238D01*
X116833333Y-57842857D01*
X116880952Y-57890476D01*
X116928571Y-57985714D01*
X116928571Y-58319048D01*
X125452381Y-77304762D02*
X125452381Y-77876191D01*
X125452381Y-77590477D02*
X124452381Y-77590477D01*
X124595238Y-77685715D01*
X124690476Y-77780953D01*
X124738095Y-77876191D01*
X125166667Y-76923810D02*
X125166667Y-76447619D01*
X125452381Y-77019048D02*
X124452381Y-76685715D01*
X125452381Y-76352381D01*
X125547619Y-76257143D02*
X125547619Y-75495238D01*
X125452381Y-75257143D02*
X124452381Y-75257143D01*
X125452381Y-74685714D01*
X124452381Y-74685714D01*
X125452381Y-74209524D02*
X124452381Y-74209524D01*
X124452381Y-73828571D01*
X124500000Y-73733333D01*
X124547619Y-73685714D01*
X124642857Y-73638095D01*
X124785714Y-73638095D01*
X124880952Y-73685714D01*
X124928571Y-73733333D01*
X124976190Y-73828571D01*
X124976190Y-74209524D01*
X125452381Y-73209524D02*
X124452381Y-73209524D01*
X125452381Y-72638095D01*
X124452381Y-72638095D01*
X125547619Y-72400000D02*
X125547619Y-71638095D01*
X124928571Y-71400000D02*
X124928571Y-71066666D01*
X125452381Y-70923809D02*
X125452381Y-71400000D01*
X124452381Y-71400000D01*
X124452381Y-70923809D01*
X125357143Y-69923809D02*
X125404762Y-69971428D01*
X125452381Y-70114285D01*
X125452381Y-70209523D01*
X125404762Y-70352381D01*
X125309524Y-70447619D01*
X125214286Y-70495238D01*
X125023810Y-70542857D01*
X124880952Y-70542857D01*
X124690476Y-70495238D01*
X124595238Y-70447619D01*
X124500000Y-70352381D01*
X124452381Y-70209523D01*
X124452381Y-70114285D01*
X124500000Y-69971428D01*
X124547619Y-69923809D01*
X124928571Y-69161904D02*
X124976190Y-69019047D01*
X125023810Y-68971428D01*
X125119048Y-68923809D01*
X125261905Y-68923809D01*
X125357143Y-68971428D01*
X125404762Y-69019047D01*
X125452381Y-69114285D01*
X125452381Y-69495238D01*
X124452381Y-69495238D01*
X124452381Y-69161904D01*
X124500000Y-69066666D01*
X124547619Y-69019047D01*
X124642857Y-68971428D01*
X124738095Y-68971428D01*
X124833333Y-69019047D01*
X124880952Y-69066666D01*
X124928571Y-69161904D01*
X124928571Y-69495238D01*
X116552381Y-101904762D02*
X116552381Y-102476191D01*
X116552381Y-102190477D02*
X115552381Y-102190477D01*
X115695238Y-102285715D01*
X115790476Y-102380953D01*
X115838095Y-102476191D01*
X116266667Y-101523810D02*
X116266667Y-101047619D01*
X116552381Y-101619048D02*
X115552381Y-101285715D01*
X116552381Y-100952381D01*
X116647619Y-100857143D02*
X116647619Y-100095238D01*
X116552381Y-99857143D02*
X115552381Y-99857143D01*
X116552381Y-99285714D01*
X115552381Y-99285714D01*
X116552381Y-98809524D02*
X115552381Y-98809524D01*
X115552381Y-98428571D01*
X115600000Y-98333333D01*
X115647619Y-98285714D01*
X115742857Y-98238095D01*
X115885714Y-98238095D01*
X115980952Y-98285714D01*
X116028571Y-98333333D01*
X116076190Y-98428571D01*
X116076190Y-98809524D01*
X116552381Y-97809524D02*
X115552381Y-97809524D01*
X116552381Y-97238095D01*
X115552381Y-97238095D01*
X116647619Y-97000000D02*
X116647619Y-96238095D01*
X116028571Y-96000000D02*
X116028571Y-95666666D01*
X116552381Y-95523809D02*
X116552381Y-96000000D01*
X115552381Y-96000000D01*
X115552381Y-95523809D01*
X116457143Y-94523809D02*
X116504762Y-94571428D01*
X116552381Y-94714285D01*
X116552381Y-94809523D01*
X116504762Y-94952381D01*
X116409524Y-95047619D01*
X116314286Y-95095238D01*
X116123810Y-95142857D01*
X115980952Y-95142857D01*
X115790476Y-95095238D01*
X115695238Y-95047619D01*
X115600000Y-94952381D01*
X115552381Y-94809523D01*
X115552381Y-94714285D01*
X115600000Y-94571428D01*
X115647619Y-94523809D01*
X116028571Y-93761904D02*
X116076190Y-93619047D01*
X116123810Y-93571428D01*
X116219048Y-93523809D01*
X116361905Y-93523809D01*
X116457143Y-93571428D01*
X116504762Y-93619047D01*
X116552381Y-93714285D01*
X116552381Y-94095238D01*
X115552381Y-94095238D01*
X115552381Y-93761904D01*
X115600000Y-93666666D01*
X115647619Y-93619047D01*
X115742857Y-93571428D01*
X115838095Y-93571428D01*
X115933333Y-93619047D01*
X115980952Y-93666666D01*
X116028571Y-93761904D01*
X116028571Y-94095238D01*
X147095238Y-52452381D02*
X146523809Y-52452381D01*
X146809523Y-52452381D02*
X146809523Y-51452381D01*
X146714285Y-51595238D01*
X146619047Y-51690476D01*
X146523809Y-51738095D01*
X147476190Y-52166667D02*
X147952381Y-52166667D01*
X147380952Y-52452381D02*
X147714285Y-51452381D01*
X148047619Y-52452381D01*
X148142857Y-52547619D02*
X148904762Y-52547619D01*
X149142857Y-52452381D02*
X149142857Y-51452381D01*
X149714286Y-52452381D01*
X149714286Y-51452381D01*
X150190476Y-52452381D02*
X150190476Y-51452381D01*
X150571429Y-51452381D01*
X150666667Y-51500000D01*
X150714286Y-51547619D01*
X150761905Y-51642857D01*
X150761905Y-51785714D01*
X150714286Y-51880952D01*
X150666667Y-51928571D01*
X150571429Y-51976190D01*
X150190476Y-51976190D01*
X151190476Y-52452381D02*
X151190476Y-51452381D01*
X151761905Y-52452381D01*
X151761905Y-51452381D01*
X152000000Y-52547619D02*
X152761905Y-52547619D01*
X153000000Y-51928571D02*
X153333334Y-51928571D01*
X153476191Y-52452381D02*
X153000000Y-52452381D01*
X153000000Y-51452381D01*
X153476191Y-51452381D01*
X154476191Y-52357143D02*
X154428572Y-52404762D01*
X154285715Y-52452381D01*
X154190477Y-52452381D01*
X154047619Y-52404762D01*
X153952381Y-52309524D01*
X153904762Y-52214286D01*
X153857143Y-52023810D01*
X153857143Y-51880952D01*
X153904762Y-51690476D01*
X153952381Y-51595238D01*
X154047619Y-51500000D01*
X154190477Y-51452381D01*
X154285715Y-51452381D01*
X154428572Y-51500000D01*
X154476191Y-51547619D01*
X155238096Y-51928571D02*
X155380953Y-51976190D01*
X155428572Y-52023810D01*
X155476191Y-52119048D01*
X155476191Y-52261905D01*
X155428572Y-52357143D01*
X155380953Y-52404762D01*
X155285715Y-52452381D01*
X154904762Y-52452381D01*
X154904762Y-51452381D01*
X155238096Y-51452381D01*
X155333334Y-51500000D01*
X155380953Y-51547619D01*
X155428572Y-51642857D01*
X155428572Y-51738095D01*
X155380953Y-51833333D01*
X155333334Y-51880952D01*
X155238096Y-51928571D01*
X154904762Y-51928571D01*
X121277381Y-82319047D02*
X121277381Y-82890476D01*
X121277381Y-82604762D02*
X120277381Y-82604762D01*
X120420238Y-82700000D01*
X120515476Y-82795238D01*
X120563095Y-82890476D01*
X121277381Y-81890476D02*
X120277381Y-81890476D01*
X120896429Y-81795238D02*
X121277381Y-81509523D01*
X120610714Y-81509523D02*
X120991667Y-81890476D01*
M02*
