G04 #@! TF.GenerationSoftware,KiCad,Pcbnew,5.1.5-52549c5~84~ubuntu18.04.1*
G04 #@! TF.CreationDate,2020-05-18T18:44:33+01:00*
G04 #@! TF.ProjectId,flypi,666c7970-692e-46b6-9963-61645f706362,rev?*
G04 #@! TF.SameCoordinates,Original*
G04 #@! TF.FileFunction,Other,Comment*
%FSLAX46Y46*%
G04 Gerber Fmt 4.6, Leading zero omitted, Abs format (unit mm)*
G04 Created by KiCad (PCBNEW 5.1.5-52549c5~84~ubuntu18.04.1) date 2020-05-18 18:44:33*
%MOMM*%
%LPD*%
G04 APERTURE LIST*
%ADD10C,0.300000*%
%ADD11C,0.150000*%
G04 APERTURE END LIST*
D10*
X114486571Y-110735857D02*
X114486571Y-110164428D01*
X113986571Y-110521571D02*
X115272285Y-110521571D01*
X115415142Y-110450142D01*
X115486571Y-110307285D01*
X115486571Y-110164428D01*
X115486571Y-109450142D02*
X115415142Y-109593000D01*
X115343714Y-109664428D01*
X115200857Y-109735857D01*
X114772285Y-109735857D01*
X114629428Y-109664428D01*
X114558000Y-109593000D01*
X114486571Y-109450142D01*
X114486571Y-109235857D01*
X114558000Y-109093000D01*
X114629428Y-109021571D01*
X114772285Y-108950142D01*
X115200857Y-108950142D01*
X115343714Y-109021571D01*
X115415142Y-109093000D01*
X115486571Y-109235857D01*
X115486571Y-109450142D01*
X114486571Y-108307285D02*
X115986571Y-108307285D01*
X114558000Y-108307285D02*
X114486571Y-108164428D01*
X114486571Y-107878714D01*
X114558000Y-107735857D01*
X114629428Y-107664428D01*
X114772285Y-107593000D01*
X115200857Y-107593000D01*
X115343714Y-107664428D01*
X115415142Y-107735857D01*
X115486571Y-107878714D01*
X115486571Y-108164428D01*
X115415142Y-108307285D01*
X114613571Y-122673857D02*
X114613571Y-122102428D01*
X114113571Y-122459571D02*
X115399285Y-122459571D01*
X115542142Y-122388142D01*
X115613571Y-122245285D01*
X115613571Y-122102428D01*
X115613571Y-121388142D02*
X115542142Y-121531000D01*
X115470714Y-121602428D01*
X115327857Y-121673857D01*
X114899285Y-121673857D01*
X114756428Y-121602428D01*
X114685000Y-121531000D01*
X114613571Y-121388142D01*
X114613571Y-121173857D01*
X114685000Y-121031000D01*
X114756428Y-120959571D01*
X114899285Y-120888142D01*
X115327857Y-120888142D01*
X115470714Y-120959571D01*
X115542142Y-121031000D01*
X115613571Y-121173857D01*
X115613571Y-121388142D01*
X114613571Y-120245285D02*
X116113571Y-120245285D01*
X114685000Y-120245285D02*
X114613571Y-120102428D01*
X114613571Y-119816714D01*
X114685000Y-119673857D01*
X114756428Y-119602428D01*
X114899285Y-119531000D01*
X115327857Y-119531000D01*
X115470714Y-119602428D01*
X115542142Y-119673857D01*
X115613571Y-119816714D01*
X115613571Y-120102428D01*
X115542142Y-120245285D01*
X105977571Y-122419857D02*
X105977571Y-121848428D01*
X105477571Y-122205571D02*
X106763285Y-122205571D01*
X106906142Y-122134142D01*
X106977571Y-121991285D01*
X106977571Y-121848428D01*
X106977571Y-121134142D02*
X106906142Y-121277000D01*
X106834714Y-121348428D01*
X106691857Y-121419857D01*
X106263285Y-121419857D01*
X106120428Y-121348428D01*
X106049000Y-121277000D01*
X105977571Y-121134142D01*
X105977571Y-120919857D01*
X106049000Y-120777000D01*
X106120428Y-120705571D01*
X106263285Y-120634142D01*
X106691857Y-120634142D01*
X106834714Y-120705571D01*
X106906142Y-120777000D01*
X106977571Y-120919857D01*
X106977571Y-121134142D01*
X105977571Y-119991285D02*
X107477571Y-119991285D01*
X106049000Y-119991285D02*
X105977571Y-119848428D01*
X105977571Y-119562714D01*
X106049000Y-119419857D01*
X106120428Y-119348428D01*
X106263285Y-119277000D01*
X106691857Y-119277000D01*
X106834714Y-119348428D01*
X106906142Y-119419857D01*
X106977571Y-119562714D01*
X106977571Y-119848428D01*
X106906142Y-119991285D01*
X105850571Y-111497857D02*
X105850571Y-110926428D01*
X105350571Y-111283571D02*
X106636285Y-111283571D01*
X106779142Y-111212142D01*
X106850571Y-111069285D01*
X106850571Y-110926428D01*
X106850571Y-110212142D02*
X106779142Y-110355000D01*
X106707714Y-110426428D01*
X106564857Y-110497857D01*
X106136285Y-110497857D01*
X105993428Y-110426428D01*
X105922000Y-110355000D01*
X105850571Y-110212142D01*
X105850571Y-109997857D01*
X105922000Y-109855000D01*
X105993428Y-109783571D01*
X106136285Y-109712142D01*
X106564857Y-109712142D01*
X106707714Y-109783571D01*
X106779142Y-109855000D01*
X106850571Y-109997857D01*
X106850571Y-110212142D01*
X105850571Y-109069285D02*
X107350571Y-109069285D01*
X105922000Y-109069285D02*
X105850571Y-108926428D01*
X105850571Y-108640714D01*
X105922000Y-108497857D01*
X105993428Y-108426428D01*
X106136285Y-108355000D01*
X106564857Y-108355000D01*
X106707714Y-108426428D01*
X106779142Y-108497857D01*
X106850571Y-108640714D01*
X106850571Y-108926428D01*
X106779142Y-109069285D01*
X128532142Y-81212571D02*
X129103571Y-81212571D01*
X128746428Y-80712571D02*
X128746428Y-81998285D01*
X128817857Y-82141142D01*
X128960714Y-82212571D01*
X129103571Y-82212571D01*
X129817857Y-82212571D02*
X129675000Y-82141142D01*
X129603571Y-82069714D01*
X129532142Y-81926857D01*
X129532142Y-81498285D01*
X129603571Y-81355428D01*
X129675000Y-81284000D01*
X129817857Y-81212571D01*
X130032142Y-81212571D01*
X130175000Y-81284000D01*
X130246428Y-81355428D01*
X130317857Y-81498285D01*
X130317857Y-81926857D01*
X130246428Y-82069714D01*
X130175000Y-82141142D01*
X130032142Y-82212571D01*
X129817857Y-82212571D01*
X130960714Y-81212571D02*
X130960714Y-82712571D01*
X130960714Y-81284000D02*
X131103571Y-81212571D01*
X131389285Y-81212571D01*
X131532142Y-81284000D01*
X131603571Y-81355428D01*
X131675000Y-81498285D01*
X131675000Y-81926857D01*
X131603571Y-82069714D01*
X131532142Y-82141142D01*
X131389285Y-82212571D01*
X131103571Y-82212571D01*
X130960714Y-82141142D01*
X105723571Y-92193857D02*
X105723571Y-91622428D01*
X105223571Y-91979571D02*
X106509285Y-91979571D01*
X106652142Y-91908142D01*
X106723571Y-91765285D01*
X106723571Y-91622428D01*
X106723571Y-90908142D02*
X106652142Y-91051000D01*
X106580714Y-91122428D01*
X106437857Y-91193857D01*
X106009285Y-91193857D01*
X105866428Y-91122428D01*
X105795000Y-91051000D01*
X105723571Y-90908142D01*
X105723571Y-90693857D01*
X105795000Y-90551000D01*
X105866428Y-90479571D01*
X106009285Y-90408142D01*
X106437857Y-90408142D01*
X106580714Y-90479571D01*
X106652142Y-90551000D01*
X106723571Y-90693857D01*
X106723571Y-90908142D01*
X105723571Y-89765285D02*
X107223571Y-89765285D01*
X105795000Y-89765285D02*
X105723571Y-89622428D01*
X105723571Y-89336714D01*
X105795000Y-89193857D01*
X105866428Y-89122428D01*
X106009285Y-89051000D01*
X106437857Y-89051000D01*
X106580714Y-89122428D01*
X106652142Y-89193857D01*
X106723571Y-89336714D01*
X106723571Y-89622428D01*
X106652142Y-89765285D01*
X105850571Y-70603857D02*
X105850571Y-70032428D01*
X105350571Y-70389571D02*
X106636285Y-70389571D01*
X106779142Y-70318142D01*
X106850571Y-70175285D01*
X106850571Y-70032428D01*
X106850571Y-69318142D02*
X106779142Y-69461000D01*
X106707714Y-69532428D01*
X106564857Y-69603857D01*
X106136285Y-69603857D01*
X105993428Y-69532428D01*
X105922000Y-69461000D01*
X105850571Y-69318142D01*
X105850571Y-69103857D01*
X105922000Y-68961000D01*
X105993428Y-68889571D01*
X106136285Y-68818142D01*
X106564857Y-68818142D01*
X106707714Y-68889571D01*
X106779142Y-68961000D01*
X106850571Y-69103857D01*
X106850571Y-69318142D01*
X105850571Y-68175285D02*
X107350571Y-68175285D01*
X105922000Y-68175285D02*
X105850571Y-68032428D01*
X105850571Y-67746714D01*
X105922000Y-67603857D01*
X105993428Y-67532428D01*
X106136285Y-67461000D01*
X106564857Y-67461000D01*
X106707714Y-67532428D01*
X106779142Y-67603857D01*
X106850571Y-67746714D01*
X106850571Y-68032428D01*
X106779142Y-68175285D01*
X168029142Y-66099571D02*
X168600571Y-66099571D01*
X168243428Y-65599571D02*
X168243428Y-66885285D01*
X168314857Y-67028142D01*
X168457714Y-67099571D01*
X168600571Y-67099571D01*
X169314857Y-67099571D02*
X169172000Y-67028142D01*
X169100571Y-66956714D01*
X169029142Y-66813857D01*
X169029142Y-66385285D01*
X169100571Y-66242428D01*
X169172000Y-66171000D01*
X169314857Y-66099571D01*
X169529142Y-66099571D01*
X169672000Y-66171000D01*
X169743428Y-66242428D01*
X169814857Y-66385285D01*
X169814857Y-66813857D01*
X169743428Y-66956714D01*
X169672000Y-67028142D01*
X169529142Y-67099571D01*
X169314857Y-67099571D01*
X170457714Y-66099571D02*
X170457714Y-67599571D01*
X170457714Y-66171000D02*
X170600571Y-66099571D01*
X170886285Y-66099571D01*
X171029142Y-66171000D01*
X171100571Y-66242428D01*
X171172000Y-66385285D01*
X171172000Y-66813857D01*
X171100571Y-66956714D01*
X171029142Y-67028142D01*
X170886285Y-67099571D01*
X170600571Y-67099571D01*
X170457714Y-67028142D01*
X176157142Y-66226571D02*
X176728571Y-66226571D01*
X176371428Y-65726571D02*
X176371428Y-67012285D01*
X176442857Y-67155142D01*
X176585714Y-67226571D01*
X176728571Y-67226571D01*
X177442857Y-67226571D02*
X177300000Y-67155142D01*
X177228571Y-67083714D01*
X177157142Y-66940857D01*
X177157142Y-66512285D01*
X177228571Y-66369428D01*
X177300000Y-66298000D01*
X177442857Y-66226571D01*
X177657142Y-66226571D01*
X177800000Y-66298000D01*
X177871428Y-66369428D01*
X177942857Y-66512285D01*
X177942857Y-66940857D01*
X177871428Y-67083714D01*
X177800000Y-67155142D01*
X177657142Y-67226571D01*
X177442857Y-67226571D01*
X178585714Y-66226571D02*
X178585714Y-67726571D01*
X178585714Y-66298000D02*
X178728571Y-66226571D01*
X179014285Y-66226571D01*
X179157142Y-66298000D01*
X179228571Y-66369428D01*
X179300000Y-66512285D01*
X179300000Y-66940857D01*
X179228571Y-67083714D01*
X179157142Y-67155142D01*
X179014285Y-67226571D01*
X178728571Y-67226571D01*
X178585714Y-67155142D01*
D11*
X112300000Y-53500000D02*
G75*
G03X112300000Y-53500000I-2800000J0D01*
G01*
X112300000Y-129500000D02*
G75*
G03X112300000Y-129500000I-2800000J0D01*
G01*
X179300000Y-53500000D02*
G75*
G03X179300000Y-53500000I-2800000J0D01*
G01*
X179300000Y-129500000D02*
G75*
G03X179300000Y-129500000I-2800000J0D01*
G01*
M02*
