G04 #@! TF.FileFunction,Other,Fab,Bot*
%FSLAX46Y46*%
G04 Gerber Fmt 4.6, Leading zero omitted, Abs format (unit mm)*
G04 Created by KiCad (PCBNEW 4.0.2+e4-6225~38~ubuntu14.04.1-stable) date Mi 27 Jul 2016 00:48:38 CEST*
%MOMM*%
G01*
G04 APERTURE LIST*
%ADD10C,0.100000*%
%ADD11C,0.150000*%
G04 APERTURE END LIST*
D10*
D11*
X120952381Y-86380953D02*
X120952381Y-85809524D01*
X120952381Y-86095238D02*
X119952381Y-86095238D01*
X120095238Y-86000000D01*
X120190476Y-85904762D01*
X120238095Y-85809524D01*
X120571429Y-87571429D02*
X120571429Y-88333334D01*
X120952381Y-90095239D02*
X120952381Y-89523810D01*
X120952381Y-89809524D02*
X119952381Y-89809524D01*
X120095238Y-89714286D01*
X120190476Y-89619048D01*
X120238095Y-89523810D01*
X120380952Y-90666667D02*
X120333333Y-90571429D01*
X120285714Y-90523810D01*
X120190476Y-90476191D01*
X120142857Y-90476191D01*
X120047619Y-90523810D01*
X120000000Y-90571429D01*
X119952381Y-90666667D01*
X119952381Y-90857144D01*
X120000000Y-90952382D01*
X120047619Y-91000001D01*
X120142857Y-91047620D01*
X120190476Y-91047620D01*
X120285714Y-91000001D01*
X120333333Y-90952382D01*
X120380952Y-90857144D01*
X120380952Y-90666667D01*
X120428571Y-90571429D01*
X120476190Y-90523810D01*
X120571429Y-90476191D01*
X120761905Y-90476191D01*
X120857143Y-90523810D01*
X120904762Y-90571429D01*
X120952381Y-90666667D01*
X120952381Y-90857144D01*
X120904762Y-90952382D01*
X120857143Y-91000001D01*
X120761905Y-91047620D01*
X120571429Y-91047620D01*
X120476190Y-91000001D01*
X120428571Y-90952382D01*
X120380952Y-90857144D01*
X119952381Y-91380953D02*
X120952381Y-91619048D01*
X120238095Y-91809525D01*
X120952381Y-92000001D01*
X119952381Y-92238096D01*
M02*
