G04 #@! TF.GenerationSoftware,KiCad,Pcbnew,5.1.5-52549c5~84~ubuntu18.04.1*
G04 #@! TF.CreationDate,2020-05-18T18:44:33+01:00*
G04 #@! TF.ProjectId,flypi,666c7970-692e-46b6-9963-61645f706362,rev?*
G04 #@! TF.SameCoordinates,Original*
G04 #@! TF.FileFunction,Profile,NP*
%FSLAX46Y46*%
G04 Gerber Fmt 4.6, Leading zero omitted, Abs format (unit mm)*
G04 Created by KiCad (PCBNEW 5.1.5-52549c5~84~ubuntu18.04.1) date 2020-05-18 18:44:33*
%MOMM*%
%LPD*%
G04 APERTURE LIST*
%ADD10C,0.100000*%
G04 APERTURE END LIST*
D10*
X106666666Y-134000000D02*
G75*
G03X106666666Y-134000000I-1666666J0D01*
G01*
X102500000Y-134000000D02*
X107500000Y-134000000D01*
X105000000Y-131500000D02*
X105000000Y-136500000D01*
X182766666Y-134000000D02*
G75*
G03X182766666Y-134000000I-1666666J0D01*
G01*
X178600000Y-134000000D02*
X183600000Y-134000000D01*
X181100000Y-131500000D02*
X181100000Y-136500000D01*
X105000000Y-49000000D02*
X105000000Y-134000000D01*
X181100000Y-49000000D02*
X105000000Y-49000000D01*
X181100000Y-134000000D02*
X181100000Y-49000000D01*
X105000000Y-134000000D02*
X181100000Y-134000000D01*
X106666666Y-49000000D02*
G75*
G03X106666666Y-49000000I-1666666J0D01*
G01*
X102500000Y-49000000D02*
X107500000Y-49000000D01*
X105000000Y-46500000D02*
X105000000Y-51500000D01*
X182766666Y-49000000D02*
G75*
G03X182766666Y-49000000I-1666666J0D01*
G01*
X178600000Y-49000000D02*
X183600000Y-49000000D01*
X181100000Y-46500000D02*
X181100000Y-51500000D01*
X106000000Y-134000000D02*
X105000000Y-134000000D01*
X105150000Y-49000000D02*
X108400000Y-49000000D01*
X105150000Y-49000000D02*
X105000000Y-49000000D01*
X181050000Y-134000000D02*
X181100000Y-134000000D01*
X181000000Y-134000000D02*
X181100000Y-134000000D01*
M02*
