G04 #@! TF.FileFunction,Other,ECO2*
%FSLAX46Y46*%
G04 Gerber Fmt 4.6, Leading zero omitted, Abs format (unit mm)*
G04 Created by KiCad (PCBNEW 4.0.2-stable) date 09/03/2018 10:42:28*
%MOMM*%
G01*
G04 APERTURE LIST*
%ADD10C,0.100000*%
%ADD11C,0.150000*%
%ADD12C,0.300000*%
%ADD13C,0.400000*%
G04 APERTURE END LIST*
D10*
D11*
X177002200Y-166007200D02*
X177002200Y-198007200D01*
X285002200Y-198007200D01*
X285002200Y-166007200D01*
X177002200Y-166007200D01*
D10*
D11*
X10000000Y-10000000D02*
X10000000Y-200007200D01*
X287002200Y-200007200D01*
X287002200Y-10000000D01*
X10000000Y-10000000D01*
D10*
D11*
X12000000Y-12000000D02*
X12000000Y-198007200D01*
X285002200Y-198007200D01*
X285002200Y-12000000D01*
X12000000Y-12000000D01*
D10*
D11*
X60000000Y-12000000D02*
X60000000Y-10000000D01*
D10*
D11*
X110000000Y-12000000D02*
X110000000Y-10000000D01*
D10*
D11*
X160000000Y-12000000D02*
X160000000Y-10000000D01*
D10*
D11*
X210000000Y-12000000D02*
X210000000Y-10000000D01*
D10*
D11*
X260000000Y-12000000D02*
X260000000Y-10000000D01*
D10*
D11*
X35990476Y-11588095D02*
X35247619Y-11588095D01*
X35619048Y-11588095D02*
X35619048Y-10288095D01*
X35495238Y-10473810D01*
X35371429Y-10597619D01*
X35247619Y-10659524D01*
D10*
D11*
X85247619Y-10411905D02*
X85309524Y-10350000D01*
X85433333Y-10288095D01*
X85742857Y-10288095D01*
X85866667Y-10350000D01*
X85928571Y-10411905D01*
X85990476Y-10535714D01*
X85990476Y-10659524D01*
X85928571Y-10845238D01*
X85185714Y-11588095D01*
X85990476Y-11588095D01*
D10*
D11*
X135185714Y-10288095D02*
X135990476Y-10288095D01*
X135557143Y-10783333D01*
X135742857Y-10783333D01*
X135866667Y-10845238D01*
X135928571Y-10907143D01*
X135990476Y-11030952D01*
X135990476Y-11340476D01*
X135928571Y-11464286D01*
X135866667Y-11526190D01*
X135742857Y-11588095D01*
X135371429Y-11588095D01*
X135247619Y-11526190D01*
X135185714Y-11464286D01*
D10*
D11*
X185866667Y-10721429D02*
X185866667Y-11588095D01*
X185557143Y-10226190D02*
X185247619Y-11154762D01*
X186052381Y-11154762D01*
D10*
D11*
X235928571Y-10288095D02*
X235309524Y-10288095D01*
X235247619Y-10907143D01*
X235309524Y-10845238D01*
X235433333Y-10783333D01*
X235742857Y-10783333D01*
X235866667Y-10845238D01*
X235928571Y-10907143D01*
X235990476Y-11030952D01*
X235990476Y-11340476D01*
X235928571Y-11464286D01*
X235866667Y-11526190D01*
X235742857Y-11588095D01*
X235433333Y-11588095D01*
X235309524Y-11526190D01*
X235247619Y-11464286D01*
D10*
D11*
X285866667Y-10288095D02*
X285619048Y-10288095D01*
X285495238Y-10350000D01*
X285433333Y-10411905D01*
X285309524Y-10597619D01*
X285247619Y-10845238D01*
X285247619Y-11340476D01*
X285309524Y-11464286D01*
X285371429Y-11526190D01*
X285495238Y-11588095D01*
X285742857Y-11588095D01*
X285866667Y-11526190D01*
X285928571Y-11464286D01*
X285990476Y-11340476D01*
X285990476Y-11030952D01*
X285928571Y-10907143D01*
X285866667Y-10845238D01*
X285742857Y-10783333D01*
X285495238Y-10783333D01*
X285371429Y-10845238D01*
X285309524Y-10907143D01*
X285247619Y-11030952D01*
D10*
D11*
X60000000Y-198007200D02*
X60000000Y-200007200D01*
D10*
D11*
X110000000Y-198007200D02*
X110000000Y-200007200D01*
D10*
D11*
X160000000Y-198007200D02*
X160000000Y-200007200D01*
D10*
D11*
X210000000Y-198007200D02*
X210000000Y-200007200D01*
D10*
D11*
X260000000Y-198007200D02*
X260000000Y-200007200D01*
D10*
D11*
X35990476Y-199595295D02*
X35247619Y-199595295D01*
X35619048Y-199595295D02*
X35619048Y-198295295D01*
X35495238Y-198481010D01*
X35371429Y-198604819D01*
X35247619Y-198666724D01*
D10*
D11*
X85247619Y-198419105D02*
X85309524Y-198357200D01*
X85433333Y-198295295D01*
X85742857Y-198295295D01*
X85866667Y-198357200D01*
X85928571Y-198419105D01*
X85990476Y-198542914D01*
X85990476Y-198666724D01*
X85928571Y-198852438D01*
X85185714Y-199595295D01*
X85990476Y-199595295D01*
D10*
D11*
X135185714Y-198295295D02*
X135990476Y-198295295D01*
X135557143Y-198790533D01*
X135742857Y-198790533D01*
X135866667Y-198852438D01*
X135928571Y-198914343D01*
X135990476Y-199038152D01*
X135990476Y-199347676D01*
X135928571Y-199471486D01*
X135866667Y-199533390D01*
X135742857Y-199595295D01*
X135371429Y-199595295D01*
X135247619Y-199533390D01*
X135185714Y-199471486D01*
D10*
D11*
X185866667Y-198728629D02*
X185866667Y-199595295D01*
X185557143Y-198233390D02*
X185247619Y-199161962D01*
X186052381Y-199161962D01*
D10*
D11*
X235928571Y-198295295D02*
X235309524Y-198295295D01*
X235247619Y-198914343D01*
X235309524Y-198852438D01*
X235433333Y-198790533D01*
X235742857Y-198790533D01*
X235866667Y-198852438D01*
X235928571Y-198914343D01*
X235990476Y-199038152D01*
X235990476Y-199347676D01*
X235928571Y-199471486D01*
X235866667Y-199533390D01*
X235742857Y-199595295D01*
X235433333Y-199595295D01*
X235309524Y-199533390D01*
X235247619Y-199471486D01*
D10*
D11*
X285866667Y-198295295D02*
X285619048Y-198295295D01*
X285495238Y-198357200D01*
X285433333Y-198419105D01*
X285309524Y-198604819D01*
X285247619Y-198852438D01*
X285247619Y-199347676D01*
X285309524Y-199471486D01*
X285371429Y-199533390D01*
X285495238Y-199595295D01*
X285742857Y-199595295D01*
X285866667Y-199533390D01*
X285928571Y-199471486D01*
X285990476Y-199347676D01*
X285990476Y-199038152D01*
X285928571Y-198914343D01*
X285866667Y-198852438D01*
X285742857Y-198790533D01*
X285495238Y-198790533D01*
X285371429Y-198852438D01*
X285309524Y-198914343D01*
X285247619Y-199038152D01*
D10*
D11*
X10000000Y-60000000D02*
X12000000Y-60000000D01*
D10*
D11*
X10000000Y-110000000D02*
X12000000Y-110000000D01*
D10*
D11*
X10000000Y-160000000D02*
X12000000Y-160000000D01*
D10*
D11*
X10690476Y-35216667D02*
X11309524Y-35216667D01*
X10566667Y-35588095D02*
X11000000Y-34288095D01*
X11433333Y-35588095D01*
D10*
D11*
X11092857Y-84907143D02*
X11278571Y-84969048D01*
X11340476Y-85030952D01*
X11402381Y-85154762D01*
X11402381Y-85340476D01*
X11340476Y-85464286D01*
X11278571Y-85526190D01*
X11154762Y-85588095D01*
X10659524Y-85588095D01*
X10659524Y-84288095D01*
X11092857Y-84288095D01*
X11216667Y-84350000D01*
X11278571Y-84411905D01*
X11340476Y-84535714D01*
X11340476Y-84659524D01*
X11278571Y-84783333D01*
X11216667Y-84845238D01*
X11092857Y-84907143D01*
X10659524Y-84907143D01*
D10*
D11*
X11402381Y-135464286D02*
X11340476Y-135526190D01*
X11154762Y-135588095D01*
X11030952Y-135588095D01*
X10845238Y-135526190D01*
X10721429Y-135402381D01*
X10659524Y-135278571D01*
X10597619Y-135030952D01*
X10597619Y-134845238D01*
X10659524Y-134597619D01*
X10721429Y-134473810D01*
X10845238Y-134350000D01*
X11030952Y-134288095D01*
X11154762Y-134288095D01*
X11340476Y-134350000D01*
X11402381Y-134411905D01*
D10*
D11*
X10659524Y-185588095D02*
X10659524Y-184288095D01*
X10969048Y-184288095D01*
X11154762Y-184350000D01*
X11278571Y-184473810D01*
X11340476Y-184597619D01*
X11402381Y-184845238D01*
X11402381Y-185030952D01*
X11340476Y-185278571D01*
X11278571Y-185402381D01*
X11154762Y-185526190D01*
X10969048Y-185588095D01*
X10659524Y-185588095D01*
D10*
D11*
X287002200Y-60000000D02*
X285002200Y-60000000D01*
D10*
D11*
X287002200Y-110000000D02*
X285002200Y-110000000D01*
D10*
D11*
X287002200Y-160000000D02*
X285002200Y-160000000D01*
D10*
D11*
X285692676Y-35216667D02*
X286311724Y-35216667D01*
X285568867Y-35588095D02*
X286002200Y-34288095D01*
X286435533Y-35588095D01*
D10*
D11*
X286095057Y-84907143D02*
X286280771Y-84969048D01*
X286342676Y-85030952D01*
X286404581Y-85154762D01*
X286404581Y-85340476D01*
X286342676Y-85464286D01*
X286280771Y-85526190D01*
X286156962Y-85588095D01*
X285661724Y-85588095D01*
X285661724Y-84288095D01*
X286095057Y-84288095D01*
X286218867Y-84350000D01*
X286280771Y-84411905D01*
X286342676Y-84535714D01*
X286342676Y-84659524D01*
X286280771Y-84783333D01*
X286218867Y-84845238D01*
X286095057Y-84907143D01*
X285661724Y-84907143D01*
D10*
D11*
X286404581Y-135464286D02*
X286342676Y-135526190D01*
X286156962Y-135588095D01*
X286033152Y-135588095D01*
X285847438Y-135526190D01*
X285723629Y-135402381D01*
X285661724Y-135278571D01*
X285599819Y-135030952D01*
X285599819Y-134845238D01*
X285661724Y-134597619D01*
X285723629Y-134473810D01*
X285847438Y-134350000D01*
X286033152Y-134288095D01*
X286156962Y-134288095D01*
X286342676Y-134350000D01*
X286404581Y-134411905D01*
D10*
D11*
X285661724Y-185588095D02*
X285661724Y-184288095D01*
X285971248Y-184288095D01*
X286156962Y-184350000D01*
X286280771Y-184473810D01*
X286342676Y-184597619D01*
X286404581Y-184845238D01*
X286404581Y-185030952D01*
X286342676Y-185278571D01*
X286280771Y-185402381D01*
X286156962Y-185526190D01*
X285971248Y-185588095D01*
X285661724Y-185588095D01*
D10*
D11*
X200359343Y-193785771D02*
X200359343Y-192285771D01*
X200716486Y-192285771D01*
X200930771Y-192357200D01*
X201073629Y-192500057D01*
X201145057Y-192642914D01*
X201216486Y-192928629D01*
X201216486Y-193142914D01*
X201145057Y-193428629D01*
X201073629Y-193571486D01*
X200930771Y-193714343D01*
X200716486Y-193785771D01*
X200359343Y-193785771D01*
X202502200Y-193785771D02*
X202502200Y-193000057D01*
X202430771Y-192857200D01*
X202287914Y-192785771D01*
X202002200Y-192785771D01*
X201859343Y-192857200D01*
X202502200Y-193714343D02*
X202359343Y-193785771D01*
X202002200Y-193785771D01*
X201859343Y-193714343D01*
X201787914Y-193571486D01*
X201787914Y-193428629D01*
X201859343Y-193285771D01*
X202002200Y-193214343D01*
X202359343Y-193214343D01*
X202502200Y-193142914D01*
X203002200Y-192785771D02*
X203573629Y-192785771D01*
X203216486Y-192285771D02*
X203216486Y-193571486D01*
X203287914Y-193714343D01*
X203430772Y-193785771D01*
X203573629Y-193785771D01*
X204645057Y-193714343D02*
X204502200Y-193785771D01*
X204216486Y-193785771D01*
X204073629Y-193714343D01*
X204002200Y-193571486D01*
X204002200Y-193000057D01*
X204073629Y-192857200D01*
X204216486Y-192785771D01*
X204502200Y-192785771D01*
X204645057Y-192857200D01*
X204716486Y-193000057D01*
X204716486Y-193142914D01*
X204002200Y-193285771D01*
X205359343Y-193642914D02*
X205430771Y-193714343D01*
X205359343Y-193785771D01*
X205287914Y-193714343D01*
X205359343Y-193642914D01*
X205359343Y-193785771D01*
X205359343Y-192857200D02*
X205430771Y-192928629D01*
X205359343Y-193000057D01*
X205287914Y-192928629D01*
X205359343Y-192857200D01*
X205359343Y-193000057D01*
D10*
D11*
X177002200Y-194507200D02*
X285002200Y-194507200D01*
D10*
D11*
X178359343Y-196585771D02*
X178359343Y-195085771D01*
X179216486Y-196585771D02*
X178573629Y-195728629D01*
X179216486Y-195085771D02*
X178359343Y-195942914D01*
X179859343Y-196585771D02*
X179859343Y-195585771D01*
X179859343Y-195085771D02*
X179787914Y-195157200D01*
X179859343Y-195228629D01*
X179930771Y-195157200D01*
X179859343Y-195085771D01*
X179859343Y-195228629D01*
X181430772Y-196442914D02*
X181359343Y-196514343D01*
X181145057Y-196585771D01*
X181002200Y-196585771D01*
X180787915Y-196514343D01*
X180645057Y-196371486D01*
X180573629Y-196228629D01*
X180502200Y-195942914D01*
X180502200Y-195728629D01*
X180573629Y-195442914D01*
X180645057Y-195300057D01*
X180787915Y-195157200D01*
X181002200Y-195085771D01*
X181145057Y-195085771D01*
X181359343Y-195157200D01*
X181430772Y-195228629D01*
X182716486Y-196585771D02*
X182716486Y-195800057D01*
X182645057Y-195657200D01*
X182502200Y-195585771D01*
X182216486Y-195585771D01*
X182073629Y-195657200D01*
X182716486Y-196514343D02*
X182573629Y-196585771D01*
X182216486Y-196585771D01*
X182073629Y-196514343D01*
X182002200Y-196371486D01*
X182002200Y-196228629D01*
X182073629Y-196085771D01*
X182216486Y-196014343D01*
X182573629Y-196014343D01*
X182716486Y-195942914D01*
X184073629Y-196585771D02*
X184073629Y-195085771D01*
X184073629Y-196514343D02*
X183930772Y-196585771D01*
X183645058Y-196585771D01*
X183502200Y-196514343D01*
X183430772Y-196442914D01*
X183359343Y-196300057D01*
X183359343Y-195871486D01*
X183430772Y-195728629D01*
X183502200Y-195657200D01*
X183645058Y-195585771D01*
X183930772Y-195585771D01*
X184073629Y-195657200D01*
X185930772Y-195800057D02*
X186430772Y-195800057D01*
X186645058Y-196585771D02*
X185930772Y-196585771D01*
X185930772Y-195085771D01*
X186645058Y-195085771D01*
X187287915Y-196442914D02*
X187359343Y-196514343D01*
X187287915Y-196585771D01*
X187216486Y-196514343D01*
X187287915Y-196442914D01*
X187287915Y-196585771D01*
X188002201Y-196585771D02*
X188002201Y-195085771D01*
X188359344Y-195085771D01*
X188573629Y-195157200D01*
X188716487Y-195300057D01*
X188787915Y-195442914D01*
X188859344Y-195728629D01*
X188859344Y-195942914D01*
X188787915Y-196228629D01*
X188716487Y-196371486D01*
X188573629Y-196514343D01*
X188359344Y-196585771D01*
X188002201Y-196585771D01*
X189502201Y-196442914D02*
X189573629Y-196514343D01*
X189502201Y-196585771D01*
X189430772Y-196514343D01*
X189502201Y-196442914D01*
X189502201Y-196585771D01*
X190145058Y-196157200D02*
X190859344Y-196157200D01*
X190002201Y-196585771D02*
X190502201Y-195085771D01*
X191002201Y-196585771D01*
X191502201Y-196442914D02*
X191573629Y-196514343D01*
X191502201Y-196585771D01*
X191430772Y-196514343D01*
X191502201Y-196442914D01*
X191502201Y-196585771D01*
X194502201Y-196585771D02*
X194502201Y-195085771D01*
X194645058Y-196014343D02*
X195073629Y-196585771D01*
X195073629Y-195585771D02*
X194502201Y-196157200D01*
X195716487Y-196585771D02*
X195716487Y-195585771D01*
X195716487Y-195085771D02*
X195645058Y-195157200D01*
X195716487Y-195228629D01*
X195787915Y-195157200D01*
X195716487Y-195085771D01*
X195716487Y-195228629D01*
X197073630Y-196514343D02*
X196930773Y-196585771D01*
X196645059Y-196585771D01*
X196502201Y-196514343D01*
X196430773Y-196442914D01*
X196359344Y-196300057D01*
X196359344Y-195871486D01*
X196430773Y-195728629D01*
X196502201Y-195657200D01*
X196645059Y-195585771D01*
X196930773Y-195585771D01*
X197073630Y-195657200D01*
X198359344Y-196585771D02*
X198359344Y-195800057D01*
X198287915Y-195657200D01*
X198145058Y-195585771D01*
X197859344Y-195585771D01*
X197716487Y-195657200D01*
X198359344Y-196514343D02*
X198216487Y-196585771D01*
X197859344Y-196585771D01*
X197716487Y-196514343D01*
X197645058Y-196371486D01*
X197645058Y-196228629D01*
X197716487Y-196085771D01*
X197859344Y-196014343D01*
X198216487Y-196014343D01*
X198359344Y-195942914D01*
X199716487Y-196585771D02*
X199716487Y-195085771D01*
X199716487Y-196514343D02*
X199573630Y-196585771D01*
X199287916Y-196585771D01*
X199145058Y-196514343D01*
X199073630Y-196442914D01*
X199002201Y-196300057D01*
X199002201Y-195871486D01*
X199073630Y-195728629D01*
X199145058Y-195657200D01*
X199287916Y-195585771D01*
X199573630Y-195585771D01*
X199716487Y-195657200D01*
X202216487Y-195585771D02*
X202216487Y-196585771D01*
X201859344Y-195014343D02*
X201502201Y-196085771D01*
X202430773Y-196085771D01*
X203002201Y-196442914D02*
X203073629Y-196514343D01*
X203002201Y-196585771D01*
X202930772Y-196514343D01*
X203002201Y-196442914D01*
X203002201Y-196585771D01*
X204002201Y-195085771D02*
X204145058Y-195085771D01*
X204287915Y-195157200D01*
X204359344Y-195228629D01*
X204430773Y-195371486D01*
X204502201Y-195657200D01*
X204502201Y-196014343D01*
X204430773Y-196300057D01*
X204359344Y-196442914D01*
X204287915Y-196514343D01*
X204145058Y-196585771D01*
X204002201Y-196585771D01*
X203859344Y-196514343D01*
X203787915Y-196442914D01*
X203716487Y-196300057D01*
X203645058Y-196014343D01*
X203645058Y-195657200D01*
X203716487Y-195371486D01*
X203787915Y-195228629D01*
X203859344Y-195157200D01*
X204002201Y-195085771D01*
X205145058Y-196442914D02*
X205216486Y-196514343D01*
X205145058Y-196585771D01*
X205073629Y-196514343D01*
X205145058Y-196442914D01*
X205145058Y-196585771D01*
X205787915Y-195228629D02*
X205859344Y-195157200D01*
X206002201Y-195085771D01*
X206359344Y-195085771D01*
X206502201Y-195157200D01*
X206573630Y-195228629D01*
X206645058Y-195371486D01*
X206645058Y-195514343D01*
X206573630Y-195728629D01*
X205716487Y-196585771D01*
X206645058Y-196585771D01*
X207287915Y-196014343D02*
X208430772Y-196014343D01*
X209073629Y-196514343D02*
X209216486Y-196585771D01*
X209502201Y-196585771D01*
X209645058Y-196514343D01*
X209716486Y-196371486D01*
X209716486Y-196300057D01*
X209645058Y-196157200D01*
X209502201Y-196085771D01*
X209287915Y-196085771D01*
X209145058Y-196014343D01*
X209073629Y-195871486D01*
X209073629Y-195800057D01*
X209145058Y-195657200D01*
X209287915Y-195585771D01*
X209502201Y-195585771D01*
X209645058Y-195657200D01*
X210145058Y-195585771D02*
X210716487Y-195585771D01*
X210359344Y-195085771D02*
X210359344Y-196371486D01*
X210430772Y-196514343D01*
X210573630Y-196585771D01*
X210716487Y-196585771D01*
X211859344Y-196585771D02*
X211859344Y-195800057D01*
X211787915Y-195657200D01*
X211645058Y-195585771D01*
X211359344Y-195585771D01*
X211216487Y-195657200D01*
X211859344Y-196514343D02*
X211716487Y-196585771D01*
X211359344Y-196585771D01*
X211216487Y-196514343D01*
X211145058Y-196371486D01*
X211145058Y-196228629D01*
X211216487Y-196085771D01*
X211359344Y-196014343D01*
X211716487Y-196014343D01*
X211859344Y-195942914D01*
X212573630Y-196585771D02*
X212573630Y-195085771D01*
X212573630Y-195657200D02*
X212716487Y-195585771D01*
X213002201Y-195585771D01*
X213145058Y-195657200D01*
X213216487Y-195728629D01*
X213287916Y-195871486D01*
X213287916Y-196300057D01*
X213216487Y-196442914D01*
X213145058Y-196514343D01*
X213002201Y-196585771D01*
X212716487Y-196585771D01*
X212573630Y-196514343D01*
X214145059Y-196585771D02*
X214002201Y-196514343D01*
X213930773Y-196371486D01*
X213930773Y-195085771D01*
X215287915Y-196514343D02*
X215145058Y-196585771D01*
X214859344Y-196585771D01*
X214716487Y-196514343D01*
X214645058Y-196371486D01*
X214645058Y-195800057D01*
X214716487Y-195657200D01*
X214859344Y-195585771D01*
X215145058Y-195585771D01*
X215287915Y-195657200D01*
X215359344Y-195800057D01*
X215359344Y-195942914D01*
X214645058Y-196085771D01*
D10*
D11*
X177002200Y-191507200D02*
X285002200Y-191507200D01*
D10*
D12*
X264216486Y-193785771D02*
X263716486Y-193071486D01*
X263359343Y-193785771D02*
X263359343Y-192285771D01*
X263930771Y-192285771D01*
X264073629Y-192357200D01*
X264145057Y-192428629D01*
X264216486Y-192571486D01*
X264216486Y-192785771D01*
X264145057Y-192928629D01*
X264073629Y-193000057D01*
X263930771Y-193071486D01*
X263359343Y-193071486D01*
X265430771Y-193714343D02*
X265287914Y-193785771D01*
X265002200Y-193785771D01*
X264859343Y-193714343D01*
X264787914Y-193571486D01*
X264787914Y-193000057D01*
X264859343Y-192857200D01*
X265002200Y-192785771D01*
X265287914Y-192785771D01*
X265430771Y-192857200D01*
X265502200Y-193000057D01*
X265502200Y-193142914D01*
X264787914Y-193285771D01*
X266002200Y-192785771D02*
X266359343Y-193785771D01*
X266716485Y-192785771D01*
X267287914Y-193642914D02*
X267359342Y-193714343D01*
X267287914Y-193785771D01*
X267216485Y-193714343D01*
X267287914Y-193642914D01*
X267287914Y-193785771D01*
X267287914Y-192857200D02*
X267359342Y-192928629D01*
X267287914Y-193000057D01*
X267216485Y-192928629D01*
X267287914Y-192857200D01*
X267287914Y-193000057D01*
D10*
D11*
X178287914Y-193714343D02*
X178502200Y-193785771D01*
X178859343Y-193785771D01*
X179002200Y-193714343D01*
X179073629Y-193642914D01*
X179145057Y-193500057D01*
X179145057Y-193357200D01*
X179073629Y-193214343D01*
X179002200Y-193142914D01*
X178859343Y-193071486D01*
X178573629Y-193000057D01*
X178430771Y-192928629D01*
X178359343Y-192857200D01*
X178287914Y-192714343D01*
X178287914Y-192571486D01*
X178359343Y-192428629D01*
X178430771Y-192357200D01*
X178573629Y-192285771D01*
X178930771Y-192285771D01*
X179145057Y-192357200D01*
X179787914Y-193785771D02*
X179787914Y-192785771D01*
X179787914Y-192285771D02*
X179716485Y-192357200D01*
X179787914Y-192428629D01*
X179859342Y-192357200D01*
X179787914Y-192285771D01*
X179787914Y-192428629D01*
X180359343Y-192785771D02*
X181145057Y-192785771D01*
X180359343Y-193785771D01*
X181145057Y-193785771D01*
X182287914Y-193714343D02*
X182145057Y-193785771D01*
X181859343Y-193785771D01*
X181716486Y-193714343D01*
X181645057Y-193571486D01*
X181645057Y-193000057D01*
X181716486Y-192857200D01*
X181859343Y-192785771D01*
X182145057Y-192785771D01*
X182287914Y-192857200D01*
X182359343Y-193000057D01*
X182359343Y-193142914D01*
X181645057Y-193285771D01*
X183002200Y-193642914D02*
X183073628Y-193714343D01*
X183002200Y-193785771D01*
X182930771Y-193714343D01*
X183002200Y-193642914D01*
X183002200Y-193785771D01*
X183002200Y-192857200D02*
X183073628Y-192928629D01*
X183002200Y-193000057D01*
X182930771Y-192928629D01*
X183002200Y-192857200D01*
X183002200Y-193000057D01*
X184787914Y-193357200D02*
X185502200Y-193357200D01*
X184645057Y-193785771D02*
X185145057Y-192285771D01*
X185645057Y-193785771D01*
X186787914Y-192785771D02*
X186787914Y-193785771D01*
X186430771Y-192214343D02*
X186073628Y-193285771D01*
X187002200Y-193285771D01*
D10*
D11*
X263359343Y-196585771D02*
X263359343Y-195085771D01*
X264716486Y-196585771D02*
X264716486Y-195085771D01*
X264716486Y-196514343D02*
X264573629Y-196585771D01*
X264287915Y-196585771D01*
X264145057Y-196514343D01*
X264073629Y-196442914D01*
X264002200Y-196300057D01*
X264002200Y-195871486D01*
X264073629Y-195728629D01*
X264145057Y-195657200D01*
X264287915Y-195585771D01*
X264573629Y-195585771D01*
X264716486Y-195657200D01*
X265430772Y-196442914D02*
X265502200Y-196514343D01*
X265430772Y-196585771D01*
X265359343Y-196514343D01*
X265430772Y-196442914D01*
X265430772Y-196585771D01*
X265430772Y-195657200D02*
X265502200Y-195728629D01*
X265430772Y-195800057D01*
X265359343Y-195728629D01*
X265430772Y-195657200D01*
X265430772Y-195800057D01*
X268073629Y-196585771D02*
X267216486Y-196585771D01*
X267645058Y-196585771D02*
X267645058Y-195085771D01*
X267502201Y-195300057D01*
X267359343Y-195442914D01*
X267216486Y-195514343D01*
X269787914Y-195014343D02*
X268502200Y-196942914D01*
X271073629Y-196585771D02*
X270216486Y-196585771D01*
X270645058Y-196585771D02*
X270645058Y-195085771D01*
X270502201Y-195300057D01*
X270359343Y-195442914D01*
X270216486Y-195514343D01*
D10*
D11*
X177002200Y-187507200D02*
X285002200Y-187507200D01*
D10*
D13*
X178454581Y-188211962D02*
X179597438Y-188211962D01*
X178776010Y-190211962D02*
X179026010Y-188211962D01*
X180014105Y-190211962D02*
X180180771Y-188878629D01*
X180264105Y-188211962D02*
X180156962Y-188307200D01*
X180240295Y-188402438D01*
X180347439Y-188307200D01*
X180264105Y-188211962D01*
X180240295Y-188402438D01*
X180847438Y-188878629D02*
X181609343Y-188878629D01*
X181216486Y-188211962D02*
X181002200Y-189926248D01*
X181073630Y-190116724D01*
X181252201Y-190211962D01*
X181442677Y-190211962D01*
X182395058Y-190211962D02*
X182216487Y-190116724D01*
X182145057Y-189926248D01*
X182359343Y-188211962D01*
X183930772Y-190116724D02*
X183728391Y-190211962D01*
X183347439Y-190211962D01*
X183168867Y-190116724D01*
X183097438Y-189926248D01*
X183192676Y-189164343D01*
X183311724Y-188973867D01*
X183514105Y-188878629D01*
X183895057Y-188878629D01*
X184073629Y-188973867D01*
X184145057Y-189164343D01*
X184121248Y-189354819D01*
X183145057Y-189545295D01*
X184895057Y-190021486D02*
X184978392Y-190116724D01*
X184871248Y-190211962D01*
X184787915Y-190116724D01*
X184895057Y-190021486D01*
X184871248Y-190211962D01*
X185026010Y-188973867D02*
X185109344Y-189069105D01*
X185002200Y-189164343D01*
X184918867Y-189069105D01*
X185026010Y-188973867D01*
X185002200Y-189164343D01*
D10*
D11*
X178859343Y-185600057D02*
X178359343Y-185600057D01*
X178359343Y-186385771D02*
X178359343Y-184885771D01*
X179073629Y-184885771D01*
X179645057Y-186385771D02*
X179645057Y-185385771D01*
X179645057Y-184885771D02*
X179573628Y-184957200D01*
X179645057Y-185028629D01*
X179716485Y-184957200D01*
X179645057Y-184885771D01*
X179645057Y-185028629D01*
X180573629Y-186385771D02*
X180430771Y-186314343D01*
X180359343Y-186171486D01*
X180359343Y-184885771D01*
X181716485Y-186314343D02*
X181573628Y-186385771D01*
X181287914Y-186385771D01*
X181145057Y-186314343D01*
X181073628Y-186171486D01*
X181073628Y-185600057D01*
X181145057Y-185457200D01*
X181287914Y-185385771D01*
X181573628Y-185385771D01*
X181716485Y-185457200D01*
X181787914Y-185600057D01*
X181787914Y-185742914D01*
X181073628Y-185885771D01*
X182430771Y-186242914D02*
X182502199Y-186314343D01*
X182430771Y-186385771D01*
X182359342Y-186314343D01*
X182430771Y-186242914D01*
X182430771Y-186385771D01*
X182430771Y-185457200D02*
X182502199Y-185528629D01*
X182430771Y-185600057D01*
X182359342Y-185528629D01*
X182430771Y-185457200D01*
X182430771Y-185600057D01*
X184073628Y-185385771D02*
X184645057Y-185385771D01*
X184287914Y-186385771D02*
X184287914Y-185100057D01*
X184359342Y-184957200D01*
X184502200Y-184885771D01*
X184645057Y-184885771D01*
X185359343Y-186385771D02*
X185216485Y-186314343D01*
X185145057Y-186171486D01*
X185145057Y-184885771D01*
X185787914Y-185385771D02*
X186145057Y-186385771D01*
X186502199Y-185385771D02*
X186145057Y-186385771D01*
X186002199Y-186742914D01*
X185930771Y-186814343D01*
X185787914Y-186885771D01*
X187073628Y-185385771D02*
X187073628Y-186885771D01*
X187073628Y-185457200D02*
X187216485Y-185385771D01*
X187502199Y-185385771D01*
X187645056Y-185457200D01*
X187716485Y-185528629D01*
X187787914Y-185671486D01*
X187787914Y-186100057D01*
X187716485Y-186242914D01*
X187645056Y-186314343D01*
X187502199Y-186385771D01*
X187216485Y-186385771D01*
X187073628Y-186314343D01*
X188430771Y-186385771D02*
X188430771Y-185385771D01*
X188430771Y-184885771D02*
X188359342Y-184957200D01*
X188430771Y-185028629D01*
X188502199Y-184957200D01*
X188430771Y-184885771D01*
X188430771Y-185028629D01*
X189145057Y-186242914D02*
X189216485Y-186314343D01*
X189145057Y-186385771D01*
X189073628Y-186314343D01*
X189145057Y-186242914D01*
X189145057Y-186385771D01*
X189859343Y-186385771D02*
X189859343Y-184885771D01*
X190002200Y-185814343D02*
X190430771Y-186385771D01*
X190430771Y-185385771D02*
X189859343Y-185957200D01*
X191073629Y-186385771D02*
X191073629Y-185385771D01*
X191073629Y-184885771D02*
X191002200Y-184957200D01*
X191073629Y-185028629D01*
X191145057Y-184957200D01*
X191073629Y-184885771D01*
X191073629Y-185028629D01*
X192430772Y-186314343D02*
X192287915Y-186385771D01*
X192002201Y-186385771D01*
X191859343Y-186314343D01*
X191787915Y-186242914D01*
X191716486Y-186100057D01*
X191716486Y-185671486D01*
X191787915Y-185528629D01*
X191859343Y-185457200D01*
X192002201Y-185385771D01*
X192287915Y-185385771D01*
X192430772Y-185457200D01*
X193716486Y-186385771D02*
X193716486Y-185600057D01*
X193645057Y-185457200D01*
X193502200Y-185385771D01*
X193216486Y-185385771D01*
X193073629Y-185457200D01*
X193716486Y-186314343D02*
X193573629Y-186385771D01*
X193216486Y-186385771D01*
X193073629Y-186314343D01*
X193002200Y-186171486D01*
X193002200Y-186028629D01*
X193073629Y-185885771D01*
X193216486Y-185814343D01*
X193573629Y-185814343D01*
X193716486Y-185742914D01*
X195073629Y-186385771D02*
X195073629Y-184885771D01*
X195073629Y-186314343D02*
X194930772Y-186385771D01*
X194645058Y-186385771D01*
X194502200Y-186314343D01*
X194430772Y-186242914D01*
X194359343Y-186100057D01*
X194359343Y-185671486D01*
X194430772Y-185528629D01*
X194502200Y-185457200D01*
X194645058Y-185385771D01*
X194930772Y-185385771D01*
X195073629Y-185457200D01*
X195430772Y-186528629D02*
X196573629Y-186528629D01*
X196930772Y-185385771D02*
X196930772Y-186885771D01*
X196930772Y-185457200D02*
X197073629Y-185385771D01*
X197359343Y-185385771D01*
X197502200Y-185457200D01*
X197573629Y-185528629D01*
X197645058Y-185671486D01*
X197645058Y-186100057D01*
X197573629Y-186242914D01*
X197502200Y-186314343D01*
X197359343Y-186385771D01*
X197073629Y-186385771D01*
X196930772Y-186314343D01*
X198930772Y-186314343D02*
X198787915Y-186385771D01*
X198502201Y-186385771D01*
X198359343Y-186314343D01*
X198287915Y-186242914D01*
X198216486Y-186100057D01*
X198216486Y-185671486D01*
X198287915Y-185528629D01*
X198359343Y-185457200D01*
X198502201Y-185385771D01*
X198787915Y-185385771D01*
X198930772Y-185457200D01*
X199573629Y-186385771D02*
X199573629Y-184885771D01*
X199573629Y-185457200D02*
X199716486Y-185385771D01*
X200002200Y-185385771D01*
X200145057Y-185457200D01*
X200216486Y-185528629D01*
X200287915Y-185671486D01*
X200287915Y-186100057D01*
X200216486Y-186242914D01*
X200145057Y-186314343D01*
X200002200Y-186385771D01*
X199716486Y-186385771D01*
X199573629Y-186314343D01*
D10*
D11*
X177002200Y-181507200D02*
X285002200Y-181507200D01*
D10*
D11*
X178287914Y-183614343D02*
X178502200Y-183685771D01*
X178859343Y-183685771D01*
X179002200Y-183614343D01*
X179073629Y-183542914D01*
X179145057Y-183400057D01*
X179145057Y-183257200D01*
X179073629Y-183114343D01*
X179002200Y-183042914D01*
X178859343Y-182971486D01*
X178573629Y-182900057D01*
X178430771Y-182828629D01*
X178359343Y-182757200D01*
X178287914Y-182614343D01*
X178287914Y-182471486D01*
X178359343Y-182328629D01*
X178430771Y-182257200D01*
X178573629Y-182185771D01*
X178930771Y-182185771D01*
X179145057Y-182257200D01*
X179787914Y-183685771D02*
X179787914Y-182185771D01*
X180430771Y-183685771D02*
X180430771Y-182900057D01*
X180359342Y-182757200D01*
X180216485Y-182685771D01*
X180002200Y-182685771D01*
X179859342Y-182757200D01*
X179787914Y-182828629D01*
X181716485Y-183614343D02*
X181573628Y-183685771D01*
X181287914Y-183685771D01*
X181145057Y-183614343D01*
X181073628Y-183471486D01*
X181073628Y-182900057D01*
X181145057Y-182757200D01*
X181287914Y-182685771D01*
X181573628Y-182685771D01*
X181716485Y-182757200D01*
X181787914Y-182900057D01*
X181787914Y-183042914D01*
X181073628Y-183185771D01*
X183002199Y-183614343D02*
X182859342Y-183685771D01*
X182573628Y-183685771D01*
X182430771Y-183614343D01*
X182359342Y-183471486D01*
X182359342Y-182900057D01*
X182430771Y-182757200D01*
X182573628Y-182685771D01*
X182859342Y-182685771D01*
X183002199Y-182757200D01*
X183073628Y-182900057D01*
X183073628Y-183042914D01*
X182359342Y-183185771D01*
X183502199Y-182685771D02*
X184073628Y-182685771D01*
X183716485Y-182185771D02*
X183716485Y-183471486D01*
X183787913Y-183614343D01*
X183930771Y-183685771D01*
X184073628Y-183685771D01*
X184573628Y-183542914D02*
X184645056Y-183614343D01*
X184573628Y-183685771D01*
X184502199Y-183614343D01*
X184573628Y-183542914D01*
X184573628Y-183685771D01*
X184573628Y-182757200D02*
X184645056Y-182828629D01*
X184573628Y-182900057D01*
X184502199Y-182828629D01*
X184573628Y-182757200D01*
X184573628Y-182900057D01*
D10*
D11*
X197002200Y-191507200D02*
X197002200Y-194507200D01*
D10*
D11*
X261002200Y-191507200D02*
X261002200Y-198007200D01*
D12*
X113261148Y-42122759D02*
X113332777Y-42051530D01*
X113475834Y-41980501D01*
X113832975Y-41981501D01*
X113975632Y-42053330D01*
X114046860Y-42124959D01*
X114117888Y-42268015D01*
X114117488Y-42410872D01*
X114045460Y-42624957D01*
X113185921Y-43479696D01*
X114114488Y-43482296D01*
X114974028Y-42627557D02*
X114831370Y-42555728D01*
X114760143Y-42484100D01*
X114689114Y-42341043D01*
X114689314Y-42269615D01*
X114761143Y-42126959D01*
X114832770Y-42055730D01*
X114975828Y-41984702D01*
X115261541Y-41985502D01*
X115404197Y-42057330D01*
X115475426Y-42128959D01*
X115546453Y-42272016D01*
X115546253Y-42343443D01*
X115474426Y-42486100D01*
X115402797Y-42557328D01*
X115259741Y-42628357D01*
X114974028Y-42627557D01*
X114830970Y-42698585D01*
X114759342Y-42769814D01*
X114687514Y-42912470D01*
X114686714Y-43198183D01*
X114757742Y-43341239D01*
X114828970Y-43412868D01*
X114971628Y-43484696D01*
X115257340Y-43485496D01*
X115400397Y-43414468D01*
X115472026Y-43343239D01*
X115543853Y-43200583D01*
X115544653Y-42914870D01*
X115473626Y-42771814D01*
X115402397Y-42700185D01*
X115259741Y-42628357D01*
X116257536Y-43416868D02*
X116257336Y-43488296D01*
X116185508Y-43630953D01*
X116113879Y-43702181D01*
X117618674Y-41992102D02*
X116904391Y-41990102D01*
X116830962Y-42704185D01*
X116902591Y-42632957D01*
X117045648Y-42561929D01*
X117402789Y-42562929D01*
X117545446Y-42634757D01*
X117616674Y-42706385D01*
X117687702Y-42849442D01*
X117686702Y-43206583D01*
X117614874Y-43349240D01*
X117543245Y-43420468D01*
X117400189Y-43491496D01*
X117043047Y-43490496D01*
X116900391Y-43418668D01*
X116829162Y-43347040D01*
X118190100Y-41993702D02*
X119190096Y-41996502D01*
X118543042Y-43494696D01*
X120047235Y-41998902D02*
X120190091Y-41999302D01*
X120332748Y-42071131D01*
X120403976Y-42142760D01*
X120475005Y-42285816D01*
X120545633Y-42571729D01*
X120544633Y-42928871D01*
X120472405Y-43214384D01*
X120400576Y-43357040D01*
X120328948Y-43428269D01*
X120185891Y-43499296D01*
X120043035Y-43498896D01*
X119900378Y-43427069D01*
X119829150Y-43355440D01*
X119758122Y-43212383D01*
X119687493Y-42926471D01*
X119688493Y-42569329D01*
X119760722Y-42283816D01*
X119832550Y-42141160D01*
X119904178Y-42069931D01*
X120047235Y-41998902D01*
X122328740Y-43505297D02*
X122331540Y-42505301D01*
X122331140Y-42648158D02*
X122402768Y-42576929D01*
X122545825Y-42505901D01*
X122760109Y-42506501D01*
X122902766Y-42578329D01*
X122973794Y-42721386D01*
X122971594Y-43507097D01*
X122973794Y-42721386D02*
X123045623Y-42578729D01*
X123188679Y-42507701D01*
X123402964Y-42508301D01*
X123545621Y-42580130D01*
X123616649Y-42723186D01*
X123614449Y-43508897D01*
X124328732Y-43510897D02*
X124331532Y-42510901D01*
X124331132Y-42653758D02*
X124402760Y-42582530D01*
X124545817Y-42511501D01*
X124760101Y-42512101D01*
X124902758Y-42583930D01*
X124973786Y-42726986D01*
X124971586Y-43512697D01*
X124973786Y-42726986D02*
X125045615Y-42584330D01*
X125188672Y-42513301D01*
X125402956Y-42513901D01*
X125545613Y-42585730D01*
X125616641Y-42728786D01*
X125614441Y-43514497D01*
X133754729Y-44208723D02*
X105184729Y-44128723D01*
X133730000Y-53040000D02*
X133762289Y-41508734D01*
X105160000Y-52960000D02*
X105192289Y-41428734D01*
X105184729Y-44128723D02*
X106312870Y-43545459D01*
X105184729Y-44128723D02*
X106309586Y-44718296D01*
X133754729Y-44208723D02*
X132629872Y-43619150D01*
X133754729Y-44208723D02*
X132626588Y-44791987D01*
X76078571Y-77232142D02*
X76078571Y-78089285D01*
X76078571Y-77660713D02*
X74578571Y-77660713D01*
X74792857Y-77803570D01*
X74935714Y-77946428D01*
X75007143Y-78089285D01*
X74578571Y-76303571D02*
X74578571Y-76160714D01*
X74650000Y-76017857D01*
X74721429Y-75946428D01*
X74864286Y-75874999D01*
X75150000Y-75803571D01*
X75507143Y-75803571D01*
X75792857Y-75874999D01*
X75935714Y-75946428D01*
X76007143Y-76017857D01*
X76078571Y-76160714D01*
X76078571Y-76303571D01*
X76007143Y-76446428D01*
X75935714Y-76517857D01*
X75792857Y-76589285D01*
X75507143Y-76660714D01*
X75150000Y-76660714D01*
X74864286Y-76589285D01*
X74721429Y-76517857D01*
X74650000Y-76446428D01*
X74578571Y-76303571D01*
X76007143Y-75089286D02*
X76078571Y-75089286D01*
X76221429Y-75160714D01*
X76292857Y-75232143D01*
X74578571Y-74589285D02*
X74578571Y-73589285D01*
X76078571Y-74232142D01*
X74578571Y-72303571D02*
X74578571Y-73017857D01*
X75292857Y-73089286D01*
X75221429Y-73017857D01*
X75150000Y-72875000D01*
X75150000Y-72517857D01*
X75221429Y-72375000D01*
X75292857Y-72303571D01*
X75435714Y-72232143D01*
X75792857Y-72232143D01*
X75935714Y-72303571D01*
X76007143Y-72375000D01*
X76078571Y-72517857D01*
X76078571Y-72875000D01*
X76007143Y-73017857D01*
X75935714Y-73089286D01*
X74578571Y-71303572D02*
X74578571Y-71160715D01*
X74650000Y-71017858D01*
X74721429Y-70946429D01*
X74864286Y-70875000D01*
X75150000Y-70803572D01*
X75507143Y-70803572D01*
X75792857Y-70875000D01*
X75935714Y-70946429D01*
X76007143Y-71017858D01*
X76078571Y-71160715D01*
X76078571Y-71303572D01*
X76007143Y-71446429D01*
X75935714Y-71517858D01*
X75792857Y-71589286D01*
X75507143Y-71660715D01*
X75150000Y-71660715D01*
X74864286Y-71589286D01*
X74721429Y-71517858D01*
X74650000Y-71446429D01*
X74578571Y-71303572D01*
X76078571Y-69017858D02*
X75078571Y-69017858D01*
X75221429Y-69017858D02*
X75150000Y-68946430D01*
X75078571Y-68803572D01*
X75078571Y-68589287D01*
X75150000Y-68446430D01*
X75292857Y-68375001D01*
X76078571Y-68375001D01*
X75292857Y-68375001D02*
X75150000Y-68303572D01*
X75078571Y-68160715D01*
X75078571Y-67946430D01*
X75150000Y-67803572D01*
X75292857Y-67732144D01*
X76078571Y-67732144D01*
X76078571Y-67017858D02*
X75078571Y-67017858D01*
X75221429Y-67017858D02*
X75150000Y-66946430D01*
X75078571Y-66803572D01*
X75078571Y-66589287D01*
X75150000Y-66446430D01*
X75292857Y-66375001D01*
X76078571Y-66375001D01*
X75292857Y-66375001D02*
X75150000Y-66303572D01*
X75078571Y-66160715D01*
X75078571Y-65946430D01*
X75150000Y-65803572D01*
X75292857Y-65732144D01*
X76078571Y-65732144D01*
X76750000Y-77250000D02*
X76750000Y-66500000D01*
X105000000Y-77250000D02*
X74050000Y-77250000D01*
X105000000Y-66500000D02*
X74050000Y-66500000D01*
X76750000Y-66500000D02*
X77336421Y-67626504D01*
X76750000Y-66500000D02*
X76163579Y-67626504D01*
X76750000Y-77250000D02*
X77336421Y-76123496D01*
X76750000Y-77250000D02*
X76163579Y-76123496D01*
X79221429Y-67339284D02*
X79150000Y-67482142D01*
X79078571Y-67553570D01*
X78935714Y-67624999D01*
X78864286Y-67624999D01*
X78721429Y-67553570D01*
X78650000Y-67482142D01*
X78578571Y-67339284D01*
X78578571Y-67053570D01*
X78650000Y-66910713D01*
X78721429Y-66839284D01*
X78864286Y-66767856D01*
X78935714Y-66767856D01*
X79078571Y-66839284D01*
X79150000Y-66910713D01*
X79221429Y-67053570D01*
X79221429Y-67339284D01*
X79292857Y-67482142D01*
X79364286Y-67553570D01*
X79507143Y-67624999D01*
X79792857Y-67624999D01*
X79935714Y-67553570D01*
X80007143Y-67482142D01*
X80078571Y-67339284D01*
X80078571Y-67053570D01*
X80007143Y-66910713D01*
X79935714Y-66839284D01*
X79792857Y-66767856D01*
X79507143Y-66767856D01*
X79364286Y-66839284D01*
X79292857Y-66910713D01*
X79221429Y-67053570D01*
X80007143Y-66053571D02*
X80078571Y-66053571D01*
X80221429Y-66124999D01*
X80292857Y-66196428D01*
X78721429Y-65482142D02*
X78650000Y-65410713D01*
X78578571Y-65267856D01*
X78578571Y-64910713D01*
X78650000Y-64767856D01*
X78721429Y-64696427D01*
X78864286Y-64624999D01*
X79007143Y-64624999D01*
X79221429Y-64696427D01*
X80078571Y-65553570D01*
X80078571Y-64624999D01*
X78578571Y-63267856D02*
X78578571Y-63982142D01*
X79292857Y-64053571D01*
X79221429Y-63982142D01*
X79150000Y-63839285D01*
X79150000Y-63482142D01*
X79221429Y-63339285D01*
X79292857Y-63267856D01*
X79435714Y-63196428D01*
X79792857Y-63196428D01*
X79935714Y-63267856D01*
X80007143Y-63339285D01*
X80078571Y-63482142D01*
X80078571Y-63839285D01*
X80007143Y-63982142D01*
X79935714Y-64053571D01*
X78578571Y-62267857D02*
X78578571Y-62125000D01*
X78650000Y-61982143D01*
X78721429Y-61910714D01*
X78864286Y-61839285D01*
X79150000Y-61767857D01*
X79507143Y-61767857D01*
X79792857Y-61839285D01*
X79935714Y-61910714D01*
X80007143Y-61982143D01*
X80078571Y-62125000D01*
X80078571Y-62267857D01*
X80007143Y-62410714D01*
X79935714Y-62482143D01*
X79792857Y-62553571D01*
X79507143Y-62625000D01*
X79150000Y-62625000D01*
X78864286Y-62553571D01*
X78721429Y-62482143D01*
X78650000Y-62410714D01*
X78578571Y-62267857D01*
X80078571Y-59982143D02*
X79078571Y-59982143D01*
X79221429Y-59982143D02*
X79150000Y-59910715D01*
X79078571Y-59767857D01*
X79078571Y-59553572D01*
X79150000Y-59410715D01*
X79292857Y-59339286D01*
X80078571Y-59339286D01*
X79292857Y-59339286D02*
X79150000Y-59267857D01*
X79078571Y-59125000D01*
X79078571Y-58910715D01*
X79150000Y-58767857D01*
X79292857Y-58696429D01*
X80078571Y-58696429D01*
X80078571Y-57982143D02*
X79078571Y-57982143D01*
X79221429Y-57982143D02*
X79150000Y-57910715D01*
X79078571Y-57767857D01*
X79078571Y-57553572D01*
X79150000Y-57410715D01*
X79292857Y-57339286D01*
X80078571Y-57339286D01*
X79292857Y-57339286D02*
X79150000Y-57267857D01*
X79078571Y-57125000D01*
X79078571Y-56910715D01*
X79150000Y-56767857D01*
X79292857Y-56696429D01*
X80078571Y-56696429D01*
X80750000Y-66250000D02*
X80750000Y-58000000D01*
X105000000Y-66250000D02*
X78050000Y-66250000D01*
X105000000Y-58000000D02*
X78050000Y-58000000D01*
X80750000Y-58000000D02*
X81336421Y-59126504D01*
X80750000Y-58000000D02*
X80163579Y-59126504D01*
X80750000Y-66250000D02*
X81336421Y-65123496D01*
X80750000Y-66250000D02*
X80163579Y-65123496D01*
X95471429Y-48142858D02*
X95471429Y-48428573D01*
X95542857Y-48571430D01*
X95614286Y-48642858D01*
X95828571Y-48785716D01*
X96114286Y-48857144D01*
X96685714Y-48857144D01*
X96828571Y-48785716D01*
X96900000Y-48714287D01*
X96971429Y-48571430D01*
X96971429Y-48285716D01*
X96900000Y-48142858D01*
X96828571Y-48071430D01*
X96685714Y-48000001D01*
X96328571Y-48000001D01*
X96185714Y-48071430D01*
X96114286Y-48142858D01*
X96042857Y-48285716D01*
X96042857Y-48571430D01*
X96114286Y-48714287D01*
X96185714Y-48785716D01*
X96328571Y-48857144D01*
X95542857Y-49571429D02*
X95471429Y-49571429D01*
X95328571Y-49500001D01*
X95257143Y-49428572D01*
X96971429Y-50500001D02*
X96971429Y-50642858D01*
X96900000Y-50785715D01*
X96828571Y-50857144D01*
X96685714Y-50928573D01*
X96400000Y-51000001D01*
X96042857Y-51000001D01*
X95757143Y-50928573D01*
X95614286Y-50857144D01*
X95542857Y-50785715D01*
X95471429Y-50642858D01*
X95471429Y-50500001D01*
X95542857Y-50357144D01*
X95614286Y-50285715D01*
X95757143Y-50214287D01*
X96042857Y-50142858D01*
X96400000Y-50142858D01*
X96685714Y-50214287D01*
X96828571Y-50285715D01*
X96900000Y-50357144D01*
X96971429Y-50500001D01*
X96971429Y-51928572D02*
X96971429Y-52071429D01*
X96900000Y-52214286D01*
X96828571Y-52285715D01*
X96685714Y-52357144D01*
X96400000Y-52428572D01*
X96042857Y-52428572D01*
X95757143Y-52357144D01*
X95614286Y-52285715D01*
X95542857Y-52214286D01*
X95471429Y-52071429D01*
X95471429Y-51928572D01*
X95542857Y-51785715D01*
X95614286Y-51714286D01*
X95757143Y-51642858D01*
X96042857Y-51571429D01*
X96400000Y-51571429D01*
X96685714Y-51642858D01*
X96828571Y-51714286D01*
X96900000Y-51785715D01*
X96971429Y-51928572D01*
X96971429Y-53357143D02*
X96971429Y-53500000D01*
X96900000Y-53642857D01*
X96828571Y-53714286D01*
X96685714Y-53785715D01*
X96400000Y-53857143D01*
X96042857Y-53857143D01*
X95757143Y-53785715D01*
X95614286Y-53714286D01*
X95542857Y-53642857D01*
X95471429Y-53500000D01*
X95471429Y-53357143D01*
X95542857Y-53214286D01*
X95614286Y-53142857D01*
X95757143Y-53071429D01*
X96042857Y-53000000D01*
X96400000Y-53000000D01*
X96685714Y-53071429D01*
X96828571Y-53142857D01*
X96900000Y-53214286D01*
X96971429Y-53357143D01*
X95471429Y-55642857D02*
X96471429Y-55642857D01*
X96328571Y-55642857D02*
X96400000Y-55714285D01*
X96471429Y-55857143D01*
X96471429Y-56071428D01*
X96400000Y-56214285D01*
X96257143Y-56285714D01*
X95471429Y-56285714D01*
X96257143Y-56285714D02*
X96400000Y-56357143D01*
X96471429Y-56500000D01*
X96471429Y-56714285D01*
X96400000Y-56857143D01*
X96257143Y-56928571D01*
X95471429Y-56928571D01*
X95471429Y-57642857D02*
X96471429Y-57642857D01*
X96328571Y-57642857D02*
X96400000Y-57714285D01*
X96471429Y-57857143D01*
X96471429Y-58071428D01*
X96400000Y-58214285D01*
X96257143Y-58285714D01*
X95471429Y-58285714D01*
X96257143Y-58285714D02*
X96400000Y-58357143D01*
X96471429Y-58500000D01*
X96471429Y-58714285D01*
X96400000Y-58857143D01*
X96257143Y-58928571D01*
X95471429Y-58928571D01*
X97500000Y-49000000D02*
X97500000Y-58000000D01*
X104500000Y-49000000D02*
X94800000Y-49000000D01*
X104500000Y-58000000D02*
X94800000Y-58000000D01*
X97500000Y-58000000D02*
X96913579Y-56873496D01*
X97500000Y-58000000D02*
X98086421Y-56873496D01*
X97500000Y-49000000D02*
X96913579Y-50126504D01*
X97500000Y-49000000D02*
X98086421Y-50126504D01*
X175607144Y-41328571D02*
X174750001Y-41328571D01*
X175178573Y-41328571D02*
X175178573Y-39828571D01*
X175035716Y-40042857D01*
X174892858Y-40185714D01*
X174750001Y-40257143D01*
X176321429Y-41257143D02*
X176321429Y-41328571D01*
X176250001Y-41471429D01*
X176178572Y-41542857D01*
X177678573Y-39828571D02*
X176964287Y-39828571D01*
X176892858Y-40542857D01*
X176964287Y-40471429D01*
X177107144Y-40400000D01*
X177464287Y-40400000D01*
X177607144Y-40471429D01*
X177678573Y-40542857D01*
X177750001Y-40685714D01*
X177750001Y-41042857D01*
X177678573Y-41185714D01*
X177607144Y-41257143D01*
X177464287Y-41328571D01*
X177107144Y-41328571D01*
X176964287Y-41257143D01*
X176892858Y-41185714D01*
X178678572Y-39828571D02*
X178821429Y-39828571D01*
X178964286Y-39900000D01*
X179035715Y-39971429D01*
X179107144Y-40114286D01*
X179178572Y-40400000D01*
X179178572Y-40757143D01*
X179107144Y-41042857D01*
X179035715Y-41185714D01*
X178964286Y-41257143D01*
X178821429Y-41328571D01*
X178678572Y-41328571D01*
X178535715Y-41257143D01*
X178464286Y-41185714D01*
X178392858Y-41042857D01*
X178321429Y-40757143D01*
X178321429Y-40400000D01*
X178392858Y-40114286D01*
X178464286Y-39971429D01*
X178535715Y-39900000D01*
X178678572Y-39828571D01*
X180107143Y-39828571D02*
X180250000Y-39828571D01*
X180392857Y-39900000D01*
X180464286Y-39971429D01*
X180535715Y-40114286D01*
X180607143Y-40400000D01*
X180607143Y-40757143D01*
X180535715Y-41042857D01*
X180464286Y-41185714D01*
X180392857Y-41257143D01*
X180250000Y-41328571D01*
X180107143Y-41328571D01*
X179964286Y-41257143D01*
X179892857Y-41185714D01*
X179821429Y-41042857D01*
X179750000Y-40757143D01*
X179750000Y-40400000D01*
X179821429Y-40114286D01*
X179892857Y-39971429D01*
X179964286Y-39900000D01*
X180107143Y-39828571D01*
X182392857Y-41328571D02*
X182392857Y-40328571D01*
X182392857Y-40471429D02*
X182464285Y-40400000D01*
X182607143Y-40328571D01*
X182821428Y-40328571D01*
X182964285Y-40400000D01*
X183035714Y-40542857D01*
X183035714Y-41328571D01*
X183035714Y-40542857D02*
X183107143Y-40400000D01*
X183250000Y-40328571D01*
X183464285Y-40328571D01*
X183607143Y-40400000D01*
X183678571Y-40542857D01*
X183678571Y-41328571D01*
X184392857Y-41328571D02*
X184392857Y-40328571D01*
X184392857Y-40471429D02*
X184464285Y-40400000D01*
X184607143Y-40328571D01*
X184821428Y-40328571D01*
X184964285Y-40400000D01*
X185035714Y-40542857D01*
X185035714Y-41328571D01*
X185035714Y-40542857D02*
X185107143Y-40400000D01*
X185250000Y-40328571D01*
X185464285Y-40328571D01*
X185607143Y-40400000D01*
X185678571Y-40542857D01*
X185678571Y-41328571D01*
X179500000Y-42000000D02*
X181000000Y-42000000D01*
X179500000Y-53500000D02*
X179500000Y-39300000D01*
X181000000Y-53500000D02*
X181000000Y-39300000D01*
X181000000Y-42000000D02*
X179873496Y-42586421D01*
X181000000Y-42000000D02*
X179873496Y-41413579D01*
X179500000Y-42000000D02*
X180626504Y-42586421D01*
X179500000Y-42000000D02*
X180626504Y-41413579D01*
X207528571Y-54392856D02*
X207528571Y-55249999D01*
X207528571Y-54821427D02*
X206028571Y-54821427D01*
X206242857Y-54964284D01*
X206385714Y-55107142D01*
X206457143Y-55249999D01*
X207457143Y-53678571D02*
X207528571Y-53678571D01*
X207671429Y-53749999D01*
X207742857Y-53821428D01*
X206028571Y-52321427D02*
X206028571Y-53035713D01*
X206742857Y-53107142D01*
X206671429Y-53035713D01*
X206600000Y-52892856D01*
X206600000Y-52535713D01*
X206671429Y-52392856D01*
X206742857Y-52321427D01*
X206885714Y-52249999D01*
X207242857Y-52249999D01*
X207385714Y-52321427D01*
X207457143Y-52392856D01*
X207528571Y-52535713D01*
X207528571Y-52892856D01*
X207457143Y-53035713D01*
X207385714Y-53107142D01*
X206028571Y-51321428D02*
X206028571Y-51178571D01*
X206100000Y-51035714D01*
X206171429Y-50964285D01*
X206314286Y-50892856D01*
X206600000Y-50821428D01*
X206957143Y-50821428D01*
X207242857Y-50892856D01*
X207385714Y-50964285D01*
X207457143Y-51035714D01*
X207528571Y-51178571D01*
X207528571Y-51321428D01*
X207457143Y-51464285D01*
X207385714Y-51535714D01*
X207242857Y-51607142D01*
X206957143Y-51678571D01*
X206600000Y-51678571D01*
X206314286Y-51607142D01*
X206171429Y-51535714D01*
X206100000Y-51464285D01*
X206028571Y-51321428D01*
X206028571Y-49892857D02*
X206028571Y-49750000D01*
X206100000Y-49607143D01*
X206171429Y-49535714D01*
X206314286Y-49464285D01*
X206600000Y-49392857D01*
X206957143Y-49392857D01*
X207242857Y-49464285D01*
X207385714Y-49535714D01*
X207457143Y-49607143D01*
X207528571Y-49750000D01*
X207528571Y-49892857D01*
X207457143Y-50035714D01*
X207385714Y-50107143D01*
X207242857Y-50178571D01*
X206957143Y-50250000D01*
X206600000Y-50250000D01*
X206314286Y-50178571D01*
X206171429Y-50107143D01*
X206100000Y-50035714D01*
X206028571Y-49892857D01*
X207528571Y-47607143D02*
X206528571Y-47607143D01*
X206671429Y-47607143D02*
X206600000Y-47535715D01*
X206528571Y-47392857D01*
X206528571Y-47178572D01*
X206600000Y-47035715D01*
X206742857Y-46964286D01*
X207528571Y-46964286D01*
X206742857Y-46964286D02*
X206600000Y-46892857D01*
X206528571Y-46750000D01*
X206528571Y-46535715D01*
X206600000Y-46392857D01*
X206742857Y-46321429D01*
X207528571Y-46321429D01*
X207528571Y-45607143D02*
X206528571Y-45607143D01*
X206671429Y-45607143D02*
X206600000Y-45535715D01*
X206528571Y-45392857D01*
X206528571Y-45178572D01*
X206600000Y-45035715D01*
X206742857Y-44964286D01*
X207528571Y-44964286D01*
X206742857Y-44964286D02*
X206600000Y-44892857D01*
X206528571Y-44750000D01*
X206528571Y-44535715D01*
X206600000Y-44392857D01*
X206742857Y-44321429D01*
X207528571Y-44321429D01*
X205500000Y-50500000D02*
X205500000Y-49000000D01*
X176500000Y-50500000D02*
X208200000Y-50500000D01*
X176500000Y-49000000D02*
X208200000Y-49000000D01*
X205500000Y-49000000D02*
X206086421Y-50126504D01*
X205500000Y-49000000D02*
X204913579Y-50126504D01*
X205500000Y-50500000D02*
X206086421Y-49373496D01*
X205500000Y-50500000D02*
X204913579Y-49373496D01*
X199671429Y-48714287D02*
X199671429Y-48428573D01*
X199600000Y-48285716D01*
X199528571Y-48214287D01*
X199314286Y-48071430D01*
X199028571Y-48000001D01*
X198457143Y-48000001D01*
X198314286Y-48071430D01*
X198242857Y-48142858D01*
X198171429Y-48285716D01*
X198171429Y-48571430D01*
X198242857Y-48714287D01*
X198314286Y-48785716D01*
X198457143Y-48857144D01*
X198814286Y-48857144D01*
X198957143Y-48785716D01*
X199028571Y-48714287D01*
X199100000Y-48571430D01*
X199100000Y-48285716D01*
X199028571Y-48142858D01*
X198957143Y-48071430D01*
X198814286Y-48000001D01*
X198242857Y-49571429D02*
X198171429Y-49571429D01*
X198028571Y-49500001D01*
X197957143Y-49428572D01*
X199671429Y-50500001D02*
X199671429Y-50642858D01*
X199600000Y-50785715D01*
X199528571Y-50857144D01*
X199385714Y-50928573D01*
X199100000Y-51000001D01*
X198742857Y-51000001D01*
X198457143Y-50928573D01*
X198314286Y-50857144D01*
X198242857Y-50785715D01*
X198171429Y-50642858D01*
X198171429Y-50500001D01*
X198242857Y-50357144D01*
X198314286Y-50285715D01*
X198457143Y-50214287D01*
X198742857Y-50142858D01*
X199100000Y-50142858D01*
X199385714Y-50214287D01*
X199528571Y-50285715D01*
X199600000Y-50357144D01*
X199671429Y-50500001D01*
X199671429Y-51928572D02*
X199671429Y-52071429D01*
X199600000Y-52214286D01*
X199528571Y-52285715D01*
X199385714Y-52357144D01*
X199100000Y-52428572D01*
X198742857Y-52428572D01*
X198457143Y-52357144D01*
X198314286Y-52285715D01*
X198242857Y-52214286D01*
X198171429Y-52071429D01*
X198171429Y-51928572D01*
X198242857Y-51785715D01*
X198314286Y-51714286D01*
X198457143Y-51642858D01*
X198742857Y-51571429D01*
X199100000Y-51571429D01*
X199385714Y-51642858D01*
X199528571Y-51714286D01*
X199600000Y-51785715D01*
X199671429Y-51928572D01*
X199671429Y-53357143D02*
X199671429Y-53500000D01*
X199600000Y-53642857D01*
X199528571Y-53714286D01*
X199385714Y-53785715D01*
X199100000Y-53857143D01*
X198742857Y-53857143D01*
X198457143Y-53785715D01*
X198314286Y-53714286D01*
X198242857Y-53642857D01*
X198171429Y-53500000D01*
X198171429Y-53357143D01*
X198242857Y-53214286D01*
X198314286Y-53142857D01*
X198457143Y-53071429D01*
X198742857Y-53000000D01*
X199100000Y-53000000D01*
X199385714Y-53071429D01*
X199528571Y-53142857D01*
X199600000Y-53214286D01*
X199671429Y-53357143D01*
X198171429Y-55642857D02*
X199171429Y-55642857D01*
X199028571Y-55642857D02*
X199100000Y-55714285D01*
X199171429Y-55857143D01*
X199171429Y-56071428D01*
X199100000Y-56214285D01*
X198957143Y-56285714D01*
X198171429Y-56285714D01*
X198957143Y-56285714D02*
X199100000Y-56357143D01*
X199171429Y-56500000D01*
X199171429Y-56714285D01*
X199100000Y-56857143D01*
X198957143Y-56928571D01*
X198171429Y-56928571D01*
X198171429Y-57642857D02*
X199171429Y-57642857D01*
X199028571Y-57642857D02*
X199100000Y-57714285D01*
X199171429Y-57857143D01*
X199171429Y-58071428D01*
X199100000Y-58214285D01*
X198957143Y-58285714D01*
X198171429Y-58285714D01*
X198957143Y-58285714D02*
X199100000Y-58357143D01*
X199171429Y-58500000D01*
X199171429Y-58714285D01*
X199100000Y-58857143D01*
X198957143Y-58928571D01*
X198171429Y-58928571D01*
X197500000Y-50500000D02*
X197500000Y-56500000D01*
X176500000Y-50500000D02*
X200200000Y-50500000D01*
X176500000Y-56500000D02*
X200200000Y-56500000D01*
X197500000Y-56500000D02*
X196913579Y-55373496D01*
X197500000Y-56500000D02*
X198086421Y-55373496D01*
X197500000Y-50500000D02*
X196913579Y-51626504D01*
X197500000Y-50500000D02*
X198086421Y-51626504D01*
X201315571Y-115362927D02*
X201315571Y-114362927D01*
X202815571Y-115005784D01*
X202744143Y-113720071D02*
X202815571Y-113720071D01*
X202958429Y-113791499D01*
X203029857Y-113862928D01*
X201315571Y-113220070D02*
X201315571Y-112220070D01*
X202815571Y-112862927D01*
X201815571Y-111005785D02*
X202815571Y-111005785D01*
X201244143Y-111362928D02*
X202315571Y-111720071D01*
X202315571Y-110791499D01*
X201315571Y-110362928D02*
X201315571Y-109362928D01*
X202815571Y-110005785D01*
X202815571Y-107648643D02*
X201815571Y-107648643D01*
X201958429Y-107648643D02*
X201887000Y-107577215D01*
X201815571Y-107434357D01*
X201815571Y-107220072D01*
X201887000Y-107077215D01*
X202029857Y-107005786D01*
X202815571Y-107005786D01*
X202029857Y-107005786D02*
X201887000Y-106934357D01*
X201815571Y-106791500D01*
X201815571Y-106577215D01*
X201887000Y-106434357D01*
X202029857Y-106362929D01*
X202815571Y-106362929D01*
X202815571Y-105648643D02*
X201815571Y-105648643D01*
X201958429Y-105648643D02*
X201887000Y-105577215D01*
X201815571Y-105434357D01*
X201815571Y-105220072D01*
X201887000Y-105077215D01*
X202029857Y-105005786D01*
X202815571Y-105005786D01*
X202029857Y-105005786D02*
X201887000Y-104934357D01*
X201815571Y-104791500D01*
X201815571Y-104577215D01*
X201887000Y-104434357D01*
X202029857Y-104362929D01*
X202815571Y-104362929D01*
X200787000Y-113665000D02*
X200787000Y-105918000D01*
X181102000Y-113665000D02*
X203487000Y-113665000D01*
X181102000Y-105918000D02*
X203487000Y-105918000D01*
X200787000Y-105918000D02*
X201373421Y-107044504D01*
X200787000Y-105918000D02*
X200200579Y-107044504D01*
X200787000Y-113665000D02*
X201373421Y-112538496D01*
X200787000Y-113665000D02*
X200200579Y-112538496D01*
X168378858Y-160905571D02*
X167521715Y-160905571D01*
X167950287Y-160905571D02*
X167950287Y-159405571D01*
X167807430Y-159619857D01*
X167664572Y-159762714D01*
X167521715Y-159834143D01*
X169664572Y-159905571D02*
X169664572Y-160905571D01*
X169307429Y-159334143D02*
X168950286Y-160405571D01*
X169878858Y-160405571D01*
X170521714Y-160834143D02*
X170521714Y-160905571D01*
X170450286Y-161048429D01*
X170378857Y-161119857D01*
X171021715Y-159405571D02*
X172021715Y-159405571D01*
X171378858Y-160905571D01*
X172450286Y-159405571D02*
X173378857Y-159405571D01*
X172878857Y-159977000D01*
X173093143Y-159977000D01*
X173236000Y-160048429D01*
X173307429Y-160119857D01*
X173378857Y-160262714D01*
X173378857Y-160619857D01*
X173307429Y-160762714D01*
X173236000Y-160834143D01*
X173093143Y-160905571D01*
X172664571Y-160905571D01*
X172521714Y-160834143D01*
X172450286Y-160762714D01*
X173950285Y-159548429D02*
X174021714Y-159477000D01*
X174164571Y-159405571D01*
X174521714Y-159405571D01*
X174664571Y-159477000D01*
X174736000Y-159548429D01*
X174807428Y-159691286D01*
X174807428Y-159834143D01*
X174736000Y-160048429D01*
X173878857Y-160905571D01*
X174807428Y-160905571D01*
X176593142Y-160905571D02*
X176593142Y-159905571D01*
X176593142Y-160048429D02*
X176664570Y-159977000D01*
X176807428Y-159905571D01*
X177021713Y-159905571D01*
X177164570Y-159977000D01*
X177235999Y-160119857D01*
X177235999Y-160905571D01*
X177235999Y-160119857D02*
X177307428Y-159977000D01*
X177450285Y-159905571D01*
X177664570Y-159905571D01*
X177807428Y-159977000D01*
X177878856Y-160119857D01*
X177878856Y-160905571D01*
X178593142Y-160905571D02*
X178593142Y-159905571D01*
X178593142Y-160048429D02*
X178664570Y-159977000D01*
X178807428Y-159905571D01*
X179021713Y-159905571D01*
X179164570Y-159977000D01*
X179235999Y-160119857D01*
X179235999Y-160905571D01*
X179235999Y-160119857D02*
X179307428Y-159977000D01*
X179450285Y-159905571D01*
X179664570Y-159905571D01*
X179807428Y-159977000D01*
X179878856Y-160119857D01*
X179878856Y-160905571D01*
X166370000Y-158877000D02*
X181102000Y-158877000D01*
X166370000Y-116840000D02*
X166370000Y-161577000D01*
X181102000Y-116840000D02*
X181102000Y-161577000D01*
X181102000Y-158877000D02*
X179975496Y-159463421D01*
X181102000Y-158877000D02*
X179975496Y-158290579D01*
X166370000Y-158877000D02*
X167496504Y-159463421D01*
X166370000Y-158877000D02*
X167496504Y-158290579D01*
X196251429Y-116054858D02*
X196251429Y-116340573D01*
X196322857Y-116483430D01*
X196394286Y-116554858D01*
X196608571Y-116697716D01*
X196894286Y-116769144D01*
X197465714Y-116769144D01*
X197608571Y-116697716D01*
X197680000Y-116626287D01*
X197751429Y-116483430D01*
X197751429Y-116197716D01*
X197680000Y-116054858D01*
X197608571Y-115983430D01*
X197465714Y-115912001D01*
X197108571Y-115912001D01*
X196965714Y-115983430D01*
X196894286Y-116054858D01*
X196822857Y-116197716D01*
X196822857Y-116483430D01*
X196894286Y-116626287D01*
X196965714Y-116697716D01*
X197108571Y-116769144D01*
X196322857Y-117483429D02*
X196251429Y-117483429D01*
X196108571Y-117412001D01*
X196037143Y-117340572D01*
X196251429Y-118912001D02*
X196251429Y-118054858D01*
X196251429Y-118483430D02*
X197751429Y-118483430D01*
X197537143Y-118340573D01*
X197394286Y-118197715D01*
X197322857Y-118054858D01*
X197251429Y-120197715D02*
X196251429Y-120197715D01*
X197822857Y-119840572D02*
X196751429Y-119483429D01*
X196751429Y-120412001D01*
X197251429Y-121626286D02*
X196251429Y-121626286D01*
X197822857Y-121269143D02*
X196751429Y-120912000D01*
X196751429Y-121840572D01*
X196251429Y-123554857D02*
X197251429Y-123554857D01*
X197108571Y-123554857D02*
X197180000Y-123626285D01*
X197251429Y-123769143D01*
X197251429Y-123983428D01*
X197180000Y-124126285D01*
X197037143Y-124197714D01*
X196251429Y-124197714D01*
X197037143Y-124197714D02*
X197180000Y-124269143D01*
X197251429Y-124412000D01*
X197251429Y-124626285D01*
X197180000Y-124769143D01*
X197037143Y-124840571D01*
X196251429Y-124840571D01*
X196251429Y-125554857D02*
X197251429Y-125554857D01*
X197108571Y-125554857D02*
X197180000Y-125626285D01*
X197251429Y-125769143D01*
X197251429Y-125983428D01*
X197180000Y-126126285D01*
X197037143Y-126197714D01*
X196251429Y-126197714D01*
X197037143Y-126197714D02*
X197180000Y-126269143D01*
X197251429Y-126412000D01*
X197251429Y-126626285D01*
X197180000Y-126769143D01*
X197037143Y-126840571D01*
X196251429Y-126840571D01*
X195580000Y-116840000D02*
X195580000Y-125984000D01*
X182880000Y-116840000D02*
X198280000Y-116840000D01*
X182880000Y-125984000D02*
X198280000Y-125984000D01*
X195580000Y-125984000D02*
X194993579Y-124857496D01*
X195580000Y-125984000D02*
X196166421Y-124857496D01*
X195580000Y-116840000D02*
X194993579Y-117966504D01*
X195580000Y-116840000D02*
X196166421Y-117966504D01*
X136796423Y-143985785D02*
X137796421Y-143984110D01*
X137156078Y-145485185D01*
X139082134Y-143981956D02*
X138367849Y-143983153D01*
X138297616Y-144697557D01*
X138368926Y-144626010D01*
X138511663Y-144554342D01*
X138868805Y-144553743D01*
X139011782Y-144624933D01*
X139083330Y-144696241D01*
X139154997Y-144838978D01*
X139155596Y-145196121D01*
X139084407Y-145339097D01*
X139013098Y-145410646D01*
X138870361Y-145482313D01*
X138513218Y-145482911D01*
X138370242Y-145411723D01*
X138298693Y-145340414D01*
X139798691Y-145337901D02*
X139870238Y-145409210D01*
X139798930Y-145480758D01*
X139727382Y-145409449D01*
X139798691Y-145337901D01*
X139798930Y-145480758D01*
X140726065Y-144622062D02*
X140583088Y-144550872D01*
X140511540Y-144479563D01*
X140439872Y-144336826D01*
X140439752Y-144265398D01*
X140510942Y-144122421D01*
X140582250Y-144050873D01*
X140724988Y-143979204D01*
X141010702Y-143978726D01*
X141153678Y-144049915D01*
X141225227Y-144121225D01*
X141296894Y-144263962D01*
X141297014Y-144335390D01*
X141225825Y-144478366D01*
X141154516Y-144549915D01*
X141011779Y-144621583D01*
X140726065Y-144622062D01*
X140583327Y-144693729D01*
X140512019Y-144765277D01*
X140440829Y-144908254D01*
X140441308Y-145193967D01*
X140512976Y-145336704D01*
X140584523Y-145408014D01*
X140727501Y-145479202D01*
X141013215Y-145478724D01*
X141155952Y-145407057D01*
X141227261Y-145335508D01*
X141298450Y-145192532D01*
X141297971Y-144906818D01*
X141226304Y-144764081D01*
X141154755Y-144692772D01*
X141011779Y-144621583D01*
X142727497Y-145475852D02*
X141870355Y-145477288D01*
X142298927Y-145476570D02*
X142296414Y-143976572D01*
X142153916Y-144191097D01*
X142011298Y-144334193D01*
X141868561Y-144405862D01*
X143441781Y-145474656D02*
X143727496Y-145474177D01*
X143870233Y-145402510D01*
X143941541Y-145330962D01*
X144084040Y-145116438D01*
X144154989Y-144830603D01*
X144154032Y-144259176D01*
X144082365Y-144116439D01*
X144010816Y-144045130D01*
X143867840Y-143973940D01*
X143582126Y-143974419D01*
X143439388Y-144046087D01*
X143368080Y-144117635D01*
X143296890Y-144260612D01*
X143297489Y-144617754D01*
X143369157Y-144760491D01*
X143440704Y-144831800D01*
X143583682Y-144902989D01*
X143869395Y-144902511D01*
X144012133Y-144830843D01*
X144083442Y-144759295D01*
X144154630Y-144616319D01*
X145941778Y-145470468D02*
X145940103Y-144470470D01*
X145940342Y-144613327D02*
X146011650Y-144541779D01*
X146154388Y-144470111D01*
X146368673Y-144469752D01*
X146511649Y-144540941D01*
X146583318Y-144683679D01*
X146584634Y-145469391D01*
X146583318Y-144683679D02*
X146654507Y-144540702D01*
X146797244Y-144469034D01*
X147011529Y-144468675D01*
X147154507Y-144539865D01*
X147226174Y-144682602D01*
X147227490Y-145468315D01*
X147941775Y-145467118D02*
X147940100Y-144467120D01*
X147940339Y-144609977D02*
X148011647Y-144538429D01*
X148154385Y-144466761D01*
X148368670Y-144466402D01*
X148511647Y-144537591D01*
X148583315Y-144680328D01*
X148584631Y-145466041D01*
X148583315Y-144680328D02*
X148654504Y-144537352D01*
X148797242Y-144465684D01*
X149011526Y-144465325D01*
X149154504Y-144536514D01*
X149226171Y-144679252D01*
X149227487Y-145464965D01*
X180990742Y-143383186D02*
X105171742Y-143510186D01*
X180975000Y-133985000D02*
X180995265Y-146083182D01*
X105156000Y-134112000D02*
X105176265Y-146210182D01*
X105171742Y-143510186D02*
X106297262Y-142921879D01*
X105171742Y-143510186D02*
X106299226Y-144094719D01*
X180990742Y-143383186D02*
X179863258Y-142798653D01*
X180990742Y-143383186D02*
X179865222Y-143971493D01*
X189639429Y-97495570D02*
X189568000Y-97638428D01*
X189496571Y-97709856D01*
X189353714Y-97781285D01*
X189282286Y-97781285D01*
X189139429Y-97709856D01*
X189068000Y-97638428D01*
X188996571Y-97495570D01*
X188996571Y-97209856D01*
X189068000Y-97066999D01*
X189139429Y-96995570D01*
X189282286Y-96924142D01*
X189353714Y-96924142D01*
X189496571Y-96995570D01*
X189568000Y-97066999D01*
X189639429Y-97209856D01*
X189639429Y-97495570D01*
X189710857Y-97638428D01*
X189782286Y-97709856D01*
X189925143Y-97781285D01*
X190210857Y-97781285D01*
X190353714Y-97709856D01*
X190425143Y-97638428D01*
X190496571Y-97495570D01*
X190496571Y-97209856D01*
X190425143Y-97066999D01*
X190353714Y-96995570D01*
X190210857Y-96924142D01*
X189925143Y-96924142D01*
X189782286Y-96995570D01*
X189710857Y-97066999D01*
X189639429Y-97209856D01*
X188996571Y-95566999D02*
X188996571Y-96281285D01*
X189710857Y-96352714D01*
X189639429Y-96281285D01*
X189568000Y-96138428D01*
X189568000Y-95781285D01*
X189639429Y-95638428D01*
X189710857Y-95566999D01*
X189853714Y-95495571D01*
X190210857Y-95495571D01*
X190353714Y-95566999D01*
X190425143Y-95638428D01*
X190496571Y-95781285D01*
X190496571Y-96138428D01*
X190425143Y-96281285D01*
X190353714Y-96352714D01*
X190353714Y-94852714D02*
X190425143Y-94781286D01*
X190496571Y-94852714D01*
X190425143Y-94924143D01*
X190353714Y-94852714D01*
X190496571Y-94852714D01*
X188996571Y-93852714D02*
X188996571Y-93709857D01*
X189068000Y-93567000D01*
X189139429Y-93495571D01*
X189282286Y-93424142D01*
X189568000Y-93352714D01*
X189925143Y-93352714D01*
X190210857Y-93424142D01*
X190353714Y-93495571D01*
X190425143Y-93567000D01*
X190496571Y-93709857D01*
X190496571Y-93852714D01*
X190425143Y-93995571D01*
X190353714Y-94067000D01*
X190210857Y-94138428D01*
X189925143Y-94209857D01*
X189568000Y-94209857D01*
X189282286Y-94138428D01*
X189139429Y-94067000D01*
X189068000Y-93995571D01*
X188996571Y-93852714D01*
X190496571Y-92638429D02*
X190496571Y-92352714D01*
X190425143Y-92209857D01*
X190353714Y-92138429D01*
X190139429Y-91995571D01*
X189853714Y-91924143D01*
X189282286Y-91924143D01*
X189139429Y-91995571D01*
X189068000Y-92067000D01*
X188996571Y-92209857D01*
X188996571Y-92495571D01*
X189068000Y-92638429D01*
X189139429Y-92709857D01*
X189282286Y-92781286D01*
X189639429Y-92781286D01*
X189782286Y-92709857D01*
X189853714Y-92638429D01*
X189925143Y-92495571D01*
X189925143Y-92209857D01*
X189853714Y-92067000D01*
X189782286Y-91995571D01*
X189639429Y-91924143D01*
X188996571Y-90995572D02*
X188996571Y-90852715D01*
X189068000Y-90709858D01*
X189139429Y-90638429D01*
X189282286Y-90567000D01*
X189568000Y-90495572D01*
X189925143Y-90495572D01*
X190210857Y-90567000D01*
X190353714Y-90638429D01*
X190425143Y-90709858D01*
X190496571Y-90852715D01*
X190496571Y-90995572D01*
X190425143Y-91138429D01*
X190353714Y-91209858D01*
X190210857Y-91281286D01*
X189925143Y-91352715D01*
X189568000Y-91352715D01*
X189282286Y-91281286D01*
X189139429Y-91209858D01*
X189068000Y-91138429D01*
X188996571Y-90995572D01*
X190496571Y-88709858D02*
X189496571Y-88709858D01*
X189639429Y-88709858D02*
X189568000Y-88638430D01*
X189496571Y-88495572D01*
X189496571Y-88281287D01*
X189568000Y-88138430D01*
X189710857Y-88067001D01*
X190496571Y-88067001D01*
X189710857Y-88067001D02*
X189568000Y-87995572D01*
X189496571Y-87852715D01*
X189496571Y-87638430D01*
X189568000Y-87495572D01*
X189710857Y-87424144D01*
X190496571Y-87424144D01*
X190496571Y-86709858D02*
X189496571Y-86709858D01*
X189639429Y-86709858D02*
X189568000Y-86638430D01*
X189496571Y-86495572D01*
X189496571Y-86281287D01*
X189568000Y-86138430D01*
X189710857Y-86067001D01*
X190496571Y-86067001D01*
X189710857Y-86067001D02*
X189568000Y-85995572D01*
X189496571Y-85852715D01*
X189496571Y-85638430D01*
X189568000Y-85495572D01*
X189710857Y-85424144D01*
X190496571Y-85424144D01*
X188468000Y-134112000D02*
X188468000Y-49022000D01*
X181102000Y-134112000D02*
X191168000Y-134112000D01*
X181102000Y-49022000D02*
X191168000Y-49022000D01*
X188468000Y-49022000D02*
X189054421Y-50148504D01*
X188468000Y-49022000D02*
X187881579Y-50148504D01*
X188468000Y-134112000D02*
X189054421Y-132985496D01*
X188468000Y-134112000D02*
X187881579Y-132985496D01*
X117681242Y-33736786D02*
X118609810Y-33734832D01*
X118111014Y-34307312D01*
X118325299Y-34306861D01*
X118468306Y-34377989D01*
X118539886Y-34449267D01*
X118611614Y-34591973D01*
X118612365Y-34949115D01*
X118541238Y-35092122D01*
X118469960Y-35163701D01*
X118327253Y-35235430D01*
X117898682Y-35236332D01*
X117755675Y-35165204D01*
X117684097Y-35093926D01*
X119468304Y-34375885D02*
X119325296Y-34304757D01*
X119253718Y-34233478D01*
X119181989Y-34090772D01*
X119181838Y-34019344D01*
X119252967Y-33876337D01*
X119324244Y-33804758D01*
X119466952Y-33733028D01*
X119752665Y-33732427D01*
X119895672Y-33803556D01*
X119967251Y-33874834D01*
X120038979Y-34017540D01*
X120039130Y-34088968D01*
X119968003Y-34231975D01*
X119896724Y-34303554D01*
X119754018Y-34375284D01*
X119468304Y-34375885D01*
X119325597Y-34447614D01*
X119254319Y-34519193D01*
X119183191Y-34662200D01*
X119183792Y-34947913D01*
X119255522Y-35090619D01*
X119327100Y-35161898D01*
X119470108Y-35233025D01*
X119755821Y-35232424D01*
X119898528Y-35160696D01*
X119969806Y-35089116D01*
X120040933Y-34946109D01*
X120040332Y-34660396D01*
X119968604Y-34517690D01*
X119897025Y-34446411D01*
X119754018Y-34375284D01*
X120755668Y-35158892D02*
X120755818Y-35230320D01*
X120684691Y-35373328D01*
X120613412Y-35444906D01*
X121681232Y-33728369D02*
X121824088Y-33728069D01*
X121967095Y-33799197D01*
X122038674Y-33870476D01*
X122110404Y-34013182D01*
X122182433Y-34298745D01*
X122183184Y-34655887D01*
X122112358Y-34941751D01*
X122041229Y-35084758D01*
X121969951Y-35156337D01*
X121827245Y-35228065D01*
X121684388Y-35228366D01*
X121541381Y-35157239D01*
X121469802Y-35085960D01*
X121398073Y-34943254D01*
X121326043Y-34657691D01*
X121325292Y-34300549D01*
X121396119Y-34014685D01*
X121467247Y-33871678D01*
X121538525Y-33800099D01*
X121681232Y-33728369D01*
X122752958Y-33868973D02*
X122824236Y-33797393D01*
X122966943Y-33725664D01*
X123324085Y-33724912D01*
X123467092Y-33796041D01*
X123538671Y-33867319D01*
X123610400Y-34010026D01*
X123610700Y-34152882D01*
X123539723Y-34367318D01*
X122684386Y-35226262D01*
X123612955Y-35224308D01*
X124538367Y-33722357D02*
X124681224Y-33722057D01*
X124824231Y-33793185D01*
X124895810Y-33864464D01*
X124967540Y-34007170D01*
X125039569Y-34292733D01*
X125040320Y-34649875D01*
X124969493Y-34935739D01*
X124898365Y-35078746D01*
X124827087Y-35150325D01*
X124684380Y-35222054D01*
X124541524Y-35222354D01*
X124398517Y-35151227D01*
X124326937Y-35079948D01*
X124255209Y-34937242D01*
X124183179Y-34651679D01*
X124182427Y-34294537D01*
X124253255Y-34008673D01*
X124324382Y-33865666D01*
X124395661Y-33794087D01*
X124538367Y-33722357D01*
X126827232Y-35217545D02*
X126825128Y-34217547D01*
X126825429Y-34360405D02*
X126896706Y-34288825D01*
X127039414Y-34217096D01*
X127253698Y-34216645D01*
X127396705Y-34287773D01*
X127468435Y-34430480D01*
X127470088Y-35216192D01*
X127468435Y-34430480D02*
X127539563Y-34287473D01*
X127682269Y-34215743D01*
X127896554Y-34215292D01*
X128039562Y-34286421D01*
X128111290Y-34429127D01*
X128112944Y-35214839D01*
X128827228Y-35213336D02*
X128825124Y-34213339D01*
X128825425Y-34356196D02*
X128896702Y-34284617D01*
X129039409Y-34212888D01*
X129253694Y-34212437D01*
X129396701Y-34283565D01*
X129468430Y-34426271D01*
X129470084Y-35211984D01*
X129468430Y-34426271D02*
X129539559Y-34283264D01*
X129682265Y-34211535D01*
X129896550Y-34211084D01*
X130039558Y-34282212D01*
X130111286Y-34424919D01*
X130112939Y-35210631D01*
X104961510Y-35934984D02*
X142981510Y-35854984D01*
X104970000Y-39970000D02*
X104955829Y-33234990D01*
X142990000Y-39890000D02*
X142975829Y-33154990D01*
X142981510Y-35854984D02*
X141856243Y-36443774D01*
X142981510Y-35854984D02*
X141853775Y-35270935D01*
X104961510Y-35934984D02*
X106089245Y-36519033D01*
X104961510Y-35934984D02*
X106086777Y-35346194D01*
M02*
