G04 #@! TF.GenerationSoftware,KiCad,Pcbnew,5.1.5-52549c5~84~ubuntu18.04.1*
G04 #@! TF.CreationDate,2020-05-18T18:44:33+01:00*
G04 #@! TF.ProjectId,flypi,666c7970-692e-46b6-9963-61645f706362,rev?*
G04 #@! TF.SameCoordinates,Original*
G04 #@! TF.FileFunction,Other,Fab,Top*
%FSLAX46Y46*%
G04 Gerber Fmt 4.6, Leading zero omitted, Abs format (unit mm)*
G04 Created by KiCad (PCBNEW 5.1.5-52549c5~84~ubuntu18.04.1) date 2020-05-18 18:44:33*
%MOMM*%
%LPD*%
G04 APERTURE LIST*
%ADD10C,0.100000*%
%ADD11C,0.150000*%
G04 APERTURE END LIST*
D10*
X115800000Y-56750000D02*
X119300000Y-56750000D01*
X119293625Y-56753625D02*
G75*
G03X117540000Y-52520000I-1753625J1753625D01*
G01*
X115786375Y-56753625D02*
G75*
G02X117540000Y-52520000I1753625J1753625D01*
G01*
X124888000Y-133818000D02*
X124888000Y-129418000D01*
X124888000Y-129418000D02*
X114888000Y-129418000D01*
X114888000Y-129418000D02*
X114888000Y-133818000D01*
X114888000Y-133818000D02*
X124888000Y-133818000D01*
X124888000Y-132548000D02*
X114888000Y-132548000D01*
X121738000Y-133818000D02*
X121738000Y-132548000D01*
X118038000Y-133818000D02*
X118038000Y-132548000D01*
X126337000Y-74511000D02*
X126337000Y-71011000D01*
X126340625Y-71017375D02*
G75*
G03X122107000Y-72771000I-1753625J-1753625D01*
G01*
X126340625Y-74524625D02*
G75*
G02X122107000Y-72771000I-1753625J1753625D01*
G01*
X127226000Y-117818000D02*
X127226000Y-114318000D01*
X127229625Y-114324375D02*
G75*
G03X122996000Y-116078000I-1753625J-1753625D01*
G01*
X127229625Y-117831625D02*
G75*
G02X122996000Y-116078000I-1753625J1753625D01*
G01*
X119860000Y-90894000D02*
X119860000Y-87394000D01*
X119863625Y-87400375D02*
G75*
G03X115630000Y-89154000I-1753625J-1753625D01*
G01*
X119863625Y-90907625D02*
G75*
G02X115630000Y-89154000I-1753625J1753625D01*
G01*
X131318000Y-93218000D02*
X131318000Y-83058000D01*
X131318000Y-83058000D02*
X128778000Y-83058000D01*
X128778000Y-83058000D02*
X128778000Y-93218000D01*
X128778000Y-93218000D02*
X131318000Y-93218000D01*
X134946000Y-96952000D02*
X134946000Y-100152000D01*
X134946000Y-100152000D02*
X143946000Y-100152000D01*
X143946000Y-100152000D02*
X143946000Y-96952000D01*
X143946000Y-96952000D02*
X134946000Y-96952000D01*
X131826000Y-98552000D02*
X134946000Y-98552000D01*
X147066000Y-98552000D02*
X143946000Y-98552000D01*
X134946000Y-101524000D02*
X134946000Y-104724000D01*
X134946000Y-104724000D02*
X143946000Y-104724000D01*
X143946000Y-104724000D02*
X143946000Y-101524000D01*
X143946000Y-101524000D02*
X134946000Y-101524000D01*
X131826000Y-103124000D02*
X134946000Y-103124000D01*
X147066000Y-103124000D02*
X143946000Y-103124000D01*
X134946000Y-107112000D02*
X134946000Y-110312000D01*
X134946000Y-110312000D02*
X143946000Y-110312000D01*
X143946000Y-110312000D02*
X143946000Y-107112000D01*
X143946000Y-107112000D02*
X134946000Y-107112000D01*
X131826000Y-108712000D02*
X134946000Y-108712000D01*
X147066000Y-108712000D02*
X143946000Y-108712000D01*
X134946000Y-112954000D02*
X134946000Y-116154000D01*
X134946000Y-116154000D02*
X143946000Y-116154000D01*
X143946000Y-116154000D02*
X143946000Y-112954000D01*
X143946000Y-112954000D02*
X134946000Y-112954000D01*
X131826000Y-114554000D02*
X134946000Y-114554000D01*
X147066000Y-114554000D02*
X143946000Y-114554000D01*
X112340000Y-78156000D02*
X112340000Y-81356000D01*
X112340000Y-81356000D02*
X121340000Y-81356000D01*
X121340000Y-81356000D02*
X121340000Y-78156000D01*
X121340000Y-78156000D02*
X112340000Y-78156000D01*
X109220000Y-79756000D02*
X112340000Y-79756000D01*
X124460000Y-79756000D02*
X121340000Y-79756000D01*
X119816000Y-100406000D02*
X119816000Y-97206000D01*
X119816000Y-97206000D02*
X110816000Y-97206000D01*
X110816000Y-97206000D02*
X110816000Y-100406000D01*
X110816000Y-100406000D02*
X119816000Y-100406000D01*
X122936000Y-98806000D02*
X119816000Y-98806000D01*
X107696000Y-98806000D02*
X110816000Y-98806000D01*
X119452000Y-64059000D02*
X119452000Y-67259000D01*
X119452000Y-67259000D02*
X128452000Y-67259000D01*
X128452000Y-67259000D02*
X128452000Y-64059000D01*
X128452000Y-64059000D02*
X119452000Y-64059000D01*
X116332000Y-65659000D02*
X119452000Y-65659000D01*
X131572000Y-65659000D02*
X128452000Y-65659000D01*
X119452000Y-59106000D02*
X119452000Y-62306000D01*
X119452000Y-62306000D02*
X128452000Y-62306000D01*
X128452000Y-62306000D02*
X128452000Y-59106000D01*
X128452000Y-59106000D02*
X119452000Y-59106000D01*
X116332000Y-60706000D02*
X119452000Y-60706000D01*
X131572000Y-60706000D02*
X128452000Y-60706000D01*
X111316000Y-117184000D02*
X105566000Y-117184000D01*
X105566000Y-117184000D02*
X105566000Y-124584000D01*
X105566000Y-124584000D02*
X111316000Y-124584000D01*
X111316000Y-124584000D02*
X111316000Y-117184000D01*
X111716000Y-119284000D02*
X111716000Y-116784000D01*
X111716000Y-116784000D02*
X109216000Y-116784000D01*
X129556000Y-118892000D02*
X129556000Y-121392000D01*
X129556000Y-121392000D02*
X136556000Y-121392000D01*
X136556000Y-121392000D02*
X136556000Y-118892000D01*
X136556000Y-118892000D02*
X129556000Y-118892000D01*
X138954000Y-118892000D02*
X138954000Y-121392000D01*
X138954000Y-121392000D02*
X145954000Y-121392000D01*
X145954000Y-121392000D02*
X145954000Y-118892000D01*
X145954000Y-118892000D02*
X138954000Y-118892000D01*
X119952000Y-117184000D02*
X114202000Y-117184000D01*
X114202000Y-117184000D02*
X114202000Y-124584000D01*
X114202000Y-124584000D02*
X119952000Y-124584000D01*
X119952000Y-124584000D02*
X119952000Y-117184000D01*
X120352000Y-119284000D02*
X120352000Y-116784000D01*
X120352000Y-116784000D02*
X117852000Y-116784000D01*
X111316000Y-104992000D02*
X105566000Y-104992000D01*
X105566000Y-104992000D02*
X105566000Y-114892000D01*
X105566000Y-114892000D02*
X111316000Y-114892000D01*
X111316000Y-114892000D02*
X111316000Y-104992000D01*
X111716000Y-107092000D02*
X111716000Y-104592000D01*
X111716000Y-104592000D02*
X109216000Y-104592000D01*
X128758000Y-97044000D02*
X126258000Y-97044000D01*
X126258000Y-97044000D02*
X126258000Y-104044000D01*
X126258000Y-104044000D02*
X128758000Y-104044000D01*
X128758000Y-104044000D02*
X128758000Y-97044000D01*
X119952000Y-102706000D02*
X114202000Y-102706000D01*
X114202000Y-102706000D02*
X114202000Y-115106000D01*
X114202000Y-115106000D02*
X119952000Y-115106000D01*
X119952000Y-115106000D02*
X119952000Y-102706000D01*
X120352000Y-104806000D02*
X120352000Y-102306000D01*
X120352000Y-102306000D02*
X117852000Y-102306000D01*
X111443000Y-66765000D02*
X105693000Y-66765000D01*
X105693000Y-66765000D02*
X105693000Y-76665000D01*
X105693000Y-76665000D02*
X111443000Y-76665000D01*
X111443000Y-76665000D02*
X111443000Y-66765000D01*
X111843000Y-68865000D02*
X111843000Y-66365000D01*
X111843000Y-66365000D02*
X109343000Y-66365000D01*
X111570000Y-84418000D02*
X105820000Y-84418000D01*
X105820000Y-84418000D02*
X105820000Y-94318000D01*
X105820000Y-94318000D02*
X111570000Y-94318000D01*
X111570000Y-94318000D02*
X111570000Y-84418000D01*
X111970000Y-86518000D02*
X111970000Y-84018000D01*
X111970000Y-84018000D02*
X109470000Y-84018000D01*
X120079000Y-69178000D02*
X114329000Y-69178000D01*
X114329000Y-69178000D02*
X114329000Y-76578000D01*
X114329000Y-76578000D02*
X120079000Y-76578000D01*
X120079000Y-76578000D02*
X120079000Y-69178000D01*
X120479000Y-71278000D02*
X120479000Y-68778000D01*
X120479000Y-68778000D02*
X117979000Y-68778000D01*
X106897000Y-58610000D02*
X106897000Y-64360000D01*
X106897000Y-64360000D02*
X114297000Y-64360000D01*
X114297000Y-64360000D02*
X114297000Y-58610000D01*
X114297000Y-58610000D02*
X106897000Y-58610000D01*
X108997000Y-58210000D02*
X106497000Y-58210000D01*
X106497000Y-58210000D02*
X106497000Y-60710000D01*
D11*
X117444761Y-51987619D02*
X117349523Y-51940000D01*
X117254285Y-51844761D01*
X117111428Y-51701904D01*
X117016190Y-51654285D01*
X116920952Y-51654285D01*
X116968571Y-51892380D02*
X116873333Y-51844761D01*
X116778095Y-51749523D01*
X116730476Y-51559047D01*
X116730476Y-51225714D01*
X116778095Y-51035238D01*
X116873333Y-50940000D01*
X116968571Y-50892380D01*
X117159047Y-50892380D01*
X117254285Y-50940000D01*
X117349523Y-51035238D01*
X117397142Y-51225714D01*
X117397142Y-51559047D01*
X117349523Y-51749523D01*
X117254285Y-51844761D01*
X117159047Y-51892380D01*
X116968571Y-51892380D01*
X117778095Y-50987619D02*
X117825714Y-50940000D01*
X117920952Y-50892380D01*
X118159047Y-50892380D01*
X118254285Y-50940000D01*
X118301904Y-50987619D01*
X118349523Y-51082857D01*
X118349523Y-51178095D01*
X118301904Y-51320952D01*
X117730476Y-51892380D01*
X118349523Y-51892380D01*
X143580380Y-71221047D02*
X143056571Y-71221047D01*
X142961333Y-71268666D01*
X142913714Y-71363904D01*
X142913714Y-71554380D01*
X142961333Y-71649619D01*
X143532761Y-71221047D02*
X143580380Y-71316285D01*
X143580380Y-71554380D01*
X143532761Y-71649619D01*
X143437523Y-71697238D01*
X143342285Y-71697238D01*
X143247047Y-71649619D01*
X143199428Y-71554380D01*
X143199428Y-71316285D01*
X143151809Y-71221047D01*
X143580380Y-70744857D02*
X142913714Y-70744857D01*
X143104190Y-70744857D02*
X143008952Y-70697238D01*
X142961333Y-70649619D01*
X142913714Y-70554380D01*
X142913714Y-70459142D01*
X143580380Y-69697238D02*
X142580380Y-69697238D01*
X143532761Y-69697238D02*
X143580380Y-69792476D01*
X143580380Y-69982952D01*
X143532761Y-70078190D01*
X143485142Y-70125809D01*
X143389904Y-70173428D01*
X143104190Y-70173428D01*
X143008952Y-70125809D01*
X142961333Y-70078190D01*
X142913714Y-69982952D01*
X142913714Y-69792476D01*
X142961333Y-69697238D01*
X142913714Y-68792476D02*
X143580380Y-68792476D01*
X142913714Y-69221047D02*
X143437523Y-69221047D01*
X143532761Y-69173428D01*
X143580380Y-69078190D01*
X143580380Y-68935333D01*
X143532761Y-68840095D01*
X143485142Y-68792476D01*
X143580380Y-68316285D02*
X142913714Y-68316285D01*
X142580380Y-68316285D02*
X142628000Y-68363904D01*
X142675619Y-68316285D01*
X142628000Y-68268666D01*
X142580380Y-68316285D01*
X142675619Y-68316285D01*
X142913714Y-67840095D02*
X143580380Y-67840095D01*
X143008952Y-67840095D02*
X142961333Y-67792476D01*
X142913714Y-67697238D01*
X142913714Y-67554380D01*
X142961333Y-67459142D01*
X143056571Y-67411523D01*
X143580380Y-67411523D01*
X143580380Y-66792476D02*
X143532761Y-66887714D01*
X143485142Y-66935333D01*
X143389904Y-66982952D01*
X143104190Y-66982952D01*
X143008952Y-66935333D01*
X142961333Y-66887714D01*
X142913714Y-66792476D01*
X142913714Y-66649619D01*
X142961333Y-66554380D01*
X143008952Y-66506761D01*
X143104190Y-66459142D01*
X143389904Y-66459142D01*
X143485142Y-66506761D01*
X143532761Y-66554380D01*
X143580380Y-66649619D01*
X143580380Y-66792476D01*
X143675619Y-66268666D02*
X143675619Y-65506761D01*
X143580380Y-65268666D02*
X142913714Y-65268666D01*
X143008952Y-65268666D02*
X142961333Y-65221047D01*
X142913714Y-65125809D01*
X142913714Y-64982952D01*
X142961333Y-64887714D01*
X143056571Y-64840095D01*
X143580380Y-64840095D01*
X143056571Y-64840095D02*
X142961333Y-64792476D01*
X142913714Y-64697238D01*
X142913714Y-64554380D01*
X142961333Y-64459142D01*
X143056571Y-64411523D01*
X143580380Y-64411523D01*
X143580380Y-63935333D02*
X142913714Y-63935333D01*
X142580380Y-63935333D02*
X142628000Y-63982952D01*
X142675619Y-63935333D01*
X142628000Y-63887714D01*
X142580380Y-63935333D01*
X142675619Y-63935333D01*
X142913714Y-63459142D02*
X143580380Y-63459142D01*
X143008952Y-63459142D02*
X142961333Y-63411523D01*
X142913714Y-63316285D01*
X142913714Y-63173428D01*
X142961333Y-63078190D01*
X143056571Y-63030571D01*
X143580380Y-63030571D01*
X143580380Y-62554380D02*
X142913714Y-62554380D01*
X142580380Y-62554380D02*
X142628000Y-62602000D01*
X142675619Y-62554380D01*
X142628000Y-62506761D01*
X142580380Y-62554380D01*
X142675619Y-62554380D01*
X124083333Y-128902380D02*
X123750000Y-128426190D01*
X123511904Y-128902380D02*
X123511904Y-127902380D01*
X123892857Y-127902380D01*
X123988095Y-127950000D01*
X124035714Y-127997619D01*
X124083333Y-128092857D01*
X124083333Y-128235714D01*
X124035714Y-128330952D01*
X123988095Y-128378571D01*
X123892857Y-128426190D01*
X123511904Y-128426190D01*
X125035714Y-128902380D02*
X124464285Y-128902380D01*
X124750000Y-128902380D02*
X124750000Y-127902380D01*
X124654761Y-128045238D01*
X124559523Y-128140476D01*
X124464285Y-128188095D01*
X122947619Y-77495238D02*
X122900000Y-77590476D01*
X122804761Y-77685714D01*
X122661904Y-77828571D01*
X122614285Y-77923809D01*
X122614285Y-78019047D01*
X122852380Y-77971428D02*
X122804761Y-78066666D01*
X122709523Y-78161904D01*
X122519047Y-78209523D01*
X122185714Y-78209523D01*
X121995238Y-78161904D01*
X121900000Y-78066666D01*
X121852380Y-77971428D01*
X121852380Y-77780952D01*
X121900000Y-77685714D01*
X121995238Y-77590476D01*
X122185714Y-77542857D01*
X122519047Y-77542857D01*
X122709523Y-77590476D01*
X122804761Y-77685714D01*
X122852380Y-77780952D01*
X122852380Y-77971428D01*
X121852380Y-77209523D02*
X121852380Y-76590476D01*
X122233333Y-76923809D01*
X122233333Y-76780952D01*
X122280952Y-76685714D01*
X122328571Y-76638095D01*
X122423809Y-76590476D01*
X122661904Y-76590476D01*
X122757142Y-76638095D01*
X122804761Y-76685714D01*
X122852380Y-76780952D01*
X122852380Y-77066666D01*
X122804761Y-77161904D01*
X122757142Y-77209523D01*
X115097619Y-89249238D02*
X115050000Y-89344476D01*
X114954761Y-89439714D01*
X114811904Y-89582571D01*
X114764285Y-89677809D01*
X114764285Y-89773047D01*
X115002380Y-89725428D02*
X114954761Y-89820666D01*
X114859523Y-89915904D01*
X114669047Y-89963523D01*
X114335714Y-89963523D01*
X114145238Y-89915904D01*
X114050000Y-89820666D01*
X114002380Y-89725428D01*
X114002380Y-89534952D01*
X114050000Y-89439714D01*
X114145238Y-89344476D01*
X114335714Y-89296857D01*
X114669047Y-89296857D01*
X114859523Y-89344476D01*
X114954761Y-89439714D01*
X115002380Y-89534952D01*
X115002380Y-89725428D01*
X114335714Y-88439714D02*
X115002380Y-88439714D01*
X113954761Y-88677809D02*
X114669047Y-88915904D01*
X114669047Y-88296857D01*
X129309904Y-94730380D02*
X129309904Y-93730380D01*
X129690857Y-93730380D01*
X129786095Y-93778000D01*
X129833714Y-93825619D01*
X129881333Y-93920857D01*
X129881333Y-94063714D01*
X129833714Y-94158952D01*
X129786095Y-94206571D01*
X129690857Y-94254190D01*
X129309904Y-94254190D01*
X130357523Y-94730380D02*
X130548000Y-94730380D01*
X130643238Y-94682761D01*
X130690857Y-94635142D01*
X130786095Y-94492285D01*
X130833714Y-94301809D01*
X130833714Y-93920857D01*
X130786095Y-93825619D01*
X130738476Y-93778000D01*
X130643238Y-93730380D01*
X130452761Y-93730380D01*
X130357523Y-93778000D01*
X130309904Y-93825619D01*
X130262285Y-93920857D01*
X130262285Y-94158952D01*
X130309904Y-94254190D01*
X130357523Y-94301809D01*
X130452761Y-94349428D01*
X130643238Y-94349428D01*
X130738476Y-94301809D01*
X130786095Y-94254190D01*
X130833714Y-94158952D01*
X115625523Y-96598380D02*
X115292190Y-96122190D01*
X115054095Y-96598380D02*
X115054095Y-95598380D01*
X115435047Y-95598380D01*
X115530285Y-95646000D01*
X115577904Y-95693619D01*
X115625523Y-95788857D01*
X115625523Y-95931714D01*
X115577904Y-96026952D01*
X115530285Y-96074571D01*
X115435047Y-96122190D01*
X115054095Y-96122190D01*
X106918380Y-121622095D02*
X105918380Y-121622095D01*
X105918380Y-121241142D01*
X105966000Y-121145904D01*
X106013619Y-121098285D01*
X106108857Y-121050666D01*
X106251714Y-121050666D01*
X106346952Y-121098285D01*
X106394571Y-121145904D01*
X106442190Y-121241142D01*
X106442190Y-121622095D01*
X105918380Y-120717333D02*
X105918380Y-120098285D01*
X106299333Y-120431619D01*
X106299333Y-120288761D01*
X106346952Y-120193523D01*
X106394571Y-120145904D01*
X106489809Y-120098285D01*
X106727904Y-120098285D01*
X106823142Y-120145904D01*
X106870761Y-120193523D01*
X106918380Y-120288761D01*
X106918380Y-120574476D01*
X106870761Y-120669714D01*
X106823142Y-120717333D01*
X132889333Y-120499142D02*
X132841714Y-120546761D01*
X132698857Y-120594380D01*
X132603619Y-120594380D01*
X132460761Y-120546761D01*
X132365523Y-120451523D01*
X132317904Y-120356285D01*
X132270285Y-120165809D01*
X132270285Y-120022952D01*
X132317904Y-119832476D01*
X132365523Y-119737238D01*
X132460761Y-119642000D01*
X132603619Y-119594380D01*
X132698857Y-119594380D01*
X132841714Y-119642000D01*
X132889333Y-119689619D01*
X133222666Y-119594380D02*
X133889333Y-119594380D01*
X133460761Y-120594380D01*
X141851142Y-120499142D02*
X141803523Y-120546761D01*
X141660666Y-120594380D01*
X141565428Y-120594380D01*
X141422571Y-120546761D01*
X141327333Y-120451523D01*
X141279714Y-120356285D01*
X141232095Y-120165809D01*
X141232095Y-120022952D01*
X141279714Y-119832476D01*
X141327333Y-119737238D01*
X141422571Y-119642000D01*
X141565428Y-119594380D01*
X141660666Y-119594380D01*
X141803523Y-119642000D01*
X141851142Y-119689619D01*
X142803523Y-120594380D02*
X142232095Y-120594380D01*
X142517809Y-120594380D02*
X142517809Y-119594380D01*
X142422571Y-119737238D01*
X142327333Y-119832476D01*
X142232095Y-119880095D01*
X143422571Y-119594380D02*
X143517809Y-119594380D01*
X143613047Y-119642000D01*
X143660666Y-119689619D01*
X143708285Y-119784857D01*
X143755904Y-119975333D01*
X143755904Y-120213428D01*
X143708285Y-120403904D01*
X143660666Y-120499142D01*
X143613047Y-120546761D01*
X143517809Y-120594380D01*
X143422571Y-120594380D01*
X143327333Y-120546761D01*
X143279714Y-120499142D01*
X143232095Y-120403904D01*
X143184476Y-120213428D01*
X143184476Y-119975333D01*
X143232095Y-119784857D01*
X143279714Y-119689619D01*
X143327333Y-119642000D01*
X143422571Y-119594380D01*
X115554380Y-121622095D02*
X114554380Y-121622095D01*
X114554380Y-121241142D01*
X114602000Y-121145904D01*
X114649619Y-121098285D01*
X114744857Y-121050666D01*
X114887714Y-121050666D01*
X114982952Y-121098285D01*
X115030571Y-121145904D01*
X115078190Y-121241142D01*
X115078190Y-121622095D01*
X115554380Y-120098285D02*
X115554380Y-120669714D01*
X115554380Y-120384000D02*
X114554380Y-120384000D01*
X114697238Y-120479238D01*
X114792476Y-120574476D01*
X114840095Y-120669714D01*
X106918380Y-110680095D02*
X105918380Y-110680095D01*
X105918380Y-110299142D01*
X105966000Y-110203904D01*
X106013619Y-110156285D01*
X106108857Y-110108666D01*
X106251714Y-110108666D01*
X106346952Y-110156285D01*
X106394571Y-110203904D01*
X106442190Y-110299142D01*
X106442190Y-110680095D01*
X106251714Y-109251523D02*
X106918380Y-109251523D01*
X105870761Y-109489619D02*
X106585047Y-109727714D01*
X106585047Y-109108666D01*
X127865142Y-100710666D02*
X127912761Y-100758285D01*
X127960380Y-100901142D01*
X127960380Y-100996380D01*
X127912761Y-101139238D01*
X127817523Y-101234476D01*
X127722285Y-101282095D01*
X127531809Y-101329714D01*
X127388952Y-101329714D01*
X127198476Y-101282095D01*
X127103238Y-101234476D01*
X127008000Y-101139238D01*
X126960380Y-100996380D01*
X126960380Y-100901142D01*
X127008000Y-100758285D01*
X127055619Y-100710666D01*
X127388952Y-100139238D02*
X127341333Y-100234476D01*
X127293714Y-100282095D01*
X127198476Y-100329714D01*
X127150857Y-100329714D01*
X127055619Y-100282095D01*
X127008000Y-100234476D01*
X126960380Y-100139238D01*
X126960380Y-99948761D01*
X127008000Y-99853523D01*
X127055619Y-99805904D01*
X127150857Y-99758285D01*
X127198476Y-99758285D01*
X127293714Y-99805904D01*
X127341333Y-99853523D01*
X127388952Y-99948761D01*
X127388952Y-100139238D01*
X127436571Y-100234476D01*
X127484190Y-100282095D01*
X127579428Y-100329714D01*
X127769904Y-100329714D01*
X127865142Y-100282095D01*
X127912761Y-100234476D01*
X127960380Y-100139238D01*
X127960380Y-99948761D01*
X127912761Y-99853523D01*
X127865142Y-99805904D01*
X127769904Y-99758285D01*
X127579428Y-99758285D01*
X127484190Y-99805904D01*
X127436571Y-99853523D01*
X127388952Y-99948761D01*
X115554380Y-110120285D02*
X114554380Y-110120285D01*
X114554380Y-109739333D01*
X114602000Y-109644095D01*
X114649619Y-109596476D01*
X114744857Y-109548857D01*
X114887714Y-109548857D01*
X114982952Y-109596476D01*
X115030571Y-109644095D01*
X115078190Y-109739333D01*
X115078190Y-110120285D01*
X115554380Y-108596476D02*
X115554380Y-109167904D01*
X115554380Y-108882190D02*
X114554380Y-108882190D01*
X114697238Y-108977428D01*
X114792476Y-109072666D01*
X114840095Y-109167904D01*
X114554380Y-107977428D02*
X114554380Y-107882190D01*
X114602000Y-107786952D01*
X114649619Y-107739333D01*
X114744857Y-107691714D01*
X114935333Y-107644095D01*
X115173428Y-107644095D01*
X115363904Y-107691714D01*
X115459142Y-107739333D01*
X115506761Y-107786952D01*
X115554380Y-107882190D01*
X115554380Y-107977428D01*
X115506761Y-108072666D01*
X115459142Y-108120285D01*
X115363904Y-108167904D01*
X115173428Y-108215523D01*
X114935333Y-108215523D01*
X114744857Y-108167904D01*
X114649619Y-108120285D01*
X114602000Y-108072666D01*
X114554380Y-107977428D01*
X107045380Y-72453095D02*
X106045380Y-72453095D01*
X106045380Y-72072142D01*
X106093000Y-71976904D01*
X106140619Y-71929285D01*
X106235857Y-71881666D01*
X106378714Y-71881666D01*
X106473952Y-71929285D01*
X106521571Y-71976904D01*
X106569190Y-72072142D01*
X106569190Y-72453095D01*
X106473952Y-71310238D02*
X106426333Y-71405476D01*
X106378714Y-71453095D01*
X106283476Y-71500714D01*
X106235857Y-71500714D01*
X106140619Y-71453095D01*
X106093000Y-71405476D01*
X106045380Y-71310238D01*
X106045380Y-71119761D01*
X106093000Y-71024523D01*
X106140619Y-70976904D01*
X106235857Y-70929285D01*
X106283476Y-70929285D01*
X106378714Y-70976904D01*
X106426333Y-71024523D01*
X106473952Y-71119761D01*
X106473952Y-71310238D01*
X106521571Y-71405476D01*
X106569190Y-71453095D01*
X106664428Y-71500714D01*
X106854904Y-71500714D01*
X106950142Y-71453095D01*
X106997761Y-71405476D01*
X107045380Y-71310238D01*
X107045380Y-71119761D01*
X106997761Y-71024523D01*
X106950142Y-70976904D01*
X106854904Y-70929285D01*
X106664428Y-70929285D01*
X106569190Y-70976904D01*
X106521571Y-71024523D01*
X106473952Y-71119761D01*
X107172380Y-90106095D02*
X106172380Y-90106095D01*
X106172380Y-89725142D01*
X106220000Y-89629904D01*
X106267619Y-89582285D01*
X106362857Y-89534666D01*
X106505714Y-89534666D01*
X106600952Y-89582285D01*
X106648571Y-89629904D01*
X106696190Y-89725142D01*
X106696190Y-90106095D01*
X106172380Y-89201333D02*
X106172380Y-88534666D01*
X107172380Y-88963238D01*
X115641380Y-73636095D02*
X114641380Y-73636095D01*
X114641380Y-73255142D01*
X114689000Y-73159904D01*
X114736619Y-73112285D01*
X114831857Y-73064666D01*
X114974714Y-73064666D01*
X115069952Y-73112285D01*
X115117571Y-73159904D01*
X115165190Y-73255142D01*
X115165190Y-73636095D01*
X114641380Y-72207523D02*
X114641380Y-72398000D01*
X114689000Y-72493238D01*
X114736619Y-72540857D01*
X114879476Y-72636095D01*
X115069952Y-72683714D01*
X115450904Y-72683714D01*
X115546142Y-72636095D01*
X115593761Y-72588476D01*
X115641380Y-72493238D01*
X115641380Y-72302761D01*
X115593761Y-72207523D01*
X115546142Y-72159904D01*
X115450904Y-72112285D01*
X115212809Y-72112285D01*
X115117571Y-72159904D01*
X115069952Y-72207523D01*
X115022333Y-72302761D01*
X115022333Y-72493238D01*
X115069952Y-72588476D01*
X115117571Y-72636095D01*
X115212809Y-72683714D01*
X109858904Y-63912380D02*
X109858904Y-62912380D01*
X110239857Y-62912380D01*
X110335095Y-62960000D01*
X110382714Y-63007619D01*
X110430333Y-63102857D01*
X110430333Y-63245714D01*
X110382714Y-63340952D01*
X110335095Y-63388571D01*
X110239857Y-63436190D01*
X109858904Y-63436190D01*
X111335095Y-62912380D02*
X110858904Y-62912380D01*
X110811285Y-63388571D01*
X110858904Y-63340952D01*
X110954142Y-63293333D01*
X111192238Y-63293333D01*
X111287476Y-63340952D01*
X111335095Y-63388571D01*
X111382714Y-63483809D01*
X111382714Y-63721904D01*
X111335095Y-63817142D01*
X111287476Y-63864761D01*
X111192238Y-63912380D01*
X110954142Y-63912380D01*
X110858904Y-63864761D01*
X110811285Y-63817142D01*
M02*
