G04 #@! TF.FileFunction,Soldermask,Bot*
%FSLAX46Y46*%
G04 Gerber Fmt 4.6, Leading zero omitted, Abs format (unit mm)*
G04 Created by KiCad (PCBNEW 4.0.7-e2-6376~58~ubuntu16.04.1) date Tue May  8 12:05:07 2018*
%MOMM*%
%LPD*%
G01*
G04 APERTURE LIST*
%ADD10C,0.100000*%
%ADD11C,3.200000*%
%ADD12C,1.520000*%
%ADD13R,1.520000X1.520000*%
%ADD14O,2.300000X1.600000*%
%ADD15R,1.300000X1.300000*%
%ADD16C,1.300000*%
%ADD17R,3.500120X3.500120*%
%ADD18C,2.540000*%
%ADD19R,2.540000X2.540000*%
%ADD20C,1.800860*%
%ADD21C,1.800000*%
%ADD22O,1.524000X1.824000*%
%ADD23C,1.620000*%
%ADD24C,1.850000*%
%ADD25R,1.800000X1.800000*%
%ADD26O,1.800000X1.800000*%
%ADD27R,1.700000X1.700000*%
%ADD28O,1.700000X1.700000*%
%ADD29C,1.600000*%
%ADD30O,1.600000X1.600000*%
%ADD31R,1.750000X1.750000*%
%ADD32C,1.750000*%
G04 APERTURE END LIST*
D10*
D11*
X109500000Y-53500000D03*
D12*
X117540000Y-55000000D03*
X120080000Y-55000000D03*
D13*
X115000000Y-55000000D03*
D14*
X135128000Y-54102000D03*
X135128000Y-56642000D03*
X135128000Y-59182000D03*
X135128000Y-61722000D03*
X135128000Y-64262000D03*
X135128000Y-66802000D03*
X135128000Y-69342000D03*
X135128000Y-71882000D03*
X135128000Y-74422000D03*
X135128000Y-76962000D03*
X135128000Y-79502000D03*
X135128000Y-82042000D03*
X135128000Y-84582000D03*
X135128000Y-87122000D03*
X135128000Y-89662000D03*
X150368000Y-89662000D03*
X150368000Y-87122000D03*
X150368000Y-84582000D03*
X150368000Y-82042000D03*
X150368000Y-79502000D03*
X150368000Y-76962000D03*
X150368000Y-74422000D03*
X150368000Y-71882000D03*
X150368000Y-69342000D03*
X150368000Y-66802000D03*
X150368000Y-64262000D03*
X150368000Y-61722000D03*
X150368000Y-59182000D03*
X150368000Y-56642000D03*
X150368000Y-54102000D03*
D15*
X165989000Y-56388000D03*
D16*
X160989000Y-56388000D03*
D15*
X166497000Y-87249000D03*
D16*
X166497000Y-82249000D03*
D15*
X177546000Y-78232000D03*
D16*
X173746000Y-78232000D03*
D15*
X158000000Y-95500000D03*
D16*
X158000000Y-91700000D03*
D17*
X167299860Y-121000000D03*
X173299340Y-121000000D03*
X170299600Y-116301000D03*
D18*
X154561960Y-116968220D03*
D19*
X154561960Y-101728220D03*
D18*
X156588040Y-62863780D03*
D19*
X156588040Y-78103780D03*
D20*
X166497000Y-65445640D03*
X166497000Y-70444360D03*
X163000640Y-101000000D03*
X167999360Y-101000000D03*
D21*
X173282500Y-95567500D03*
X173282500Y-98967500D03*
X173282500Y-92167500D03*
X177482500Y-93867500D03*
X177482500Y-97267500D03*
X173346000Y-66167000D03*
X173346000Y-69567000D03*
X173346000Y-62767000D03*
X177546000Y-64467000D03*
X177546000Y-67867000D03*
D22*
X145288000Y-123952000D03*
X144018000Y-129032000D03*
X142748000Y-123952000D03*
X141478000Y-129032000D03*
X140208000Y-123952000D03*
X138938000Y-129032000D03*
X137668000Y-123952000D03*
X136398000Y-129032000D03*
X135128000Y-123952000D03*
X133858000Y-129032000D03*
X132588000Y-123952000D03*
X131318000Y-129032000D03*
X130048000Y-123952000D03*
X128778000Y-129032000D03*
X127508000Y-123952000D03*
D23*
X168500000Y-109000000D03*
X166500000Y-109000000D03*
X164500000Y-109000000D03*
D24*
X169230000Y-111720000D03*
D23*
X162500000Y-109000000D03*
D24*
X162230000Y-111720000D03*
X169230000Y-106280000D03*
X162230000Y-106280000D03*
D25*
X122428000Y-131318000D03*
D26*
X117348000Y-131318000D03*
D12*
X124587000Y-72771000D03*
X124587000Y-70231000D03*
D13*
X124587000Y-75311000D03*
D12*
X125476000Y-116078000D03*
X125476000Y-113538000D03*
D13*
X125476000Y-118618000D03*
D12*
X118110000Y-89154000D03*
X118110000Y-86614000D03*
D13*
X118110000Y-91694000D03*
D27*
X130048000Y-91948000D03*
D28*
X130048000Y-89408000D03*
X130048000Y-86868000D03*
X130048000Y-84328000D03*
D29*
X131826000Y-98552000D03*
D30*
X147066000Y-98552000D03*
D29*
X131826000Y-103124000D03*
D30*
X147066000Y-103124000D03*
D29*
X131826000Y-108712000D03*
D30*
X147066000Y-108712000D03*
D29*
X131826000Y-114554000D03*
D30*
X147066000Y-114554000D03*
D29*
X109220000Y-79756000D03*
D30*
X124460000Y-79756000D03*
D29*
X122936000Y-98806000D03*
D30*
X107696000Y-98806000D03*
D29*
X116332000Y-65659000D03*
D30*
X131572000Y-65659000D03*
D29*
X116332000Y-60706000D03*
D30*
X131572000Y-60706000D03*
D11*
X109500000Y-129500000D03*
D31*
X108966000Y-119634000D03*
D32*
X108966000Y-122134000D03*
D29*
X130556000Y-120142000D03*
X135556000Y-120142000D03*
X139954000Y-120142000D03*
X144954000Y-120142000D03*
D31*
X117602000Y-119634000D03*
D32*
X117602000Y-122134000D03*
D31*
X108966000Y-107442000D03*
D32*
X108966000Y-109942000D03*
X108966000Y-112442000D03*
D29*
X127508000Y-98044000D03*
X127508000Y-103044000D03*
D31*
X117602000Y-105156000D03*
D32*
X117602000Y-107656000D03*
X117602000Y-110156000D03*
X117602000Y-112656000D03*
D31*
X109093000Y-69215000D03*
D32*
X109093000Y-71715000D03*
X109093000Y-74215000D03*
D31*
X109220000Y-86868000D03*
D32*
X109220000Y-89368000D03*
X109220000Y-91868000D03*
D31*
X117729000Y-71628000D03*
D32*
X117729000Y-74128000D03*
D31*
X109347000Y-60960000D03*
D32*
X111847000Y-60960000D03*
D11*
X176500000Y-53500000D03*
X176500000Y-129500000D03*
M02*
