%TF.GenerationSoftware,KiCad,Pcbnew,5.1.10-88a1d61d58~88~ubuntu20.04.1*%
%TF.CreationDate,2021-05-12T17:41:59+01:00*%
%TF.ProjectId,flypi,666c7970-692e-46b6-9963-61645f706362,rev?*%
%TF.SameCoordinates,Original*%
%TF.FileFunction,Copper,L1,Top*%
%TF.FilePolarity,Positive*%
%FSLAX46Y46*%
G04 Gerber Fmt 4.6, Leading zero omitted, Abs format (unit mm)*
G04 Created by KiCad (PCBNEW 5.1.10-88a1d61d58~88~ubuntu20.04.1) date 2021-05-12 17:41:59*
%MOMM*%
%LPD*%
G01*
G04 APERTURE LIST*
%TA.AperFunction,ComponentPad*%
%ADD10C,1.520000*%
%TD*%
%TA.AperFunction,ComponentPad*%
%ADD11R,1.520000X1.520000*%
%TD*%
%TA.AperFunction,ComponentPad*%
%ADD12O,2.300000X1.600000*%
%TD*%
%TA.AperFunction,ComponentPad*%
%ADD13R,1.300000X1.300000*%
%TD*%
%TA.AperFunction,ComponentPad*%
%ADD14C,1.300000*%
%TD*%
%TA.AperFunction,ComponentPad*%
%ADD15R,3.500120X3.500120*%
%TD*%
%TA.AperFunction,ComponentPad*%
%ADD16C,2.540000*%
%TD*%
%TA.AperFunction,ComponentPad*%
%ADD17R,2.540000X2.540000*%
%TD*%
%TA.AperFunction,ComponentPad*%
%ADD18C,1.800860*%
%TD*%
%TA.AperFunction,ComponentPad*%
%ADD19C,1.800000*%
%TD*%
%TA.AperFunction,ComponentPad*%
%ADD20O,1.524000X1.824000*%
%TD*%
%TA.AperFunction,ComponentPad*%
%ADD21C,1.620000*%
%TD*%
%TA.AperFunction,ComponentPad*%
%ADD22C,1.850000*%
%TD*%
%TA.AperFunction,ComponentPad*%
%ADD23R,1.800000X1.800000*%
%TD*%
%TA.AperFunction,ComponentPad*%
%ADD24O,1.800000X1.800000*%
%TD*%
%TA.AperFunction,ComponentPad*%
%ADD25R,1.700000X1.700000*%
%TD*%
%TA.AperFunction,ComponentPad*%
%ADD26O,1.700000X1.700000*%
%TD*%
%TA.AperFunction,ComponentPad*%
%ADD27C,1.600000*%
%TD*%
%TA.AperFunction,ComponentPad*%
%ADD28O,1.600000X1.600000*%
%TD*%
%TA.AperFunction,ComponentPad*%
%ADD29R,1.750000X1.750000*%
%TD*%
%TA.AperFunction,ComponentPad*%
%ADD30C,1.750000*%
%TD*%
%TA.AperFunction,ComponentPad*%
%ADD31O,2.000000X1.700000*%
%TD*%
%TA.AperFunction,ComponentPad*%
%ADD32O,1.700000X2.000000*%
%TD*%
%TA.AperFunction,ViaPad*%
%ADD33C,0.600000*%
%TD*%
%TA.AperFunction,ViaPad*%
%ADD34C,0.800000*%
%TD*%
%TA.AperFunction,Conductor*%
%ADD35C,0.500000*%
%TD*%
%TA.AperFunction,Conductor*%
%ADD36C,1.000000*%
%TD*%
%TA.AperFunction,Conductor*%
%ADD37C,0.750000*%
%TD*%
G04 APERTURE END LIST*
D10*
%TO.P,Q2,2*%
%TO.N,Net-(Q2-Pad2)*%
X117540000Y-55000000D03*
%TO.P,Q2,3*%
%TO.N,Net-(C5-Pad1)*%
X120080000Y-55000000D03*
D11*
%TO.P,Q2,1*%
%TO.N,Net-(P5-Pad1)*%
X115000000Y-55000000D03*
%TD*%
D12*
%TO.P,U5,1*%
%TO.N,Net-(R3-Pad2)*%
X135128000Y-54102000D03*
%TO.P,U5,2*%
%TO.N,Net-(U5-Pad2)*%
X135128000Y-56642000D03*
%TO.P,U5,3*%
%TO.N,Net-(U5-Pad3)*%
X135128000Y-59182000D03*
%TO.P,U5,4*%
%TO.N,Net-(U5-Pad4)*%
X135128000Y-61722000D03*
%TO.P,U5,5*%
%TO.N,Net-(U5-Pad5)*%
X135128000Y-64262000D03*
%TO.P,U5,6*%
%TO.N,Net-(U5-Pad6)*%
X135128000Y-66802000D03*
%TO.P,U5,7*%
%TO.N,Net-(U5-Pad7)*%
X135128000Y-69342000D03*
%TO.P,U5,8*%
%TO.N,Net-(P9-Pad4)*%
X135128000Y-71882000D03*
%TO.P,U5,9*%
%TO.N,Net-(P9-Pad3)*%
X135128000Y-74422000D03*
%TO.P,U5,10*%
%TO.N,Net-(U5-Pad10)*%
X135128000Y-76962000D03*
%TO.P,U5,11*%
%TO.N,Net-(1k1-Pad1)*%
X135128000Y-79502000D03*
%TO.P,U5,12*%
%TO.N,Net-(C7-Pad1)*%
X135128000Y-82042000D03*
%TO.P,U5,13*%
%TO.N,Net-(U5-Pad13)*%
X135128000Y-84582000D03*
%TO.P,U5,14*%
%TO.N,GND*%
X135128000Y-87122000D03*
%TO.P,U5,15*%
%TO.N,Net-(C1-Pad1)*%
X135128000Y-89662000D03*
%TO.P,U5,16*%
%TO.N,Net-(U5-Pad16)*%
X150368000Y-89662000D03*
%TO.P,U5,17*%
%TO.N,Net-(U5-Pad17)*%
X150368000Y-87122000D03*
%TO.P,U5,18*%
%TO.N,Net-(U5-Pad18)*%
X150368000Y-84582000D03*
%TO.P,U5,19*%
%TO.N,GND*%
X150368000Y-82042000D03*
%TO.P,U5,20*%
%TO.N,Net-(U4-Pad7)*%
X150368000Y-79502000D03*
%TO.P,U5,21*%
%TO.N,Net-(U4-Pad5)*%
X150368000Y-76962000D03*
%TO.P,U5,22*%
%TO.N,Net-(R9-Pad2)*%
X150368000Y-74422000D03*
%TO.P,U5,23*%
%TO.N,Net-(R8-Pad2)*%
X150368000Y-71882000D03*
%TO.P,U5,24*%
%TO.N,Net-(R7-Pad2)*%
X150368000Y-69342000D03*
%TO.P,U5,25*%
%TO.N,Net-(P8-Pad3)*%
X150368000Y-66802000D03*
%TO.P,U5,26*%
%TO.N,Net-(P7-Pad2)*%
X150368000Y-64262000D03*
%TO.P,U5,27*%
%TO.N,Net-(R5-Pad2)*%
X150368000Y-61722000D03*
%TO.P,U5,28*%
%TO.N,Net-(R2-Pad2)*%
X150368000Y-59182000D03*
%TO.P,U5,29*%
%TO.N,Net-(R4-Pad2)*%
X150368000Y-56642000D03*
%TO.P,U5,30*%
%TO.N,Net-(U5-Pad30)*%
X150368000Y-54102000D03*
%TD*%
D13*
%TO.P,C2,1*%
%TO.N,Net-(C1-Pad1)*%
X165989000Y-56388000D03*
D14*
%TO.P,C2,2*%
%TO.N,GND*%
X160989000Y-56388000D03*
%TD*%
D13*
%TO.P,C1,1*%
%TO.N,Net-(C1-Pad1)*%
X166497000Y-87249000D03*
D14*
%TO.P,C1,2*%
%TO.N,GND*%
X166497000Y-82249000D03*
%TD*%
D13*
%TO.P,C5,1*%
%TO.N,Net-(C5-Pad1)*%
X177546000Y-78232000D03*
D14*
%TO.P,C5,2*%
%TO.N,GND*%
X173746000Y-78232000D03*
%TD*%
D13*
%TO.P,C6,1*%
%TO.N,Net-(C6-Pad1)*%
X158000000Y-95500000D03*
D14*
%TO.P,C6,2*%
%TO.N,GND*%
X158000000Y-91700000D03*
%TD*%
D15*
%TO.P,CON1,1*%
%TO.N,Net-(C1-Pad1)*%
X167299860Y-121000000D03*
%TO.P,CON1,2*%
%TO.N,GND*%
X173299340Y-121000000D03*
%TO.P,CON1,3*%
X170299600Y-116301000D03*
%TD*%
D16*
%TO.P,D1,2*%
%TO.N,GND*%
X154561960Y-116968220D03*
D17*
%TO.P,D1,1*%
%TO.N,Net-(D1-Pad1)*%
X154561960Y-101728220D03*
%TD*%
D16*
%TO.P,D3,2*%
%TO.N,GND*%
X156588040Y-62863780D03*
D17*
%TO.P,D3,1*%
%TO.N,Net-(D3-Pad1)*%
X156588040Y-78103780D03*
%TD*%
D18*
%TO.P,L1,1*%
%TO.N,Net-(D3-Pad1)*%
X166497000Y-65445640D03*
%TO.P,L1,2*%
%TO.N,Net-(C5-Pad1)*%
X166497000Y-70444360D03*
%TD*%
%TO.P,L2,1*%
%TO.N,Net-(D1-Pad1)*%
X163000640Y-101000000D03*
%TO.P,L2,2*%
%TO.N,Net-(C6-Pad1)*%
X167999360Y-101000000D03*
%TD*%
D19*
%TO.P,U1,3*%
%TO.N,GND*%
X173282500Y-95567500D03*
%TO.P,U1,5*%
X173282500Y-98967500D03*
%TO.P,U1,1*%
%TO.N,Net-(C1-Pad1)*%
X173282500Y-92167500D03*
%TO.P,U1,2*%
%TO.N,Net-(D1-Pad1)*%
X177482500Y-93867500D03*
%TO.P,U1,4*%
%TO.N,Net-(C6-Pad1)*%
X177482500Y-97267500D03*
%TD*%
%TO.P,U2,3*%
%TO.N,GND*%
X173346000Y-66167000D03*
%TO.P,U2,5*%
X173346000Y-69567000D03*
%TO.P,U2,1*%
%TO.N,Net-(C1-Pad1)*%
X173346000Y-62767000D03*
%TO.P,U2,2*%
%TO.N,Net-(D3-Pad1)*%
X177546000Y-64467000D03*
%TO.P,U2,4*%
%TO.N,Net-(C5-Pad1)*%
X177546000Y-67867000D03*
%TD*%
D20*
%TO.P,U4,1*%
%TO.N,Net-(R1-Pad1)*%
X145288000Y-123952000D03*
%TO.P,U4,2*%
%TO.N,Net-(P1-Pad2)*%
X144018000Y-129032000D03*
%TO.P,U4,3*%
%TO.N,Net-(P1-Pad1)*%
X142748000Y-123952000D03*
%TO.P,U4,4*%
%TO.N,Net-(C1-Pad1)*%
X141478000Y-129032000D03*
%TO.P,U4,5*%
%TO.N,Net-(U4-Pad5)*%
X140208000Y-123952000D03*
%TO.P,U4,6*%
%TO.N,Net-(R3-Pad2)*%
X138938000Y-129032000D03*
%TO.P,U4,7*%
%TO.N,Net-(U4-Pad7)*%
X137668000Y-123952000D03*
%TO.P,U4,8*%
%TO.N,GND*%
X136398000Y-129032000D03*
%TO.P,U4,9*%
%TO.N,Net-(C7-Pad1)*%
X135128000Y-123952000D03*
%TO.P,U4,10*%
%TO.N,Net-(U4-Pad10)*%
X133858000Y-129032000D03*
%TO.P,U4,11*%
%TO.N,Net-(U4-Pad11)*%
X132588000Y-123952000D03*
%TO.P,U4,12*%
%TO.N,Net-(U4-Pad12)*%
X131318000Y-129032000D03*
%TO.P,U4,13*%
%TO.N,Net-(U4-Pad13)*%
X130048000Y-123952000D03*
%TO.P,U4,14*%
%TO.N,Net-(U4-Pad14)*%
X128778000Y-129032000D03*
%TO.P,U4,15*%
%TO.N,Net-(U4-Pad15)*%
X127508000Y-123952000D03*
%TD*%
D21*
%TO.P,J12,1*%
%TO.N,Net-(C6-Pad1)*%
X168500000Y-109000000D03*
%TO.P,J12,2*%
%TO.N,Net-(J12-Pad2)*%
X166500000Y-109000000D03*
%TO.P,J12,3*%
%TO.N,Net-(J12-Pad3)*%
X164500000Y-109000000D03*
D22*
%TO.P,J12,5*%
%TO.N,GND*%
X169230000Y-111720000D03*
D21*
%TO.P,J12,4*%
X162500000Y-109000000D03*
D22*
%TO.P,J12,5*%
X162230000Y-111720000D03*
X169230000Y-106280000D03*
X162230000Y-106280000D03*
%TD*%
D23*
%TO.P,R1,1*%
%TO.N,Net-(R1-Pad1)*%
X122428000Y-131318000D03*
D24*
%TO.P,R1,2*%
%TO.N,GND*%
X117348000Y-131318000D03*
%TD*%
D10*
%TO.P,Q3,2*%
%TO.N,Net-(Q3-Pad2)*%
X124587000Y-72771000D03*
%TO.P,Q3,3*%
%TO.N,Net-(C5-Pad1)*%
X124587000Y-70231000D03*
D11*
%TO.P,Q3,1*%
%TO.N,Net-(P6-Pad1)*%
X124587000Y-75311000D03*
%TD*%
D10*
%TO.P,Q1,2*%
%TO.N,Net-(Q1-Pad2)*%
X125476000Y-116078000D03*
%TO.P,Q1,3*%
%TO.N,Net-(C1-Pad1)*%
X125476000Y-113538000D03*
D11*
%TO.P,Q1,1*%
%TO.N,Net-(P3-Pad1)*%
X125476000Y-118618000D03*
%TD*%
D10*
%TO.P,Q4,2*%
%TO.N,Net-(Q4-Pad2)*%
X118110000Y-89154000D03*
%TO.P,Q4,3*%
%TO.N,Net-(C5-Pad1)*%
X118110000Y-86614000D03*
D11*
%TO.P,Q4,1*%
%TO.N,Net-(P7-Pad1)*%
X118110000Y-91694000D03*
%TD*%
D25*
%TO.P,P9,1*%
%TO.N,Net-(C5-Pad1)*%
X130048000Y-91948000D03*
D26*
%TO.P,P9,2*%
%TO.N,GND*%
X130048000Y-89408000D03*
%TO.P,P9,3*%
%TO.N,Net-(P9-Pad3)*%
X130048000Y-86868000D03*
%TO.P,P9,4*%
%TO.N,Net-(P9-Pad4)*%
X130048000Y-84328000D03*
%TD*%
D27*
%TO.P,R7,1*%
%TO.N,Net-(P10-Pad1)*%
X131826000Y-98552000D03*
D28*
%TO.P,R7,2*%
%TO.N,Net-(R7-Pad2)*%
X147066000Y-98552000D03*
%TD*%
D27*
%TO.P,R8,1*%
%TO.N,Net-(P10-Pad3)*%
X131826000Y-103124000D03*
D28*
%TO.P,R8,2*%
%TO.N,Net-(R8-Pad2)*%
X147066000Y-103124000D03*
%TD*%
D27*
%TO.P,R9,1*%
%TO.N,Net-(P10-Pad4)*%
X131826000Y-108712000D03*
D28*
%TO.P,R9,2*%
%TO.N,Net-(R9-Pad2)*%
X147066000Y-108712000D03*
%TD*%
D27*
%TO.P,R3,1*%
%TO.N,Net-(Q1-Pad2)*%
X131826000Y-114554000D03*
D28*
%TO.P,R3,2*%
%TO.N,Net-(R3-Pad2)*%
X147066000Y-114554000D03*
%TD*%
D27*
%TO.P,R5,1*%
%TO.N,Net-(Q4-Pad2)*%
X109220000Y-79756000D03*
D28*
%TO.P,R5,2*%
%TO.N,Net-(R5-Pad2)*%
X124460000Y-79756000D03*
%TD*%
D27*
%TO.P,1k1,1*%
%TO.N,Net-(1k1-Pad1)*%
X122936000Y-98806000D03*
D28*
%TO.P,1k1,2*%
%TO.N,Net-(1k1-Pad2)*%
X107696000Y-98806000D03*
%TD*%
D27*
%TO.P,R4,1*%
%TO.N,Net-(Q3-Pad2)*%
X116332000Y-65659000D03*
D28*
%TO.P,R4,2*%
%TO.N,Net-(R4-Pad2)*%
X131572000Y-65659000D03*
%TD*%
D27*
%TO.P,R2,1*%
%TO.N,Net-(Q2-Pad2)*%
X116332000Y-60706000D03*
D28*
%TO.P,R2,2*%
%TO.N,Net-(R2-Pad2)*%
X131572000Y-60706000D03*
%TD*%
D27*
%TO.P,C7,1*%
%TO.N,Net-(C7-Pad1)*%
X130556000Y-120142000D03*
%TO.P,C7,2*%
%TO.N,GND*%
X135556000Y-120142000D03*
%TD*%
%TO.P,C10,1*%
%TO.N,GND*%
X139954000Y-120142000D03*
%TO.P,C10,2*%
%TO.N,Net-(C1-Pad1)*%
X144954000Y-120142000D03*
%TD*%
D29*
%TO.P,P4,1*%
%TO.N,Net-(C7-Pad1)*%
X108966000Y-107442000D03*
D30*
%TO.P,P4,2*%
%TO.N,Net-(1k1-Pad2)*%
X108966000Y-109942000D03*
%TO.P,P4,3*%
%TO.N,GND*%
X108966000Y-112442000D03*
%TD*%
D27*
%TO.P,C8,1*%
%TO.N,GND*%
X127508000Y-98044000D03*
%TO.P,C8,2*%
%TO.N,Net-(1k1-Pad1)*%
X127508000Y-103044000D03*
%TD*%
D29*
%TO.P,P10,1*%
%TO.N,Net-(P10-Pad1)*%
X117602000Y-105156000D03*
D30*
%TO.P,P10,2*%
%TO.N,GND*%
X117602000Y-107656000D03*
%TO.P,P10,3*%
%TO.N,Net-(P10-Pad3)*%
X117602000Y-110156000D03*
%TO.P,P10,4*%
%TO.N,Net-(P10-Pad4)*%
X117602000Y-112656000D03*
%TD*%
D29*
%TO.P,P8,1*%
%TO.N,Net-(C5-Pad1)*%
X109093000Y-69215000D03*
D30*
%TO.P,P8,2*%
%TO.N,GND*%
X109093000Y-71715000D03*
%TO.P,P8,3*%
%TO.N,Net-(P8-Pad3)*%
X109093000Y-74215000D03*
%TD*%
D29*
%TO.P,P7,1*%
%TO.N,Net-(P7-Pad1)*%
X109220000Y-86868000D03*
D30*
%TO.P,P7,2*%
%TO.N,Net-(P7-Pad2)*%
X109220000Y-89368000D03*
%TO.P,P7,3*%
%TO.N,GND*%
X109220000Y-91868000D03*
%TD*%
%TO.P,P1,1*%
%TO.N,Net-(P1-Pad1)*%
%TA.AperFunction,ComponentPad*%
G36*
G01*
X116852000Y-118784000D02*
X118352000Y-118784000D01*
G75*
G02*
X118602000Y-119034000I0J-250000D01*
G01*
X118602000Y-120234000D01*
G75*
G02*
X118352000Y-120484000I-250000J0D01*
G01*
X116852000Y-120484000D01*
G75*
G02*
X116602000Y-120234000I0J250000D01*
G01*
X116602000Y-119034000D01*
G75*
G02*
X116852000Y-118784000I250000J0D01*
G01*
G37*
%TD.AperFunction*%
D31*
%TO.P,P1,2*%
%TO.N,Net-(P1-Pad2)*%
X117602000Y-122134000D03*
%TD*%
%TO.P,P3,2*%
%TO.N,GND*%
X108966000Y-122134000D03*
%TO.P,P3,1*%
%TO.N,Net-(P3-Pad1)*%
%TA.AperFunction,ComponentPad*%
G36*
G01*
X108216000Y-118784000D02*
X109716000Y-118784000D01*
G75*
G02*
X109966000Y-119034000I0J-250000D01*
G01*
X109966000Y-120234000D01*
G75*
G02*
X109716000Y-120484000I-250000J0D01*
G01*
X108216000Y-120484000D01*
G75*
G02*
X107966000Y-120234000I0J250000D01*
G01*
X107966000Y-119034000D01*
G75*
G02*
X108216000Y-118784000I250000J0D01*
G01*
G37*
%TD.AperFunction*%
%TD*%
D32*
%TO.P,P5,2*%
%TO.N,GND*%
X111847000Y-60960000D03*
%TO.P,P5,1*%
%TO.N,Net-(P5-Pad1)*%
%TA.AperFunction,ComponentPad*%
G36*
G01*
X108497000Y-61710000D02*
X108497000Y-60210000D01*
G75*
G02*
X108747000Y-59960000I250000J0D01*
G01*
X109947000Y-59960000D01*
G75*
G02*
X110197000Y-60210000I0J-250000D01*
G01*
X110197000Y-61710000D01*
G75*
G02*
X109947000Y-61960000I-250000J0D01*
G01*
X108747000Y-61960000D01*
G75*
G02*
X108497000Y-61710000I0J250000D01*
G01*
G37*
%TD.AperFunction*%
%TD*%
%TO.P,P6,1*%
%TO.N,Net-(P6-Pad1)*%
%TA.AperFunction,ComponentPad*%
G36*
G01*
X116979000Y-70778000D02*
X118479000Y-70778000D01*
G75*
G02*
X118729000Y-71028000I0J-250000D01*
G01*
X118729000Y-72228000D01*
G75*
G02*
X118479000Y-72478000I-250000J0D01*
G01*
X116979000Y-72478000D01*
G75*
G02*
X116729000Y-72228000I0J250000D01*
G01*
X116729000Y-71028000D01*
G75*
G02*
X116979000Y-70778000I250000J0D01*
G01*
G37*
%TD.AperFunction*%
D31*
%TO.P,P6,2*%
%TO.N,GND*%
X117729000Y-74128000D03*
%TD*%
D33*
%TO.N,Net-(C7-Pad1)*%
X122936000Y-104140000D03*
X123190000Y-92710000D03*
D34*
%TO.N,Net-(D3-Pad1)*%
X160020000Y-65786000D03*
%TO.N,Net-(P1-Pad2)*%
X140208000Y-126492000D03*
D33*
%TO.N,Net-(P7-Pad2)*%
X123634500Y-60325000D03*
%TO.N,Net-(P8-Pad3)*%
X123634500Y-61722000D03*
%TO.N,Net-(R2-Pad2)*%
X123952000Y-57277000D03*
%TO.N,Net-(R3-Pad2)*%
X151066500Y-123634500D03*
%TO.N,Net-(R4-Pad2)*%
X129349500Y-59372500D03*
%TO.N,Net-(R5-Pad2)*%
X123825000Y-58674000D03*
%TO.N,Net-(U4-Pad5)*%
X145034000Y-113284000D03*
%TO.N,Net-(U4-Pad7)*%
X138938000Y-108458000D03*
X138684000Y-80772000D03*
%TD*%
D35*
%TO.N,Net-(1k1-Pad1)*%
X127508000Y-103044000D02*
X127508000Y-102870000D01*
X127508000Y-102870000D02*
X130302000Y-100076000D01*
X133096000Y-81534000D02*
X135128000Y-79502000D01*
X133096000Y-94742000D02*
X133096000Y-81534000D01*
X130302000Y-97536000D02*
X133096000Y-94742000D01*
X130302000Y-100076000D02*
X130302000Y-97536000D01*
X127508000Y-103044000D02*
X126158000Y-103044000D01*
X122936000Y-99822000D02*
X122936000Y-98806000D01*
X126158000Y-103044000D02*
X122936000Y-99822000D01*
%TO.N,Net-(1k1-Pad2)*%
X108966000Y-109942000D02*
X107910000Y-109942000D01*
X106934000Y-99568000D02*
X107696000Y-98806000D01*
X106934000Y-108966000D02*
X106934000Y-99568000D01*
X107910000Y-109942000D02*
X106934000Y-108966000D01*
D36*
%TO.N,Net-(C1-Pad1)*%
X135319000Y-110681000D02*
X133819000Y-110681000D01*
X127962000Y-113538000D02*
X125476000Y-113538000D01*
X129000000Y-112500000D02*
X127962000Y-113538000D01*
X132000000Y-112500000D02*
X129000000Y-112500000D01*
X133819000Y-110681000D02*
X132000000Y-112500000D01*
X166624000Y-88201500D02*
X166624000Y-87376000D01*
X166624000Y-87376000D02*
X166497000Y-87249000D01*
X166624000Y-93916500D02*
X166624000Y-93853000D01*
X162179000Y-60198000D02*
X165989000Y-56388000D01*
X162179000Y-89408000D02*
X162179000Y-60198000D01*
X166624000Y-93853000D02*
X162179000Y-89408000D01*
X164909500Y-121412000D02*
X159829500Y-116332000D01*
X159829500Y-116332000D02*
X159829500Y-100711000D01*
X159829500Y-100711000D02*
X166624000Y-93916500D01*
X166624000Y-93916500D02*
X166624000Y-88201500D01*
X167281860Y-121412000D02*
X164909500Y-121412000D01*
X167281860Y-121412000D02*
X148844000Y-121412000D01*
X148844000Y-121412000D02*
X147574000Y-122682000D01*
X145034000Y-120142000D02*
X147574000Y-122682000D01*
X147574000Y-122682000D02*
X147574000Y-125222000D01*
X147574000Y-125222000D02*
X146304000Y-126492000D01*
X146304000Y-126492000D02*
X143002000Y-126492000D01*
X143002000Y-126492000D02*
X141478000Y-128016000D01*
X141478000Y-128016000D02*
X141478000Y-129032000D01*
X142240000Y-117602000D02*
X141605000Y-116967000D01*
X141605000Y-116967000D02*
X140081000Y-115443000D01*
X140081000Y-115443000D02*
X135319000Y-110681000D01*
X135319000Y-110681000D02*
X135255000Y-110617000D01*
X135255000Y-110617000D02*
X135255000Y-89789000D01*
X135255000Y-89789000D02*
X135128000Y-89662000D01*
X134874000Y-89916000D02*
X135128000Y-89662000D01*
X144954000Y-120142000D02*
X144780000Y-120142000D01*
X144780000Y-120142000D02*
X142240000Y-117602000D01*
X144954000Y-120142000D02*
X145034000Y-120142000D01*
%TO.N,Net-(C5-Pad1)*%
X121000000Y-62000000D02*
X118500000Y-62000000D01*
X115500000Y-63000000D02*
X109285000Y-69215000D01*
X117500000Y-63000000D02*
X115500000Y-63000000D01*
X118500000Y-62000000D02*
X117500000Y-63000000D01*
X109285000Y-69215000D02*
X109093000Y-69215000D01*
X127500000Y-91500000D02*
X123500000Y-87500000D01*
X122500000Y-86500000D02*
X118224000Y-86500000D01*
X123500000Y-87500000D02*
X122500000Y-86500000D01*
X118224000Y-86500000D02*
X118110000Y-86614000D01*
X127500000Y-71500000D02*
X125856000Y-71500000D01*
X125856000Y-71500000D02*
X124587000Y-70231000D01*
X130048000Y-91948000D02*
X127948000Y-91948000D01*
X121000000Y-55920000D02*
X120080000Y-55000000D01*
X121000000Y-62000000D02*
X121000000Y-55920000D01*
X127500000Y-68500000D02*
X121000000Y-62000000D01*
X127500000Y-91500000D02*
X127500000Y-71500000D01*
X127500000Y-71500000D02*
X127500000Y-68500000D01*
X127948000Y-91948000D02*
X127500000Y-91500000D01*
X177546000Y-78232000D02*
X177546000Y-78168500D01*
X177546000Y-78168500D02*
X169821860Y-70444360D01*
X169821860Y-70444360D02*
X166497000Y-70444360D01*
X177546000Y-78232000D02*
X177546000Y-67867000D01*
D37*
X178054000Y-68580000D02*
X177800000Y-68580000D01*
D35*
X124587000Y-70231000D02*
X124333000Y-70231000D01*
D36*
%TO.N,Net-(C6-Pad1)*%
X172000000Y-103500000D02*
X172500000Y-103500000D01*
X177482500Y-98517500D02*
X177482500Y-97267500D01*
X172500000Y-103500000D02*
X177482500Y-98517500D01*
X167999360Y-101000000D02*
X169500000Y-101000000D01*
X170000000Y-109000000D02*
X168500000Y-109000000D01*
X172000000Y-107000000D02*
X170000000Y-109000000D01*
X172000000Y-103500000D02*
X172000000Y-107000000D01*
X169500000Y-101000000D02*
X172000000Y-103500000D01*
D35*
%TO.N,Net-(C7-Pad1)*%
X118110000Y-99060000D02*
X122936000Y-103886000D01*
X122936000Y-103886000D02*
X122936000Y-104140000D01*
X116840000Y-99060000D02*
X118110000Y-99060000D01*
X123190000Y-92710000D02*
X116840000Y-99060000D01*
X116840000Y-99060000D02*
X108966000Y-106934000D01*
X108966000Y-106934000D02*
X108966000Y-107442000D01*
D36*
%TO.N,Net-(D1-Pad1)*%
X163000640Y-101000000D02*
X164000000Y-101000000D01*
X177482500Y-90482500D02*
X177482500Y-93867500D01*
X176500000Y-89500000D02*
X177482500Y-90482500D01*
X171500000Y-89500000D02*
X176500000Y-89500000D01*
X169500000Y-91500000D02*
X171500000Y-89500000D01*
X169500000Y-95500000D02*
X169500000Y-91500000D01*
X164000000Y-101000000D02*
X169500000Y-95500000D01*
X177482500Y-93218000D02*
X177482500Y-93867500D01*
%TO.N,Net-(D3-Pad1)*%
X156588040Y-69217960D02*
X156588040Y-78103780D01*
X160020000Y-65786000D02*
X156588040Y-69217960D01*
X166497000Y-65445640D02*
X166519860Y-65445640D01*
X166519860Y-65445640D02*
X171894500Y-60071000D01*
X177546000Y-62865000D02*
X177546000Y-64467000D01*
X174752000Y-60071000D02*
X177546000Y-62865000D01*
X171894500Y-60071000D02*
X174752000Y-60071000D01*
%TO.N,Net-(P1-Pad2)*%
X140208000Y-126492000D02*
X139954000Y-126746000D01*
X139954000Y-126746000D02*
X127762000Y-126746000D01*
X127762000Y-126746000D02*
X123150000Y-122134000D01*
X123150000Y-122134000D02*
X117602000Y-122134000D01*
%TO.N,Net-(P1-Pad1)*%
X142748000Y-123952000D02*
X142748000Y-122682000D01*
X127254000Y-120396000D02*
X118364000Y-120396000D01*
X129032000Y-122174000D02*
X127254000Y-120396000D01*
X142240000Y-122174000D02*
X129032000Y-122174000D01*
X142748000Y-122682000D02*
X142240000Y-122174000D01*
X118364000Y-120396000D02*
X117602000Y-119634000D01*
D37*
%TO.N,Net-(P3-Pad1)*%
X125476000Y-118618000D02*
X122936000Y-118618000D01*
X111252000Y-117348000D02*
X108966000Y-119634000D01*
X121666000Y-117348000D02*
X111252000Y-117348000D01*
X122936000Y-118618000D02*
X121666000Y-117348000D01*
%TO.N,Net-(P5-Pad1)*%
X109347000Y-60960000D02*
X109347000Y-60153000D01*
X109347000Y-60153000D02*
X114500000Y-55000000D01*
X114500000Y-55000000D02*
X115000000Y-55000000D01*
%TO.N,Net-(P6-Pad1)*%
X124587000Y-75311000D02*
X121412000Y-75311000D01*
X121412000Y-75311000D02*
X117729000Y-71628000D01*
X124587000Y-75311000D02*
X123888500Y-75311000D01*
D35*
%TO.N,Net-(P7-Pad2)*%
X150368000Y-64262000D02*
X142684500Y-64262000D01*
X132397500Y-51562000D02*
X123634500Y-60325000D01*
X136842500Y-51562000D02*
X132397500Y-51562000D01*
X141466002Y-56185502D02*
X136842500Y-51562000D01*
X141466002Y-63043502D02*
X141466002Y-56185502D01*
X142684500Y-64262000D02*
X141466002Y-63043502D01*
%TO.N,Net-(P7-Pad1)*%
X118110000Y-91694000D02*
X114046000Y-91694000D01*
X114046000Y-91694000D02*
X109220000Y-86868000D01*
%TO.N,Net-(P8-Pad3)*%
X150368000Y-66802000D02*
X142811500Y-66802000D01*
X133032500Y-52324000D02*
X123634500Y-61722000D01*
X136461500Y-52324000D02*
X133032500Y-52324000D01*
X140716000Y-56578500D02*
X136461500Y-52324000D01*
X140716000Y-64706500D02*
X140716000Y-56578500D01*
X142811500Y-66802000D02*
X140716000Y-64706500D01*
X151384000Y-66802000D02*
X150368000Y-66802000D01*
%TO.N,Net-(P9-Pad3)*%
X135128000Y-74422000D02*
X134366000Y-74422000D01*
X134366000Y-74422000D02*
X132080000Y-76708000D01*
X132080000Y-76708000D02*
X132080000Y-84836000D01*
X132080000Y-84836000D02*
X130048000Y-86868000D01*
%TO.N,Net-(P9-Pad4)*%
X130048000Y-84328000D02*
X130048000Y-76454000D01*
X131318000Y-75692000D02*
X135128000Y-71882000D01*
X130810000Y-75692000D02*
X131318000Y-75692000D01*
X130048000Y-76454000D02*
X130810000Y-75692000D01*
%TO.N,Net-(P10-Pad3)*%
X131826000Y-103124000D02*
X131826000Y-106172000D01*
X127842000Y-110156000D02*
X117602000Y-110156000D01*
X131826000Y-106172000D02*
X127842000Y-110156000D01*
%TO.N,Net-(P10-Pad4)*%
X131826000Y-108712000D02*
X131318000Y-108712000D01*
X131318000Y-108712000D02*
X128524000Y-111506000D01*
X128524000Y-111506000D02*
X118752000Y-111506000D01*
X118752000Y-111506000D02*
X117602000Y-112656000D01*
%TO.N,Net-(P10-Pad1)*%
X131826000Y-98552000D02*
X131826000Y-100330000D01*
X128524000Y-105156000D02*
X117602000Y-105156000D01*
X130302000Y-103378000D02*
X128524000Y-105156000D01*
X130302000Y-101854000D02*
X130302000Y-103378000D01*
X131826000Y-100330000D02*
X130302000Y-101854000D01*
%TO.N,Net-(R2-Pad2)*%
X150368000Y-59182000D02*
X147383500Y-59182000D01*
X131508500Y-49720500D02*
X123952000Y-57277000D01*
X137922000Y-49720500D02*
X131508500Y-49720500D01*
X147383500Y-59182000D02*
X137922000Y-49720500D01*
%TO.N,Net-(R3-Pad2)*%
X138938000Y-130048000D02*
X138938000Y-129032000D01*
X140208000Y-131318000D02*
X138938000Y-130048000D01*
X145415000Y-131318000D02*
X140208000Y-131318000D01*
X151320500Y-125412500D02*
X145415000Y-131318000D01*
X151320500Y-123888500D02*
X151320500Y-125412500D01*
X151066500Y-123634500D02*
X151320500Y-123888500D01*
X147066000Y-114554000D02*
X144526000Y-114554000D01*
X139954000Y-58928000D02*
X135128000Y-54102000D01*
X139954000Y-109982000D02*
X139954000Y-58928000D01*
X144526000Y-114554000D02*
X139954000Y-109982000D01*
%TO.N,Net-(R4-Pad2)*%
X129349500Y-59372500D02*
X129413000Y-59436000D01*
X129413000Y-59436000D02*
X129413000Y-63500000D01*
X129413000Y-63500000D02*
X131572000Y-65659000D01*
%TO.N,Net-(R5-Pad2)*%
X150368000Y-61722000D02*
X143002000Y-61722000D01*
X131826000Y-50673000D02*
X123825000Y-58674000D01*
X137477500Y-50673000D02*
X131826000Y-50673000D01*
X142557500Y-55753000D02*
X137477500Y-50673000D01*
X142557500Y-61277500D02*
X142557500Y-55753000D01*
X143002000Y-61722000D02*
X142557500Y-61277500D01*
%TO.N,Net-(R7-Pad2)*%
X150368000Y-69342000D02*
X148082000Y-69342000D01*
X143510000Y-94996000D02*
X147066000Y-98552000D01*
X143510000Y-73914000D02*
X143510000Y-94996000D01*
X148082000Y-69342000D02*
X143510000Y-73914000D01*
%TO.N,Net-(R8-Pad2)*%
X150368000Y-71882000D02*
X147828000Y-71882000D01*
X148844000Y-101346000D02*
X147066000Y-103124000D01*
X148844000Y-98044000D02*
X148844000Y-101346000D01*
X144526000Y-93726000D02*
X148844000Y-98044000D01*
X144526000Y-75184000D02*
X144526000Y-93726000D01*
X147828000Y-71882000D02*
X144526000Y-75184000D01*
%TO.N,Net-(R9-Pad2)*%
X150368000Y-74422000D02*
X146812000Y-74422000D01*
X147066000Y-105664000D02*
X147066000Y-108712000D01*
X149860000Y-102870000D02*
X147066000Y-105664000D01*
X149860000Y-97790000D02*
X149860000Y-102870000D01*
X145288000Y-93218000D02*
X149860000Y-97790000D01*
X145288000Y-75946000D02*
X145288000Y-93218000D01*
X146812000Y-74422000D02*
X145288000Y-75946000D01*
%TO.N,Net-(U4-Pad5)*%
X150368000Y-76962000D02*
X147054002Y-76962000D01*
X148590000Y-109728000D02*
X145034000Y-113284000D01*
X148590000Y-107188000D02*
X148590000Y-109728000D01*
X150622000Y-105156000D02*
X148590000Y-107188000D01*
X150622000Y-97028000D02*
X150622000Y-105156000D01*
X146304000Y-92710000D02*
X150622000Y-97028000D01*
X146304000Y-77712002D02*
X146304000Y-92710000D01*
X147054002Y-76962000D02*
X146304000Y-77712002D01*
%TO.N,Net-(U4-Pad7)*%
X138938000Y-81026000D02*
X138938000Y-108458000D01*
X138684000Y-80772000D02*
X138938000Y-81026000D01*
%TO.N,Net-(Q1-Pad2)*%
X131826000Y-114554000D02*
X129946000Y-114554000D01*
X128422000Y-116078000D02*
X125476000Y-116078000D01*
X129946000Y-114554000D02*
X128422000Y-116078000D01*
%TO.N,Net-(Q2-Pad2)*%
X116332000Y-60706000D02*
X116332000Y-58668000D01*
X117540000Y-57460000D02*
X117540000Y-55000000D01*
X116332000Y-58668000D02*
X117540000Y-57460000D01*
D36*
X117540000Y-55000000D02*
X117540000Y-55460000D01*
D35*
%TO.N,Net-(Q3-Pad2)*%
X124587000Y-72771000D02*
X123771000Y-72771000D01*
X123771000Y-72771000D02*
X116659000Y-65659000D01*
X116659000Y-65659000D02*
X116332000Y-65659000D01*
%TO.N,Net-(Q4-Pad2)*%
X118110000Y-89154000D02*
X117654000Y-89154000D01*
X117654000Y-89154000D02*
X109220000Y-80720000D01*
X109220000Y-80720000D02*
X109220000Y-79756000D01*
%TD*%
M02*
