G04 #@! TF.FileFunction,Legend,Bot*
%FSLAX46Y46*%
G04 Gerber Fmt 4.6, Leading zero omitted, Abs format (unit mm)*
G04 Created by KiCad (PCBNEW 4.0.7-e2-6376~58~ubuntu16.04.1) date Tue May  8 12:05:07 2018*
%MOMM*%
%LPD*%
G01*
G04 APERTURE LIST*
%ADD10C,0.100000*%
%ADD11C,0.300000*%
G04 APERTURE END LIST*
D10*
D11*
X142596429Y-95821429D02*
X141596429Y-95535715D01*
X142310714Y-95250001D01*
X141596429Y-94964286D01*
X142596429Y-94678572D01*
X142596429Y-94250000D02*
X141596429Y-93964286D01*
X142310714Y-93678572D01*
X141596429Y-93392857D01*
X142596429Y-93107143D01*
X142596429Y-92678571D02*
X141596429Y-92392857D01*
X142310714Y-92107143D01*
X141596429Y-91821428D01*
X142596429Y-91535714D01*
X141739286Y-90964285D02*
X141667857Y-90892857D01*
X141596429Y-90964285D01*
X141667857Y-91035714D01*
X141739286Y-90964285D01*
X141596429Y-90964285D01*
X142596429Y-90249999D02*
X141096429Y-90249999D01*
X142525000Y-90249999D02*
X142596429Y-90107142D01*
X142596429Y-89821428D01*
X142525000Y-89678571D01*
X142453571Y-89607142D01*
X142310714Y-89535713D01*
X141882143Y-89535713D01*
X141739286Y-89607142D01*
X141667857Y-89678571D01*
X141596429Y-89821428D01*
X141596429Y-90107142D01*
X141667857Y-90249999D01*
X141596429Y-88892856D02*
X142596429Y-88892856D01*
X142310714Y-88892856D02*
X142453571Y-88821428D01*
X142525000Y-88749999D01*
X142596429Y-88607142D01*
X142596429Y-88464285D01*
X141596429Y-87749999D02*
X141667857Y-87892857D01*
X141739286Y-87964285D01*
X141882143Y-88035714D01*
X142310714Y-88035714D01*
X142453571Y-87964285D01*
X142525000Y-87892857D01*
X142596429Y-87749999D01*
X142596429Y-87535714D01*
X142525000Y-87392857D01*
X142453571Y-87321428D01*
X142310714Y-87249999D01*
X141882143Y-87249999D01*
X141739286Y-87321428D01*
X141667857Y-87392857D01*
X141596429Y-87535714D01*
X141596429Y-87749999D01*
X141596429Y-86607142D02*
X142596429Y-86607142D01*
X142453571Y-86607142D02*
X142525000Y-86535714D01*
X142596429Y-86392856D01*
X142596429Y-86178571D01*
X142525000Y-86035714D01*
X142382143Y-85964285D01*
X141596429Y-85964285D01*
X142382143Y-85964285D02*
X142525000Y-85892856D01*
X142596429Y-85749999D01*
X142596429Y-85535714D01*
X142525000Y-85392856D01*
X142382143Y-85321428D01*
X141596429Y-85321428D01*
X141667857Y-84035714D02*
X141596429Y-84178571D01*
X141596429Y-84464285D01*
X141667857Y-84607142D01*
X141810714Y-84678571D01*
X142382143Y-84678571D01*
X142525000Y-84607142D01*
X142596429Y-84464285D01*
X142596429Y-84178571D01*
X142525000Y-84035714D01*
X142382143Y-83964285D01*
X142239286Y-83964285D01*
X142096429Y-84678571D01*
X142596429Y-83535714D02*
X142596429Y-82964285D01*
X143096429Y-83321428D02*
X141810714Y-83321428D01*
X141667857Y-83250000D01*
X141596429Y-83107142D01*
X141596429Y-82964285D01*
X141596429Y-82464285D02*
X143096429Y-82464285D01*
X141596429Y-81821428D02*
X142382143Y-81821428D01*
X142525000Y-81892857D01*
X142596429Y-82035714D01*
X142596429Y-82249999D01*
X142525000Y-82392857D01*
X142453571Y-82464285D01*
X141667857Y-80535714D02*
X141596429Y-80678571D01*
X141596429Y-80964285D01*
X141667857Y-81107142D01*
X141810714Y-81178571D01*
X142382143Y-81178571D01*
X142525000Y-81107142D01*
X142596429Y-80964285D01*
X142596429Y-80678571D01*
X142525000Y-80535714D01*
X142382143Y-80464285D01*
X142239286Y-80464285D01*
X142096429Y-81178571D01*
X142596429Y-79178571D02*
X141596429Y-79178571D01*
X142596429Y-79821428D02*
X141810714Y-79821428D01*
X141667857Y-79750000D01*
X141596429Y-79607142D01*
X141596429Y-79392857D01*
X141667857Y-79250000D01*
X141739286Y-79178571D01*
X141667857Y-78535714D02*
X141596429Y-78392857D01*
X141596429Y-78107142D01*
X141667857Y-77964285D01*
X141810714Y-77892857D01*
X141882143Y-77892857D01*
X142025000Y-77964285D01*
X142096429Y-78107142D01*
X142096429Y-78321428D01*
X142167857Y-78464285D01*
X142310714Y-78535714D01*
X142382143Y-78535714D01*
X142525000Y-78464285D01*
X142596429Y-78321428D01*
X142596429Y-78107142D01*
X142525000Y-77964285D01*
X142167857Y-77249999D02*
X142167857Y-76107142D01*
X141667857Y-75464285D02*
X141596429Y-75321428D01*
X141596429Y-75035713D01*
X141667857Y-74892856D01*
X141810714Y-74821428D01*
X141882143Y-74821428D01*
X142025000Y-74892856D01*
X142096429Y-75035713D01*
X142096429Y-75249999D01*
X142167857Y-75392856D01*
X142310714Y-75464285D01*
X142382143Y-75464285D01*
X142525000Y-75392856D01*
X142596429Y-75249999D01*
X142596429Y-75035713D01*
X142525000Y-74892856D01*
X141667857Y-73535713D02*
X141596429Y-73678570D01*
X141596429Y-73964284D01*
X141667857Y-74107142D01*
X141739286Y-74178570D01*
X141882143Y-74249999D01*
X142310714Y-74249999D01*
X142453571Y-74178570D01*
X142525000Y-74107142D01*
X142596429Y-73964284D01*
X142596429Y-73678570D01*
X142525000Y-73535713D01*
X141596429Y-72892856D02*
X142596429Y-72892856D01*
X143096429Y-72892856D02*
X143025000Y-72964285D01*
X142953571Y-72892856D01*
X143025000Y-72821428D01*
X143096429Y-72892856D01*
X142953571Y-72892856D01*
X141667857Y-71607142D02*
X141596429Y-71749999D01*
X141596429Y-72035713D01*
X141667857Y-72178570D01*
X141810714Y-72249999D01*
X142382143Y-72249999D01*
X142525000Y-72178570D01*
X142596429Y-72035713D01*
X142596429Y-71749999D01*
X142525000Y-71607142D01*
X142382143Y-71535713D01*
X142239286Y-71535713D01*
X142096429Y-72249999D01*
X142596429Y-70892856D02*
X141596429Y-70892856D01*
X142453571Y-70892856D02*
X142525000Y-70821428D01*
X142596429Y-70678570D01*
X142596429Y-70464285D01*
X142525000Y-70321428D01*
X142382143Y-70249999D01*
X141596429Y-70249999D01*
X141667857Y-68892856D02*
X141596429Y-69035713D01*
X141596429Y-69321427D01*
X141667857Y-69464285D01*
X141739286Y-69535713D01*
X141882143Y-69607142D01*
X142310714Y-69607142D01*
X142453571Y-69535713D01*
X142525000Y-69464285D01*
X142596429Y-69321427D01*
X142596429Y-69035713D01*
X142525000Y-68892856D01*
X141667857Y-67678571D02*
X141596429Y-67821428D01*
X141596429Y-68107142D01*
X141667857Y-68249999D01*
X141810714Y-68321428D01*
X142382143Y-68321428D01*
X142525000Y-68249999D01*
X142596429Y-68107142D01*
X142596429Y-67821428D01*
X142525000Y-67678571D01*
X142382143Y-67607142D01*
X142239286Y-67607142D01*
X142096429Y-68321428D01*
X141739286Y-66964285D02*
X141667857Y-66892857D01*
X141596429Y-66964285D01*
X141667857Y-67035714D01*
X141739286Y-66964285D01*
X141596429Y-66964285D01*
X141667857Y-65607142D02*
X141596429Y-65749999D01*
X141596429Y-66035713D01*
X141667857Y-66178571D01*
X141739286Y-66249999D01*
X141882143Y-66321428D01*
X142310714Y-66321428D01*
X142453571Y-66249999D01*
X142525000Y-66178571D01*
X142596429Y-66035713D01*
X142596429Y-65749999D01*
X142525000Y-65607142D01*
X141596429Y-64749999D02*
X141667857Y-64892857D01*
X141739286Y-64964285D01*
X141882143Y-65035714D01*
X142310714Y-65035714D01*
X142453571Y-64964285D01*
X142525000Y-64892857D01*
X142596429Y-64749999D01*
X142596429Y-64535714D01*
X142525000Y-64392857D01*
X142453571Y-64321428D01*
X142310714Y-64249999D01*
X141882143Y-64249999D01*
X141739286Y-64321428D01*
X141667857Y-64392857D01*
X141596429Y-64535714D01*
X141596429Y-64749999D01*
X141596429Y-63607142D02*
X142596429Y-63607142D01*
X142453571Y-63607142D02*
X142525000Y-63535714D01*
X142596429Y-63392856D01*
X142596429Y-63178571D01*
X142525000Y-63035714D01*
X142382143Y-62964285D01*
X141596429Y-62964285D01*
X142382143Y-62964285D02*
X142525000Y-62892856D01*
X142596429Y-62749999D01*
X142596429Y-62535714D01*
X142525000Y-62392856D01*
X142382143Y-62321428D01*
X141596429Y-62321428D01*
X139046429Y-105428573D02*
X140546429Y-105428573D01*
X139046429Y-104785716D02*
X139832143Y-104785716D01*
X139975000Y-104857145D01*
X140046429Y-105000002D01*
X140046429Y-105214287D01*
X139975000Y-105357145D01*
X139903571Y-105428573D01*
X140046429Y-104285716D02*
X140046429Y-103714287D01*
X140546429Y-104071430D02*
X139260714Y-104071430D01*
X139117857Y-104000002D01*
X139046429Y-103857144D01*
X139046429Y-103714287D01*
X140046429Y-103428573D02*
X140046429Y-102857144D01*
X140546429Y-103214287D02*
X139260714Y-103214287D01*
X139117857Y-103142859D01*
X139046429Y-103000001D01*
X139046429Y-102857144D01*
X140046429Y-102357144D02*
X138546429Y-102357144D01*
X139975000Y-102357144D02*
X140046429Y-102214287D01*
X140046429Y-101928573D01*
X139975000Y-101785716D01*
X139903571Y-101714287D01*
X139760714Y-101642858D01*
X139332143Y-101642858D01*
X139189286Y-101714287D01*
X139117857Y-101785716D01*
X139046429Y-101928573D01*
X139046429Y-102214287D01*
X139117857Y-102357144D01*
X139117857Y-101071430D02*
X139046429Y-100928573D01*
X139046429Y-100642858D01*
X139117857Y-100500001D01*
X139260714Y-100428573D01*
X139332143Y-100428573D01*
X139475000Y-100500001D01*
X139546429Y-100642858D01*
X139546429Y-100857144D01*
X139617857Y-101000001D01*
X139760714Y-101071430D01*
X139832143Y-101071430D01*
X139975000Y-101000001D01*
X140046429Y-100857144D01*
X140046429Y-100642858D01*
X139975000Y-100500001D01*
X139189286Y-99785715D02*
X139117857Y-99714287D01*
X139046429Y-99785715D01*
X139117857Y-99857144D01*
X139189286Y-99785715D01*
X139046429Y-99785715D01*
X139975000Y-99785715D02*
X139903571Y-99714287D01*
X139832143Y-99785715D01*
X139903571Y-99857144D01*
X139975000Y-99785715D01*
X139832143Y-99785715D01*
X140617857Y-98000001D02*
X138689286Y-99285715D01*
X140617857Y-96428572D02*
X138689286Y-97714286D01*
X140046429Y-95285714D02*
X138832143Y-95285714D01*
X138689286Y-95357143D01*
X138617857Y-95428571D01*
X138546429Y-95571428D01*
X138546429Y-95785714D01*
X138617857Y-95928571D01*
X139117857Y-95285714D02*
X139046429Y-95428571D01*
X139046429Y-95714285D01*
X139117857Y-95857143D01*
X139189286Y-95928571D01*
X139332143Y-96000000D01*
X139760714Y-96000000D01*
X139903571Y-95928571D01*
X139975000Y-95857143D01*
X140046429Y-95714285D01*
X140046429Y-95428571D01*
X139975000Y-95285714D01*
X139046429Y-94571428D02*
X140046429Y-94571428D01*
X140546429Y-94571428D02*
X140475000Y-94642857D01*
X140403571Y-94571428D01*
X140475000Y-94500000D01*
X140546429Y-94571428D01*
X140403571Y-94571428D01*
X140046429Y-94071428D02*
X140046429Y-93499999D01*
X140546429Y-93857142D02*
X139260714Y-93857142D01*
X139117857Y-93785714D01*
X139046429Y-93642856D01*
X139046429Y-93499999D01*
X139046429Y-92999999D02*
X140546429Y-92999999D01*
X139046429Y-92357142D02*
X139832143Y-92357142D01*
X139975000Y-92428571D01*
X140046429Y-92571428D01*
X140046429Y-92785713D01*
X139975000Y-92928571D01*
X139903571Y-92999999D01*
X140046429Y-90999999D02*
X139046429Y-90999999D01*
X140046429Y-91642856D02*
X139260714Y-91642856D01*
X139117857Y-91571428D01*
X139046429Y-91428570D01*
X139046429Y-91214285D01*
X139117857Y-91071428D01*
X139189286Y-90999999D01*
X139046429Y-90285713D02*
X140546429Y-90285713D01*
X139975000Y-90285713D02*
X140046429Y-90142856D01*
X140046429Y-89857142D01*
X139975000Y-89714285D01*
X139903571Y-89642856D01*
X139760714Y-89571427D01*
X139332143Y-89571427D01*
X139189286Y-89642856D01*
X139117857Y-89714285D01*
X139046429Y-89857142D01*
X139046429Y-90142856D01*
X139117857Y-90285713D01*
X139189286Y-88928570D02*
X139117857Y-88857142D01*
X139046429Y-88928570D01*
X139117857Y-88999999D01*
X139189286Y-88928570D01*
X139046429Y-88928570D01*
X139117857Y-87571427D02*
X139046429Y-87714284D01*
X139046429Y-87999998D01*
X139117857Y-88142856D01*
X139189286Y-88214284D01*
X139332143Y-88285713D01*
X139760714Y-88285713D01*
X139903571Y-88214284D01*
X139975000Y-88142856D01*
X140046429Y-87999998D01*
X140046429Y-87714284D01*
X139975000Y-87571427D01*
X139046429Y-86714284D02*
X139117857Y-86857142D01*
X139189286Y-86928570D01*
X139332143Y-86999999D01*
X139760714Y-86999999D01*
X139903571Y-86928570D01*
X139975000Y-86857142D01*
X140046429Y-86714284D01*
X140046429Y-86499999D01*
X139975000Y-86357142D01*
X139903571Y-86285713D01*
X139760714Y-86214284D01*
X139332143Y-86214284D01*
X139189286Y-86285713D01*
X139117857Y-86357142D01*
X139046429Y-86499999D01*
X139046429Y-86714284D01*
X139046429Y-85571427D02*
X140046429Y-85571427D01*
X139903571Y-85571427D02*
X139975000Y-85499999D01*
X140046429Y-85357141D01*
X140046429Y-85142856D01*
X139975000Y-84999999D01*
X139832143Y-84928570D01*
X139046429Y-84928570D01*
X139832143Y-84928570D02*
X139975000Y-84857141D01*
X140046429Y-84714284D01*
X140046429Y-84499999D01*
X139975000Y-84357141D01*
X139832143Y-84285713D01*
X139046429Y-84285713D01*
X140617857Y-82499999D02*
X138689286Y-83785713D01*
X140046429Y-81999998D02*
X138546429Y-81999998D01*
X139975000Y-81999998D02*
X140046429Y-81857141D01*
X140046429Y-81571427D01*
X139975000Y-81428570D01*
X139903571Y-81357141D01*
X139760714Y-81285712D01*
X139332143Y-81285712D01*
X139189286Y-81357141D01*
X139117857Y-81428570D01*
X139046429Y-81571427D01*
X139046429Y-81857141D01*
X139117857Y-81999998D01*
X139046429Y-80642855D02*
X140046429Y-80642855D01*
X139760714Y-80642855D02*
X139903571Y-80571427D01*
X139975000Y-80499998D01*
X140046429Y-80357141D01*
X140046429Y-80214284D01*
X139046429Y-79499998D02*
X139117857Y-79642856D01*
X139189286Y-79714284D01*
X139332143Y-79785713D01*
X139760714Y-79785713D01*
X139903571Y-79714284D01*
X139975000Y-79642856D01*
X140046429Y-79499998D01*
X140046429Y-79285713D01*
X139975000Y-79142856D01*
X139903571Y-79071427D01*
X139760714Y-78999998D01*
X139332143Y-78999998D01*
X139189286Y-79071427D01*
X139117857Y-79142856D01*
X139046429Y-79285713D01*
X139046429Y-79499998D01*
X139046429Y-78357141D02*
X140046429Y-78357141D01*
X139903571Y-78357141D02*
X139975000Y-78285713D01*
X140046429Y-78142855D01*
X140046429Y-77928570D01*
X139975000Y-77785713D01*
X139832143Y-77714284D01*
X139046429Y-77714284D01*
X139832143Y-77714284D02*
X139975000Y-77642855D01*
X140046429Y-77499998D01*
X140046429Y-77285713D01*
X139975000Y-77142855D01*
X139832143Y-77071427D01*
X139046429Y-77071427D01*
X139117857Y-75785713D02*
X139046429Y-75928570D01*
X139046429Y-76214284D01*
X139117857Y-76357141D01*
X139260714Y-76428570D01*
X139832143Y-76428570D01*
X139975000Y-76357141D01*
X140046429Y-76214284D01*
X140046429Y-75928570D01*
X139975000Y-75785713D01*
X139832143Y-75714284D01*
X139689286Y-75714284D01*
X139546429Y-76428570D01*
X140046429Y-75285713D02*
X140046429Y-74714284D01*
X140546429Y-75071427D02*
X139260714Y-75071427D01*
X139117857Y-74999999D01*
X139046429Y-74857141D01*
X139046429Y-74714284D01*
X139046429Y-74214284D02*
X140546429Y-74214284D01*
X139046429Y-73571427D02*
X139832143Y-73571427D01*
X139975000Y-73642856D01*
X140046429Y-73785713D01*
X140046429Y-73999998D01*
X139975000Y-74142856D01*
X139903571Y-74214284D01*
X139117857Y-72285713D02*
X139046429Y-72428570D01*
X139046429Y-72714284D01*
X139117857Y-72857141D01*
X139260714Y-72928570D01*
X139832143Y-72928570D01*
X139975000Y-72857141D01*
X140046429Y-72714284D01*
X140046429Y-72428570D01*
X139975000Y-72285713D01*
X139832143Y-72214284D01*
X139689286Y-72214284D01*
X139546429Y-72928570D01*
X140046429Y-70928570D02*
X139046429Y-70928570D01*
X140046429Y-71571427D02*
X139260714Y-71571427D01*
X139117857Y-71499999D01*
X139046429Y-71357141D01*
X139046429Y-71142856D01*
X139117857Y-70999999D01*
X139189286Y-70928570D01*
X139117857Y-70285713D02*
X139046429Y-70142856D01*
X139046429Y-69857141D01*
X139117857Y-69714284D01*
X139260714Y-69642856D01*
X139332143Y-69642856D01*
X139475000Y-69714284D01*
X139546429Y-69857141D01*
X139546429Y-70071427D01*
X139617857Y-70214284D01*
X139760714Y-70285713D01*
X139832143Y-70285713D01*
X139975000Y-70214284D01*
X140046429Y-70071427D01*
X140046429Y-69857141D01*
X139975000Y-69714284D01*
X139617857Y-68999998D02*
X139617857Y-67857141D01*
X139117857Y-67214284D02*
X139046429Y-67071427D01*
X139046429Y-66785712D01*
X139117857Y-66642855D01*
X139260714Y-66571427D01*
X139332143Y-66571427D01*
X139475000Y-66642855D01*
X139546429Y-66785712D01*
X139546429Y-66999998D01*
X139617857Y-67142855D01*
X139760714Y-67214284D01*
X139832143Y-67214284D01*
X139975000Y-67142855D01*
X140046429Y-66999998D01*
X140046429Y-66785712D01*
X139975000Y-66642855D01*
X139117857Y-65285712D02*
X139046429Y-65428569D01*
X139046429Y-65714283D01*
X139117857Y-65857141D01*
X139189286Y-65928569D01*
X139332143Y-65999998D01*
X139760714Y-65999998D01*
X139903571Y-65928569D01*
X139975000Y-65857141D01*
X140046429Y-65714283D01*
X140046429Y-65428569D01*
X139975000Y-65285712D01*
X139046429Y-64642855D02*
X140046429Y-64642855D01*
X140546429Y-64642855D02*
X140475000Y-64714284D01*
X140403571Y-64642855D01*
X140475000Y-64571427D01*
X140546429Y-64642855D01*
X140403571Y-64642855D01*
X139117857Y-63357141D02*
X139046429Y-63499998D01*
X139046429Y-63785712D01*
X139117857Y-63928569D01*
X139260714Y-63999998D01*
X139832143Y-63999998D01*
X139975000Y-63928569D01*
X140046429Y-63785712D01*
X140046429Y-63499998D01*
X139975000Y-63357141D01*
X139832143Y-63285712D01*
X139689286Y-63285712D01*
X139546429Y-63999998D01*
X140046429Y-62642855D02*
X139046429Y-62642855D01*
X139903571Y-62642855D02*
X139975000Y-62571427D01*
X140046429Y-62428569D01*
X140046429Y-62214284D01*
X139975000Y-62071427D01*
X139832143Y-61999998D01*
X139046429Y-61999998D01*
X139117857Y-60642855D02*
X139046429Y-60785712D01*
X139046429Y-61071426D01*
X139117857Y-61214284D01*
X139189286Y-61285712D01*
X139332143Y-61357141D01*
X139760714Y-61357141D01*
X139903571Y-61285712D01*
X139975000Y-61214284D01*
X140046429Y-61071426D01*
X140046429Y-60785712D01*
X139975000Y-60642855D01*
X139117857Y-59428570D02*
X139046429Y-59571427D01*
X139046429Y-59857141D01*
X139117857Y-59999998D01*
X139260714Y-60071427D01*
X139832143Y-60071427D01*
X139975000Y-59999998D01*
X140046429Y-59857141D01*
X140046429Y-59571427D01*
X139975000Y-59428570D01*
X139832143Y-59357141D01*
X139689286Y-59357141D01*
X139546429Y-60071427D01*
X140617857Y-57642856D02*
X138689286Y-58928570D01*
X139832143Y-56642855D02*
X139832143Y-57142855D01*
X139046429Y-57142855D02*
X140546429Y-57142855D01*
X140546429Y-56428569D01*
X139046429Y-55642855D02*
X139117857Y-55785713D01*
X139260714Y-55857141D01*
X140546429Y-55857141D01*
X140046429Y-55214284D02*
X139046429Y-54857141D01*
X140046429Y-54499999D02*
X139046429Y-54857141D01*
X138689286Y-54999999D01*
X138617857Y-55071427D01*
X138546429Y-55214284D01*
X140046429Y-53928570D02*
X138546429Y-53928570D01*
X139975000Y-53928570D02*
X140046429Y-53785713D01*
X140046429Y-53499999D01*
X139975000Y-53357142D01*
X139903571Y-53285713D01*
X139760714Y-53214284D01*
X139332143Y-53214284D01*
X139189286Y-53285713D01*
X139117857Y-53357142D01*
X139046429Y-53499999D01*
X139046429Y-53785713D01*
X139117857Y-53928570D01*
X139046429Y-52571427D02*
X140046429Y-52571427D01*
X140546429Y-52571427D02*
X140475000Y-52642856D01*
X140403571Y-52571427D01*
X140475000Y-52499999D01*
X140546429Y-52571427D01*
X140403571Y-52571427D01*
M02*
