G04 #@! TF.FileFunction,Soldermask,Top*
%FSLAX46Y46*%
G04 Gerber Fmt 4.6, Leading zero omitted, Abs format (unit mm)*
G04 Created by KiCad (PCBNEW 4.0.2+e4-6225~38~ubuntu14.04.1-stable) date Mi 27 Jul 2016 00:48:38 CEST*
%MOMM*%
G01*
G04 APERTURE LIST*
%ADD10C,0.100000*%
%ADD11R,1.300000X1.300000*%
%ADD12C,1.300000*%
%ADD13R,3.500120X3.500120*%
%ADD14C,2.540000*%
%ADD15R,2.540000X2.540000*%
%ADD16C,1.800860*%
%ADD17C,2.400000*%
%ADD18R,2.400000X2.400000*%
%ADD19C,1.800000*%
%ADD20C,1.998980*%
%ADD21O,1.824000X1.524000*%
%ADD22O,2.300000X1.600000*%
%ADD23C,1.524000*%
G04 APERTURE END LIST*
D10*
D11*
X163000000Y-65000000D03*
D12*
X163000000Y-70000000D03*
D11*
X122000000Y-51000000D03*
D12*
X122000000Y-46000000D03*
D11*
X163050000Y-104625000D03*
D12*
X163050000Y-109625000D03*
D11*
X136000000Y-58000000D03*
D12*
X139800000Y-58000000D03*
D11*
X173100000Y-79125000D03*
D12*
X169300000Y-79125000D03*
D11*
X165525000Y-96450000D03*
D12*
X161725000Y-96450000D03*
D11*
X122000000Y-120000000D03*
D12*
X122000000Y-122500000D03*
D11*
X119000000Y-94000000D03*
D12*
X119000000Y-91500000D03*
D11*
X122000000Y-126000000D03*
D12*
X122000000Y-128500000D03*
D13*
X164799860Y-128000000D03*
X170799340Y-128000000D03*
X167799600Y-123301000D03*
D14*
X149158780Y-117627960D03*
D15*
X164398780Y-117627960D03*
D14*
X130002960Y-72241220D03*
D15*
X130002960Y-57001220D03*
D14*
X161002960Y-90241220D03*
D15*
X161002960Y-75001220D03*
D16*
X175949360Y-55750000D03*
X170950640Y-55750000D03*
X177499360Y-97275000D03*
X172500640Y-97275000D03*
X121000000Y-59500640D03*
X121000000Y-64499360D03*
D17*
X112000000Y-107500000D03*
D18*
X112000000Y-104000000D03*
D17*
X174000000Y-86350000D03*
D18*
X174000000Y-89850000D03*
D17*
X112000000Y-99500000D03*
D18*
X112000000Y-96000000D03*
D17*
X112000000Y-87500000D03*
X112000000Y-91000000D03*
D18*
X112000000Y-84000000D03*
D17*
X112000000Y-48000000D03*
D18*
X112000000Y-44500000D03*
D17*
X112000000Y-56250000D03*
D18*
X112000000Y-52750000D03*
D17*
X146225000Y-46675000D03*
X142725000Y-46675000D03*
D18*
X149725000Y-46675000D03*
D17*
X158500000Y-46700000D03*
X155000000Y-46700000D03*
D18*
X162000000Y-46700000D03*
D17*
X170025000Y-46725000D03*
X166525000Y-46725000D03*
X173525000Y-46725000D03*
D18*
X177025000Y-46725000D03*
D17*
X112000000Y-76000000D03*
X112000000Y-79500000D03*
X112000000Y-72500000D03*
D18*
X112000000Y-69000000D03*
D19*
X127000000Y-49000000D03*
X127000000Y-131000000D03*
D20*
X126000000Y-77000000D03*
X126000000Y-87160000D03*
X122000000Y-106000000D03*
X122000000Y-116160000D03*
X131000000Y-77000000D03*
X131000000Y-87160000D03*
X144000000Y-62000000D03*
X154160000Y-62000000D03*
X135000000Y-113000000D03*
X145160000Y-113000000D03*
X135000000Y-118000000D03*
X145160000Y-118000000D03*
X135000000Y-123000000D03*
X145160000Y-123000000D03*
D19*
X171100000Y-109175000D03*
X171100000Y-112575000D03*
X171100000Y-105775000D03*
X175300000Y-107475000D03*
X175300000Y-110875000D03*
X171725000Y-67300000D03*
X171725000Y-70700000D03*
X171725000Y-63900000D03*
X175925000Y-65600000D03*
X175925000Y-69000000D03*
X134000000Y-51200000D03*
X137400000Y-51200000D03*
X130600000Y-51200000D03*
X132300000Y-47000000D03*
X135700000Y-47000000D03*
D21*
X117000000Y-130000000D03*
X111920000Y-128730000D03*
X117000000Y-127460000D03*
X111920000Y-126190000D03*
X117000000Y-124920000D03*
X111920000Y-123650000D03*
X117000000Y-122380000D03*
X111920000Y-121110000D03*
X117000000Y-119840000D03*
X111920000Y-118570000D03*
X117000000Y-117300000D03*
X111920000Y-116030000D03*
X117000000Y-114760000D03*
X111920000Y-113490000D03*
X117000000Y-112220000D03*
D22*
X139000000Y-68000000D03*
X139000000Y-70540000D03*
X139000000Y-73080000D03*
X139000000Y-75620000D03*
X139000000Y-78160000D03*
X139000000Y-80700000D03*
X139000000Y-83240000D03*
X139000000Y-85780000D03*
X139000000Y-88320000D03*
X139000000Y-90860000D03*
X139000000Y-93400000D03*
X139000000Y-95940000D03*
X139000000Y-98480000D03*
X139000000Y-101020000D03*
X139000000Y-103560000D03*
X154240000Y-103560000D03*
X154240000Y-101020000D03*
X154240000Y-98480000D03*
X154240000Y-95940000D03*
X154240000Y-93400000D03*
X154240000Y-90860000D03*
X154240000Y-88320000D03*
X154240000Y-85780000D03*
X154240000Y-83240000D03*
X154240000Y-80700000D03*
X154240000Y-78160000D03*
X154240000Y-75620000D03*
X154240000Y-73080000D03*
X154240000Y-70540000D03*
X154240000Y-68000000D03*
D23*
X114000000Y-62310000D03*
X114000000Y-59770000D03*
X114000000Y-64850000D03*
X122000000Y-70860000D03*
X122000000Y-68320000D03*
X122000000Y-73400000D03*
X119100000Y-100540000D03*
X119100000Y-103080000D03*
X119100000Y-98000000D03*
X148460000Y-55000000D03*
X145920000Y-55000000D03*
X151000000Y-55000000D03*
D20*
X120925000Y-86850000D03*
X120925000Y-76690000D03*
M02*
