G04 #@! TF.FileFunction,Other,Fab,Top*
%FSLAX46Y46*%
G04 Gerber Fmt 4.6, Leading zero omitted, Abs format (unit mm)*
G04 Created by KiCad (PCBNEW 4.0.7-e2-6376~58~ubuntu16.04.1) date Sun Jan 28 20:38:59 2018*
%MOMM*%
%LPD*%
G01*
G04 APERTURE LIST*
%ADD10C,0.100000*%
%ADD11C,0.150000*%
%ADD12C,0.300000*%
%ADD13C,0.400000*%
G04 APERTURE END LIST*
D10*
D11*
X177002200Y-166007200D02*
X177002200Y-198007200D01*
X285002200Y-198007200D01*
X285002200Y-166007200D01*
X177002200Y-166007200D01*
D10*
D11*
X10000000Y-10000000D02*
X10000000Y-200007200D01*
X287002200Y-200007200D01*
X287002200Y-10000000D01*
X10000000Y-10000000D01*
D10*
D11*
X12000000Y-12000000D02*
X12000000Y-198007200D01*
X285002200Y-198007200D01*
X285002200Y-12000000D01*
X12000000Y-12000000D01*
D10*
D11*
X60000000Y-12000000D02*
X60000000Y-10000000D01*
D10*
D11*
X110000000Y-12000000D02*
X110000000Y-10000000D01*
D10*
D11*
X160000000Y-12000000D02*
X160000000Y-10000000D01*
D10*
D11*
X210000000Y-12000000D02*
X210000000Y-10000000D01*
D10*
D11*
X260000000Y-12000000D02*
X260000000Y-10000000D01*
D10*
D11*
X35990476Y-11588095D02*
X35247619Y-11588095D01*
X35619048Y-11588095D02*
X35619048Y-10288095D01*
X35495238Y-10473810D01*
X35371429Y-10597619D01*
X35247619Y-10659524D01*
D10*
D11*
X85247619Y-10411905D02*
X85309524Y-10350000D01*
X85433333Y-10288095D01*
X85742857Y-10288095D01*
X85866667Y-10350000D01*
X85928571Y-10411905D01*
X85990476Y-10535714D01*
X85990476Y-10659524D01*
X85928571Y-10845238D01*
X85185714Y-11588095D01*
X85990476Y-11588095D01*
D10*
D11*
X135185714Y-10288095D02*
X135990476Y-10288095D01*
X135557143Y-10783333D01*
X135742857Y-10783333D01*
X135866667Y-10845238D01*
X135928571Y-10907143D01*
X135990476Y-11030952D01*
X135990476Y-11340476D01*
X135928571Y-11464286D01*
X135866667Y-11526190D01*
X135742857Y-11588095D01*
X135371429Y-11588095D01*
X135247619Y-11526190D01*
X135185714Y-11464286D01*
D10*
D11*
X185866667Y-10721429D02*
X185866667Y-11588095D01*
X185557143Y-10226190D02*
X185247619Y-11154762D01*
X186052381Y-11154762D01*
D10*
D11*
X235928571Y-10288095D02*
X235309524Y-10288095D01*
X235247619Y-10907143D01*
X235309524Y-10845238D01*
X235433333Y-10783333D01*
X235742857Y-10783333D01*
X235866667Y-10845238D01*
X235928571Y-10907143D01*
X235990476Y-11030952D01*
X235990476Y-11340476D01*
X235928571Y-11464286D01*
X235866667Y-11526190D01*
X235742857Y-11588095D01*
X235433333Y-11588095D01*
X235309524Y-11526190D01*
X235247619Y-11464286D01*
D10*
D11*
X285866667Y-10288095D02*
X285619048Y-10288095D01*
X285495238Y-10350000D01*
X285433333Y-10411905D01*
X285309524Y-10597619D01*
X285247619Y-10845238D01*
X285247619Y-11340476D01*
X285309524Y-11464286D01*
X285371429Y-11526190D01*
X285495238Y-11588095D01*
X285742857Y-11588095D01*
X285866667Y-11526190D01*
X285928571Y-11464286D01*
X285990476Y-11340476D01*
X285990476Y-11030952D01*
X285928571Y-10907143D01*
X285866667Y-10845238D01*
X285742857Y-10783333D01*
X285495238Y-10783333D01*
X285371429Y-10845238D01*
X285309524Y-10907143D01*
X285247619Y-11030952D01*
D10*
D11*
X60000000Y-198007200D02*
X60000000Y-200007200D01*
D10*
D11*
X110000000Y-198007200D02*
X110000000Y-200007200D01*
D10*
D11*
X160000000Y-198007200D02*
X160000000Y-200007200D01*
D10*
D11*
X210000000Y-198007200D02*
X210000000Y-200007200D01*
D10*
D11*
X260000000Y-198007200D02*
X260000000Y-200007200D01*
D10*
D11*
X35990476Y-199595295D02*
X35247619Y-199595295D01*
X35619048Y-199595295D02*
X35619048Y-198295295D01*
X35495238Y-198481010D01*
X35371429Y-198604819D01*
X35247619Y-198666724D01*
D10*
D11*
X85247619Y-198419105D02*
X85309524Y-198357200D01*
X85433333Y-198295295D01*
X85742857Y-198295295D01*
X85866667Y-198357200D01*
X85928571Y-198419105D01*
X85990476Y-198542914D01*
X85990476Y-198666724D01*
X85928571Y-198852438D01*
X85185714Y-199595295D01*
X85990476Y-199595295D01*
D10*
D11*
X135185714Y-198295295D02*
X135990476Y-198295295D01*
X135557143Y-198790533D01*
X135742857Y-198790533D01*
X135866667Y-198852438D01*
X135928571Y-198914343D01*
X135990476Y-199038152D01*
X135990476Y-199347676D01*
X135928571Y-199471486D01*
X135866667Y-199533390D01*
X135742857Y-199595295D01*
X135371429Y-199595295D01*
X135247619Y-199533390D01*
X135185714Y-199471486D01*
D10*
D11*
X185866667Y-198728629D02*
X185866667Y-199595295D01*
X185557143Y-198233390D02*
X185247619Y-199161962D01*
X186052381Y-199161962D01*
D10*
D11*
X235928571Y-198295295D02*
X235309524Y-198295295D01*
X235247619Y-198914343D01*
X235309524Y-198852438D01*
X235433333Y-198790533D01*
X235742857Y-198790533D01*
X235866667Y-198852438D01*
X235928571Y-198914343D01*
X235990476Y-199038152D01*
X235990476Y-199347676D01*
X235928571Y-199471486D01*
X235866667Y-199533390D01*
X235742857Y-199595295D01*
X235433333Y-199595295D01*
X235309524Y-199533390D01*
X235247619Y-199471486D01*
D10*
D11*
X285866667Y-198295295D02*
X285619048Y-198295295D01*
X285495238Y-198357200D01*
X285433333Y-198419105D01*
X285309524Y-198604819D01*
X285247619Y-198852438D01*
X285247619Y-199347676D01*
X285309524Y-199471486D01*
X285371429Y-199533390D01*
X285495238Y-199595295D01*
X285742857Y-199595295D01*
X285866667Y-199533390D01*
X285928571Y-199471486D01*
X285990476Y-199347676D01*
X285990476Y-199038152D01*
X285928571Y-198914343D01*
X285866667Y-198852438D01*
X285742857Y-198790533D01*
X285495238Y-198790533D01*
X285371429Y-198852438D01*
X285309524Y-198914343D01*
X285247619Y-199038152D01*
D10*
D11*
X10000000Y-60000000D02*
X12000000Y-60000000D01*
D10*
D11*
X10000000Y-110000000D02*
X12000000Y-110000000D01*
D10*
D11*
X10000000Y-160000000D02*
X12000000Y-160000000D01*
D10*
D11*
X10690476Y-35216667D02*
X11309524Y-35216667D01*
X10566667Y-35588095D02*
X11000000Y-34288095D01*
X11433333Y-35588095D01*
D10*
D11*
X11092857Y-84907143D02*
X11278571Y-84969048D01*
X11340476Y-85030952D01*
X11402381Y-85154762D01*
X11402381Y-85340476D01*
X11340476Y-85464286D01*
X11278571Y-85526190D01*
X11154762Y-85588095D01*
X10659524Y-85588095D01*
X10659524Y-84288095D01*
X11092857Y-84288095D01*
X11216667Y-84350000D01*
X11278571Y-84411905D01*
X11340476Y-84535714D01*
X11340476Y-84659524D01*
X11278571Y-84783333D01*
X11216667Y-84845238D01*
X11092857Y-84907143D01*
X10659524Y-84907143D01*
D10*
D11*
X11402381Y-135464286D02*
X11340476Y-135526190D01*
X11154762Y-135588095D01*
X11030952Y-135588095D01*
X10845238Y-135526190D01*
X10721429Y-135402381D01*
X10659524Y-135278571D01*
X10597619Y-135030952D01*
X10597619Y-134845238D01*
X10659524Y-134597619D01*
X10721429Y-134473810D01*
X10845238Y-134350000D01*
X11030952Y-134288095D01*
X11154762Y-134288095D01*
X11340476Y-134350000D01*
X11402381Y-134411905D01*
D10*
D11*
X10659524Y-185588095D02*
X10659524Y-184288095D01*
X10969048Y-184288095D01*
X11154762Y-184350000D01*
X11278571Y-184473810D01*
X11340476Y-184597619D01*
X11402381Y-184845238D01*
X11402381Y-185030952D01*
X11340476Y-185278571D01*
X11278571Y-185402381D01*
X11154762Y-185526190D01*
X10969048Y-185588095D01*
X10659524Y-185588095D01*
D10*
D11*
X287002200Y-60000000D02*
X285002200Y-60000000D01*
D10*
D11*
X287002200Y-110000000D02*
X285002200Y-110000000D01*
D10*
D11*
X287002200Y-160000000D02*
X285002200Y-160000000D01*
D10*
D11*
X285692676Y-35216667D02*
X286311724Y-35216667D01*
X285568867Y-35588095D02*
X286002200Y-34288095D01*
X286435533Y-35588095D01*
D10*
D11*
X286095057Y-84907143D02*
X286280771Y-84969048D01*
X286342676Y-85030952D01*
X286404581Y-85154762D01*
X286404581Y-85340476D01*
X286342676Y-85464286D01*
X286280771Y-85526190D01*
X286156962Y-85588095D01*
X285661724Y-85588095D01*
X285661724Y-84288095D01*
X286095057Y-84288095D01*
X286218867Y-84350000D01*
X286280771Y-84411905D01*
X286342676Y-84535714D01*
X286342676Y-84659524D01*
X286280771Y-84783333D01*
X286218867Y-84845238D01*
X286095057Y-84907143D01*
X285661724Y-84907143D01*
D10*
D11*
X286404581Y-135464286D02*
X286342676Y-135526190D01*
X286156962Y-135588095D01*
X286033152Y-135588095D01*
X285847438Y-135526190D01*
X285723629Y-135402381D01*
X285661724Y-135278571D01*
X285599819Y-135030952D01*
X285599819Y-134845238D01*
X285661724Y-134597619D01*
X285723629Y-134473810D01*
X285847438Y-134350000D01*
X286033152Y-134288095D01*
X286156962Y-134288095D01*
X286342676Y-134350000D01*
X286404581Y-134411905D01*
D10*
D11*
X285661724Y-185588095D02*
X285661724Y-184288095D01*
X285971248Y-184288095D01*
X286156962Y-184350000D01*
X286280771Y-184473810D01*
X286342676Y-184597619D01*
X286404581Y-184845238D01*
X286404581Y-185030952D01*
X286342676Y-185278571D01*
X286280771Y-185402381D01*
X286156962Y-185526190D01*
X285971248Y-185588095D01*
X285661724Y-185588095D01*
D10*
D11*
X200359343Y-193785771D02*
X200359343Y-192285771D01*
X200716486Y-192285771D01*
X200930771Y-192357200D01*
X201073629Y-192500057D01*
X201145057Y-192642914D01*
X201216486Y-192928629D01*
X201216486Y-193142914D01*
X201145057Y-193428629D01*
X201073629Y-193571486D01*
X200930771Y-193714343D01*
X200716486Y-193785771D01*
X200359343Y-193785771D01*
X202502200Y-193785771D02*
X202502200Y-193000057D01*
X202430771Y-192857200D01*
X202287914Y-192785771D01*
X202002200Y-192785771D01*
X201859343Y-192857200D01*
X202502200Y-193714343D02*
X202359343Y-193785771D01*
X202002200Y-193785771D01*
X201859343Y-193714343D01*
X201787914Y-193571486D01*
X201787914Y-193428629D01*
X201859343Y-193285771D01*
X202002200Y-193214343D01*
X202359343Y-193214343D01*
X202502200Y-193142914D01*
X203002200Y-192785771D02*
X203573629Y-192785771D01*
X203216486Y-192285771D02*
X203216486Y-193571486D01*
X203287914Y-193714343D01*
X203430772Y-193785771D01*
X203573629Y-193785771D01*
X204645057Y-193714343D02*
X204502200Y-193785771D01*
X204216486Y-193785771D01*
X204073629Y-193714343D01*
X204002200Y-193571486D01*
X204002200Y-193000057D01*
X204073629Y-192857200D01*
X204216486Y-192785771D01*
X204502200Y-192785771D01*
X204645057Y-192857200D01*
X204716486Y-193000057D01*
X204716486Y-193142914D01*
X204002200Y-193285771D01*
X205359343Y-193642914D02*
X205430771Y-193714343D01*
X205359343Y-193785771D01*
X205287914Y-193714343D01*
X205359343Y-193642914D01*
X205359343Y-193785771D01*
X205359343Y-192857200D02*
X205430771Y-192928629D01*
X205359343Y-193000057D01*
X205287914Y-192928629D01*
X205359343Y-192857200D01*
X205359343Y-193000057D01*
D10*
D11*
X177002200Y-194507200D02*
X285002200Y-194507200D01*
D10*
D11*
X178359343Y-196585771D02*
X178359343Y-195085771D01*
X179216486Y-196585771D02*
X178573629Y-195728629D01*
X179216486Y-195085771D02*
X178359343Y-195942914D01*
X179859343Y-196585771D02*
X179859343Y-195585771D01*
X179859343Y-195085771D02*
X179787914Y-195157200D01*
X179859343Y-195228629D01*
X179930771Y-195157200D01*
X179859343Y-195085771D01*
X179859343Y-195228629D01*
X181430772Y-196442914D02*
X181359343Y-196514343D01*
X181145057Y-196585771D01*
X181002200Y-196585771D01*
X180787915Y-196514343D01*
X180645057Y-196371486D01*
X180573629Y-196228629D01*
X180502200Y-195942914D01*
X180502200Y-195728629D01*
X180573629Y-195442914D01*
X180645057Y-195300057D01*
X180787915Y-195157200D01*
X181002200Y-195085771D01*
X181145057Y-195085771D01*
X181359343Y-195157200D01*
X181430772Y-195228629D01*
X182716486Y-196585771D02*
X182716486Y-195800057D01*
X182645057Y-195657200D01*
X182502200Y-195585771D01*
X182216486Y-195585771D01*
X182073629Y-195657200D01*
X182716486Y-196514343D02*
X182573629Y-196585771D01*
X182216486Y-196585771D01*
X182073629Y-196514343D01*
X182002200Y-196371486D01*
X182002200Y-196228629D01*
X182073629Y-196085771D01*
X182216486Y-196014343D01*
X182573629Y-196014343D01*
X182716486Y-195942914D01*
X184073629Y-196585771D02*
X184073629Y-195085771D01*
X184073629Y-196514343D02*
X183930772Y-196585771D01*
X183645058Y-196585771D01*
X183502200Y-196514343D01*
X183430772Y-196442914D01*
X183359343Y-196300057D01*
X183359343Y-195871486D01*
X183430772Y-195728629D01*
X183502200Y-195657200D01*
X183645058Y-195585771D01*
X183930772Y-195585771D01*
X184073629Y-195657200D01*
X185930772Y-195800057D02*
X186430772Y-195800057D01*
X186645058Y-196585771D02*
X185930772Y-196585771D01*
X185930772Y-195085771D01*
X186645058Y-195085771D01*
X187287915Y-196442914D02*
X187359343Y-196514343D01*
X187287915Y-196585771D01*
X187216486Y-196514343D01*
X187287915Y-196442914D01*
X187287915Y-196585771D01*
X188002201Y-196585771D02*
X188002201Y-195085771D01*
X188359344Y-195085771D01*
X188573629Y-195157200D01*
X188716487Y-195300057D01*
X188787915Y-195442914D01*
X188859344Y-195728629D01*
X188859344Y-195942914D01*
X188787915Y-196228629D01*
X188716487Y-196371486D01*
X188573629Y-196514343D01*
X188359344Y-196585771D01*
X188002201Y-196585771D01*
X189502201Y-196442914D02*
X189573629Y-196514343D01*
X189502201Y-196585771D01*
X189430772Y-196514343D01*
X189502201Y-196442914D01*
X189502201Y-196585771D01*
X190145058Y-196157200D02*
X190859344Y-196157200D01*
X190002201Y-196585771D02*
X190502201Y-195085771D01*
X191002201Y-196585771D01*
X191502201Y-196442914D02*
X191573629Y-196514343D01*
X191502201Y-196585771D01*
X191430772Y-196514343D01*
X191502201Y-196442914D01*
X191502201Y-196585771D01*
X194502201Y-196585771D02*
X194502201Y-195085771D01*
X194645058Y-196014343D02*
X195073629Y-196585771D01*
X195073629Y-195585771D02*
X194502201Y-196157200D01*
X195716487Y-196585771D02*
X195716487Y-195585771D01*
X195716487Y-195085771D02*
X195645058Y-195157200D01*
X195716487Y-195228629D01*
X195787915Y-195157200D01*
X195716487Y-195085771D01*
X195716487Y-195228629D01*
X197073630Y-196514343D02*
X196930773Y-196585771D01*
X196645059Y-196585771D01*
X196502201Y-196514343D01*
X196430773Y-196442914D01*
X196359344Y-196300057D01*
X196359344Y-195871486D01*
X196430773Y-195728629D01*
X196502201Y-195657200D01*
X196645059Y-195585771D01*
X196930773Y-195585771D01*
X197073630Y-195657200D01*
X198359344Y-196585771D02*
X198359344Y-195800057D01*
X198287915Y-195657200D01*
X198145058Y-195585771D01*
X197859344Y-195585771D01*
X197716487Y-195657200D01*
X198359344Y-196514343D02*
X198216487Y-196585771D01*
X197859344Y-196585771D01*
X197716487Y-196514343D01*
X197645058Y-196371486D01*
X197645058Y-196228629D01*
X197716487Y-196085771D01*
X197859344Y-196014343D01*
X198216487Y-196014343D01*
X198359344Y-195942914D01*
X199716487Y-196585771D02*
X199716487Y-195085771D01*
X199716487Y-196514343D02*
X199573630Y-196585771D01*
X199287916Y-196585771D01*
X199145058Y-196514343D01*
X199073630Y-196442914D01*
X199002201Y-196300057D01*
X199002201Y-195871486D01*
X199073630Y-195728629D01*
X199145058Y-195657200D01*
X199287916Y-195585771D01*
X199573630Y-195585771D01*
X199716487Y-195657200D01*
X202216487Y-195585771D02*
X202216487Y-196585771D01*
X201859344Y-195014343D02*
X201502201Y-196085771D01*
X202430773Y-196085771D01*
X203002201Y-196442914D02*
X203073629Y-196514343D01*
X203002201Y-196585771D01*
X202930772Y-196514343D01*
X203002201Y-196442914D01*
X203002201Y-196585771D01*
X204002201Y-195085771D02*
X204145058Y-195085771D01*
X204287915Y-195157200D01*
X204359344Y-195228629D01*
X204430773Y-195371486D01*
X204502201Y-195657200D01*
X204502201Y-196014343D01*
X204430773Y-196300057D01*
X204359344Y-196442914D01*
X204287915Y-196514343D01*
X204145058Y-196585771D01*
X204002201Y-196585771D01*
X203859344Y-196514343D01*
X203787915Y-196442914D01*
X203716487Y-196300057D01*
X203645058Y-196014343D01*
X203645058Y-195657200D01*
X203716487Y-195371486D01*
X203787915Y-195228629D01*
X203859344Y-195157200D01*
X204002201Y-195085771D01*
X205145058Y-196442914D02*
X205216486Y-196514343D01*
X205145058Y-196585771D01*
X205073629Y-196514343D01*
X205145058Y-196442914D01*
X205145058Y-196585771D01*
X205716487Y-195085771D02*
X206716487Y-195085771D01*
X206073630Y-196585771D01*
X207287915Y-196014343D02*
X208430772Y-196014343D01*
X209716486Y-196514343D02*
X209573629Y-196585771D01*
X209287915Y-196585771D01*
X209145058Y-196514343D01*
X209073629Y-196371486D01*
X209073629Y-195800057D01*
X209145058Y-195657200D01*
X209287915Y-195585771D01*
X209573629Y-195585771D01*
X209716486Y-195657200D01*
X209787915Y-195800057D01*
X209787915Y-195942914D01*
X209073629Y-196085771D01*
X210359343Y-195228629D02*
X210430772Y-195157200D01*
X210573629Y-195085771D01*
X210930772Y-195085771D01*
X211073629Y-195157200D01*
X211145058Y-195228629D01*
X211216486Y-195371486D01*
X211216486Y-195514343D01*
X211145058Y-195728629D01*
X210287915Y-196585771D01*
X211216486Y-196585771D01*
X211859343Y-196014343D02*
X213002200Y-196014343D01*
X214359343Y-195085771D02*
X214073629Y-195085771D01*
X213930772Y-195157200D01*
X213859343Y-195228629D01*
X213716486Y-195442914D01*
X213645057Y-195728629D01*
X213645057Y-196300057D01*
X213716486Y-196442914D01*
X213787914Y-196514343D01*
X213930772Y-196585771D01*
X214216486Y-196585771D01*
X214359343Y-196514343D01*
X214430772Y-196442914D01*
X214502200Y-196300057D01*
X214502200Y-195942914D01*
X214430772Y-195800057D01*
X214359343Y-195728629D01*
X214216486Y-195657200D01*
X213930772Y-195657200D01*
X213787914Y-195728629D01*
X213716486Y-195800057D01*
X213645057Y-195942914D01*
X215002200Y-195085771D02*
X215930771Y-195085771D01*
X215430771Y-195657200D01*
X215645057Y-195657200D01*
X215787914Y-195728629D01*
X215859343Y-195800057D01*
X215930771Y-195942914D01*
X215930771Y-196300057D01*
X215859343Y-196442914D01*
X215787914Y-196514343D01*
X215645057Y-196585771D01*
X215216485Y-196585771D01*
X215073628Y-196514343D01*
X215002200Y-196442914D01*
X216430771Y-195085771D02*
X217430771Y-195085771D01*
X216787914Y-196585771D01*
X218645056Y-195085771D02*
X218359342Y-195085771D01*
X218216485Y-195157200D01*
X218145056Y-195228629D01*
X218002199Y-195442914D01*
X217930770Y-195728629D01*
X217930770Y-196300057D01*
X218002199Y-196442914D01*
X218073627Y-196514343D01*
X218216485Y-196585771D01*
X218502199Y-196585771D01*
X218645056Y-196514343D01*
X218716485Y-196442914D01*
X218787913Y-196300057D01*
X218787913Y-195942914D01*
X218716485Y-195800057D01*
X218645056Y-195728629D01*
X218502199Y-195657200D01*
X218216485Y-195657200D01*
X218073627Y-195728629D01*
X218002199Y-195800057D01*
X217930770Y-195942914D01*
X220145056Y-195085771D02*
X219430770Y-195085771D01*
X219359341Y-195800057D01*
X219430770Y-195728629D01*
X219573627Y-195657200D01*
X219930770Y-195657200D01*
X220073627Y-195728629D01*
X220145056Y-195800057D01*
X220216484Y-195942914D01*
X220216484Y-196300057D01*
X220145056Y-196442914D01*
X220073627Y-196514343D01*
X219930770Y-196585771D01*
X219573627Y-196585771D01*
X219430770Y-196514343D01*
X219359341Y-196442914D01*
X221073627Y-195728629D02*
X220930769Y-195657200D01*
X220859341Y-195585771D01*
X220787912Y-195442914D01*
X220787912Y-195371486D01*
X220859341Y-195228629D01*
X220930769Y-195157200D01*
X221073627Y-195085771D01*
X221359341Y-195085771D01*
X221502198Y-195157200D01*
X221573627Y-195228629D01*
X221645055Y-195371486D01*
X221645055Y-195442914D01*
X221573627Y-195585771D01*
X221502198Y-195657200D01*
X221359341Y-195728629D01*
X221073627Y-195728629D01*
X220930769Y-195800057D01*
X220859341Y-195871486D01*
X220787912Y-196014343D01*
X220787912Y-196300057D01*
X220859341Y-196442914D01*
X220930769Y-196514343D01*
X221073627Y-196585771D01*
X221359341Y-196585771D01*
X221502198Y-196514343D01*
X221573627Y-196442914D01*
X221645055Y-196300057D01*
X221645055Y-196014343D01*
X221573627Y-195871486D01*
X221502198Y-195800057D01*
X221359341Y-195728629D01*
X219073627Y-194827200D02*
X221930769Y-194827200D01*
X222930769Y-195585771D02*
X222930769Y-196585771D01*
X222287912Y-195585771D02*
X222287912Y-196371486D01*
X222359340Y-196514343D01*
X222502198Y-196585771D01*
X222716483Y-196585771D01*
X222859340Y-196514343D01*
X222930769Y-196442914D01*
X223645055Y-196585771D02*
X223645055Y-195085771D01*
X223645055Y-195657200D02*
X223787912Y-195585771D01*
X224073626Y-195585771D01*
X224216483Y-195657200D01*
X224287912Y-195728629D01*
X224359341Y-195871486D01*
X224359341Y-196300057D01*
X224287912Y-196442914D01*
X224216483Y-196514343D01*
X224073626Y-196585771D01*
X223787912Y-196585771D01*
X223645055Y-196514343D01*
X225645055Y-195585771D02*
X225645055Y-196585771D01*
X225002198Y-195585771D02*
X225002198Y-196371486D01*
X225073626Y-196514343D01*
X225216484Y-196585771D01*
X225430769Y-196585771D01*
X225573626Y-196514343D01*
X225645055Y-196442914D01*
X226359341Y-195585771D02*
X226359341Y-196585771D01*
X226359341Y-195728629D02*
X226430769Y-195657200D01*
X226573627Y-195585771D01*
X226787912Y-195585771D01*
X226930769Y-195657200D01*
X227002198Y-195800057D01*
X227002198Y-196585771D01*
X227502198Y-195585771D02*
X228073627Y-195585771D01*
X227716484Y-195085771D02*
X227716484Y-196371486D01*
X227787912Y-196514343D01*
X227930770Y-196585771D01*
X228073627Y-196585771D01*
X229216484Y-195585771D02*
X229216484Y-196585771D01*
X228573627Y-195585771D02*
X228573627Y-196371486D01*
X228645055Y-196514343D01*
X228787913Y-196585771D01*
X229002198Y-196585771D01*
X229145055Y-196514343D01*
X229216484Y-196442914D01*
X230716484Y-196585771D02*
X229859341Y-196585771D01*
X230287913Y-196585771D02*
X230287913Y-195085771D01*
X230145056Y-195300057D01*
X230002198Y-195442914D01*
X229859341Y-195514343D01*
X232002198Y-195085771D02*
X231716484Y-195085771D01*
X231573627Y-195157200D01*
X231502198Y-195228629D01*
X231359341Y-195442914D01*
X231287912Y-195728629D01*
X231287912Y-196300057D01*
X231359341Y-196442914D01*
X231430769Y-196514343D01*
X231573627Y-196585771D01*
X231859341Y-196585771D01*
X232002198Y-196514343D01*
X232073627Y-196442914D01*
X232145055Y-196300057D01*
X232145055Y-195942914D01*
X232073627Y-195800057D01*
X232002198Y-195728629D01*
X231859341Y-195657200D01*
X231573627Y-195657200D01*
X231430769Y-195728629D01*
X231359341Y-195800057D01*
X231287912Y-195942914D01*
X232787912Y-196442914D02*
X232859340Y-196514343D01*
X232787912Y-196585771D01*
X232716483Y-196514343D01*
X232787912Y-196442914D01*
X232787912Y-196585771D01*
X233787912Y-195085771D02*
X233930769Y-195085771D01*
X234073626Y-195157200D01*
X234145055Y-195228629D01*
X234216484Y-195371486D01*
X234287912Y-195657200D01*
X234287912Y-196014343D01*
X234216484Y-196300057D01*
X234145055Y-196442914D01*
X234073626Y-196514343D01*
X233930769Y-196585771D01*
X233787912Y-196585771D01*
X233645055Y-196514343D01*
X233573626Y-196442914D01*
X233502198Y-196300057D01*
X233430769Y-196014343D01*
X233430769Y-195657200D01*
X233502198Y-195371486D01*
X233573626Y-195228629D01*
X233645055Y-195157200D01*
X233787912Y-195085771D01*
X235573626Y-195585771D02*
X235573626Y-196585771D01*
X235216483Y-195014343D02*
X234859340Y-196085771D01*
X235787912Y-196085771D01*
X236359340Y-196442914D02*
X236430768Y-196514343D01*
X236359340Y-196585771D01*
X236287911Y-196514343D01*
X236359340Y-196442914D01*
X236359340Y-196585771D01*
X237859340Y-196585771D02*
X237002197Y-196585771D01*
X237430769Y-196585771D02*
X237430769Y-195085771D01*
X237287912Y-195300057D01*
X237145054Y-195442914D01*
X237002197Y-195514343D01*
D10*
D11*
X177002200Y-191507200D02*
X285002200Y-191507200D01*
D10*
D12*
X264216486Y-193785771D02*
X263716486Y-193071486D01*
X263359343Y-193785771D02*
X263359343Y-192285771D01*
X263930771Y-192285771D01*
X264073629Y-192357200D01*
X264145057Y-192428629D01*
X264216486Y-192571486D01*
X264216486Y-192785771D01*
X264145057Y-192928629D01*
X264073629Y-193000057D01*
X263930771Y-193071486D01*
X263359343Y-193071486D01*
X265430771Y-193714343D02*
X265287914Y-193785771D01*
X265002200Y-193785771D01*
X264859343Y-193714343D01*
X264787914Y-193571486D01*
X264787914Y-193000057D01*
X264859343Y-192857200D01*
X265002200Y-192785771D01*
X265287914Y-192785771D01*
X265430771Y-192857200D01*
X265502200Y-193000057D01*
X265502200Y-193142914D01*
X264787914Y-193285771D01*
X266002200Y-192785771D02*
X266359343Y-193785771D01*
X266716485Y-192785771D01*
X267287914Y-193642914D02*
X267359342Y-193714343D01*
X267287914Y-193785771D01*
X267216485Y-193714343D01*
X267287914Y-193642914D01*
X267287914Y-193785771D01*
X267287914Y-192857200D02*
X267359342Y-192928629D01*
X267287914Y-193000057D01*
X267216485Y-192928629D01*
X267287914Y-192857200D01*
X267287914Y-193000057D01*
D10*
D11*
X178287914Y-193714343D02*
X178502200Y-193785771D01*
X178859343Y-193785771D01*
X179002200Y-193714343D01*
X179073629Y-193642914D01*
X179145057Y-193500057D01*
X179145057Y-193357200D01*
X179073629Y-193214343D01*
X179002200Y-193142914D01*
X178859343Y-193071486D01*
X178573629Y-193000057D01*
X178430771Y-192928629D01*
X178359343Y-192857200D01*
X178287914Y-192714343D01*
X178287914Y-192571486D01*
X178359343Y-192428629D01*
X178430771Y-192357200D01*
X178573629Y-192285771D01*
X178930771Y-192285771D01*
X179145057Y-192357200D01*
X179787914Y-193785771D02*
X179787914Y-192785771D01*
X179787914Y-192285771D02*
X179716485Y-192357200D01*
X179787914Y-192428629D01*
X179859342Y-192357200D01*
X179787914Y-192285771D01*
X179787914Y-192428629D01*
X180359343Y-192785771D02*
X181145057Y-192785771D01*
X180359343Y-193785771D01*
X181145057Y-193785771D01*
X182287914Y-193714343D02*
X182145057Y-193785771D01*
X181859343Y-193785771D01*
X181716486Y-193714343D01*
X181645057Y-193571486D01*
X181645057Y-193000057D01*
X181716486Y-192857200D01*
X181859343Y-192785771D01*
X182145057Y-192785771D01*
X182287914Y-192857200D01*
X182359343Y-193000057D01*
X182359343Y-193142914D01*
X181645057Y-193285771D01*
X183002200Y-193642914D02*
X183073628Y-193714343D01*
X183002200Y-193785771D01*
X182930771Y-193714343D01*
X183002200Y-193642914D01*
X183002200Y-193785771D01*
X183002200Y-192857200D02*
X183073628Y-192928629D01*
X183002200Y-193000057D01*
X182930771Y-192928629D01*
X183002200Y-192857200D01*
X183002200Y-193000057D01*
X184787914Y-193357200D02*
X185502200Y-193357200D01*
X184645057Y-193785771D02*
X185145057Y-192285771D01*
X185645057Y-193785771D01*
X186787914Y-192785771D02*
X186787914Y-193785771D01*
X186430771Y-192214343D02*
X186073628Y-193285771D01*
X187002200Y-193285771D01*
D10*
D11*
X263359343Y-196585771D02*
X263359343Y-195085771D01*
X264716486Y-196585771D02*
X264716486Y-195085771D01*
X264716486Y-196514343D02*
X264573629Y-196585771D01*
X264287915Y-196585771D01*
X264145057Y-196514343D01*
X264073629Y-196442914D01*
X264002200Y-196300057D01*
X264002200Y-195871486D01*
X264073629Y-195728629D01*
X264145057Y-195657200D01*
X264287915Y-195585771D01*
X264573629Y-195585771D01*
X264716486Y-195657200D01*
X265430772Y-196442914D02*
X265502200Y-196514343D01*
X265430772Y-196585771D01*
X265359343Y-196514343D01*
X265430772Y-196442914D01*
X265430772Y-196585771D01*
X265430772Y-195657200D02*
X265502200Y-195728629D01*
X265430772Y-195800057D01*
X265359343Y-195728629D01*
X265430772Y-195657200D01*
X265430772Y-195800057D01*
X268073629Y-196585771D02*
X267216486Y-196585771D01*
X267645058Y-196585771D02*
X267645058Y-195085771D01*
X267502201Y-195300057D01*
X267359343Y-195442914D01*
X267216486Y-195514343D01*
X269787914Y-195014343D02*
X268502200Y-196942914D01*
X271073629Y-196585771D02*
X270216486Y-196585771D01*
X270645058Y-196585771D02*
X270645058Y-195085771D01*
X270502201Y-195300057D01*
X270359343Y-195442914D01*
X270216486Y-195514343D01*
D10*
D11*
X177002200Y-187507200D02*
X285002200Y-187507200D01*
D10*
D13*
X178454581Y-188211962D02*
X179597438Y-188211962D01*
X178776010Y-190211962D02*
X179026010Y-188211962D01*
X180014105Y-190211962D02*
X180180771Y-188878629D01*
X180264105Y-188211962D02*
X180156962Y-188307200D01*
X180240295Y-188402438D01*
X180347439Y-188307200D01*
X180264105Y-188211962D01*
X180240295Y-188402438D01*
X180847438Y-188878629D02*
X181609343Y-188878629D01*
X181216486Y-188211962D02*
X181002200Y-189926248D01*
X181073630Y-190116724D01*
X181252201Y-190211962D01*
X181442677Y-190211962D01*
X182395058Y-190211962D02*
X182216487Y-190116724D01*
X182145057Y-189926248D01*
X182359343Y-188211962D01*
X183930772Y-190116724D02*
X183728391Y-190211962D01*
X183347439Y-190211962D01*
X183168867Y-190116724D01*
X183097438Y-189926248D01*
X183192676Y-189164343D01*
X183311724Y-188973867D01*
X183514105Y-188878629D01*
X183895057Y-188878629D01*
X184073629Y-188973867D01*
X184145057Y-189164343D01*
X184121248Y-189354819D01*
X183145057Y-189545295D01*
X184895057Y-190021486D02*
X184978392Y-190116724D01*
X184871248Y-190211962D01*
X184787915Y-190116724D01*
X184895057Y-190021486D01*
X184871248Y-190211962D01*
X185026010Y-188973867D02*
X185109344Y-189069105D01*
X185002200Y-189164343D01*
X184918867Y-189069105D01*
X185026010Y-188973867D01*
X185002200Y-189164343D01*
D10*
D11*
X178859343Y-185600057D02*
X178359343Y-185600057D01*
X178359343Y-186385771D02*
X178359343Y-184885771D01*
X179073629Y-184885771D01*
X179645057Y-186385771D02*
X179645057Y-185385771D01*
X179645057Y-184885771D02*
X179573628Y-184957200D01*
X179645057Y-185028629D01*
X179716485Y-184957200D01*
X179645057Y-184885771D01*
X179645057Y-185028629D01*
X180573629Y-186385771D02*
X180430771Y-186314343D01*
X180359343Y-186171486D01*
X180359343Y-184885771D01*
X181716485Y-186314343D02*
X181573628Y-186385771D01*
X181287914Y-186385771D01*
X181145057Y-186314343D01*
X181073628Y-186171486D01*
X181073628Y-185600057D01*
X181145057Y-185457200D01*
X181287914Y-185385771D01*
X181573628Y-185385771D01*
X181716485Y-185457200D01*
X181787914Y-185600057D01*
X181787914Y-185742914D01*
X181073628Y-185885771D01*
X182430771Y-186242914D02*
X182502199Y-186314343D01*
X182430771Y-186385771D01*
X182359342Y-186314343D01*
X182430771Y-186242914D01*
X182430771Y-186385771D01*
X182430771Y-185457200D02*
X182502199Y-185528629D01*
X182430771Y-185600057D01*
X182359342Y-185528629D01*
X182430771Y-185457200D01*
X182430771Y-185600057D01*
X184073628Y-185385771D02*
X184645057Y-185385771D01*
X184287914Y-186385771D02*
X184287914Y-185100057D01*
X184359342Y-184957200D01*
X184502200Y-184885771D01*
X184645057Y-184885771D01*
X185359343Y-186385771D02*
X185216485Y-186314343D01*
X185145057Y-186171486D01*
X185145057Y-184885771D01*
X185787914Y-185385771D02*
X186145057Y-186385771D01*
X186502199Y-185385771D02*
X186145057Y-186385771D01*
X186002199Y-186742914D01*
X185930771Y-186814343D01*
X185787914Y-186885771D01*
X187073628Y-185385771D02*
X187073628Y-186885771D01*
X187073628Y-185457200D02*
X187216485Y-185385771D01*
X187502199Y-185385771D01*
X187645056Y-185457200D01*
X187716485Y-185528629D01*
X187787914Y-185671486D01*
X187787914Y-186100057D01*
X187716485Y-186242914D01*
X187645056Y-186314343D01*
X187502199Y-186385771D01*
X187216485Y-186385771D01*
X187073628Y-186314343D01*
X188430771Y-186385771D02*
X188430771Y-185385771D01*
X188430771Y-184885771D02*
X188359342Y-184957200D01*
X188430771Y-185028629D01*
X188502199Y-184957200D01*
X188430771Y-184885771D01*
X188430771Y-185028629D01*
X189145057Y-186242914D02*
X189216485Y-186314343D01*
X189145057Y-186385771D01*
X189073628Y-186314343D01*
X189145057Y-186242914D01*
X189145057Y-186385771D01*
X189859343Y-186385771D02*
X189859343Y-184885771D01*
X190002200Y-185814343D02*
X190430771Y-186385771D01*
X190430771Y-185385771D02*
X189859343Y-185957200D01*
X191073629Y-186385771D02*
X191073629Y-185385771D01*
X191073629Y-184885771D02*
X191002200Y-184957200D01*
X191073629Y-185028629D01*
X191145057Y-184957200D01*
X191073629Y-184885771D01*
X191073629Y-185028629D01*
X192430772Y-186314343D02*
X192287915Y-186385771D01*
X192002201Y-186385771D01*
X191859343Y-186314343D01*
X191787915Y-186242914D01*
X191716486Y-186100057D01*
X191716486Y-185671486D01*
X191787915Y-185528629D01*
X191859343Y-185457200D01*
X192002201Y-185385771D01*
X192287915Y-185385771D01*
X192430772Y-185457200D01*
X193716486Y-186385771D02*
X193716486Y-185600057D01*
X193645057Y-185457200D01*
X193502200Y-185385771D01*
X193216486Y-185385771D01*
X193073629Y-185457200D01*
X193716486Y-186314343D02*
X193573629Y-186385771D01*
X193216486Y-186385771D01*
X193073629Y-186314343D01*
X193002200Y-186171486D01*
X193002200Y-186028629D01*
X193073629Y-185885771D01*
X193216486Y-185814343D01*
X193573629Y-185814343D01*
X193716486Y-185742914D01*
X195073629Y-186385771D02*
X195073629Y-184885771D01*
X195073629Y-186314343D02*
X194930772Y-186385771D01*
X194645058Y-186385771D01*
X194502200Y-186314343D01*
X194430772Y-186242914D01*
X194359343Y-186100057D01*
X194359343Y-185671486D01*
X194430772Y-185528629D01*
X194502200Y-185457200D01*
X194645058Y-185385771D01*
X194930772Y-185385771D01*
X195073629Y-185457200D01*
X195430772Y-186528629D02*
X196573629Y-186528629D01*
X196930772Y-185385771D02*
X196930772Y-186885771D01*
X196930772Y-185457200D02*
X197073629Y-185385771D01*
X197359343Y-185385771D01*
X197502200Y-185457200D01*
X197573629Y-185528629D01*
X197645058Y-185671486D01*
X197645058Y-186100057D01*
X197573629Y-186242914D01*
X197502200Y-186314343D01*
X197359343Y-186385771D01*
X197073629Y-186385771D01*
X196930772Y-186314343D01*
X198930772Y-186314343D02*
X198787915Y-186385771D01*
X198502201Y-186385771D01*
X198359343Y-186314343D01*
X198287915Y-186242914D01*
X198216486Y-186100057D01*
X198216486Y-185671486D01*
X198287915Y-185528629D01*
X198359343Y-185457200D01*
X198502201Y-185385771D01*
X198787915Y-185385771D01*
X198930772Y-185457200D01*
X199573629Y-186385771D02*
X199573629Y-184885771D01*
X199573629Y-185457200D02*
X199716486Y-185385771D01*
X200002200Y-185385771D01*
X200145057Y-185457200D01*
X200216486Y-185528629D01*
X200287915Y-185671486D01*
X200287915Y-186100057D01*
X200216486Y-186242914D01*
X200145057Y-186314343D01*
X200002200Y-186385771D01*
X199716486Y-186385771D01*
X199573629Y-186314343D01*
D10*
D11*
X177002200Y-181507200D02*
X285002200Y-181507200D01*
D10*
D11*
X178287914Y-183614343D02*
X178502200Y-183685771D01*
X178859343Y-183685771D01*
X179002200Y-183614343D01*
X179073629Y-183542914D01*
X179145057Y-183400057D01*
X179145057Y-183257200D01*
X179073629Y-183114343D01*
X179002200Y-183042914D01*
X178859343Y-182971486D01*
X178573629Y-182900057D01*
X178430771Y-182828629D01*
X178359343Y-182757200D01*
X178287914Y-182614343D01*
X178287914Y-182471486D01*
X178359343Y-182328629D01*
X178430771Y-182257200D01*
X178573629Y-182185771D01*
X178930771Y-182185771D01*
X179145057Y-182257200D01*
X179787914Y-183685771D02*
X179787914Y-182185771D01*
X180430771Y-183685771D02*
X180430771Y-182900057D01*
X180359342Y-182757200D01*
X180216485Y-182685771D01*
X180002200Y-182685771D01*
X179859342Y-182757200D01*
X179787914Y-182828629D01*
X181716485Y-183614343D02*
X181573628Y-183685771D01*
X181287914Y-183685771D01*
X181145057Y-183614343D01*
X181073628Y-183471486D01*
X181073628Y-182900057D01*
X181145057Y-182757200D01*
X181287914Y-182685771D01*
X181573628Y-182685771D01*
X181716485Y-182757200D01*
X181787914Y-182900057D01*
X181787914Y-183042914D01*
X181073628Y-183185771D01*
X183002199Y-183614343D02*
X182859342Y-183685771D01*
X182573628Y-183685771D01*
X182430771Y-183614343D01*
X182359342Y-183471486D01*
X182359342Y-182900057D01*
X182430771Y-182757200D01*
X182573628Y-182685771D01*
X182859342Y-182685771D01*
X183002199Y-182757200D01*
X183073628Y-182900057D01*
X183073628Y-183042914D01*
X182359342Y-183185771D01*
X183502199Y-182685771D02*
X184073628Y-182685771D01*
X183716485Y-182185771D02*
X183716485Y-183471486D01*
X183787913Y-183614343D01*
X183930771Y-183685771D01*
X184073628Y-183685771D01*
X184573628Y-183542914D02*
X184645056Y-183614343D01*
X184573628Y-183685771D01*
X184502199Y-183614343D01*
X184573628Y-183542914D01*
X184573628Y-183685771D01*
X184573628Y-182757200D02*
X184645056Y-182828629D01*
X184573628Y-182900057D01*
X184502199Y-182828629D01*
X184573628Y-182757200D01*
X184573628Y-182900057D01*
D10*
D11*
X197002200Y-191507200D02*
X197002200Y-194507200D01*
D10*
D11*
X261002200Y-191507200D02*
X261002200Y-198007200D01*
D10*
X115800000Y-56750000D02*
X119300000Y-56750000D01*
X119293625Y-56753625D02*
G75*
G03X117540000Y-52520000I-1753625J1753625D01*
G01*
X115786375Y-56753625D02*
G75*
G02X117540000Y-52520000I1753625J1753625D01*
G01*
X124888000Y-133818000D02*
X124888000Y-129418000D01*
X124888000Y-129418000D02*
X114888000Y-129418000D01*
X114888000Y-129418000D02*
X114888000Y-133818000D01*
X114888000Y-133818000D02*
X124888000Y-133818000D01*
X124888000Y-132548000D02*
X114888000Y-132548000D01*
X121738000Y-133818000D02*
X121738000Y-132548000D01*
X118038000Y-133818000D02*
X118038000Y-132548000D01*
X126337000Y-74511000D02*
X126337000Y-71011000D01*
X126340625Y-71017375D02*
G75*
G03X122107000Y-72771000I-1753625J-1753625D01*
G01*
X126340625Y-74524625D02*
G75*
G02X122107000Y-72771000I-1753625J1753625D01*
G01*
X127226000Y-117818000D02*
X127226000Y-114318000D01*
X127229625Y-114324375D02*
G75*
G03X122996000Y-116078000I-1753625J-1753625D01*
G01*
X127229625Y-117831625D02*
G75*
G02X122996000Y-116078000I-1753625J1753625D01*
G01*
X119860000Y-90894000D02*
X119860000Y-87394000D01*
X119863625Y-87400375D02*
G75*
G03X115630000Y-89154000I-1753625J-1753625D01*
G01*
X119863625Y-90907625D02*
G75*
G02X115630000Y-89154000I-1753625J1753625D01*
G01*
X131318000Y-93218000D02*
X131318000Y-83058000D01*
X131318000Y-83058000D02*
X128778000Y-83058000D01*
X128778000Y-83058000D02*
X128778000Y-93218000D01*
X128778000Y-93218000D02*
X131318000Y-93218000D01*
X134946000Y-96952000D02*
X134946000Y-100152000D01*
X134946000Y-100152000D02*
X143946000Y-100152000D01*
X143946000Y-100152000D02*
X143946000Y-96952000D01*
X143946000Y-96952000D02*
X134946000Y-96952000D01*
X131826000Y-98552000D02*
X134946000Y-98552000D01*
X147066000Y-98552000D02*
X143946000Y-98552000D01*
X134946000Y-101524000D02*
X134946000Y-104724000D01*
X134946000Y-104724000D02*
X143946000Y-104724000D01*
X143946000Y-104724000D02*
X143946000Y-101524000D01*
X143946000Y-101524000D02*
X134946000Y-101524000D01*
X131826000Y-103124000D02*
X134946000Y-103124000D01*
X147066000Y-103124000D02*
X143946000Y-103124000D01*
X134946000Y-107112000D02*
X134946000Y-110312000D01*
X134946000Y-110312000D02*
X143946000Y-110312000D01*
X143946000Y-110312000D02*
X143946000Y-107112000D01*
X143946000Y-107112000D02*
X134946000Y-107112000D01*
X131826000Y-108712000D02*
X134946000Y-108712000D01*
X147066000Y-108712000D02*
X143946000Y-108712000D01*
X134946000Y-112954000D02*
X134946000Y-116154000D01*
X134946000Y-116154000D02*
X143946000Y-116154000D01*
X143946000Y-116154000D02*
X143946000Y-112954000D01*
X143946000Y-112954000D02*
X134946000Y-112954000D01*
X131826000Y-114554000D02*
X134946000Y-114554000D01*
X147066000Y-114554000D02*
X143946000Y-114554000D01*
X112340000Y-78156000D02*
X112340000Y-81356000D01*
X112340000Y-81356000D02*
X121340000Y-81356000D01*
X121340000Y-81356000D02*
X121340000Y-78156000D01*
X121340000Y-78156000D02*
X112340000Y-78156000D01*
X109220000Y-79756000D02*
X112340000Y-79756000D01*
X124460000Y-79756000D02*
X121340000Y-79756000D01*
X119816000Y-100406000D02*
X119816000Y-97206000D01*
X119816000Y-97206000D02*
X110816000Y-97206000D01*
X110816000Y-97206000D02*
X110816000Y-100406000D01*
X110816000Y-100406000D02*
X119816000Y-100406000D01*
X122936000Y-98806000D02*
X119816000Y-98806000D01*
X107696000Y-98806000D02*
X110816000Y-98806000D01*
X119452000Y-64059000D02*
X119452000Y-67259000D01*
X119452000Y-67259000D02*
X128452000Y-67259000D01*
X128452000Y-67259000D02*
X128452000Y-64059000D01*
X128452000Y-64059000D02*
X119452000Y-64059000D01*
X116332000Y-65659000D02*
X119452000Y-65659000D01*
X131572000Y-65659000D02*
X128452000Y-65659000D01*
X119452000Y-59106000D02*
X119452000Y-62306000D01*
X119452000Y-62306000D02*
X128452000Y-62306000D01*
X128452000Y-62306000D02*
X128452000Y-59106000D01*
X128452000Y-59106000D02*
X119452000Y-59106000D01*
X116332000Y-60706000D02*
X119452000Y-60706000D01*
X131572000Y-60706000D02*
X128452000Y-60706000D01*
X111316000Y-117184000D02*
X105566000Y-117184000D01*
X105566000Y-117184000D02*
X105566000Y-124584000D01*
X105566000Y-124584000D02*
X111316000Y-124584000D01*
X111316000Y-124584000D02*
X111316000Y-117184000D01*
X111716000Y-119284000D02*
X111716000Y-116784000D01*
X111716000Y-116784000D02*
X109216000Y-116784000D01*
X129556000Y-118892000D02*
X129556000Y-121392000D01*
X129556000Y-121392000D02*
X136556000Y-121392000D01*
X136556000Y-121392000D02*
X136556000Y-118892000D01*
X136556000Y-118892000D02*
X129556000Y-118892000D01*
X138954000Y-118892000D02*
X138954000Y-121392000D01*
X138954000Y-121392000D02*
X145954000Y-121392000D01*
X145954000Y-121392000D02*
X145954000Y-118892000D01*
X145954000Y-118892000D02*
X138954000Y-118892000D01*
X119952000Y-117184000D02*
X114202000Y-117184000D01*
X114202000Y-117184000D02*
X114202000Y-124584000D01*
X114202000Y-124584000D02*
X119952000Y-124584000D01*
X119952000Y-124584000D02*
X119952000Y-117184000D01*
X120352000Y-119284000D02*
X120352000Y-116784000D01*
X120352000Y-116784000D02*
X117852000Y-116784000D01*
X111316000Y-104992000D02*
X105566000Y-104992000D01*
X105566000Y-104992000D02*
X105566000Y-114892000D01*
X105566000Y-114892000D02*
X111316000Y-114892000D01*
X111316000Y-114892000D02*
X111316000Y-104992000D01*
X111716000Y-107092000D02*
X111716000Y-104592000D01*
X111716000Y-104592000D02*
X109216000Y-104592000D01*
X128758000Y-97044000D02*
X126258000Y-97044000D01*
X126258000Y-97044000D02*
X126258000Y-104044000D01*
X126258000Y-104044000D02*
X128758000Y-104044000D01*
X128758000Y-104044000D02*
X128758000Y-97044000D01*
X119952000Y-102706000D02*
X114202000Y-102706000D01*
X114202000Y-102706000D02*
X114202000Y-115106000D01*
X114202000Y-115106000D02*
X119952000Y-115106000D01*
X119952000Y-115106000D02*
X119952000Y-102706000D01*
X120352000Y-104806000D02*
X120352000Y-102306000D01*
X120352000Y-102306000D02*
X117852000Y-102306000D01*
X111443000Y-66765000D02*
X105693000Y-66765000D01*
X105693000Y-66765000D02*
X105693000Y-76665000D01*
X105693000Y-76665000D02*
X111443000Y-76665000D01*
X111443000Y-76665000D02*
X111443000Y-66765000D01*
X111843000Y-68865000D02*
X111843000Y-66365000D01*
X111843000Y-66365000D02*
X109343000Y-66365000D01*
X111570000Y-84418000D02*
X105820000Y-84418000D01*
X105820000Y-84418000D02*
X105820000Y-94318000D01*
X105820000Y-94318000D02*
X111570000Y-94318000D01*
X111570000Y-94318000D02*
X111570000Y-84418000D01*
X111970000Y-86518000D02*
X111970000Y-84018000D01*
X111970000Y-84018000D02*
X109470000Y-84018000D01*
X120079000Y-69178000D02*
X114329000Y-69178000D01*
X114329000Y-69178000D02*
X114329000Y-76578000D01*
X114329000Y-76578000D02*
X120079000Y-76578000D01*
X120079000Y-76578000D02*
X120079000Y-69178000D01*
X120479000Y-71278000D02*
X120479000Y-68778000D01*
X120479000Y-68778000D02*
X117979000Y-68778000D01*
X106897000Y-58610000D02*
X106897000Y-64360000D01*
X106897000Y-64360000D02*
X114297000Y-64360000D01*
X114297000Y-64360000D02*
X114297000Y-58610000D01*
X114297000Y-58610000D02*
X106897000Y-58610000D01*
X108997000Y-58210000D02*
X106497000Y-58210000D01*
X106497000Y-58210000D02*
X106497000Y-60710000D01*
D11*
X112778048Y-53420381D02*
X112206619Y-53420381D01*
X112492333Y-53420381D02*
X112492333Y-52420381D01*
X112397095Y-52563238D01*
X112301857Y-52658476D01*
X112206619Y-52706095D01*
X113159000Y-53134667D02*
X113635191Y-53134667D01*
X113063762Y-53420381D02*
X113397095Y-52420381D01*
X113730429Y-53420381D01*
X114063762Y-53039429D02*
X114825667Y-53039429D01*
X115301857Y-53420381D02*
X115301857Y-52420381D01*
X115873286Y-53420381D01*
X115873286Y-52420381D01*
X116349476Y-53420381D02*
X116349476Y-52420381D01*
X116730429Y-52420381D01*
X116825667Y-52468000D01*
X116873286Y-52515619D01*
X116920905Y-52610857D01*
X116920905Y-52753714D01*
X116873286Y-52848952D01*
X116825667Y-52896571D01*
X116730429Y-52944190D01*
X116349476Y-52944190D01*
X117349476Y-53420381D02*
X117349476Y-52420381D01*
X117920905Y-53420381D01*
X117920905Y-52420381D01*
X118397095Y-53039429D02*
X119159000Y-53039429D01*
X119635190Y-52896571D02*
X119968524Y-52896571D01*
X120111381Y-53420381D02*
X119635190Y-53420381D01*
X119635190Y-52420381D01*
X120111381Y-52420381D01*
X120873286Y-52896571D02*
X121016143Y-52944190D01*
X121063762Y-52991810D01*
X121111381Y-53087048D01*
X121111381Y-53229905D01*
X121063762Y-53325143D01*
X121016143Y-53372762D01*
X120920905Y-53420381D01*
X120539952Y-53420381D01*
X120539952Y-52420381D01*
X120873286Y-52420381D01*
X120968524Y-52468000D01*
X121016143Y-52515619D01*
X121063762Y-52610857D01*
X121063762Y-52706095D01*
X121016143Y-52801333D01*
X120968524Y-52848952D01*
X120873286Y-52896571D01*
X120539952Y-52896571D01*
X122111381Y-53325143D02*
X122063762Y-53372762D01*
X121920905Y-53420381D01*
X121825667Y-53420381D01*
X121682809Y-53372762D01*
X121587571Y-53277524D01*
X121539952Y-53182286D01*
X121492333Y-52991810D01*
X121492333Y-52848952D01*
X121539952Y-52658476D01*
X121587571Y-52563238D01*
X121682809Y-52468000D01*
X121825667Y-52420381D01*
X121920905Y-52420381D01*
X122063762Y-52468000D01*
X122111381Y-52515619D01*
X117444762Y-51987619D02*
X117349524Y-51940000D01*
X117254286Y-51844762D01*
X117111429Y-51701905D01*
X117016190Y-51654286D01*
X116920952Y-51654286D01*
X116968571Y-51892381D02*
X116873333Y-51844762D01*
X116778095Y-51749524D01*
X116730476Y-51559048D01*
X116730476Y-51225714D01*
X116778095Y-51035238D01*
X116873333Y-50940000D01*
X116968571Y-50892381D01*
X117159048Y-50892381D01*
X117254286Y-50940000D01*
X117349524Y-51035238D01*
X117397143Y-51225714D01*
X117397143Y-51559048D01*
X117349524Y-51749524D01*
X117254286Y-51844762D01*
X117159048Y-51892381D01*
X116968571Y-51892381D01*
X117778095Y-50987619D02*
X117825714Y-50940000D01*
X117920952Y-50892381D01*
X118159048Y-50892381D01*
X118254286Y-50940000D01*
X118301905Y-50987619D01*
X118349524Y-51082857D01*
X118349524Y-51178095D01*
X118301905Y-51320952D01*
X117730476Y-51892381D01*
X118349524Y-51892381D01*
X143580381Y-71221047D02*
X143056571Y-71221047D01*
X142961333Y-71268666D01*
X142913714Y-71363904D01*
X142913714Y-71554381D01*
X142961333Y-71649619D01*
X143532762Y-71221047D02*
X143580381Y-71316285D01*
X143580381Y-71554381D01*
X143532762Y-71649619D01*
X143437524Y-71697238D01*
X143342286Y-71697238D01*
X143247048Y-71649619D01*
X143199429Y-71554381D01*
X143199429Y-71316285D01*
X143151810Y-71221047D01*
X143580381Y-70744857D02*
X142913714Y-70744857D01*
X143104190Y-70744857D02*
X143008952Y-70697238D01*
X142961333Y-70649619D01*
X142913714Y-70554381D01*
X142913714Y-70459142D01*
X143580381Y-69697237D02*
X142580381Y-69697237D01*
X143532762Y-69697237D02*
X143580381Y-69792475D01*
X143580381Y-69982952D01*
X143532762Y-70078190D01*
X143485143Y-70125809D01*
X143389905Y-70173428D01*
X143104190Y-70173428D01*
X143008952Y-70125809D01*
X142961333Y-70078190D01*
X142913714Y-69982952D01*
X142913714Y-69792475D01*
X142961333Y-69697237D01*
X142913714Y-68792475D02*
X143580381Y-68792475D01*
X142913714Y-69221047D02*
X143437524Y-69221047D01*
X143532762Y-69173428D01*
X143580381Y-69078190D01*
X143580381Y-68935332D01*
X143532762Y-68840094D01*
X143485143Y-68792475D01*
X143580381Y-68316285D02*
X142913714Y-68316285D01*
X142580381Y-68316285D02*
X142628000Y-68363904D01*
X142675619Y-68316285D01*
X142628000Y-68268666D01*
X142580381Y-68316285D01*
X142675619Y-68316285D01*
X142913714Y-67840095D02*
X143580381Y-67840095D01*
X143008952Y-67840095D02*
X142961333Y-67792476D01*
X142913714Y-67697238D01*
X142913714Y-67554380D01*
X142961333Y-67459142D01*
X143056571Y-67411523D01*
X143580381Y-67411523D01*
X143580381Y-66792476D02*
X143532762Y-66887714D01*
X143485143Y-66935333D01*
X143389905Y-66982952D01*
X143104190Y-66982952D01*
X143008952Y-66935333D01*
X142961333Y-66887714D01*
X142913714Y-66792476D01*
X142913714Y-66649618D01*
X142961333Y-66554380D01*
X143008952Y-66506761D01*
X143104190Y-66459142D01*
X143389905Y-66459142D01*
X143485143Y-66506761D01*
X143532762Y-66554380D01*
X143580381Y-66649618D01*
X143580381Y-66792476D01*
X143675619Y-66268666D02*
X143675619Y-65506761D01*
X143580381Y-65268666D02*
X142913714Y-65268666D01*
X143008952Y-65268666D02*
X142961333Y-65221047D01*
X142913714Y-65125809D01*
X142913714Y-64982951D01*
X142961333Y-64887713D01*
X143056571Y-64840094D01*
X143580381Y-64840094D01*
X143056571Y-64840094D02*
X142961333Y-64792475D01*
X142913714Y-64697237D01*
X142913714Y-64554380D01*
X142961333Y-64459142D01*
X143056571Y-64411523D01*
X143580381Y-64411523D01*
X143580381Y-63935333D02*
X142913714Y-63935333D01*
X142580381Y-63935333D02*
X142628000Y-63982952D01*
X142675619Y-63935333D01*
X142628000Y-63887714D01*
X142580381Y-63935333D01*
X142675619Y-63935333D01*
X142913714Y-63459143D02*
X143580381Y-63459143D01*
X143008952Y-63459143D02*
X142961333Y-63411524D01*
X142913714Y-63316286D01*
X142913714Y-63173428D01*
X142961333Y-63078190D01*
X143056571Y-63030571D01*
X143580381Y-63030571D01*
X143580381Y-62554381D02*
X142913714Y-62554381D01*
X142580381Y-62554381D02*
X142628000Y-62602000D01*
X142675619Y-62554381D01*
X142628000Y-62506762D01*
X142580381Y-62554381D01*
X142675619Y-62554381D01*
X119721334Y-135390381D02*
X119388000Y-134914190D01*
X119149905Y-135390381D02*
X119149905Y-134390381D01*
X119530858Y-134390381D01*
X119626096Y-134438000D01*
X119673715Y-134485619D01*
X119721334Y-134580857D01*
X119721334Y-134723714D01*
X119673715Y-134818952D01*
X119626096Y-134866571D01*
X119530858Y-134914190D01*
X119149905Y-134914190D01*
X120673715Y-135390381D02*
X120102286Y-135390381D01*
X120388000Y-135390381D02*
X120388000Y-134390381D01*
X120292762Y-134533238D01*
X120197524Y-134628476D01*
X120102286Y-134676095D01*
X127829381Y-76675762D02*
X127829381Y-77247191D01*
X127829381Y-76961477D02*
X126829381Y-76961477D01*
X126972238Y-77056715D01*
X127067476Y-77151953D01*
X127115095Y-77247191D01*
X127543667Y-76294810D02*
X127543667Y-75818619D01*
X127829381Y-76390048D02*
X126829381Y-76056715D01*
X127829381Y-75723381D01*
X127924619Y-75628143D02*
X127924619Y-74866238D01*
X127829381Y-74628143D02*
X126829381Y-74628143D01*
X127829381Y-74056714D01*
X126829381Y-74056714D01*
X127829381Y-73580524D02*
X126829381Y-73580524D01*
X126829381Y-73199571D01*
X126877000Y-73104333D01*
X126924619Y-73056714D01*
X127019857Y-73009095D01*
X127162714Y-73009095D01*
X127257952Y-73056714D01*
X127305571Y-73104333D01*
X127353190Y-73199571D01*
X127353190Y-73580524D01*
X127829381Y-72580524D02*
X126829381Y-72580524D01*
X127829381Y-72009095D01*
X126829381Y-72009095D01*
X127924619Y-71771000D02*
X127924619Y-71009095D01*
X127305571Y-70771000D02*
X127305571Y-70437666D01*
X127829381Y-70294809D02*
X127829381Y-70771000D01*
X126829381Y-70771000D01*
X126829381Y-70294809D01*
X127305571Y-69532904D02*
X127353190Y-69390047D01*
X127400810Y-69342428D01*
X127496048Y-69294809D01*
X127638905Y-69294809D01*
X127734143Y-69342428D01*
X127781762Y-69390047D01*
X127829381Y-69485285D01*
X127829381Y-69866238D01*
X126829381Y-69866238D01*
X126829381Y-69532904D01*
X126877000Y-69437666D01*
X126924619Y-69390047D01*
X127019857Y-69342428D01*
X127115095Y-69342428D01*
X127210333Y-69390047D01*
X127257952Y-69437666D01*
X127305571Y-69532904D01*
X127305571Y-69866238D01*
X127734143Y-68294809D02*
X127781762Y-68342428D01*
X127829381Y-68485285D01*
X127829381Y-68580523D01*
X127781762Y-68723381D01*
X127686524Y-68818619D01*
X127591286Y-68866238D01*
X127400810Y-68913857D01*
X127257952Y-68913857D01*
X127067476Y-68866238D01*
X126972238Y-68818619D01*
X126877000Y-68723381D01*
X126829381Y-68580523D01*
X126829381Y-68485285D01*
X126877000Y-68342428D01*
X126924619Y-68294809D01*
X121574619Y-72866238D02*
X121527000Y-72961476D01*
X121431762Y-73056714D01*
X121288905Y-73199571D01*
X121241286Y-73294810D01*
X121241286Y-73390048D01*
X121479381Y-73342429D02*
X121431762Y-73437667D01*
X121336524Y-73532905D01*
X121146048Y-73580524D01*
X120812714Y-73580524D01*
X120622238Y-73532905D01*
X120527000Y-73437667D01*
X120479381Y-73342429D01*
X120479381Y-73151952D01*
X120527000Y-73056714D01*
X120622238Y-72961476D01*
X120812714Y-72913857D01*
X121146048Y-72913857D01*
X121336524Y-72961476D01*
X121431762Y-73056714D01*
X121479381Y-73151952D01*
X121479381Y-73342429D01*
X120479381Y-72580524D02*
X120479381Y-71961476D01*
X120860333Y-72294810D01*
X120860333Y-72151952D01*
X120907952Y-72056714D01*
X120955571Y-72009095D01*
X121050810Y-71961476D01*
X121288905Y-71961476D01*
X121384143Y-72009095D01*
X121431762Y-72056714D01*
X121479381Y-72151952D01*
X121479381Y-72437667D01*
X121431762Y-72532905D01*
X121384143Y-72580524D01*
X128718381Y-119982762D02*
X128718381Y-120554191D01*
X128718381Y-120268477D02*
X127718381Y-120268477D01*
X127861238Y-120363715D01*
X127956476Y-120458953D01*
X128004095Y-120554191D01*
X128432667Y-119601810D02*
X128432667Y-119125619D01*
X128718381Y-119697048D02*
X127718381Y-119363715D01*
X128718381Y-119030381D01*
X128813619Y-118935143D02*
X128813619Y-118173238D01*
X128718381Y-117935143D02*
X127718381Y-117935143D01*
X128718381Y-117363714D01*
X127718381Y-117363714D01*
X128718381Y-116887524D02*
X127718381Y-116887524D01*
X127718381Y-116506571D01*
X127766000Y-116411333D01*
X127813619Y-116363714D01*
X127908857Y-116316095D01*
X128051714Y-116316095D01*
X128146952Y-116363714D01*
X128194571Y-116411333D01*
X128242190Y-116506571D01*
X128242190Y-116887524D01*
X128718381Y-115887524D02*
X127718381Y-115887524D01*
X128718381Y-115316095D01*
X127718381Y-115316095D01*
X128813619Y-115078000D02*
X128813619Y-114316095D01*
X128194571Y-114078000D02*
X128194571Y-113744666D01*
X128718381Y-113601809D02*
X128718381Y-114078000D01*
X127718381Y-114078000D01*
X127718381Y-113601809D01*
X128194571Y-112839904D02*
X128242190Y-112697047D01*
X128289810Y-112649428D01*
X128385048Y-112601809D01*
X128527905Y-112601809D01*
X128623143Y-112649428D01*
X128670762Y-112697047D01*
X128718381Y-112792285D01*
X128718381Y-113173238D01*
X127718381Y-113173238D01*
X127718381Y-112839904D01*
X127766000Y-112744666D01*
X127813619Y-112697047D01*
X127908857Y-112649428D01*
X128004095Y-112649428D01*
X128099333Y-112697047D01*
X128146952Y-112744666D01*
X128194571Y-112839904D01*
X128194571Y-113173238D01*
X128623143Y-111601809D02*
X128670762Y-111649428D01*
X128718381Y-111792285D01*
X128718381Y-111887523D01*
X128670762Y-112030381D01*
X128575524Y-112125619D01*
X128480286Y-112173238D01*
X128289810Y-112220857D01*
X128146952Y-112220857D01*
X127956476Y-112173238D01*
X127861238Y-112125619D01*
X127766000Y-112030381D01*
X127718381Y-111887523D01*
X127718381Y-111792285D01*
X127766000Y-111649428D01*
X127813619Y-111601809D01*
X122463619Y-116173238D02*
X122416000Y-116268476D01*
X122320762Y-116363714D01*
X122177905Y-116506571D01*
X122130286Y-116601810D01*
X122130286Y-116697048D01*
X122368381Y-116649429D02*
X122320762Y-116744667D01*
X122225524Y-116839905D01*
X122035048Y-116887524D01*
X121701714Y-116887524D01*
X121511238Y-116839905D01*
X121416000Y-116744667D01*
X121368381Y-116649429D01*
X121368381Y-116458952D01*
X121416000Y-116363714D01*
X121511238Y-116268476D01*
X121701714Y-116220857D01*
X122035048Y-116220857D01*
X122225524Y-116268476D01*
X122320762Y-116363714D01*
X122368381Y-116458952D01*
X122368381Y-116649429D01*
X122368381Y-115268476D02*
X122368381Y-115839905D01*
X122368381Y-115554191D02*
X121368381Y-115554191D01*
X121511238Y-115649429D01*
X121606476Y-115744667D01*
X121654095Y-115839905D01*
X121352381Y-93058762D02*
X121352381Y-93630191D01*
X121352381Y-93344477D02*
X120352381Y-93344477D01*
X120495238Y-93439715D01*
X120590476Y-93534953D01*
X120638095Y-93630191D01*
X121066667Y-92677810D02*
X121066667Y-92201619D01*
X121352381Y-92773048D02*
X120352381Y-92439715D01*
X121352381Y-92106381D01*
X121447619Y-92011143D02*
X121447619Y-91249238D01*
X121352381Y-91011143D02*
X120352381Y-91011143D01*
X121352381Y-90439714D01*
X120352381Y-90439714D01*
X121352381Y-89963524D02*
X120352381Y-89963524D01*
X120352381Y-89582571D01*
X120400000Y-89487333D01*
X120447619Y-89439714D01*
X120542857Y-89392095D01*
X120685714Y-89392095D01*
X120780952Y-89439714D01*
X120828571Y-89487333D01*
X120876190Y-89582571D01*
X120876190Y-89963524D01*
X121352381Y-88963524D02*
X120352381Y-88963524D01*
X121352381Y-88392095D01*
X120352381Y-88392095D01*
X121447619Y-88154000D02*
X121447619Y-87392095D01*
X120828571Y-87154000D02*
X120828571Y-86820666D01*
X121352381Y-86677809D02*
X121352381Y-87154000D01*
X120352381Y-87154000D01*
X120352381Y-86677809D01*
X120828571Y-85915904D02*
X120876190Y-85773047D01*
X120923810Y-85725428D01*
X121019048Y-85677809D01*
X121161905Y-85677809D01*
X121257143Y-85725428D01*
X121304762Y-85773047D01*
X121352381Y-85868285D01*
X121352381Y-86249238D01*
X120352381Y-86249238D01*
X120352381Y-85915904D01*
X120400000Y-85820666D01*
X120447619Y-85773047D01*
X120542857Y-85725428D01*
X120638095Y-85725428D01*
X120733333Y-85773047D01*
X120780952Y-85820666D01*
X120828571Y-85915904D01*
X120828571Y-86249238D01*
X121257143Y-84677809D02*
X121304762Y-84725428D01*
X121352381Y-84868285D01*
X121352381Y-84963523D01*
X121304762Y-85106381D01*
X121209524Y-85201619D01*
X121114286Y-85249238D01*
X120923810Y-85296857D01*
X120780952Y-85296857D01*
X120590476Y-85249238D01*
X120495238Y-85201619D01*
X120400000Y-85106381D01*
X120352381Y-84963523D01*
X120352381Y-84868285D01*
X120400000Y-84725428D01*
X120447619Y-84677809D01*
X115097619Y-89249238D02*
X115050000Y-89344476D01*
X114954762Y-89439714D01*
X114811905Y-89582571D01*
X114764286Y-89677810D01*
X114764286Y-89773048D01*
X115002381Y-89725429D02*
X114954762Y-89820667D01*
X114859524Y-89915905D01*
X114669048Y-89963524D01*
X114335714Y-89963524D01*
X114145238Y-89915905D01*
X114050000Y-89820667D01*
X114002381Y-89725429D01*
X114002381Y-89534952D01*
X114050000Y-89439714D01*
X114145238Y-89344476D01*
X114335714Y-89296857D01*
X114669048Y-89296857D01*
X114859524Y-89344476D01*
X114954762Y-89439714D01*
X115002381Y-89534952D01*
X115002381Y-89725429D01*
X114335714Y-88439714D02*
X115002381Y-88439714D01*
X113954762Y-88677810D02*
X114669048Y-88915905D01*
X114669048Y-88296857D01*
X129309905Y-94730381D02*
X129309905Y-93730381D01*
X129690858Y-93730381D01*
X129786096Y-93778000D01*
X129833715Y-93825619D01*
X129881334Y-93920857D01*
X129881334Y-94063714D01*
X129833715Y-94158952D01*
X129786096Y-94206571D01*
X129690858Y-94254190D01*
X129309905Y-94254190D01*
X130357524Y-94730381D02*
X130548000Y-94730381D01*
X130643239Y-94682762D01*
X130690858Y-94635143D01*
X130786096Y-94492286D01*
X130833715Y-94301810D01*
X130833715Y-93920857D01*
X130786096Y-93825619D01*
X130738477Y-93778000D01*
X130643239Y-93730381D01*
X130452762Y-93730381D01*
X130357524Y-93778000D01*
X130309905Y-93825619D01*
X130262286Y-93920857D01*
X130262286Y-94158952D01*
X130309905Y-94254190D01*
X130357524Y-94301810D01*
X130452762Y-94349429D01*
X130643239Y-94349429D01*
X130738477Y-94301810D01*
X130786096Y-94254190D01*
X130833715Y-94158952D01*
X115625524Y-96598381D02*
X115292190Y-96122190D01*
X115054095Y-96598381D02*
X115054095Y-95598381D01*
X115435048Y-95598381D01*
X115530286Y-95646000D01*
X115577905Y-95693619D01*
X115625524Y-95788857D01*
X115625524Y-95931714D01*
X115577905Y-96026952D01*
X115530286Y-96074571D01*
X115435048Y-96122190D01*
X115054095Y-96122190D01*
X97309524Y-137572381D02*
X97309524Y-136572381D01*
X97642858Y-137286667D01*
X97976191Y-136572381D01*
X97976191Y-137572381D01*
X98595238Y-137572381D02*
X98500000Y-137524762D01*
X98452381Y-137477143D01*
X98404762Y-137381905D01*
X98404762Y-137096190D01*
X98452381Y-137000952D01*
X98500000Y-136953333D01*
X98595238Y-136905714D01*
X98738096Y-136905714D01*
X98833334Y-136953333D01*
X98880953Y-137000952D01*
X98928572Y-137096190D01*
X98928572Y-137381905D01*
X98880953Y-137477143D01*
X98833334Y-137524762D01*
X98738096Y-137572381D01*
X98595238Y-137572381D01*
X99785715Y-136905714D02*
X99785715Y-137572381D01*
X99357143Y-136905714D02*
X99357143Y-137429524D01*
X99404762Y-137524762D01*
X99500000Y-137572381D01*
X99642858Y-137572381D01*
X99738096Y-137524762D01*
X99785715Y-137477143D01*
X100261905Y-136905714D02*
X100261905Y-137572381D01*
X100261905Y-137000952D02*
X100309524Y-136953333D01*
X100404762Y-136905714D01*
X100547620Y-136905714D01*
X100642858Y-136953333D01*
X100690477Y-137048571D01*
X100690477Y-137572381D01*
X101023810Y-136905714D02*
X101404762Y-136905714D01*
X101166667Y-136572381D02*
X101166667Y-137429524D01*
X101214286Y-137524762D01*
X101309524Y-137572381D01*
X101404762Y-137572381D01*
X101738096Y-137572381D02*
X101738096Y-136905714D01*
X101738096Y-136572381D02*
X101690477Y-136620000D01*
X101738096Y-136667619D01*
X101785715Y-136620000D01*
X101738096Y-136572381D01*
X101738096Y-136667619D01*
X102214286Y-136905714D02*
X102214286Y-137572381D01*
X102214286Y-137000952D02*
X102261905Y-136953333D01*
X102357143Y-136905714D01*
X102500001Y-136905714D01*
X102595239Y-136953333D01*
X102642858Y-137048571D01*
X102642858Y-137572381D01*
X103547620Y-136905714D02*
X103547620Y-137715238D01*
X103500001Y-137810476D01*
X103452382Y-137858095D01*
X103357143Y-137905714D01*
X103214286Y-137905714D01*
X103119048Y-137858095D01*
X103547620Y-137524762D02*
X103452382Y-137572381D01*
X103261905Y-137572381D01*
X103166667Y-137524762D01*
X103119048Y-137477143D01*
X103071429Y-137381905D01*
X103071429Y-137096190D01*
X103119048Y-137000952D01*
X103166667Y-136953333D01*
X103261905Y-136905714D01*
X103452382Y-136905714D01*
X103547620Y-136953333D01*
X104023810Y-137572381D02*
X104023810Y-136572381D01*
X104023810Y-137048571D02*
X104595239Y-137048571D01*
X104595239Y-137572381D02*
X104595239Y-136572381D01*
X105214286Y-137572381D02*
X105119048Y-137524762D01*
X105071429Y-137477143D01*
X105023810Y-137381905D01*
X105023810Y-137096190D01*
X105071429Y-137000952D01*
X105119048Y-136953333D01*
X105214286Y-136905714D01*
X105357144Y-136905714D01*
X105452382Y-136953333D01*
X105500001Y-137000952D01*
X105547620Y-137096190D01*
X105547620Y-137381905D01*
X105500001Y-137477143D01*
X105452382Y-137524762D01*
X105357144Y-137572381D01*
X105214286Y-137572381D01*
X106119048Y-137572381D02*
X106023810Y-137524762D01*
X105976191Y-137429524D01*
X105976191Y-136572381D01*
X106880954Y-137524762D02*
X106785716Y-137572381D01*
X106595239Y-137572381D01*
X106500001Y-137524762D01*
X106452382Y-137429524D01*
X106452382Y-137048571D01*
X106500001Y-136953333D01*
X106595239Y-136905714D01*
X106785716Y-136905714D01*
X106880954Y-136953333D01*
X106928573Y-137048571D01*
X106928573Y-137143810D01*
X106452382Y-137239048D01*
X107119049Y-137667619D02*
X107880954Y-137667619D01*
X108023811Y-136572381D02*
X108642859Y-136572381D01*
X108309525Y-136953333D01*
X108452383Y-136953333D01*
X108547621Y-137000952D01*
X108595240Y-137048571D01*
X108642859Y-137143810D01*
X108642859Y-137381905D01*
X108595240Y-137477143D01*
X108547621Y-137524762D01*
X108452383Y-137572381D01*
X108166668Y-137572381D01*
X108071430Y-137524762D01*
X108023811Y-137477143D01*
X109071430Y-137477143D02*
X109119049Y-137524762D01*
X109071430Y-137572381D01*
X109023811Y-137524762D01*
X109071430Y-137477143D01*
X109071430Y-137572381D01*
X109500001Y-136667619D02*
X109547620Y-136620000D01*
X109642858Y-136572381D01*
X109880954Y-136572381D01*
X109976192Y-136620000D01*
X110023811Y-136667619D01*
X110071430Y-136762857D01*
X110071430Y-136858095D01*
X110023811Y-137000952D01*
X109452382Y-137572381D01*
X110071430Y-137572381D01*
X110500001Y-137572381D02*
X110500001Y-136905714D01*
X110500001Y-137000952D02*
X110547620Y-136953333D01*
X110642858Y-136905714D01*
X110785716Y-136905714D01*
X110880954Y-136953333D01*
X110928573Y-137048571D01*
X110928573Y-137572381D01*
X110928573Y-137048571D02*
X110976192Y-136953333D01*
X111071430Y-136905714D01*
X111214287Y-136905714D01*
X111309525Y-136953333D01*
X111357144Y-137048571D01*
X111357144Y-137572381D01*
X111833334Y-137572381D02*
X111833334Y-136905714D01*
X111833334Y-137000952D02*
X111880953Y-136953333D01*
X111976191Y-136905714D01*
X112119049Y-136905714D01*
X112214287Y-136953333D01*
X112261906Y-137048571D01*
X112261906Y-137572381D01*
X112261906Y-137048571D02*
X112309525Y-136953333D01*
X112404763Y-136905714D01*
X112547620Y-136905714D01*
X112642858Y-136953333D01*
X112690477Y-137048571D01*
X112690477Y-137572381D01*
X112928572Y-137667619D02*
X113690477Y-137667619D01*
X113928572Y-137572381D02*
X113928572Y-136572381D01*
X114261906Y-137286667D01*
X114595239Y-136572381D01*
X114595239Y-137572381D01*
X114976191Y-136572381D02*
X115595239Y-136572381D01*
X115261905Y-136953333D01*
X115404763Y-136953333D01*
X115500001Y-137000952D01*
X115547620Y-137048571D01*
X115595239Y-137143810D01*
X115595239Y-137381905D01*
X115547620Y-137477143D01*
X115500001Y-137524762D01*
X115404763Y-137572381D01*
X115119048Y-137572381D01*
X115023810Y-137524762D01*
X114976191Y-137477143D01*
X115785715Y-137667619D02*
X116547620Y-137667619D01*
X116785715Y-137572381D02*
X116785715Y-136572381D01*
X117023810Y-136572381D01*
X117166668Y-136620000D01*
X117261906Y-136715238D01*
X117309525Y-136810476D01*
X117357144Y-137000952D01*
X117357144Y-137143810D01*
X117309525Y-137334286D01*
X117261906Y-137429524D01*
X117166668Y-137524762D01*
X117023810Y-137572381D01*
X116785715Y-137572381D01*
X117785715Y-137572381D02*
X117785715Y-136572381D01*
X118261905Y-137572381D02*
X118261905Y-136572381D01*
X118833334Y-137572381D01*
X118833334Y-136572381D01*
X119357143Y-137572381D02*
X119547619Y-137572381D01*
X119642858Y-137524762D01*
X119690477Y-137477143D01*
X119785715Y-137334286D01*
X119833334Y-137143810D01*
X119833334Y-136762857D01*
X119785715Y-136667619D01*
X119738096Y-136620000D01*
X119642858Y-136572381D01*
X119452381Y-136572381D01*
X119357143Y-136620000D01*
X119309524Y-136667619D01*
X119261905Y-136762857D01*
X119261905Y-137000952D01*
X119309524Y-137096190D01*
X119357143Y-137143810D01*
X119452381Y-137191429D01*
X119642858Y-137191429D01*
X119738096Y-137143810D01*
X119785715Y-137096190D01*
X119833334Y-137000952D01*
X120690477Y-136572381D02*
X120500000Y-136572381D01*
X120404762Y-136620000D01*
X120357143Y-136667619D01*
X120261905Y-136810476D01*
X120214286Y-137000952D01*
X120214286Y-137381905D01*
X120261905Y-137477143D01*
X120309524Y-137524762D01*
X120404762Y-137572381D01*
X120595239Y-137572381D01*
X120690477Y-137524762D01*
X120738096Y-137477143D01*
X120785715Y-137381905D01*
X120785715Y-137143810D01*
X120738096Y-137048571D01*
X120690477Y-137000952D01*
X120595239Y-136953333D01*
X120404762Y-136953333D01*
X120309524Y-137000952D01*
X120261905Y-137048571D01*
X120214286Y-137143810D01*
X121690477Y-136572381D02*
X121214286Y-136572381D01*
X121166667Y-137048571D01*
X121214286Y-137000952D01*
X121309524Y-136953333D01*
X121547620Y-136953333D01*
X121642858Y-137000952D01*
X121690477Y-137048571D01*
X121738096Y-137143810D01*
X121738096Y-137381905D01*
X121690477Y-137477143D01*
X121642858Y-137524762D01*
X121547620Y-137572381D01*
X121309524Y-137572381D01*
X121214286Y-137524762D01*
X121166667Y-137477143D01*
X108466667Y-129952381D02*
X108133333Y-129476190D01*
X107895238Y-129952381D02*
X107895238Y-128952381D01*
X108276191Y-128952381D01*
X108371429Y-129000000D01*
X108419048Y-129047619D01*
X108466667Y-129142857D01*
X108466667Y-129285714D01*
X108419048Y-129380952D01*
X108371429Y-129428571D01*
X108276191Y-129476190D01*
X107895238Y-129476190D01*
X108895238Y-129428571D02*
X109228572Y-129428571D01*
X109371429Y-129952381D02*
X108895238Y-129952381D01*
X108895238Y-128952381D01*
X109371429Y-128952381D01*
X110133334Y-129428571D02*
X109800000Y-129428571D01*
X109800000Y-129952381D02*
X109800000Y-128952381D01*
X110276191Y-128952381D01*
X110800000Y-128952381D02*
X110800000Y-129190476D01*
X110561905Y-129095238D02*
X110800000Y-129190476D01*
X111038096Y-129095238D01*
X110657143Y-129380952D02*
X110800000Y-129190476D01*
X110942858Y-129380952D01*
X111561905Y-128952381D02*
X111561905Y-129190476D01*
X111323810Y-129095238D02*
X111561905Y-129190476D01*
X111800001Y-129095238D01*
X111419048Y-129380952D02*
X111561905Y-129190476D01*
X111704763Y-129380952D01*
X106918381Y-121622095D02*
X105918381Y-121622095D01*
X105918381Y-121241142D01*
X105966000Y-121145904D01*
X106013619Y-121098285D01*
X106108857Y-121050666D01*
X106251714Y-121050666D01*
X106346952Y-121098285D01*
X106394571Y-121145904D01*
X106442190Y-121241142D01*
X106442190Y-121622095D01*
X105918381Y-120717333D02*
X105918381Y-120098285D01*
X106299333Y-120431619D01*
X106299333Y-120288761D01*
X106346952Y-120193523D01*
X106394571Y-120145904D01*
X106489810Y-120098285D01*
X106727905Y-120098285D01*
X106823143Y-120145904D01*
X106870762Y-120193523D01*
X106918381Y-120288761D01*
X106918381Y-120574476D01*
X106870762Y-120669714D01*
X106823143Y-120717333D01*
X132889334Y-120499143D02*
X132841715Y-120546762D01*
X132698858Y-120594381D01*
X132603620Y-120594381D01*
X132460762Y-120546762D01*
X132365524Y-120451524D01*
X132317905Y-120356286D01*
X132270286Y-120165810D01*
X132270286Y-120022952D01*
X132317905Y-119832476D01*
X132365524Y-119737238D01*
X132460762Y-119642000D01*
X132603620Y-119594381D01*
X132698858Y-119594381D01*
X132841715Y-119642000D01*
X132889334Y-119689619D01*
X133222667Y-119594381D02*
X133889334Y-119594381D01*
X133460762Y-120594381D01*
X141851143Y-120499143D02*
X141803524Y-120546762D01*
X141660667Y-120594381D01*
X141565429Y-120594381D01*
X141422571Y-120546762D01*
X141327333Y-120451524D01*
X141279714Y-120356286D01*
X141232095Y-120165810D01*
X141232095Y-120022952D01*
X141279714Y-119832476D01*
X141327333Y-119737238D01*
X141422571Y-119642000D01*
X141565429Y-119594381D01*
X141660667Y-119594381D01*
X141803524Y-119642000D01*
X141851143Y-119689619D01*
X142803524Y-120594381D02*
X142232095Y-120594381D01*
X142517809Y-120594381D02*
X142517809Y-119594381D01*
X142422571Y-119737238D01*
X142327333Y-119832476D01*
X142232095Y-119880095D01*
X143422571Y-119594381D02*
X143517810Y-119594381D01*
X143613048Y-119642000D01*
X143660667Y-119689619D01*
X143708286Y-119784857D01*
X143755905Y-119975333D01*
X143755905Y-120213429D01*
X143708286Y-120403905D01*
X143660667Y-120499143D01*
X143613048Y-120546762D01*
X143517810Y-120594381D01*
X143422571Y-120594381D01*
X143327333Y-120546762D01*
X143279714Y-120499143D01*
X143232095Y-120403905D01*
X143184476Y-120213429D01*
X143184476Y-119975333D01*
X143232095Y-119784857D01*
X143279714Y-119689619D01*
X143327333Y-119642000D01*
X143422571Y-119594381D01*
X115554381Y-121622095D02*
X114554381Y-121622095D01*
X114554381Y-121241142D01*
X114602000Y-121145904D01*
X114649619Y-121098285D01*
X114744857Y-121050666D01*
X114887714Y-121050666D01*
X114982952Y-121098285D01*
X115030571Y-121145904D01*
X115078190Y-121241142D01*
X115078190Y-121622095D01*
X115554381Y-120098285D02*
X115554381Y-120669714D01*
X115554381Y-120384000D02*
X114554381Y-120384000D01*
X114697238Y-120479238D01*
X114792476Y-120574476D01*
X114840095Y-120669714D01*
X106918381Y-110680095D02*
X105918381Y-110680095D01*
X105918381Y-110299142D01*
X105966000Y-110203904D01*
X106013619Y-110156285D01*
X106108857Y-110108666D01*
X106251714Y-110108666D01*
X106346952Y-110156285D01*
X106394571Y-110203904D01*
X106442190Y-110299142D01*
X106442190Y-110680095D01*
X106251714Y-109251523D02*
X106918381Y-109251523D01*
X105870762Y-109489619D02*
X106585048Y-109727714D01*
X106585048Y-109108666D01*
X127865143Y-100710666D02*
X127912762Y-100758285D01*
X127960381Y-100901142D01*
X127960381Y-100996380D01*
X127912762Y-101139238D01*
X127817524Y-101234476D01*
X127722286Y-101282095D01*
X127531810Y-101329714D01*
X127388952Y-101329714D01*
X127198476Y-101282095D01*
X127103238Y-101234476D01*
X127008000Y-101139238D01*
X126960381Y-100996380D01*
X126960381Y-100901142D01*
X127008000Y-100758285D01*
X127055619Y-100710666D01*
X127388952Y-100139238D02*
X127341333Y-100234476D01*
X127293714Y-100282095D01*
X127198476Y-100329714D01*
X127150857Y-100329714D01*
X127055619Y-100282095D01*
X127008000Y-100234476D01*
X126960381Y-100139238D01*
X126960381Y-99948761D01*
X127008000Y-99853523D01*
X127055619Y-99805904D01*
X127150857Y-99758285D01*
X127198476Y-99758285D01*
X127293714Y-99805904D01*
X127341333Y-99853523D01*
X127388952Y-99948761D01*
X127388952Y-100139238D01*
X127436571Y-100234476D01*
X127484190Y-100282095D01*
X127579429Y-100329714D01*
X127769905Y-100329714D01*
X127865143Y-100282095D01*
X127912762Y-100234476D01*
X127960381Y-100139238D01*
X127960381Y-99948761D01*
X127912762Y-99853523D01*
X127865143Y-99805904D01*
X127769905Y-99758285D01*
X127579429Y-99758285D01*
X127484190Y-99805904D01*
X127436571Y-99853523D01*
X127388952Y-99948761D01*
X115554381Y-110120286D02*
X114554381Y-110120286D01*
X114554381Y-109739333D01*
X114602000Y-109644095D01*
X114649619Y-109596476D01*
X114744857Y-109548857D01*
X114887714Y-109548857D01*
X114982952Y-109596476D01*
X115030571Y-109644095D01*
X115078190Y-109739333D01*
X115078190Y-110120286D01*
X115554381Y-108596476D02*
X115554381Y-109167905D01*
X115554381Y-108882191D02*
X114554381Y-108882191D01*
X114697238Y-108977429D01*
X114792476Y-109072667D01*
X114840095Y-109167905D01*
X114554381Y-107977429D02*
X114554381Y-107882190D01*
X114602000Y-107786952D01*
X114649619Y-107739333D01*
X114744857Y-107691714D01*
X114935333Y-107644095D01*
X115173429Y-107644095D01*
X115363905Y-107691714D01*
X115459143Y-107739333D01*
X115506762Y-107786952D01*
X115554381Y-107882190D01*
X115554381Y-107977429D01*
X115506762Y-108072667D01*
X115459143Y-108120286D01*
X115363905Y-108167905D01*
X115173429Y-108215524D01*
X114935333Y-108215524D01*
X114744857Y-108167905D01*
X114649619Y-108120286D01*
X114602000Y-108072667D01*
X114554381Y-107977429D01*
X107045381Y-72453095D02*
X106045381Y-72453095D01*
X106045381Y-72072142D01*
X106093000Y-71976904D01*
X106140619Y-71929285D01*
X106235857Y-71881666D01*
X106378714Y-71881666D01*
X106473952Y-71929285D01*
X106521571Y-71976904D01*
X106569190Y-72072142D01*
X106569190Y-72453095D01*
X106473952Y-71310238D02*
X106426333Y-71405476D01*
X106378714Y-71453095D01*
X106283476Y-71500714D01*
X106235857Y-71500714D01*
X106140619Y-71453095D01*
X106093000Y-71405476D01*
X106045381Y-71310238D01*
X106045381Y-71119761D01*
X106093000Y-71024523D01*
X106140619Y-70976904D01*
X106235857Y-70929285D01*
X106283476Y-70929285D01*
X106378714Y-70976904D01*
X106426333Y-71024523D01*
X106473952Y-71119761D01*
X106473952Y-71310238D01*
X106521571Y-71405476D01*
X106569190Y-71453095D01*
X106664429Y-71500714D01*
X106854905Y-71500714D01*
X106950143Y-71453095D01*
X106997762Y-71405476D01*
X107045381Y-71310238D01*
X107045381Y-71119761D01*
X106997762Y-71024523D01*
X106950143Y-70976904D01*
X106854905Y-70929285D01*
X106664429Y-70929285D01*
X106569190Y-70976904D01*
X106521571Y-71024523D01*
X106473952Y-71119761D01*
X107172381Y-90106095D02*
X106172381Y-90106095D01*
X106172381Y-89725142D01*
X106220000Y-89629904D01*
X106267619Y-89582285D01*
X106362857Y-89534666D01*
X106505714Y-89534666D01*
X106600952Y-89582285D01*
X106648571Y-89629904D01*
X106696190Y-89725142D01*
X106696190Y-90106095D01*
X106172381Y-89201333D02*
X106172381Y-88534666D01*
X107172381Y-88963238D01*
X115641381Y-73636095D02*
X114641381Y-73636095D01*
X114641381Y-73255142D01*
X114689000Y-73159904D01*
X114736619Y-73112285D01*
X114831857Y-73064666D01*
X114974714Y-73064666D01*
X115069952Y-73112285D01*
X115117571Y-73159904D01*
X115165190Y-73255142D01*
X115165190Y-73636095D01*
X114641381Y-72207523D02*
X114641381Y-72398000D01*
X114689000Y-72493238D01*
X114736619Y-72540857D01*
X114879476Y-72636095D01*
X115069952Y-72683714D01*
X115450905Y-72683714D01*
X115546143Y-72636095D01*
X115593762Y-72588476D01*
X115641381Y-72493238D01*
X115641381Y-72302761D01*
X115593762Y-72207523D01*
X115546143Y-72159904D01*
X115450905Y-72112285D01*
X115212810Y-72112285D01*
X115117571Y-72159904D01*
X115069952Y-72207523D01*
X115022333Y-72302761D01*
X115022333Y-72493238D01*
X115069952Y-72588476D01*
X115117571Y-72636095D01*
X115212810Y-72683714D01*
X109858905Y-63912381D02*
X109858905Y-62912381D01*
X110239858Y-62912381D01*
X110335096Y-62960000D01*
X110382715Y-63007619D01*
X110430334Y-63102857D01*
X110430334Y-63245714D01*
X110382715Y-63340952D01*
X110335096Y-63388571D01*
X110239858Y-63436190D01*
X109858905Y-63436190D01*
X111335096Y-62912381D02*
X110858905Y-62912381D01*
X110811286Y-63388571D01*
X110858905Y-63340952D01*
X110954143Y-63293333D01*
X111192239Y-63293333D01*
X111287477Y-63340952D01*
X111335096Y-63388571D01*
X111382715Y-63483810D01*
X111382715Y-63721905D01*
X111335096Y-63817143D01*
X111287477Y-63864762D01*
X111192239Y-63912381D01*
X110954143Y-63912381D01*
X110858905Y-63864762D01*
X110811286Y-63817143D01*
X164309524Y-57752381D02*
X164309524Y-56752381D01*
X164642858Y-57466667D01*
X164976191Y-56752381D01*
X164976191Y-57752381D01*
X165595238Y-57752381D02*
X165500000Y-57704762D01*
X165452381Y-57657143D01*
X165404762Y-57561905D01*
X165404762Y-57276190D01*
X165452381Y-57180952D01*
X165500000Y-57133333D01*
X165595238Y-57085714D01*
X165738096Y-57085714D01*
X165833334Y-57133333D01*
X165880953Y-57180952D01*
X165928572Y-57276190D01*
X165928572Y-57561905D01*
X165880953Y-57657143D01*
X165833334Y-57704762D01*
X165738096Y-57752381D01*
X165595238Y-57752381D01*
X166785715Y-57085714D02*
X166785715Y-57752381D01*
X166357143Y-57085714D02*
X166357143Y-57609524D01*
X166404762Y-57704762D01*
X166500000Y-57752381D01*
X166642858Y-57752381D01*
X166738096Y-57704762D01*
X166785715Y-57657143D01*
X167261905Y-57085714D02*
X167261905Y-57752381D01*
X167261905Y-57180952D02*
X167309524Y-57133333D01*
X167404762Y-57085714D01*
X167547620Y-57085714D01*
X167642858Y-57133333D01*
X167690477Y-57228571D01*
X167690477Y-57752381D01*
X168023810Y-57085714D02*
X168404762Y-57085714D01*
X168166667Y-56752381D02*
X168166667Y-57609524D01*
X168214286Y-57704762D01*
X168309524Y-57752381D01*
X168404762Y-57752381D01*
X168738096Y-57752381D02*
X168738096Y-57085714D01*
X168738096Y-56752381D02*
X168690477Y-56800000D01*
X168738096Y-56847619D01*
X168785715Y-56800000D01*
X168738096Y-56752381D01*
X168738096Y-56847619D01*
X169214286Y-57085714D02*
X169214286Y-57752381D01*
X169214286Y-57180952D02*
X169261905Y-57133333D01*
X169357143Y-57085714D01*
X169500001Y-57085714D01*
X169595239Y-57133333D01*
X169642858Y-57228571D01*
X169642858Y-57752381D01*
X170547620Y-57085714D02*
X170547620Y-57895238D01*
X170500001Y-57990476D01*
X170452382Y-58038095D01*
X170357143Y-58085714D01*
X170214286Y-58085714D01*
X170119048Y-58038095D01*
X170547620Y-57704762D02*
X170452382Y-57752381D01*
X170261905Y-57752381D01*
X170166667Y-57704762D01*
X170119048Y-57657143D01*
X170071429Y-57561905D01*
X170071429Y-57276190D01*
X170119048Y-57180952D01*
X170166667Y-57133333D01*
X170261905Y-57085714D01*
X170452382Y-57085714D01*
X170547620Y-57133333D01*
X171023810Y-57752381D02*
X171023810Y-56752381D01*
X171023810Y-57228571D02*
X171595239Y-57228571D01*
X171595239Y-57752381D02*
X171595239Y-56752381D01*
X172214286Y-57752381D02*
X172119048Y-57704762D01*
X172071429Y-57657143D01*
X172023810Y-57561905D01*
X172023810Y-57276190D01*
X172071429Y-57180952D01*
X172119048Y-57133333D01*
X172214286Y-57085714D01*
X172357144Y-57085714D01*
X172452382Y-57133333D01*
X172500001Y-57180952D01*
X172547620Y-57276190D01*
X172547620Y-57561905D01*
X172500001Y-57657143D01*
X172452382Y-57704762D01*
X172357144Y-57752381D01*
X172214286Y-57752381D01*
X173119048Y-57752381D02*
X173023810Y-57704762D01*
X172976191Y-57609524D01*
X172976191Y-56752381D01*
X173880954Y-57704762D02*
X173785716Y-57752381D01*
X173595239Y-57752381D01*
X173500001Y-57704762D01*
X173452382Y-57609524D01*
X173452382Y-57228571D01*
X173500001Y-57133333D01*
X173595239Y-57085714D01*
X173785716Y-57085714D01*
X173880954Y-57133333D01*
X173928573Y-57228571D01*
X173928573Y-57323810D01*
X173452382Y-57419048D01*
X174119049Y-57847619D02*
X174880954Y-57847619D01*
X175023811Y-56752381D02*
X175642859Y-56752381D01*
X175309525Y-57133333D01*
X175452383Y-57133333D01*
X175547621Y-57180952D01*
X175595240Y-57228571D01*
X175642859Y-57323810D01*
X175642859Y-57561905D01*
X175595240Y-57657143D01*
X175547621Y-57704762D01*
X175452383Y-57752381D01*
X175166668Y-57752381D01*
X175071430Y-57704762D01*
X175023811Y-57657143D01*
X176071430Y-57657143D02*
X176119049Y-57704762D01*
X176071430Y-57752381D01*
X176023811Y-57704762D01*
X176071430Y-57657143D01*
X176071430Y-57752381D01*
X176500001Y-56847619D02*
X176547620Y-56800000D01*
X176642858Y-56752381D01*
X176880954Y-56752381D01*
X176976192Y-56800000D01*
X177023811Y-56847619D01*
X177071430Y-56942857D01*
X177071430Y-57038095D01*
X177023811Y-57180952D01*
X176452382Y-57752381D01*
X177071430Y-57752381D01*
X177500001Y-57752381D02*
X177500001Y-57085714D01*
X177500001Y-57180952D02*
X177547620Y-57133333D01*
X177642858Y-57085714D01*
X177785716Y-57085714D01*
X177880954Y-57133333D01*
X177928573Y-57228571D01*
X177928573Y-57752381D01*
X177928573Y-57228571D02*
X177976192Y-57133333D01*
X178071430Y-57085714D01*
X178214287Y-57085714D01*
X178309525Y-57133333D01*
X178357144Y-57228571D01*
X178357144Y-57752381D01*
X178833334Y-57752381D02*
X178833334Y-57085714D01*
X178833334Y-57180952D02*
X178880953Y-57133333D01*
X178976191Y-57085714D01*
X179119049Y-57085714D01*
X179214287Y-57133333D01*
X179261906Y-57228571D01*
X179261906Y-57752381D01*
X179261906Y-57228571D02*
X179309525Y-57133333D01*
X179404763Y-57085714D01*
X179547620Y-57085714D01*
X179642858Y-57133333D01*
X179690477Y-57228571D01*
X179690477Y-57752381D01*
X179928572Y-57847619D02*
X180690477Y-57847619D01*
X180928572Y-57752381D02*
X180928572Y-56752381D01*
X181261906Y-57466667D01*
X181595239Y-56752381D01*
X181595239Y-57752381D01*
X181976191Y-56752381D02*
X182595239Y-56752381D01*
X182261905Y-57133333D01*
X182404763Y-57133333D01*
X182500001Y-57180952D01*
X182547620Y-57228571D01*
X182595239Y-57323810D01*
X182595239Y-57561905D01*
X182547620Y-57657143D01*
X182500001Y-57704762D01*
X182404763Y-57752381D01*
X182119048Y-57752381D01*
X182023810Y-57704762D01*
X181976191Y-57657143D01*
X182785715Y-57847619D02*
X183547620Y-57847619D01*
X183785715Y-57752381D02*
X183785715Y-56752381D01*
X184023810Y-56752381D01*
X184166668Y-56800000D01*
X184261906Y-56895238D01*
X184309525Y-56990476D01*
X184357144Y-57180952D01*
X184357144Y-57323810D01*
X184309525Y-57514286D01*
X184261906Y-57609524D01*
X184166668Y-57704762D01*
X184023810Y-57752381D01*
X183785715Y-57752381D01*
X184785715Y-57752381D02*
X184785715Y-56752381D01*
X185261905Y-57752381D02*
X185261905Y-56752381D01*
X185833334Y-57752381D01*
X185833334Y-56752381D01*
X186357143Y-57752381D02*
X186547619Y-57752381D01*
X186642858Y-57704762D01*
X186690477Y-57657143D01*
X186785715Y-57514286D01*
X186833334Y-57323810D01*
X186833334Y-56942857D01*
X186785715Y-56847619D01*
X186738096Y-56800000D01*
X186642858Y-56752381D01*
X186452381Y-56752381D01*
X186357143Y-56800000D01*
X186309524Y-56847619D01*
X186261905Y-56942857D01*
X186261905Y-57180952D01*
X186309524Y-57276190D01*
X186357143Y-57323810D01*
X186452381Y-57371429D01*
X186642858Y-57371429D01*
X186738096Y-57323810D01*
X186785715Y-57276190D01*
X186833334Y-57180952D01*
X187690477Y-56752381D02*
X187500000Y-56752381D01*
X187404762Y-56800000D01*
X187357143Y-56847619D01*
X187261905Y-56990476D01*
X187214286Y-57180952D01*
X187214286Y-57561905D01*
X187261905Y-57657143D01*
X187309524Y-57704762D01*
X187404762Y-57752381D01*
X187595239Y-57752381D01*
X187690477Y-57704762D01*
X187738096Y-57657143D01*
X187785715Y-57561905D01*
X187785715Y-57323810D01*
X187738096Y-57228571D01*
X187690477Y-57180952D01*
X187595239Y-57133333D01*
X187404762Y-57133333D01*
X187309524Y-57180952D01*
X187261905Y-57228571D01*
X187214286Y-57323810D01*
X188690477Y-56752381D02*
X188214286Y-56752381D01*
X188166667Y-57228571D01*
X188214286Y-57180952D01*
X188309524Y-57133333D01*
X188547620Y-57133333D01*
X188642858Y-57180952D01*
X188690477Y-57228571D01*
X188738096Y-57323810D01*
X188738096Y-57561905D01*
X188690477Y-57657143D01*
X188642858Y-57704762D01*
X188547620Y-57752381D01*
X188309524Y-57752381D01*
X188214286Y-57704762D01*
X188166667Y-57657143D01*
X175466667Y-53952381D02*
X175133333Y-53476190D01*
X174895238Y-53952381D02*
X174895238Y-52952381D01*
X175276191Y-52952381D01*
X175371429Y-53000000D01*
X175419048Y-53047619D01*
X175466667Y-53142857D01*
X175466667Y-53285714D01*
X175419048Y-53380952D01*
X175371429Y-53428571D01*
X175276191Y-53476190D01*
X174895238Y-53476190D01*
X175895238Y-53428571D02*
X176228572Y-53428571D01*
X176371429Y-53952381D02*
X175895238Y-53952381D01*
X175895238Y-52952381D01*
X176371429Y-52952381D01*
X177133334Y-53428571D02*
X176800000Y-53428571D01*
X176800000Y-53952381D02*
X176800000Y-52952381D01*
X177276191Y-52952381D01*
X177800000Y-52952381D02*
X177800000Y-53190476D01*
X177561905Y-53095238D02*
X177800000Y-53190476D01*
X178038096Y-53095238D01*
X177657143Y-53380952D02*
X177800000Y-53190476D01*
X177942858Y-53380952D01*
X178561905Y-52952381D02*
X178561905Y-53190476D01*
X178323810Y-53095238D02*
X178561905Y-53190476D01*
X178800001Y-53095238D01*
X178419048Y-53380952D02*
X178561905Y-53190476D01*
X178704763Y-53380952D01*
X164309524Y-133752381D02*
X164309524Y-132752381D01*
X164642858Y-133466667D01*
X164976191Y-132752381D01*
X164976191Y-133752381D01*
X165595238Y-133752381D02*
X165500000Y-133704762D01*
X165452381Y-133657143D01*
X165404762Y-133561905D01*
X165404762Y-133276190D01*
X165452381Y-133180952D01*
X165500000Y-133133333D01*
X165595238Y-133085714D01*
X165738096Y-133085714D01*
X165833334Y-133133333D01*
X165880953Y-133180952D01*
X165928572Y-133276190D01*
X165928572Y-133561905D01*
X165880953Y-133657143D01*
X165833334Y-133704762D01*
X165738096Y-133752381D01*
X165595238Y-133752381D01*
X166785715Y-133085714D02*
X166785715Y-133752381D01*
X166357143Y-133085714D02*
X166357143Y-133609524D01*
X166404762Y-133704762D01*
X166500000Y-133752381D01*
X166642858Y-133752381D01*
X166738096Y-133704762D01*
X166785715Y-133657143D01*
X167261905Y-133085714D02*
X167261905Y-133752381D01*
X167261905Y-133180952D02*
X167309524Y-133133333D01*
X167404762Y-133085714D01*
X167547620Y-133085714D01*
X167642858Y-133133333D01*
X167690477Y-133228571D01*
X167690477Y-133752381D01*
X168023810Y-133085714D02*
X168404762Y-133085714D01*
X168166667Y-132752381D02*
X168166667Y-133609524D01*
X168214286Y-133704762D01*
X168309524Y-133752381D01*
X168404762Y-133752381D01*
X168738096Y-133752381D02*
X168738096Y-133085714D01*
X168738096Y-132752381D02*
X168690477Y-132800000D01*
X168738096Y-132847619D01*
X168785715Y-132800000D01*
X168738096Y-132752381D01*
X168738096Y-132847619D01*
X169214286Y-133085714D02*
X169214286Y-133752381D01*
X169214286Y-133180952D02*
X169261905Y-133133333D01*
X169357143Y-133085714D01*
X169500001Y-133085714D01*
X169595239Y-133133333D01*
X169642858Y-133228571D01*
X169642858Y-133752381D01*
X170547620Y-133085714D02*
X170547620Y-133895238D01*
X170500001Y-133990476D01*
X170452382Y-134038095D01*
X170357143Y-134085714D01*
X170214286Y-134085714D01*
X170119048Y-134038095D01*
X170547620Y-133704762D02*
X170452382Y-133752381D01*
X170261905Y-133752381D01*
X170166667Y-133704762D01*
X170119048Y-133657143D01*
X170071429Y-133561905D01*
X170071429Y-133276190D01*
X170119048Y-133180952D01*
X170166667Y-133133333D01*
X170261905Y-133085714D01*
X170452382Y-133085714D01*
X170547620Y-133133333D01*
X171023810Y-133752381D02*
X171023810Y-132752381D01*
X171023810Y-133228571D02*
X171595239Y-133228571D01*
X171595239Y-133752381D02*
X171595239Y-132752381D01*
X172214286Y-133752381D02*
X172119048Y-133704762D01*
X172071429Y-133657143D01*
X172023810Y-133561905D01*
X172023810Y-133276190D01*
X172071429Y-133180952D01*
X172119048Y-133133333D01*
X172214286Y-133085714D01*
X172357144Y-133085714D01*
X172452382Y-133133333D01*
X172500001Y-133180952D01*
X172547620Y-133276190D01*
X172547620Y-133561905D01*
X172500001Y-133657143D01*
X172452382Y-133704762D01*
X172357144Y-133752381D01*
X172214286Y-133752381D01*
X173119048Y-133752381D02*
X173023810Y-133704762D01*
X172976191Y-133609524D01*
X172976191Y-132752381D01*
X173880954Y-133704762D02*
X173785716Y-133752381D01*
X173595239Y-133752381D01*
X173500001Y-133704762D01*
X173452382Y-133609524D01*
X173452382Y-133228571D01*
X173500001Y-133133333D01*
X173595239Y-133085714D01*
X173785716Y-133085714D01*
X173880954Y-133133333D01*
X173928573Y-133228571D01*
X173928573Y-133323810D01*
X173452382Y-133419048D01*
X174119049Y-133847619D02*
X174880954Y-133847619D01*
X175023811Y-132752381D02*
X175642859Y-132752381D01*
X175309525Y-133133333D01*
X175452383Y-133133333D01*
X175547621Y-133180952D01*
X175595240Y-133228571D01*
X175642859Y-133323810D01*
X175642859Y-133561905D01*
X175595240Y-133657143D01*
X175547621Y-133704762D01*
X175452383Y-133752381D01*
X175166668Y-133752381D01*
X175071430Y-133704762D01*
X175023811Y-133657143D01*
X176071430Y-133657143D02*
X176119049Y-133704762D01*
X176071430Y-133752381D01*
X176023811Y-133704762D01*
X176071430Y-133657143D01*
X176071430Y-133752381D01*
X176500001Y-132847619D02*
X176547620Y-132800000D01*
X176642858Y-132752381D01*
X176880954Y-132752381D01*
X176976192Y-132800000D01*
X177023811Y-132847619D01*
X177071430Y-132942857D01*
X177071430Y-133038095D01*
X177023811Y-133180952D01*
X176452382Y-133752381D01*
X177071430Y-133752381D01*
X177500001Y-133752381D02*
X177500001Y-133085714D01*
X177500001Y-133180952D02*
X177547620Y-133133333D01*
X177642858Y-133085714D01*
X177785716Y-133085714D01*
X177880954Y-133133333D01*
X177928573Y-133228571D01*
X177928573Y-133752381D01*
X177928573Y-133228571D02*
X177976192Y-133133333D01*
X178071430Y-133085714D01*
X178214287Y-133085714D01*
X178309525Y-133133333D01*
X178357144Y-133228571D01*
X178357144Y-133752381D01*
X178833334Y-133752381D02*
X178833334Y-133085714D01*
X178833334Y-133180952D02*
X178880953Y-133133333D01*
X178976191Y-133085714D01*
X179119049Y-133085714D01*
X179214287Y-133133333D01*
X179261906Y-133228571D01*
X179261906Y-133752381D01*
X179261906Y-133228571D02*
X179309525Y-133133333D01*
X179404763Y-133085714D01*
X179547620Y-133085714D01*
X179642858Y-133133333D01*
X179690477Y-133228571D01*
X179690477Y-133752381D01*
X179928572Y-133847619D02*
X180690477Y-133847619D01*
X180928572Y-133752381D02*
X180928572Y-132752381D01*
X181261906Y-133466667D01*
X181595239Y-132752381D01*
X181595239Y-133752381D01*
X181976191Y-132752381D02*
X182595239Y-132752381D01*
X182261905Y-133133333D01*
X182404763Y-133133333D01*
X182500001Y-133180952D01*
X182547620Y-133228571D01*
X182595239Y-133323810D01*
X182595239Y-133561905D01*
X182547620Y-133657143D01*
X182500001Y-133704762D01*
X182404763Y-133752381D01*
X182119048Y-133752381D01*
X182023810Y-133704762D01*
X181976191Y-133657143D01*
X182785715Y-133847619D02*
X183547620Y-133847619D01*
X183785715Y-133752381D02*
X183785715Y-132752381D01*
X184023810Y-132752381D01*
X184166668Y-132800000D01*
X184261906Y-132895238D01*
X184309525Y-132990476D01*
X184357144Y-133180952D01*
X184357144Y-133323810D01*
X184309525Y-133514286D01*
X184261906Y-133609524D01*
X184166668Y-133704762D01*
X184023810Y-133752381D01*
X183785715Y-133752381D01*
X184785715Y-133752381D02*
X184785715Y-132752381D01*
X185261905Y-133752381D02*
X185261905Y-132752381D01*
X185833334Y-133752381D01*
X185833334Y-132752381D01*
X186357143Y-133752381D02*
X186547619Y-133752381D01*
X186642858Y-133704762D01*
X186690477Y-133657143D01*
X186785715Y-133514286D01*
X186833334Y-133323810D01*
X186833334Y-132942857D01*
X186785715Y-132847619D01*
X186738096Y-132800000D01*
X186642858Y-132752381D01*
X186452381Y-132752381D01*
X186357143Y-132800000D01*
X186309524Y-132847619D01*
X186261905Y-132942857D01*
X186261905Y-133180952D01*
X186309524Y-133276190D01*
X186357143Y-133323810D01*
X186452381Y-133371429D01*
X186642858Y-133371429D01*
X186738096Y-133323810D01*
X186785715Y-133276190D01*
X186833334Y-133180952D01*
X187690477Y-132752381D02*
X187500000Y-132752381D01*
X187404762Y-132800000D01*
X187357143Y-132847619D01*
X187261905Y-132990476D01*
X187214286Y-133180952D01*
X187214286Y-133561905D01*
X187261905Y-133657143D01*
X187309524Y-133704762D01*
X187404762Y-133752381D01*
X187595239Y-133752381D01*
X187690477Y-133704762D01*
X187738096Y-133657143D01*
X187785715Y-133561905D01*
X187785715Y-133323810D01*
X187738096Y-133228571D01*
X187690477Y-133180952D01*
X187595239Y-133133333D01*
X187404762Y-133133333D01*
X187309524Y-133180952D01*
X187261905Y-133228571D01*
X187214286Y-133323810D01*
X188690477Y-132752381D02*
X188214286Y-132752381D01*
X188166667Y-133228571D01*
X188214286Y-133180952D01*
X188309524Y-133133333D01*
X188547620Y-133133333D01*
X188642858Y-133180952D01*
X188690477Y-133228571D01*
X188738096Y-133323810D01*
X188738096Y-133561905D01*
X188690477Y-133657143D01*
X188642858Y-133704762D01*
X188547620Y-133752381D01*
X188309524Y-133752381D01*
X188214286Y-133704762D01*
X188166667Y-133657143D01*
X175466667Y-129952381D02*
X175133333Y-129476190D01*
X174895238Y-129952381D02*
X174895238Y-128952381D01*
X175276191Y-128952381D01*
X175371429Y-129000000D01*
X175419048Y-129047619D01*
X175466667Y-129142857D01*
X175466667Y-129285714D01*
X175419048Y-129380952D01*
X175371429Y-129428571D01*
X175276191Y-129476190D01*
X174895238Y-129476190D01*
X175895238Y-129428571D02*
X176228572Y-129428571D01*
X176371429Y-129952381D02*
X175895238Y-129952381D01*
X175895238Y-128952381D01*
X176371429Y-128952381D01*
X177133334Y-129428571D02*
X176800000Y-129428571D01*
X176800000Y-129952381D02*
X176800000Y-128952381D01*
X177276191Y-128952381D01*
X177800000Y-128952381D02*
X177800000Y-129190476D01*
X177561905Y-129095238D02*
X177800000Y-129190476D01*
X178038096Y-129095238D01*
X177657143Y-129380952D02*
X177800000Y-129190476D01*
X177942858Y-129380952D01*
X178561905Y-128952381D02*
X178561905Y-129190476D01*
X178323810Y-129095238D02*
X178561905Y-129190476D01*
X178800001Y-129095238D01*
X178419048Y-129380952D02*
X178561905Y-129190476D01*
X178704763Y-129380952D01*
M02*
