M48
; DRILL file {KiCad 5.1.5-52549c5~84~ubuntu18.04.1} date Mon 18 May 2020 18:44:37 BST
; FORMAT={-:-/ absolute / metric / decimal}
; #@! TF.CreationDate,2020-05-18T18:44:37+01:00
; #@! TF.GenerationSoftware,Kicad,Pcbnew,5.1.5-52549c5~84~ubuntu18.04.1
; #@! TF.FileFunction,Plated,1,2,PTH
FMAT,2
METRIC
T1C0.400
T2C0.800
T3C0.800
T4C0.920
T5C0.950
T6C1.000
T7C1.001
T8C1.050
T9C1.350
T10C1.501
%
G90
G05
T1
X122.936Y-104.14
X123.19Y-92.71
X123.634Y-60.325
X123.634Y-61.722
X123.825Y-58.674
X123.952Y-57.277
X129.35Y-59.372
X138.684Y-80.772
X138.938Y-108.458
X140.208Y-126.492
X145.034Y-113.284
X151.066Y-123.634
X160.02Y-65.786
T2
X135.128Y-54.102
X135.128Y-56.642
X135.128Y-59.182
X135.128Y-61.722
X135.128Y-64.262
X135.128Y-66.802
X135.128Y-69.342
X135.128Y-71.882
X135.128Y-74.422
X135.128Y-76.962
X135.128Y-79.502
X135.128Y-82.042
X135.128Y-84.582
X135.128Y-87.122
X135.128Y-89.662
X150.368Y-54.102
X150.368Y-56.642
X150.368Y-59.182
X150.368Y-61.722
X150.368Y-64.262
X150.368Y-66.802
X150.368Y-69.342
X150.368Y-71.882
X150.368Y-74.422
X150.368Y-76.962
X150.368Y-79.502
X150.368Y-82.042
X150.368Y-84.582
X150.368Y-87.122
X150.368Y-89.662
X131.826Y-98.552
X147.066Y-98.552
X166.497Y-82.249
X166.497Y-87.249
X131.826Y-103.124
X147.066Y-103.124
X118.11Y-86.614
X118.11Y-89.154
X118.11Y-91.694
X107.696Y-98.806
X122.936Y-98.806
X124.587Y-70.231
X124.587Y-72.771
X124.587Y-75.311
X139.954Y-120.142
X144.954Y-120.142
X131.826Y-108.712
X147.066Y-108.712
X109.22Y-79.756
X124.46Y-79.756
X116.332Y-65.659
X131.572Y-65.659
X116.332Y-60.706
X131.572Y-60.706
X158.0Y-91.7
X158.0Y-95.5
X130.556Y-120.142
X135.556Y-120.142
X115.0Y-55.0
X117.54Y-55.0
X120.08Y-55.0
X125.476Y-113.538
X125.476Y-116.078
X125.476Y-118.618
X173.746Y-78.232
X177.546Y-78.232
X127.508Y-98.044
X127.508Y-103.044
X160.989Y-56.388
X165.989Y-56.388
X131.826Y-114.554
X147.066Y-114.554
T3
X166.497Y-65.446
X166.497Y-70.444
X163.001Y-101.0
X167.999Y-101.0
T4
X162.5Y-109.0
X164.5Y-109.0
X166.5Y-109.0
X168.5Y-109.0
T5
X127.508Y-123.952
X128.778Y-129.032
X130.048Y-123.952
X131.318Y-129.032
X132.588Y-123.952
X133.858Y-129.032
X135.128Y-123.952
X136.398Y-129.032
X137.668Y-123.952
X138.938Y-129.032
X140.208Y-123.952
X141.478Y-129.032
X142.748Y-123.952
X144.018Y-129.032
X145.288Y-123.952
X173.282Y-92.167
X173.282Y-95.567
X173.282Y-98.968
X177.482Y-93.867
X177.482Y-97.267
X173.346Y-62.767
X173.346Y-66.167
X173.346Y-69.567
X177.546Y-64.467
X177.546Y-67.867
T6
X109.093Y-69.215
X109.093Y-71.715
X109.093Y-74.215
X117.602Y-105.156
X117.602Y-107.656
X117.602Y-110.156
X117.602Y-112.656
X108.966Y-107.442
X108.966Y-109.942
X108.966Y-112.442
X109.22Y-86.868
X109.22Y-89.368
X109.22Y-91.868
X117.348Y-131.318
X122.428Y-131.318
X130.048Y-84.328
X130.048Y-86.868
X130.048Y-89.408
X130.048Y-91.948
T8
X117.729Y-71.628
X117.729Y-74.128
X117.602Y-119.634
X117.602Y-122.134
X108.966Y-119.634
X108.966Y-122.134
X109.347Y-60.96
X111.847Y-60.96
T9
X162.23Y-106.28
X162.23Y-111.72
X169.23Y-106.28
X169.23Y-111.72
T10
X154.562Y-101.728
X154.562Y-116.968
X156.588Y-62.864
X156.588Y-78.104
T7
G00X167.3Y-121.999
M15
G01X167.3Y-120.001
M16
G05
G00X171.299Y-116.301
M15
G01X169.3Y-116.301
M16
G05
G00X173.299Y-121.999
M15
G01X173.299Y-120.001
M16
G05
T0
M30
