M48
;DRILL file {KiCad 4.0.4+e1-6308~48~ubuntu14.04.1-stable} date Tue Oct  4 21:58:37 2016
;FORMAT={-:-/ absolute / metric / decimal}
FMAT,2
METRIC,TZ
T1C0.400
T2C0.800
T3C0.800
T4C0.950
T5C1.001
T6C1.200
T7C1.501
%
G90
G05
M71
T1
X109.5Y-124.
X120.65Y-114.
X120.85Y-118.3
X120.85Y-121.55
X124.25Y-96.
X124.5Y-122.
X127.5Y-105.85
X129.75Y-101.25
X131.6Y-106.9
X131.65Y-123.3
X135.75Y-125.25
X136.8Y-110.8
X140.5Y-110.8
X143.4Y-108.2
X148.8Y-102.85
X149.95Y-77.2
X150.Y-64.1
X150.4Y-76.05
X152.15Y-62.6
X153.75Y-112.15
X155.8Y-64.05
X158.3Y-62.1
X162.85Y-59.95
X165.3Y-51.625
X165.5Y-64.45
X165.55Y-73.5
T2
X114.Y-59.77
X114.Y-62.31
X114.Y-64.85
X119.Y-94.
X119.1Y-98.
X119.1Y-100.54
X119.1Y-103.08
X122.Y-46.
X122.Y-51.
X122.Y-68.32
X122.Y-70.86
X122.Y-73.4
X122.Y-120.
X122.Y-126.
X136.Y-58.
X139.Y-68.
X139.Y-70.54
X139.Y-73.08
X139.Y-75.62
X139.Y-78.16
X139.Y-80.7
X139.Y-83.24
X139.Y-85.78
X139.Y-88.32
X139.Y-90.86
X139.Y-93.4
X139.Y-95.94
X139.Y-98.48
X139.Y-101.02
X139.Y-103.56
X139.8Y-58.
X145.92Y-55.
X148.46Y-55.
X151.Y-55.
X154.24Y-68.
X154.24Y-70.54
X154.24Y-73.08
X154.24Y-75.62
X154.24Y-78.16
X154.24Y-80.7
X154.24Y-83.24
X154.24Y-85.78
X154.24Y-88.32
X154.24Y-90.86
X154.24Y-93.4
X154.24Y-95.94
X154.24Y-98.48
X154.24Y-101.02
X154.24Y-103.56
X161.725Y-96.45
X163.Y-65.
X163.Y-70.
X163.05Y-104.625
X163.05Y-109.625
X165.525Y-96.45
X169.3Y-79.125
X173.1Y-79.125
T3
X119.Y-91.5
X121.Y-59.501
X121.Y-64.499
X122.Y-122.5
X122.Y-128.5
X170.951Y-55.75
X172.501Y-97.275
X175.949Y-55.75
X177.499Y-97.275
T4
X111.92Y-113.49
X111.92Y-116.03
X111.92Y-118.57
X111.92Y-121.11
X111.92Y-123.65
X111.92Y-126.19
X111.92Y-128.73
X117.Y-112.22
X117.Y-114.76
X117.Y-117.3
X117.Y-119.84
X117.Y-122.38
X117.Y-124.92
X117.Y-127.46
X117.Y-130.
X127.Y-49.
X127.Y-131.
X130.6Y-51.2
X132.3Y-47.
X134.Y-51.2
X135.7Y-47.
X137.4Y-51.2
X171.1Y-105.775
X171.1Y-109.175
X171.1Y-112.575
X171.725Y-63.9
X171.725Y-67.3
X171.725Y-70.7
X175.3Y-107.475
X175.3Y-110.875
X175.925Y-65.6
X175.925Y-69.
T5
X120.925Y-76.69
X120.925Y-86.85
X122.Y-106.
X122.Y-116.16
X126.Y-77.
X126.Y-87.16
X131.Y-77.
X131.Y-87.16
X135.Y-113.
X135.Y-118.
X135.Y-123.
X144.Y-62.
X145.16Y-113.
X145.16Y-118.
X145.16Y-123.
X154.16Y-62.
T6
X112.Y-44.5
X112.Y-48.
X112.Y-52.75
X112.Y-56.25
X112.Y-69.
X112.Y-72.5
X112.Y-76.
X112.Y-79.5
X112.Y-84.
X112.Y-87.5
X112.Y-91.
X112.Y-96.
X112.Y-99.5
X112.Y-104.
X112.Y-107.5
X142.725Y-46.675
X146.225Y-46.675
X149.725Y-46.675
X155.Y-46.7
X158.5Y-46.7
X162.Y-46.7
X166.525Y-46.725
X170.025Y-46.725
X173.525Y-46.725
X174.Y-86.35
X174.Y-89.85
X177.025Y-46.725
T7
X130.003Y-57.001
X130.003Y-72.241
X149.159Y-117.628
X161.003Y-75.001
X161.003Y-90.241
X164.399Y-117.628
T5
X164.8Y-128.999G85X164.8Y-127.001
G05
X168.799Y-123.301G85X166.8Y-123.301
G05
X170.799Y-128.999G85X170.799Y-127.001
G05
T0
M30
