%TF.GenerationSoftware,KiCad,Pcbnew,5.1.7-a382d34a8~88~ubuntu20.04.1*%
%TF.CreationDate,2020-11-25T22:11:35+00:00*%
%TF.ProjectId,flypi,666c7970-692e-46b6-9963-61645f706362,rev?*%
%TF.SameCoordinates,Original*%
%TF.FileFunction,Other,ECO2*%
%FSLAX46Y46*%
G04 Gerber Fmt 4.6, Leading zero omitted, Abs format (unit mm)*
G04 Created by KiCad (PCBNEW 5.1.7-a382d34a8~88~ubuntu20.04.1) date 2020-11-25 22:11:35*
%MOMM*%
%LPD*%
G01*
G04 APERTURE LIST*
%ADD10C,0.300000*%
G04 APERTURE END LIST*
D10*
X113261147Y-42122758D02*
X113332776Y-42051530D01*
X113475832Y-41980501D01*
X113832974Y-41981501D01*
X113975630Y-42053330D01*
X114046858Y-42124958D01*
X114117887Y-42268015D01*
X114117487Y-42410871D01*
X114045458Y-42624956D01*
X113185919Y-43479695D01*
X114114487Y-43482296D01*
X114974026Y-42627556D02*
X114831370Y-42555728D01*
X114760141Y-42484100D01*
X114689113Y-42341043D01*
X114689313Y-42269615D01*
X114761141Y-42126958D01*
X114832770Y-42055730D01*
X114975826Y-41984702D01*
X115261539Y-41985502D01*
X115404196Y-42057330D01*
X115475424Y-42128958D01*
X115546453Y-42272015D01*
X115546253Y-42343443D01*
X115474424Y-42486100D01*
X115402796Y-42557328D01*
X115259739Y-42628356D01*
X114974026Y-42627556D01*
X114830970Y-42698584D01*
X114759341Y-42769813D01*
X114687513Y-42912469D01*
X114686713Y-43198182D01*
X114757741Y-43341239D01*
X114828969Y-43412867D01*
X114971626Y-43484696D01*
X115257339Y-43485496D01*
X115400396Y-43414467D01*
X115472024Y-43343239D01*
X115543852Y-43200583D01*
X115544652Y-42914869D01*
X115473624Y-42771813D01*
X115402396Y-42700185D01*
X115259739Y-42628356D01*
X116257535Y-43416868D02*
X116257335Y-43488296D01*
X116185507Y-43630952D01*
X116113879Y-43702181D01*
X117618673Y-41992102D02*
X116904390Y-41990102D01*
X116830962Y-42704185D01*
X116902590Y-42632956D01*
X117045647Y-42561928D01*
X117402788Y-42562928D01*
X117545445Y-42634757D01*
X117616673Y-42706385D01*
X117687701Y-42849441D01*
X117686701Y-43206583D01*
X117614873Y-43349239D01*
X117543245Y-43420468D01*
X117400188Y-43491496D01*
X117043047Y-43490496D01*
X116900390Y-43418668D01*
X116829162Y-43347039D01*
X118190099Y-41993702D02*
X119190095Y-41996502D01*
X118543041Y-43494696D01*
X120047235Y-41998902D02*
X120190092Y-41999302D01*
X120332748Y-42071131D01*
X120403976Y-42142759D01*
X120475005Y-42285815D01*
X120545633Y-42571729D01*
X120544633Y-42928870D01*
X120472405Y-43214383D01*
X120400576Y-43357040D01*
X120328948Y-43428268D01*
X120185891Y-43499296D01*
X120043035Y-43498896D01*
X119900378Y-43427068D01*
X119829150Y-43355440D01*
X119758122Y-43212383D01*
X119687493Y-42926470D01*
X119688493Y-42569329D01*
X119760722Y-42283815D01*
X119832550Y-42141159D01*
X119904178Y-42069930D01*
X120047235Y-41998902D01*
X122328740Y-43505297D02*
X122331540Y-42505301D01*
X122331140Y-42648157D02*
X122402768Y-42576929D01*
X122545825Y-42505901D01*
X122760110Y-42506501D01*
X122902767Y-42578329D01*
X122973795Y-42721386D01*
X122971595Y-43507097D01*
X122973795Y-42721386D02*
X123045623Y-42578729D01*
X123188680Y-42507701D01*
X123402965Y-42508301D01*
X123545621Y-42580129D01*
X123616649Y-42723186D01*
X123614449Y-43508897D01*
X124328732Y-43510897D02*
X124331532Y-42510901D01*
X124331132Y-42653757D02*
X124402761Y-42582529D01*
X124545817Y-42511501D01*
X124760102Y-42512101D01*
X124902759Y-42583929D01*
X124973787Y-42726986D01*
X124971587Y-43512697D01*
X124973787Y-42726986D02*
X125045615Y-42584329D01*
X125188672Y-42513301D01*
X125402957Y-42513901D01*
X125545613Y-42585729D01*
X125616642Y-42728786D01*
X125614441Y-43514497D01*
X133754729Y-44208723D02*
X105184729Y-44128723D01*
X133730000Y-53040000D02*
X133762289Y-41508734D01*
X105160000Y-52960000D02*
X105192289Y-41428734D01*
X105184729Y-44128723D02*
X106312870Y-43545459D01*
X105184729Y-44128723D02*
X106309586Y-44718296D01*
X133754729Y-44208723D02*
X132629872Y-43619150D01*
X133754729Y-44208723D02*
X132626588Y-44791987D01*
X76078571Y-77232142D02*
X76078571Y-78089285D01*
X76078571Y-77660714D02*
X74578571Y-77660714D01*
X74792857Y-77803571D01*
X74935714Y-77946428D01*
X75007142Y-78089285D01*
X74578571Y-76303571D02*
X74578571Y-76160714D01*
X74650000Y-76017857D01*
X74721428Y-75946428D01*
X74864285Y-75875000D01*
X75150000Y-75803571D01*
X75507142Y-75803571D01*
X75792857Y-75875000D01*
X75935714Y-75946428D01*
X76007142Y-76017857D01*
X76078571Y-76160714D01*
X76078571Y-76303571D01*
X76007142Y-76446428D01*
X75935714Y-76517857D01*
X75792857Y-76589285D01*
X75507142Y-76660714D01*
X75150000Y-76660714D01*
X74864285Y-76589285D01*
X74721428Y-76517857D01*
X74650000Y-76446428D01*
X74578571Y-76303571D01*
X76007142Y-75089285D02*
X76078571Y-75089285D01*
X76221428Y-75160714D01*
X76292857Y-75232142D01*
X74578571Y-74589285D02*
X74578571Y-73589285D01*
X76078571Y-74232142D01*
X74578571Y-72303571D02*
X74578571Y-73017857D01*
X75292857Y-73089285D01*
X75221428Y-73017857D01*
X75150000Y-72875000D01*
X75150000Y-72517857D01*
X75221428Y-72375000D01*
X75292857Y-72303571D01*
X75435714Y-72232142D01*
X75792857Y-72232142D01*
X75935714Y-72303571D01*
X76007142Y-72375000D01*
X76078571Y-72517857D01*
X76078571Y-72875000D01*
X76007142Y-73017857D01*
X75935714Y-73089285D01*
X74578571Y-71303571D02*
X74578571Y-71160714D01*
X74650000Y-71017857D01*
X74721428Y-70946428D01*
X74864285Y-70875000D01*
X75150000Y-70803571D01*
X75507142Y-70803571D01*
X75792857Y-70875000D01*
X75935714Y-70946428D01*
X76007142Y-71017857D01*
X76078571Y-71160714D01*
X76078571Y-71303571D01*
X76007142Y-71446428D01*
X75935714Y-71517857D01*
X75792857Y-71589285D01*
X75507142Y-71660714D01*
X75150000Y-71660714D01*
X74864285Y-71589285D01*
X74721428Y-71517857D01*
X74650000Y-71446428D01*
X74578571Y-71303571D01*
X76078571Y-69017857D02*
X75078571Y-69017857D01*
X75221428Y-69017857D02*
X75150000Y-68946428D01*
X75078571Y-68803571D01*
X75078571Y-68589285D01*
X75150000Y-68446428D01*
X75292857Y-68375000D01*
X76078571Y-68375000D01*
X75292857Y-68375000D02*
X75150000Y-68303571D01*
X75078571Y-68160714D01*
X75078571Y-67946428D01*
X75150000Y-67803571D01*
X75292857Y-67732142D01*
X76078571Y-67732142D01*
X76078571Y-67017857D02*
X75078571Y-67017857D01*
X75221428Y-67017857D02*
X75150000Y-66946428D01*
X75078571Y-66803571D01*
X75078571Y-66589285D01*
X75150000Y-66446428D01*
X75292857Y-66375000D01*
X76078571Y-66375000D01*
X75292857Y-66375000D02*
X75150000Y-66303571D01*
X75078571Y-66160714D01*
X75078571Y-65946428D01*
X75150000Y-65803571D01*
X75292857Y-65732142D01*
X76078571Y-65732142D01*
X76750000Y-77250000D02*
X76750000Y-66500000D01*
X105000000Y-77250000D02*
X74050000Y-77250000D01*
X105000000Y-66500000D02*
X74050000Y-66500000D01*
X76750000Y-66500000D02*
X77336421Y-67626504D01*
X76750000Y-66500000D02*
X76163579Y-67626504D01*
X76750000Y-77250000D02*
X77336421Y-76123496D01*
X76750000Y-77250000D02*
X76163579Y-76123496D01*
X79221428Y-67339285D02*
X79150000Y-67482142D01*
X79078571Y-67553571D01*
X78935714Y-67625000D01*
X78864285Y-67625000D01*
X78721428Y-67553571D01*
X78650000Y-67482142D01*
X78578571Y-67339285D01*
X78578571Y-67053571D01*
X78650000Y-66910714D01*
X78721428Y-66839285D01*
X78864285Y-66767857D01*
X78935714Y-66767857D01*
X79078571Y-66839285D01*
X79150000Y-66910714D01*
X79221428Y-67053571D01*
X79221428Y-67339285D01*
X79292857Y-67482142D01*
X79364285Y-67553571D01*
X79507142Y-67625000D01*
X79792857Y-67625000D01*
X79935714Y-67553571D01*
X80007142Y-67482142D01*
X80078571Y-67339285D01*
X80078571Y-67053571D01*
X80007142Y-66910714D01*
X79935714Y-66839285D01*
X79792857Y-66767857D01*
X79507142Y-66767857D01*
X79364285Y-66839285D01*
X79292857Y-66910714D01*
X79221428Y-67053571D01*
X80007142Y-66053571D02*
X80078571Y-66053571D01*
X80221428Y-66125000D01*
X80292857Y-66196428D01*
X78721428Y-65482142D02*
X78650000Y-65410714D01*
X78578571Y-65267857D01*
X78578571Y-64910714D01*
X78650000Y-64767857D01*
X78721428Y-64696428D01*
X78864285Y-64625000D01*
X79007142Y-64625000D01*
X79221428Y-64696428D01*
X80078571Y-65553571D01*
X80078571Y-64625000D01*
X78578571Y-63267857D02*
X78578571Y-63982142D01*
X79292857Y-64053571D01*
X79221428Y-63982142D01*
X79150000Y-63839285D01*
X79150000Y-63482142D01*
X79221428Y-63339285D01*
X79292857Y-63267857D01*
X79435714Y-63196428D01*
X79792857Y-63196428D01*
X79935714Y-63267857D01*
X80007142Y-63339285D01*
X80078571Y-63482142D01*
X80078571Y-63839285D01*
X80007142Y-63982142D01*
X79935714Y-64053571D01*
X78578571Y-62267857D02*
X78578571Y-62125000D01*
X78650000Y-61982142D01*
X78721428Y-61910714D01*
X78864285Y-61839285D01*
X79150000Y-61767857D01*
X79507142Y-61767857D01*
X79792857Y-61839285D01*
X79935714Y-61910714D01*
X80007142Y-61982142D01*
X80078571Y-62125000D01*
X80078571Y-62267857D01*
X80007142Y-62410714D01*
X79935714Y-62482142D01*
X79792857Y-62553571D01*
X79507142Y-62625000D01*
X79150000Y-62625000D01*
X78864285Y-62553571D01*
X78721428Y-62482142D01*
X78650000Y-62410714D01*
X78578571Y-62267857D01*
X80078571Y-59982142D02*
X79078571Y-59982142D01*
X79221428Y-59982142D02*
X79150000Y-59910714D01*
X79078571Y-59767857D01*
X79078571Y-59553571D01*
X79150000Y-59410714D01*
X79292857Y-59339285D01*
X80078571Y-59339285D01*
X79292857Y-59339285D02*
X79150000Y-59267857D01*
X79078571Y-59125000D01*
X79078571Y-58910714D01*
X79150000Y-58767857D01*
X79292857Y-58696428D01*
X80078571Y-58696428D01*
X80078571Y-57982142D02*
X79078571Y-57982142D01*
X79221428Y-57982142D02*
X79150000Y-57910714D01*
X79078571Y-57767857D01*
X79078571Y-57553571D01*
X79150000Y-57410714D01*
X79292857Y-57339285D01*
X80078571Y-57339285D01*
X79292857Y-57339285D02*
X79150000Y-57267857D01*
X79078571Y-57125000D01*
X79078571Y-56910714D01*
X79150000Y-56767857D01*
X79292857Y-56696428D01*
X80078571Y-56696428D01*
X80750000Y-66250000D02*
X80750000Y-58000000D01*
X105000000Y-66250000D02*
X78050000Y-66250000D01*
X105000000Y-58000000D02*
X78050000Y-58000000D01*
X80750000Y-58000000D02*
X81336421Y-59126504D01*
X80750000Y-58000000D02*
X80163579Y-59126504D01*
X80750000Y-66250000D02*
X81336421Y-65123496D01*
X80750000Y-66250000D02*
X80163579Y-65123496D01*
X95471428Y-48142857D02*
X95471428Y-48428571D01*
X95542857Y-48571428D01*
X95614285Y-48642857D01*
X95828571Y-48785714D01*
X96114285Y-48857142D01*
X96685714Y-48857142D01*
X96828571Y-48785714D01*
X96900000Y-48714285D01*
X96971428Y-48571428D01*
X96971428Y-48285714D01*
X96900000Y-48142857D01*
X96828571Y-48071428D01*
X96685714Y-48000000D01*
X96328571Y-48000000D01*
X96185714Y-48071428D01*
X96114285Y-48142857D01*
X96042857Y-48285714D01*
X96042857Y-48571428D01*
X96114285Y-48714285D01*
X96185714Y-48785714D01*
X96328571Y-48857142D01*
X95542857Y-49571428D02*
X95471428Y-49571428D01*
X95328571Y-49500000D01*
X95257142Y-49428571D01*
X96971428Y-50500000D02*
X96971428Y-50642857D01*
X96900000Y-50785714D01*
X96828571Y-50857142D01*
X96685714Y-50928571D01*
X96400000Y-51000000D01*
X96042857Y-51000000D01*
X95757142Y-50928571D01*
X95614285Y-50857142D01*
X95542857Y-50785714D01*
X95471428Y-50642857D01*
X95471428Y-50500000D01*
X95542857Y-50357142D01*
X95614285Y-50285714D01*
X95757142Y-50214285D01*
X96042857Y-50142857D01*
X96400000Y-50142857D01*
X96685714Y-50214285D01*
X96828571Y-50285714D01*
X96900000Y-50357142D01*
X96971428Y-50500000D01*
X96971428Y-51928571D02*
X96971428Y-52071428D01*
X96900000Y-52214285D01*
X96828571Y-52285714D01*
X96685714Y-52357142D01*
X96400000Y-52428571D01*
X96042857Y-52428571D01*
X95757142Y-52357142D01*
X95614285Y-52285714D01*
X95542857Y-52214285D01*
X95471428Y-52071428D01*
X95471428Y-51928571D01*
X95542857Y-51785714D01*
X95614285Y-51714285D01*
X95757142Y-51642857D01*
X96042857Y-51571428D01*
X96400000Y-51571428D01*
X96685714Y-51642857D01*
X96828571Y-51714285D01*
X96900000Y-51785714D01*
X96971428Y-51928571D01*
X96971428Y-53357142D02*
X96971428Y-53500000D01*
X96900000Y-53642857D01*
X96828571Y-53714285D01*
X96685714Y-53785714D01*
X96400000Y-53857142D01*
X96042857Y-53857142D01*
X95757142Y-53785714D01*
X95614285Y-53714285D01*
X95542857Y-53642857D01*
X95471428Y-53500000D01*
X95471428Y-53357142D01*
X95542857Y-53214285D01*
X95614285Y-53142857D01*
X95757142Y-53071428D01*
X96042857Y-53000000D01*
X96400000Y-53000000D01*
X96685714Y-53071428D01*
X96828571Y-53142857D01*
X96900000Y-53214285D01*
X96971428Y-53357142D01*
X95471428Y-55642857D02*
X96471428Y-55642857D01*
X96328571Y-55642857D02*
X96400000Y-55714285D01*
X96471428Y-55857142D01*
X96471428Y-56071428D01*
X96400000Y-56214285D01*
X96257142Y-56285714D01*
X95471428Y-56285714D01*
X96257142Y-56285714D02*
X96400000Y-56357142D01*
X96471428Y-56500000D01*
X96471428Y-56714285D01*
X96400000Y-56857142D01*
X96257142Y-56928571D01*
X95471428Y-56928571D01*
X95471428Y-57642857D02*
X96471428Y-57642857D01*
X96328571Y-57642857D02*
X96400000Y-57714285D01*
X96471428Y-57857142D01*
X96471428Y-58071428D01*
X96400000Y-58214285D01*
X96257142Y-58285714D01*
X95471428Y-58285714D01*
X96257142Y-58285714D02*
X96400000Y-58357142D01*
X96471428Y-58500000D01*
X96471428Y-58714285D01*
X96400000Y-58857142D01*
X96257142Y-58928571D01*
X95471428Y-58928571D01*
X97500000Y-49000000D02*
X97500000Y-58000000D01*
X104500000Y-49000000D02*
X94800000Y-49000000D01*
X104500000Y-58000000D02*
X94800000Y-58000000D01*
X97500000Y-58000000D02*
X96913579Y-56873496D01*
X97500000Y-58000000D02*
X98086421Y-56873496D01*
X97500000Y-49000000D02*
X96913579Y-50126504D01*
X97500000Y-49000000D02*
X98086421Y-50126504D01*
X175607142Y-41328571D02*
X174750000Y-41328571D01*
X175178571Y-41328571D02*
X175178571Y-39828571D01*
X175035714Y-40042857D01*
X174892857Y-40185714D01*
X174750000Y-40257142D01*
X176321428Y-41257142D02*
X176321428Y-41328571D01*
X176250000Y-41471428D01*
X176178571Y-41542857D01*
X177678571Y-39828571D02*
X176964285Y-39828571D01*
X176892857Y-40542857D01*
X176964285Y-40471428D01*
X177107142Y-40400000D01*
X177464285Y-40400000D01*
X177607142Y-40471428D01*
X177678571Y-40542857D01*
X177750000Y-40685714D01*
X177750000Y-41042857D01*
X177678571Y-41185714D01*
X177607142Y-41257142D01*
X177464285Y-41328571D01*
X177107142Y-41328571D01*
X176964285Y-41257142D01*
X176892857Y-41185714D01*
X178678571Y-39828571D02*
X178821428Y-39828571D01*
X178964285Y-39900000D01*
X179035714Y-39971428D01*
X179107142Y-40114285D01*
X179178571Y-40400000D01*
X179178571Y-40757142D01*
X179107142Y-41042857D01*
X179035714Y-41185714D01*
X178964285Y-41257142D01*
X178821428Y-41328571D01*
X178678571Y-41328571D01*
X178535714Y-41257142D01*
X178464285Y-41185714D01*
X178392857Y-41042857D01*
X178321428Y-40757142D01*
X178321428Y-40400000D01*
X178392857Y-40114285D01*
X178464285Y-39971428D01*
X178535714Y-39900000D01*
X178678571Y-39828571D01*
X180107142Y-39828571D02*
X180250000Y-39828571D01*
X180392857Y-39900000D01*
X180464285Y-39971428D01*
X180535714Y-40114285D01*
X180607142Y-40400000D01*
X180607142Y-40757142D01*
X180535714Y-41042857D01*
X180464285Y-41185714D01*
X180392857Y-41257142D01*
X180250000Y-41328571D01*
X180107142Y-41328571D01*
X179964285Y-41257142D01*
X179892857Y-41185714D01*
X179821428Y-41042857D01*
X179750000Y-40757142D01*
X179750000Y-40400000D01*
X179821428Y-40114285D01*
X179892857Y-39971428D01*
X179964285Y-39900000D01*
X180107142Y-39828571D01*
X182392857Y-41328571D02*
X182392857Y-40328571D01*
X182392857Y-40471428D02*
X182464285Y-40400000D01*
X182607142Y-40328571D01*
X182821428Y-40328571D01*
X182964285Y-40400000D01*
X183035714Y-40542857D01*
X183035714Y-41328571D01*
X183035714Y-40542857D02*
X183107142Y-40400000D01*
X183250000Y-40328571D01*
X183464285Y-40328571D01*
X183607142Y-40400000D01*
X183678571Y-40542857D01*
X183678571Y-41328571D01*
X184392857Y-41328571D02*
X184392857Y-40328571D01*
X184392857Y-40471428D02*
X184464285Y-40400000D01*
X184607142Y-40328571D01*
X184821428Y-40328571D01*
X184964285Y-40400000D01*
X185035714Y-40542857D01*
X185035714Y-41328571D01*
X185035714Y-40542857D02*
X185107142Y-40400000D01*
X185250000Y-40328571D01*
X185464285Y-40328571D01*
X185607142Y-40400000D01*
X185678571Y-40542857D01*
X185678571Y-41328571D01*
X179500000Y-42000000D02*
X181000000Y-42000000D01*
X179500000Y-53500000D02*
X179500000Y-39300000D01*
X181000000Y-53500000D02*
X181000000Y-39300000D01*
X181000000Y-42000000D02*
X179873496Y-42586421D01*
X181000000Y-42000000D02*
X179873496Y-41413579D01*
X179500000Y-42000000D02*
X180626504Y-42586421D01*
X179500000Y-42000000D02*
X180626504Y-41413579D01*
X207528571Y-54392857D02*
X207528571Y-55250000D01*
X207528571Y-54821428D02*
X206028571Y-54821428D01*
X206242857Y-54964285D01*
X206385714Y-55107142D01*
X206457142Y-55250000D01*
X207457142Y-53678571D02*
X207528571Y-53678571D01*
X207671428Y-53750000D01*
X207742857Y-53821428D01*
X206028571Y-52321428D02*
X206028571Y-53035714D01*
X206742857Y-53107142D01*
X206671428Y-53035714D01*
X206600000Y-52892857D01*
X206600000Y-52535714D01*
X206671428Y-52392857D01*
X206742857Y-52321428D01*
X206885714Y-52250000D01*
X207242857Y-52250000D01*
X207385714Y-52321428D01*
X207457142Y-52392857D01*
X207528571Y-52535714D01*
X207528571Y-52892857D01*
X207457142Y-53035714D01*
X207385714Y-53107142D01*
X206028571Y-51321428D02*
X206028571Y-51178571D01*
X206100000Y-51035714D01*
X206171428Y-50964285D01*
X206314285Y-50892857D01*
X206600000Y-50821428D01*
X206957142Y-50821428D01*
X207242857Y-50892857D01*
X207385714Y-50964285D01*
X207457142Y-51035714D01*
X207528571Y-51178571D01*
X207528571Y-51321428D01*
X207457142Y-51464285D01*
X207385714Y-51535714D01*
X207242857Y-51607142D01*
X206957142Y-51678571D01*
X206600000Y-51678571D01*
X206314285Y-51607142D01*
X206171428Y-51535714D01*
X206100000Y-51464285D01*
X206028571Y-51321428D01*
X206028571Y-49892857D02*
X206028571Y-49750000D01*
X206100000Y-49607142D01*
X206171428Y-49535714D01*
X206314285Y-49464285D01*
X206600000Y-49392857D01*
X206957142Y-49392857D01*
X207242857Y-49464285D01*
X207385714Y-49535714D01*
X207457142Y-49607142D01*
X207528571Y-49750000D01*
X207528571Y-49892857D01*
X207457142Y-50035714D01*
X207385714Y-50107142D01*
X207242857Y-50178571D01*
X206957142Y-50250000D01*
X206600000Y-50250000D01*
X206314285Y-50178571D01*
X206171428Y-50107142D01*
X206100000Y-50035714D01*
X206028571Y-49892857D01*
X207528571Y-47607142D02*
X206528571Y-47607142D01*
X206671428Y-47607142D02*
X206600000Y-47535714D01*
X206528571Y-47392857D01*
X206528571Y-47178571D01*
X206600000Y-47035714D01*
X206742857Y-46964285D01*
X207528571Y-46964285D01*
X206742857Y-46964285D02*
X206600000Y-46892857D01*
X206528571Y-46750000D01*
X206528571Y-46535714D01*
X206600000Y-46392857D01*
X206742857Y-46321428D01*
X207528571Y-46321428D01*
X207528571Y-45607142D02*
X206528571Y-45607142D01*
X206671428Y-45607142D02*
X206600000Y-45535714D01*
X206528571Y-45392857D01*
X206528571Y-45178571D01*
X206600000Y-45035714D01*
X206742857Y-44964285D01*
X207528571Y-44964285D01*
X206742857Y-44964285D02*
X206600000Y-44892857D01*
X206528571Y-44750000D01*
X206528571Y-44535714D01*
X206600000Y-44392857D01*
X206742857Y-44321428D01*
X207528571Y-44321428D01*
X205500000Y-50500000D02*
X205500000Y-49000000D01*
X176500000Y-50500000D02*
X208200000Y-50500000D01*
X176500000Y-49000000D02*
X208200000Y-49000000D01*
X205500000Y-49000000D02*
X206086421Y-50126504D01*
X205500000Y-49000000D02*
X204913579Y-50126504D01*
X205500000Y-50500000D02*
X206086421Y-49373496D01*
X205500000Y-50500000D02*
X204913579Y-49373496D01*
X199671428Y-48714285D02*
X199671428Y-48428571D01*
X199600000Y-48285714D01*
X199528571Y-48214285D01*
X199314285Y-48071428D01*
X199028571Y-48000000D01*
X198457142Y-48000000D01*
X198314285Y-48071428D01*
X198242857Y-48142857D01*
X198171428Y-48285714D01*
X198171428Y-48571428D01*
X198242857Y-48714285D01*
X198314285Y-48785714D01*
X198457142Y-48857142D01*
X198814285Y-48857142D01*
X198957142Y-48785714D01*
X199028571Y-48714285D01*
X199100000Y-48571428D01*
X199100000Y-48285714D01*
X199028571Y-48142857D01*
X198957142Y-48071428D01*
X198814285Y-48000000D01*
X198242857Y-49571428D02*
X198171428Y-49571428D01*
X198028571Y-49500000D01*
X197957142Y-49428571D01*
X199671428Y-50500000D02*
X199671428Y-50642857D01*
X199600000Y-50785714D01*
X199528571Y-50857142D01*
X199385714Y-50928571D01*
X199100000Y-51000000D01*
X198742857Y-51000000D01*
X198457142Y-50928571D01*
X198314285Y-50857142D01*
X198242857Y-50785714D01*
X198171428Y-50642857D01*
X198171428Y-50500000D01*
X198242857Y-50357142D01*
X198314285Y-50285714D01*
X198457142Y-50214285D01*
X198742857Y-50142857D01*
X199100000Y-50142857D01*
X199385714Y-50214285D01*
X199528571Y-50285714D01*
X199600000Y-50357142D01*
X199671428Y-50500000D01*
X199671428Y-51928571D02*
X199671428Y-52071428D01*
X199600000Y-52214285D01*
X199528571Y-52285714D01*
X199385714Y-52357142D01*
X199100000Y-52428571D01*
X198742857Y-52428571D01*
X198457142Y-52357142D01*
X198314285Y-52285714D01*
X198242857Y-52214285D01*
X198171428Y-52071428D01*
X198171428Y-51928571D01*
X198242857Y-51785714D01*
X198314285Y-51714285D01*
X198457142Y-51642857D01*
X198742857Y-51571428D01*
X199100000Y-51571428D01*
X199385714Y-51642857D01*
X199528571Y-51714285D01*
X199600000Y-51785714D01*
X199671428Y-51928571D01*
X199671428Y-53357142D02*
X199671428Y-53500000D01*
X199600000Y-53642857D01*
X199528571Y-53714285D01*
X199385714Y-53785714D01*
X199100000Y-53857142D01*
X198742857Y-53857142D01*
X198457142Y-53785714D01*
X198314285Y-53714285D01*
X198242857Y-53642857D01*
X198171428Y-53500000D01*
X198171428Y-53357142D01*
X198242857Y-53214285D01*
X198314285Y-53142857D01*
X198457142Y-53071428D01*
X198742857Y-53000000D01*
X199100000Y-53000000D01*
X199385714Y-53071428D01*
X199528571Y-53142857D01*
X199600000Y-53214285D01*
X199671428Y-53357142D01*
X198171428Y-55642857D02*
X199171428Y-55642857D01*
X199028571Y-55642857D02*
X199100000Y-55714285D01*
X199171428Y-55857142D01*
X199171428Y-56071428D01*
X199100000Y-56214285D01*
X198957142Y-56285714D01*
X198171428Y-56285714D01*
X198957142Y-56285714D02*
X199100000Y-56357142D01*
X199171428Y-56500000D01*
X199171428Y-56714285D01*
X199100000Y-56857142D01*
X198957142Y-56928571D01*
X198171428Y-56928571D01*
X198171428Y-57642857D02*
X199171428Y-57642857D01*
X199028571Y-57642857D02*
X199100000Y-57714285D01*
X199171428Y-57857142D01*
X199171428Y-58071428D01*
X199100000Y-58214285D01*
X198957142Y-58285714D01*
X198171428Y-58285714D01*
X198957142Y-58285714D02*
X199100000Y-58357142D01*
X199171428Y-58500000D01*
X199171428Y-58714285D01*
X199100000Y-58857142D01*
X198957142Y-58928571D01*
X198171428Y-58928571D01*
X197500000Y-50500000D02*
X197500000Y-56500000D01*
X176500000Y-50500000D02*
X200200000Y-50500000D01*
X176500000Y-56500000D02*
X200200000Y-56500000D01*
X197500000Y-56500000D02*
X196913579Y-55373496D01*
X197500000Y-56500000D02*
X198086421Y-55373496D01*
X197500000Y-50500000D02*
X196913579Y-51626504D01*
X197500000Y-50500000D02*
X198086421Y-51626504D01*
X201315571Y-115362928D02*
X201315571Y-114362928D01*
X202815571Y-115005785D01*
X202744142Y-113720071D02*
X202815571Y-113720071D01*
X202958428Y-113791500D01*
X203029857Y-113862928D01*
X201315571Y-113220071D02*
X201315571Y-112220071D01*
X202815571Y-112862928D01*
X201815571Y-111005785D02*
X202815571Y-111005785D01*
X201244142Y-111362928D02*
X202315571Y-111720071D01*
X202315571Y-110791500D01*
X201315571Y-110362928D02*
X201315571Y-109362928D01*
X202815571Y-110005785D01*
X202815571Y-107648642D02*
X201815571Y-107648642D01*
X201958428Y-107648642D02*
X201887000Y-107577214D01*
X201815571Y-107434357D01*
X201815571Y-107220071D01*
X201887000Y-107077214D01*
X202029857Y-107005785D01*
X202815571Y-107005785D01*
X202029857Y-107005785D02*
X201887000Y-106934357D01*
X201815571Y-106791500D01*
X201815571Y-106577214D01*
X201887000Y-106434357D01*
X202029857Y-106362928D01*
X202815571Y-106362928D01*
X202815571Y-105648642D02*
X201815571Y-105648642D01*
X201958428Y-105648642D02*
X201887000Y-105577214D01*
X201815571Y-105434357D01*
X201815571Y-105220071D01*
X201887000Y-105077214D01*
X202029857Y-105005785D01*
X202815571Y-105005785D01*
X202029857Y-105005785D02*
X201887000Y-104934357D01*
X201815571Y-104791500D01*
X201815571Y-104577214D01*
X201887000Y-104434357D01*
X202029857Y-104362928D01*
X202815571Y-104362928D01*
X200787000Y-113665000D02*
X200787000Y-105918000D01*
X181102000Y-113665000D02*
X203487000Y-113665000D01*
X181102000Y-105918000D02*
X203487000Y-105918000D01*
X200787000Y-105918000D02*
X201373421Y-107044504D01*
X200787000Y-105918000D02*
X200200579Y-107044504D01*
X200787000Y-113665000D02*
X201373421Y-112538496D01*
X200787000Y-113665000D02*
X200200579Y-112538496D01*
X168378857Y-160905571D02*
X167521714Y-160905571D01*
X167950285Y-160905571D02*
X167950285Y-159405571D01*
X167807428Y-159619857D01*
X167664571Y-159762714D01*
X167521714Y-159834142D01*
X169664571Y-159905571D02*
X169664571Y-160905571D01*
X169307428Y-159334142D02*
X168950285Y-160405571D01*
X169878857Y-160405571D01*
X170521714Y-160834142D02*
X170521714Y-160905571D01*
X170450285Y-161048428D01*
X170378857Y-161119857D01*
X171021714Y-159405571D02*
X172021714Y-159405571D01*
X171378857Y-160905571D01*
X172450285Y-159405571D02*
X173378857Y-159405571D01*
X172878857Y-159977000D01*
X173093142Y-159977000D01*
X173236000Y-160048428D01*
X173307428Y-160119857D01*
X173378857Y-160262714D01*
X173378857Y-160619857D01*
X173307428Y-160762714D01*
X173236000Y-160834142D01*
X173093142Y-160905571D01*
X172664571Y-160905571D01*
X172521714Y-160834142D01*
X172450285Y-160762714D01*
X173950285Y-159548428D02*
X174021714Y-159477000D01*
X174164571Y-159405571D01*
X174521714Y-159405571D01*
X174664571Y-159477000D01*
X174736000Y-159548428D01*
X174807428Y-159691285D01*
X174807428Y-159834142D01*
X174736000Y-160048428D01*
X173878857Y-160905571D01*
X174807428Y-160905571D01*
X176593142Y-160905571D02*
X176593142Y-159905571D01*
X176593142Y-160048428D02*
X176664571Y-159977000D01*
X176807428Y-159905571D01*
X177021714Y-159905571D01*
X177164571Y-159977000D01*
X177236000Y-160119857D01*
X177236000Y-160905571D01*
X177236000Y-160119857D02*
X177307428Y-159977000D01*
X177450285Y-159905571D01*
X177664571Y-159905571D01*
X177807428Y-159977000D01*
X177878857Y-160119857D01*
X177878857Y-160905571D01*
X178593142Y-160905571D02*
X178593142Y-159905571D01*
X178593142Y-160048428D02*
X178664571Y-159977000D01*
X178807428Y-159905571D01*
X179021714Y-159905571D01*
X179164571Y-159977000D01*
X179236000Y-160119857D01*
X179236000Y-160905571D01*
X179236000Y-160119857D02*
X179307428Y-159977000D01*
X179450285Y-159905571D01*
X179664571Y-159905571D01*
X179807428Y-159977000D01*
X179878857Y-160119857D01*
X179878857Y-160905571D01*
X166370000Y-158877000D02*
X181102000Y-158877000D01*
X166370000Y-116840000D02*
X166370000Y-161577000D01*
X181102000Y-116840000D02*
X181102000Y-161577000D01*
X181102000Y-158877000D02*
X179975496Y-159463421D01*
X181102000Y-158877000D02*
X179975496Y-158290579D01*
X166370000Y-158877000D02*
X167496504Y-159463421D01*
X166370000Y-158877000D02*
X167496504Y-158290579D01*
X196251428Y-116054857D02*
X196251428Y-116340571D01*
X196322857Y-116483428D01*
X196394285Y-116554857D01*
X196608571Y-116697714D01*
X196894285Y-116769142D01*
X197465714Y-116769142D01*
X197608571Y-116697714D01*
X197680000Y-116626285D01*
X197751428Y-116483428D01*
X197751428Y-116197714D01*
X197680000Y-116054857D01*
X197608571Y-115983428D01*
X197465714Y-115912000D01*
X197108571Y-115912000D01*
X196965714Y-115983428D01*
X196894285Y-116054857D01*
X196822857Y-116197714D01*
X196822857Y-116483428D01*
X196894285Y-116626285D01*
X196965714Y-116697714D01*
X197108571Y-116769142D01*
X196322857Y-117483428D02*
X196251428Y-117483428D01*
X196108571Y-117412000D01*
X196037142Y-117340571D01*
X196251428Y-118912000D02*
X196251428Y-118054857D01*
X196251428Y-118483428D02*
X197751428Y-118483428D01*
X197537142Y-118340571D01*
X197394285Y-118197714D01*
X197322857Y-118054857D01*
X197251428Y-120197714D02*
X196251428Y-120197714D01*
X197822857Y-119840571D02*
X196751428Y-119483428D01*
X196751428Y-120412000D01*
X197251428Y-121626285D02*
X196251428Y-121626285D01*
X197822857Y-121269142D02*
X196751428Y-120912000D01*
X196751428Y-121840571D01*
X196251428Y-123554857D02*
X197251428Y-123554857D01*
X197108571Y-123554857D02*
X197180000Y-123626285D01*
X197251428Y-123769142D01*
X197251428Y-123983428D01*
X197180000Y-124126285D01*
X197037142Y-124197714D01*
X196251428Y-124197714D01*
X197037142Y-124197714D02*
X197180000Y-124269142D01*
X197251428Y-124412000D01*
X197251428Y-124626285D01*
X197180000Y-124769142D01*
X197037142Y-124840571D01*
X196251428Y-124840571D01*
X196251428Y-125554857D02*
X197251428Y-125554857D01*
X197108571Y-125554857D02*
X197180000Y-125626285D01*
X197251428Y-125769142D01*
X197251428Y-125983428D01*
X197180000Y-126126285D01*
X197037142Y-126197714D01*
X196251428Y-126197714D01*
X197037142Y-126197714D02*
X197180000Y-126269142D01*
X197251428Y-126412000D01*
X197251428Y-126626285D01*
X197180000Y-126769142D01*
X197037142Y-126840571D01*
X196251428Y-126840571D01*
X195580000Y-116840000D02*
X195580000Y-125984000D01*
X182880000Y-116840000D02*
X198280000Y-116840000D01*
X182880000Y-125984000D02*
X198280000Y-125984000D01*
X195580000Y-125984000D02*
X194993579Y-124857496D01*
X195580000Y-125984000D02*
X196166421Y-124857496D01*
X195580000Y-116840000D02*
X194993579Y-117966504D01*
X195580000Y-116840000D02*
X196166421Y-117966504D01*
X136796421Y-143985785D02*
X137796420Y-143984110D01*
X137156076Y-145485185D01*
X139082132Y-143981956D02*
X138367847Y-143983153D01*
X138297615Y-144697557D01*
X138368924Y-144626009D01*
X138511662Y-144554341D01*
X138868804Y-144553743D01*
X139011781Y-144624932D01*
X139083329Y-144696241D01*
X139154996Y-144838978D01*
X139155595Y-145196121D01*
X139084405Y-145339097D01*
X139013097Y-145410645D01*
X138870359Y-145482313D01*
X138513217Y-145482911D01*
X138370240Y-145411722D01*
X138298692Y-145340413D01*
X139798690Y-145337901D02*
X139870238Y-145409210D01*
X139798929Y-145480758D01*
X139727381Y-145409449D01*
X139798690Y-145337901D01*
X139798929Y-145480758D01*
X140726064Y-144622061D02*
X140583087Y-144550871D01*
X140511539Y-144479563D01*
X140439871Y-144336825D01*
X140439752Y-144265397D01*
X140510941Y-144122420D01*
X140582250Y-144050872D01*
X140724987Y-143979204D01*
X141010701Y-143978726D01*
X141153677Y-144049915D01*
X141225226Y-144121224D01*
X141296893Y-144263961D01*
X141297013Y-144335390D01*
X141225824Y-144478366D01*
X141154515Y-144549914D01*
X141011778Y-144621582D01*
X140726064Y-144622061D01*
X140583327Y-144693728D01*
X140512018Y-144765277D01*
X140440829Y-144908253D01*
X140441307Y-145193967D01*
X140512975Y-145336704D01*
X140584523Y-145408013D01*
X140727500Y-145479202D01*
X141013213Y-145478724D01*
X141155951Y-145407056D01*
X141227260Y-145335508D01*
X141298449Y-145192531D01*
X141297970Y-144906817D01*
X141226302Y-144764080D01*
X141154754Y-144692771D01*
X141011778Y-144621582D01*
X142727497Y-145475852D02*
X141870355Y-145477288D01*
X142298926Y-145476570D02*
X142296413Y-143976572D01*
X142153915Y-144191097D01*
X142011298Y-144334193D01*
X141868560Y-144405861D01*
X143441781Y-145474656D02*
X143727495Y-145474177D01*
X143870233Y-145402509D01*
X143941541Y-145330961D01*
X144084040Y-145116437D01*
X144154989Y-144830603D01*
X144154032Y-144259175D01*
X144082364Y-144116438D01*
X144010816Y-144045129D01*
X143867840Y-143973940D01*
X143582126Y-143974419D01*
X143439389Y-144046086D01*
X143368080Y-144117634D01*
X143296891Y-144260611D01*
X143297489Y-144617753D01*
X143369157Y-144760491D01*
X143440705Y-144831800D01*
X143583681Y-144902989D01*
X143869395Y-144902510D01*
X144012132Y-144830842D01*
X144083441Y-144759294D01*
X144154630Y-144616318D01*
X145941778Y-145470468D02*
X145940103Y-144470470D01*
X145940342Y-144613326D02*
X146011651Y-144541778D01*
X146154388Y-144470111D01*
X146368674Y-144469752D01*
X146511650Y-144540941D01*
X146583318Y-144683678D01*
X146584634Y-145469391D01*
X146583318Y-144683678D02*
X146654507Y-144540702D01*
X146797245Y-144469034D01*
X147011530Y-144468675D01*
X147154507Y-144539864D01*
X147226174Y-144682601D01*
X147227490Y-145468315D01*
X147941775Y-145467118D02*
X147940100Y-144467119D01*
X147940339Y-144609976D02*
X148011648Y-144538428D01*
X148154386Y-144466761D01*
X148368671Y-144466402D01*
X148511648Y-144537591D01*
X148583315Y-144680328D01*
X148584631Y-145466041D01*
X148583315Y-144680328D02*
X148654504Y-144537351D01*
X148797242Y-144465684D01*
X149011527Y-144465325D01*
X149154504Y-144536514D01*
X149226172Y-144679251D01*
X149227488Y-145464964D01*
X180990742Y-143383186D02*
X105171742Y-143510186D01*
X180975000Y-133985000D02*
X180995265Y-146083182D01*
X105156000Y-134112000D02*
X105176265Y-146210182D01*
X105171742Y-143510186D02*
X106297262Y-142921879D01*
X105171742Y-143510186D02*
X106299226Y-144094719D01*
X180990742Y-143383186D02*
X179863258Y-142798653D01*
X180990742Y-143383186D02*
X179865222Y-143971493D01*
X189639428Y-97495571D02*
X189568000Y-97638428D01*
X189496571Y-97709857D01*
X189353714Y-97781285D01*
X189282285Y-97781285D01*
X189139428Y-97709857D01*
X189068000Y-97638428D01*
X188996571Y-97495571D01*
X188996571Y-97209857D01*
X189068000Y-97067000D01*
X189139428Y-96995571D01*
X189282285Y-96924142D01*
X189353714Y-96924142D01*
X189496571Y-96995571D01*
X189568000Y-97067000D01*
X189639428Y-97209857D01*
X189639428Y-97495571D01*
X189710857Y-97638428D01*
X189782285Y-97709857D01*
X189925142Y-97781285D01*
X190210857Y-97781285D01*
X190353714Y-97709857D01*
X190425142Y-97638428D01*
X190496571Y-97495571D01*
X190496571Y-97209857D01*
X190425142Y-97067000D01*
X190353714Y-96995571D01*
X190210857Y-96924142D01*
X189925142Y-96924142D01*
X189782285Y-96995571D01*
X189710857Y-97067000D01*
X189639428Y-97209857D01*
X188996571Y-95567000D02*
X188996571Y-96281285D01*
X189710857Y-96352714D01*
X189639428Y-96281285D01*
X189568000Y-96138428D01*
X189568000Y-95781285D01*
X189639428Y-95638428D01*
X189710857Y-95567000D01*
X189853714Y-95495571D01*
X190210857Y-95495571D01*
X190353714Y-95567000D01*
X190425142Y-95638428D01*
X190496571Y-95781285D01*
X190496571Y-96138428D01*
X190425142Y-96281285D01*
X190353714Y-96352714D01*
X190353714Y-94852714D02*
X190425142Y-94781285D01*
X190496571Y-94852714D01*
X190425142Y-94924142D01*
X190353714Y-94852714D01*
X190496571Y-94852714D01*
X188996571Y-93852714D02*
X188996571Y-93709857D01*
X189068000Y-93567000D01*
X189139428Y-93495571D01*
X189282285Y-93424142D01*
X189568000Y-93352714D01*
X189925142Y-93352714D01*
X190210857Y-93424142D01*
X190353714Y-93495571D01*
X190425142Y-93567000D01*
X190496571Y-93709857D01*
X190496571Y-93852714D01*
X190425142Y-93995571D01*
X190353714Y-94067000D01*
X190210857Y-94138428D01*
X189925142Y-94209857D01*
X189568000Y-94209857D01*
X189282285Y-94138428D01*
X189139428Y-94067000D01*
X189068000Y-93995571D01*
X188996571Y-93852714D01*
X190496571Y-92638428D02*
X190496571Y-92352714D01*
X190425142Y-92209857D01*
X190353714Y-92138428D01*
X190139428Y-91995571D01*
X189853714Y-91924142D01*
X189282285Y-91924142D01*
X189139428Y-91995571D01*
X189068000Y-92067000D01*
X188996571Y-92209857D01*
X188996571Y-92495571D01*
X189068000Y-92638428D01*
X189139428Y-92709857D01*
X189282285Y-92781285D01*
X189639428Y-92781285D01*
X189782285Y-92709857D01*
X189853714Y-92638428D01*
X189925142Y-92495571D01*
X189925142Y-92209857D01*
X189853714Y-92067000D01*
X189782285Y-91995571D01*
X189639428Y-91924142D01*
X188996571Y-90995571D02*
X188996571Y-90852714D01*
X189068000Y-90709857D01*
X189139428Y-90638428D01*
X189282285Y-90567000D01*
X189568000Y-90495571D01*
X189925142Y-90495571D01*
X190210857Y-90567000D01*
X190353714Y-90638428D01*
X190425142Y-90709857D01*
X190496571Y-90852714D01*
X190496571Y-90995571D01*
X190425142Y-91138428D01*
X190353714Y-91209857D01*
X190210857Y-91281285D01*
X189925142Y-91352714D01*
X189568000Y-91352714D01*
X189282285Y-91281285D01*
X189139428Y-91209857D01*
X189068000Y-91138428D01*
X188996571Y-90995571D01*
X190496571Y-88709857D02*
X189496571Y-88709857D01*
X189639428Y-88709857D02*
X189568000Y-88638428D01*
X189496571Y-88495571D01*
X189496571Y-88281285D01*
X189568000Y-88138428D01*
X189710857Y-88067000D01*
X190496571Y-88067000D01*
X189710857Y-88067000D02*
X189568000Y-87995571D01*
X189496571Y-87852714D01*
X189496571Y-87638428D01*
X189568000Y-87495571D01*
X189710857Y-87424142D01*
X190496571Y-87424142D01*
X190496571Y-86709857D02*
X189496571Y-86709857D01*
X189639428Y-86709857D02*
X189568000Y-86638428D01*
X189496571Y-86495571D01*
X189496571Y-86281285D01*
X189568000Y-86138428D01*
X189710857Y-86067000D01*
X190496571Y-86067000D01*
X189710857Y-86067000D02*
X189568000Y-85995571D01*
X189496571Y-85852714D01*
X189496571Y-85638428D01*
X189568000Y-85495571D01*
X189710857Y-85424142D01*
X190496571Y-85424142D01*
X188468000Y-134112000D02*
X188468000Y-49022000D01*
X181102000Y-134112000D02*
X191168000Y-134112000D01*
X181102000Y-49022000D02*
X191168000Y-49022000D01*
X188468000Y-49022000D02*
X189054421Y-50148504D01*
X188468000Y-49022000D02*
X187881579Y-50148504D01*
X188468000Y-134112000D02*
X189054421Y-132985496D01*
X188468000Y-134112000D02*
X187881579Y-132985496D01*
X117681240Y-33736786D02*
X118609809Y-33734832D01*
X118111013Y-34307311D01*
X118325298Y-34306860D01*
X118468305Y-34377988D01*
X118539884Y-34449266D01*
X118611613Y-34591973D01*
X118612364Y-34949115D01*
X118541236Y-35092122D01*
X118469958Y-35163701D01*
X118327252Y-35235430D01*
X117898681Y-35236332D01*
X117755674Y-35165204D01*
X117684095Y-35093926D01*
X119468303Y-34375884D02*
X119325296Y-34304756D01*
X119253717Y-34233478D01*
X119181988Y-34090772D01*
X119181838Y-34019343D01*
X119252965Y-33876336D01*
X119324244Y-33804757D01*
X119466950Y-33733028D01*
X119752664Y-33732427D01*
X119895671Y-33803555D01*
X119967250Y-33874833D01*
X120038979Y-34017540D01*
X120039129Y-34088968D01*
X119968001Y-34231975D01*
X119896723Y-34303554D01*
X119754016Y-34375283D01*
X119468303Y-34375884D01*
X119325596Y-34447613D01*
X119254318Y-34519192D01*
X119183190Y-34662199D01*
X119183791Y-34947913D01*
X119255520Y-35090619D01*
X119327099Y-35161897D01*
X119470106Y-35233025D01*
X119755820Y-35232424D01*
X119898526Y-35160695D01*
X119969805Y-35089116D01*
X120040932Y-34946109D01*
X120040331Y-34660395D01*
X119968602Y-34517689D01*
X119897023Y-34446411D01*
X119754016Y-34375283D01*
X120755667Y-35158891D02*
X120755818Y-35230320D01*
X120684690Y-35373327D01*
X120613412Y-35444906D01*
X121681231Y-33728369D02*
X121824088Y-33728069D01*
X121967095Y-33799196D01*
X122038674Y-33870475D01*
X122110403Y-34013181D01*
X122182432Y-34298744D01*
X122183184Y-34655887D01*
X122112356Y-34941750D01*
X122041229Y-35084758D01*
X121969950Y-35156336D01*
X121827244Y-35228065D01*
X121684387Y-35228366D01*
X121541380Y-35157238D01*
X121469801Y-35085960D01*
X121398072Y-34943253D01*
X121326043Y-34657690D01*
X121325291Y-34300548D01*
X121396118Y-34014684D01*
X121467246Y-33871677D01*
X121538524Y-33800098D01*
X121681231Y-33728369D01*
X122752958Y-33868972D02*
X122824236Y-33797393D01*
X122966942Y-33725664D01*
X123324084Y-33724912D01*
X123467091Y-33796040D01*
X123538670Y-33867318D01*
X123610399Y-34010025D01*
X123610700Y-34152882D01*
X123539722Y-34367317D01*
X122684385Y-35226262D01*
X123612954Y-35224308D01*
X124538367Y-33722357D02*
X124681224Y-33722057D01*
X124824231Y-33793185D01*
X124895810Y-33864463D01*
X124967539Y-34007169D01*
X125039569Y-34292733D01*
X125040320Y-34649875D01*
X124969493Y-34935739D01*
X124898365Y-35078746D01*
X124827087Y-35150324D01*
X124684380Y-35222053D01*
X124541524Y-35222354D01*
X124398517Y-35151226D01*
X124326938Y-35079948D01*
X124255209Y-34937242D01*
X124183179Y-34651678D01*
X124182428Y-34294536D01*
X124253255Y-34008672D01*
X124324383Y-33865665D01*
X124395661Y-33794086D01*
X124538367Y-33722357D01*
X126827233Y-35217545D02*
X126825129Y-34217547D01*
X126825429Y-34360404D02*
X126896707Y-34288825D01*
X127039414Y-34217096D01*
X127253699Y-34216645D01*
X127396706Y-34287773D01*
X127468435Y-34430479D01*
X127470089Y-35216192D01*
X127468435Y-34430479D02*
X127539563Y-34287472D01*
X127682270Y-34215743D01*
X127896555Y-34215292D01*
X128039562Y-34286420D01*
X128111291Y-34429127D01*
X128112944Y-35214839D01*
X128827228Y-35213336D02*
X128825124Y-34213338D01*
X128825425Y-34356195D02*
X128896703Y-34284617D01*
X129039410Y-34212888D01*
X129253695Y-34212437D01*
X129396702Y-34283565D01*
X129468431Y-34426271D01*
X129470084Y-35211984D01*
X129468431Y-34426271D02*
X129539559Y-34283264D01*
X129682265Y-34211535D01*
X129896550Y-34211084D01*
X130039558Y-34282212D01*
X130111287Y-34424918D01*
X130112940Y-35210631D01*
X104961510Y-35934984D02*
X142981510Y-35854984D01*
X104970000Y-39970000D02*
X104955829Y-33234990D01*
X142990000Y-39890000D02*
X142975829Y-33154990D01*
X142981510Y-35854984D02*
X141856243Y-36443774D01*
X142981510Y-35854984D02*
X141853775Y-35270935D01*
X104961510Y-35934984D02*
X106089245Y-36519033D01*
X104961510Y-35934984D02*
X106086777Y-35346194D01*
M02*
