%TF.GenerationSoftware,KiCad,Pcbnew,5.1.10-88a1d61d58~88~ubuntu20.04.1*%
%TF.CreationDate,2021-05-12T17:41:59+01:00*%
%TF.ProjectId,flypi,666c7970-692e-46b6-9963-61645f706362,rev?*%
%TF.SameCoordinates,Original*%
%TF.FileFunction,Legend,Bot*%
%TF.FilePolarity,Positive*%
%FSLAX46Y46*%
G04 Gerber Fmt 4.6, Leading zero omitted, Abs format (unit mm)*
G04 Created by KiCad (PCBNEW 5.1.10-88a1d61d58~88~ubuntu20.04.1) date 2021-05-12 17:41:59*
%MOMM*%
%LPD*%
G01*
G04 APERTURE LIST*
%ADD10C,0.300000*%
G04 APERTURE END LIST*
D10*
X142596428Y-95821428D02*
X141596428Y-95535714D01*
X142310714Y-95250000D01*
X141596428Y-94964285D01*
X142596428Y-94678571D01*
X142596428Y-94250000D02*
X141596428Y-93964285D01*
X142310714Y-93678571D01*
X141596428Y-93392857D01*
X142596428Y-93107142D01*
X142596428Y-92678571D02*
X141596428Y-92392857D01*
X142310714Y-92107142D01*
X141596428Y-91821428D01*
X142596428Y-91535714D01*
X141739285Y-90964285D02*
X141667857Y-90892857D01*
X141596428Y-90964285D01*
X141667857Y-91035714D01*
X141739285Y-90964285D01*
X141596428Y-90964285D01*
X142596428Y-90250000D02*
X141096428Y-90250000D01*
X142525000Y-90250000D02*
X142596428Y-90107142D01*
X142596428Y-89821428D01*
X142525000Y-89678571D01*
X142453571Y-89607142D01*
X142310714Y-89535714D01*
X141882142Y-89535714D01*
X141739285Y-89607142D01*
X141667857Y-89678571D01*
X141596428Y-89821428D01*
X141596428Y-90107142D01*
X141667857Y-90250000D01*
X141596428Y-88892857D02*
X142596428Y-88892857D01*
X142310714Y-88892857D02*
X142453571Y-88821428D01*
X142525000Y-88750000D01*
X142596428Y-88607142D01*
X142596428Y-88464285D01*
X141596428Y-87750000D02*
X141667857Y-87892857D01*
X141739285Y-87964285D01*
X141882142Y-88035714D01*
X142310714Y-88035714D01*
X142453571Y-87964285D01*
X142525000Y-87892857D01*
X142596428Y-87750000D01*
X142596428Y-87535714D01*
X142525000Y-87392857D01*
X142453571Y-87321428D01*
X142310714Y-87250000D01*
X141882142Y-87250000D01*
X141739285Y-87321428D01*
X141667857Y-87392857D01*
X141596428Y-87535714D01*
X141596428Y-87750000D01*
X141596428Y-86607142D02*
X142596428Y-86607142D01*
X142453571Y-86607142D02*
X142525000Y-86535714D01*
X142596428Y-86392857D01*
X142596428Y-86178571D01*
X142525000Y-86035714D01*
X142382142Y-85964285D01*
X141596428Y-85964285D01*
X142382142Y-85964285D02*
X142525000Y-85892857D01*
X142596428Y-85750000D01*
X142596428Y-85535714D01*
X142525000Y-85392857D01*
X142382142Y-85321428D01*
X141596428Y-85321428D01*
X141667857Y-84035714D02*
X141596428Y-84178571D01*
X141596428Y-84464285D01*
X141667857Y-84607142D01*
X141810714Y-84678571D01*
X142382142Y-84678571D01*
X142525000Y-84607142D01*
X142596428Y-84464285D01*
X142596428Y-84178571D01*
X142525000Y-84035714D01*
X142382142Y-83964285D01*
X142239285Y-83964285D01*
X142096428Y-84678571D01*
X142596428Y-83535714D02*
X142596428Y-82964285D01*
X143096428Y-83321428D02*
X141810714Y-83321428D01*
X141667857Y-83250000D01*
X141596428Y-83107142D01*
X141596428Y-82964285D01*
X141596428Y-82464285D02*
X143096428Y-82464285D01*
X141596428Y-81821428D02*
X142382142Y-81821428D01*
X142525000Y-81892857D01*
X142596428Y-82035714D01*
X142596428Y-82250000D01*
X142525000Y-82392857D01*
X142453571Y-82464285D01*
X141667857Y-80535714D02*
X141596428Y-80678571D01*
X141596428Y-80964285D01*
X141667857Y-81107142D01*
X141810714Y-81178571D01*
X142382142Y-81178571D01*
X142525000Y-81107142D01*
X142596428Y-80964285D01*
X142596428Y-80678571D01*
X142525000Y-80535714D01*
X142382142Y-80464285D01*
X142239285Y-80464285D01*
X142096428Y-81178571D01*
X142596428Y-79178571D02*
X141596428Y-79178571D01*
X142596428Y-79821428D02*
X141810714Y-79821428D01*
X141667857Y-79750000D01*
X141596428Y-79607142D01*
X141596428Y-79392857D01*
X141667857Y-79250000D01*
X141739285Y-79178571D01*
X141667857Y-78535714D02*
X141596428Y-78392857D01*
X141596428Y-78107142D01*
X141667857Y-77964285D01*
X141810714Y-77892857D01*
X141882142Y-77892857D01*
X142025000Y-77964285D01*
X142096428Y-78107142D01*
X142096428Y-78321428D01*
X142167857Y-78464285D01*
X142310714Y-78535714D01*
X142382142Y-78535714D01*
X142525000Y-78464285D01*
X142596428Y-78321428D01*
X142596428Y-78107142D01*
X142525000Y-77964285D01*
X142167857Y-77250000D02*
X142167857Y-76107142D01*
X141667857Y-75464285D02*
X141596428Y-75321428D01*
X141596428Y-75035714D01*
X141667857Y-74892857D01*
X141810714Y-74821428D01*
X141882142Y-74821428D01*
X142025000Y-74892857D01*
X142096428Y-75035714D01*
X142096428Y-75250000D01*
X142167857Y-75392857D01*
X142310714Y-75464285D01*
X142382142Y-75464285D01*
X142525000Y-75392857D01*
X142596428Y-75250000D01*
X142596428Y-75035714D01*
X142525000Y-74892857D01*
X141667857Y-73535714D02*
X141596428Y-73678571D01*
X141596428Y-73964285D01*
X141667857Y-74107142D01*
X141739285Y-74178571D01*
X141882142Y-74250000D01*
X142310714Y-74250000D01*
X142453571Y-74178571D01*
X142525000Y-74107142D01*
X142596428Y-73964285D01*
X142596428Y-73678571D01*
X142525000Y-73535714D01*
X141596428Y-72892857D02*
X142596428Y-72892857D01*
X143096428Y-72892857D02*
X143025000Y-72964285D01*
X142953571Y-72892857D01*
X143025000Y-72821428D01*
X143096428Y-72892857D01*
X142953571Y-72892857D01*
X141667857Y-71607142D02*
X141596428Y-71750000D01*
X141596428Y-72035714D01*
X141667857Y-72178571D01*
X141810714Y-72250000D01*
X142382142Y-72250000D01*
X142525000Y-72178571D01*
X142596428Y-72035714D01*
X142596428Y-71750000D01*
X142525000Y-71607142D01*
X142382142Y-71535714D01*
X142239285Y-71535714D01*
X142096428Y-72250000D01*
X142596428Y-70892857D02*
X141596428Y-70892857D01*
X142453571Y-70892857D02*
X142525000Y-70821428D01*
X142596428Y-70678571D01*
X142596428Y-70464285D01*
X142525000Y-70321428D01*
X142382142Y-70250000D01*
X141596428Y-70250000D01*
X141667857Y-68892857D02*
X141596428Y-69035714D01*
X141596428Y-69321428D01*
X141667857Y-69464285D01*
X141739285Y-69535714D01*
X141882142Y-69607142D01*
X142310714Y-69607142D01*
X142453571Y-69535714D01*
X142525000Y-69464285D01*
X142596428Y-69321428D01*
X142596428Y-69035714D01*
X142525000Y-68892857D01*
X141667857Y-67678571D02*
X141596428Y-67821428D01*
X141596428Y-68107142D01*
X141667857Y-68250000D01*
X141810714Y-68321428D01*
X142382142Y-68321428D01*
X142525000Y-68250000D01*
X142596428Y-68107142D01*
X142596428Y-67821428D01*
X142525000Y-67678571D01*
X142382142Y-67607142D01*
X142239285Y-67607142D01*
X142096428Y-68321428D01*
X141739285Y-66964285D02*
X141667857Y-66892857D01*
X141596428Y-66964285D01*
X141667857Y-67035714D01*
X141739285Y-66964285D01*
X141596428Y-66964285D01*
X141667857Y-65607142D02*
X141596428Y-65750000D01*
X141596428Y-66035714D01*
X141667857Y-66178571D01*
X141739285Y-66250000D01*
X141882142Y-66321428D01*
X142310714Y-66321428D01*
X142453571Y-66250000D01*
X142525000Y-66178571D01*
X142596428Y-66035714D01*
X142596428Y-65750000D01*
X142525000Y-65607142D01*
X141596428Y-64750000D02*
X141667857Y-64892857D01*
X141739285Y-64964285D01*
X141882142Y-65035714D01*
X142310714Y-65035714D01*
X142453571Y-64964285D01*
X142525000Y-64892857D01*
X142596428Y-64750000D01*
X142596428Y-64535714D01*
X142525000Y-64392857D01*
X142453571Y-64321428D01*
X142310714Y-64250000D01*
X141882142Y-64250000D01*
X141739285Y-64321428D01*
X141667857Y-64392857D01*
X141596428Y-64535714D01*
X141596428Y-64750000D01*
X141596428Y-63607142D02*
X142596428Y-63607142D01*
X142453571Y-63607142D02*
X142525000Y-63535714D01*
X142596428Y-63392857D01*
X142596428Y-63178571D01*
X142525000Y-63035714D01*
X142382142Y-62964285D01*
X141596428Y-62964285D01*
X142382142Y-62964285D02*
X142525000Y-62892857D01*
X142596428Y-62750000D01*
X142596428Y-62535714D01*
X142525000Y-62392857D01*
X142382142Y-62321428D01*
X141596428Y-62321428D01*
X139046428Y-105428571D02*
X140546428Y-105428571D01*
X139046428Y-104785714D02*
X139832142Y-104785714D01*
X139975000Y-104857142D01*
X140046428Y-105000000D01*
X140046428Y-105214285D01*
X139975000Y-105357142D01*
X139903571Y-105428571D01*
X140046428Y-104285714D02*
X140046428Y-103714285D01*
X140546428Y-104071428D02*
X139260714Y-104071428D01*
X139117857Y-104000000D01*
X139046428Y-103857142D01*
X139046428Y-103714285D01*
X140046428Y-103428571D02*
X140046428Y-102857142D01*
X140546428Y-103214285D02*
X139260714Y-103214285D01*
X139117857Y-103142857D01*
X139046428Y-103000000D01*
X139046428Y-102857142D01*
X140046428Y-102357142D02*
X138546428Y-102357142D01*
X139975000Y-102357142D02*
X140046428Y-102214285D01*
X140046428Y-101928571D01*
X139975000Y-101785714D01*
X139903571Y-101714285D01*
X139760714Y-101642857D01*
X139332142Y-101642857D01*
X139189285Y-101714285D01*
X139117857Y-101785714D01*
X139046428Y-101928571D01*
X139046428Y-102214285D01*
X139117857Y-102357142D01*
X139117857Y-101071428D02*
X139046428Y-100928571D01*
X139046428Y-100642857D01*
X139117857Y-100500000D01*
X139260714Y-100428571D01*
X139332142Y-100428571D01*
X139475000Y-100500000D01*
X139546428Y-100642857D01*
X139546428Y-100857142D01*
X139617857Y-101000000D01*
X139760714Y-101071428D01*
X139832142Y-101071428D01*
X139975000Y-101000000D01*
X140046428Y-100857142D01*
X140046428Y-100642857D01*
X139975000Y-100500000D01*
X139189285Y-99785714D02*
X139117857Y-99714285D01*
X139046428Y-99785714D01*
X139117857Y-99857142D01*
X139189285Y-99785714D01*
X139046428Y-99785714D01*
X139975000Y-99785714D02*
X139903571Y-99714285D01*
X139832142Y-99785714D01*
X139903571Y-99857142D01*
X139975000Y-99785714D01*
X139832142Y-99785714D01*
X140617857Y-98000000D02*
X138689285Y-99285714D01*
X140617857Y-96428571D02*
X138689285Y-97714285D01*
X140046428Y-95285714D02*
X138832142Y-95285714D01*
X138689285Y-95357142D01*
X138617857Y-95428571D01*
X138546428Y-95571428D01*
X138546428Y-95785714D01*
X138617857Y-95928571D01*
X139117857Y-95285714D02*
X139046428Y-95428571D01*
X139046428Y-95714285D01*
X139117857Y-95857142D01*
X139189285Y-95928571D01*
X139332142Y-96000000D01*
X139760714Y-96000000D01*
X139903571Y-95928571D01*
X139975000Y-95857142D01*
X140046428Y-95714285D01*
X140046428Y-95428571D01*
X139975000Y-95285714D01*
X139046428Y-94571428D02*
X140046428Y-94571428D01*
X140546428Y-94571428D02*
X140475000Y-94642857D01*
X140403571Y-94571428D01*
X140475000Y-94500000D01*
X140546428Y-94571428D01*
X140403571Y-94571428D01*
X140046428Y-94071428D02*
X140046428Y-93500000D01*
X140546428Y-93857142D02*
X139260714Y-93857142D01*
X139117857Y-93785714D01*
X139046428Y-93642857D01*
X139046428Y-93500000D01*
X139046428Y-93000000D02*
X140546428Y-93000000D01*
X139046428Y-92357142D02*
X139832142Y-92357142D01*
X139975000Y-92428571D01*
X140046428Y-92571428D01*
X140046428Y-92785714D01*
X139975000Y-92928571D01*
X139903571Y-93000000D01*
X140046428Y-91000000D02*
X139046428Y-91000000D01*
X140046428Y-91642857D02*
X139260714Y-91642857D01*
X139117857Y-91571428D01*
X139046428Y-91428571D01*
X139046428Y-91214285D01*
X139117857Y-91071428D01*
X139189285Y-91000000D01*
X139046428Y-90285714D02*
X140546428Y-90285714D01*
X139975000Y-90285714D02*
X140046428Y-90142857D01*
X140046428Y-89857142D01*
X139975000Y-89714285D01*
X139903571Y-89642857D01*
X139760714Y-89571428D01*
X139332142Y-89571428D01*
X139189285Y-89642857D01*
X139117857Y-89714285D01*
X139046428Y-89857142D01*
X139046428Y-90142857D01*
X139117857Y-90285714D01*
X139189285Y-88928571D02*
X139117857Y-88857142D01*
X139046428Y-88928571D01*
X139117857Y-89000000D01*
X139189285Y-88928571D01*
X139046428Y-88928571D01*
X139117857Y-87571428D02*
X139046428Y-87714285D01*
X139046428Y-87999999D01*
X139117857Y-88142857D01*
X139189285Y-88214285D01*
X139332142Y-88285714D01*
X139760714Y-88285714D01*
X139903571Y-88214285D01*
X139975000Y-88142857D01*
X140046428Y-87999999D01*
X140046428Y-87714285D01*
X139975000Y-87571428D01*
X139046428Y-86714285D02*
X139117857Y-86857142D01*
X139189285Y-86928571D01*
X139332142Y-87000000D01*
X139760714Y-87000000D01*
X139903571Y-86928571D01*
X139975000Y-86857142D01*
X140046428Y-86714285D01*
X140046428Y-86500000D01*
X139975000Y-86357142D01*
X139903571Y-86285714D01*
X139760714Y-86214285D01*
X139332142Y-86214285D01*
X139189285Y-86285714D01*
X139117857Y-86357142D01*
X139046428Y-86500000D01*
X139046428Y-86714285D01*
X139046428Y-85571428D02*
X140046428Y-85571428D01*
X139903571Y-85571428D02*
X139975000Y-85499999D01*
X140046428Y-85357142D01*
X140046428Y-85142857D01*
X139975000Y-84999999D01*
X139832142Y-84928571D01*
X139046428Y-84928571D01*
X139832142Y-84928571D02*
X139975000Y-84857142D01*
X140046428Y-84714285D01*
X140046428Y-84499999D01*
X139975000Y-84357142D01*
X139832142Y-84285714D01*
X139046428Y-84285714D01*
X140617857Y-82499999D02*
X138689285Y-83785714D01*
X140046428Y-81999999D02*
X138546428Y-81999999D01*
X139975000Y-81999999D02*
X140046428Y-81857142D01*
X140046428Y-81571428D01*
X139975000Y-81428571D01*
X139903571Y-81357142D01*
X139760714Y-81285714D01*
X139332142Y-81285714D01*
X139189285Y-81357142D01*
X139117857Y-81428571D01*
X139046428Y-81571428D01*
X139046428Y-81857142D01*
X139117857Y-81999999D01*
X139046428Y-80642857D02*
X140046428Y-80642857D01*
X139760714Y-80642857D02*
X139903571Y-80571428D01*
X139975000Y-80499999D01*
X140046428Y-80357142D01*
X140046428Y-80214285D01*
X139046428Y-79499999D02*
X139117857Y-79642857D01*
X139189285Y-79714285D01*
X139332142Y-79785714D01*
X139760714Y-79785714D01*
X139903571Y-79714285D01*
X139975000Y-79642857D01*
X140046428Y-79499999D01*
X140046428Y-79285714D01*
X139975000Y-79142857D01*
X139903571Y-79071428D01*
X139760714Y-78999999D01*
X139332142Y-78999999D01*
X139189285Y-79071428D01*
X139117857Y-79142857D01*
X139046428Y-79285714D01*
X139046428Y-79499999D01*
X139046428Y-78357142D02*
X140046428Y-78357142D01*
X139903571Y-78357142D02*
X139975000Y-78285714D01*
X140046428Y-78142857D01*
X140046428Y-77928571D01*
X139975000Y-77785714D01*
X139832142Y-77714285D01*
X139046428Y-77714285D01*
X139832142Y-77714285D02*
X139975000Y-77642857D01*
X140046428Y-77499999D01*
X140046428Y-77285714D01*
X139975000Y-77142857D01*
X139832142Y-77071428D01*
X139046428Y-77071428D01*
X139117857Y-75785714D02*
X139046428Y-75928571D01*
X139046428Y-76214285D01*
X139117857Y-76357142D01*
X139260714Y-76428571D01*
X139832142Y-76428571D01*
X139975000Y-76357142D01*
X140046428Y-76214285D01*
X140046428Y-75928571D01*
X139975000Y-75785714D01*
X139832142Y-75714285D01*
X139689285Y-75714285D01*
X139546428Y-76428571D01*
X140046428Y-75285714D02*
X140046428Y-74714285D01*
X140546428Y-75071428D02*
X139260714Y-75071428D01*
X139117857Y-74999999D01*
X139046428Y-74857142D01*
X139046428Y-74714285D01*
X139046428Y-74214285D02*
X140546428Y-74214285D01*
X139046428Y-73571428D02*
X139832142Y-73571428D01*
X139975000Y-73642857D01*
X140046428Y-73785714D01*
X140046428Y-73999999D01*
X139975000Y-74142857D01*
X139903571Y-74214285D01*
X139117857Y-72285714D02*
X139046428Y-72428571D01*
X139046428Y-72714285D01*
X139117857Y-72857142D01*
X139260714Y-72928571D01*
X139832142Y-72928571D01*
X139975000Y-72857142D01*
X140046428Y-72714285D01*
X140046428Y-72428571D01*
X139975000Y-72285714D01*
X139832142Y-72214285D01*
X139689285Y-72214285D01*
X139546428Y-72928571D01*
X140046428Y-70928571D02*
X139046428Y-70928571D01*
X140046428Y-71571428D02*
X139260714Y-71571428D01*
X139117857Y-71499999D01*
X139046428Y-71357142D01*
X139046428Y-71142857D01*
X139117857Y-70999999D01*
X139189285Y-70928571D01*
X139117857Y-70285714D02*
X139046428Y-70142857D01*
X139046428Y-69857142D01*
X139117857Y-69714285D01*
X139260714Y-69642857D01*
X139332142Y-69642857D01*
X139475000Y-69714285D01*
X139546428Y-69857142D01*
X139546428Y-70071428D01*
X139617857Y-70214285D01*
X139760714Y-70285714D01*
X139832142Y-70285714D01*
X139975000Y-70214285D01*
X140046428Y-70071428D01*
X140046428Y-69857142D01*
X139975000Y-69714285D01*
X139617857Y-68999999D02*
X139617857Y-67857142D01*
X139117857Y-67214285D02*
X139046428Y-67071428D01*
X139046428Y-66785714D01*
X139117857Y-66642857D01*
X139260714Y-66571428D01*
X139332142Y-66571428D01*
X139475000Y-66642857D01*
X139546428Y-66785714D01*
X139546428Y-66999999D01*
X139617857Y-67142857D01*
X139760714Y-67214285D01*
X139832142Y-67214285D01*
X139975000Y-67142857D01*
X140046428Y-66999999D01*
X140046428Y-66785714D01*
X139975000Y-66642857D01*
X139117857Y-65285714D02*
X139046428Y-65428571D01*
X139046428Y-65714285D01*
X139117857Y-65857142D01*
X139189285Y-65928571D01*
X139332142Y-65999999D01*
X139760714Y-65999999D01*
X139903571Y-65928571D01*
X139975000Y-65857142D01*
X140046428Y-65714285D01*
X140046428Y-65428571D01*
X139975000Y-65285714D01*
X139046428Y-64642857D02*
X140046428Y-64642857D01*
X140546428Y-64642857D02*
X140475000Y-64714285D01*
X140403571Y-64642857D01*
X140475000Y-64571428D01*
X140546428Y-64642857D01*
X140403571Y-64642857D01*
X139117857Y-63357142D02*
X139046428Y-63499999D01*
X139046428Y-63785714D01*
X139117857Y-63928571D01*
X139260714Y-63999999D01*
X139832142Y-63999999D01*
X139975000Y-63928571D01*
X140046428Y-63785714D01*
X140046428Y-63499999D01*
X139975000Y-63357142D01*
X139832142Y-63285714D01*
X139689285Y-63285714D01*
X139546428Y-63999999D01*
X140046428Y-62642857D02*
X139046428Y-62642857D01*
X139903571Y-62642857D02*
X139975000Y-62571428D01*
X140046428Y-62428571D01*
X140046428Y-62214285D01*
X139975000Y-62071428D01*
X139832142Y-61999999D01*
X139046428Y-61999999D01*
X139117857Y-60642857D02*
X139046428Y-60785714D01*
X139046428Y-61071428D01*
X139117857Y-61214285D01*
X139189285Y-61285714D01*
X139332142Y-61357142D01*
X139760714Y-61357142D01*
X139903571Y-61285714D01*
X139975000Y-61214285D01*
X140046428Y-61071428D01*
X140046428Y-60785714D01*
X139975000Y-60642857D01*
X139117857Y-59428571D02*
X139046428Y-59571428D01*
X139046428Y-59857142D01*
X139117857Y-59999999D01*
X139260714Y-60071428D01*
X139832142Y-60071428D01*
X139975000Y-59999999D01*
X140046428Y-59857142D01*
X140046428Y-59571428D01*
X139975000Y-59428571D01*
X139832142Y-59357142D01*
X139689285Y-59357142D01*
X139546428Y-60071428D01*
X140617857Y-57642857D02*
X138689285Y-58928571D01*
X139832142Y-56642857D02*
X139832142Y-57142857D01*
X139046428Y-57142857D02*
X140546428Y-57142857D01*
X140546428Y-56428571D01*
X139046428Y-55642857D02*
X139117857Y-55785714D01*
X139260714Y-55857142D01*
X140546428Y-55857142D01*
X140046428Y-55214285D02*
X139046428Y-54857142D01*
X140046428Y-54499999D02*
X139046428Y-54857142D01*
X138689285Y-54999999D01*
X138617857Y-55071428D01*
X138546428Y-55214285D01*
X140046428Y-53928571D02*
X138546428Y-53928571D01*
X139975000Y-53928571D02*
X140046428Y-53785714D01*
X140046428Y-53499999D01*
X139975000Y-53357142D01*
X139903571Y-53285714D01*
X139760714Y-53214285D01*
X139332142Y-53214285D01*
X139189285Y-53285714D01*
X139117857Y-53357142D01*
X139046428Y-53499999D01*
X139046428Y-53785714D01*
X139117857Y-53928571D01*
X139046428Y-52571428D02*
X140046428Y-52571428D01*
X140546428Y-52571428D02*
X140475000Y-52642857D01*
X140403571Y-52571428D01*
X140475000Y-52499999D01*
X140546428Y-52571428D01*
X140403571Y-52571428D01*
M02*
