M48
;DRILL file {KiCad 4.0.7-e2-6376~58~ubuntu16.04.1} date Fri Nov  3 14:25:55 2017
;FORMAT={-:-/ absolute / inch / decimal}
FMAT,2
INCH,TZ
T1C0.016
T2C0.031
T3C0.032
T4C0.037
T5C0.039
T6C0.047
T7C0.059
%
G90
G05
M72
T1
X4.311Y-4.8819
X4.75Y-4.4882
X4.7579Y-4.6575
X4.7579Y-4.7854
X4.8917Y-3.7795
X4.9016Y-4.8031
X5.0197Y-4.1673
X5.1083Y-3.9862
X5.1811Y-4.2087
X5.1831Y-4.8543
X5.3445Y-4.9311
X5.3858Y-4.3622
X5.5315Y-4.3622
X5.6457Y-4.2598
X5.8583Y-4.0492
X5.9035Y-3.0394
X5.9055Y-2.5236
X5.9213Y-2.9941
X5.9902Y-2.4646
X6.0531Y-4.4154
X6.1339Y-2.5217
X6.2323Y-2.4449
X6.4114Y-2.3602
X6.5079Y-2.0325
X6.5157Y-2.5374
X6.5177Y-2.8937
T2
X4.4882Y-2.3531
X4.4882Y-2.4531
X4.4882Y-2.5531
X4.685Y-3.7008
X4.689Y-3.8583
X4.689Y-3.9583
X4.689Y-4.0583
X4.8031Y-1.811
X4.8031Y-2.0079
X4.8031Y-2.6898
X4.8031Y-2.7898
X4.8031Y-2.8898
X4.8031Y-4.7244
X4.8031Y-4.9606
X5.3543Y-2.2835
X5.4724Y-2.6772
X5.4724Y-2.7772
X5.4724Y-2.8772
X5.4724Y-2.9772
X5.4724Y-3.0772
X5.4724Y-3.1772
X5.4724Y-3.2772
X5.4724Y-3.3772
X5.4724Y-3.4772
X5.4724Y-3.5772
X5.4724Y-3.6772
X5.4724Y-3.7772
X5.4724Y-3.8772
X5.4724Y-3.9772
X5.4724Y-4.0772
X5.5039Y-2.2835
X5.7449Y-2.1654
X5.8449Y-2.1654
X5.9449Y-2.1654
X6.0724Y-2.6772
X6.0724Y-2.7772
X6.0724Y-2.8772
X6.0724Y-2.9772
X6.0724Y-3.0772
X6.0724Y-3.1772
X6.0724Y-3.2772
X6.0724Y-3.3772
X6.0724Y-3.4772
X6.0724Y-3.5772
X6.0724Y-3.6772
X6.0724Y-3.7772
X6.0724Y-3.8772
X6.0724Y-3.9772
X6.0724Y-4.0772
X6.3671Y-3.7972
X6.4173Y-2.5591
X6.4173Y-2.7559
X6.4193Y-4.1191
X6.4193Y-4.3159
X6.5167Y-3.7972
X6.6654Y-3.1152
X6.815Y-3.1152
T3
X4.685Y-3.6024
X4.7638Y-2.3425
X4.7638Y-2.5393
X4.8031Y-4.8228
X4.8031Y-5.0591
X6.7303Y-2.1949
X6.7914Y-3.8297
X6.9271Y-2.1949
X6.9882Y-3.8297
T4
X4.4063Y-4.4681
X4.4063Y-4.5681
X4.4063Y-4.6681
X4.4063Y-4.7681
X4.4063Y-4.8681
X4.4063Y-4.9681
X4.4063Y-5.0681
X4.6063Y-4.4181
X4.6063Y-4.5181
X4.6063Y-4.6181
X4.6063Y-4.7181
X4.6063Y-4.8181
X4.6063Y-4.9181
X4.6063Y-5.0181
X4.6063Y-5.1181
X5.Y-1.9291
X5.Y-5.1575
X5.1417Y-2.0157
X5.2087Y-1.8504
X5.2756Y-2.0157
X5.3425Y-1.8504
X5.4094Y-2.0157
X6.7362Y-4.1644
X6.7362Y-4.2982
X6.7362Y-4.4321
X6.7608Y-2.5157
X6.7608Y-2.6496
X6.7608Y-2.7835
X6.9016Y-4.2313
X6.9016Y-4.3652
X6.9262Y-2.5827
X6.9262Y-2.7165
T5
X4.7608Y-3.0193
X4.7608Y-3.4193
X4.8031Y-4.1732
X4.8031Y-4.5732
X4.9606Y-3.0315
X4.9606Y-3.4315
X5.1575Y-3.0315
X5.1575Y-3.4315
X5.315Y-4.4488
X5.315Y-4.6457
X5.315Y-4.8425
X5.6693Y-2.4409
X5.715Y-4.4488
X5.715Y-4.6457
X5.715Y-4.8425
X6.0693Y-2.4409
T6
X4.4094Y-1.752
X4.4094Y-1.8898
X4.4094Y-2.0768
X4.4094Y-2.2146
X4.4094Y-2.7165
X4.4094Y-2.8543
X4.4094Y-2.9921
X4.4094Y-3.1299
X4.4094Y-3.3071
X4.4094Y-3.4449
X4.4094Y-3.5827
X4.4094Y-3.7795
X4.4094Y-3.9173
X4.4094Y-4.0945
X4.4094Y-4.2323
X5.6191Y-1.8376
X5.7569Y-1.8376
X5.8947Y-1.8376
X6.1024Y-1.8386
X6.2402Y-1.8386
X6.378Y-1.8386
X6.5561Y-1.8396
X6.6939Y-1.8396
X6.8317Y-1.8396
X6.8504Y-3.3996
X6.8504Y-3.5374
X6.9695Y-1.8396
T7
X5.1182Y-2.2441
X5.1182Y-2.8441
X5.8724Y-4.631
X6.3387Y-2.9528
X6.3387Y-3.5528
X6.4724Y-4.631
T5
X6.4882Y-5.0787G85X6.4882Y-5.
G05
X6.6456Y-4.8544G85X6.5669Y-4.8544
G05
X6.7244Y-5.0787G85X6.7244Y-5.
G05
T0
M30
