G04 #@! TF.GenerationSoftware,KiCad,Pcbnew,5.1.6-c6e7f7d~86~ubuntu20.04.1*
G04 #@! TF.CreationDate,2020-06-09T07:54:05+01:00*
G04 #@! TF.ProjectId,flypi,666c7970-692e-46b6-9963-61645f706362,rev?*
G04 #@! TF.SameCoordinates,Original*
G04 #@! TF.FileFunction,Other,Fab,Top*
%FSLAX46Y46*%
G04 Gerber Fmt 4.6, Leading zero omitted, Abs format (unit mm)*
G04 Created by KiCad (PCBNEW 5.1.6-c6e7f7d~86~ubuntu20.04.1) date 2020-06-09 07:54:05*
%MOMM*%
%LPD*%
G01*
G04 APERTURE LIST*
%ADD10C,0.150000*%
%ADD11C,0.100000*%
%ADD12C,0.129000*%
G04 APERTURE END LIST*
D10*
X145748000Y-93410000D02*
G75*
G03*
X145748000Y-93410000I-508000J0D01*
G01*
X143208000Y-93410000D02*
G75*
G03*
X143208000Y-93410000I-508000J0D01*
G01*
X145748000Y-90870000D02*
G75*
G03*
X145748000Y-90870000I-508000J0D01*
G01*
X140668000Y-93410000D02*
G75*
G03*
X140668000Y-93410000I-508000J0D01*
G01*
X140668000Y-90870000D02*
G75*
G03*
X140668000Y-90870000I-508000J0D01*
G01*
X143208000Y-90870000D02*
G75*
G03*
X143208000Y-90870000I-508000J0D01*
G01*
D11*
X110570000Y-81200000D02*
X111570000Y-81825000D01*
X111570000Y-80575000D02*
X110570000Y-81200000D01*
X111570000Y-88650000D02*
X111570000Y-78750000D01*
X105820000Y-88650000D02*
X111570000Y-88650000D01*
X105820000Y-78750000D02*
X105820000Y-88650000D01*
X111570000Y-78750000D02*
X105820000Y-78750000D01*
X128778000Y-93218000D02*
X131318000Y-93218000D01*
X128778000Y-83058000D02*
X128778000Y-93218000D01*
X131318000Y-83058000D02*
X128778000Y-83058000D01*
X131318000Y-93218000D02*
X131318000Y-83058000D01*
X111850000Y-102250000D02*
X109350000Y-102250000D01*
X111850000Y-104750000D02*
X111850000Y-102250000D01*
X111450000Y-115050000D02*
X111450000Y-102650000D01*
X105700000Y-115050000D02*
X111450000Y-115050000D01*
X105700000Y-102650000D02*
X105700000Y-115050000D01*
X111450000Y-102650000D02*
X105700000Y-102650000D01*
X163809500Y-89787861D02*
X164809500Y-89787861D01*
X164309500Y-90287861D02*
X164309500Y-89287861D01*
X171497000Y-85999000D02*
G75*
G03*
X171497000Y-85999000I-5000000J0D01*
G01*
X169739000Y-56388000D02*
G75*
G03*
X169739000Y-56388000I-5000000J0D01*
G01*
X169027861Y-58575500D02*
X168027861Y-58575500D01*
X168527861Y-59075500D02*
X168527861Y-58075500D01*
X178576759Y-81147500D02*
X178576759Y-80347500D01*
X178976759Y-80747500D02*
X178176759Y-80747500D01*
X179550000Y-79000000D02*
G75*
G03*
X179550000Y-79000000I-4000000J0D01*
G01*
X162000000Y-93600000D02*
G75*
G03*
X162000000Y-93600000I-4000000J0D01*
G01*
X156252500Y-97026759D02*
X156252500Y-96226759D01*
X155852500Y-96626759D02*
X156652500Y-96626759D01*
X130906000Y-119192000D02*
X130906000Y-121092000D01*
X130906000Y-121092000D02*
X135206000Y-121092000D01*
X135206000Y-121092000D02*
X135206000Y-119192000D01*
X135206000Y-119192000D02*
X130906000Y-119192000D01*
X114400000Y-100550000D02*
X118700000Y-100550000D01*
X114400000Y-98650000D02*
X114400000Y-100550000D01*
X118700000Y-98650000D02*
X114400000Y-98650000D01*
X118700000Y-100550000D02*
X118700000Y-98650000D01*
X154650000Y-119750000D02*
X150350000Y-119750000D01*
X154650000Y-121650000D02*
X154650000Y-119750000D01*
X150350000Y-121650000D02*
X154650000Y-121650000D01*
X150350000Y-119750000D02*
X150350000Y-121650000D01*
X155300000Y-105317000D02*
X151700000Y-105317000D01*
X155300000Y-105517000D02*
X151700000Y-105517000D01*
X155300000Y-105417000D02*
X151700000Y-105417000D01*
X153500000Y-114427000D02*
X153500000Y-111877000D01*
X153500000Y-101727000D02*
X153500000Y-104277000D01*
X155300000Y-111877000D02*
X155300000Y-104277000D01*
X151700000Y-111877000D02*
X155300000Y-111877000D01*
X151700000Y-104277000D02*
X151700000Y-111877000D01*
X155300000Y-104277000D02*
X151700000Y-104277000D01*
X154791000Y-75555000D02*
X158391000Y-75555000D01*
X158391000Y-75555000D02*
X158391000Y-67955000D01*
X158391000Y-67955000D02*
X154791000Y-67955000D01*
X154791000Y-67955000D02*
X154791000Y-75555000D01*
X156591000Y-78105000D02*
X156591000Y-75555000D01*
X156591000Y-65405000D02*
X156591000Y-67955000D01*
X154791000Y-74415000D02*
X158391000Y-74415000D01*
X154791000Y-74315000D02*
X158391000Y-74315000D01*
X154791000Y-74515000D02*
X158391000Y-74515000D01*
X167800000Y-125500000D02*
X181500000Y-125500000D01*
X167000000Y-116500000D02*
X167000000Y-124750000D01*
X181500000Y-116500000D02*
X167000000Y-116500000D01*
X181500000Y-125500000D02*
X181500000Y-116500000D01*
X178000000Y-125500000D02*
X178000000Y-116500000D01*
X167803213Y-125505425D02*
X167000000Y-124750000D01*
X116500000Y-128450000D02*
X117125000Y-127450000D01*
X115875000Y-127450000D02*
X116500000Y-128450000D01*
X121450000Y-127450000D02*
X114050000Y-127450000D01*
X121450000Y-133200000D02*
X121450000Y-127450000D01*
X114050000Y-133200000D02*
X121450000Y-133200000D01*
X114050000Y-127450000D02*
X114050000Y-133200000D01*
X111316000Y-117184000D02*
X105566000Y-117184000D01*
X105566000Y-117184000D02*
X105566000Y-124584000D01*
X105566000Y-124584000D02*
X111316000Y-124584000D01*
X111316000Y-124584000D02*
X111316000Y-117184000D01*
X111316000Y-119009000D02*
X110316000Y-119634000D01*
X110316000Y-119634000D02*
X111316000Y-120259000D01*
X110316000Y-93100000D02*
X111316000Y-93725000D01*
X111316000Y-92475000D02*
X110316000Y-93100000D01*
X111316000Y-100550000D02*
X111316000Y-90650000D01*
X105566000Y-100550000D02*
X111316000Y-100550000D01*
X105566000Y-90650000D02*
X105566000Y-100550000D01*
X111316000Y-90650000D02*
X105566000Y-90650000D01*
X111550000Y-57650000D02*
X105800000Y-57650000D01*
X105800000Y-57650000D02*
X105800000Y-65050000D01*
X105800000Y-65050000D02*
X111550000Y-65050000D01*
X111550000Y-65050000D02*
X111550000Y-57650000D01*
X111550000Y-59475000D02*
X110550000Y-60100000D01*
X110550000Y-60100000D02*
X111550000Y-60725000D01*
X119100000Y-55250000D02*
X118475000Y-56250000D01*
X119725000Y-56250000D02*
X119100000Y-55250000D01*
X114150000Y-56250000D02*
X121550000Y-56250000D01*
X114150000Y-50500000D02*
X114150000Y-56250000D01*
X121550000Y-50500000D02*
X114150000Y-50500000D01*
X121550000Y-56250000D02*
X121550000Y-50500000D01*
X111443000Y-66765000D02*
X105693000Y-66765000D01*
X105693000Y-66765000D02*
X105693000Y-76665000D01*
X105693000Y-76665000D02*
X111443000Y-76665000D01*
X111443000Y-76665000D02*
X111443000Y-66765000D01*
X111443000Y-68590000D02*
X110443000Y-69215000D01*
X110443000Y-69215000D02*
X111443000Y-69840000D01*
X118900000Y-122850000D02*
X118900000Y-119100000D01*
X118892547Y-119058897D02*
G75*
G03*
X114820000Y-120960000I-1592547J-1901103D01*
G01*
X118902385Y-122852818D02*
G75*
G02*
X114820000Y-120960000I-1602385J1892818D01*
G01*
X118200000Y-70500000D02*
X118200000Y-66750000D01*
X118202385Y-70502818D02*
G75*
G02*
X114120000Y-68610000I-1602385J1892818D01*
G01*
X118192547Y-66708897D02*
G75*
G03*
X114120000Y-68610000I-1592547J-1901103D01*
G01*
X116000000Y-62300000D02*
X119750000Y-62300000D01*
X119791103Y-62292547D02*
G75*
G03*
X117890000Y-58220000I-1901103J1592547D01*
G01*
X115997182Y-62302385D02*
G75*
G02*
X117890000Y-58220000I1892818J1602385D01*
G01*
X117600000Y-79530000D02*
X117600000Y-75780000D01*
X117602385Y-79532818D02*
G75*
G02*
X113520000Y-77640000I-1602385J1892818D01*
G01*
X117592547Y-75738897D02*
G75*
G03*
X113520000Y-77640000I-1592547J-1901103D01*
G01*
X126110000Y-133450000D02*
X126110000Y-132180000D01*
X129810000Y-133450000D02*
X129810000Y-132180000D01*
X132960000Y-132180000D02*
X122960000Y-132180000D01*
X122960000Y-133450000D02*
X132960000Y-133450000D01*
X122960000Y-129050000D02*
X122960000Y-133450000D01*
X132960000Y-129050000D02*
X122960000Y-129050000D01*
X132960000Y-133450000D02*
X132960000Y-129050000D01*
X120700000Y-67900000D02*
X120700000Y-80900000D01*
X124700000Y-67900000D02*
X120700000Y-67900000D01*
X124700000Y-80900000D02*
X124700000Y-67900000D01*
X120700000Y-80900000D02*
X124700000Y-80900000D01*
X136300000Y-96100000D02*
X136300000Y-100100000D01*
X136300000Y-100100000D02*
X149300000Y-100100000D01*
X149300000Y-100100000D02*
X149300000Y-96100000D01*
X149300000Y-96100000D02*
X136300000Y-96100000D01*
X123850000Y-51050000D02*
X123850000Y-64050000D01*
X127850000Y-51050000D02*
X123850000Y-51050000D01*
X127850000Y-64050000D02*
X127850000Y-51050000D01*
X123850000Y-64050000D02*
X127850000Y-64050000D01*
X120650000Y-95750000D02*
X124650000Y-95750000D01*
X124650000Y-95750000D02*
X124650000Y-82750000D01*
X124650000Y-82750000D02*
X120650000Y-82750000D01*
X120650000Y-82750000D02*
X120650000Y-95750000D01*
X113950000Y-95800000D02*
X117950000Y-95800000D01*
X117950000Y-95800000D02*
X117950000Y-82800000D01*
X117950000Y-82800000D02*
X113950000Y-82800000D01*
X113950000Y-82800000D02*
X113950000Y-95800000D01*
X149300000Y-101500000D02*
X136300000Y-101500000D01*
X149300000Y-105500000D02*
X149300000Y-101500000D01*
X136300000Y-105500000D02*
X149300000Y-105500000D01*
X136300000Y-101500000D02*
X136300000Y-105500000D01*
X149300000Y-107200000D02*
X136300000Y-107200000D01*
X149300000Y-111200000D02*
X149300000Y-107200000D01*
X136300000Y-111200000D02*
X149300000Y-111200000D01*
X136300000Y-107200000D02*
X136300000Y-111200000D01*
X136300000Y-113000000D02*
X136300000Y-117000000D01*
X136300000Y-117000000D02*
X149300000Y-117000000D01*
X149300000Y-117000000D02*
X149300000Y-113000000D01*
X149300000Y-113000000D02*
X136300000Y-113000000D01*
X177400000Y-100800000D02*
X173600000Y-100800000D01*
X177400000Y-99100000D02*
X177300000Y-99100000D01*
X177400000Y-97400000D02*
X173600000Y-97400000D01*
X177400000Y-95700000D02*
X177300000Y-95700000D01*
X177400000Y-94000000D02*
X173600000Y-94000000D01*
X181800000Y-99250000D02*
X180530000Y-99250000D01*
X181800000Y-95550000D02*
X180530000Y-95550000D01*
X180530000Y-92400000D02*
X180530000Y-102400000D01*
X181800000Y-102400000D02*
X181800000Y-92400000D01*
X177400000Y-102400000D02*
X181800000Y-102400000D01*
X177400000Y-92400000D02*
X177400000Y-102400000D01*
X181800000Y-92400000D02*
X177400000Y-92400000D01*
X182100000Y-62900000D02*
X177700000Y-62900000D01*
X177700000Y-62900000D02*
X177700000Y-72900000D01*
X177700000Y-72900000D02*
X182100000Y-72900000D01*
X182100000Y-72900000D02*
X182100000Y-62900000D01*
X180830000Y-62900000D02*
X180830000Y-72900000D01*
X182100000Y-66050000D02*
X180830000Y-66050000D01*
X182100000Y-69750000D02*
X180830000Y-69750000D01*
X177700000Y-64500000D02*
X173900000Y-64500000D01*
X177700000Y-66200000D02*
X177600000Y-66200000D01*
X177700000Y-67900000D02*
X173900000Y-67900000D01*
X177700000Y-69600000D02*
X177600000Y-69600000D01*
X177700000Y-71300000D02*
X173900000Y-71300000D01*
X135520000Y-128580000D02*
X135520000Y-124000000D01*
X138060000Y-128580000D02*
X138060000Y-124000000D01*
X140600000Y-128580000D02*
X140600000Y-124000000D01*
X143140000Y-128580000D02*
X143140000Y-124000000D01*
X145680000Y-128580000D02*
X145680000Y-124000000D01*
X148220000Y-128580000D02*
X148220000Y-124000000D01*
X150760000Y-128580000D02*
X150760000Y-124000000D01*
X153300000Y-128580000D02*
X153300000Y-124000000D01*
X142560000Y-133580000D02*
X142560000Y-131980000D01*
X146260000Y-133580000D02*
X146260000Y-131980000D01*
X154510000Y-131980000D02*
X134310000Y-131980000D01*
X134310000Y-133580000D02*
X154510000Y-133580000D01*
X134310000Y-128580000D02*
X134310000Y-133580000D01*
X154510000Y-128580000D02*
X134310000Y-128580000D01*
X154510000Y-133580000D02*
X154510000Y-128580000D01*
X170847000Y-70445000D02*
G75*
G03*
X170847000Y-70445000I-4350000J0D01*
G01*
X170350000Y-100000000D02*
G75*
G03*
X170350000Y-100000000I-4350000J0D01*
G01*
X169000000Y-108250000D02*
X168500000Y-105950000D01*
X169500000Y-105950000D02*
X169000000Y-108250000D01*
X181330000Y-105950000D02*
X181330000Y-113050000D01*
X162030000Y-105950000D02*
X181330000Y-105950000D01*
X162030000Y-113050000D02*
X162030000Y-105950000D01*
X181330000Y-113050000D02*
X162030000Y-113050000D01*
D10*
X142866666Y-80296285D02*
X142866666Y-79820095D01*
X143152380Y-80391523D02*
X142152380Y-80058190D01*
X143152380Y-79724857D01*
X143152380Y-79391523D02*
X142485714Y-79391523D01*
X142676190Y-79391523D02*
X142580952Y-79343904D01*
X142533333Y-79296285D01*
X142485714Y-79201047D01*
X142485714Y-79105809D01*
X143152380Y-78343904D02*
X142152380Y-78343904D01*
X143104761Y-78343904D02*
X143152380Y-78439142D01*
X143152380Y-78629619D01*
X143104761Y-78724857D01*
X143057142Y-78772476D01*
X142961904Y-78820095D01*
X142676190Y-78820095D01*
X142580952Y-78772476D01*
X142533333Y-78724857D01*
X142485714Y-78629619D01*
X142485714Y-78439142D01*
X142533333Y-78343904D01*
X142485714Y-77439142D02*
X143152380Y-77439142D01*
X142485714Y-77867714D02*
X143009523Y-77867714D01*
X143104761Y-77820095D01*
X143152380Y-77724857D01*
X143152380Y-77582000D01*
X143104761Y-77486761D01*
X143057142Y-77439142D01*
X143152380Y-76962952D02*
X142485714Y-76962952D01*
X142152380Y-76962952D02*
X142200000Y-77010571D01*
X142247619Y-76962952D01*
X142200000Y-76915333D01*
X142152380Y-76962952D01*
X142247619Y-76962952D01*
X142485714Y-76486761D02*
X143152380Y-76486761D01*
X142580952Y-76486761D02*
X142533333Y-76439142D01*
X142485714Y-76343904D01*
X142485714Y-76201047D01*
X142533333Y-76105809D01*
X142628571Y-76058190D01*
X143152380Y-76058190D01*
X143152380Y-75439142D02*
X143104761Y-75534380D01*
X143057142Y-75582000D01*
X142961904Y-75629619D01*
X142676190Y-75629619D01*
X142580952Y-75582000D01*
X142533333Y-75534380D01*
X142485714Y-75439142D01*
X142485714Y-75296285D01*
X142533333Y-75201047D01*
X142580952Y-75153428D01*
X142676190Y-75105809D01*
X142961904Y-75105809D01*
X143057142Y-75153428D01*
X143104761Y-75201047D01*
X143152380Y-75296285D01*
X143152380Y-75439142D01*
X143247619Y-74915333D02*
X143247619Y-74153428D01*
X143152380Y-73915333D02*
X142152380Y-73915333D01*
X143152380Y-73343904D01*
X142152380Y-73343904D01*
X143152380Y-72439142D02*
X142628571Y-72439142D01*
X142533333Y-72486761D01*
X142485714Y-72582000D01*
X142485714Y-72772476D01*
X142533333Y-72867714D01*
X143104761Y-72439142D02*
X143152380Y-72534380D01*
X143152380Y-72772476D01*
X143104761Y-72867714D01*
X143009523Y-72915333D01*
X142914285Y-72915333D01*
X142819047Y-72867714D01*
X142771428Y-72772476D01*
X142771428Y-72534380D01*
X142723809Y-72439142D01*
X142485714Y-71962952D02*
X143152380Y-71962952D01*
X142580952Y-71962952D02*
X142533333Y-71915333D01*
X142485714Y-71820095D01*
X142485714Y-71677238D01*
X142533333Y-71582000D01*
X142628571Y-71534380D01*
X143152380Y-71534380D01*
X143152380Y-70915333D02*
X143104761Y-71010571D01*
X143057142Y-71058190D01*
X142961904Y-71105809D01*
X142676190Y-71105809D01*
X142580952Y-71058190D01*
X142533333Y-71010571D01*
X142485714Y-70915333D01*
X142485714Y-70772476D01*
X142533333Y-70677238D01*
X142580952Y-70629619D01*
X142676190Y-70582000D01*
X142961904Y-70582000D01*
X143057142Y-70629619D01*
X143104761Y-70677238D01*
X143152380Y-70772476D01*
X143152380Y-70915333D01*
X143247619Y-70391523D02*
X143247619Y-69629619D01*
X143104761Y-69439142D02*
X143152380Y-69296285D01*
X143152380Y-69058190D01*
X143104761Y-68962952D01*
X143057142Y-68915333D01*
X142961904Y-68867714D01*
X142866666Y-68867714D01*
X142771428Y-68915333D01*
X142723809Y-68962952D01*
X142676190Y-69058190D01*
X142628571Y-69248666D01*
X142580952Y-69343904D01*
X142533333Y-69391523D01*
X142438095Y-69439142D01*
X142342857Y-69439142D01*
X142247619Y-69391523D01*
X142200000Y-69343904D01*
X142152380Y-69248666D01*
X142152380Y-69010571D01*
X142200000Y-68867714D01*
X143152380Y-68296285D02*
X143104761Y-68391523D01*
X143057142Y-68439142D01*
X142961904Y-68486761D01*
X142676190Y-68486761D01*
X142580952Y-68439142D01*
X142533333Y-68391523D01*
X142485714Y-68296285D01*
X142485714Y-68153428D01*
X142533333Y-68058190D01*
X142580952Y-68010571D01*
X142676190Y-67962952D01*
X142961904Y-67962952D01*
X143057142Y-68010571D01*
X143104761Y-68058190D01*
X143152380Y-68153428D01*
X143152380Y-68296285D01*
X143104761Y-67105809D02*
X143152380Y-67201047D01*
X143152380Y-67391523D01*
X143104761Y-67486761D01*
X143057142Y-67534380D01*
X142961904Y-67582000D01*
X142676190Y-67582000D01*
X142580952Y-67534380D01*
X142533333Y-67486761D01*
X142485714Y-67391523D01*
X142485714Y-67201047D01*
X142533333Y-67105809D01*
X143152380Y-66677238D02*
X142152380Y-66677238D01*
X142771428Y-66582000D02*
X143152380Y-66296285D01*
X142485714Y-66296285D02*
X142866666Y-66677238D01*
X143104761Y-65486761D02*
X143152380Y-65582000D01*
X143152380Y-65772476D01*
X143104761Y-65867714D01*
X143009523Y-65915333D01*
X142628571Y-65915333D01*
X142533333Y-65867714D01*
X142485714Y-65772476D01*
X142485714Y-65582000D01*
X142533333Y-65486761D01*
X142628571Y-65439142D01*
X142723809Y-65439142D01*
X142819047Y-65915333D01*
X142485714Y-65153428D02*
X142485714Y-64772476D01*
X142152380Y-65010571D02*
X143009523Y-65010571D01*
X143104761Y-64962952D01*
X143152380Y-64867714D01*
X143152380Y-64772476D01*
X141223809Y-92592380D02*
X141223809Y-91592380D01*
X142271428Y-92497142D02*
X142223809Y-92544761D01*
X142080952Y-92592380D01*
X141985714Y-92592380D01*
X141842857Y-92544761D01*
X141747619Y-92449523D01*
X141700000Y-92354285D01*
X141652380Y-92163809D01*
X141652380Y-92020952D01*
X141700000Y-91830476D01*
X141747619Y-91735238D01*
X141842857Y-91640000D01*
X141985714Y-91592380D01*
X142080952Y-91592380D01*
X142223809Y-91640000D01*
X142271428Y-91687619D01*
X142652380Y-92544761D02*
X142795238Y-92592380D01*
X143033333Y-92592380D01*
X143128571Y-92544761D01*
X143176190Y-92497142D01*
X143223809Y-92401904D01*
X143223809Y-92306666D01*
X143176190Y-92211428D01*
X143128571Y-92163809D01*
X143033333Y-92116190D01*
X142842857Y-92068571D01*
X142747619Y-92020952D01*
X142700000Y-91973333D01*
X142652380Y-91878095D01*
X142652380Y-91782857D01*
X142700000Y-91687619D01*
X142747619Y-91640000D01*
X142842857Y-91592380D01*
X143080952Y-91592380D01*
X143223809Y-91640000D01*
X143652380Y-92592380D02*
X143652380Y-91592380D01*
X144033333Y-91592380D01*
X144128571Y-91640000D01*
X144176190Y-91687619D01*
X144223809Y-91782857D01*
X144223809Y-91925714D01*
X144176190Y-92020952D01*
X144128571Y-92068571D01*
X144033333Y-92116190D01*
X143652380Y-92116190D01*
X167430952Y-58302380D02*
X167430952Y-57302380D01*
X167764285Y-58016666D01*
X168097619Y-57302380D01*
X168097619Y-58302380D01*
X168716666Y-58302380D02*
X168621428Y-58254761D01*
X168573809Y-58207142D01*
X168526190Y-58111904D01*
X168526190Y-57826190D01*
X168573809Y-57730952D01*
X168621428Y-57683333D01*
X168716666Y-57635714D01*
X168859523Y-57635714D01*
X168954761Y-57683333D01*
X169002380Y-57730952D01*
X169050000Y-57826190D01*
X169050000Y-58111904D01*
X169002380Y-58207142D01*
X168954761Y-58254761D01*
X168859523Y-58302380D01*
X168716666Y-58302380D01*
X169907142Y-57635714D02*
X169907142Y-58302380D01*
X169478571Y-57635714D02*
X169478571Y-58159523D01*
X169526190Y-58254761D01*
X169621428Y-58302380D01*
X169764285Y-58302380D01*
X169859523Y-58254761D01*
X169907142Y-58207142D01*
X170383333Y-57635714D02*
X170383333Y-58302380D01*
X170383333Y-57730952D02*
X170430952Y-57683333D01*
X170526190Y-57635714D01*
X170669047Y-57635714D01*
X170764285Y-57683333D01*
X170811904Y-57778571D01*
X170811904Y-58302380D01*
X171145238Y-57635714D02*
X171526190Y-57635714D01*
X171288095Y-57302380D02*
X171288095Y-58159523D01*
X171335714Y-58254761D01*
X171430952Y-58302380D01*
X171526190Y-58302380D01*
X171859523Y-58302380D02*
X171859523Y-57635714D01*
X171859523Y-57302380D02*
X171811904Y-57350000D01*
X171859523Y-57397619D01*
X171907142Y-57350000D01*
X171859523Y-57302380D01*
X171859523Y-57397619D01*
X172335714Y-57635714D02*
X172335714Y-58302380D01*
X172335714Y-57730952D02*
X172383333Y-57683333D01*
X172478571Y-57635714D01*
X172621428Y-57635714D01*
X172716666Y-57683333D01*
X172764285Y-57778571D01*
X172764285Y-58302380D01*
X173669047Y-57635714D02*
X173669047Y-58445238D01*
X173621428Y-58540476D01*
X173573809Y-58588095D01*
X173478571Y-58635714D01*
X173335714Y-58635714D01*
X173240476Y-58588095D01*
X173669047Y-58254761D02*
X173573809Y-58302380D01*
X173383333Y-58302380D01*
X173288095Y-58254761D01*
X173240476Y-58207142D01*
X173192857Y-58111904D01*
X173192857Y-57826190D01*
X173240476Y-57730952D01*
X173288095Y-57683333D01*
X173383333Y-57635714D01*
X173573809Y-57635714D01*
X173669047Y-57683333D01*
X174145238Y-58302380D02*
X174145238Y-57302380D01*
X174145238Y-57778571D02*
X174716666Y-57778571D01*
X174716666Y-58302380D02*
X174716666Y-57302380D01*
X175335714Y-58302380D02*
X175240476Y-58254761D01*
X175192857Y-58207142D01*
X175145238Y-58111904D01*
X175145238Y-57826190D01*
X175192857Y-57730952D01*
X175240476Y-57683333D01*
X175335714Y-57635714D01*
X175478571Y-57635714D01*
X175573809Y-57683333D01*
X175621428Y-57730952D01*
X175669047Y-57826190D01*
X175669047Y-58111904D01*
X175621428Y-58207142D01*
X175573809Y-58254761D01*
X175478571Y-58302380D01*
X175335714Y-58302380D01*
X176240476Y-58302380D02*
X176145238Y-58254761D01*
X176097619Y-58159523D01*
X176097619Y-57302380D01*
X177002380Y-58254761D02*
X176907142Y-58302380D01*
X176716666Y-58302380D01*
X176621428Y-58254761D01*
X176573809Y-58159523D01*
X176573809Y-57778571D01*
X176621428Y-57683333D01*
X176716666Y-57635714D01*
X176907142Y-57635714D01*
X177002380Y-57683333D01*
X177050000Y-57778571D01*
X177050000Y-57873809D01*
X176573809Y-57969047D01*
X177240476Y-58397619D02*
X178002380Y-58397619D01*
X178145238Y-57302380D02*
X178764285Y-57302380D01*
X178430952Y-57683333D01*
X178573809Y-57683333D01*
X178669047Y-57730952D01*
X178716666Y-57778571D01*
X178764285Y-57873809D01*
X178764285Y-58111904D01*
X178716666Y-58207142D01*
X178669047Y-58254761D01*
X178573809Y-58302380D01*
X178288095Y-58302380D01*
X178192857Y-58254761D01*
X178145238Y-58207142D01*
X179192857Y-58207142D02*
X179240476Y-58254761D01*
X179192857Y-58302380D01*
X179145238Y-58254761D01*
X179192857Y-58207142D01*
X179192857Y-58302380D01*
X179621428Y-57397619D02*
X179669047Y-57350000D01*
X179764285Y-57302380D01*
X180002380Y-57302380D01*
X180097619Y-57350000D01*
X180145238Y-57397619D01*
X180192857Y-57492857D01*
X180192857Y-57588095D01*
X180145238Y-57730952D01*
X179573809Y-58302380D01*
X180192857Y-58302380D01*
X180621428Y-58302380D02*
X180621428Y-57635714D01*
X180621428Y-57730952D02*
X180669047Y-57683333D01*
X180764285Y-57635714D01*
X180907142Y-57635714D01*
X181002380Y-57683333D01*
X181050000Y-57778571D01*
X181050000Y-58302380D01*
X181050000Y-57778571D02*
X181097619Y-57683333D01*
X181192857Y-57635714D01*
X181335714Y-57635714D01*
X181430952Y-57683333D01*
X181478571Y-57778571D01*
X181478571Y-58302380D01*
X181954761Y-58302380D02*
X181954761Y-57635714D01*
X181954761Y-57730952D02*
X182002380Y-57683333D01*
X182097619Y-57635714D01*
X182240476Y-57635714D01*
X182335714Y-57683333D01*
X182383333Y-57778571D01*
X182383333Y-58302380D01*
X182383333Y-57778571D02*
X182430952Y-57683333D01*
X182526190Y-57635714D01*
X182669047Y-57635714D01*
X182764285Y-57683333D01*
X182811904Y-57778571D01*
X182811904Y-58302380D01*
X183050000Y-58397619D02*
X183811904Y-58397619D01*
X184050000Y-58302380D02*
X184050000Y-57302380D01*
X184383333Y-58016666D01*
X184716666Y-57302380D01*
X184716666Y-58302380D01*
X185097619Y-57302380D02*
X185716666Y-57302380D01*
X185383333Y-57683333D01*
X185526190Y-57683333D01*
X185621428Y-57730952D01*
X185669047Y-57778571D01*
X185716666Y-57873809D01*
X185716666Y-58111904D01*
X185669047Y-58207142D01*
X185621428Y-58254761D01*
X185526190Y-58302380D01*
X185240476Y-58302380D01*
X185145238Y-58254761D01*
X185097619Y-58207142D01*
X175516666Y-54102380D02*
X175183333Y-53626190D01*
X174945238Y-54102380D02*
X174945238Y-53102380D01*
X175326190Y-53102380D01*
X175421428Y-53150000D01*
X175469047Y-53197619D01*
X175516666Y-53292857D01*
X175516666Y-53435714D01*
X175469047Y-53530952D01*
X175421428Y-53578571D01*
X175326190Y-53626190D01*
X174945238Y-53626190D01*
X175945238Y-53578571D02*
X176278571Y-53578571D01*
X176421428Y-54102380D02*
X175945238Y-54102380D01*
X175945238Y-53102380D01*
X176421428Y-53102380D01*
X177183333Y-53578571D02*
X176850000Y-53578571D01*
X176850000Y-54102380D02*
X176850000Y-53102380D01*
X177326190Y-53102380D01*
X177850000Y-53102380D02*
X177850000Y-53340476D01*
X177611904Y-53245238D02*
X177850000Y-53340476D01*
X178088095Y-53245238D01*
X177707142Y-53530952D02*
X177850000Y-53340476D01*
X177992857Y-53530952D01*
X178611904Y-53102380D02*
X178611904Y-53340476D01*
X178373809Y-53245238D02*
X178611904Y-53340476D01*
X178850000Y-53245238D01*
X178469047Y-53530952D02*
X178611904Y-53340476D01*
X178754761Y-53530952D01*
X99730952Y-57902380D02*
X99730952Y-56902380D01*
X100064285Y-57616666D01*
X100397619Y-56902380D01*
X100397619Y-57902380D01*
X101016666Y-57902380D02*
X100921428Y-57854761D01*
X100873809Y-57807142D01*
X100826190Y-57711904D01*
X100826190Y-57426190D01*
X100873809Y-57330952D01*
X100921428Y-57283333D01*
X101016666Y-57235714D01*
X101159523Y-57235714D01*
X101254761Y-57283333D01*
X101302380Y-57330952D01*
X101349999Y-57426190D01*
X101349999Y-57711904D01*
X101302380Y-57807142D01*
X101254761Y-57854761D01*
X101159523Y-57902380D01*
X101016666Y-57902380D01*
X102207142Y-57235714D02*
X102207142Y-57902380D01*
X101778571Y-57235714D02*
X101778571Y-57759523D01*
X101826190Y-57854761D01*
X101921428Y-57902380D01*
X102064285Y-57902380D01*
X102159523Y-57854761D01*
X102207142Y-57807142D01*
X102683333Y-57235714D02*
X102683333Y-57902380D01*
X102683333Y-57330952D02*
X102730952Y-57283333D01*
X102826190Y-57235714D01*
X102969047Y-57235714D01*
X103064285Y-57283333D01*
X103111904Y-57378571D01*
X103111904Y-57902380D01*
X103445238Y-57235714D02*
X103826190Y-57235714D01*
X103588095Y-56902380D02*
X103588095Y-57759523D01*
X103635714Y-57854761D01*
X103730952Y-57902380D01*
X103826190Y-57902380D01*
X104159523Y-57902380D02*
X104159523Y-57235714D01*
X104159523Y-56902380D02*
X104111904Y-56950000D01*
X104159523Y-56997619D01*
X104207142Y-56950000D01*
X104159523Y-56902380D01*
X104159523Y-56997619D01*
X104635714Y-57235714D02*
X104635714Y-57902380D01*
X104635714Y-57330952D02*
X104683333Y-57283333D01*
X104778571Y-57235714D01*
X104921428Y-57235714D01*
X105016666Y-57283333D01*
X105064285Y-57378571D01*
X105064285Y-57902380D01*
X105969047Y-57235714D02*
X105969047Y-58045238D01*
X105921428Y-58140476D01*
X105873809Y-58188095D01*
X105778571Y-58235714D01*
X105635714Y-58235714D01*
X105540476Y-58188095D01*
X105969047Y-57854761D02*
X105873809Y-57902380D01*
X105683333Y-57902380D01*
X105588095Y-57854761D01*
X105540476Y-57807142D01*
X105492857Y-57711904D01*
X105492857Y-57426190D01*
X105540476Y-57330952D01*
X105588095Y-57283333D01*
X105683333Y-57235714D01*
X105873809Y-57235714D01*
X105969047Y-57283333D01*
X106445238Y-57902380D02*
X106445238Y-56902380D01*
X106445238Y-57378571D02*
X107016666Y-57378571D01*
X107016666Y-57902380D02*
X107016666Y-56902380D01*
X107635714Y-57902380D02*
X107540476Y-57854761D01*
X107492857Y-57807142D01*
X107445238Y-57711904D01*
X107445238Y-57426190D01*
X107492857Y-57330952D01*
X107540476Y-57283333D01*
X107635714Y-57235714D01*
X107778571Y-57235714D01*
X107873809Y-57283333D01*
X107921428Y-57330952D01*
X107969047Y-57426190D01*
X107969047Y-57711904D01*
X107921428Y-57807142D01*
X107873809Y-57854761D01*
X107778571Y-57902380D01*
X107635714Y-57902380D01*
X108540476Y-57902380D02*
X108445238Y-57854761D01*
X108397619Y-57759523D01*
X108397619Y-56902380D01*
X109302380Y-57854761D02*
X109207142Y-57902380D01*
X109016666Y-57902380D01*
X108921428Y-57854761D01*
X108873809Y-57759523D01*
X108873809Y-57378571D01*
X108921428Y-57283333D01*
X109016666Y-57235714D01*
X109207142Y-57235714D01*
X109302380Y-57283333D01*
X109349999Y-57378571D01*
X109349999Y-57473809D01*
X108873809Y-57569047D01*
X109540476Y-57997619D02*
X110302380Y-57997619D01*
X110445238Y-56902380D02*
X111064285Y-56902380D01*
X110730952Y-57283333D01*
X110873809Y-57283333D01*
X110969047Y-57330952D01*
X111016666Y-57378571D01*
X111064285Y-57473809D01*
X111064285Y-57711904D01*
X111016666Y-57807142D01*
X110969047Y-57854761D01*
X110873809Y-57902380D01*
X110588095Y-57902380D01*
X110492857Y-57854761D01*
X110445238Y-57807142D01*
X111492857Y-57807142D02*
X111540476Y-57854761D01*
X111492857Y-57902380D01*
X111445238Y-57854761D01*
X111492857Y-57807142D01*
X111492857Y-57902380D01*
X111921428Y-56997619D02*
X111969047Y-56950000D01*
X112064285Y-56902380D01*
X112302380Y-56902380D01*
X112397619Y-56950000D01*
X112445238Y-56997619D01*
X112492857Y-57092857D01*
X112492857Y-57188095D01*
X112445238Y-57330952D01*
X111873809Y-57902380D01*
X112492857Y-57902380D01*
X112921428Y-57902380D02*
X112921428Y-57235714D01*
X112921428Y-57330952D02*
X112969047Y-57283333D01*
X113064285Y-57235714D01*
X113207142Y-57235714D01*
X113302380Y-57283333D01*
X113349999Y-57378571D01*
X113349999Y-57902380D01*
X113349999Y-57378571D02*
X113397619Y-57283333D01*
X113492857Y-57235714D01*
X113635714Y-57235714D01*
X113730952Y-57283333D01*
X113778571Y-57378571D01*
X113778571Y-57902380D01*
X114254761Y-57902380D02*
X114254761Y-57235714D01*
X114254761Y-57330952D02*
X114302380Y-57283333D01*
X114397619Y-57235714D01*
X114540476Y-57235714D01*
X114635714Y-57283333D01*
X114683333Y-57378571D01*
X114683333Y-57902380D01*
X114683333Y-57378571D02*
X114730952Y-57283333D01*
X114826190Y-57235714D01*
X114969047Y-57235714D01*
X115064285Y-57283333D01*
X115111904Y-57378571D01*
X115111904Y-57902380D01*
X115349999Y-57997619D02*
X116111904Y-57997619D01*
X116349999Y-57902380D02*
X116349999Y-56902380D01*
X116683333Y-57616666D01*
X117016666Y-56902380D01*
X117016666Y-57902380D01*
X117397619Y-56902380D02*
X118016666Y-56902380D01*
X117683333Y-57283333D01*
X117826190Y-57283333D01*
X117921428Y-57330952D01*
X117969047Y-57378571D01*
X118016666Y-57473809D01*
X118016666Y-57711904D01*
X117969047Y-57807142D01*
X117921428Y-57854761D01*
X117826190Y-57902380D01*
X117540476Y-57902380D01*
X117445238Y-57854761D01*
X117397619Y-57807142D01*
X107816666Y-53702380D02*
X107483333Y-53226190D01*
X107245238Y-53702380D02*
X107245238Y-52702380D01*
X107626190Y-52702380D01*
X107721428Y-52750000D01*
X107769047Y-52797619D01*
X107816666Y-52892857D01*
X107816666Y-53035714D01*
X107769047Y-53130952D01*
X107721428Y-53178571D01*
X107626190Y-53226190D01*
X107245238Y-53226190D01*
X108245238Y-53178571D02*
X108578571Y-53178571D01*
X108721428Y-53702380D02*
X108245238Y-53702380D01*
X108245238Y-52702380D01*
X108721428Y-52702380D01*
X109483333Y-53178571D02*
X109150000Y-53178571D01*
X109150000Y-53702380D02*
X109150000Y-52702380D01*
X109626190Y-52702380D01*
X110150000Y-52702380D02*
X110150000Y-52940476D01*
X109911904Y-52845238D02*
X110150000Y-52940476D01*
X110388095Y-52845238D01*
X110007142Y-53130952D02*
X110150000Y-52940476D01*
X110292857Y-53130952D01*
X110911904Y-52702380D02*
X110911904Y-52940476D01*
X110673809Y-52845238D02*
X110911904Y-52940476D01*
X111150000Y-52845238D01*
X110769047Y-53130952D02*
X110911904Y-52940476D01*
X111054761Y-53130952D01*
X100030952Y-134702380D02*
X100030952Y-133702380D01*
X100364285Y-134416666D01*
X100697619Y-133702380D01*
X100697619Y-134702380D01*
X101316666Y-134702380D02*
X101221428Y-134654761D01*
X101173809Y-134607142D01*
X101126190Y-134511904D01*
X101126190Y-134226190D01*
X101173809Y-134130952D01*
X101221428Y-134083333D01*
X101316666Y-134035714D01*
X101459523Y-134035714D01*
X101554761Y-134083333D01*
X101602380Y-134130952D01*
X101649999Y-134226190D01*
X101649999Y-134511904D01*
X101602380Y-134607142D01*
X101554761Y-134654761D01*
X101459523Y-134702380D01*
X101316666Y-134702380D01*
X102507142Y-134035714D02*
X102507142Y-134702380D01*
X102078571Y-134035714D02*
X102078571Y-134559523D01*
X102126190Y-134654761D01*
X102221428Y-134702380D01*
X102364285Y-134702380D01*
X102459523Y-134654761D01*
X102507142Y-134607142D01*
X102983333Y-134035714D02*
X102983333Y-134702380D01*
X102983333Y-134130952D02*
X103030952Y-134083333D01*
X103126190Y-134035714D01*
X103269047Y-134035714D01*
X103364285Y-134083333D01*
X103411904Y-134178571D01*
X103411904Y-134702380D01*
X103745238Y-134035714D02*
X104126190Y-134035714D01*
X103888095Y-133702380D02*
X103888095Y-134559523D01*
X103935714Y-134654761D01*
X104030952Y-134702380D01*
X104126190Y-134702380D01*
X104459523Y-134702380D02*
X104459523Y-134035714D01*
X104459523Y-133702380D02*
X104411904Y-133750000D01*
X104459523Y-133797619D01*
X104507142Y-133750000D01*
X104459523Y-133702380D01*
X104459523Y-133797619D01*
X104935714Y-134035714D02*
X104935714Y-134702380D01*
X104935714Y-134130952D02*
X104983333Y-134083333D01*
X105078571Y-134035714D01*
X105221428Y-134035714D01*
X105316666Y-134083333D01*
X105364285Y-134178571D01*
X105364285Y-134702380D01*
X106269047Y-134035714D02*
X106269047Y-134845238D01*
X106221428Y-134940476D01*
X106173809Y-134988095D01*
X106078571Y-135035714D01*
X105935714Y-135035714D01*
X105840476Y-134988095D01*
X106269047Y-134654761D02*
X106173809Y-134702380D01*
X105983333Y-134702380D01*
X105888095Y-134654761D01*
X105840476Y-134607142D01*
X105792857Y-134511904D01*
X105792857Y-134226190D01*
X105840476Y-134130952D01*
X105888095Y-134083333D01*
X105983333Y-134035714D01*
X106173809Y-134035714D01*
X106269047Y-134083333D01*
X106745238Y-134702380D02*
X106745238Y-133702380D01*
X106745238Y-134178571D02*
X107316666Y-134178571D01*
X107316666Y-134702380D02*
X107316666Y-133702380D01*
X107935714Y-134702380D02*
X107840476Y-134654761D01*
X107792857Y-134607142D01*
X107745238Y-134511904D01*
X107745238Y-134226190D01*
X107792857Y-134130952D01*
X107840476Y-134083333D01*
X107935714Y-134035714D01*
X108078571Y-134035714D01*
X108173809Y-134083333D01*
X108221428Y-134130952D01*
X108269047Y-134226190D01*
X108269047Y-134511904D01*
X108221428Y-134607142D01*
X108173809Y-134654761D01*
X108078571Y-134702380D01*
X107935714Y-134702380D01*
X108840476Y-134702380D02*
X108745238Y-134654761D01*
X108697619Y-134559523D01*
X108697619Y-133702380D01*
X109602380Y-134654761D02*
X109507142Y-134702380D01*
X109316666Y-134702380D01*
X109221428Y-134654761D01*
X109173809Y-134559523D01*
X109173809Y-134178571D01*
X109221428Y-134083333D01*
X109316666Y-134035714D01*
X109507142Y-134035714D01*
X109602380Y-134083333D01*
X109649999Y-134178571D01*
X109649999Y-134273809D01*
X109173809Y-134369047D01*
X109840476Y-134797619D02*
X110602380Y-134797619D01*
X110745238Y-133702380D02*
X111364285Y-133702380D01*
X111030952Y-134083333D01*
X111173809Y-134083333D01*
X111269047Y-134130952D01*
X111316666Y-134178571D01*
X111364285Y-134273809D01*
X111364285Y-134511904D01*
X111316666Y-134607142D01*
X111269047Y-134654761D01*
X111173809Y-134702380D01*
X110888095Y-134702380D01*
X110792857Y-134654761D01*
X110745238Y-134607142D01*
X111792857Y-134607142D02*
X111840476Y-134654761D01*
X111792857Y-134702380D01*
X111745238Y-134654761D01*
X111792857Y-134607142D01*
X111792857Y-134702380D01*
X112221428Y-133797619D02*
X112269047Y-133750000D01*
X112364285Y-133702380D01*
X112602380Y-133702380D01*
X112697619Y-133750000D01*
X112745238Y-133797619D01*
X112792857Y-133892857D01*
X112792857Y-133988095D01*
X112745238Y-134130952D01*
X112173809Y-134702380D01*
X112792857Y-134702380D01*
X113221428Y-134702380D02*
X113221428Y-134035714D01*
X113221428Y-134130952D02*
X113269047Y-134083333D01*
X113364285Y-134035714D01*
X113507142Y-134035714D01*
X113602380Y-134083333D01*
X113649999Y-134178571D01*
X113649999Y-134702380D01*
X113649999Y-134178571D02*
X113697619Y-134083333D01*
X113792857Y-134035714D01*
X113935714Y-134035714D01*
X114030952Y-134083333D01*
X114078571Y-134178571D01*
X114078571Y-134702380D01*
X114554761Y-134702380D02*
X114554761Y-134035714D01*
X114554761Y-134130952D02*
X114602380Y-134083333D01*
X114697619Y-134035714D01*
X114840476Y-134035714D01*
X114935714Y-134083333D01*
X114983333Y-134178571D01*
X114983333Y-134702380D01*
X114983333Y-134178571D02*
X115030952Y-134083333D01*
X115126190Y-134035714D01*
X115269047Y-134035714D01*
X115364285Y-134083333D01*
X115411904Y-134178571D01*
X115411904Y-134702380D01*
X115649999Y-134797619D02*
X116411904Y-134797619D01*
X116649999Y-134702380D02*
X116649999Y-133702380D01*
X116983333Y-134416666D01*
X117316666Y-133702380D01*
X117316666Y-134702380D01*
X117697619Y-133702380D02*
X118316666Y-133702380D01*
X117983333Y-134083333D01*
X118126190Y-134083333D01*
X118221428Y-134130952D01*
X118269047Y-134178571D01*
X118316666Y-134273809D01*
X118316666Y-134511904D01*
X118269047Y-134607142D01*
X118221428Y-134654761D01*
X118126190Y-134702380D01*
X117840476Y-134702380D01*
X117745238Y-134654761D01*
X117697619Y-134607142D01*
X108116666Y-130502380D02*
X107783333Y-130026190D01*
X107545238Y-130502380D02*
X107545238Y-129502380D01*
X107926190Y-129502380D01*
X108021428Y-129550000D01*
X108069047Y-129597619D01*
X108116666Y-129692857D01*
X108116666Y-129835714D01*
X108069047Y-129930952D01*
X108021428Y-129978571D01*
X107926190Y-130026190D01*
X107545238Y-130026190D01*
X108545238Y-129978571D02*
X108878571Y-129978571D01*
X109021428Y-130502380D02*
X108545238Y-130502380D01*
X108545238Y-129502380D01*
X109021428Y-129502380D01*
X109783333Y-129978571D02*
X109450000Y-129978571D01*
X109450000Y-130502380D02*
X109450000Y-129502380D01*
X109926190Y-129502380D01*
X110450000Y-129502380D02*
X110450000Y-129740476D01*
X110211904Y-129645238D02*
X110450000Y-129740476D01*
X110688095Y-129645238D01*
X110307142Y-129930952D02*
X110450000Y-129740476D01*
X110592857Y-129930952D01*
X111211904Y-129502380D02*
X111211904Y-129740476D01*
X110973809Y-129645238D02*
X111211904Y-129740476D01*
X111450000Y-129645238D01*
X111069047Y-129930952D02*
X111211904Y-129740476D01*
X111354761Y-129930952D01*
X167930952Y-134502380D02*
X167930952Y-133502380D01*
X168264285Y-134216666D01*
X168597619Y-133502380D01*
X168597619Y-134502380D01*
X169216666Y-134502380D02*
X169121428Y-134454761D01*
X169073809Y-134407142D01*
X169026190Y-134311904D01*
X169026190Y-134026190D01*
X169073809Y-133930952D01*
X169121428Y-133883333D01*
X169216666Y-133835714D01*
X169359523Y-133835714D01*
X169454761Y-133883333D01*
X169502380Y-133930952D01*
X169550000Y-134026190D01*
X169550000Y-134311904D01*
X169502380Y-134407142D01*
X169454761Y-134454761D01*
X169359523Y-134502380D01*
X169216666Y-134502380D01*
X170407142Y-133835714D02*
X170407142Y-134502380D01*
X169978571Y-133835714D02*
X169978571Y-134359523D01*
X170026190Y-134454761D01*
X170121428Y-134502380D01*
X170264285Y-134502380D01*
X170359523Y-134454761D01*
X170407142Y-134407142D01*
X170883333Y-133835714D02*
X170883333Y-134502380D01*
X170883333Y-133930952D02*
X170930952Y-133883333D01*
X171026190Y-133835714D01*
X171169047Y-133835714D01*
X171264285Y-133883333D01*
X171311904Y-133978571D01*
X171311904Y-134502380D01*
X171645238Y-133835714D02*
X172026190Y-133835714D01*
X171788095Y-133502380D02*
X171788095Y-134359523D01*
X171835714Y-134454761D01*
X171930952Y-134502380D01*
X172026190Y-134502380D01*
X172359523Y-134502380D02*
X172359523Y-133835714D01*
X172359523Y-133502380D02*
X172311904Y-133550000D01*
X172359523Y-133597619D01*
X172407142Y-133550000D01*
X172359523Y-133502380D01*
X172359523Y-133597619D01*
X172835714Y-133835714D02*
X172835714Y-134502380D01*
X172835714Y-133930952D02*
X172883333Y-133883333D01*
X172978571Y-133835714D01*
X173121428Y-133835714D01*
X173216666Y-133883333D01*
X173264285Y-133978571D01*
X173264285Y-134502380D01*
X174169047Y-133835714D02*
X174169047Y-134645238D01*
X174121428Y-134740476D01*
X174073809Y-134788095D01*
X173978571Y-134835714D01*
X173835714Y-134835714D01*
X173740476Y-134788095D01*
X174169047Y-134454761D02*
X174073809Y-134502380D01*
X173883333Y-134502380D01*
X173788095Y-134454761D01*
X173740476Y-134407142D01*
X173692857Y-134311904D01*
X173692857Y-134026190D01*
X173740476Y-133930952D01*
X173788095Y-133883333D01*
X173883333Y-133835714D01*
X174073809Y-133835714D01*
X174169047Y-133883333D01*
X174645238Y-134502380D02*
X174645238Y-133502380D01*
X174645238Y-133978571D02*
X175216666Y-133978571D01*
X175216666Y-134502380D02*
X175216666Y-133502380D01*
X175835714Y-134502380D02*
X175740476Y-134454761D01*
X175692857Y-134407142D01*
X175645238Y-134311904D01*
X175645238Y-134026190D01*
X175692857Y-133930952D01*
X175740476Y-133883333D01*
X175835714Y-133835714D01*
X175978571Y-133835714D01*
X176073809Y-133883333D01*
X176121428Y-133930952D01*
X176169047Y-134026190D01*
X176169047Y-134311904D01*
X176121428Y-134407142D01*
X176073809Y-134454761D01*
X175978571Y-134502380D01*
X175835714Y-134502380D01*
X176740476Y-134502380D02*
X176645238Y-134454761D01*
X176597619Y-134359523D01*
X176597619Y-133502380D01*
X177502380Y-134454761D02*
X177407142Y-134502380D01*
X177216666Y-134502380D01*
X177121428Y-134454761D01*
X177073809Y-134359523D01*
X177073809Y-133978571D01*
X177121428Y-133883333D01*
X177216666Y-133835714D01*
X177407142Y-133835714D01*
X177502380Y-133883333D01*
X177550000Y-133978571D01*
X177550000Y-134073809D01*
X177073809Y-134169047D01*
X177740476Y-134597619D02*
X178502380Y-134597619D01*
X178645238Y-133502380D02*
X179264285Y-133502380D01*
X178930952Y-133883333D01*
X179073809Y-133883333D01*
X179169047Y-133930952D01*
X179216666Y-133978571D01*
X179264285Y-134073809D01*
X179264285Y-134311904D01*
X179216666Y-134407142D01*
X179169047Y-134454761D01*
X179073809Y-134502380D01*
X178788095Y-134502380D01*
X178692857Y-134454761D01*
X178645238Y-134407142D01*
X179692857Y-134407142D02*
X179740476Y-134454761D01*
X179692857Y-134502380D01*
X179645238Y-134454761D01*
X179692857Y-134407142D01*
X179692857Y-134502380D01*
X180121428Y-133597619D02*
X180169047Y-133550000D01*
X180264285Y-133502380D01*
X180502380Y-133502380D01*
X180597619Y-133550000D01*
X180645238Y-133597619D01*
X180692857Y-133692857D01*
X180692857Y-133788095D01*
X180645238Y-133930952D01*
X180073809Y-134502380D01*
X180692857Y-134502380D01*
X181121428Y-134502380D02*
X181121428Y-133835714D01*
X181121428Y-133930952D02*
X181169047Y-133883333D01*
X181264285Y-133835714D01*
X181407142Y-133835714D01*
X181502380Y-133883333D01*
X181550000Y-133978571D01*
X181550000Y-134502380D01*
X181550000Y-133978571D02*
X181597619Y-133883333D01*
X181692857Y-133835714D01*
X181835714Y-133835714D01*
X181930952Y-133883333D01*
X181978571Y-133978571D01*
X181978571Y-134502380D01*
X182454761Y-134502380D02*
X182454761Y-133835714D01*
X182454761Y-133930952D02*
X182502380Y-133883333D01*
X182597619Y-133835714D01*
X182740476Y-133835714D01*
X182835714Y-133883333D01*
X182883333Y-133978571D01*
X182883333Y-134502380D01*
X182883333Y-133978571D02*
X182930952Y-133883333D01*
X183026190Y-133835714D01*
X183169047Y-133835714D01*
X183264285Y-133883333D01*
X183311904Y-133978571D01*
X183311904Y-134502380D01*
X183550000Y-134597619D02*
X184311904Y-134597619D01*
X184550000Y-134502380D02*
X184550000Y-133502380D01*
X184883333Y-134216666D01*
X185216666Y-133502380D01*
X185216666Y-134502380D01*
X185597619Y-133502380D02*
X186216666Y-133502380D01*
X185883333Y-133883333D01*
X186026190Y-133883333D01*
X186121428Y-133930952D01*
X186169047Y-133978571D01*
X186216666Y-134073809D01*
X186216666Y-134311904D01*
X186169047Y-134407142D01*
X186121428Y-134454761D01*
X186026190Y-134502380D01*
X185740476Y-134502380D01*
X185645238Y-134454761D01*
X185597619Y-134407142D01*
X176016666Y-130302380D02*
X175683333Y-129826190D01*
X175445238Y-130302380D02*
X175445238Y-129302380D01*
X175826190Y-129302380D01*
X175921428Y-129350000D01*
X175969047Y-129397619D01*
X176016666Y-129492857D01*
X176016666Y-129635714D01*
X175969047Y-129730952D01*
X175921428Y-129778571D01*
X175826190Y-129826190D01*
X175445238Y-129826190D01*
X176445238Y-129778571D02*
X176778571Y-129778571D01*
X176921428Y-130302380D02*
X176445238Y-130302380D01*
X176445238Y-129302380D01*
X176921428Y-129302380D01*
X177683333Y-129778571D02*
X177350000Y-129778571D01*
X177350000Y-130302380D02*
X177350000Y-129302380D01*
X177826190Y-129302380D01*
X178350000Y-129302380D02*
X178350000Y-129540476D01*
X178111904Y-129445238D02*
X178350000Y-129540476D01*
X178588095Y-129445238D01*
X178207142Y-129730952D02*
X178350000Y-129540476D01*
X178492857Y-129730952D01*
X179111904Y-129302380D02*
X179111904Y-129540476D01*
X178873809Y-129445238D02*
X179111904Y-129540476D01*
X179350000Y-129445238D01*
X178969047Y-129730952D02*
X179111904Y-129540476D01*
X179254761Y-129730952D01*
X105024761Y-87580952D02*
X105072380Y-87485714D01*
X105072380Y-87295238D01*
X105024761Y-87200000D01*
X104929523Y-87152380D01*
X104881904Y-87152380D01*
X104786666Y-87200000D01*
X104739047Y-87295238D01*
X104739047Y-87438095D01*
X104691428Y-87533333D01*
X104596190Y-87580952D01*
X104548571Y-87580952D01*
X104453333Y-87533333D01*
X104405714Y-87438095D01*
X104405714Y-87295238D01*
X104453333Y-87200000D01*
X105024761Y-86342857D02*
X105072380Y-86438095D01*
X105072380Y-86628571D01*
X105024761Y-86723809D01*
X104929523Y-86771428D01*
X104548571Y-86771428D01*
X104453333Y-86723809D01*
X104405714Y-86628571D01*
X104405714Y-86438095D01*
X104453333Y-86342857D01*
X104548571Y-86295238D01*
X104643809Y-86295238D01*
X104739047Y-86771428D01*
X105072380Y-85866666D02*
X104405714Y-85866666D01*
X104596190Y-85866666D02*
X104500952Y-85819047D01*
X104453333Y-85771428D01*
X104405714Y-85676190D01*
X104405714Y-85580952D01*
X104405714Y-85342857D02*
X105072380Y-85104761D01*
X104405714Y-84866666D01*
X105072380Y-84342857D02*
X105024761Y-84438095D01*
X104977142Y-84485714D01*
X104881904Y-84533333D01*
X104596190Y-84533333D01*
X104500952Y-84485714D01*
X104453333Y-84438095D01*
X104405714Y-84342857D01*
X104405714Y-84200000D01*
X104453333Y-84104761D01*
X104500952Y-84057142D01*
X104596190Y-84009523D01*
X104881904Y-84009523D01*
X104977142Y-84057142D01*
X105024761Y-84104761D01*
X105072380Y-84200000D01*
X105072380Y-84342857D01*
X104691428Y-82819047D02*
X104691428Y-82057142D01*
X105072380Y-82438095D02*
X104310476Y-82438095D01*
X104691428Y-81580952D02*
X104691428Y-80819047D01*
X105024761Y-80390476D02*
X105072380Y-80247619D01*
X105072380Y-80009523D01*
X105024761Y-79914285D01*
X104977142Y-79866666D01*
X104881904Y-79819047D01*
X104786666Y-79819047D01*
X104691428Y-79866666D01*
X104643809Y-79914285D01*
X104596190Y-80009523D01*
X104548571Y-80200000D01*
X104500952Y-80295238D01*
X104453333Y-80342857D01*
X104358095Y-80390476D01*
X104262857Y-80390476D01*
X104167619Y-80342857D01*
X104120000Y-80295238D01*
X104072380Y-80200000D01*
X104072380Y-79961904D01*
X104120000Y-79819047D01*
X106972380Y-84438095D02*
X105972380Y-84438095D01*
X105972380Y-84057142D01*
X106020000Y-83961904D01*
X106067619Y-83914285D01*
X106162857Y-83866666D01*
X106305714Y-83866666D01*
X106400952Y-83914285D01*
X106448571Y-83961904D01*
X106496190Y-84057142D01*
X106496190Y-84438095D01*
X105972380Y-83533333D02*
X105972380Y-82866666D01*
X106972380Y-83295238D01*
X129309904Y-94730380D02*
X129309904Y-93730380D01*
X129690857Y-93730380D01*
X129786095Y-93778000D01*
X129833714Y-93825619D01*
X129881333Y-93920857D01*
X129881333Y-94063714D01*
X129833714Y-94158952D01*
X129786095Y-94206571D01*
X129690857Y-94254190D01*
X129309904Y-94254190D01*
X130357523Y-94730380D02*
X130548000Y-94730380D01*
X130643238Y-94682761D01*
X130690857Y-94635142D01*
X130786095Y-94492285D01*
X130833714Y-94301809D01*
X130833714Y-93920857D01*
X130786095Y-93825619D01*
X130738476Y-93778000D01*
X130643238Y-93730380D01*
X130452761Y-93730380D01*
X130357523Y-93778000D01*
X130309904Y-93825619D01*
X130262285Y-93920857D01*
X130262285Y-94158952D01*
X130309904Y-94254190D01*
X130357523Y-94301809D01*
X130452761Y-94349428D01*
X130643238Y-94349428D01*
X130738476Y-94301809D01*
X130786095Y-94254190D01*
X130833714Y-94158952D01*
X107052380Y-110064285D02*
X106052380Y-110064285D01*
X106052380Y-109683333D01*
X106100000Y-109588095D01*
X106147619Y-109540476D01*
X106242857Y-109492857D01*
X106385714Y-109492857D01*
X106480952Y-109540476D01*
X106528571Y-109588095D01*
X106576190Y-109683333D01*
X106576190Y-110064285D01*
X107052380Y-108540476D02*
X107052380Y-109111904D01*
X107052380Y-108826190D02*
X106052380Y-108826190D01*
X106195238Y-108921428D01*
X106290476Y-109016666D01*
X106338095Y-109111904D01*
X106052380Y-107921428D02*
X106052380Y-107826190D01*
X106100000Y-107730952D01*
X106147619Y-107683333D01*
X106242857Y-107635714D01*
X106433333Y-107588095D01*
X106671428Y-107588095D01*
X106861904Y-107635714D01*
X106957142Y-107683333D01*
X107004761Y-107730952D01*
X107052380Y-107826190D01*
X107052380Y-107921428D01*
X107004761Y-108016666D01*
X106957142Y-108064285D01*
X106861904Y-108111904D01*
X106671428Y-108159523D01*
X106433333Y-108159523D01*
X106242857Y-108111904D01*
X106147619Y-108064285D01*
X106100000Y-108016666D01*
X106052380Y-107921428D01*
X172199380Y-87284714D02*
X172199380Y-87475190D01*
X172247000Y-87570428D01*
X172294619Y-87618047D01*
X172437476Y-87713285D01*
X172627952Y-87760904D01*
X173008904Y-87760904D01*
X173104142Y-87713285D01*
X173151761Y-87665666D01*
X173199380Y-87570428D01*
X173199380Y-87379952D01*
X173151761Y-87284714D01*
X173104142Y-87237095D01*
X173008904Y-87189476D01*
X172770809Y-87189476D01*
X172675571Y-87237095D01*
X172627952Y-87284714D01*
X172580333Y-87379952D01*
X172580333Y-87570428D01*
X172627952Y-87665666D01*
X172675571Y-87713285D01*
X172770809Y-87760904D01*
X172627952Y-86618047D02*
X172580333Y-86713285D01*
X172532714Y-86760904D01*
X172437476Y-86808523D01*
X172389857Y-86808523D01*
X172294619Y-86760904D01*
X172247000Y-86713285D01*
X172199380Y-86618047D01*
X172199380Y-86427571D01*
X172247000Y-86332333D01*
X172294619Y-86284714D01*
X172389857Y-86237095D01*
X172437476Y-86237095D01*
X172532714Y-86284714D01*
X172580333Y-86332333D01*
X172627952Y-86427571D01*
X172627952Y-86618047D01*
X172675571Y-86713285D01*
X172723190Y-86760904D01*
X172818428Y-86808523D01*
X173008904Y-86808523D01*
X173104142Y-86760904D01*
X173151761Y-86713285D01*
X173199380Y-86618047D01*
X173199380Y-86427571D01*
X173151761Y-86332333D01*
X173104142Y-86284714D01*
X173008904Y-86237095D01*
X172818428Y-86237095D01*
X172723190Y-86284714D01*
X172675571Y-86332333D01*
X172627952Y-86427571D01*
X172199380Y-85618047D02*
X172199380Y-85522809D01*
X172247000Y-85427571D01*
X172294619Y-85379952D01*
X172389857Y-85332333D01*
X172580333Y-85284714D01*
X172818428Y-85284714D01*
X173008904Y-85332333D01*
X173104142Y-85379952D01*
X173151761Y-85427571D01*
X173199380Y-85522809D01*
X173199380Y-85618047D01*
X173151761Y-85713285D01*
X173104142Y-85760904D01*
X173008904Y-85808523D01*
X172818428Y-85856142D01*
X172580333Y-85856142D01*
X172389857Y-85808523D01*
X172294619Y-85760904D01*
X172247000Y-85713285D01*
X172199380Y-85618047D01*
X172532714Y-84856142D02*
X173532714Y-84856142D01*
X173056523Y-84379952D02*
X173151761Y-84332333D01*
X173199380Y-84237095D01*
X173056523Y-84856142D02*
X173151761Y-84808523D01*
X173199380Y-84713285D01*
X173199380Y-84522809D01*
X173151761Y-84427571D01*
X173056523Y-84379952D01*
X172532714Y-84379952D01*
X166854142Y-86165666D02*
X166901761Y-86213285D01*
X166949380Y-86356142D01*
X166949380Y-86451380D01*
X166901761Y-86594238D01*
X166806523Y-86689476D01*
X166711285Y-86737095D01*
X166520809Y-86784714D01*
X166377952Y-86784714D01*
X166187476Y-86737095D01*
X166092238Y-86689476D01*
X165997000Y-86594238D01*
X165949380Y-86451380D01*
X165949380Y-86356142D01*
X165997000Y-86213285D01*
X166044619Y-86165666D01*
X166949380Y-85213285D02*
X166949380Y-85784714D01*
X166949380Y-85499000D02*
X165949380Y-85499000D01*
X166092238Y-85594238D01*
X166187476Y-85689476D01*
X166235095Y-85784714D01*
X163453285Y-49590380D02*
X163262809Y-49590380D01*
X163167571Y-49638000D01*
X163119952Y-49685619D01*
X163024714Y-49828476D01*
X162977095Y-50018952D01*
X162977095Y-50399904D01*
X163024714Y-50495142D01*
X163072333Y-50542761D01*
X163167571Y-50590380D01*
X163358047Y-50590380D01*
X163453285Y-50542761D01*
X163500904Y-50495142D01*
X163548523Y-50399904D01*
X163548523Y-50161809D01*
X163500904Y-50066571D01*
X163453285Y-50018952D01*
X163358047Y-49971333D01*
X163167571Y-49971333D01*
X163072333Y-50018952D01*
X163024714Y-50066571D01*
X162977095Y-50161809D01*
X164119952Y-50018952D02*
X164024714Y-49971333D01*
X163977095Y-49923714D01*
X163929476Y-49828476D01*
X163929476Y-49780857D01*
X163977095Y-49685619D01*
X164024714Y-49638000D01*
X164119952Y-49590380D01*
X164310428Y-49590380D01*
X164405666Y-49638000D01*
X164453285Y-49685619D01*
X164500904Y-49780857D01*
X164500904Y-49828476D01*
X164453285Y-49923714D01*
X164405666Y-49971333D01*
X164310428Y-50018952D01*
X164119952Y-50018952D01*
X164024714Y-50066571D01*
X163977095Y-50114190D01*
X163929476Y-50209428D01*
X163929476Y-50399904D01*
X163977095Y-50495142D01*
X164024714Y-50542761D01*
X164119952Y-50590380D01*
X164310428Y-50590380D01*
X164405666Y-50542761D01*
X164453285Y-50495142D01*
X164500904Y-50399904D01*
X164500904Y-50209428D01*
X164453285Y-50114190D01*
X164405666Y-50066571D01*
X164310428Y-50018952D01*
X165119952Y-49590380D02*
X165215190Y-49590380D01*
X165310428Y-49638000D01*
X165358047Y-49685619D01*
X165405666Y-49780857D01*
X165453285Y-49971333D01*
X165453285Y-50209428D01*
X165405666Y-50399904D01*
X165358047Y-50495142D01*
X165310428Y-50542761D01*
X165215190Y-50590380D01*
X165119952Y-50590380D01*
X165024714Y-50542761D01*
X164977095Y-50495142D01*
X164929476Y-50399904D01*
X164881857Y-50209428D01*
X164881857Y-49971333D01*
X164929476Y-49780857D01*
X164977095Y-49685619D01*
X165024714Y-49638000D01*
X165119952Y-49590380D01*
X165881857Y-49923714D02*
X165881857Y-50923714D01*
X166358047Y-50447523D02*
X166405666Y-50542761D01*
X166500904Y-50590380D01*
X165881857Y-50447523D02*
X165929476Y-50542761D01*
X166024714Y-50590380D01*
X166215190Y-50590380D01*
X166310428Y-50542761D01*
X166358047Y-50447523D01*
X166358047Y-49923714D01*
X164572333Y-56745142D02*
X164524714Y-56792761D01*
X164381857Y-56840380D01*
X164286619Y-56840380D01*
X164143761Y-56792761D01*
X164048523Y-56697523D01*
X164000904Y-56602285D01*
X163953285Y-56411809D01*
X163953285Y-56268952D01*
X164000904Y-56078476D01*
X164048523Y-55983238D01*
X164143761Y-55888000D01*
X164286619Y-55840380D01*
X164381857Y-55840380D01*
X164524714Y-55888000D01*
X164572333Y-55935619D01*
X164953285Y-55935619D02*
X165000904Y-55888000D01*
X165096142Y-55840380D01*
X165334238Y-55840380D01*
X165429476Y-55888000D01*
X165477095Y-55935619D01*
X165524714Y-56030857D01*
X165524714Y-56126095D01*
X165477095Y-56268952D01*
X164905666Y-56840380D01*
X165524714Y-56840380D01*
X173788095Y-73297619D02*
X173835714Y-73250000D01*
X173930952Y-73202380D01*
X174169047Y-73202380D01*
X174264285Y-73250000D01*
X174311904Y-73297619D01*
X174359523Y-73392857D01*
X174359523Y-73488095D01*
X174311904Y-73630952D01*
X173740476Y-74202380D01*
X174359523Y-74202380D01*
X174740476Y-73297619D02*
X174788095Y-73250000D01*
X174883333Y-73202380D01*
X175121428Y-73202380D01*
X175216666Y-73250000D01*
X175264285Y-73297619D01*
X175311904Y-73392857D01*
X175311904Y-73488095D01*
X175264285Y-73630952D01*
X174692857Y-74202380D01*
X175311904Y-74202380D01*
X175930952Y-73202380D02*
X176026190Y-73202380D01*
X176121428Y-73250000D01*
X176169047Y-73297619D01*
X176216666Y-73392857D01*
X176264285Y-73583333D01*
X176264285Y-73821428D01*
X176216666Y-74011904D01*
X176169047Y-74107142D01*
X176121428Y-74154761D01*
X176026190Y-74202380D01*
X175930952Y-74202380D01*
X175835714Y-74154761D01*
X175788095Y-74107142D01*
X175740476Y-74011904D01*
X175692857Y-73821428D01*
X175692857Y-73583333D01*
X175740476Y-73392857D01*
X175788095Y-73297619D01*
X175835714Y-73250000D01*
X175930952Y-73202380D01*
X176692857Y-73535714D02*
X176692857Y-74535714D01*
X177169047Y-74059523D02*
X177216666Y-74154761D01*
X177311904Y-74202380D01*
X176692857Y-74059523D02*
X176740476Y-74154761D01*
X176835714Y-74202380D01*
X177026190Y-74202380D01*
X177121428Y-74154761D01*
X177169047Y-74059523D01*
X177169047Y-73535714D01*
X175383333Y-79357142D02*
X175335714Y-79404761D01*
X175192857Y-79452380D01*
X175097619Y-79452380D01*
X174954761Y-79404761D01*
X174859523Y-79309523D01*
X174811904Y-79214285D01*
X174764285Y-79023809D01*
X174764285Y-78880952D01*
X174811904Y-78690476D01*
X174859523Y-78595238D01*
X174954761Y-78500000D01*
X175097619Y-78452380D01*
X175192857Y-78452380D01*
X175335714Y-78500000D01*
X175383333Y-78547619D01*
X176288095Y-78452380D02*
X175811904Y-78452380D01*
X175764285Y-78928571D01*
X175811904Y-78880952D01*
X175907142Y-78833333D01*
X176145238Y-78833333D01*
X176240476Y-78880952D01*
X176288095Y-78928571D01*
X176335714Y-79023809D01*
X176335714Y-79261904D01*
X176288095Y-79357142D01*
X176240476Y-79404761D01*
X176145238Y-79452380D01*
X175907142Y-79452380D01*
X175811904Y-79404761D01*
X175764285Y-79357142D01*
X162797619Y-95361904D02*
X162750000Y-95314285D01*
X162702380Y-95219047D01*
X162702380Y-94980952D01*
X162750000Y-94885714D01*
X162797619Y-94838095D01*
X162892857Y-94790476D01*
X162988095Y-94790476D01*
X163130952Y-94838095D01*
X163702380Y-95409523D01*
X163702380Y-94790476D01*
X162797619Y-94409523D02*
X162750000Y-94361904D01*
X162702380Y-94266666D01*
X162702380Y-94028571D01*
X162750000Y-93933333D01*
X162797619Y-93885714D01*
X162892857Y-93838095D01*
X162988095Y-93838095D01*
X163130952Y-93885714D01*
X163702380Y-94457142D01*
X163702380Y-93838095D01*
X162702380Y-93219047D02*
X162702380Y-93123809D01*
X162750000Y-93028571D01*
X162797619Y-92980952D01*
X162892857Y-92933333D01*
X163083333Y-92885714D01*
X163321428Y-92885714D01*
X163511904Y-92933333D01*
X163607142Y-92980952D01*
X163654761Y-93028571D01*
X163702380Y-93123809D01*
X163702380Y-93219047D01*
X163654761Y-93314285D01*
X163607142Y-93361904D01*
X163511904Y-93409523D01*
X163321428Y-93457142D01*
X163083333Y-93457142D01*
X162892857Y-93409523D01*
X162797619Y-93361904D01*
X162750000Y-93314285D01*
X162702380Y-93219047D01*
X163035714Y-92457142D02*
X164035714Y-92457142D01*
X163559523Y-91980952D02*
X163654761Y-91933333D01*
X163702380Y-91838095D01*
X163559523Y-92457142D02*
X163654761Y-92409523D01*
X163702380Y-92314285D01*
X163702380Y-92123809D01*
X163654761Y-92028571D01*
X163559523Y-91980952D01*
X163035714Y-91980952D01*
X158357142Y-93766666D02*
X158404761Y-93814285D01*
X158452380Y-93957142D01*
X158452380Y-94052380D01*
X158404761Y-94195238D01*
X158309523Y-94290476D01*
X158214285Y-94338095D01*
X158023809Y-94385714D01*
X157880952Y-94385714D01*
X157690476Y-94338095D01*
X157595238Y-94290476D01*
X157500000Y-94195238D01*
X157452380Y-94052380D01*
X157452380Y-93957142D01*
X157500000Y-93814285D01*
X157547619Y-93766666D01*
X157452380Y-92909523D02*
X157452380Y-93100000D01*
X157500000Y-93195238D01*
X157547619Y-93242857D01*
X157690476Y-93338095D01*
X157880952Y-93385714D01*
X158261904Y-93385714D01*
X158357142Y-93338095D01*
X158404761Y-93290476D01*
X158452380Y-93195238D01*
X158452380Y-93004761D01*
X158404761Y-92909523D01*
X158357142Y-92861904D01*
X158261904Y-92814285D01*
X158023809Y-92814285D01*
X157928571Y-92861904D01*
X157880952Y-92909523D01*
X157833333Y-93004761D01*
X157833333Y-93195238D01*
X157880952Y-93290476D01*
X157928571Y-93338095D01*
X158023809Y-93385714D01*
X131936952Y-122794380D02*
X131365523Y-122794380D01*
X131651238Y-122794380D02*
X131651238Y-121794380D01*
X131556000Y-121937238D01*
X131460761Y-122032476D01*
X131365523Y-122080095D01*
X132556000Y-121794380D02*
X132651238Y-121794380D01*
X132746476Y-121842000D01*
X132794095Y-121889619D01*
X132841714Y-121984857D01*
X132889333Y-122175333D01*
X132889333Y-122413428D01*
X132841714Y-122603904D01*
X132794095Y-122699142D01*
X132746476Y-122746761D01*
X132651238Y-122794380D01*
X132556000Y-122794380D01*
X132460761Y-122746761D01*
X132413142Y-122699142D01*
X132365523Y-122603904D01*
X132317904Y-122413428D01*
X132317904Y-122175333D01*
X132365523Y-121984857D01*
X132413142Y-121889619D01*
X132460761Y-121842000D01*
X132556000Y-121794380D01*
X133508380Y-121794380D02*
X133603619Y-121794380D01*
X133698857Y-121842000D01*
X133746476Y-121889619D01*
X133794095Y-121984857D01*
X133841714Y-122175333D01*
X133841714Y-122413428D01*
X133794095Y-122603904D01*
X133746476Y-122699142D01*
X133698857Y-122746761D01*
X133603619Y-122794380D01*
X133508380Y-122794380D01*
X133413142Y-122746761D01*
X133365523Y-122699142D01*
X133317904Y-122603904D01*
X133270285Y-122413428D01*
X133270285Y-122175333D01*
X133317904Y-121984857D01*
X133365523Y-121889619D01*
X133413142Y-121842000D01*
X133508380Y-121794380D01*
X134270285Y-122127714D02*
X134270285Y-122794380D01*
X134270285Y-122222952D02*
X134317904Y-122175333D01*
X134413142Y-122127714D01*
X134556000Y-122127714D01*
X134651238Y-122175333D01*
X134698857Y-122270571D01*
X134698857Y-122794380D01*
D12*
X132912666Y-120449142D02*
X132871714Y-120490095D01*
X132748857Y-120531047D01*
X132666952Y-120531047D01*
X132544095Y-120490095D01*
X132462190Y-120408190D01*
X132421238Y-120326285D01*
X132380285Y-120162476D01*
X132380285Y-120039619D01*
X132421238Y-119875809D01*
X132462190Y-119793904D01*
X132544095Y-119712000D01*
X132666952Y-119671047D01*
X132748857Y-119671047D01*
X132871714Y-119712000D01*
X132912666Y-119752952D01*
X133199333Y-119671047D02*
X133772666Y-119671047D01*
X133404095Y-120531047D01*
D10*
X115430952Y-97852380D02*
X114859523Y-97852380D01*
X115145238Y-97852380D02*
X115145238Y-96852380D01*
X115050000Y-96995238D01*
X114954761Y-97090476D01*
X114859523Y-97138095D01*
X116050000Y-96852380D02*
X116145238Y-96852380D01*
X116240476Y-96900000D01*
X116288095Y-96947619D01*
X116335714Y-97042857D01*
X116383333Y-97233333D01*
X116383333Y-97471428D01*
X116335714Y-97661904D01*
X116288095Y-97757142D01*
X116240476Y-97804761D01*
X116145238Y-97852380D01*
X116050000Y-97852380D01*
X115954761Y-97804761D01*
X115907142Y-97757142D01*
X115859523Y-97661904D01*
X115811904Y-97471428D01*
X115811904Y-97233333D01*
X115859523Y-97042857D01*
X115907142Y-96947619D01*
X115954761Y-96900000D01*
X116050000Y-96852380D01*
X117002380Y-96852380D02*
X117097619Y-96852380D01*
X117192857Y-96900000D01*
X117240476Y-96947619D01*
X117288095Y-97042857D01*
X117335714Y-97233333D01*
X117335714Y-97471428D01*
X117288095Y-97661904D01*
X117240476Y-97757142D01*
X117192857Y-97804761D01*
X117097619Y-97852380D01*
X117002380Y-97852380D01*
X116907142Y-97804761D01*
X116859523Y-97757142D01*
X116811904Y-97661904D01*
X116764285Y-97471428D01*
X116764285Y-97233333D01*
X116811904Y-97042857D01*
X116859523Y-96947619D01*
X116907142Y-96900000D01*
X117002380Y-96852380D01*
X117764285Y-97185714D02*
X117764285Y-97852380D01*
X117764285Y-97280952D02*
X117811904Y-97233333D01*
X117907142Y-97185714D01*
X118050000Y-97185714D01*
X118145238Y-97233333D01*
X118192857Y-97328571D01*
X118192857Y-97852380D01*
D12*
X116406666Y-99907142D02*
X116365714Y-99948095D01*
X116242857Y-99989047D01*
X116160952Y-99989047D01*
X116038095Y-99948095D01*
X115956190Y-99866190D01*
X115915238Y-99784285D01*
X115874285Y-99620476D01*
X115874285Y-99497619D01*
X115915238Y-99333809D01*
X115956190Y-99251904D01*
X116038095Y-99170000D01*
X116160952Y-99129047D01*
X116242857Y-99129047D01*
X116365714Y-99170000D01*
X116406666Y-99210952D01*
X116898095Y-99497619D02*
X116816190Y-99456666D01*
X116775238Y-99415714D01*
X116734285Y-99333809D01*
X116734285Y-99292857D01*
X116775238Y-99210952D01*
X116816190Y-99170000D01*
X116898095Y-99129047D01*
X117061904Y-99129047D01*
X117143809Y-99170000D01*
X117184761Y-99210952D01*
X117225714Y-99292857D01*
X117225714Y-99333809D01*
X117184761Y-99415714D01*
X117143809Y-99456666D01*
X117061904Y-99497619D01*
X116898095Y-99497619D01*
X116816190Y-99538571D01*
X116775238Y-99579523D01*
X116734285Y-99661428D01*
X116734285Y-99825238D01*
X116775238Y-99907142D01*
X116816190Y-99948095D01*
X116898095Y-99989047D01*
X117061904Y-99989047D01*
X117143809Y-99948095D01*
X117184761Y-99907142D01*
X117225714Y-99825238D01*
X117225714Y-99661428D01*
X117184761Y-99579523D01*
X117143809Y-99538571D01*
X117061904Y-99497619D01*
D10*
X151380952Y-123352380D02*
X150809523Y-123352380D01*
X151095238Y-123352380D02*
X151095238Y-122352380D01*
X151000000Y-122495238D01*
X150904761Y-122590476D01*
X150809523Y-122638095D01*
X152000000Y-122352380D02*
X152095238Y-122352380D01*
X152190476Y-122400000D01*
X152238095Y-122447619D01*
X152285714Y-122542857D01*
X152333333Y-122733333D01*
X152333333Y-122971428D01*
X152285714Y-123161904D01*
X152238095Y-123257142D01*
X152190476Y-123304761D01*
X152095238Y-123352380D01*
X152000000Y-123352380D01*
X151904761Y-123304761D01*
X151857142Y-123257142D01*
X151809523Y-123161904D01*
X151761904Y-122971428D01*
X151761904Y-122733333D01*
X151809523Y-122542857D01*
X151857142Y-122447619D01*
X151904761Y-122400000D01*
X152000000Y-122352380D01*
X152952380Y-122352380D02*
X153047619Y-122352380D01*
X153142857Y-122400000D01*
X153190476Y-122447619D01*
X153238095Y-122542857D01*
X153285714Y-122733333D01*
X153285714Y-122971428D01*
X153238095Y-123161904D01*
X153190476Y-123257142D01*
X153142857Y-123304761D01*
X153047619Y-123352380D01*
X152952380Y-123352380D01*
X152857142Y-123304761D01*
X152809523Y-123257142D01*
X152761904Y-123161904D01*
X152714285Y-122971428D01*
X152714285Y-122733333D01*
X152761904Y-122542857D01*
X152809523Y-122447619D01*
X152857142Y-122400000D01*
X152952380Y-122352380D01*
X153714285Y-122685714D02*
X153714285Y-123352380D01*
X153714285Y-122780952D02*
X153761904Y-122733333D01*
X153857142Y-122685714D01*
X154000000Y-122685714D01*
X154095238Y-122733333D01*
X154142857Y-122828571D01*
X154142857Y-123352380D01*
D12*
X151947142Y-121007142D02*
X151906190Y-121048095D01*
X151783333Y-121089047D01*
X151701428Y-121089047D01*
X151578571Y-121048095D01*
X151496666Y-120966190D01*
X151455714Y-120884285D01*
X151414761Y-120720476D01*
X151414761Y-120597619D01*
X151455714Y-120433809D01*
X151496666Y-120351904D01*
X151578571Y-120270000D01*
X151701428Y-120229047D01*
X151783333Y-120229047D01*
X151906190Y-120270000D01*
X151947142Y-120310952D01*
X152766190Y-121089047D02*
X152274761Y-121089047D01*
X152520476Y-121089047D02*
X152520476Y-120229047D01*
X152438571Y-120351904D01*
X152356666Y-120433809D01*
X152274761Y-120474761D01*
X153298571Y-120229047D02*
X153380476Y-120229047D01*
X153462380Y-120270000D01*
X153503333Y-120310952D01*
X153544285Y-120392857D01*
X153585238Y-120556666D01*
X153585238Y-120761428D01*
X153544285Y-120925238D01*
X153503333Y-121007142D01*
X153462380Y-121048095D01*
X153380476Y-121089047D01*
X153298571Y-121089047D01*
X153216666Y-121048095D01*
X153175714Y-121007142D01*
X153134761Y-120925238D01*
X153093809Y-120761428D01*
X153093809Y-120556666D01*
X153134761Y-120392857D01*
X153175714Y-120310952D01*
X153216666Y-120270000D01*
X153298571Y-120229047D01*
D10*
X150984761Y-112338904D02*
X151032380Y-112196047D01*
X151032380Y-111957952D01*
X150984761Y-111862714D01*
X150937142Y-111815095D01*
X150841904Y-111767476D01*
X150746666Y-111767476D01*
X150651428Y-111815095D01*
X150603809Y-111862714D01*
X150556190Y-111957952D01*
X150508571Y-112148428D01*
X150460952Y-112243666D01*
X150413333Y-112291285D01*
X150318095Y-112338904D01*
X150222857Y-112338904D01*
X150127619Y-112291285D01*
X150080000Y-112243666D01*
X150032380Y-112148428D01*
X150032380Y-111910333D01*
X150080000Y-111767476D01*
X150984761Y-110910333D02*
X151032380Y-111005571D01*
X151032380Y-111196047D01*
X150984761Y-111291285D01*
X150937142Y-111338904D01*
X150841904Y-111386523D01*
X150556190Y-111386523D01*
X150460952Y-111338904D01*
X150413333Y-111291285D01*
X150365714Y-111196047D01*
X150365714Y-111005571D01*
X150413333Y-110910333D01*
X151032380Y-110481761D02*
X150032380Y-110481761D01*
X151032380Y-110053190D02*
X150508571Y-110053190D01*
X150413333Y-110100809D01*
X150365714Y-110196047D01*
X150365714Y-110338904D01*
X150413333Y-110434142D01*
X150460952Y-110481761D01*
X151032380Y-109434142D02*
X150984761Y-109529380D01*
X150937142Y-109577000D01*
X150841904Y-109624619D01*
X150556190Y-109624619D01*
X150460952Y-109577000D01*
X150413333Y-109529380D01*
X150365714Y-109434142D01*
X150365714Y-109291285D01*
X150413333Y-109196047D01*
X150460952Y-109148428D01*
X150556190Y-109100809D01*
X150841904Y-109100809D01*
X150937142Y-109148428D01*
X150984761Y-109196047D01*
X151032380Y-109291285D01*
X151032380Y-109434142D01*
X150365714Y-108815095D02*
X150365714Y-108434142D01*
X150032380Y-108672238D02*
X150889523Y-108672238D01*
X150984761Y-108624619D01*
X151032380Y-108529380D01*
X151032380Y-108434142D01*
X150365714Y-108243666D02*
X150365714Y-107862714D01*
X150032380Y-108100809D02*
X150889523Y-108100809D01*
X150984761Y-108053190D01*
X151032380Y-107957952D01*
X151032380Y-107862714D01*
X151032380Y-107529380D02*
X150032380Y-107529380D01*
X150651428Y-107434142D02*
X151032380Y-107148428D01*
X150365714Y-107148428D02*
X150746666Y-107529380D01*
X150365714Y-106815095D02*
X151032380Y-106577000D01*
X150365714Y-106338904D02*
X151032380Y-106577000D01*
X151270476Y-106672238D01*
X151318095Y-106719857D01*
X151365714Y-106815095D01*
X150032380Y-104719857D02*
X150032380Y-105196047D01*
X150508571Y-105243666D01*
X150460952Y-105196047D01*
X150413333Y-105100809D01*
X150413333Y-104862714D01*
X150460952Y-104767476D01*
X150508571Y-104719857D01*
X150603809Y-104672238D01*
X150841904Y-104672238D01*
X150937142Y-104719857D01*
X150984761Y-104767476D01*
X151032380Y-104862714D01*
X151032380Y-105100809D01*
X150984761Y-105196047D01*
X150937142Y-105243666D01*
X150746666Y-104291285D02*
X150746666Y-103815095D01*
X151032380Y-104386523D02*
X150032380Y-104053190D01*
X151032380Y-103719857D01*
X153952380Y-109385095D02*
X152952380Y-109385095D01*
X152952380Y-109147000D01*
X153000000Y-109004142D01*
X153095238Y-108908904D01*
X153190476Y-108861285D01*
X153380952Y-108813666D01*
X153523809Y-108813666D01*
X153714285Y-108861285D01*
X153809523Y-108908904D01*
X153904761Y-109004142D01*
X153952380Y-109147000D01*
X153952380Y-109385095D01*
X153952380Y-107861285D02*
X153952380Y-108432714D01*
X153952380Y-108147000D02*
X152952380Y-108147000D01*
X153095238Y-108242238D01*
X153190476Y-108337476D01*
X153238095Y-108432714D01*
X156152380Y-101988904D02*
X155152380Y-101988904D01*
X156152380Y-101417476D02*
X155580952Y-101846047D01*
X155152380Y-101417476D02*
X155723809Y-101988904D01*
X159915761Y-76016904D02*
X159963380Y-75874047D01*
X159963380Y-75635952D01*
X159915761Y-75540714D01*
X159868142Y-75493095D01*
X159772904Y-75445476D01*
X159677666Y-75445476D01*
X159582428Y-75493095D01*
X159534809Y-75540714D01*
X159487190Y-75635952D01*
X159439571Y-75826428D01*
X159391952Y-75921666D01*
X159344333Y-75969285D01*
X159249095Y-76016904D01*
X159153857Y-76016904D01*
X159058619Y-75969285D01*
X159011000Y-75921666D01*
X158963380Y-75826428D01*
X158963380Y-75588333D01*
X159011000Y-75445476D01*
X159915761Y-74588333D02*
X159963380Y-74683571D01*
X159963380Y-74874047D01*
X159915761Y-74969285D01*
X159868142Y-75016904D01*
X159772904Y-75064523D01*
X159487190Y-75064523D01*
X159391952Y-75016904D01*
X159344333Y-74969285D01*
X159296714Y-74874047D01*
X159296714Y-74683571D01*
X159344333Y-74588333D01*
X159963380Y-74159761D02*
X158963380Y-74159761D01*
X159963380Y-73731190D02*
X159439571Y-73731190D01*
X159344333Y-73778809D01*
X159296714Y-73874047D01*
X159296714Y-74016904D01*
X159344333Y-74112142D01*
X159391952Y-74159761D01*
X159963380Y-73112142D02*
X159915761Y-73207380D01*
X159868142Y-73255000D01*
X159772904Y-73302619D01*
X159487190Y-73302619D01*
X159391952Y-73255000D01*
X159344333Y-73207380D01*
X159296714Y-73112142D01*
X159296714Y-72969285D01*
X159344333Y-72874047D01*
X159391952Y-72826428D01*
X159487190Y-72778809D01*
X159772904Y-72778809D01*
X159868142Y-72826428D01*
X159915761Y-72874047D01*
X159963380Y-72969285D01*
X159963380Y-73112142D01*
X159296714Y-72493095D02*
X159296714Y-72112142D01*
X158963380Y-72350238D02*
X159820523Y-72350238D01*
X159915761Y-72302619D01*
X159963380Y-72207380D01*
X159963380Y-72112142D01*
X159296714Y-71921666D02*
X159296714Y-71540714D01*
X158963380Y-71778809D02*
X159820523Y-71778809D01*
X159915761Y-71731190D01*
X159963380Y-71635952D01*
X159963380Y-71540714D01*
X159963380Y-71207380D02*
X158963380Y-71207380D01*
X159582428Y-71112142D02*
X159963380Y-70826428D01*
X159296714Y-70826428D02*
X159677666Y-71207380D01*
X159296714Y-70493095D02*
X159963380Y-70255000D01*
X159296714Y-70016904D02*
X159963380Y-70255000D01*
X160201476Y-70350238D01*
X160249095Y-70397857D01*
X160296714Y-70493095D01*
X160058619Y-69874047D02*
X160058619Y-69112142D01*
X158963380Y-68397857D02*
X158963380Y-68874047D01*
X159439571Y-68921666D01*
X159391952Y-68874047D01*
X159344333Y-68778809D01*
X159344333Y-68540714D01*
X159391952Y-68445476D01*
X159439571Y-68397857D01*
X159534809Y-68350238D01*
X159772904Y-68350238D01*
X159868142Y-68397857D01*
X159915761Y-68445476D01*
X159963380Y-68540714D01*
X159963380Y-68778809D01*
X159915761Y-68874047D01*
X159868142Y-68921666D01*
X159677666Y-67969285D02*
X159677666Y-67493095D01*
X159963380Y-68064523D02*
X158963380Y-67731190D01*
X159963380Y-67397857D01*
X154843380Y-78366904D02*
X153843380Y-78366904D01*
X154843380Y-77795476D02*
X154271952Y-78224047D01*
X153843380Y-77795476D02*
X154414809Y-78366904D01*
X157043380Y-71923095D02*
X156043380Y-71923095D01*
X156043380Y-71685000D01*
X156091000Y-71542142D01*
X156186238Y-71446904D01*
X156281476Y-71399285D01*
X156471952Y-71351666D01*
X156614809Y-71351666D01*
X156805285Y-71399285D01*
X156900523Y-71446904D01*
X156995761Y-71542142D01*
X157043380Y-71685000D01*
X157043380Y-71923095D01*
X156043380Y-71018333D02*
X156043380Y-70399285D01*
X156424333Y-70732619D01*
X156424333Y-70589761D01*
X156471952Y-70494523D01*
X156519571Y-70446904D01*
X156614809Y-70399285D01*
X156852904Y-70399285D01*
X156948142Y-70446904D01*
X156995761Y-70494523D01*
X157043380Y-70589761D01*
X157043380Y-70875476D01*
X156995761Y-70970714D01*
X156948142Y-71018333D01*
X165333333Y-126428571D02*
X165476190Y-126476190D01*
X165523809Y-126523809D01*
X165571428Y-126619047D01*
X165571428Y-126761904D01*
X165523809Y-126857142D01*
X165476190Y-126904761D01*
X165380952Y-126952380D01*
X165000000Y-126952380D01*
X165000000Y-125952380D01*
X165333333Y-125952380D01*
X165428571Y-126000000D01*
X165476190Y-126047619D01*
X165523809Y-126142857D01*
X165523809Y-126238095D01*
X165476190Y-126333333D01*
X165428571Y-126380952D01*
X165333333Y-126428571D01*
X165000000Y-126428571D01*
X166428571Y-126952380D02*
X166428571Y-126428571D01*
X166380952Y-126333333D01*
X166285714Y-126285714D01*
X166095238Y-126285714D01*
X166000000Y-126333333D01*
X166428571Y-126904761D02*
X166333333Y-126952380D01*
X166095238Y-126952380D01*
X166000000Y-126904761D01*
X165952380Y-126809523D01*
X165952380Y-126714285D01*
X166000000Y-126619047D01*
X166095238Y-126571428D01*
X166333333Y-126571428D01*
X166428571Y-126523809D01*
X166904761Y-126952380D02*
X166904761Y-126285714D01*
X166904761Y-126476190D02*
X166952380Y-126380952D01*
X167000000Y-126333333D01*
X167095238Y-126285714D01*
X167190476Y-126285714D01*
X167523809Y-126952380D02*
X167523809Y-126285714D01*
X167523809Y-126476190D02*
X167571428Y-126380952D01*
X167619047Y-126333333D01*
X167714285Y-126285714D01*
X167809523Y-126285714D01*
X168523809Y-126904761D02*
X168428571Y-126952380D01*
X168238095Y-126952380D01*
X168142857Y-126904761D01*
X168095238Y-126809523D01*
X168095238Y-126428571D01*
X168142857Y-126333333D01*
X168238095Y-126285714D01*
X168428571Y-126285714D01*
X168523809Y-126333333D01*
X168571428Y-126428571D01*
X168571428Y-126523809D01*
X168095238Y-126619047D01*
X169142857Y-126952380D02*
X169047619Y-126904761D01*
X169000000Y-126809523D01*
X169000000Y-125952380D01*
X169285714Y-127047619D02*
X170047619Y-127047619D01*
X170571428Y-125952380D02*
X170571428Y-126666666D01*
X170523809Y-126809523D01*
X170428571Y-126904761D01*
X170285714Y-126952380D01*
X170190476Y-126952380D01*
X171476190Y-126952380D02*
X171476190Y-126428571D01*
X171428571Y-126333333D01*
X171333333Y-126285714D01*
X171142857Y-126285714D01*
X171047619Y-126333333D01*
X171476190Y-126904761D02*
X171380952Y-126952380D01*
X171142857Y-126952380D01*
X171047619Y-126904761D01*
X171000000Y-126809523D01*
X171000000Y-126714285D01*
X171047619Y-126619047D01*
X171142857Y-126571428D01*
X171380952Y-126571428D01*
X171476190Y-126523809D01*
X172380952Y-126904761D02*
X172285714Y-126952380D01*
X172095238Y-126952380D01*
X172000000Y-126904761D01*
X171952380Y-126857142D01*
X171904761Y-126761904D01*
X171904761Y-126476190D01*
X171952380Y-126380952D01*
X172000000Y-126333333D01*
X172095238Y-126285714D01*
X172285714Y-126285714D01*
X172380952Y-126333333D01*
X172809523Y-126952380D02*
X172809523Y-125952380D01*
X172904761Y-126571428D02*
X173190476Y-126952380D01*
X173190476Y-126285714D02*
X172809523Y-126666666D01*
X173380952Y-127047619D02*
X174142857Y-127047619D01*
X174380952Y-126952380D02*
X174380952Y-125952380D01*
X174714285Y-126666666D01*
X175047619Y-125952380D01*
X175047619Y-126952380D01*
X175666666Y-126952380D02*
X175571428Y-126904761D01*
X175523809Y-126857142D01*
X175476190Y-126761904D01*
X175476190Y-126476190D01*
X175523809Y-126380952D01*
X175571428Y-126333333D01*
X175666666Y-126285714D01*
X175809523Y-126285714D01*
X175904761Y-126333333D01*
X175952380Y-126380952D01*
X176000000Y-126476190D01*
X176000000Y-126761904D01*
X175952380Y-126857142D01*
X175904761Y-126904761D01*
X175809523Y-126952380D01*
X175666666Y-126952380D01*
X176857142Y-126285714D02*
X176857142Y-126952380D01*
X176428571Y-126285714D02*
X176428571Y-126809523D01*
X176476190Y-126904761D01*
X176571428Y-126952380D01*
X176714285Y-126952380D01*
X176809523Y-126904761D01*
X176857142Y-126857142D01*
X177333333Y-126285714D02*
X177333333Y-126952380D01*
X177333333Y-126380952D02*
X177380952Y-126333333D01*
X177476190Y-126285714D01*
X177619047Y-126285714D01*
X177714285Y-126333333D01*
X177761904Y-126428571D01*
X177761904Y-126952380D01*
X178095238Y-126285714D02*
X178476190Y-126285714D01*
X178238095Y-125952380D02*
X178238095Y-126809523D01*
X178285714Y-126904761D01*
X178380952Y-126952380D01*
X178476190Y-126952380D01*
X178809523Y-126952380D02*
X178809523Y-126285714D01*
X178809523Y-125952380D02*
X178761904Y-126000000D01*
X178809523Y-126047619D01*
X178857142Y-126000000D01*
X178809523Y-125952380D01*
X178809523Y-126047619D01*
X179285714Y-126285714D02*
X179285714Y-126952380D01*
X179285714Y-126380952D02*
X179333333Y-126333333D01*
X179428571Y-126285714D01*
X179571428Y-126285714D01*
X179666666Y-126333333D01*
X179714285Y-126428571D01*
X179714285Y-126952380D01*
X180619047Y-126285714D02*
X180619047Y-127095238D01*
X180571428Y-127190476D01*
X180523809Y-127238095D01*
X180428571Y-127285714D01*
X180285714Y-127285714D01*
X180190476Y-127238095D01*
X180619047Y-126904761D02*
X180523809Y-126952380D01*
X180333333Y-126952380D01*
X180238095Y-126904761D01*
X180190476Y-126857142D01*
X180142857Y-126761904D01*
X180142857Y-126476190D01*
X180190476Y-126380952D01*
X180238095Y-126333333D01*
X180333333Y-126285714D01*
X180523809Y-126285714D01*
X180619047Y-126333333D01*
X181095238Y-126952380D02*
X181095238Y-125952380D01*
X181476190Y-125952380D01*
X181571428Y-126000000D01*
X181619047Y-126047619D01*
X181666666Y-126142857D01*
X181666666Y-126285714D01*
X181619047Y-126380952D01*
X181571428Y-126428571D01*
X181476190Y-126476190D01*
X181095238Y-126476190D01*
X182095238Y-126952380D02*
X182095238Y-126285714D01*
X182095238Y-125952380D02*
X182047619Y-126000000D01*
X182095238Y-126047619D01*
X182142857Y-126000000D01*
X182095238Y-125952380D01*
X182095238Y-126047619D01*
X182571428Y-126285714D02*
X182571428Y-126952380D01*
X182571428Y-126380952D02*
X182619047Y-126333333D01*
X182714285Y-126285714D01*
X182857142Y-126285714D01*
X182952380Y-126333333D01*
X183000000Y-126428571D01*
X183000000Y-126952380D01*
X170466666Y-123402380D02*
X170466666Y-124116666D01*
X170419047Y-124259523D01*
X170323809Y-124354761D01*
X170180952Y-124402380D01*
X170085714Y-124402380D01*
X171466666Y-124402380D02*
X170895238Y-124402380D01*
X171180952Y-124402380D02*
X171180952Y-123402380D01*
X171085714Y-123545238D01*
X170990476Y-123640476D01*
X170895238Y-123688095D01*
X114607142Y-134852380D02*
X114607142Y-133852380D01*
X114988095Y-133852380D01*
X115083333Y-133900000D01*
X115130952Y-133947619D01*
X115178571Y-134042857D01*
X115178571Y-134185714D01*
X115130952Y-134280952D01*
X115083333Y-134328571D01*
X114988095Y-134376190D01*
X114607142Y-134376190D01*
X115988095Y-134804761D02*
X115892857Y-134852380D01*
X115702380Y-134852380D01*
X115607142Y-134804761D01*
X115559523Y-134709523D01*
X115559523Y-134328571D01*
X115607142Y-134233333D01*
X115702380Y-134185714D01*
X115892857Y-134185714D01*
X115988095Y-134233333D01*
X116035714Y-134328571D01*
X116035714Y-134423809D01*
X115559523Y-134519047D01*
X116607142Y-134852380D02*
X116511904Y-134804761D01*
X116464285Y-134709523D01*
X116464285Y-133852380D01*
X116845238Y-134185714D02*
X117226190Y-134185714D01*
X116988095Y-133852380D02*
X116988095Y-134709523D01*
X117035714Y-134804761D01*
X117130952Y-134852380D01*
X117226190Y-134852380D01*
X117511904Y-134804761D02*
X117654761Y-134852380D01*
X117892857Y-134852380D01*
X117988095Y-134804761D01*
X118035714Y-134757142D01*
X118083333Y-134661904D01*
X118083333Y-134566666D01*
X118035714Y-134471428D01*
X117988095Y-134423809D01*
X117892857Y-134376190D01*
X117702380Y-134328571D01*
X117607142Y-134280952D01*
X117559523Y-134233333D01*
X117511904Y-134138095D01*
X117511904Y-134042857D01*
X117559523Y-133947619D01*
X117607142Y-133900000D01*
X117702380Y-133852380D01*
X117940476Y-133852380D01*
X118083333Y-133900000D01*
X119035714Y-134852380D02*
X118464285Y-134852380D01*
X118750000Y-134852380D02*
X118750000Y-133852380D01*
X118654761Y-133995238D01*
X118559523Y-134090476D01*
X118464285Y-134138095D01*
X119416666Y-134804761D02*
X119559523Y-134852380D01*
X119797619Y-134852380D01*
X119892857Y-134804761D01*
X119940476Y-134757142D01*
X119988095Y-134661904D01*
X119988095Y-134566666D01*
X119940476Y-134471428D01*
X119892857Y-134423809D01*
X119797619Y-134376190D01*
X119607142Y-134328571D01*
X119511904Y-134280952D01*
X119464285Y-134233333D01*
X119416666Y-134138095D01*
X119416666Y-134042857D01*
X119464285Y-133947619D01*
X119511904Y-133900000D01*
X119607142Y-133852380D01*
X119845238Y-133852380D01*
X119988095Y-133900000D01*
X120369047Y-133947619D02*
X120416666Y-133900000D01*
X120511904Y-133852380D01*
X120750000Y-133852380D01*
X120845238Y-133900000D01*
X120892857Y-133947619D01*
X120940476Y-134042857D01*
X120940476Y-134138095D01*
X120892857Y-134280952D01*
X120321428Y-134852380D01*
X120940476Y-134852380D01*
X117011904Y-132952380D02*
X117011904Y-131952380D01*
X117392857Y-131952380D01*
X117488095Y-132000000D01*
X117535714Y-132047619D01*
X117583333Y-132142857D01*
X117583333Y-132285714D01*
X117535714Y-132380952D01*
X117488095Y-132428571D01*
X117392857Y-132476190D01*
X117011904Y-132476190D01*
X118535714Y-132952380D02*
X117964285Y-132952380D01*
X118250000Y-132952380D02*
X118250000Y-131952380D01*
X118154761Y-132095238D01*
X118059523Y-132190476D01*
X117964285Y-132238095D01*
X104294571Y-122884000D02*
X104294571Y-123217333D01*
X104818380Y-123217333D02*
X103818380Y-123217333D01*
X103818380Y-122741142D01*
X104818380Y-121931619D02*
X104294571Y-121931619D01*
X104199333Y-121979238D01*
X104151714Y-122074476D01*
X104151714Y-122264952D01*
X104199333Y-122360190D01*
X104770761Y-121931619D02*
X104818380Y-122026857D01*
X104818380Y-122264952D01*
X104770761Y-122360190D01*
X104675523Y-122407809D01*
X104580285Y-122407809D01*
X104485047Y-122360190D01*
X104437428Y-122264952D01*
X104437428Y-122026857D01*
X104389809Y-121931619D01*
X104151714Y-121455428D02*
X104818380Y-121455428D01*
X104246952Y-121455428D02*
X104199333Y-121407809D01*
X104151714Y-121312571D01*
X104151714Y-121169714D01*
X104199333Y-121074476D01*
X104294571Y-121026857D01*
X104818380Y-121026857D01*
X104437428Y-120550666D02*
X104437428Y-119788761D01*
X104818380Y-120169714D02*
X104056476Y-120169714D01*
X104437428Y-119312571D02*
X104437428Y-118550666D01*
X106718380Y-121622095D02*
X105718380Y-121622095D01*
X105718380Y-121241142D01*
X105766000Y-121145904D01*
X105813619Y-121098285D01*
X105908857Y-121050666D01*
X106051714Y-121050666D01*
X106146952Y-121098285D01*
X106194571Y-121145904D01*
X106242190Y-121241142D01*
X106242190Y-121622095D01*
X105718380Y-120717333D02*
X105718380Y-120098285D01*
X106099333Y-120431619D01*
X106099333Y-120288761D01*
X106146952Y-120193523D01*
X106194571Y-120145904D01*
X106289809Y-120098285D01*
X106527904Y-120098285D01*
X106623142Y-120145904D01*
X106670761Y-120193523D01*
X106718380Y-120288761D01*
X106718380Y-120574476D01*
X106670761Y-120669714D01*
X106623142Y-120717333D01*
X103818380Y-99838095D02*
X103818380Y-99266666D01*
X104818380Y-99552380D02*
X103818380Y-99552380D01*
X104818380Y-98933333D02*
X103818380Y-98933333D01*
X104818380Y-98504761D02*
X104294571Y-98504761D01*
X104199333Y-98552380D01*
X104151714Y-98647619D01*
X104151714Y-98790476D01*
X104199333Y-98885714D01*
X104246952Y-98933333D01*
X104770761Y-97647619D02*
X104818380Y-97742857D01*
X104818380Y-97933333D01*
X104770761Y-98028571D01*
X104675523Y-98076190D01*
X104294571Y-98076190D01*
X104199333Y-98028571D01*
X104151714Y-97933333D01*
X104151714Y-97742857D01*
X104199333Y-97647619D01*
X104294571Y-97600000D01*
X104389809Y-97600000D01*
X104485047Y-98076190D01*
X104818380Y-97171428D02*
X104151714Y-97171428D01*
X104342190Y-97171428D02*
X104246952Y-97123809D01*
X104199333Y-97076190D01*
X104151714Y-96980952D01*
X104151714Y-96885714D01*
X104818380Y-96552380D02*
X104151714Y-96552380D01*
X104246952Y-96552380D02*
X104199333Y-96504761D01*
X104151714Y-96409523D01*
X104151714Y-96266666D01*
X104199333Y-96171428D01*
X104294571Y-96123809D01*
X104818380Y-96123809D01*
X104294571Y-96123809D02*
X104199333Y-96076190D01*
X104151714Y-95980952D01*
X104151714Y-95838095D01*
X104199333Y-95742857D01*
X104294571Y-95695238D01*
X104818380Y-95695238D01*
X104437428Y-94457142D02*
X104437428Y-93695238D01*
X104818380Y-94076190D02*
X104056476Y-94076190D01*
X104437428Y-93219047D02*
X104437428Y-92457142D01*
X104770761Y-92028571D02*
X104818380Y-91885714D01*
X104818380Y-91647619D01*
X104770761Y-91552380D01*
X104723142Y-91504761D01*
X104627904Y-91457142D01*
X104532666Y-91457142D01*
X104437428Y-91504761D01*
X104389809Y-91552380D01*
X104342190Y-91647619D01*
X104294571Y-91838095D01*
X104246952Y-91933333D01*
X104199333Y-91980952D01*
X104104095Y-92028571D01*
X104008857Y-92028571D01*
X103913619Y-91980952D01*
X103866000Y-91933333D01*
X103818380Y-91838095D01*
X103818380Y-91600000D01*
X103866000Y-91457142D01*
X106718380Y-96338095D02*
X105718380Y-96338095D01*
X105718380Y-95957142D01*
X105766000Y-95861904D01*
X105813619Y-95814285D01*
X105908857Y-95766666D01*
X106051714Y-95766666D01*
X106146952Y-95814285D01*
X106194571Y-95861904D01*
X106242190Y-95957142D01*
X106242190Y-96338095D01*
X106051714Y-94909523D02*
X106718380Y-94909523D01*
X105670761Y-95147619D02*
X106385047Y-95385714D01*
X106385047Y-94766666D01*
X105052380Y-63850000D02*
X104052380Y-63850000D01*
X104528571Y-63850000D02*
X104528571Y-63278571D01*
X105052380Y-63278571D02*
X104052380Y-63278571D01*
X105052380Y-62802380D02*
X104052380Y-62802380D01*
X104052380Y-62421428D01*
X104100000Y-62326190D01*
X104147619Y-62278571D01*
X104242857Y-62230952D01*
X104385714Y-62230952D01*
X104480952Y-62278571D01*
X104528571Y-62326190D01*
X104576190Y-62421428D01*
X104576190Y-62802380D01*
X105052380Y-61278571D02*
X105052380Y-61850000D01*
X105052380Y-61564285D02*
X104052380Y-61564285D01*
X104195238Y-61659523D01*
X104290476Y-61754761D01*
X104338095Y-61850000D01*
X104671428Y-60850000D02*
X104671428Y-60088095D01*
X105052380Y-60469047D02*
X104290476Y-60469047D01*
X104671428Y-59611904D02*
X104671428Y-58850000D01*
X106952380Y-62088095D02*
X105952380Y-62088095D01*
X105952380Y-61707142D01*
X106000000Y-61611904D01*
X106047619Y-61564285D01*
X106142857Y-61516666D01*
X106285714Y-61516666D01*
X106380952Y-61564285D01*
X106428571Y-61611904D01*
X106476190Y-61707142D01*
X106476190Y-62088095D01*
X105952380Y-60611904D02*
X105952380Y-61088095D01*
X106428571Y-61135714D01*
X106380952Y-61088095D01*
X106333333Y-60992857D01*
X106333333Y-60754761D01*
X106380952Y-60659523D01*
X106428571Y-60611904D01*
X106523809Y-60564285D01*
X106761904Y-60564285D01*
X106857142Y-60611904D01*
X106904761Y-60659523D01*
X106952380Y-60754761D01*
X106952380Y-60992857D01*
X106904761Y-61088095D01*
X106857142Y-61135714D01*
X115350000Y-49752380D02*
X115350000Y-48752380D01*
X115350000Y-49228571D02*
X115921428Y-49228571D01*
X115921428Y-49752380D02*
X115921428Y-48752380D01*
X116397619Y-49752380D02*
X116397619Y-48752380D01*
X116778571Y-48752380D01*
X116873809Y-48800000D01*
X116921428Y-48847619D01*
X116969047Y-48942857D01*
X116969047Y-49085714D01*
X116921428Y-49180952D01*
X116873809Y-49228571D01*
X116778571Y-49276190D01*
X116397619Y-49276190D01*
X117350000Y-48847619D02*
X117397619Y-48800000D01*
X117492857Y-48752380D01*
X117730952Y-48752380D01*
X117826190Y-48800000D01*
X117873809Y-48847619D01*
X117921428Y-48942857D01*
X117921428Y-49038095D01*
X117873809Y-49180952D01*
X117302380Y-49752380D01*
X117921428Y-49752380D01*
X118350000Y-49371428D02*
X119111904Y-49371428D01*
X118730952Y-49752380D02*
X118730952Y-48990476D01*
X119588095Y-49371428D02*
X120350000Y-49371428D01*
X117111904Y-51652380D02*
X117111904Y-50652380D01*
X117492857Y-50652380D01*
X117588095Y-50700000D01*
X117635714Y-50747619D01*
X117683333Y-50842857D01*
X117683333Y-50985714D01*
X117635714Y-51080952D01*
X117588095Y-51128571D01*
X117492857Y-51176190D01*
X117111904Y-51176190D01*
X118540476Y-50652380D02*
X118350000Y-50652380D01*
X118254761Y-50700000D01*
X118207142Y-50747619D01*
X118111904Y-50890476D01*
X118064285Y-51080952D01*
X118064285Y-51461904D01*
X118111904Y-51557142D01*
X118159523Y-51604761D01*
X118254761Y-51652380D01*
X118445238Y-51652380D01*
X118540476Y-51604761D01*
X118588095Y-51557142D01*
X118635714Y-51461904D01*
X118635714Y-51223809D01*
X118588095Y-51128571D01*
X118540476Y-51080952D01*
X118445238Y-51033333D01*
X118254761Y-51033333D01*
X118159523Y-51080952D01*
X118111904Y-51128571D01*
X118064285Y-51223809D01*
X104945380Y-74572142D02*
X104469190Y-74905476D01*
X104945380Y-75143571D02*
X103945380Y-75143571D01*
X103945380Y-74762619D01*
X103993000Y-74667380D01*
X104040619Y-74619761D01*
X104135857Y-74572142D01*
X104278714Y-74572142D01*
X104373952Y-74619761D01*
X104421571Y-74667380D01*
X104469190Y-74762619D01*
X104469190Y-75143571D01*
X104945380Y-74143571D02*
X104278714Y-74143571D01*
X103945380Y-74143571D02*
X103993000Y-74191190D01*
X104040619Y-74143571D01*
X103993000Y-74095952D01*
X103945380Y-74143571D01*
X104040619Y-74143571D01*
X104278714Y-73667380D02*
X104945380Y-73667380D01*
X104373952Y-73667380D02*
X104326333Y-73619761D01*
X104278714Y-73524523D01*
X104278714Y-73381666D01*
X104326333Y-73286428D01*
X104421571Y-73238809D01*
X104945380Y-73238809D01*
X104278714Y-72334047D02*
X105088238Y-72334047D01*
X105183476Y-72381666D01*
X105231095Y-72429285D01*
X105278714Y-72524523D01*
X105278714Y-72667380D01*
X105231095Y-72762619D01*
X104897761Y-72334047D02*
X104945380Y-72429285D01*
X104945380Y-72619761D01*
X104897761Y-72715000D01*
X104850142Y-72762619D01*
X104754904Y-72810238D01*
X104469190Y-72810238D01*
X104373952Y-72762619D01*
X104326333Y-72715000D01*
X104278714Y-72619761D01*
X104278714Y-72429285D01*
X104326333Y-72334047D01*
X104564428Y-71095952D02*
X104564428Y-70334047D01*
X104945380Y-70715000D02*
X104183476Y-70715000D01*
X104564428Y-69857857D02*
X104564428Y-69095952D01*
X104897761Y-68667380D02*
X104945380Y-68572142D01*
X104945380Y-68381666D01*
X104897761Y-68286428D01*
X104802523Y-68238809D01*
X104754904Y-68238809D01*
X104659666Y-68286428D01*
X104612047Y-68381666D01*
X104612047Y-68524523D01*
X104564428Y-68619761D01*
X104469190Y-68667380D01*
X104421571Y-68667380D01*
X104326333Y-68619761D01*
X104278714Y-68524523D01*
X104278714Y-68381666D01*
X104326333Y-68286428D01*
X106845380Y-72453095D02*
X105845380Y-72453095D01*
X105845380Y-72072142D01*
X105893000Y-71976904D01*
X105940619Y-71929285D01*
X106035857Y-71881666D01*
X106178714Y-71881666D01*
X106273952Y-71929285D01*
X106321571Y-71976904D01*
X106369190Y-72072142D01*
X106369190Y-72453095D01*
X106273952Y-71310238D02*
X106226333Y-71405476D01*
X106178714Y-71453095D01*
X106083476Y-71500714D01*
X106035857Y-71500714D01*
X105940619Y-71453095D01*
X105893000Y-71405476D01*
X105845380Y-71310238D01*
X105845380Y-71119761D01*
X105893000Y-71024523D01*
X105940619Y-70976904D01*
X106035857Y-70929285D01*
X106083476Y-70929285D01*
X106178714Y-70976904D01*
X106226333Y-71024523D01*
X106273952Y-71119761D01*
X106273952Y-71310238D01*
X106321571Y-71405476D01*
X106369190Y-71453095D01*
X106464428Y-71500714D01*
X106654904Y-71500714D01*
X106750142Y-71453095D01*
X106797761Y-71405476D01*
X106845380Y-71310238D01*
X106845380Y-71119761D01*
X106797761Y-71024523D01*
X106750142Y-70976904D01*
X106654904Y-70929285D01*
X106464428Y-70929285D01*
X106369190Y-70976904D01*
X106321571Y-71024523D01*
X106273952Y-71119761D01*
X120542380Y-124864761D02*
X120542380Y-125436190D01*
X120542380Y-125150476D02*
X119542380Y-125150476D01*
X119685238Y-125245714D01*
X119780476Y-125340952D01*
X119828095Y-125436190D01*
X120256666Y-124483809D02*
X120256666Y-124007619D01*
X120542380Y-124579047D02*
X119542380Y-124245714D01*
X120542380Y-123912380D01*
X120637619Y-123817142D02*
X120637619Y-123055238D01*
X120542380Y-122817142D02*
X119542380Y-122817142D01*
X120542380Y-122245714D01*
X119542380Y-122245714D01*
X120542380Y-121769523D02*
X119542380Y-121769523D01*
X119542380Y-121388571D01*
X119590000Y-121293333D01*
X119637619Y-121245714D01*
X119732857Y-121198095D01*
X119875714Y-121198095D01*
X119970952Y-121245714D01*
X120018571Y-121293333D01*
X120066190Y-121388571D01*
X120066190Y-121769523D01*
X120542380Y-120769523D02*
X119542380Y-120769523D01*
X120542380Y-120198095D01*
X119542380Y-120198095D01*
X120637619Y-119960000D02*
X120637619Y-119198095D01*
X120018571Y-118960000D02*
X120018571Y-118626666D01*
X120542380Y-118483809D02*
X120542380Y-118960000D01*
X119542380Y-118960000D01*
X119542380Y-118483809D01*
X120018571Y-117721904D02*
X120066190Y-117579047D01*
X120113809Y-117531428D01*
X120209047Y-117483809D01*
X120351904Y-117483809D01*
X120447142Y-117531428D01*
X120494761Y-117579047D01*
X120542380Y-117674285D01*
X120542380Y-118055238D01*
X119542380Y-118055238D01*
X119542380Y-117721904D01*
X119590000Y-117626666D01*
X119637619Y-117579047D01*
X119732857Y-117531428D01*
X119828095Y-117531428D01*
X119923333Y-117579047D01*
X119970952Y-117626666D01*
X120018571Y-117721904D01*
X120018571Y-118055238D01*
X120447142Y-116483809D02*
X120494761Y-116531428D01*
X120542380Y-116674285D01*
X120542380Y-116769523D01*
X120494761Y-116912380D01*
X120399523Y-117007619D01*
X120304285Y-117055238D01*
X120113809Y-117102857D01*
X119970952Y-117102857D01*
X119780476Y-117055238D01*
X119685238Y-117007619D01*
X119590000Y-116912380D01*
X119542380Y-116769523D01*
X119542380Y-116674285D01*
X119590000Y-116531428D01*
X119637619Y-116483809D01*
X114287619Y-121055238D02*
X114240000Y-121150476D01*
X114144761Y-121245714D01*
X114001904Y-121388571D01*
X113954285Y-121483809D01*
X113954285Y-121579047D01*
X114192380Y-121531428D02*
X114144761Y-121626666D01*
X114049523Y-121721904D01*
X113859047Y-121769523D01*
X113525714Y-121769523D01*
X113335238Y-121721904D01*
X113240000Y-121626666D01*
X113192380Y-121531428D01*
X113192380Y-121340952D01*
X113240000Y-121245714D01*
X113335238Y-121150476D01*
X113525714Y-121102857D01*
X113859047Y-121102857D01*
X114049523Y-121150476D01*
X114144761Y-121245714D01*
X114192380Y-121340952D01*
X114192380Y-121531428D01*
X114192380Y-120150476D02*
X114192380Y-120721904D01*
X114192380Y-120436190D02*
X113192380Y-120436190D01*
X113335238Y-120531428D01*
X113430476Y-120626666D01*
X113478095Y-120721904D01*
X119842380Y-72990952D02*
X119842380Y-73562380D01*
X119842380Y-73276666D02*
X118842380Y-73276666D01*
X118985238Y-73371904D01*
X119080476Y-73467142D01*
X119128095Y-73562380D01*
X119556666Y-72610000D02*
X119556666Y-72133809D01*
X119842380Y-72705238D02*
X118842380Y-72371904D01*
X119842380Y-72038571D01*
X119461428Y-71705238D02*
X119461428Y-70943333D01*
X119842380Y-70467142D02*
X118842380Y-70467142D01*
X119842380Y-69895714D01*
X118842380Y-69895714D01*
X119842380Y-69419523D02*
X118842380Y-69419523D01*
X118842380Y-69038571D01*
X118890000Y-68943333D01*
X118937619Y-68895714D01*
X119032857Y-68848095D01*
X119175714Y-68848095D01*
X119270952Y-68895714D01*
X119318571Y-68943333D01*
X119366190Y-69038571D01*
X119366190Y-69419523D01*
X119842380Y-68419523D02*
X118842380Y-68419523D01*
X119842380Y-67848095D01*
X118842380Y-67848095D01*
X119461428Y-67371904D02*
X119461428Y-66610000D01*
X119318571Y-66133809D02*
X119318571Y-65800476D01*
X119842380Y-65657619D02*
X119842380Y-66133809D01*
X118842380Y-66133809D01*
X118842380Y-65657619D01*
X119318571Y-64895714D02*
X119366190Y-64752857D01*
X119413809Y-64705238D01*
X119509047Y-64657619D01*
X119651904Y-64657619D01*
X119747142Y-64705238D01*
X119794761Y-64752857D01*
X119842380Y-64848095D01*
X119842380Y-65229047D01*
X118842380Y-65229047D01*
X118842380Y-64895714D01*
X118890000Y-64800476D01*
X118937619Y-64752857D01*
X119032857Y-64705238D01*
X119128095Y-64705238D01*
X119223333Y-64752857D01*
X119270952Y-64800476D01*
X119318571Y-64895714D01*
X119318571Y-65229047D01*
X119747142Y-63657619D02*
X119794761Y-63705238D01*
X119842380Y-63848095D01*
X119842380Y-63943333D01*
X119794761Y-64086190D01*
X119699523Y-64181428D01*
X119604285Y-64229047D01*
X119413809Y-64276666D01*
X119270952Y-64276666D01*
X119080476Y-64229047D01*
X118985238Y-64181428D01*
X118890000Y-64086190D01*
X118842380Y-63943333D01*
X118842380Y-63848095D01*
X118890000Y-63705238D01*
X118937619Y-63657619D01*
X113587619Y-68705238D02*
X113540000Y-68800476D01*
X113444761Y-68895714D01*
X113301904Y-69038571D01*
X113254285Y-69133809D01*
X113254285Y-69229047D01*
X113492380Y-69181428D02*
X113444761Y-69276666D01*
X113349523Y-69371904D01*
X113159047Y-69419523D01*
X112825714Y-69419523D01*
X112635238Y-69371904D01*
X112540000Y-69276666D01*
X112492380Y-69181428D01*
X112492380Y-68990952D01*
X112540000Y-68895714D01*
X112635238Y-68800476D01*
X112825714Y-68752857D01*
X113159047Y-68752857D01*
X113349523Y-68800476D01*
X113444761Y-68895714D01*
X113492380Y-68990952D01*
X113492380Y-69181428D01*
X112587619Y-68371904D02*
X112540000Y-68324285D01*
X112492380Y-68229047D01*
X112492380Y-67990952D01*
X112540000Y-67895714D01*
X112587619Y-67848095D01*
X112682857Y-67800476D01*
X112778095Y-67800476D01*
X112920952Y-67848095D01*
X113492380Y-68419523D01*
X113492380Y-67800476D01*
X113985238Y-63942380D02*
X113413809Y-63942380D01*
X113699523Y-63942380D02*
X113699523Y-62942380D01*
X113604285Y-63085238D01*
X113509047Y-63180476D01*
X113413809Y-63228095D01*
X114366190Y-63656666D02*
X114842380Y-63656666D01*
X114270952Y-63942380D02*
X114604285Y-62942380D01*
X114937619Y-63942380D01*
X115032857Y-64037619D02*
X115794761Y-64037619D01*
X116032857Y-63942380D02*
X116032857Y-62942380D01*
X116604285Y-63942380D01*
X116604285Y-62942380D01*
X117080476Y-63942380D02*
X117080476Y-62942380D01*
X117461428Y-62942380D01*
X117556666Y-62990000D01*
X117604285Y-63037619D01*
X117651904Y-63132857D01*
X117651904Y-63275714D01*
X117604285Y-63370952D01*
X117556666Y-63418571D01*
X117461428Y-63466190D01*
X117080476Y-63466190D01*
X118080476Y-63942380D02*
X118080476Y-62942380D01*
X118651904Y-63942380D01*
X118651904Y-62942380D01*
X118890000Y-64037619D02*
X119651904Y-64037619D01*
X119890000Y-63418571D02*
X120223333Y-63418571D01*
X120366190Y-63942380D02*
X119890000Y-63942380D01*
X119890000Y-62942380D01*
X120366190Y-62942380D01*
X121128095Y-63418571D02*
X121270952Y-63466190D01*
X121318571Y-63513809D01*
X121366190Y-63609047D01*
X121366190Y-63751904D01*
X121318571Y-63847142D01*
X121270952Y-63894761D01*
X121175714Y-63942380D01*
X120794761Y-63942380D01*
X120794761Y-62942380D01*
X121128095Y-62942380D01*
X121223333Y-62990000D01*
X121270952Y-63037619D01*
X121318571Y-63132857D01*
X121318571Y-63228095D01*
X121270952Y-63323333D01*
X121223333Y-63370952D01*
X121128095Y-63418571D01*
X120794761Y-63418571D01*
X122366190Y-63847142D02*
X122318571Y-63894761D01*
X122175714Y-63942380D01*
X122080476Y-63942380D01*
X121937619Y-63894761D01*
X121842380Y-63799523D01*
X121794761Y-63704285D01*
X121747142Y-63513809D01*
X121747142Y-63370952D01*
X121794761Y-63180476D01*
X121842380Y-63085238D01*
X121937619Y-62990000D01*
X122080476Y-62942380D01*
X122175714Y-62942380D01*
X122318571Y-62990000D01*
X122366190Y-63037619D01*
X117794761Y-57687619D02*
X117699523Y-57640000D01*
X117604285Y-57544761D01*
X117461428Y-57401904D01*
X117366190Y-57354285D01*
X117270952Y-57354285D01*
X117318571Y-57592380D02*
X117223333Y-57544761D01*
X117128095Y-57449523D01*
X117080476Y-57259047D01*
X117080476Y-56925714D01*
X117128095Y-56735238D01*
X117223333Y-56640000D01*
X117318571Y-56592380D01*
X117509047Y-56592380D01*
X117604285Y-56640000D01*
X117699523Y-56735238D01*
X117747142Y-56925714D01*
X117747142Y-57259047D01*
X117699523Y-57449523D01*
X117604285Y-57544761D01*
X117509047Y-57592380D01*
X117318571Y-57592380D01*
X118080476Y-56592380D02*
X118699523Y-56592380D01*
X118366190Y-56973333D01*
X118509047Y-56973333D01*
X118604285Y-57020952D01*
X118651904Y-57068571D01*
X118699523Y-57163809D01*
X118699523Y-57401904D01*
X118651904Y-57497142D01*
X118604285Y-57544761D01*
X118509047Y-57592380D01*
X118223333Y-57592380D01*
X118128095Y-57544761D01*
X118080476Y-57497142D01*
X119242380Y-81544761D02*
X119242380Y-82116190D01*
X119242380Y-81830476D02*
X118242380Y-81830476D01*
X118385238Y-81925714D01*
X118480476Y-82020952D01*
X118528095Y-82116190D01*
X118956666Y-81163809D02*
X118956666Y-80687619D01*
X119242380Y-81259047D02*
X118242380Y-80925714D01*
X119242380Y-80592380D01*
X119337619Y-80497142D02*
X119337619Y-79735238D01*
X119242380Y-79497142D02*
X118242380Y-79497142D01*
X119242380Y-78925714D01*
X118242380Y-78925714D01*
X119242380Y-78449523D02*
X118242380Y-78449523D01*
X118242380Y-78068571D01*
X118290000Y-77973333D01*
X118337619Y-77925714D01*
X118432857Y-77878095D01*
X118575714Y-77878095D01*
X118670952Y-77925714D01*
X118718571Y-77973333D01*
X118766190Y-78068571D01*
X118766190Y-78449523D01*
X119242380Y-77449523D02*
X118242380Y-77449523D01*
X119242380Y-76878095D01*
X118242380Y-76878095D01*
X119337619Y-76640000D02*
X119337619Y-75878095D01*
X118718571Y-75640000D02*
X118718571Y-75306666D01*
X119242380Y-75163809D02*
X119242380Y-75640000D01*
X118242380Y-75640000D01*
X118242380Y-75163809D01*
X118718571Y-74401904D02*
X118766190Y-74259047D01*
X118813809Y-74211428D01*
X118909047Y-74163809D01*
X119051904Y-74163809D01*
X119147142Y-74211428D01*
X119194761Y-74259047D01*
X119242380Y-74354285D01*
X119242380Y-74735238D01*
X118242380Y-74735238D01*
X118242380Y-74401904D01*
X118290000Y-74306666D01*
X118337619Y-74259047D01*
X118432857Y-74211428D01*
X118528095Y-74211428D01*
X118623333Y-74259047D01*
X118670952Y-74306666D01*
X118718571Y-74401904D01*
X118718571Y-74735238D01*
X119147142Y-73163809D02*
X119194761Y-73211428D01*
X119242380Y-73354285D01*
X119242380Y-73449523D01*
X119194761Y-73592380D01*
X119099523Y-73687619D01*
X119004285Y-73735238D01*
X118813809Y-73782857D01*
X118670952Y-73782857D01*
X118480476Y-73735238D01*
X118385238Y-73687619D01*
X118290000Y-73592380D01*
X118242380Y-73449523D01*
X118242380Y-73354285D01*
X118290000Y-73211428D01*
X118337619Y-73163809D01*
X112987619Y-77735238D02*
X112940000Y-77830476D01*
X112844761Y-77925714D01*
X112701904Y-78068571D01*
X112654285Y-78163809D01*
X112654285Y-78259047D01*
X112892380Y-78211428D02*
X112844761Y-78306666D01*
X112749523Y-78401904D01*
X112559047Y-78449523D01*
X112225714Y-78449523D01*
X112035238Y-78401904D01*
X111940000Y-78306666D01*
X111892380Y-78211428D01*
X111892380Y-78020952D01*
X111940000Y-77925714D01*
X112035238Y-77830476D01*
X112225714Y-77782857D01*
X112559047Y-77782857D01*
X112749523Y-77830476D01*
X112844761Y-77925714D01*
X112892380Y-78020952D01*
X112892380Y-78211428D01*
X112225714Y-76925714D02*
X112892380Y-76925714D01*
X111844761Y-77163809D02*
X112559047Y-77401904D01*
X112559047Y-76782857D01*
X128357714Y-127079619D02*
X128405333Y-127032000D01*
X128500571Y-126984380D01*
X128738666Y-126984380D01*
X128833904Y-127032000D01*
X128881523Y-127079619D01*
X128929142Y-127174857D01*
X128929142Y-127270095D01*
X128881523Y-127412952D01*
X128310095Y-127984380D01*
X128929142Y-127984380D01*
X129548190Y-126984380D02*
X129643428Y-126984380D01*
X129738666Y-127032000D01*
X129786285Y-127079619D01*
X129833904Y-127174857D01*
X129881523Y-127365333D01*
X129881523Y-127603428D01*
X129833904Y-127793904D01*
X129786285Y-127889142D01*
X129738666Y-127936761D01*
X129643428Y-127984380D01*
X129548190Y-127984380D01*
X129452952Y-127936761D01*
X129405333Y-127889142D01*
X129357714Y-127793904D01*
X129310095Y-127603428D01*
X129310095Y-127365333D01*
X129357714Y-127174857D01*
X129405333Y-127079619D01*
X129452952Y-127032000D01*
X129548190Y-126984380D01*
X130214857Y-126984380D02*
X130452952Y-127984380D01*
X130643428Y-127270095D01*
X130833904Y-127984380D01*
X131072000Y-126984380D01*
X127793333Y-135022380D02*
X127460000Y-134546190D01*
X127221904Y-135022380D02*
X127221904Y-134022380D01*
X127602857Y-134022380D01*
X127698095Y-134070000D01*
X127745714Y-134117619D01*
X127793333Y-134212857D01*
X127793333Y-134355714D01*
X127745714Y-134450952D01*
X127698095Y-134498571D01*
X127602857Y-134546190D01*
X127221904Y-134546190D01*
X128745714Y-135022380D02*
X128174285Y-135022380D01*
X128460000Y-135022380D02*
X128460000Y-134022380D01*
X128364761Y-134165238D01*
X128269523Y-134260476D01*
X128174285Y-134308095D01*
X125497619Y-75638095D02*
X125450000Y-75590476D01*
X125402380Y-75495238D01*
X125402380Y-75257142D01*
X125450000Y-75161904D01*
X125497619Y-75114285D01*
X125592857Y-75066666D01*
X125688095Y-75066666D01*
X125830952Y-75114285D01*
X126402380Y-75685714D01*
X126402380Y-75066666D01*
X125402380Y-74733333D02*
X125402380Y-74066666D01*
X126402380Y-74495238D01*
X125402380Y-73495238D02*
X125402380Y-73400000D01*
X125450000Y-73304761D01*
X125497619Y-73257142D01*
X125592857Y-73209523D01*
X125783333Y-73161904D01*
X126021428Y-73161904D01*
X126211904Y-73209523D01*
X126307142Y-73257142D01*
X126354761Y-73304761D01*
X126402380Y-73400000D01*
X126402380Y-73495238D01*
X126354761Y-73590476D01*
X126307142Y-73638095D01*
X126211904Y-73685714D01*
X126021428Y-73733333D01*
X125783333Y-73733333D01*
X125592857Y-73685714D01*
X125497619Y-73638095D01*
X125450000Y-73590476D01*
X125402380Y-73495238D01*
X123152380Y-74566666D02*
X122676190Y-74900000D01*
X123152380Y-75138095D02*
X122152380Y-75138095D01*
X122152380Y-74757142D01*
X122200000Y-74661904D01*
X122247619Y-74614285D01*
X122342857Y-74566666D01*
X122485714Y-74566666D01*
X122580952Y-74614285D01*
X122628571Y-74661904D01*
X122676190Y-74757142D01*
X122676190Y-75138095D01*
X122247619Y-74185714D02*
X122200000Y-74138095D01*
X122152380Y-74042857D01*
X122152380Y-73804761D01*
X122200000Y-73709523D01*
X122247619Y-73661904D01*
X122342857Y-73614285D01*
X122438095Y-73614285D01*
X122580952Y-73661904D01*
X123152380Y-74233333D01*
X123152380Y-73614285D01*
X141561904Y-100897619D02*
X141609523Y-100850000D01*
X141704761Y-100802380D01*
X141942857Y-100802380D01*
X142038095Y-100850000D01*
X142085714Y-100897619D01*
X142133333Y-100992857D01*
X142133333Y-101088095D01*
X142085714Y-101230952D01*
X141514285Y-101802380D01*
X142133333Y-101802380D01*
X142466666Y-100802380D02*
X143133333Y-100802380D01*
X142704761Y-101802380D01*
X143704761Y-100802380D02*
X143800000Y-100802380D01*
X143895238Y-100850000D01*
X143942857Y-100897619D01*
X143990476Y-100992857D01*
X144038095Y-101183333D01*
X144038095Y-101421428D01*
X143990476Y-101611904D01*
X143942857Y-101707142D01*
X143895238Y-101754761D01*
X143800000Y-101802380D01*
X143704761Y-101802380D01*
X143609523Y-101754761D01*
X143561904Y-101707142D01*
X143514285Y-101611904D01*
X143466666Y-101421428D01*
X143466666Y-101183333D01*
X143514285Y-100992857D01*
X143561904Y-100897619D01*
X143609523Y-100850000D01*
X143704761Y-100802380D01*
X142633333Y-98552380D02*
X142300000Y-98076190D01*
X142061904Y-98552380D02*
X142061904Y-97552380D01*
X142442857Y-97552380D01*
X142538095Y-97600000D01*
X142585714Y-97647619D01*
X142633333Y-97742857D01*
X142633333Y-97885714D01*
X142585714Y-97980952D01*
X142538095Y-98028571D01*
X142442857Y-98076190D01*
X142061904Y-98076190D01*
X142966666Y-97552380D02*
X143585714Y-97552380D01*
X143252380Y-97933333D01*
X143395238Y-97933333D01*
X143490476Y-97980952D01*
X143538095Y-98028571D01*
X143585714Y-98123809D01*
X143585714Y-98361904D01*
X143538095Y-98457142D01*
X143490476Y-98504761D01*
X143395238Y-98552380D01*
X143109523Y-98552380D01*
X143014285Y-98504761D01*
X142966666Y-98457142D01*
X128647619Y-58788095D02*
X128600000Y-58740476D01*
X128552380Y-58645238D01*
X128552380Y-58407142D01*
X128600000Y-58311904D01*
X128647619Y-58264285D01*
X128742857Y-58216666D01*
X128838095Y-58216666D01*
X128980952Y-58264285D01*
X129552380Y-58835714D01*
X129552380Y-58216666D01*
X128552380Y-57883333D02*
X128552380Y-57216666D01*
X129552380Y-57645238D01*
X128552380Y-56645238D02*
X128552380Y-56550000D01*
X128600000Y-56454761D01*
X128647619Y-56407142D01*
X128742857Y-56359523D01*
X128933333Y-56311904D01*
X129171428Y-56311904D01*
X129361904Y-56359523D01*
X129457142Y-56407142D01*
X129504761Y-56454761D01*
X129552380Y-56550000D01*
X129552380Y-56645238D01*
X129504761Y-56740476D01*
X129457142Y-56788095D01*
X129361904Y-56835714D01*
X129171428Y-56883333D01*
X128933333Y-56883333D01*
X128742857Y-56835714D01*
X128647619Y-56788095D01*
X128600000Y-56740476D01*
X128552380Y-56645238D01*
X126302380Y-57716666D02*
X125826190Y-58050000D01*
X126302380Y-58288095D02*
X125302380Y-58288095D01*
X125302380Y-57907142D01*
X125350000Y-57811904D01*
X125397619Y-57764285D01*
X125492857Y-57716666D01*
X125635714Y-57716666D01*
X125730952Y-57764285D01*
X125778571Y-57811904D01*
X125826190Y-57907142D01*
X125826190Y-58288095D01*
X125635714Y-56859523D02*
X126302380Y-56859523D01*
X125254761Y-57097619D02*
X125969047Y-57335714D01*
X125969047Y-56716666D01*
X125447619Y-90488095D02*
X125400000Y-90440476D01*
X125352380Y-90345238D01*
X125352380Y-90107142D01*
X125400000Y-90011904D01*
X125447619Y-89964285D01*
X125542857Y-89916666D01*
X125638095Y-89916666D01*
X125780952Y-89964285D01*
X126352380Y-90535714D01*
X126352380Y-89916666D01*
X125352380Y-89583333D02*
X125352380Y-88916666D01*
X126352380Y-89345238D01*
X125352380Y-88345238D02*
X125352380Y-88250000D01*
X125400000Y-88154761D01*
X125447619Y-88107142D01*
X125542857Y-88059523D01*
X125733333Y-88011904D01*
X125971428Y-88011904D01*
X126161904Y-88059523D01*
X126257142Y-88107142D01*
X126304761Y-88154761D01*
X126352380Y-88250000D01*
X126352380Y-88345238D01*
X126304761Y-88440476D01*
X126257142Y-88488095D01*
X126161904Y-88535714D01*
X125971428Y-88583333D01*
X125733333Y-88583333D01*
X125542857Y-88535714D01*
X125447619Y-88488095D01*
X125400000Y-88440476D01*
X125352380Y-88345238D01*
X123102380Y-89416666D02*
X122626190Y-89750000D01*
X123102380Y-89988095D02*
X122102380Y-89988095D01*
X122102380Y-89607142D01*
X122150000Y-89511904D01*
X122197619Y-89464285D01*
X122292857Y-89416666D01*
X122435714Y-89416666D01*
X122530952Y-89464285D01*
X122578571Y-89511904D01*
X122626190Y-89607142D01*
X122626190Y-89988095D01*
X122102380Y-88511904D02*
X122102380Y-88988095D01*
X122578571Y-89035714D01*
X122530952Y-88988095D01*
X122483333Y-88892857D01*
X122483333Y-88654761D01*
X122530952Y-88559523D01*
X122578571Y-88511904D01*
X122673809Y-88464285D01*
X122911904Y-88464285D01*
X123007142Y-88511904D01*
X123054761Y-88559523D01*
X123102380Y-88654761D01*
X123102380Y-88892857D01*
X123054761Y-88988095D01*
X123007142Y-89035714D01*
X119652380Y-89895238D02*
X119652380Y-90466666D01*
X119652380Y-90180952D02*
X118652380Y-90180952D01*
X118795238Y-90276190D01*
X118890476Y-90371428D01*
X118938095Y-90466666D01*
X119652380Y-89466666D02*
X118652380Y-89466666D01*
X119271428Y-89371428D02*
X119652380Y-89085714D01*
X118985714Y-89085714D02*
X119366666Y-89466666D01*
X119652380Y-88133333D02*
X119652380Y-88704761D01*
X119652380Y-88419047D02*
X118652380Y-88419047D01*
X118795238Y-88514285D01*
X118890476Y-88609523D01*
X118938095Y-88704761D01*
X116402380Y-89466666D02*
X115926190Y-89800000D01*
X116402380Y-90038095D02*
X115402380Y-90038095D01*
X115402380Y-89657142D01*
X115450000Y-89561904D01*
X115497619Y-89514285D01*
X115592857Y-89466666D01*
X115735714Y-89466666D01*
X115830952Y-89514285D01*
X115878571Y-89561904D01*
X115926190Y-89657142D01*
X115926190Y-90038095D01*
X115402380Y-88609523D02*
X115402380Y-88800000D01*
X115450000Y-88895238D01*
X115497619Y-88942857D01*
X115640476Y-89038095D01*
X115830952Y-89085714D01*
X116211904Y-89085714D01*
X116307142Y-89038095D01*
X116354761Y-88990476D01*
X116402380Y-88895238D01*
X116402380Y-88704761D01*
X116354761Y-88609523D01*
X116307142Y-88561904D01*
X116211904Y-88514285D01*
X115973809Y-88514285D01*
X115878571Y-88561904D01*
X115830952Y-88609523D01*
X115783333Y-88704761D01*
X115783333Y-88895238D01*
X115830952Y-88990476D01*
X115878571Y-89038095D01*
X115973809Y-89085714D01*
X141561904Y-106297619D02*
X141609523Y-106250000D01*
X141704761Y-106202380D01*
X141942857Y-106202380D01*
X142038095Y-106250000D01*
X142085714Y-106297619D01*
X142133333Y-106392857D01*
X142133333Y-106488095D01*
X142085714Y-106630952D01*
X141514285Y-107202380D01*
X142133333Y-107202380D01*
X142466666Y-106202380D02*
X143133333Y-106202380D01*
X142704761Y-107202380D01*
X143704761Y-106202380D02*
X143800000Y-106202380D01*
X143895238Y-106250000D01*
X143942857Y-106297619D01*
X143990476Y-106392857D01*
X144038095Y-106583333D01*
X144038095Y-106821428D01*
X143990476Y-107011904D01*
X143942857Y-107107142D01*
X143895238Y-107154761D01*
X143800000Y-107202380D01*
X143704761Y-107202380D01*
X143609523Y-107154761D01*
X143561904Y-107107142D01*
X143514285Y-107011904D01*
X143466666Y-106821428D01*
X143466666Y-106583333D01*
X143514285Y-106392857D01*
X143561904Y-106297619D01*
X143609523Y-106250000D01*
X143704761Y-106202380D01*
X142633333Y-103952380D02*
X142300000Y-103476190D01*
X142061904Y-103952380D02*
X142061904Y-102952380D01*
X142442857Y-102952380D01*
X142538095Y-103000000D01*
X142585714Y-103047619D01*
X142633333Y-103142857D01*
X142633333Y-103285714D01*
X142585714Y-103380952D01*
X142538095Y-103428571D01*
X142442857Y-103476190D01*
X142061904Y-103476190D01*
X142966666Y-102952380D02*
X143633333Y-102952380D01*
X143204761Y-103952380D01*
X141561904Y-111997619D02*
X141609523Y-111950000D01*
X141704761Y-111902380D01*
X141942857Y-111902380D01*
X142038095Y-111950000D01*
X142085714Y-111997619D01*
X142133333Y-112092857D01*
X142133333Y-112188095D01*
X142085714Y-112330952D01*
X141514285Y-112902380D01*
X142133333Y-112902380D01*
X142466666Y-111902380D02*
X143133333Y-111902380D01*
X142704761Y-112902380D01*
X143704761Y-111902380D02*
X143800000Y-111902380D01*
X143895238Y-111950000D01*
X143942857Y-111997619D01*
X143990476Y-112092857D01*
X144038095Y-112283333D01*
X144038095Y-112521428D01*
X143990476Y-112711904D01*
X143942857Y-112807142D01*
X143895238Y-112854761D01*
X143800000Y-112902380D01*
X143704761Y-112902380D01*
X143609523Y-112854761D01*
X143561904Y-112807142D01*
X143514285Y-112711904D01*
X143466666Y-112521428D01*
X143466666Y-112283333D01*
X143514285Y-112092857D01*
X143561904Y-111997619D01*
X143609523Y-111950000D01*
X143704761Y-111902380D01*
X142633333Y-109652380D02*
X142300000Y-109176190D01*
X142061904Y-109652380D02*
X142061904Y-108652380D01*
X142442857Y-108652380D01*
X142538095Y-108700000D01*
X142585714Y-108747619D01*
X142633333Y-108842857D01*
X142633333Y-108985714D01*
X142585714Y-109080952D01*
X142538095Y-109128571D01*
X142442857Y-109176190D01*
X142061904Y-109176190D01*
X143204761Y-109080952D02*
X143109523Y-109033333D01*
X143061904Y-108985714D01*
X143014285Y-108890476D01*
X143014285Y-108842857D01*
X143061904Y-108747619D01*
X143109523Y-108700000D01*
X143204761Y-108652380D01*
X143395238Y-108652380D01*
X143490476Y-108700000D01*
X143538095Y-108747619D01*
X143585714Y-108842857D01*
X143585714Y-108890476D01*
X143538095Y-108985714D01*
X143490476Y-109033333D01*
X143395238Y-109080952D01*
X143204761Y-109080952D01*
X143109523Y-109128571D01*
X143061904Y-109176190D01*
X143014285Y-109271428D01*
X143014285Y-109461904D01*
X143061904Y-109557142D01*
X143109523Y-109604761D01*
X143204761Y-109652380D01*
X143395238Y-109652380D01*
X143490476Y-109604761D01*
X143538095Y-109557142D01*
X143585714Y-109461904D01*
X143585714Y-109271428D01*
X143538095Y-109176190D01*
X143490476Y-109128571D01*
X143395238Y-109080952D01*
X141561904Y-117797619D02*
X141609523Y-117750000D01*
X141704761Y-117702380D01*
X141942857Y-117702380D01*
X142038095Y-117750000D01*
X142085714Y-117797619D01*
X142133333Y-117892857D01*
X142133333Y-117988095D01*
X142085714Y-118130952D01*
X141514285Y-118702380D01*
X142133333Y-118702380D01*
X142466666Y-117702380D02*
X143133333Y-117702380D01*
X142704761Y-118702380D01*
X143704761Y-117702380D02*
X143800000Y-117702380D01*
X143895238Y-117750000D01*
X143942857Y-117797619D01*
X143990476Y-117892857D01*
X144038095Y-118083333D01*
X144038095Y-118321428D01*
X143990476Y-118511904D01*
X143942857Y-118607142D01*
X143895238Y-118654761D01*
X143800000Y-118702380D01*
X143704761Y-118702380D01*
X143609523Y-118654761D01*
X143561904Y-118607142D01*
X143514285Y-118511904D01*
X143466666Y-118321428D01*
X143466666Y-118083333D01*
X143514285Y-117892857D01*
X143561904Y-117797619D01*
X143609523Y-117750000D01*
X143704761Y-117702380D01*
X142633333Y-115452380D02*
X142300000Y-114976190D01*
X142061904Y-115452380D02*
X142061904Y-114452380D01*
X142442857Y-114452380D01*
X142538095Y-114500000D01*
X142585714Y-114547619D01*
X142633333Y-114642857D01*
X142633333Y-114785714D01*
X142585714Y-114880952D01*
X142538095Y-114928571D01*
X142442857Y-114976190D01*
X142061904Y-114976190D01*
X143109523Y-115452380D02*
X143300000Y-115452380D01*
X143395238Y-115404761D01*
X143442857Y-115357142D01*
X143538095Y-115214285D01*
X143585714Y-115023809D01*
X143585714Y-114642857D01*
X143538095Y-114547619D01*
X143490476Y-114500000D01*
X143395238Y-114452380D01*
X143204761Y-114452380D01*
X143109523Y-114500000D01*
X143061904Y-114547619D01*
X143014285Y-114642857D01*
X143014285Y-114880952D01*
X143061904Y-114976190D01*
X143109523Y-115023809D01*
X143204761Y-115071428D01*
X143395238Y-115071428D01*
X143490476Y-115023809D01*
X143538095Y-114976190D01*
X143585714Y-114880952D01*
X171902380Y-101138095D02*
X171902380Y-101614285D01*
X170902380Y-101614285D01*
X171902380Y-100804761D02*
X170902380Y-100804761D01*
X171616666Y-100471428D01*
X170902380Y-100138095D01*
X171902380Y-100138095D01*
X170997619Y-99709523D02*
X170950000Y-99661904D01*
X170902380Y-99566666D01*
X170902380Y-99328571D01*
X170950000Y-99233333D01*
X170997619Y-99185714D01*
X171092857Y-99138095D01*
X171188095Y-99138095D01*
X171330952Y-99185714D01*
X171902380Y-99757142D01*
X171902380Y-99138095D01*
X170902380Y-98233333D02*
X170902380Y-98709523D01*
X171378571Y-98757142D01*
X171330952Y-98709523D01*
X171283333Y-98614285D01*
X171283333Y-98376190D01*
X171330952Y-98280952D01*
X171378571Y-98233333D01*
X171473809Y-98185714D01*
X171711904Y-98185714D01*
X171807142Y-98233333D01*
X171854761Y-98280952D01*
X171902380Y-98376190D01*
X171902380Y-98614285D01*
X171854761Y-98709523D01*
X171807142Y-98757142D01*
X171902380Y-97709523D02*
X171902380Y-97519047D01*
X171854761Y-97423809D01*
X171807142Y-97376190D01*
X171664285Y-97280952D01*
X171473809Y-97233333D01*
X171092857Y-97233333D01*
X170997619Y-97280952D01*
X170950000Y-97328571D01*
X170902380Y-97423809D01*
X170902380Y-97614285D01*
X170950000Y-97709523D01*
X170997619Y-97757142D01*
X171092857Y-97804761D01*
X171330952Y-97804761D01*
X171426190Y-97757142D01*
X171473809Y-97709523D01*
X171521428Y-97614285D01*
X171521428Y-97423809D01*
X171473809Y-97328571D01*
X171426190Y-97280952D01*
X171330952Y-97233333D01*
X170902380Y-96376190D02*
X170902380Y-96566666D01*
X170950000Y-96661904D01*
X170997619Y-96709523D01*
X171140476Y-96804761D01*
X171330952Y-96852380D01*
X171711904Y-96852380D01*
X171807142Y-96804761D01*
X171854761Y-96757142D01*
X171902380Y-96661904D01*
X171902380Y-96471428D01*
X171854761Y-96376190D01*
X171807142Y-96328571D01*
X171711904Y-96280952D01*
X171473809Y-96280952D01*
X171378571Y-96328571D01*
X171330952Y-96376190D01*
X171283333Y-96471428D01*
X171283333Y-96661904D01*
X171330952Y-96757142D01*
X171378571Y-96804761D01*
X171473809Y-96852380D01*
X171854761Y-95900000D02*
X171902380Y-95757142D01*
X171902380Y-95519047D01*
X171854761Y-95423809D01*
X171807142Y-95376190D01*
X171711904Y-95328571D01*
X171616666Y-95328571D01*
X171521428Y-95376190D01*
X171473809Y-95423809D01*
X171426190Y-95519047D01*
X171378571Y-95709523D01*
X171330952Y-95804761D01*
X171283333Y-95852380D01*
X171188095Y-95900000D01*
X171092857Y-95900000D01*
X170997619Y-95852380D01*
X170950000Y-95804761D01*
X170902380Y-95709523D01*
X170902380Y-95471428D01*
X170950000Y-95328571D01*
X171521428Y-94900000D02*
X171521428Y-94138095D01*
X170902380Y-93185714D02*
X170902380Y-93661904D01*
X171378571Y-93709523D01*
X171330952Y-93661904D01*
X171283333Y-93566666D01*
X171283333Y-93328571D01*
X171330952Y-93233333D01*
X171378571Y-93185714D01*
X171473809Y-93138095D01*
X171711904Y-93138095D01*
X171807142Y-93185714D01*
X171854761Y-93233333D01*
X171902380Y-93328571D01*
X171902380Y-93566666D01*
X171854761Y-93661904D01*
X171807142Y-93709523D01*
X182372380Y-98161904D02*
X183181904Y-98161904D01*
X183277142Y-98114285D01*
X183324761Y-98066666D01*
X183372380Y-97971428D01*
X183372380Y-97780952D01*
X183324761Y-97685714D01*
X183277142Y-97638095D01*
X183181904Y-97590476D01*
X182372380Y-97590476D01*
X183372380Y-96590476D02*
X183372380Y-97161904D01*
X183372380Y-96876190D02*
X182372380Y-96876190D01*
X182515238Y-96971428D01*
X182610476Y-97066666D01*
X182658095Y-97161904D01*
X172202380Y-71638095D02*
X172202380Y-72114285D01*
X171202380Y-72114285D01*
X172202380Y-71304761D02*
X171202380Y-71304761D01*
X171916666Y-70971428D01*
X171202380Y-70638095D01*
X172202380Y-70638095D01*
X171297619Y-70209523D02*
X171250000Y-70161904D01*
X171202380Y-70066666D01*
X171202380Y-69828571D01*
X171250000Y-69733333D01*
X171297619Y-69685714D01*
X171392857Y-69638095D01*
X171488095Y-69638095D01*
X171630952Y-69685714D01*
X172202380Y-70257142D01*
X172202380Y-69638095D01*
X171202380Y-68733333D02*
X171202380Y-69209523D01*
X171678571Y-69257142D01*
X171630952Y-69209523D01*
X171583333Y-69114285D01*
X171583333Y-68876190D01*
X171630952Y-68780952D01*
X171678571Y-68733333D01*
X171773809Y-68685714D01*
X172011904Y-68685714D01*
X172107142Y-68733333D01*
X172154761Y-68780952D01*
X172202380Y-68876190D01*
X172202380Y-69114285D01*
X172154761Y-69209523D01*
X172107142Y-69257142D01*
X172202380Y-68209523D02*
X172202380Y-68019047D01*
X172154761Y-67923809D01*
X172107142Y-67876190D01*
X171964285Y-67780952D01*
X171773809Y-67733333D01*
X171392857Y-67733333D01*
X171297619Y-67780952D01*
X171250000Y-67828571D01*
X171202380Y-67923809D01*
X171202380Y-68114285D01*
X171250000Y-68209523D01*
X171297619Y-68257142D01*
X171392857Y-68304761D01*
X171630952Y-68304761D01*
X171726190Y-68257142D01*
X171773809Y-68209523D01*
X171821428Y-68114285D01*
X171821428Y-67923809D01*
X171773809Y-67828571D01*
X171726190Y-67780952D01*
X171630952Y-67733333D01*
X171202380Y-66876190D02*
X171202380Y-67066666D01*
X171250000Y-67161904D01*
X171297619Y-67209523D01*
X171440476Y-67304761D01*
X171630952Y-67352380D01*
X172011904Y-67352380D01*
X172107142Y-67304761D01*
X172154761Y-67257142D01*
X172202380Y-67161904D01*
X172202380Y-66971428D01*
X172154761Y-66876190D01*
X172107142Y-66828571D01*
X172011904Y-66780952D01*
X171773809Y-66780952D01*
X171678571Y-66828571D01*
X171630952Y-66876190D01*
X171583333Y-66971428D01*
X171583333Y-67161904D01*
X171630952Y-67257142D01*
X171678571Y-67304761D01*
X171773809Y-67352380D01*
X172154761Y-66400000D02*
X172202380Y-66257142D01*
X172202380Y-66019047D01*
X172154761Y-65923809D01*
X172107142Y-65876190D01*
X172011904Y-65828571D01*
X171916666Y-65828571D01*
X171821428Y-65876190D01*
X171773809Y-65923809D01*
X171726190Y-66019047D01*
X171678571Y-66209523D01*
X171630952Y-66304761D01*
X171583333Y-66352380D01*
X171488095Y-66400000D01*
X171392857Y-66400000D01*
X171297619Y-66352380D01*
X171250000Y-66304761D01*
X171202380Y-66209523D01*
X171202380Y-65971428D01*
X171250000Y-65828571D01*
X171821428Y-65400000D02*
X171821428Y-64638095D01*
X171202380Y-63685714D02*
X171202380Y-64161904D01*
X171678571Y-64209523D01*
X171630952Y-64161904D01*
X171583333Y-64066666D01*
X171583333Y-63828571D01*
X171630952Y-63733333D01*
X171678571Y-63685714D01*
X171773809Y-63638095D01*
X172011904Y-63638095D01*
X172107142Y-63685714D01*
X172154761Y-63733333D01*
X172202380Y-63828571D01*
X172202380Y-64066666D01*
X172154761Y-64161904D01*
X172107142Y-64209523D01*
X182672380Y-68661904D02*
X183481904Y-68661904D01*
X183577142Y-68614285D01*
X183624761Y-68566666D01*
X183672380Y-68471428D01*
X183672380Y-68280952D01*
X183624761Y-68185714D01*
X183577142Y-68138095D01*
X183481904Y-68090476D01*
X182672380Y-68090476D01*
X182767619Y-67661904D02*
X182720000Y-67614285D01*
X182672380Y-67519047D01*
X182672380Y-67280952D01*
X182720000Y-67185714D01*
X182767619Y-67138095D01*
X182862857Y-67090476D01*
X182958095Y-67090476D01*
X183100952Y-67138095D01*
X183672380Y-67709523D01*
X183672380Y-67090476D01*
X142243333Y-122302380D02*
X141767142Y-122302380D01*
X141767142Y-121302380D01*
X142529047Y-121397619D02*
X142576666Y-121350000D01*
X142671904Y-121302380D01*
X142910000Y-121302380D01*
X143005238Y-121350000D01*
X143052857Y-121397619D01*
X143100476Y-121492857D01*
X143100476Y-121588095D01*
X143052857Y-121730952D01*
X142481428Y-122302380D01*
X143100476Y-122302380D01*
X143576666Y-122302380D02*
X143767142Y-122302380D01*
X143862380Y-122254761D01*
X143910000Y-122207142D01*
X144005238Y-122064285D01*
X144052857Y-121873809D01*
X144052857Y-121492857D01*
X144005238Y-121397619D01*
X143957619Y-121350000D01*
X143862380Y-121302380D01*
X143671904Y-121302380D01*
X143576666Y-121350000D01*
X143529047Y-121397619D01*
X143481428Y-121492857D01*
X143481428Y-121730952D01*
X143529047Y-121826190D01*
X143576666Y-121873809D01*
X143671904Y-121921428D01*
X143862380Y-121921428D01*
X143957619Y-121873809D01*
X144005238Y-121826190D01*
X144052857Y-121730952D01*
X144624285Y-121730952D02*
X144529047Y-121683333D01*
X144481428Y-121635714D01*
X144433809Y-121540476D01*
X144433809Y-121492857D01*
X144481428Y-121397619D01*
X144529047Y-121350000D01*
X144624285Y-121302380D01*
X144814761Y-121302380D01*
X144910000Y-121350000D01*
X144957619Y-121397619D01*
X145005238Y-121492857D01*
X145005238Y-121540476D01*
X144957619Y-121635714D01*
X144910000Y-121683333D01*
X144814761Y-121730952D01*
X144624285Y-121730952D01*
X144529047Y-121778571D01*
X144481428Y-121826190D01*
X144433809Y-121921428D01*
X144433809Y-122111904D01*
X144481428Y-122207142D01*
X144529047Y-122254761D01*
X144624285Y-122302380D01*
X144814761Y-122302380D01*
X144910000Y-122254761D01*
X144957619Y-122207142D01*
X145005238Y-122111904D01*
X145005238Y-121921428D01*
X144957619Y-121826190D01*
X144910000Y-121778571D01*
X144814761Y-121730952D01*
X145433809Y-122302380D02*
X145433809Y-121302380D01*
X145433809Y-121778571D02*
X146005238Y-121778571D01*
X146005238Y-122302380D02*
X146005238Y-121302380D01*
X146481428Y-122302380D02*
X146481428Y-121302380D01*
X147052857Y-122302380D01*
X147052857Y-121302380D01*
X143648095Y-134152380D02*
X143648095Y-134961904D01*
X143695714Y-135057142D01*
X143743333Y-135104761D01*
X143838571Y-135152380D01*
X144029047Y-135152380D01*
X144124285Y-135104761D01*
X144171904Y-135057142D01*
X144219523Y-134961904D01*
X144219523Y-134152380D01*
X144600476Y-134152380D02*
X145219523Y-134152380D01*
X144886190Y-134533333D01*
X145029047Y-134533333D01*
X145124285Y-134580952D01*
X145171904Y-134628571D01*
X145219523Y-134723809D01*
X145219523Y-134961904D01*
X145171904Y-135057142D01*
X145124285Y-135104761D01*
X145029047Y-135152380D01*
X144743333Y-135152380D01*
X144648095Y-135104761D01*
X144600476Y-135057142D01*
X160349380Y-72302142D02*
X160349380Y-71683095D01*
X160730333Y-72016428D01*
X160730333Y-71873571D01*
X160777952Y-71778333D01*
X160825571Y-71730714D01*
X160920809Y-71683095D01*
X161158904Y-71683095D01*
X161254142Y-71730714D01*
X161301761Y-71778333D01*
X161349380Y-71873571D01*
X161349380Y-72159285D01*
X161301761Y-72254523D01*
X161254142Y-72302142D01*
X160349380Y-71349761D02*
X160349380Y-70730714D01*
X160730333Y-71064047D01*
X160730333Y-70921190D01*
X160777952Y-70825952D01*
X160825571Y-70778333D01*
X160920809Y-70730714D01*
X161158904Y-70730714D01*
X161254142Y-70778333D01*
X161301761Y-70825952D01*
X161349380Y-70921190D01*
X161349380Y-71206904D01*
X161301761Y-71302142D01*
X161254142Y-71349761D01*
X160682714Y-70302142D02*
X161682714Y-70302142D01*
X161206523Y-69825952D02*
X161301761Y-69778333D01*
X161349380Y-69683095D01*
X161206523Y-70302142D02*
X161301761Y-70254523D01*
X161349380Y-70159285D01*
X161349380Y-69968809D01*
X161301761Y-69873571D01*
X161206523Y-69825952D01*
X160682714Y-69825952D01*
X161349380Y-69254523D02*
X160349380Y-69254523D01*
X160825571Y-69254523D02*
X160825571Y-68683095D01*
X161349380Y-68683095D02*
X160349380Y-68683095D01*
X166949380Y-70611666D02*
X166949380Y-71087857D01*
X165949380Y-71087857D01*
X166949380Y-69754523D02*
X166949380Y-70325952D01*
X166949380Y-70040238D02*
X165949380Y-70040238D01*
X166092238Y-70135476D01*
X166187476Y-70230714D01*
X166235095Y-70325952D01*
X159852380Y-101857142D02*
X159852380Y-101238095D01*
X160233333Y-101571428D01*
X160233333Y-101428571D01*
X160280952Y-101333333D01*
X160328571Y-101285714D01*
X160423809Y-101238095D01*
X160661904Y-101238095D01*
X160757142Y-101285714D01*
X160804761Y-101333333D01*
X160852380Y-101428571D01*
X160852380Y-101714285D01*
X160804761Y-101809523D01*
X160757142Y-101857142D01*
X159852380Y-100904761D02*
X159852380Y-100285714D01*
X160233333Y-100619047D01*
X160233333Y-100476190D01*
X160280952Y-100380952D01*
X160328571Y-100333333D01*
X160423809Y-100285714D01*
X160661904Y-100285714D01*
X160757142Y-100333333D01*
X160804761Y-100380952D01*
X160852380Y-100476190D01*
X160852380Y-100761904D01*
X160804761Y-100857142D01*
X160757142Y-100904761D01*
X160185714Y-99857142D02*
X161185714Y-99857142D01*
X160709523Y-99380952D02*
X160804761Y-99333333D01*
X160852380Y-99238095D01*
X160709523Y-99857142D02*
X160804761Y-99809523D01*
X160852380Y-99714285D01*
X160852380Y-99523809D01*
X160804761Y-99428571D01*
X160709523Y-99380952D01*
X160185714Y-99380952D01*
X160852380Y-98809523D02*
X159852380Y-98809523D01*
X160328571Y-98809523D02*
X160328571Y-98238095D01*
X160852380Y-98238095D02*
X159852380Y-98238095D01*
X166452380Y-100166666D02*
X166452380Y-100642857D01*
X165452380Y-100642857D01*
X165547619Y-99880952D02*
X165500000Y-99833333D01*
X165452380Y-99738095D01*
X165452380Y-99500000D01*
X165500000Y-99404761D01*
X165547619Y-99357142D01*
X165642857Y-99309523D01*
X165738095Y-99309523D01*
X165880952Y-99357142D01*
X166452380Y-99928571D01*
X166452380Y-99309523D01*
X166928571Y-103872380D02*
X166928571Y-104681904D01*
X166976190Y-104777142D01*
X167023809Y-104824761D01*
X167119047Y-104872380D01*
X167309523Y-104872380D01*
X167404761Y-104824761D01*
X167452380Y-104777142D01*
X167500000Y-104681904D01*
X167500000Y-103872380D01*
X167928571Y-104824761D02*
X168071428Y-104872380D01*
X168309523Y-104872380D01*
X168404761Y-104824761D01*
X168452380Y-104777142D01*
X168500000Y-104681904D01*
X168500000Y-104586666D01*
X168452380Y-104491428D01*
X168404761Y-104443809D01*
X168309523Y-104396190D01*
X168119047Y-104348571D01*
X168023809Y-104300952D01*
X167976190Y-104253333D01*
X167928571Y-104158095D01*
X167928571Y-104062857D01*
X167976190Y-103967619D01*
X168023809Y-103920000D01*
X168119047Y-103872380D01*
X168357142Y-103872380D01*
X168500000Y-103920000D01*
X169261904Y-104348571D02*
X169404761Y-104396190D01*
X169452380Y-104443809D01*
X169500000Y-104539047D01*
X169500000Y-104681904D01*
X169452380Y-104777142D01*
X169404761Y-104824761D01*
X169309523Y-104872380D01*
X168928571Y-104872380D01*
X168928571Y-103872380D01*
X169261904Y-103872380D01*
X169357142Y-103920000D01*
X169404761Y-103967619D01*
X169452380Y-104062857D01*
X169452380Y-104158095D01*
X169404761Y-104253333D01*
X169357142Y-104300952D01*
X169261904Y-104348571D01*
X168928571Y-104348571D01*
X169690476Y-104967619D02*
X170452380Y-104967619D01*
X170642857Y-104586666D02*
X171119047Y-104586666D01*
X170547619Y-104872380D02*
X170880952Y-103872380D01*
X171214285Y-104872380D01*
X171521666Y-108952380D02*
X171521666Y-109666666D01*
X171474047Y-109809523D01*
X171378809Y-109904761D01*
X171235952Y-109952380D01*
X171140714Y-109952380D01*
X171950238Y-109047619D02*
X171997857Y-109000000D01*
X172093095Y-108952380D01*
X172331190Y-108952380D01*
X172426428Y-109000000D01*
X172474047Y-109047619D01*
X172521666Y-109142857D01*
X172521666Y-109238095D01*
X172474047Y-109380952D01*
X171902619Y-109952380D01*
X172521666Y-109952380D01*
M02*
