M48
; DRILL file {KiCad 5.1.6-c6e7f7d~86~ubuntu20.04.1} date Tue Jun  9 07:54:09 2020
; FORMAT={-:-/ absolute / metric / decimal}
; #@! TF.CreationDate,2020-06-09T07:54:09+01:00
; #@! TF.GenerationSoftware,Kicad,Pcbnew,5.1.6-c6e7f7d~86~ubuntu20.04.1
; #@! TF.FileFunction,Plated,1,2,PTH
FMAT,2
METRIC
T1C0.400
T2C0.800
T3C0.920
T4C0.950
T5C1.000
T6C1.016
T7C1.100
T8C1.200
T9C1.300
T10C1.500
%
G90
G05
T1
X112.5Y-103.5
X116.3Y-91.7
X116.56Y-73.56
X117.5Y-103.5
X120.5Y-114.5
X121.0Y-87.0
X125.54Y-73.04
X127.79Y-70.79
X128.184Y-56.184
X128.5Y-81.0
X128.8Y-58.066
X129.119Y-54.119
X129.6Y-68.4
X129.6Y-73.4
X129.816Y-56.816
X139.442Y-51.558
X140.0Y-91.0
X141.5Y-93.9
X142.9Y-101.0
X144.0Y-118.0
X145.0Y-106.5
X145.0Y-110.5
X146.0Y-94.0
X146.922Y-126.0
X148.8Y-106.7
X149.0Y-116.95
X149.426Y-130.7
X151.745Y-105.255
X151.745Y-116.255
X154.0Y-96.5
X154.5Y-131.88
X155.5Y-118.0
X156.65Y-109.85
X158.5Y-122.5
X161.275Y-124.775
T2
X158.0Y-91.7
X158.0Y-95.5
X117.3Y-118.42
X117.3Y-120.96
X117.3Y-123.5
X130.556Y-120.142
X135.556Y-120.142
X115.35Y-60.7
X117.89Y-60.7
X120.43Y-60.7
X162.818Y-54.788
X163.489Y-56.388
X165.989Y-56.388
X166.66Y-57.988
X173.65Y-79.0
X177.45Y-79.0
X150.0Y-120.7
X155.0Y-120.7
X114.05Y-99.6
X119.05Y-99.6
X116.6Y-66.07
X116.6Y-68.61
X116.6Y-71.15
X116.0Y-75.1
X116.0Y-77.64
X116.0Y-80.18
X164.897Y-87.92
X166.497Y-84.749
X166.497Y-87.249
X168.097Y-84.078
T3
X163.0Y-109.5
X165.0Y-109.5
X167.0Y-109.5
X169.0Y-109.5
T4
X109.22Y-81.2
X109.22Y-83.7
X109.22Y-86.2
X108.966Y-93.1
X108.966Y-95.6
X108.966Y-98.1
X109.093Y-69.215
X109.093Y-71.715
X109.093Y-74.215
T5
X138.3Y-109.2
X147.3Y-109.2
X109.2Y-60.1
X109.2Y-62.6
X109.1Y-105.1
X109.1Y-107.6
X109.1Y-110.1
X109.1Y-112.6
X122.7Y-69.9
X122.7Y-78.9
X138.3Y-103.5
X147.3Y-103.5
X135.52Y-124.0
X136.79Y-129.08
X138.06Y-124.0
X139.33Y-129.08
X140.6Y-124.0
X141.87Y-129.08
X143.14Y-124.0
X144.41Y-129.08
X145.68Y-124.0
X146.95Y-129.08
X148.22Y-124.0
X149.49Y-129.08
X150.76Y-124.0
X152.03Y-129.08
X153.3Y-124.0
X116.5Y-129.8
X119.0Y-129.8
X108.966Y-119.634
X108.966Y-122.134
X122.65Y-84.75
X122.65Y-93.75
X138.3Y-98.1
X147.3Y-98.1
X116.6Y-53.9
X119.1Y-53.9
X125.85Y-53.05
X125.85Y-62.05
X130.048Y-84.328
X130.048Y-86.868
X130.048Y-89.408
X130.048Y-91.948
X138.3Y-115.0
X147.3Y-115.0
X115.95Y-84.8
X115.95Y-93.8
T6
X135.08Y-55.31
X135.08Y-57.85
X135.08Y-60.39
X135.08Y-62.93
X135.08Y-65.47
X135.08Y-68.01
X135.08Y-70.55
X135.08Y-73.09
X135.08Y-75.63
X135.08Y-78.17
X135.08Y-80.71
X135.08Y-83.25
X135.08Y-85.79
X135.08Y-88.33
X135.08Y-90.87
X150.32Y-55.31
X150.32Y-57.85
X150.32Y-60.39
X150.32Y-62.93
X150.32Y-65.47
X150.32Y-68.01
X150.32Y-70.55
X150.32Y-73.09
X150.32Y-75.63
X150.32Y-78.17
X150.32Y-80.71
X150.32Y-83.25
X150.32Y-85.79
X150.32Y-88.33
X150.32Y-90.87
T7
X125.42Y-130.3
X130.5Y-130.3
X173.6Y-94.0
X173.6Y-97.4
X173.6Y-100.8
X177.3Y-95.7
X177.3Y-99.1
X173.9Y-64.5
X173.9Y-67.9
X173.9Y-71.3
X177.6Y-66.2
X177.6Y-69.6
T8
X153.5Y-101.727
X153.5Y-114.427
X156.591Y-65.405
X156.591Y-78.105
T9
X166.0Y-97.5
X166.0Y-102.5
X166.497Y-67.945
X166.497Y-72.945
T10
X162.73Y-106.78
X162.73Y-112.22
X169.73Y-106.78
X169.73Y-112.22
T5
G00X167.8Y-122.0
M15
G01X167.8Y-120.0
M16
G05
G00X171.8Y-116.3
M15
G01X169.8Y-116.3
M16
G05
G00X173.8Y-122.0
M15
G01X173.8Y-120.0
M16
G05
T0
M30
