G04 #@! TF.GenerationSoftware,KiCad,Pcbnew,5.1.6-c6e7f7d~86~ubuntu20.04.1*
G04 #@! TF.CreationDate,2020-06-09T07:54:05+01:00*
G04 #@! TF.ProjectId,flypi,666c7970-692e-46b6-9963-61645f706362,rev?*
G04 #@! TF.SameCoordinates,Original*
G04 #@! TF.FileFunction,Soldermask,Bot*
G04 #@! TF.FilePolarity,Negative*
%FSLAX46Y46*%
G04 Gerber Fmt 4.6, Leading zero omitted, Abs format (unit mm)*
G04 Created by KiCad (PCBNEW 5.1.6-c6e7f7d~86~ubuntu20.04.1) date 2020-06-09 07:54:05*
%MOMM*%
%LPD*%
G01*
G04 APERTURE LIST*
%ADD10C,1.727200*%
%ADD11R,1.727200X1.727200*%
%ADD12C,1.850000*%
%ADD13C,3.200000*%
%ADD14O,1.950000X1.700000*%
%ADD15R,1.700000X1.700000*%
%ADD16O,1.700000X1.700000*%
%ADD17R,1.750000X1.750000*%
%ADD18C,1.750000*%
%ADD19R,1.600000X1.600000*%
%ADD20C,1.600000*%
%ADD21R,2.400000X2.400000*%
%ADD22O,2.400000X2.400000*%
%ADD23R,3.500000X3.500000*%
%ADD24O,1.700000X2.000000*%
%ADD25O,2.000000X1.700000*%
%ADD26C,1.500000*%
%ADD27R,1.500000X1.500000*%
%ADD28R,2.000000X2.000000*%
%ADD29O,2.000000X2.000000*%
%ADD30C,2.000000*%
%ADD31R,1.800000X1.800000*%
%ADD32O,1.800000X1.800000*%
%ADD33C,2.600000*%
%ADD34C,2.150000*%
G04 APERTURE END LIST*
D10*
X135080000Y-90870000D03*
X135080000Y-88330000D03*
X135080000Y-85790000D03*
X135080000Y-83250000D03*
X135080000Y-80710000D03*
X135080000Y-78170000D03*
X135080000Y-75630000D03*
X135080000Y-73090000D03*
X135080000Y-70550000D03*
X135080000Y-68010000D03*
X135080000Y-65470000D03*
X135080000Y-62930000D03*
X135080000Y-60390000D03*
X135080000Y-57850000D03*
X135080000Y-55310000D03*
X150320000Y-55310000D03*
X150320000Y-57850000D03*
X150320000Y-60390000D03*
X150320000Y-62930000D03*
X150320000Y-65470000D03*
X150320000Y-68010000D03*
X150320000Y-70550000D03*
X150320000Y-73090000D03*
X150320000Y-75630000D03*
X150320000Y-78170000D03*
X150320000Y-80710000D03*
X150320000Y-83250000D03*
X150320000Y-85790000D03*
X150320000Y-88330000D03*
D11*
X150320000Y-90870000D03*
D12*
X150320000Y-93410000D03*
X135080000Y-93410000D03*
X150320000Y-52770000D03*
X135080000Y-52770000D03*
D13*
X176550000Y-53650000D03*
X108850000Y-53250000D03*
X109150000Y-130050000D03*
X177050000Y-129850000D03*
G36*
G01*
X108495000Y-80350000D02*
X109945000Y-80350000D01*
G75*
G02*
X110195000Y-80600000I0J-250000D01*
G01*
X110195000Y-81800000D01*
G75*
G02*
X109945000Y-82050000I-250000J0D01*
G01*
X108495000Y-82050000D01*
G75*
G02*
X108245000Y-81800000I0J250000D01*
G01*
X108245000Y-80600000D01*
G75*
G02*
X108495000Y-80350000I250000J0D01*
G01*
G37*
D14*
X109220000Y-83700000D03*
X109220000Y-86200000D03*
D15*
X130048000Y-91948000D03*
D16*
X130048000Y-89408000D03*
X130048000Y-86868000D03*
X130048000Y-84328000D03*
D17*
X109100000Y-105100000D03*
D18*
X109100000Y-107600000D03*
X109100000Y-110100000D03*
X109100000Y-112600000D03*
D19*
X166497000Y-87249000D03*
D20*
X166497000Y-84749000D03*
D19*
X164897000Y-87919937D03*
D20*
X168097000Y-84078063D03*
X162818063Y-54788000D03*
D19*
X166659937Y-57988000D03*
D20*
X163489000Y-56388000D03*
D19*
X165989000Y-56388000D03*
X177450000Y-79000000D03*
D20*
X173650000Y-79000000D03*
X158000000Y-91700000D03*
D19*
X158000000Y-95500000D03*
D20*
X135556000Y-120142000D03*
X130556000Y-120142000D03*
X119050000Y-99600000D03*
X114050000Y-99600000D03*
X150000000Y-120700000D03*
X155000000Y-120700000D03*
D21*
X153500000Y-101727000D03*
D22*
X153500000Y-114427000D03*
X156591000Y-65405000D03*
D21*
X156591000Y-78105000D03*
D23*
X167800000Y-121000000D03*
G36*
G01*
X175300000Y-120000000D02*
X175300000Y-122000000D01*
G75*
G02*
X174550000Y-122750000I-750000J0D01*
G01*
X173050000Y-122750000D01*
G75*
G02*
X172300000Y-122000000I0J750000D01*
G01*
X172300000Y-120000000D01*
G75*
G02*
X173050000Y-119250000I750000J0D01*
G01*
X174550000Y-119250000D01*
G75*
G02*
X175300000Y-120000000I0J-750000D01*
G01*
G37*
G36*
G01*
X172550000Y-115425000D02*
X172550000Y-117175000D01*
G75*
G02*
X171675000Y-118050000I-875000J0D01*
G01*
X169925000Y-118050000D01*
G75*
G02*
X169050000Y-117175000I0J875000D01*
G01*
X169050000Y-115425000D01*
G75*
G02*
X169925000Y-114550000I875000J0D01*
G01*
X171675000Y-114550000D01*
G75*
G02*
X172550000Y-115425000I0J-875000D01*
G01*
G37*
G36*
G01*
X115650000Y-130550000D02*
X115650000Y-129050000D01*
G75*
G02*
X115900000Y-128800000I250000J0D01*
G01*
X117100000Y-128800000D01*
G75*
G02*
X117350000Y-129050000I0J-250000D01*
G01*
X117350000Y-130550000D01*
G75*
G02*
X117100000Y-130800000I-250000J0D01*
G01*
X115900000Y-130800000D01*
G75*
G02*
X115650000Y-130550000I0J250000D01*
G01*
G37*
D24*
X119000000Y-129800000D03*
D25*
X108966000Y-122134000D03*
G36*
G01*
X108216000Y-118784000D02*
X109716000Y-118784000D01*
G75*
G02*
X109966000Y-119034000I0J-250000D01*
G01*
X109966000Y-120234000D01*
G75*
G02*
X109716000Y-120484000I-250000J0D01*
G01*
X108216000Y-120484000D01*
G75*
G02*
X107966000Y-120234000I0J250000D01*
G01*
X107966000Y-119034000D01*
G75*
G02*
X108216000Y-118784000I250000J0D01*
G01*
G37*
G36*
G01*
X108241000Y-92250000D02*
X109691000Y-92250000D01*
G75*
G02*
X109941000Y-92500000I0J-250000D01*
G01*
X109941000Y-93700000D01*
G75*
G02*
X109691000Y-93950000I-250000J0D01*
G01*
X108241000Y-93950000D01*
G75*
G02*
X107991000Y-93700000I0J250000D01*
G01*
X107991000Y-92500000D01*
G75*
G02*
X108241000Y-92250000I250000J0D01*
G01*
G37*
D14*
X108966000Y-95600000D03*
X108966000Y-98100000D03*
D25*
X109200000Y-62600000D03*
G36*
G01*
X108450000Y-59250000D02*
X109950000Y-59250000D01*
G75*
G02*
X110200000Y-59500000I0J-250000D01*
G01*
X110200000Y-60700000D01*
G75*
G02*
X109950000Y-60950000I-250000J0D01*
G01*
X108450000Y-60950000D01*
G75*
G02*
X108200000Y-60700000I0J250000D01*
G01*
X108200000Y-59500000D01*
G75*
G02*
X108450000Y-59250000I250000J0D01*
G01*
G37*
G36*
G01*
X119950000Y-53150000D02*
X119950000Y-54650000D01*
G75*
G02*
X119700000Y-54900000I-250000J0D01*
G01*
X118500000Y-54900000D01*
G75*
G02*
X118250000Y-54650000I0J250000D01*
G01*
X118250000Y-53150000D01*
G75*
G02*
X118500000Y-52900000I250000J0D01*
G01*
X119700000Y-52900000D01*
G75*
G02*
X119950000Y-53150000I0J-250000D01*
G01*
G37*
D24*
X116600000Y-53900000D03*
D14*
X109093000Y-74215000D03*
X109093000Y-71715000D03*
G36*
G01*
X108368000Y-68365000D02*
X109818000Y-68365000D01*
G75*
G02*
X110068000Y-68615000I0J-250000D01*
G01*
X110068000Y-69815000D01*
G75*
G02*
X109818000Y-70065000I-250000J0D01*
G01*
X108368000Y-70065000D01*
G75*
G02*
X108118000Y-69815000I0J250000D01*
G01*
X108118000Y-68615000D01*
G75*
G02*
X108368000Y-68365000I250000J0D01*
G01*
G37*
D26*
X117300000Y-120960000D03*
X117300000Y-118420000D03*
D27*
X117300000Y-123500000D03*
X116600000Y-71150000D03*
D26*
X116600000Y-66070000D03*
X116600000Y-68610000D03*
X117890000Y-60700000D03*
X120430000Y-60700000D03*
D27*
X115350000Y-60700000D03*
X116000000Y-80180000D03*
D26*
X116000000Y-75100000D03*
X116000000Y-77640000D03*
D28*
X130500000Y-130300000D03*
D29*
X125420000Y-130300000D03*
D30*
X122700000Y-78900000D03*
X122700000Y-69900000D03*
X147300000Y-98100000D03*
X138300000Y-98100000D03*
X125850000Y-62050000D03*
X125850000Y-53050000D03*
X122650000Y-84750000D03*
X122650000Y-93750000D03*
X115950000Y-84800000D03*
X115950000Y-93800000D03*
X138300000Y-103500000D03*
X147300000Y-103500000D03*
X138300000Y-109200000D03*
X147300000Y-109200000D03*
X147300000Y-115000000D03*
X138300000Y-115000000D03*
D31*
X173600000Y-94000000D03*
D32*
X177300000Y-95700000D03*
X173600000Y-97400000D03*
X177300000Y-99100000D03*
X173600000Y-100800000D03*
X173900000Y-71300000D03*
X177600000Y-69600000D03*
X173900000Y-67900000D03*
X177600000Y-66200000D03*
D31*
X173900000Y-64500000D03*
X153300000Y-124000000D03*
D32*
X152030000Y-129080000D03*
X150760000Y-124000000D03*
X149490000Y-129080000D03*
X148220000Y-124000000D03*
X146950000Y-129080000D03*
X145680000Y-124000000D03*
X144410000Y-129080000D03*
X143140000Y-124000000D03*
X141870000Y-129080000D03*
X140600000Y-124000000D03*
X139330000Y-129080000D03*
X138060000Y-124000000D03*
X136790000Y-129080000D03*
X135520000Y-124000000D03*
D33*
X166497000Y-67945000D03*
X166497000Y-72945000D03*
X166000000Y-102500000D03*
X166000000Y-97500000D03*
D20*
X163000000Y-109500000D03*
X165000000Y-109500000D03*
X167000000Y-109500000D03*
D19*
X169000000Y-109500000D03*
D34*
X169730000Y-106780000D03*
X162730000Y-106780000D03*
X162730000Y-112220000D03*
X169730000Y-112220000D03*
M02*
